G04*
G04 #@! TF.GenerationSoftware,Altium Limited,Altium Designer,23.3.1 (30)*
G04*
G04 Layer_Physical_Order=3*
G04 Layer_Color=16440176*
%FSLAX24Y24*%
%MOIN*%
G70*
G04*
G04 #@! TF.SameCoordinates,2879F4B0-5C84-431D-B3E2-9D7652F484AD*
G04*
G04*
G04 #@! TF.FilePolarity,Positive*
G04*
G01*
G75*
%ADD39C,0.0413*%
%ADD41C,0.0236*%
G36*
X17595Y18680D02*
X17769Y18633D01*
X17936Y18564D01*
X18093Y18474D01*
X18236Y18364D01*
X18364Y18236D01*
X18474Y18093D01*
X18564Y17936D01*
X18633Y17769D01*
X18680Y17595D01*
X18703Y17416D01*
Y17325D01*
Y1577D01*
Y1487D01*
X18680Y1308D01*
X18633Y1133D01*
X18564Y967D01*
X18474Y810D01*
X18364Y667D01*
X18236Y539D01*
X18093Y429D01*
X17936Y339D01*
X17769Y270D01*
X17595Y223D01*
X17416Y199D01*
X2633D01*
X2519Y222D01*
X2411Y267D01*
X2314Y331D01*
X2273Y372D01*
X372Y2273D01*
X331Y2314D01*
X267Y2411D01*
X222Y2519D01*
X199Y2633D01*
Y2691D01*
Y16212D01*
Y16270D01*
X222Y16384D01*
X267Y16492D01*
X331Y16588D01*
X372Y16629D01*
Y16629D01*
X2273Y18530D01*
X2314Y18571D01*
X2411Y18636D01*
X2519Y18681D01*
X2633Y18703D01*
X2691D01*
Y18703D01*
X17416D01*
X17595Y18680D01*
D02*
G37*
%LPC*%
G36*
X3635Y18177D02*
X3565D01*
X3500Y18150D01*
X3450Y18100D01*
X3423Y18035D01*
Y17993D01*
X3374Y17961D01*
X3335Y17977D01*
X3265D01*
X3200Y17950D01*
X3150Y17900D01*
X3123Y17835D01*
Y17765D01*
X3150Y17700D01*
X3200Y17650D01*
X3265Y17623D01*
X3335D01*
X3400Y17650D01*
X3450Y17700D01*
X3477Y17765D01*
Y17807D01*
X3526Y17839D01*
X3565Y17823D01*
X3635D01*
X3700Y17850D01*
X3750Y17900D01*
X3777Y17965D01*
Y18035D01*
X3750Y18100D01*
X3700Y18150D01*
X3635Y18177D01*
D02*
G37*
G36*
X18035D02*
X17965D01*
X17900Y18150D01*
X17850Y18100D01*
X17823Y18035D01*
Y17965D01*
X17850Y17900D01*
X17900Y17850D01*
X17965Y17823D01*
X18035D01*
X18100Y17850D01*
X18150Y17900D01*
X18177Y17965D01*
Y18035D01*
X18150Y18100D01*
X18100Y18150D01*
X18035Y18177D01*
D02*
G37*
G36*
X16835D02*
X16765D01*
X16700Y18150D01*
X16650Y18100D01*
X16623Y18035D01*
Y17965D01*
X16650Y17900D01*
X16700Y17850D01*
X16765Y17823D01*
X16835D01*
X16900Y17850D01*
X16950Y17900D01*
X16977Y17965D01*
Y18035D01*
X16950Y18100D01*
X16900Y18150D01*
X16835Y18177D01*
D02*
G37*
G36*
X15635D02*
X15565D01*
X15500Y18150D01*
X15450Y18100D01*
X15423Y18035D01*
Y17965D01*
X15450Y17900D01*
X15500Y17850D01*
X15565Y17823D01*
X15635D01*
X15700Y17850D01*
X15750Y17900D01*
X15777Y17965D01*
Y18035D01*
X15750Y18100D01*
X15700Y18150D01*
X15635Y18177D01*
D02*
G37*
G36*
X14435D02*
X14365D01*
X14300Y18150D01*
X14250Y18100D01*
X14223Y18035D01*
Y17965D01*
X14250Y17900D01*
X14300Y17850D01*
X14365Y17823D01*
X14435D01*
X14500Y17850D01*
X14550Y17900D01*
X14577Y17965D01*
Y18035D01*
X14550Y18100D01*
X14500Y18150D01*
X14435Y18177D01*
D02*
G37*
G36*
X13235D02*
X13165D01*
X13100Y18150D01*
X13050Y18100D01*
X13023Y18035D01*
Y17965D01*
X13050Y17900D01*
X13100Y17850D01*
X13165Y17823D01*
X13235D01*
X13300Y17850D01*
X13350Y17900D01*
X13377Y17965D01*
Y18035D01*
X13350Y18100D01*
X13300Y18150D01*
X13235Y18177D01*
D02*
G37*
G36*
X12035D02*
X11965D01*
X11900Y18150D01*
X11850Y18100D01*
X11823Y18035D01*
Y17965D01*
X11850Y17900D01*
X11900Y17850D01*
X11965Y17823D01*
X12035D01*
X12100Y17850D01*
X12150Y17900D01*
X12177Y17965D01*
Y18035D01*
X12150Y18100D01*
X12100Y18150D01*
X12035Y18177D01*
D02*
G37*
G36*
X10835D02*
X10765D01*
X10700Y18150D01*
X10650Y18100D01*
X10623Y18035D01*
Y17965D01*
X10650Y17900D01*
X10700Y17850D01*
X10765Y17823D01*
X10835D01*
X10900Y17850D01*
X10950Y17900D01*
X10977Y17965D01*
Y18035D01*
X10950Y18100D01*
X10900Y18150D01*
X10835Y18177D01*
D02*
G37*
G36*
X9635D02*
X9565D01*
X9500Y18150D01*
X9450Y18100D01*
X9423Y18035D01*
Y17965D01*
X9450Y17900D01*
X9500Y17850D01*
X9565Y17823D01*
X9635D01*
X9700Y17850D01*
X9750Y17900D01*
X9777Y17965D01*
Y18035D01*
X9750Y18100D01*
X9700Y18150D01*
X9635Y18177D01*
D02*
G37*
G36*
X8435D02*
X8365D01*
X8300Y18150D01*
X8250Y18100D01*
X8223Y18035D01*
Y17965D01*
X8250Y17900D01*
X8300Y17850D01*
X8365Y17823D01*
X8435D01*
X8500Y17850D01*
X8550Y17900D01*
X8577Y17965D01*
Y18035D01*
X8550Y18100D01*
X8500Y18150D01*
X8435Y18177D01*
D02*
G37*
G36*
X7235D02*
X7165D01*
X7100Y18150D01*
X7050Y18100D01*
X7023Y18035D01*
Y17965D01*
X7050Y17900D01*
X7100Y17850D01*
X7165Y17823D01*
X7235D01*
X7300Y17850D01*
X7350Y17900D01*
X7377Y17965D01*
Y18035D01*
X7350Y18100D01*
X7300Y18150D01*
X7235Y18177D01*
D02*
G37*
G36*
X6035D02*
X5965D01*
X5900Y18150D01*
X5850Y18100D01*
X5823Y18035D01*
Y17965D01*
X5850Y17900D01*
X5900Y17850D01*
X5965Y17823D01*
X6035D01*
X6100Y17850D01*
X6150Y17900D01*
X6177Y17965D01*
Y18035D01*
X6150Y18100D01*
X6100Y18150D01*
X6035Y18177D01*
D02*
G37*
G36*
X4835D02*
X4765D01*
X4700Y18150D01*
X4650Y18100D01*
X4623Y18035D01*
Y17965D01*
X4650Y17900D01*
X4700Y17850D01*
X4765Y17823D01*
X4835D01*
X4900Y17850D01*
X4950Y17900D01*
X4977Y17965D01*
Y18035D01*
X4950Y18100D01*
X4900Y18150D01*
X4835Y18177D01*
D02*
G37*
G36*
X2435D02*
X2365D01*
X2300Y18150D01*
X2250Y18100D01*
X2223Y18035D01*
Y17965D01*
X2250Y17900D01*
X2300Y17850D01*
X2365Y17823D01*
X2435D01*
X2500Y17850D01*
X2550Y17900D01*
X2577Y17965D01*
Y18035D01*
X2550Y18100D01*
X2500Y18150D01*
X2435Y18177D01*
D02*
G37*
G36*
X17435Y16977D02*
X17365D01*
X17300Y16950D01*
X17250Y16900D01*
X17223Y16835D01*
Y16765D01*
X17250Y16700D01*
X17300Y16650D01*
X17365Y16623D01*
X17435D01*
X17500Y16650D01*
X17550Y16700D01*
X17577Y16765D01*
Y16835D01*
X17550Y16900D01*
X17500Y16950D01*
X17435Y16977D01*
D02*
G37*
G36*
X13835D02*
X13765D01*
X13700Y16950D01*
X13650Y16900D01*
X13623Y16835D01*
Y16765D01*
X13650Y16700D01*
X13700Y16650D01*
X13765Y16623D01*
X13835D01*
X13900Y16650D01*
X13950Y16700D01*
X13977Y16765D01*
Y16835D01*
X13950Y16900D01*
X13900Y16950D01*
X13835Y16977D01*
D02*
G37*
G36*
X12635D02*
X12565D01*
X12500Y16950D01*
X12450Y16900D01*
X12423Y16835D01*
Y16765D01*
X12450Y16700D01*
X12500Y16650D01*
X12565Y16623D01*
X12635D01*
X12700Y16650D01*
X12750Y16700D01*
X12777Y16765D01*
Y16835D01*
X12750Y16900D01*
X12700Y16950D01*
X12635Y16977D01*
D02*
G37*
G36*
X11435D02*
X11365D01*
X11300Y16950D01*
X11250Y16900D01*
X11223Y16835D01*
Y16765D01*
X11250Y16700D01*
X11300Y16650D01*
X11365Y16623D01*
X11435D01*
X11500Y16650D01*
X11550Y16700D01*
X11577Y16765D01*
Y16835D01*
X11550Y16900D01*
X11500Y16950D01*
X11435Y16977D01*
D02*
G37*
G36*
X10235D02*
X10165D01*
X10100Y16950D01*
X10050Y16900D01*
X10023Y16835D01*
Y16765D01*
X10050Y16700D01*
X10100Y16650D01*
X10165Y16623D01*
X10235D01*
X10300Y16650D01*
X10350Y16700D01*
X10377Y16765D01*
Y16835D01*
X10350Y16900D01*
X10300Y16950D01*
X10235Y16977D01*
D02*
G37*
G36*
X9035D02*
X8965D01*
X8900Y16950D01*
X8850Y16900D01*
X8823Y16835D01*
Y16765D01*
X8850Y16700D01*
X8900Y16650D01*
X8965Y16623D01*
X9035D01*
X9100Y16650D01*
X9150Y16700D01*
X9177Y16765D01*
Y16835D01*
X9150Y16900D01*
X9100Y16950D01*
X9035Y16977D01*
D02*
G37*
G36*
X7835D02*
X7765D01*
X7700Y16950D01*
X7650Y16900D01*
X7623Y16835D01*
Y16765D01*
X7650Y16700D01*
X7700Y16650D01*
X7765Y16623D01*
X7835D01*
X7900Y16650D01*
X7950Y16700D01*
X7977Y16765D01*
Y16835D01*
X7950Y16900D01*
X7900Y16950D01*
X7835Y16977D01*
D02*
G37*
G36*
X6635D02*
X6565D01*
X6500Y16950D01*
X6450Y16900D01*
X6423Y16835D01*
Y16765D01*
X6450Y16700D01*
X6500Y16650D01*
X6565Y16623D01*
X6635D01*
X6700Y16650D01*
X6750Y16700D01*
X6777Y16765D01*
Y16835D01*
X6750Y16900D01*
X6700Y16950D01*
X6635Y16977D01*
D02*
G37*
G36*
X5435D02*
X5365D01*
X5300Y16950D01*
X5250Y16900D01*
X5223Y16835D01*
Y16765D01*
X5250Y16700D01*
X5300Y16650D01*
X5365Y16623D01*
X5435D01*
X5500Y16650D01*
X5550Y16700D01*
X5577Y16765D01*
Y16835D01*
X5550Y16900D01*
X5500Y16950D01*
X5435Y16977D01*
D02*
G37*
G36*
X4235D02*
X4165D01*
X4100Y16950D01*
X4050Y16900D01*
X4023Y16835D01*
Y16765D01*
X4050Y16700D01*
X4100Y16650D01*
X4165Y16623D01*
X4235D01*
X4300Y16650D01*
X4350Y16700D01*
X4377Y16765D01*
Y16835D01*
X4350Y16900D01*
X4300Y16950D01*
X4235Y16977D01*
D02*
G37*
G36*
X1835D02*
X1765D01*
X1700Y16950D01*
X1650Y16900D01*
X1623Y16835D01*
Y16765D01*
X1650Y16700D01*
X1700Y16650D01*
X1765Y16623D01*
X1835D01*
X1900Y16650D01*
X1950Y16700D01*
X1977Y16765D01*
Y16835D01*
X1950Y16900D01*
X1900Y16950D01*
X1835Y16977D01*
D02*
G37*
G36*
X14435Y16777D02*
X14365D01*
X14300Y16750D01*
X14250Y16700D01*
X14223Y16635D01*
Y16565D01*
X14250Y16500D01*
X14300Y16450D01*
X14365Y16423D01*
X14435D01*
X14500Y16450D01*
X14550Y16500D01*
X14577Y16565D01*
Y16635D01*
X14550Y16700D01*
X14500Y16750D01*
X14435Y16777D01*
D02*
G37*
G36*
X15835Y16727D02*
X15765D01*
X15700Y16700D01*
X15650Y16650D01*
X15623Y16585D01*
Y16515D01*
X15650Y16450D01*
X15700Y16400D01*
X15765Y16373D01*
X15835D01*
X15900Y16400D01*
X15950Y16450D01*
X15977Y16515D01*
Y16585D01*
X15950Y16650D01*
X15900Y16700D01*
X15835Y16727D01*
D02*
G37*
G36*
X685Y16277D02*
X615D01*
X550Y16250D01*
X500Y16200D01*
X473Y16135D01*
Y16065D01*
X500Y16000D01*
X550Y15950D01*
X615Y15923D01*
X685D01*
X750Y15950D01*
X800Y16000D01*
X827Y16065D01*
Y16135D01*
X800Y16200D01*
X750Y16250D01*
X685Y16277D01*
D02*
G37*
G36*
X18035Y15777D02*
X17965D01*
X17900Y15750D01*
X17850Y15700D01*
X17823Y15635D01*
Y15565D01*
X17850Y15500D01*
X17900Y15450D01*
X17965Y15423D01*
X18035D01*
X18100Y15450D01*
X18150Y15500D01*
X18177Y15565D01*
Y15635D01*
X18150Y15700D01*
X18100Y15750D01*
X18035Y15777D01*
D02*
G37*
G36*
X13235D02*
X13165D01*
X13100Y15750D01*
X13050Y15700D01*
X13023Y15635D01*
Y15565D01*
X13050Y15500D01*
X13100Y15450D01*
X13165Y15423D01*
X13235D01*
X13300Y15450D01*
X13350Y15500D01*
X13377Y15565D01*
Y15635D01*
X13350Y15700D01*
X13300Y15750D01*
X13235Y15777D01*
D02*
G37*
G36*
X7235D02*
X7165D01*
X7100Y15750D01*
X7050Y15700D01*
X7023Y15635D01*
Y15565D01*
X7050Y15500D01*
X7100Y15450D01*
X7165Y15423D01*
X7235D01*
X7300Y15450D01*
X7350Y15500D01*
X7377Y15565D01*
Y15635D01*
X7350Y15700D01*
X7300Y15750D01*
X7235Y15777D01*
D02*
G37*
G36*
X5585Y15077D02*
X5515D01*
X5450Y15050D01*
X5400Y15000D01*
X5373Y14935D01*
Y14865D01*
X5400Y14800D01*
X5450Y14750D01*
X5515Y14723D01*
X5585D01*
X5650Y14750D01*
X5700Y14800D01*
X5727Y14865D01*
Y14935D01*
X5700Y15000D01*
X5650Y15050D01*
X5585Y15077D01*
D02*
G37*
G36*
X8835Y15027D02*
X8765D01*
X8700Y15000D01*
X8650Y14950D01*
X8623Y14885D01*
Y14815D01*
X8650Y14750D01*
X8700Y14700D01*
X8765Y14673D01*
X8835D01*
X8900Y14700D01*
X8950Y14750D01*
X8977Y14815D01*
Y14885D01*
X8950Y14950D01*
X8900Y15000D01*
X8835Y15027D01*
D02*
G37*
G36*
X17935Y14927D02*
X17865D01*
X17800Y14900D01*
X17750Y14850D01*
X17723Y14785D01*
Y14715D01*
X17750Y14650D01*
X17800Y14600D01*
X17865Y14573D01*
X17935D01*
X18000Y14600D01*
X18050Y14650D01*
X18077Y14715D01*
Y14785D01*
X18050Y14850D01*
X18000Y14900D01*
X17935Y14927D01*
D02*
G37*
G36*
X1835Y14577D02*
X1765D01*
X1700Y14550D01*
X1650Y14500D01*
X1623Y14435D01*
Y14365D01*
X1650Y14300D01*
X1700Y14250D01*
X1765Y14223D01*
X1835D01*
X1900Y14250D01*
X1950Y14300D01*
X1977Y14365D01*
Y14435D01*
X1950Y14500D01*
X1900Y14550D01*
X1835Y14577D01*
D02*
G37*
G36*
X11335Y14266D02*
X11265D01*
X11197Y14248D01*
X11137Y14213D01*
X11087Y14163D01*
X11079Y14148D01*
X11021D01*
X11013Y14163D01*
X10963Y14213D01*
X10903Y14248D01*
X10835Y14266D01*
X10765D01*
X10697Y14248D01*
X10637Y14213D01*
X10587Y14163D01*
X10552Y14103D01*
X10534Y14035D01*
Y13965D01*
X10552Y13897D01*
X10587Y13837D01*
X10637Y13787D01*
X10697Y13752D01*
X10765Y13734D01*
X10835D01*
X10903Y13752D01*
X10963Y13787D01*
X11013Y13837D01*
X11021Y13852D01*
X11079D01*
X11087Y13837D01*
X11137Y13787D01*
X11197Y13752D01*
X11265Y13734D01*
X11335D01*
X11403Y13752D01*
X11463Y13787D01*
X11513Y13837D01*
X11548Y13897D01*
X11566Y13965D01*
Y14035D01*
X11548Y14103D01*
X11513Y14163D01*
X11463Y14213D01*
X11403Y14248D01*
X11335Y14266D01*
D02*
G37*
G36*
X1035Y14416D02*
X965D01*
X897Y14398D01*
X837Y14363D01*
X787Y14313D01*
X752Y14253D01*
X734Y14185D01*
Y14115D01*
X752Y14047D01*
X787Y13987D01*
X818Y13957D01*
X814Y13897D01*
X812Y13895D01*
X755Y13838D01*
X714Y13768D01*
X693Y13690D01*
Y13680D01*
X1000D01*
X1307D01*
Y13690D01*
X1286Y13768D01*
X1245Y13838D01*
X1188Y13895D01*
X1186Y13897D01*
X1182Y13957D01*
X1213Y13987D01*
X1248Y14047D01*
X1266Y14115D01*
Y14185D01*
X1248Y14253D01*
X1213Y14313D01*
X1163Y14363D01*
X1103Y14398D01*
X1035Y14416D01*
D02*
G37*
G36*
X12085Y13877D02*
X12015D01*
X11950Y13850D01*
X11900Y13800D01*
X11873Y13735D01*
Y13665D01*
X11900Y13600D01*
X11950Y13550D01*
X12015Y13523D01*
X12085D01*
X12150Y13550D01*
X12200Y13600D01*
X12227Y13665D01*
Y13735D01*
X12200Y13800D01*
X12150Y13850D01*
X12085Y13877D01*
D02*
G37*
G36*
X7535Y13727D02*
X7465D01*
X7400Y13700D01*
X7350Y13650D01*
X7323Y13585D01*
Y13515D01*
X7350Y13450D01*
X7400Y13400D01*
X7465Y13373D01*
X7535D01*
X7600Y13400D01*
X7650Y13450D01*
X7677Y13515D01*
Y13585D01*
X7650Y13650D01*
X7600Y13700D01*
X7535Y13727D01*
D02*
G37*
G36*
X9635Y13377D02*
X9565D01*
X9500Y13350D01*
X9450Y13300D01*
X9440Y13276D01*
X9439Y13276D01*
X9382Y13268D01*
X9350Y13300D01*
X9285Y13327D01*
X9215D01*
X9150Y13300D01*
X9100Y13250D01*
X9073Y13185D01*
Y13115D01*
X9100Y13050D01*
X9150Y13000D01*
X9215Y12973D01*
X9285D01*
X9350Y13000D01*
X9400Y13050D01*
X9410Y13074D01*
X9411Y13074D01*
X9468Y13082D01*
X9500Y13050D01*
X9565Y13023D01*
X9635D01*
X9700Y13050D01*
X9750Y13100D01*
X9777Y13165D01*
Y13235D01*
X9750Y13300D01*
X9700Y13350D01*
X9635Y13377D01*
D02*
G37*
G36*
X14435D02*
X14365D01*
X14300Y13350D01*
X14250Y13300D01*
X14223Y13235D01*
Y13165D01*
X14250Y13100D01*
X14300Y13050D01*
X14365Y13023D01*
X14435D01*
X14500Y13050D01*
X14550Y13100D01*
X14577Y13165D01*
Y13235D01*
X14550Y13300D01*
X14500Y13350D01*
X14435Y13377D01*
D02*
G37*
G36*
X13235D02*
X13165D01*
X13100Y13350D01*
X13050Y13300D01*
X13023Y13235D01*
Y13165D01*
X13050Y13100D01*
X13100Y13050D01*
X13165Y13023D01*
X13235D01*
X13300Y13050D01*
X13350Y13100D01*
X13377Y13165D01*
Y13235D01*
X13350Y13300D01*
X13300Y13350D01*
X13235Y13377D01*
D02*
G37*
G36*
X12035D02*
X11965D01*
X11900Y13350D01*
X11850Y13300D01*
X11823Y13235D01*
Y13165D01*
X11850Y13100D01*
X11900Y13050D01*
X11965Y13023D01*
X12035D01*
X12100Y13050D01*
X12150Y13100D01*
X12177Y13165D01*
Y13235D01*
X12150Y13300D01*
X12100Y13350D01*
X12035Y13377D01*
D02*
G37*
G36*
X10835D02*
X10765D01*
X10700Y13350D01*
X10650Y13300D01*
X10623Y13235D01*
Y13165D01*
X10650Y13100D01*
X10700Y13050D01*
X10765Y13023D01*
X10835D01*
X10900Y13050D01*
X10950Y13100D01*
X10977Y13165D01*
Y13235D01*
X10950Y13300D01*
X10900Y13350D01*
X10835Y13377D01*
D02*
G37*
G36*
X7235D02*
X7165D01*
X7100Y13350D01*
X7050Y13300D01*
X7023Y13235D01*
Y13165D01*
X7050Y13100D01*
X7100Y13050D01*
X7165Y13023D01*
X7235D01*
X7300Y13050D01*
X7350Y13100D01*
X7377Y13165D01*
Y13235D01*
X7350Y13300D01*
X7300Y13350D01*
X7235Y13377D01*
D02*
G37*
G36*
X6035D02*
X5965D01*
X5900Y13350D01*
X5850Y13300D01*
X5823Y13235D01*
Y13165D01*
X5850Y13100D01*
X5900Y13050D01*
X5965Y13023D01*
X6035D01*
X6100Y13050D01*
X6150Y13100D01*
X6177Y13165D01*
Y13235D01*
X6150Y13300D01*
X6100Y13350D01*
X6035Y13377D01*
D02*
G37*
G36*
X4835D02*
X4765D01*
X4700Y13350D01*
X4650Y13300D01*
X4623Y13235D01*
Y13165D01*
X4650Y13100D01*
X4700Y13050D01*
X4765Y13023D01*
X4835D01*
X4900Y13050D01*
X4950Y13100D01*
X4977Y13165D01*
Y13235D01*
X4950Y13300D01*
X4900Y13350D01*
X4835Y13377D01*
D02*
G37*
G36*
X3635D02*
X3565D01*
X3500Y13350D01*
X3450Y13300D01*
X3423Y13235D01*
Y13165D01*
X3450Y13100D01*
X3500Y13050D01*
X3565Y13023D01*
X3635D01*
X3700Y13050D01*
X3750Y13100D01*
X3777Y13165D01*
Y13235D01*
X3750Y13300D01*
X3700Y13350D01*
X3635Y13377D01*
D02*
G37*
G36*
X15885Y12877D02*
X15815D01*
X15750Y12850D01*
X15700Y12800D01*
X15673Y12735D01*
Y12665D01*
X15700Y12600D01*
X15750Y12550D01*
X15815Y12523D01*
X15885D01*
X15950Y12550D01*
X16000Y12600D01*
X16027Y12665D01*
Y12735D01*
X16000Y12800D01*
X15950Y12850D01*
X15885Y12877D01*
D02*
G37*
G36*
X14385Y12777D02*
X14315D01*
X14250Y12750D01*
X14200Y12700D01*
X14173Y12635D01*
Y12565D01*
X14200Y12500D01*
X14250Y12450D01*
X14315Y12423D01*
X14385D01*
X14450Y12450D01*
X14500Y12500D01*
X14527Y12565D01*
Y12635D01*
X14500Y12700D01*
X14450Y12750D01*
X14385Y12777D01*
D02*
G37*
G36*
X7835Y12177D02*
X7765D01*
X7700Y12150D01*
X7650Y12100D01*
X7623Y12035D01*
Y11965D01*
X7650Y11900D01*
X7700Y11850D01*
X7765Y11823D01*
X7835D01*
X7900Y11850D01*
X7950Y11900D01*
X7977Y11965D01*
Y12035D01*
X7950Y12100D01*
X7900Y12150D01*
X7835Y12177D01*
D02*
G37*
G36*
X1835D02*
X1765D01*
X1700Y12150D01*
X1650Y12100D01*
X1623Y12035D01*
Y11965D01*
X1650Y11900D01*
X1700Y11850D01*
X1765Y11823D01*
X1835D01*
X1900Y11850D01*
X1950Y11900D01*
X1977Y11965D01*
Y12035D01*
X1950Y12100D01*
X1900Y12150D01*
X1835Y12177D01*
D02*
G37*
G36*
X7435Y11827D02*
X7365D01*
X7300Y11800D01*
X7250Y11750D01*
X7223Y11685D01*
Y11615D01*
X7250Y11550D01*
X7300Y11500D01*
X7365Y11473D01*
X7435D01*
X7500Y11500D01*
X7550Y11550D01*
X7577Y11615D01*
Y11685D01*
X7550Y11750D01*
X7500Y11800D01*
X7435Y11827D01*
D02*
G37*
G36*
X3685Y11377D02*
X3615D01*
X3550Y11350D01*
X3500Y11300D01*
X3473Y11235D01*
Y11165D01*
X3500Y11100D01*
X3550Y11050D01*
X3615Y11023D01*
X3685D01*
X3750Y11050D01*
X3800Y11100D01*
X3827Y11165D01*
Y11235D01*
X3800Y11300D01*
X3750Y11350D01*
X3685Y11377D01*
D02*
G37*
G36*
X4835Y10977D02*
X4765D01*
X4700Y10950D01*
X4650Y10901D01*
X4600Y10950D01*
X4535Y10977D01*
X4465D01*
X4400Y10950D01*
X4350Y10900D01*
X4323Y10835D01*
Y10765D01*
X4350Y10700D01*
X4400Y10650D01*
X4465Y10623D01*
X4535D01*
X4600Y10650D01*
X4650Y10699D01*
X4700Y10650D01*
X4765Y10623D01*
X4835D01*
X4900Y10650D01*
X4950Y10700D01*
X4977Y10765D01*
Y10835D01*
X4950Y10900D01*
X4900Y10950D01*
X4835Y10977D01*
D02*
G37*
G36*
X18035Y11177D02*
X17965D01*
X17900Y11150D01*
X17850Y11100D01*
X17823Y11035D01*
Y10965D01*
X17850Y10900D01*
X17900Y10850D01*
X17965Y10823D01*
X18035D01*
X18100Y10850D01*
X18150Y10900D01*
X18177Y10965D01*
Y11035D01*
X18150Y11100D01*
X18100Y11150D01*
X18035Y11177D01*
D02*
G37*
G36*
X5635Y11077D02*
X5565D01*
X5500Y11050D01*
X5450Y11000D01*
X5423Y10935D01*
Y10865D01*
X5450Y10800D01*
X5500Y10750D01*
X5565Y10723D01*
X5635D01*
X5700Y10750D01*
X5750Y10800D01*
X5777Y10865D01*
Y10935D01*
X5750Y11000D01*
X5700Y11050D01*
X5635Y11077D01*
D02*
G37*
G36*
X8374Y11002D02*
X8303D01*
X8238Y10975D01*
X8188Y10925D01*
X8161Y10860D01*
Y10789D01*
X8188Y10724D01*
X8238Y10674D01*
X8303Y10647D01*
X8374D01*
X8439Y10674D01*
X8489Y10724D01*
X8516Y10789D01*
Y10860D01*
X8489Y10925D01*
X8439Y10975D01*
X8374Y11002D01*
D02*
G37*
G36*
X16835Y10977D02*
X16765D01*
X16700Y10950D01*
X16650Y10900D01*
X16623Y10835D01*
Y10765D01*
X16650Y10700D01*
X16700Y10650D01*
X16765Y10623D01*
X16835D01*
X16900Y10650D01*
X16950Y10700D01*
X16977Y10765D01*
Y10835D01*
X16950Y10900D01*
X16900Y10950D01*
X16835Y10977D01*
D02*
G37*
G36*
X13235D02*
X13165D01*
X13100Y10950D01*
X13050Y10900D01*
X13023Y10835D01*
Y10765D01*
X13050Y10700D01*
X13100Y10650D01*
X13165Y10623D01*
X13235D01*
X13300Y10650D01*
X13350Y10700D01*
X13377Y10765D01*
Y10835D01*
X13350Y10900D01*
X13300Y10950D01*
X13235Y10977D01*
D02*
G37*
G36*
X10835D02*
X10765D01*
X10700Y10950D01*
X10650Y10900D01*
X10623Y10835D01*
Y10765D01*
X10650Y10700D01*
X10700Y10650D01*
X10765Y10623D01*
X10835D01*
X10900Y10650D01*
X10950Y10700D01*
X10977Y10765D01*
Y10835D01*
X10950Y10900D01*
X10900Y10950D01*
X10835Y10977D01*
D02*
G37*
G36*
X11585Y10166D02*
X11515D01*
X11447Y10148D01*
X11387Y10113D01*
X11337Y10063D01*
X11329Y10048D01*
X11271D01*
X11263Y10063D01*
X11213Y10113D01*
X11153Y10148D01*
X11085Y10166D01*
X11015D01*
X10947Y10148D01*
X10887Y10113D01*
X10837Y10063D01*
X10802Y10003D01*
X10784Y9935D01*
Y9865D01*
X10802Y9797D01*
X10837Y9737D01*
X10887Y9687D01*
X10947Y9652D01*
X11015Y9634D01*
X11085D01*
X11153Y9652D01*
X11213Y9687D01*
X11263Y9737D01*
X11271Y9752D01*
X11329D01*
X11337Y9737D01*
X11387Y9687D01*
X11447Y9652D01*
X11515Y9634D01*
X11585D01*
X11653Y9652D01*
X11713Y9687D01*
X11763Y9737D01*
X11798Y9797D01*
X11816Y9865D01*
Y9935D01*
X11798Y10003D01*
X11763Y10063D01*
X11713Y10113D01*
X11653Y10148D01*
X11585Y10166D01*
D02*
G37*
G36*
X12235Y9927D02*
X12165D01*
X12100Y9900D01*
X12050Y9850D01*
X12023Y9785D01*
Y9715D01*
X12050Y9650D01*
X12100Y9600D01*
X12165Y9573D01*
X12235D01*
X12300Y9600D01*
X12350Y9650D01*
X12377Y9715D01*
Y9785D01*
X12350Y9850D01*
X12300Y9900D01*
X12235Y9927D01*
D02*
G37*
G36*
X17435Y9777D02*
X17365D01*
X17300Y9750D01*
X17250Y9700D01*
X17223Y9635D01*
Y9565D01*
X17250Y9500D01*
X17300Y9450D01*
X17365Y9423D01*
X17435D01*
X17500Y9450D01*
X17550Y9500D01*
X17577Y9565D01*
Y9635D01*
X17550Y9700D01*
X17500Y9750D01*
X17435Y9777D01*
D02*
G37*
G36*
X7435D02*
X7365D01*
X7300Y9750D01*
X7250Y9700D01*
X7223Y9635D01*
Y9565D01*
X7250Y9500D01*
X7300Y9450D01*
X7365Y9423D01*
X7435D01*
X7500Y9450D01*
X7550Y9500D01*
X7577Y9565D01*
Y9635D01*
X7550Y9700D01*
X7500Y9750D01*
X7435Y9777D01*
D02*
G37*
G36*
X16035Y8577D02*
X15965D01*
X15900Y8550D01*
X15850Y8500D01*
X15825Y8440D01*
X15800Y8438D01*
X15775Y8440D01*
X15750Y8500D01*
X15700Y8550D01*
X15635Y8577D01*
X15565D01*
X15500Y8550D01*
X15450Y8500D01*
X15423Y8435D01*
Y8365D01*
X15450Y8300D01*
X15500Y8250D01*
X15565Y8223D01*
X15635D01*
X15700Y8250D01*
X15750Y8300D01*
X15775Y8360D01*
X15800Y8362D01*
X15825Y8360D01*
X15850Y8300D01*
X15900Y8250D01*
X15965Y8223D01*
X16035D01*
X16100Y8250D01*
X16150Y8300D01*
X16177Y8365D01*
Y8435D01*
X16150Y8500D01*
X16100Y8550D01*
X16035Y8577D01*
D02*
G37*
G36*
X14385D02*
X14315D01*
X14250Y8550D01*
X14200Y8500D01*
X14173Y8435D01*
Y8365D01*
X14200Y8300D01*
X14250Y8250D01*
X14315Y8223D01*
X14385D01*
X14450Y8250D01*
X14500Y8300D01*
X14527Y8365D01*
Y8435D01*
X14500Y8500D01*
X14450Y8550D01*
X14385Y8577D01*
D02*
G37*
G36*
X13235D02*
X13165D01*
X13100Y8550D01*
X13050Y8500D01*
X13023Y8435D01*
Y8365D01*
X13050Y8300D01*
X13100Y8250D01*
X13165Y8223D01*
X13235D01*
X13300Y8250D01*
X13350Y8300D01*
X13377Y8365D01*
Y8435D01*
X13350Y8500D01*
X13300Y8550D01*
X13235Y8577D01*
D02*
G37*
G36*
X10835D02*
X10765D01*
X10700Y8550D01*
X10650Y8500D01*
X10623Y8435D01*
Y8365D01*
X10650Y8300D01*
X10700Y8250D01*
X10765Y8223D01*
X10835D01*
X10900Y8250D01*
X10950Y8300D01*
X10977Y8365D01*
Y8435D01*
X10950Y8500D01*
X10900Y8550D01*
X10835Y8577D01*
D02*
G37*
G36*
X9635D02*
X9565D01*
X9500Y8550D01*
X9450Y8500D01*
X9423Y8435D01*
Y8365D01*
X9450Y8300D01*
X9500Y8250D01*
X9565Y8223D01*
X9635D01*
X9700Y8250D01*
X9750Y8300D01*
X9777Y8365D01*
Y8435D01*
X9750Y8500D01*
X9700Y8550D01*
X9635Y8577D01*
D02*
G37*
G36*
X2265Y8534D02*
X2195D01*
X2130Y8507D01*
X2080Y8457D01*
X2053Y8392D01*
Y8322D01*
X2080Y8257D01*
X2130Y8207D01*
X2195Y8180D01*
X2265D01*
X2330Y8207D01*
X2380Y8257D01*
X2407Y8322D01*
Y8392D01*
X2380Y8457D01*
X2330Y8507D01*
X2265Y8534D01*
D02*
G37*
G36*
X3936Y8474D02*
X3864D01*
X3794Y8455D01*
X3732Y8419D01*
X3681Y8368D01*
X3645Y8306D01*
X3626Y8236D01*
Y8164D01*
X3645Y8094D01*
X3681Y8032D01*
X3732Y7981D01*
X3794Y7945D01*
X3864Y7926D01*
X3936D01*
X4006Y7945D01*
X4068Y7981D01*
X4119Y8032D01*
X4155Y8094D01*
X4174Y8164D01*
Y8236D01*
X4155Y8306D01*
X4119Y8368D01*
X4068Y8419D01*
X4006Y8455D01*
X3936Y8474D01*
D02*
G37*
G36*
X7435Y7927D02*
X7365D01*
X7300Y7900D01*
X7250Y7850D01*
X7223Y7785D01*
Y7715D01*
X7250Y7650D01*
X7300Y7600D01*
X7365Y7573D01*
X7435D01*
X7500Y7600D01*
X7550Y7650D01*
X7577Y7715D01*
Y7785D01*
X7550Y7850D01*
X7500Y7900D01*
X7435Y7927D01*
D02*
G37*
G36*
X6635Y7377D02*
X6565D01*
X6500Y7350D01*
X6450Y7300D01*
X6423Y7235D01*
Y7165D01*
X6450Y7100D01*
X6500Y7050D01*
X6565Y7023D01*
X6635D01*
X6700Y7050D01*
X6750Y7100D01*
X6777Y7165D01*
Y7235D01*
X6750Y7300D01*
X6700Y7350D01*
X6635Y7377D01*
D02*
G37*
G36*
X5435D02*
X5365D01*
X5300Y7350D01*
X5250Y7300D01*
X5223Y7235D01*
Y7165D01*
X5250Y7100D01*
X5300Y7050D01*
X5365Y7023D01*
X5435D01*
X5500Y7050D01*
X5550Y7100D01*
X5577Y7165D01*
Y7235D01*
X5550Y7300D01*
X5500Y7350D01*
X5435Y7377D01*
D02*
G37*
G36*
X1835D02*
X1765D01*
X1700Y7350D01*
X1650Y7300D01*
X1623Y7235D01*
Y7165D01*
X1650Y7100D01*
X1700Y7050D01*
X1765Y7023D01*
X1835D01*
X1900Y7050D01*
X1950Y7100D01*
X1977Y7165D01*
Y7235D01*
X1950Y7300D01*
X1900Y7350D01*
X1835Y7377D01*
D02*
G37*
G36*
X18035Y7277D02*
X17965D01*
X17900Y7250D01*
X17850Y7200D01*
X17823Y7135D01*
Y7065D01*
X17850Y7000D01*
X17900Y6950D01*
X17965Y6923D01*
X18035D01*
X18100Y6950D01*
X18150Y7000D01*
X18177Y7065D01*
Y7135D01*
X18150Y7200D01*
X18100Y7250D01*
X18035Y7277D01*
D02*
G37*
G36*
X5735Y6927D02*
X5665D01*
X5600Y6900D01*
X5550Y6850D01*
X5523Y6785D01*
Y6715D01*
X5550Y6650D01*
X5600Y6600D01*
X5665Y6573D01*
X5735D01*
X5800Y6600D01*
X5850Y6650D01*
X5877Y6715D01*
Y6785D01*
X5850Y6850D01*
X5800Y6900D01*
X5735Y6927D01*
D02*
G37*
G36*
X3836Y7024D02*
X3764D01*
X3694Y7005D01*
X3632Y6969D01*
X3581Y6918D01*
X3545Y6856D01*
X3526Y6786D01*
Y6714D01*
X3545Y6644D01*
X3581Y6582D01*
X3632Y6531D01*
X3694Y6495D01*
X3764Y6476D01*
X3836D01*
X3906Y6495D01*
X3968Y6531D01*
X4019Y6582D01*
X4055Y6644D01*
X4074Y6714D01*
Y6786D01*
X4055Y6856D01*
X4019Y6918D01*
X3968Y6969D01*
X3906Y7005D01*
X3836Y7024D01*
D02*
G37*
G36*
X11535Y6116D02*
X11465D01*
X11397Y6098D01*
X11337Y6063D01*
X11287Y6013D01*
X11279Y5998D01*
X11221D01*
X11213Y6013D01*
X11163Y6063D01*
X11103Y6098D01*
X11035Y6116D01*
X10965D01*
X10897Y6098D01*
X10837Y6063D01*
X10787Y6013D01*
X10752Y5953D01*
X10734Y5885D01*
Y5815D01*
X10752Y5747D01*
X10787Y5687D01*
X10837Y5637D01*
X10897Y5602D01*
X10965Y5584D01*
X11035D01*
X11103Y5602D01*
X11163Y5637D01*
X11213Y5687D01*
X11221Y5702D01*
X11279D01*
X11287Y5687D01*
X11337Y5637D01*
X11397Y5602D01*
X11465Y5584D01*
X11535D01*
X11603Y5602D01*
X11663Y5637D01*
X11713Y5687D01*
X11748Y5747D01*
X11766Y5815D01*
Y5885D01*
X11748Y5953D01*
X11713Y6013D01*
X11663Y6063D01*
X11603Y6098D01*
X11535Y6116D01*
D02*
G37*
G36*
X3785Y5827D02*
X3715D01*
X3650Y5800D01*
X3600Y5750D01*
X3573Y5685D01*
Y5615D01*
X3600Y5550D01*
X3650Y5500D01*
X3715Y5473D01*
X3785D01*
X3850Y5500D01*
X3900Y5550D01*
X3927Y5615D01*
Y5685D01*
X3900Y5750D01*
X3850Y5800D01*
X3785Y5827D01*
D02*
G37*
G36*
X12185Y5777D02*
X12115D01*
X12050Y5750D01*
X12000Y5700D01*
X11973Y5635D01*
Y5565D01*
X12000Y5500D01*
X12050Y5450D01*
X12115Y5423D01*
X12185D01*
X12250Y5450D01*
X12300Y5500D01*
X12327Y5565D01*
Y5635D01*
X12300Y5700D01*
X12250Y5750D01*
X12185Y5777D01*
D02*
G37*
G36*
X7485Y5727D02*
X7415D01*
X7350Y5700D01*
X7300Y5650D01*
X7273Y5585D01*
Y5515D01*
X7300Y5450D01*
X7350Y5400D01*
X7415Y5373D01*
X7485D01*
X7550Y5400D01*
X7600Y5450D01*
X7627Y5515D01*
Y5585D01*
X7600Y5650D01*
X7550Y5700D01*
X7485Y5727D01*
D02*
G37*
G36*
X15685Y5627D02*
X15615D01*
X15550Y5600D01*
X15500Y5550D01*
X15473Y5485D01*
Y5415D01*
X15500Y5350D01*
X15550Y5300D01*
X15615Y5273D01*
X15685D01*
X15750Y5300D01*
X15800Y5350D01*
X15827Y5415D01*
Y5485D01*
X15800Y5550D01*
X15750Y5600D01*
X15685Y5627D01*
D02*
G37*
G36*
X4835Y5216D02*
X4765D01*
X4697Y5198D01*
X4637Y5163D01*
X4587Y5113D01*
X4579Y5098D01*
X4521D01*
X4513Y5113D01*
X4463Y5163D01*
X4403Y5198D01*
X4335Y5216D01*
X4265D01*
X4197Y5198D01*
X4137Y5163D01*
X4087Y5113D01*
X4052Y5053D01*
X4034Y4985D01*
Y4915D01*
X4052Y4847D01*
X4087Y4787D01*
X4137Y4737D01*
X4197Y4702D01*
X4265Y4684D01*
X4335D01*
X4403Y4702D01*
X4463Y4737D01*
X4513Y4787D01*
X4521Y4802D01*
X4579D01*
X4587Y4787D01*
X4637Y4737D01*
X4697Y4702D01*
X4765Y4684D01*
X4835D01*
X4903Y4702D01*
X4963Y4737D01*
X5013Y4787D01*
X5048Y4847D01*
X5066Y4915D01*
Y4985D01*
X5048Y5053D01*
X5013Y5113D01*
X4963Y5163D01*
X4903Y5198D01*
X4835Y5216D01*
D02*
G37*
G36*
X9485Y5066D02*
X9415D01*
X9347Y5048D01*
X9287Y5013D01*
X9237Y4963D01*
X9229Y4948D01*
X9171D01*
X9163Y4963D01*
X9113Y5013D01*
X9053Y5048D01*
X8985Y5066D01*
X8915D01*
X8847Y5048D01*
X8787Y5013D01*
X8737Y4963D01*
X8702Y4903D01*
X8684Y4835D01*
Y4765D01*
X8702Y4697D01*
X8737Y4637D01*
X8787Y4587D01*
X8847Y4552D01*
X8915Y4534D01*
X8985D01*
X9053Y4552D01*
X9113Y4587D01*
X9163Y4637D01*
X9171Y4652D01*
X9229D01*
X9237Y4637D01*
X9287Y4587D01*
X9347Y4552D01*
X9415Y4534D01*
X9485D01*
X9553Y4552D01*
X9613Y4587D01*
X9663Y4637D01*
X9698Y4697D01*
X9716Y4765D01*
Y4835D01*
X9698Y4903D01*
X9663Y4963D01*
X9613Y5013D01*
X9553Y5048D01*
X9485Y5066D01*
D02*
G37*
G36*
X1307Y13620D02*
X1000D01*
X693D01*
Y13610D01*
X714Y13532D01*
X755Y13462D01*
X812Y13405D01*
X814Y13403D01*
X818Y13343D01*
X787Y13313D01*
X752Y13253D01*
X734Y13185D01*
Y13115D01*
X752Y13047D01*
X787Y12987D01*
X837Y12937D01*
X852Y12929D01*
Y12871D01*
X837Y12863D01*
X787Y12813D01*
X752Y12753D01*
X734Y12685D01*
Y12615D01*
X752Y12547D01*
X787Y12487D01*
X837Y12437D01*
X852Y12429D01*
Y12371D01*
X837Y12363D01*
X787Y12313D01*
X752Y12253D01*
X734Y12185D01*
Y12115D01*
X752Y12047D01*
X787Y11987D01*
X837Y11937D01*
X852Y11929D01*
Y11871D01*
X837Y11863D01*
X787Y11813D01*
X752Y11753D01*
X734Y11685D01*
Y11615D01*
X752Y11547D01*
X787Y11487D01*
X837Y11437D01*
X852Y11429D01*
Y11371D01*
X837Y11363D01*
X787Y11313D01*
X752Y11253D01*
X734Y11185D01*
Y11115D01*
X752Y11047D01*
X787Y10987D01*
X837Y10937D01*
X852Y10929D01*
Y10871D01*
X837Y10863D01*
X787Y10813D01*
X752Y10753D01*
X734Y10685D01*
Y10615D01*
X752Y10547D01*
X787Y10487D01*
X837Y10437D01*
X852Y10429D01*
Y10371D01*
X837Y10363D01*
X787Y10313D01*
X752Y10253D01*
X734Y10185D01*
Y10115D01*
X752Y10047D01*
X787Y9987D01*
X837Y9937D01*
X852Y9929D01*
Y9871D01*
X837Y9863D01*
X787Y9813D01*
X752Y9753D01*
X734Y9685D01*
Y9615D01*
X752Y9547D01*
X787Y9487D01*
X837Y9437D01*
X852Y9429D01*
Y9371D01*
X837Y9363D01*
X787Y9313D01*
X752Y9253D01*
X734Y9185D01*
Y9115D01*
X752Y9047D01*
X787Y8987D01*
X837Y8937D01*
X852Y8929D01*
Y8871D01*
X837Y8863D01*
X787Y8813D01*
X752Y8753D01*
X734Y8685D01*
Y8615D01*
X752Y8547D01*
X787Y8487D01*
X837Y8437D01*
X852Y8429D01*
Y8371D01*
X837Y8363D01*
X787Y8313D01*
X752Y8253D01*
X734Y8185D01*
Y8115D01*
X752Y8047D01*
X787Y7987D01*
X837Y7937D01*
X852Y7929D01*
Y7871D01*
X837Y7863D01*
X787Y7813D01*
X752Y7753D01*
X734Y7685D01*
Y7615D01*
X752Y7547D01*
X787Y7487D01*
X837Y7437D01*
X852Y7429D01*
Y7371D01*
X837Y7363D01*
X787Y7313D01*
X752Y7253D01*
X734Y7185D01*
Y7115D01*
X752Y7047D01*
X787Y6987D01*
X837Y6937D01*
X852Y6929D01*
Y6871D01*
X837Y6863D01*
X787Y6813D01*
X752Y6753D01*
X734Y6685D01*
Y6615D01*
X752Y6547D01*
X787Y6487D01*
X837Y6437D01*
X852Y6429D01*
Y6371D01*
X837Y6363D01*
X787Y6313D01*
X752Y6253D01*
X734Y6185D01*
Y6115D01*
X752Y6047D01*
X787Y5987D01*
X837Y5937D01*
X852Y5929D01*
Y5871D01*
X837Y5863D01*
X787Y5813D01*
X752Y5753D01*
X734Y5685D01*
Y5615D01*
X752Y5547D01*
X787Y5487D01*
X837Y5437D01*
X852Y5429D01*
Y5371D01*
X837Y5363D01*
X787Y5313D01*
X752Y5253D01*
X734Y5185D01*
Y5115D01*
X752Y5047D01*
X787Y4987D01*
X818Y4957D01*
X814Y4897D01*
X812Y4895D01*
X755Y4838D01*
X714Y4768D01*
X693Y4690D01*
Y4680D01*
X1000D01*
X1307D01*
Y4690D01*
X1286Y4768D01*
X1245Y4838D01*
X1188Y4895D01*
X1186Y4897D01*
X1182Y4957D01*
X1213Y4987D01*
X1248Y5047D01*
X1266Y5115D01*
Y5185D01*
X1248Y5253D01*
X1213Y5313D01*
X1163Y5363D01*
X1148Y5371D01*
Y5429D01*
X1163Y5437D01*
X1213Y5487D01*
X1248Y5547D01*
X1266Y5615D01*
Y5685D01*
X1248Y5753D01*
X1213Y5813D01*
X1163Y5863D01*
X1148Y5871D01*
Y5929D01*
X1163Y5937D01*
X1213Y5987D01*
X1248Y6047D01*
X1266Y6115D01*
Y6185D01*
X1248Y6253D01*
X1213Y6313D01*
X1163Y6363D01*
X1148Y6371D01*
Y6429D01*
X1163Y6437D01*
X1213Y6487D01*
X1248Y6547D01*
X1266Y6615D01*
Y6685D01*
X1248Y6753D01*
X1213Y6813D01*
X1163Y6863D01*
X1148Y6871D01*
Y6929D01*
X1163Y6937D01*
X1213Y6987D01*
X1248Y7047D01*
X1266Y7115D01*
Y7185D01*
X1248Y7253D01*
X1213Y7313D01*
X1163Y7363D01*
X1148Y7371D01*
Y7429D01*
X1163Y7437D01*
X1213Y7487D01*
X1248Y7547D01*
X1266Y7615D01*
Y7685D01*
X1248Y7753D01*
X1213Y7813D01*
X1163Y7863D01*
X1148Y7871D01*
Y7929D01*
X1163Y7937D01*
X1213Y7987D01*
X1248Y8047D01*
X1266Y8115D01*
Y8185D01*
X1248Y8253D01*
X1213Y8313D01*
X1163Y8363D01*
X1148Y8371D01*
Y8429D01*
X1163Y8437D01*
X1213Y8487D01*
X1248Y8547D01*
X1266Y8615D01*
Y8685D01*
X1248Y8753D01*
X1213Y8813D01*
X1163Y8863D01*
X1148Y8871D01*
Y8929D01*
X1163Y8937D01*
X1213Y8987D01*
X1248Y9047D01*
X1266Y9115D01*
Y9185D01*
X1248Y9253D01*
X1213Y9313D01*
X1163Y9363D01*
X1148Y9371D01*
Y9429D01*
X1163Y9437D01*
X1213Y9487D01*
X1248Y9547D01*
X1266Y9615D01*
Y9685D01*
X1248Y9753D01*
X1213Y9813D01*
X1163Y9863D01*
X1148Y9871D01*
Y9929D01*
X1163Y9937D01*
X1213Y9987D01*
X1248Y10047D01*
X1266Y10115D01*
Y10185D01*
X1248Y10253D01*
X1213Y10313D01*
X1163Y10363D01*
X1148Y10371D01*
Y10429D01*
X1163Y10437D01*
X1213Y10487D01*
X1248Y10547D01*
X1266Y10615D01*
Y10685D01*
X1248Y10753D01*
X1213Y10813D01*
X1163Y10863D01*
X1148Y10871D01*
Y10929D01*
X1163Y10937D01*
X1213Y10987D01*
X1248Y11047D01*
X1266Y11115D01*
Y11185D01*
X1248Y11253D01*
X1213Y11313D01*
X1163Y11363D01*
X1148Y11371D01*
Y11429D01*
X1163Y11437D01*
X1213Y11487D01*
X1248Y11547D01*
X1266Y11615D01*
Y11685D01*
X1248Y11753D01*
X1213Y11813D01*
X1163Y11863D01*
X1148Y11871D01*
Y11929D01*
X1163Y11937D01*
X1213Y11987D01*
X1248Y12047D01*
X1266Y12115D01*
Y12185D01*
X1248Y12253D01*
X1213Y12313D01*
X1163Y12363D01*
X1148Y12371D01*
Y12429D01*
X1163Y12437D01*
X1213Y12487D01*
X1248Y12547D01*
X1266Y12615D01*
Y12685D01*
X1248Y12753D01*
X1213Y12813D01*
X1163Y12863D01*
X1148Y12871D01*
Y12929D01*
X1163Y12937D01*
X1213Y12987D01*
X1248Y13047D01*
X1266Y13115D01*
Y13185D01*
X1248Y13253D01*
X1213Y13313D01*
X1182Y13343D01*
X1186Y13403D01*
X1188Y13405D01*
X1245Y13462D01*
X1286Y13532D01*
X1307Y13610D01*
Y13620D01*
D02*
G37*
G36*
X17435Y4977D02*
X17365D01*
X17300Y4950D01*
X17250Y4900D01*
X17223Y4835D01*
Y4765D01*
X17250Y4700D01*
X17300Y4650D01*
X17365Y4623D01*
X17435D01*
X17500Y4650D01*
X17550Y4700D01*
X17577Y4765D01*
Y4835D01*
X17550Y4900D01*
X17500Y4950D01*
X17435Y4977D01*
D02*
G37*
G36*
X16235D02*
X16165D01*
X16100Y4950D01*
X16050Y4900D01*
X16023Y4835D01*
Y4765D01*
X16050Y4700D01*
X16100Y4650D01*
X16165Y4623D01*
X16235D01*
X16300Y4650D01*
X16350Y4700D01*
X16377Y4765D01*
Y4835D01*
X16350Y4900D01*
X16300Y4950D01*
X16235Y4977D01*
D02*
G37*
G36*
X15035D02*
X14965D01*
X14900Y4950D01*
X14850Y4900D01*
X14823Y4835D01*
Y4765D01*
X14850Y4700D01*
X14900Y4650D01*
X14965Y4623D01*
X15035D01*
X15100Y4650D01*
X15150Y4700D01*
X15177Y4765D01*
Y4835D01*
X15150Y4900D01*
X15100Y4950D01*
X15035Y4977D01*
D02*
G37*
G36*
X13835D02*
X13765D01*
X13700Y4950D01*
X13650Y4900D01*
X13623Y4835D01*
Y4765D01*
X13650Y4700D01*
X13700Y4650D01*
X13765Y4623D01*
X13835D01*
X13900Y4650D01*
X13950Y4700D01*
X13977Y4765D01*
Y4835D01*
X13950Y4900D01*
X13900Y4950D01*
X13835Y4977D01*
D02*
G37*
G36*
X12635D02*
X12565D01*
X12500Y4950D01*
X12450Y4900D01*
X12423Y4835D01*
Y4765D01*
X12450Y4700D01*
X12500Y4650D01*
X12565Y4623D01*
X12635D01*
X12700Y4650D01*
X12750Y4700D01*
X12777Y4765D01*
Y4835D01*
X12750Y4900D01*
X12700Y4950D01*
X12635Y4977D01*
D02*
G37*
G36*
X11435D02*
X11365D01*
X11300Y4950D01*
X11250Y4900D01*
X11223Y4835D01*
Y4765D01*
X11250Y4700D01*
X11300Y4650D01*
X11365Y4623D01*
X11435D01*
X11500Y4650D01*
X11550Y4700D01*
X11577Y4765D01*
Y4835D01*
X11550Y4900D01*
X11500Y4950D01*
X11435Y4977D01*
D02*
G37*
G36*
X10235D02*
X10165D01*
X10100Y4950D01*
X10050Y4900D01*
X10023Y4835D01*
Y4765D01*
X10050Y4700D01*
X10100Y4650D01*
X10165Y4623D01*
X10235D01*
X10300Y4650D01*
X10350Y4700D01*
X10377Y4765D01*
Y4835D01*
X10350Y4900D01*
X10300Y4950D01*
X10235Y4977D01*
D02*
G37*
G36*
X3835Y4777D02*
X3765D01*
X3700Y4750D01*
X3650Y4700D01*
X3623Y4635D01*
Y4565D01*
X3650Y4500D01*
X3700Y4450D01*
X3765Y4423D01*
X3835D01*
X3900Y4450D01*
X3950Y4500D01*
X3977Y4565D01*
Y4635D01*
X3950Y4700D01*
X3900Y4750D01*
X3835Y4777D01*
D02*
G37*
G36*
X3035Y14416D02*
X2965D01*
X2897Y14398D01*
X2837Y14363D01*
X2787Y14313D01*
X2752Y14253D01*
X2734Y14185D01*
Y14115D01*
X2752Y14047D01*
X2787Y13987D01*
X2837Y13937D01*
X2852Y13929D01*
Y13871D01*
X2837Y13863D01*
X2787Y13813D01*
X2752Y13753D01*
X2734Y13685D01*
Y13615D01*
X2752Y13547D01*
X2787Y13487D01*
X2837Y13437D01*
X2852Y13429D01*
Y13371D01*
X2837Y13363D01*
X2787Y13313D01*
X2752Y13253D01*
X2734Y13185D01*
Y13115D01*
X2752Y13047D01*
X2787Y12987D01*
X2837Y12937D01*
X2852Y12929D01*
Y12871D01*
X2837Y12863D01*
X2787Y12813D01*
X2752Y12753D01*
X2734Y12685D01*
Y12615D01*
X2752Y12547D01*
X2787Y12487D01*
X2837Y12437D01*
X2852Y12429D01*
Y12371D01*
X2837Y12363D01*
X2787Y12313D01*
X2752Y12253D01*
X2734Y12185D01*
Y12115D01*
X2752Y12047D01*
X2787Y11987D01*
X2837Y11937D01*
X2852Y11929D01*
Y11871D01*
X2837Y11863D01*
X2787Y11813D01*
X2752Y11753D01*
X2734Y11685D01*
Y11615D01*
X2752Y11547D01*
X2787Y11487D01*
X2837Y11437D01*
X2852Y11429D01*
Y11371D01*
X2837Y11363D01*
X2787Y11313D01*
X2752Y11253D01*
X2734Y11185D01*
Y11115D01*
X2752Y11047D01*
X2787Y10987D01*
X2837Y10937D01*
X2852Y10929D01*
Y10871D01*
X2837Y10863D01*
X2787Y10813D01*
X2752Y10753D01*
X2734Y10685D01*
Y10615D01*
X2752Y10547D01*
X2787Y10487D01*
X2837Y10437D01*
X2852Y10429D01*
Y10371D01*
X2837Y10363D01*
X2787Y10313D01*
X2752Y10253D01*
X2734Y10185D01*
Y10115D01*
X2752Y10047D01*
X2787Y9987D01*
X2837Y9937D01*
X2852Y9929D01*
Y9871D01*
X2837Y9863D01*
X2787Y9813D01*
X2752Y9753D01*
X2734Y9685D01*
Y9615D01*
X2752Y9547D01*
X2787Y9487D01*
X2837Y9437D01*
X2852Y9429D01*
Y9371D01*
X2837Y9363D01*
X2787Y9313D01*
X2752Y9253D01*
X2734Y9185D01*
Y9115D01*
X2752Y9047D01*
X2787Y8987D01*
X2837Y8937D01*
X2852Y8929D01*
Y8871D01*
X2837Y8863D01*
X2787Y8813D01*
X2752Y8753D01*
X2734Y8685D01*
Y8615D01*
X2752Y8547D01*
X2787Y8487D01*
X2837Y8437D01*
X2852Y8429D01*
Y8371D01*
X2837Y8363D01*
X2787Y8313D01*
X2752Y8253D01*
X2734Y8185D01*
Y8115D01*
X2752Y8047D01*
X2787Y7987D01*
X2837Y7937D01*
X2852Y7929D01*
Y7871D01*
X2837Y7863D01*
X2787Y7813D01*
X2752Y7753D01*
X2734Y7685D01*
Y7615D01*
X2752Y7547D01*
X2787Y7487D01*
X2837Y7437D01*
X2852Y7429D01*
Y7371D01*
X2837Y7363D01*
X2787Y7313D01*
X2752Y7253D01*
X2734Y7185D01*
Y7115D01*
X2752Y7047D01*
X2787Y6987D01*
X2837Y6937D01*
X2852Y6929D01*
Y6871D01*
X2837Y6863D01*
X2787Y6813D01*
X2752Y6753D01*
X2734Y6685D01*
Y6615D01*
X2752Y6547D01*
X2787Y6487D01*
X2837Y6437D01*
X2852Y6429D01*
Y6371D01*
X2837Y6363D01*
X2787Y6313D01*
X2752Y6253D01*
X2734Y6185D01*
Y6115D01*
X2752Y6047D01*
X2787Y5987D01*
X2837Y5937D01*
X2852Y5929D01*
Y5871D01*
X2837Y5863D01*
X2787Y5813D01*
X2752Y5753D01*
X2734Y5685D01*
Y5615D01*
X2752Y5547D01*
X2787Y5487D01*
X2837Y5437D01*
X2852Y5429D01*
Y5371D01*
X2837Y5363D01*
X2787Y5313D01*
X2752Y5253D01*
X2734Y5185D01*
Y5115D01*
X2752Y5047D01*
X2787Y4987D01*
X2837Y4937D01*
X2852Y4929D01*
Y4871D01*
X2837Y4863D01*
X2787Y4813D01*
X2752Y4753D01*
X2734Y4685D01*
Y4615D01*
X2752Y4547D01*
X2787Y4487D01*
X2837Y4437D01*
X2897Y4402D01*
X2965Y4384D01*
X3035D01*
X3103Y4402D01*
X3163Y4437D01*
X3213Y4487D01*
X3248Y4547D01*
X3266Y4615D01*
Y4685D01*
X3248Y4753D01*
X3213Y4813D01*
X3163Y4863D01*
X3148Y4871D01*
Y4929D01*
X3163Y4937D01*
X3213Y4987D01*
X3248Y5047D01*
X3266Y5115D01*
Y5185D01*
X3248Y5253D01*
X3213Y5313D01*
X3163Y5363D01*
X3148Y5371D01*
Y5429D01*
X3163Y5437D01*
X3213Y5487D01*
X3248Y5547D01*
X3266Y5615D01*
Y5685D01*
X3248Y5753D01*
X3213Y5813D01*
X3163Y5863D01*
X3148Y5871D01*
Y5929D01*
X3163Y5937D01*
X3213Y5987D01*
X3248Y6047D01*
X3266Y6115D01*
Y6185D01*
X3248Y6253D01*
X3213Y6313D01*
X3163Y6363D01*
X3148Y6371D01*
Y6429D01*
X3163Y6437D01*
X3213Y6487D01*
X3248Y6547D01*
X3266Y6615D01*
Y6685D01*
X3248Y6753D01*
X3213Y6813D01*
X3163Y6863D01*
X3148Y6871D01*
Y6929D01*
X3163Y6937D01*
X3213Y6987D01*
X3248Y7047D01*
X3266Y7115D01*
Y7185D01*
X3248Y7253D01*
X3213Y7313D01*
X3163Y7363D01*
X3148Y7371D01*
Y7429D01*
X3163Y7437D01*
X3213Y7487D01*
X3248Y7547D01*
X3266Y7615D01*
Y7685D01*
X3248Y7753D01*
X3213Y7813D01*
X3163Y7863D01*
X3148Y7871D01*
Y7929D01*
X3163Y7937D01*
X3213Y7987D01*
X3248Y8047D01*
X3266Y8115D01*
Y8185D01*
X3248Y8253D01*
X3213Y8313D01*
X3163Y8363D01*
X3148Y8371D01*
Y8429D01*
X3163Y8437D01*
X3213Y8487D01*
X3248Y8547D01*
X3266Y8615D01*
Y8685D01*
X3248Y8753D01*
X3213Y8813D01*
X3163Y8863D01*
X3148Y8871D01*
Y8929D01*
X3163Y8937D01*
X3213Y8987D01*
X3248Y9047D01*
X3266Y9115D01*
Y9185D01*
X3248Y9253D01*
X3213Y9313D01*
X3163Y9363D01*
X3148Y9371D01*
Y9429D01*
X3163Y9437D01*
X3213Y9487D01*
X3248Y9547D01*
X3266Y9615D01*
Y9685D01*
X3248Y9753D01*
X3213Y9813D01*
X3163Y9863D01*
X3148Y9871D01*
Y9929D01*
X3163Y9937D01*
X3213Y9987D01*
X3248Y10047D01*
X3266Y10115D01*
Y10185D01*
X3248Y10253D01*
X3213Y10313D01*
X3163Y10363D01*
X3148Y10371D01*
Y10429D01*
X3163Y10437D01*
X3213Y10487D01*
X3248Y10547D01*
X3266Y10615D01*
Y10685D01*
X3248Y10753D01*
X3213Y10813D01*
X3163Y10863D01*
X3148Y10871D01*
Y10929D01*
X3163Y10937D01*
X3213Y10987D01*
X3248Y11047D01*
X3266Y11115D01*
Y11185D01*
X3248Y11253D01*
X3213Y11313D01*
X3163Y11363D01*
X3148Y11371D01*
Y11429D01*
X3163Y11437D01*
X3213Y11487D01*
X3248Y11547D01*
X3266Y11615D01*
Y11685D01*
X3248Y11753D01*
X3213Y11813D01*
X3163Y11863D01*
X3148Y11871D01*
Y11929D01*
X3163Y11937D01*
X3213Y11987D01*
X3248Y12047D01*
X3266Y12115D01*
Y12185D01*
X3248Y12253D01*
X3213Y12313D01*
X3163Y12363D01*
X3148Y12371D01*
Y12429D01*
X3163Y12437D01*
X3213Y12487D01*
X3248Y12547D01*
X3266Y12615D01*
Y12685D01*
X3248Y12753D01*
X3213Y12813D01*
X3163Y12863D01*
X3148Y12871D01*
Y12929D01*
X3163Y12937D01*
X3213Y12987D01*
X3248Y13047D01*
X3266Y13115D01*
Y13185D01*
X3248Y13253D01*
X3213Y13313D01*
X3163Y13363D01*
X3148Y13371D01*
Y13429D01*
X3163Y13437D01*
X3213Y13487D01*
X3248Y13547D01*
X3266Y13615D01*
Y13685D01*
X3248Y13753D01*
X3213Y13813D01*
X3163Y13863D01*
X3148Y13871D01*
Y13929D01*
X3163Y13937D01*
X3213Y13987D01*
X3248Y14047D01*
X3266Y14115D01*
Y14185D01*
X3248Y14253D01*
X3213Y14313D01*
X3163Y14363D01*
X3103Y14398D01*
X3035Y14416D01*
D02*
G37*
G36*
X1307Y4620D02*
X1030D01*
Y4343D01*
X1040D01*
X1118Y4364D01*
X1188Y4405D01*
X1245Y4462D01*
X1286Y4532D01*
X1307Y4610D01*
Y4620D01*
D02*
G37*
G36*
X970D02*
X693D01*
Y4610D01*
X714Y4532D01*
X755Y4462D01*
X812Y4405D01*
X882Y4364D01*
X960Y4343D01*
X970D01*
Y4620D01*
D02*
G37*
G36*
X14385Y4527D02*
X14315D01*
X14250Y4500D01*
X14200Y4450D01*
X14173Y4385D01*
Y4315D01*
X14200Y4250D01*
X14250Y4200D01*
X14315Y4173D01*
X14385D01*
X14450Y4200D01*
X14500Y4250D01*
X14527Y4315D01*
Y4385D01*
X14500Y4450D01*
X14450Y4500D01*
X14385Y4527D01*
D02*
G37*
G36*
X16085Y4477D02*
X16015D01*
X15950Y4450D01*
X15900Y4400D01*
X15873Y4335D01*
Y4265D01*
X15900Y4200D01*
X15950Y4150D01*
X16015Y4123D01*
X16085D01*
X16150Y4150D01*
X16200Y4200D01*
X16227Y4265D01*
Y4335D01*
X16200Y4400D01*
X16150Y4450D01*
X16085Y4477D01*
D02*
G37*
G36*
X2536Y3974D02*
X2464D01*
X2394Y3955D01*
X2332Y3919D01*
X2281Y3868D01*
X2245Y3806D01*
X2226Y3736D01*
Y3664D01*
X2245Y3594D01*
X2281Y3532D01*
X2332Y3481D01*
X2394Y3445D01*
X2464Y3426D01*
X2536D01*
X2606Y3445D01*
X2668Y3481D01*
X2719Y3532D01*
X2755Y3594D01*
X2774Y3664D01*
Y3736D01*
X2755Y3806D01*
X2719Y3868D01*
X2668Y3919D01*
X2606Y3955D01*
X2536Y3974D01*
D02*
G37*
G36*
X13235Y3777D02*
X13165D01*
X13100Y3750D01*
X13050Y3700D01*
X13023Y3635D01*
Y3565D01*
X13050Y3500D01*
X13100Y3450D01*
X13165Y3423D01*
X13235D01*
X13300Y3450D01*
X13350Y3500D01*
X13377Y3565D01*
Y3635D01*
X13350Y3700D01*
X13300Y3750D01*
X13235Y3777D01*
D02*
G37*
G36*
X10835D02*
X10765D01*
X10700Y3750D01*
X10650Y3700D01*
X10623Y3635D01*
Y3565D01*
X10650Y3500D01*
X10700Y3450D01*
X10765Y3423D01*
X10835D01*
X10900Y3450D01*
X10950Y3500D01*
X10977Y3565D01*
Y3635D01*
X10950Y3700D01*
X10900Y3750D01*
X10835Y3777D01*
D02*
G37*
G36*
X5385Y3327D02*
X5315D01*
X5250Y3300D01*
X5200Y3250D01*
X5173Y3185D01*
Y3115D01*
X5200Y3050D01*
X5250Y3000D01*
X5315Y2973D01*
X5385D01*
X5450Y3000D01*
X5500Y3050D01*
X5527Y3115D01*
Y3185D01*
X5500Y3250D01*
X5450Y3300D01*
X5385Y3327D01*
D02*
G37*
G36*
X8636Y3174D02*
X8564D01*
X8494Y3155D01*
X8432Y3119D01*
X8381Y3068D01*
X8345Y3006D01*
X8326Y2936D01*
Y2864D01*
X8345Y2794D01*
X8381Y2732D01*
X8432Y2681D01*
X8494Y2645D01*
X8564Y2626D01*
X8636D01*
X8706Y2645D01*
X8768Y2681D01*
X8819Y2732D01*
X8855Y2794D01*
X8874Y2864D01*
Y2936D01*
X8855Y3006D01*
X8819Y3068D01*
X8768Y3119D01*
X8706Y3155D01*
X8636Y3174D01*
D02*
G37*
G36*
X18085Y2977D02*
X18015D01*
X17950Y2950D01*
X17900Y2900D01*
X17873Y2835D01*
Y2765D01*
X17900Y2700D01*
X17950Y2650D01*
X18015Y2623D01*
X18085D01*
X18150Y2650D01*
X18200Y2700D01*
X18227Y2765D01*
Y2835D01*
X18200Y2900D01*
X18150Y2950D01*
X18085Y2977D01*
D02*
G37*
G36*
X9035Y2577D02*
X8965D01*
X8900Y2550D01*
X8850Y2500D01*
X8841Y2480D01*
X8800Y2450D01*
X8735Y2477D01*
X8665D01*
X8600Y2450D01*
X8550Y2400D01*
X8523Y2335D01*
Y2265D01*
X8550Y2200D01*
X8600Y2150D01*
X8665Y2123D01*
X8735D01*
X8800Y2150D01*
X8850Y2200D01*
X8859Y2220D01*
X8900Y2250D01*
X8965Y2223D01*
X9035D01*
X9100Y2250D01*
X9150Y2300D01*
X9177Y2365D01*
Y2435D01*
X9150Y2500D01*
X9100Y2550D01*
X9035Y2577D01*
D02*
G37*
G36*
X11535Y2466D02*
X11465D01*
X11397Y2448D01*
X11337Y2413D01*
X11287Y2363D01*
X11279Y2348D01*
X11221D01*
X11213Y2363D01*
X11163Y2413D01*
X11103Y2448D01*
X11035Y2466D01*
X10965D01*
X10897Y2448D01*
X10837Y2413D01*
X10787Y2363D01*
X10752Y2303D01*
X10734Y2235D01*
Y2165D01*
X10752Y2097D01*
X10787Y2037D01*
X10837Y1987D01*
X10897Y1952D01*
X10965Y1934D01*
X11035D01*
X11103Y1952D01*
X11163Y1987D01*
X11213Y2037D01*
X11221Y2052D01*
X11279D01*
X11287Y2037D01*
X11337Y1987D01*
X11397Y1952D01*
X11465Y1934D01*
X11535D01*
X11603Y1952D01*
X11663Y1987D01*
X11713Y2037D01*
X11748Y2097D01*
X11766Y2165D01*
Y2235D01*
X11748Y2303D01*
X11713Y2363D01*
X11663Y2413D01*
X11603Y2448D01*
X11535Y2466D01*
D02*
G37*
G36*
X7435Y2177D02*
X7365D01*
X7300Y2150D01*
X7250Y2100D01*
X7223Y2035D01*
Y1965D01*
X7250Y1900D01*
X7300Y1850D01*
X7365Y1823D01*
X7435D01*
X7500Y1850D01*
X7550Y1900D01*
X7577Y1965D01*
Y2035D01*
X7550Y2100D01*
X7500Y2150D01*
X7435Y2177D01*
D02*
G37*
G36*
X12185Y1777D02*
X12115D01*
X12050Y1750D01*
X12000Y1700D01*
X11973Y1635D01*
Y1565D01*
X12000Y1500D01*
X12050Y1450D01*
X12115Y1423D01*
X12185D01*
X12250Y1450D01*
X12300Y1500D01*
X12327Y1565D01*
Y1635D01*
X12300Y1700D01*
X12250Y1750D01*
X12185Y1777D01*
D02*
G37*
G36*
X7885Y1527D02*
X7815D01*
X7750Y1500D01*
X7700Y1450D01*
X7673Y1385D01*
Y1315D01*
X7700Y1250D01*
X7750Y1200D01*
X7815Y1173D01*
X7885D01*
X7950Y1200D01*
X8000Y1250D01*
X8027Y1315D01*
Y1385D01*
X8000Y1450D01*
X7950Y1500D01*
X7885Y1527D01*
D02*
G37*
G36*
X15285Y1477D02*
X15215D01*
X15150Y1450D01*
X15100Y1400D01*
X15073Y1335D01*
Y1265D01*
X15100Y1200D01*
X15150Y1150D01*
X15215Y1123D01*
X15285D01*
X15350Y1150D01*
X15400Y1200D01*
X15427Y1265D01*
Y1335D01*
X15400Y1400D01*
X15350Y1450D01*
X15285Y1477D01*
D02*
G37*
G36*
X16835Y1377D02*
X16765D01*
X16700Y1350D01*
X16650Y1300D01*
X16623Y1235D01*
Y1165D01*
X16650Y1100D01*
X16700Y1050D01*
X16765Y1023D01*
X16835D01*
X16900Y1050D01*
X16950Y1100D01*
X16977Y1165D01*
Y1235D01*
X16950Y1300D01*
X16900Y1350D01*
X16835Y1377D01*
D02*
G37*
%LPD*%
D39*
X1000Y4650D02*
D03*
Y13650D02*
D03*
D41*
X6250Y14900D02*
D03*
Y10850D02*
D03*
X6304Y6804D02*
D03*
X6325Y3175D02*
D03*
M02*
