G04*
G04 #@! TF.GenerationSoftware,Altium Limited,Altium Designer,23.3.1 (30)*
G04*
G04 Layer_Color=2752767*
%FSLAX24Y24*%
%MOIN*%
G70*
G04*
G04 #@! TF.SameCoordinates,2879F4B0-5C84-431D-B3E2-9D7652F484AD*
G04*
G04*
G04 #@! TF.FilePolarity,Positive*
G04*
G01*
G75*
%ADD43C,0.0020*%
%ADD44C,0.0027*%
D43*
X3820Y8120D02*
X3860Y8200D01*
X3820Y8280D01*
X3900Y8240D01*
X3980Y8280D01*
X3940Y8200D01*
X3980Y8120D01*
X3900Y8160D01*
X3820Y8120D01*
X3720Y6670D02*
X3760Y6750D01*
X3720Y6830D01*
X3800Y6790D01*
X3880Y6830D01*
X3840Y6750D01*
X3880Y6670D01*
X3800Y6710D01*
X3720Y6670D01*
X2420Y3620D02*
X2460Y3700D01*
X2420Y3780D01*
X2500Y3740D01*
X2580Y3780D01*
X2540Y3700D01*
X2580Y3620D01*
X2500Y3660D01*
X2420Y3620D01*
X8520Y2820D02*
X8560Y2900D01*
X8520Y2980D01*
X8600Y2940D01*
X8680Y2980D01*
X8640Y2900D01*
X8680Y2820D01*
X8600Y2860D01*
X8520Y2820D01*
X920Y4570D02*
Y4730D01*
X1080D01*
Y4570D01*
X920D01*
X2920D02*
Y4730D01*
X3080D01*
Y4570D01*
X2920D01*
X920Y5070D02*
Y5230D01*
X1080D01*
Y5070D01*
X920D01*
X2920D02*
Y5230D01*
X3080D01*
Y5070D01*
X2920D01*
X920Y5570D02*
Y5730D01*
X1080D01*
Y5570D01*
X920D01*
X2920D02*
Y5730D01*
X3080D01*
Y5570D01*
X2920D01*
X920Y6070D02*
Y6230D01*
X1080D01*
Y6070D01*
X920D01*
X2920D02*
Y6230D01*
X3080D01*
Y6070D01*
X2920D01*
X920Y6570D02*
Y6730D01*
X1080D01*
Y6570D01*
X920D01*
X2920D02*
Y6730D01*
X3080D01*
Y6570D01*
X2920D01*
X920Y7070D02*
Y7230D01*
X1080D01*
Y7070D01*
X920D01*
X2920D02*
Y7230D01*
X3080D01*
Y7070D01*
X2920D01*
X920Y7570D02*
Y7730D01*
X1080D01*
Y7570D01*
X920D01*
X2920D02*
Y7730D01*
X3080D01*
Y7570D01*
X2920D01*
X920Y8070D02*
Y8230D01*
X1080D01*
Y8070D01*
X920D01*
X2920D02*
Y8230D01*
X3080D01*
Y8070D01*
X2920D01*
X920Y8570D02*
Y8730D01*
X1080D01*
Y8570D01*
X920D01*
X2920D02*
Y8730D01*
X3080D01*
Y8570D01*
X2920D01*
X920Y9070D02*
Y9230D01*
X1080D01*
Y9070D01*
X920D01*
X2920D02*
Y9230D01*
X3080D01*
Y9070D01*
X2920D01*
X920Y9570D02*
Y9730D01*
X1080D01*
Y9570D01*
X920D01*
X2920D02*
Y9730D01*
X3080D01*
Y9570D01*
X2920D01*
X920Y10070D02*
Y10230D01*
X1080D01*
Y10070D01*
X920D01*
X2920D02*
Y10230D01*
X3080D01*
Y10070D01*
X2920D01*
X920Y10570D02*
Y10730D01*
X1080D01*
Y10570D01*
X920D01*
X2920D02*
Y10730D01*
X3080D01*
Y10570D01*
X2920D01*
X920Y11070D02*
Y11230D01*
X1080D01*
Y11070D01*
X920D01*
X2920D02*
Y11230D01*
X3080D01*
Y11070D01*
X2920D01*
X920Y11570D02*
Y11730D01*
X1080D01*
Y11570D01*
X920D01*
X2920D02*
Y11730D01*
X3080D01*
Y11570D01*
X2920D01*
X920Y12070D02*
Y12230D01*
X1080D01*
Y12070D01*
X920D01*
X2920D02*
Y12230D01*
X3080D01*
Y12070D01*
X2920D01*
X920Y12570D02*
Y12730D01*
X1080D01*
Y12570D01*
X920D01*
X2920D02*
Y12730D01*
X3080D01*
Y12570D01*
X2920D01*
X920Y13070D02*
Y13230D01*
X1080D01*
Y13070D01*
X920D01*
X2920D02*
Y13230D01*
X3080D01*
Y13070D01*
X2920D01*
X920Y13570D02*
Y13730D01*
X1080D01*
Y13570D01*
X920D01*
X2920D02*
Y13730D01*
X3080D01*
Y13570D01*
X2920D01*
X920Y14070D02*
Y14230D01*
X1080D01*
Y14070D01*
X920D01*
X2920D02*
Y14230D01*
X3080D01*
Y14070D01*
X2920D01*
X18000Y17920D02*
X18040Y17960D01*
X18080D01*
X18040Y18000D01*
X18080Y18040D01*
X18040D01*
X18000Y18080D01*
X17960Y18040D01*
X17920D01*
X17960Y18000D01*
X17920Y17960D01*
X17960D01*
X18000Y17920D01*
Y15520D02*
X18040Y15560D01*
X18080D01*
X18040Y15600D01*
X18080Y15640D01*
X18040D01*
X18000Y15680D01*
X17960Y15640D01*
X17920D01*
X17960Y15600D01*
X17920Y15560D01*
X17960D01*
X18000Y15520D01*
X16800Y17920D02*
X16840Y17960D01*
X16880D01*
X16840Y18000D01*
X16880Y18040D01*
X16840D01*
X16800Y18080D01*
X16760Y18040D01*
X16720D01*
X16760Y18000D01*
X16720Y17960D01*
X16760D01*
X16800Y17920D01*
X17400Y16720D02*
X17440Y16760D01*
X17480D01*
X17440Y16800D01*
X17480Y16840D01*
X17440D01*
X17400Y16880D01*
X17360Y16840D01*
X17320D01*
X17360Y16800D01*
X17320Y16760D01*
X17360D01*
X17400Y16720D01*
X16800Y10720D02*
X16840Y10760D01*
X16880D01*
X16840Y10800D01*
X16880Y10840D01*
X16840D01*
X16800Y10880D01*
X16760Y10840D01*
X16720D01*
X16760Y10800D01*
X16720Y10760D01*
X16760D01*
X16800Y10720D01*
X17400Y9520D02*
X17440Y9560D01*
X17480D01*
X17440Y9600D01*
X17480Y9640D01*
X17440D01*
X17400Y9680D01*
X17360Y9640D01*
X17320D01*
X17360Y9600D01*
X17320Y9560D01*
X17360D01*
X17400Y9520D01*
Y4720D02*
X17440Y4760D01*
X17480D01*
X17440Y4800D01*
X17480Y4840D01*
X17440D01*
X17400Y4880D01*
X17360Y4840D01*
X17320D01*
X17360Y4800D01*
X17320Y4760D01*
X17360D01*
X17400Y4720D01*
X16800Y1120D02*
X16840Y1160D01*
X16880D01*
X16840Y1200D01*
X16880Y1240D01*
X16840D01*
X16800Y1280D01*
X16760Y1240D01*
X16720D01*
X16760Y1200D01*
X16720Y1160D01*
X16760D01*
X16800Y1120D01*
X15600Y17920D02*
X15640Y17960D01*
X15680D01*
X15640Y18000D01*
X15680Y18040D01*
X15640D01*
X15600Y18080D01*
X15560Y18040D01*
X15520D01*
X15560Y18000D01*
X15520Y17960D01*
X15560D01*
X15600Y17920D01*
Y8320D02*
X15640Y8360D01*
X15680D01*
X15640Y8400D01*
X15680Y8440D01*
X15640D01*
X15600Y8480D01*
X15560Y8440D01*
X15520D01*
X15560Y8400D01*
X15520Y8360D01*
X15560D01*
X15600Y8320D01*
X16200Y4720D02*
X16240Y4760D01*
X16280D01*
X16240Y4800D01*
X16280Y4840D01*
X16240D01*
X16200Y4880D01*
X16160Y4840D01*
X16120D01*
X16160Y4800D01*
X16120Y4760D01*
X16160D01*
X16200Y4720D01*
X14400Y17920D02*
X14440Y17960D01*
X14480D01*
X14440Y18000D01*
X14480Y18040D01*
X14440D01*
X14400Y18080D01*
X14360Y18040D01*
X14320D01*
X14360Y18000D01*
X14320Y17960D01*
X14360D01*
X14400Y17920D01*
Y13120D02*
X14440Y13160D01*
X14480D01*
X14440Y13200D01*
X14480Y13240D01*
X14440D01*
X14400Y13280D01*
X14360Y13240D01*
X14320D01*
X14360Y13200D01*
X14320Y13160D01*
X14360D01*
X14400Y13120D01*
X15000Y4720D02*
X15040Y4760D01*
X15080D01*
X15040Y4800D01*
X15080Y4840D01*
X15040D01*
X15000Y4880D01*
X14960Y4840D01*
X14920D01*
X14960Y4800D01*
X14920Y4760D01*
X14960D01*
X15000Y4720D01*
X13200Y17920D02*
X13240Y17960D01*
X13280D01*
X13240Y18000D01*
X13280Y18040D01*
X13240D01*
X13200Y18080D01*
X13160Y18040D01*
X13120D01*
X13160Y18000D01*
X13120Y17960D01*
X13160D01*
X13200Y17920D01*
X13800Y16720D02*
X13840Y16760D01*
X13880D01*
X13840Y16800D01*
X13880Y16840D01*
X13840D01*
X13800Y16880D01*
X13760Y16840D01*
X13720D01*
X13760Y16800D01*
X13720Y16760D01*
X13760D01*
X13800Y16720D01*
X13200Y15520D02*
X13240Y15560D01*
X13280D01*
X13240Y15600D01*
X13280Y15640D01*
X13240D01*
X13200Y15680D01*
X13160Y15640D01*
X13120D01*
X13160Y15600D01*
X13120Y15560D01*
X13160D01*
X13200Y15520D01*
Y13120D02*
X13240Y13160D01*
X13280D01*
X13240Y13200D01*
X13280Y13240D01*
X13240D01*
X13200Y13280D01*
X13160Y13240D01*
X13120D01*
X13160Y13200D01*
X13120Y13160D01*
X13160D01*
X13200Y13120D01*
Y10720D02*
X13240Y10760D01*
X13280D01*
X13240Y10800D01*
X13280Y10840D01*
X13240D01*
X13200Y10880D01*
X13160Y10840D01*
X13120D01*
X13160Y10800D01*
X13120Y10760D01*
X13160D01*
X13200Y10720D01*
Y8320D02*
X13240Y8360D01*
X13280D01*
X13240Y8400D01*
X13280Y8440D01*
X13240D01*
X13200Y8480D01*
X13160Y8440D01*
X13120D01*
X13160Y8400D01*
X13120Y8360D01*
X13160D01*
X13200Y8320D01*
X13800Y4720D02*
X13840Y4760D01*
X13880D01*
X13840Y4800D01*
X13880Y4840D01*
X13840D01*
X13800Y4880D01*
X13760Y4840D01*
X13720D01*
X13760Y4800D01*
X13720Y4760D01*
X13760D01*
X13800Y4720D01*
X13200Y3520D02*
X13240Y3560D01*
X13280D01*
X13240Y3600D01*
X13280Y3640D01*
X13240D01*
X13200Y3680D01*
X13160Y3640D01*
X13120D01*
X13160Y3600D01*
X13120Y3560D01*
X13160D01*
X13200Y3520D01*
X12000Y17920D02*
X12040Y17960D01*
X12080D01*
X12040Y18000D01*
X12080Y18040D01*
X12040D01*
X12000Y18080D01*
X11960Y18040D01*
X11920D01*
X11960Y18000D01*
X11920Y17960D01*
X11960D01*
X12000Y17920D01*
X12600Y16720D02*
X12640Y16760D01*
X12680D01*
X12640Y16800D01*
X12680Y16840D01*
X12640D01*
X12600Y16880D01*
X12560Y16840D01*
X12520D01*
X12560Y16800D01*
X12520Y16760D01*
X12560D01*
X12600Y16720D01*
X12000Y13120D02*
X12040Y13160D01*
X12080D01*
X12040Y13200D01*
X12080Y13240D01*
X12040D01*
X12000Y13280D01*
X11960Y13240D01*
X11920D01*
X11960Y13200D01*
X11920Y13160D01*
X11960D01*
X12000Y13120D01*
X12600Y4720D02*
X12640Y4760D01*
X12680D01*
X12640Y4800D01*
X12680Y4840D01*
X12640D01*
X12600Y4880D01*
X12560Y4840D01*
X12520D01*
X12560Y4800D01*
X12520Y4760D01*
X12560D01*
X12600Y4720D01*
X10800Y17920D02*
X10840Y17960D01*
X10880D01*
X10840Y18000D01*
X10880Y18040D01*
X10840D01*
X10800Y18080D01*
X10760Y18040D01*
X10720D01*
X10760Y18000D01*
X10720Y17960D01*
X10760D01*
X10800Y17920D01*
X11400Y16720D02*
X11440Y16760D01*
X11480D01*
X11440Y16800D01*
X11480Y16840D01*
X11440D01*
X11400Y16880D01*
X11360Y16840D01*
X11320D01*
X11360Y16800D01*
X11320Y16760D01*
X11360D01*
X11400Y16720D01*
X10800Y13120D02*
X10840Y13160D01*
X10880D01*
X10840Y13200D01*
X10880Y13240D01*
X10840D01*
X10800Y13280D01*
X10760Y13240D01*
X10720D01*
X10760Y13200D01*
X10720Y13160D01*
X10760D01*
X10800Y13120D01*
Y10720D02*
X10840Y10760D01*
X10880D01*
X10840Y10800D01*
X10880Y10840D01*
X10840D01*
X10800Y10880D01*
X10760Y10840D01*
X10720D01*
X10760Y10800D01*
X10720Y10760D01*
X10760D01*
X10800Y10720D01*
Y8320D02*
X10840Y8360D01*
X10880D01*
X10840Y8400D01*
X10880Y8440D01*
X10840D01*
X10800Y8480D01*
X10760Y8440D01*
X10720D01*
X10760Y8400D01*
X10720Y8360D01*
X10760D01*
X10800Y8320D01*
X11400Y4720D02*
X11440Y4760D01*
X11480D01*
X11440Y4800D01*
X11480Y4840D01*
X11440D01*
X11400Y4880D01*
X11360Y4840D01*
X11320D01*
X11360Y4800D01*
X11320Y4760D01*
X11360D01*
X11400Y4720D01*
X10800Y3520D02*
X10840Y3560D01*
X10880D01*
X10840Y3600D01*
X10880Y3640D01*
X10840D01*
X10800Y3680D01*
X10760Y3640D01*
X10720D01*
X10760Y3600D01*
X10720Y3560D01*
X10760D01*
X10800Y3520D01*
X9600Y17920D02*
X9640Y17960D01*
X9680D01*
X9640Y18000D01*
X9680Y18040D01*
X9640D01*
X9600Y18080D01*
X9560Y18040D01*
X9520D01*
X9560Y18000D01*
X9520Y17960D01*
X9560D01*
X9600Y17920D01*
X10200Y16720D02*
X10240Y16760D01*
X10280D01*
X10240Y16800D01*
X10280Y16840D01*
X10240D01*
X10200Y16880D01*
X10160Y16840D01*
X10120D01*
X10160Y16800D01*
X10120Y16760D01*
X10160D01*
X10200Y16720D01*
X9600Y13120D02*
X9640Y13160D01*
X9680D01*
X9640Y13200D01*
X9680Y13240D01*
X9640D01*
X9600Y13280D01*
X9560Y13240D01*
X9520D01*
X9560Y13200D01*
X9520Y13160D01*
X9560D01*
X9600Y13120D01*
Y8320D02*
X9640Y8360D01*
X9680D01*
X9640Y8400D01*
X9680Y8440D01*
X9640D01*
X9600Y8480D01*
X9560Y8440D01*
X9520D01*
X9560Y8400D01*
X9520Y8360D01*
X9560D01*
X9600Y8320D01*
X10200Y4720D02*
X10240Y4760D01*
X10280D01*
X10240Y4800D01*
X10280Y4840D01*
X10240D01*
X10200Y4880D01*
X10160Y4840D01*
X10120D01*
X10160Y4800D01*
X10120Y4760D01*
X10160D01*
X10200Y4720D01*
X8400Y17920D02*
X8440Y17960D01*
X8480D01*
X8440Y18000D01*
X8480Y18040D01*
X8440D01*
X8400Y18080D01*
X8360Y18040D01*
X8320D01*
X8360Y18000D01*
X8320Y17960D01*
X8360D01*
X8400Y17920D01*
X9000Y16720D02*
X9040Y16760D01*
X9080D01*
X9040Y16800D01*
X9080Y16840D01*
X9040D01*
X9000Y16880D01*
X8960Y16840D01*
X8920D01*
X8960Y16800D01*
X8920Y16760D01*
X8960D01*
X9000Y16720D01*
Y2320D02*
X9040Y2360D01*
X9080D01*
X9040Y2400D01*
X9080Y2440D01*
X9040D01*
X9000Y2480D01*
X8960Y2440D01*
X8920D01*
X8960Y2400D01*
X8920Y2360D01*
X8960D01*
X9000Y2320D01*
X7200Y17920D02*
X7240Y17960D01*
X7280D01*
X7240Y18000D01*
X7280Y18040D01*
X7240D01*
X7200Y18080D01*
X7160Y18040D01*
X7120D01*
X7160Y18000D01*
X7120Y17960D01*
X7160D01*
X7200Y17920D01*
X7800Y16720D02*
X7840Y16760D01*
X7880D01*
X7840Y16800D01*
X7880Y16840D01*
X7840D01*
X7800Y16880D01*
X7760Y16840D01*
X7720D01*
X7760Y16800D01*
X7720Y16760D01*
X7760D01*
X7800Y16720D01*
X7200Y15520D02*
X7240Y15560D01*
X7280D01*
X7240Y15600D01*
X7280Y15640D01*
X7240D01*
X7200Y15680D01*
X7160Y15640D01*
X7120D01*
X7160Y15600D01*
X7120Y15560D01*
X7160D01*
X7200Y15520D01*
Y13120D02*
X7240Y13160D01*
X7280D01*
X7240Y13200D01*
X7280Y13240D01*
X7240D01*
X7200Y13280D01*
X7160Y13240D01*
X7120D01*
X7160Y13200D01*
X7120Y13160D01*
X7160D01*
X7200Y13120D01*
X7800Y11920D02*
X7840Y11960D01*
X7880D01*
X7840Y12000D01*
X7880Y12040D01*
X7840D01*
X7800Y12080D01*
X7760Y12040D01*
X7720D01*
X7760Y12000D01*
X7720Y11960D01*
X7760D01*
X7800Y11920D01*
X6000Y17920D02*
X6040Y17960D01*
X6080D01*
X6040Y18000D01*
X6080Y18040D01*
X6040D01*
X6000Y18080D01*
X5960Y18040D01*
X5920D01*
X5960Y18000D01*
X5920Y17960D01*
X5960D01*
X6000Y17920D01*
X6600Y16720D02*
X6640Y16760D01*
X6680D01*
X6640Y16800D01*
X6680Y16840D01*
X6640D01*
X6600Y16880D01*
X6560Y16840D01*
X6520D01*
X6560Y16800D01*
X6520Y16760D01*
X6560D01*
X6600Y16720D01*
X6000Y13120D02*
X6040Y13160D01*
X6080D01*
X6040Y13200D01*
X6080Y13240D01*
X6040D01*
X6000Y13280D01*
X5960Y13240D01*
X5920D01*
X5960Y13200D01*
X5920Y13160D01*
X5960D01*
X6000Y13120D01*
X6600Y7120D02*
X6640Y7160D01*
X6680D01*
X6640Y7200D01*
X6680Y7240D01*
X6640D01*
X6600Y7280D01*
X6560Y7240D01*
X6520D01*
X6560Y7200D01*
X6520Y7160D01*
X6560D01*
X6600Y7120D01*
X4800Y17920D02*
X4840Y17960D01*
X4880D01*
X4840Y18000D01*
X4880Y18040D01*
X4840D01*
X4800Y18080D01*
X4760Y18040D01*
X4720D01*
X4760Y18000D01*
X4720Y17960D01*
X4760D01*
X4800Y17920D01*
X5400Y16720D02*
X5440Y16760D01*
X5480D01*
X5440Y16800D01*
X5480Y16840D01*
X5440D01*
X5400Y16880D01*
X5360Y16840D01*
X5320D01*
X5360Y16800D01*
X5320Y16760D01*
X5360D01*
X5400Y16720D01*
X4800Y13120D02*
X4840Y13160D01*
X4880D01*
X4840Y13200D01*
X4880Y13240D01*
X4840D01*
X4800Y13280D01*
X4760Y13240D01*
X4720D01*
X4760Y13200D01*
X4720Y13160D01*
X4760D01*
X4800Y13120D01*
Y10720D02*
X4840Y10760D01*
X4880D01*
X4840Y10800D01*
X4880Y10840D01*
X4840D01*
X4800Y10880D01*
X4760Y10840D01*
X4720D01*
X4760Y10800D01*
X4720Y10760D01*
X4760D01*
X4800Y10720D01*
X5400Y7120D02*
X5440Y7160D01*
X5480D01*
X5440Y7200D01*
X5480Y7240D01*
X5440D01*
X5400Y7280D01*
X5360Y7240D01*
X5320D01*
X5360Y7200D01*
X5320Y7160D01*
X5360D01*
X5400Y7120D01*
X3600Y17920D02*
X3640Y17960D01*
X3680D01*
X3640Y18000D01*
X3680Y18040D01*
X3640D01*
X3600Y18080D01*
X3560Y18040D01*
X3520D01*
X3560Y18000D01*
X3520Y17960D01*
X3560D01*
X3600Y17920D01*
X4200Y16720D02*
X4240Y16760D01*
X4280D01*
X4240Y16800D01*
X4280Y16840D01*
X4240D01*
X4200Y16880D01*
X4160Y16840D01*
X4120D01*
X4160Y16800D01*
X4120Y16760D01*
X4160D01*
X4200Y16720D01*
X3600Y13120D02*
X3640Y13160D01*
X3680D01*
X3640Y13200D01*
X3680Y13240D01*
X3640D01*
X3600Y13280D01*
X3560Y13240D01*
X3520D01*
X3560Y13200D01*
X3520Y13160D01*
X3560D01*
X3600Y13120D01*
X2400Y17920D02*
X2440Y17960D01*
X2480D01*
X2440Y18000D01*
X2480Y18040D01*
X2440D01*
X2400Y18080D01*
X2360Y18040D01*
X2320D01*
X2360Y18000D01*
X2320Y17960D01*
X2360D01*
X2400Y17920D01*
X1800Y16720D02*
X1840Y16760D01*
X1880D01*
X1840Y16800D01*
X1880Y16840D01*
X1840D01*
X1800Y16880D01*
X1760Y16840D01*
X1720D01*
X1760Y16800D01*
X1720Y16760D01*
X1760D01*
X1800Y16720D01*
Y14320D02*
X1840Y14360D01*
X1880D01*
X1840Y14400D01*
X1880Y14440D01*
X1840D01*
X1800Y14480D01*
X1760Y14440D01*
X1720D01*
X1760Y14400D01*
X1720Y14360D01*
X1760D01*
X1800Y14320D01*
Y11920D02*
X1840Y11960D01*
X1880D01*
X1840Y12000D01*
X1880Y12040D01*
X1840D01*
X1800Y12080D01*
X1760Y12040D01*
X1720D01*
X1760Y12000D01*
X1720Y11960D01*
X1760D01*
X1800Y11920D01*
Y7120D02*
X1840Y7160D01*
X1880D01*
X1840Y7200D01*
X1880Y7240D01*
X1840D01*
X1800Y7280D01*
X1760Y7240D01*
X1720D01*
X1760Y7200D01*
X1720Y7160D01*
X1760D01*
X1800Y7120D01*
X650Y16020D02*
X690Y16060D01*
X730D01*
X690Y16100D01*
X730Y16140D01*
X690D01*
X650Y16180D01*
X610Y16140D01*
X570D01*
X610Y16100D01*
X570Y16060D01*
X610D01*
X650Y16020D01*
X3300Y17720D02*
X3340Y17760D01*
X3380D01*
X3340Y17800D01*
X3380Y17840D01*
X3340D01*
X3300Y17880D01*
X3260Y17840D01*
X3220D01*
X3260Y17800D01*
X3220Y17760D01*
X3260D01*
X3300Y17720D01*
X7400Y9520D02*
X7440Y9560D01*
X7480D01*
X7440Y9600D01*
X7480Y9640D01*
X7440D01*
X7400Y9680D01*
X7360Y9640D01*
X7320D01*
X7360Y9600D01*
X7320Y9560D01*
X7360D01*
X7400Y9520D01*
X7450Y5470D02*
X7490Y5510D01*
X7530D01*
X7490Y5550D01*
X7530Y5590D01*
X7490D01*
X7450Y5630D01*
X7410Y5590D01*
X7370D01*
X7410Y5550D01*
X7370Y5510D01*
X7410D01*
X7450Y5470D01*
X7400Y1920D02*
X7440Y1960D01*
X7480D01*
X7440Y2000D01*
X7480Y2040D01*
X7440D01*
X7400Y2080D01*
X7360Y2040D01*
X7320D01*
X7360Y2000D01*
X7320Y1960D01*
X7360D01*
X7400Y1920D01*
X18050Y2720D02*
X18090Y2760D01*
X18130D01*
X18090Y2800D01*
X18130Y2840D01*
X18090D01*
X18050Y2880D01*
X18010Y2840D01*
X17970D01*
X18010Y2800D01*
X17970Y2760D01*
X18010D01*
X18050Y2720D01*
X18000Y10920D02*
X18040Y10960D01*
X18080D01*
X18040Y11000D01*
X18080Y11040D01*
X18040D01*
X18000Y11080D01*
X17960Y11040D01*
X17920D01*
X17960Y11000D01*
X17920Y10960D01*
X17960D01*
X18000Y10920D01*
X17900Y14670D02*
X17940Y14710D01*
X17980D01*
X17940Y14750D01*
X17980Y14790D01*
X17940D01*
X17900Y14830D01*
X17860Y14790D01*
X17820D01*
X17860Y14750D01*
X17820Y14710D01*
X17860D01*
X17900Y14670D01*
X12150Y5520D02*
X12190Y5560D01*
X12230D01*
X12190Y5600D01*
X12230Y5640D01*
X12190D01*
X12150Y5680D01*
X12110Y5640D01*
X12070D01*
X12110Y5600D01*
X12070Y5560D01*
X12110D01*
X12150Y5520D01*
X12200Y9670D02*
X12240Y9710D01*
X12280D01*
X12240Y9750D01*
X12280Y9790D01*
X12240D01*
X12200Y9830D01*
X12160Y9790D01*
X12120D01*
X12160Y9750D01*
X12120Y9710D01*
X12160D01*
X12200Y9670D01*
X7500Y13470D02*
X7540Y13510D01*
X7580D01*
X7540Y13550D01*
X7580Y13590D01*
X7540D01*
X7500Y13630D01*
X7460Y13590D01*
X7420D01*
X7460Y13550D01*
X7420Y13510D01*
X7460D01*
X7500Y13470D01*
X12050Y13620D02*
X12090Y13660D01*
X12130D01*
X12090Y13700D01*
X12130Y13740D01*
X12090D01*
X12050Y13780D01*
X12010Y13740D01*
X11970D01*
X12010Y13700D01*
X11970Y13660D01*
X12010D01*
X12050Y13620D01*
X8800Y14770D02*
X8840Y14810D01*
X8880D01*
X8840Y14850D01*
X8880Y14890D01*
X8840D01*
X8800Y14930D01*
X8760Y14890D01*
X8720D01*
X8760Y14850D01*
X8720Y14810D01*
X8760D01*
X8800Y14770D01*
X15800Y16470D02*
X15840Y16510D01*
X15880D01*
X15840Y16550D01*
X15880Y16590D01*
X15840D01*
X15800Y16630D01*
X15760Y16590D01*
X15720D01*
X15760Y16550D01*
X15720Y16510D01*
X15760D01*
X15800Y16470D01*
X15850Y12620D02*
X15890Y12660D01*
X15930D01*
X15890Y12700D01*
X15930Y12740D01*
X15890D01*
X15850Y12780D01*
X15810Y12740D01*
X15770D01*
X15810Y12700D01*
X15770Y12660D01*
X15810D01*
X15850Y12620D01*
X16000Y8320D02*
X16040Y8360D01*
X16080D01*
X16040Y8400D01*
X16080Y8440D01*
X16040D01*
X16000Y8480D01*
X15960Y8440D01*
X15920D01*
X15960Y8400D01*
X15920Y8360D01*
X15960D01*
X16000Y8320D01*
X18000Y7020D02*
X18040Y7060D01*
X18080D01*
X18040Y7100D01*
X18080Y7140D01*
X18040D01*
X18000Y7180D01*
X17960Y7140D01*
X17920D01*
X17960Y7100D01*
X17920Y7060D01*
X17960D01*
X18000Y7020D01*
X15650Y5370D02*
X15690Y5410D01*
X15730D01*
X15690Y5450D01*
X15730Y5490D01*
X15690D01*
X15650Y5530D01*
X15610Y5490D01*
X15570D01*
X15610Y5450D01*
X15570Y5410D01*
X15610D01*
X15650Y5370D01*
X16050Y4220D02*
X16090Y4260D01*
X16130D01*
X16090Y4300D01*
X16130Y4340D01*
X16090D01*
X16050Y4380D01*
X16010Y4340D01*
X15970D01*
X16010Y4300D01*
X15970Y4260D01*
X16010D01*
X16050Y4220D01*
X15250Y1220D02*
X15290Y1260D01*
X15330D01*
X15290Y1300D01*
X15330Y1340D01*
X15290D01*
X15250Y1380D01*
X15210Y1340D01*
X15170D01*
X15210Y1300D01*
X15170Y1260D01*
X15210D01*
X15250Y1220D01*
X12150Y1520D02*
X12190Y1560D01*
X12230D01*
X12190Y1600D01*
X12230Y1640D01*
X12190D01*
X12150Y1680D01*
X12110Y1640D01*
X12070D01*
X12110Y1600D01*
X12070Y1560D01*
X12110D01*
X12150Y1520D01*
X7850Y1270D02*
X7890Y1310D01*
X7930D01*
X7890Y1350D01*
X7930Y1390D01*
X7890D01*
X7850Y1430D01*
X7810Y1390D01*
X7770D01*
X7810Y1350D01*
X7770Y1310D01*
X7810D01*
X7850Y1270D01*
X2230Y8277D02*
X2270Y8317D01*
X2310D01*
X2270Y8357D01*
X2310Y8397D01*
X2270D01*
X2230Y8437D01*
X2190Y8397D01*
X2150D01*
X2190Y8357D01*
X2150Y8317D01*
X2190D01*
X2230Y8277D01*
X8338Y10744D02*
X8378Y10784D01*
X8418D01*
X8378Y10824D01*
X8418Y10864D01*
X8378D01*
X8338Y10904D01*
X8298Y10864D01*
X8258D01*
X8298Y10824D01*
X8258Y10784D01*
X8298D01*
X8338Y10744D01*
X8700Y2220D02*
X8740Y2260D01*
X8780D01*
X8740Y2300D01*
X8780Y2340D01*
X8740D01*
X8700Y2380D01*
X8660Y2340D01*
X8620D01*
X8660Y2300D01*
X8620Y2260D01*
X8660D01*
X8700Y2220D01*
X14350Y4270D02*
X14390Y4310D01*
X14430D01*
X14390Y4350D01*
X14430Y4390D01*
X14390D01*
X14350Y4430D01*
X14310Y4390D01*
X14270D01*
X14310Y4350D01*
X14270Y4310D01*
X14310D01*
X14350Y4270D01*
Y8320D02*
X14390Y8360D01*
X14430D01*
X14390Y8400D01*
X14430Y8440D01*
X14390D01*
X14350Y8480D01*
X14310Y8440D01*
X14270D01*
X14310Y8400D01*
X14270Y8360D01*
X14310D01*
X14350Y8320D01*
Y12520D02*
X14390Y12560D01*
X14430D01*
X14390Y12600D01*
X14430Y12640D01*
X14390D01*
X14350Y12680D01*
X14310Y12640D01*
X14270D01*
X14310Y12600D01*
X14270Y12560D01*
X14310D01*
X14350Y12520D01*
X14400Y16520D02*
X14440Y16560D01*
X14480D01*
X14440Y16600D01*
X14480Y16640D01*
X14440D01*
X14400Y16680D01*
X14360Y16640D01*
X14320D01*
X14360Y16600D01*
X14320Y16560D01*
X14360D01*
X14400Y16520D01*
X7400Y11570D02*
X7440Y11610D01*
X7480D01*
X7440Y11650D01*
X7480Y11690D01*
X7440D01*
X7400Y11730D01*
X7360Y11690D01*
X7320D01*
X7360Y11650D01*
X7320Y11610D01*
X7360D01*
X7400Y11570D01*
X3750Y5570D02*
X3790Y5610D01*
X3830D01*
X3790Y5650D01*
X3830Y5690D01*
X3790D01*
X3750Y5730D01*
X3710Y5690D01*
X3670D01*
X3710Y5650D01*
X3670Y5610D01*
X3710D01*
X3750Y5570D01*
X3800Y4520D02*
X3840Y4560D01*
X3880D01*
X3840Y4600D01*
X3880Y4640D01*
X3840D01*
X3800Y4680D01*
X3760Y4640D01*
X3720D01*
X3760Y4600D01*
X3720Y4560D01*
X3760D01*
X3800Y4520D01*
X6250Y14820D02*
X6290Y14860D01*
X6330D01*
X6290Y14900D01*
X6330Y14940D01*
X6290D01*
X6250Y14980D01*
X6210Y14940D01*
X6170D01*
X6210Y14900D01*
X6170Y14860D01*
X6210D01*
X6250Y14820D01*
X7400Y7670D02*
X7440Y7710D01*
X7480D01*
X7440Y7750D01*
X7480Y7790D01*
X7440D01*
X7400Y7830D01*
X7360Y7790D01*
X7320D01*
X7360Y7750D01*
X7320Y7710D01*
X7360D01*
X7400Y7670D01*
X6250Y10770D02*
X6290Y10810D01*
X6330D01*
X6290Y10850D01*
X6330Y10890D01*
X6290D01*
X6250Y10930D01*
X6210Y10890D01*
X6170D01*
X6210Y10850D01*
X6170Y10810D01*
X6210D01*
X6250Y10770D01*
X6304Y6724D02*
X6344Y6764D01*
X6384D01*
X6344Y6804D01*
X6384Y6844D01*
X6344D01*
X6304Y6884D01*
X6264Y6844D01*
X6224D01*
X6264Y6804D01*
X6224Y6764D01*
X6264D01*
X6304Y6724D01*
X5550Y14820D02*
X5590Y14860D01*
X5630D01*
X5590Y14900D01*
X5630Y14940D01*
X5590D01*
X5550Y14980D01*
X5510Y14940D01*
X5470D01*
X5510Y14900D01*
X5470Y14860D01*
X5510D01*
X5550Y14820D01*
X9250Y13070D02*
X9290Y13110D01*
X9330D01*
X9290Y13150D01*
X9330Y13190D01*
X9290D01*
X9250Y13230D01*
X9210Y13190D01*
X9170D01*
X9210Y13150D01*
X9170Y13110D01*
X9210D01*
X9250Y13070D01*
X5600Y10820D02*
X5640Y10860D01*
X5680D01*
X5640Y10900D01*
X5680Y10940D01*
X5640D01*
X5600Y10980D01*
X5560Y10940D01*
X5520D01*
X5560Y10900D01*
X5520Y10860D01*
X5560D01*
X5600Y10820D01*
X5700Y6670D02*
X5740Y6710D01*
X5780D01*
X5740Y6750D01*
X5780Y6790D01*
X5740D01*
X5700Y6830D01*
X5660Y6790D01*
X5620D01*
X5660Y6750D01*
X5620Y6710D01*
X5660D01*
X5700Y6670D01*
X5350Y3070D02*
X5390Y3110D01*
X5430D01*
X5390Y3150D01*
X5430Y3190D01*
X5390D01*
X5350Y3230D01*
X5310Y3190D01*
X5270D01*
X5310Y3150D01*
X5270Y3110D01*
X5310D01*
X5350Y3070D01*
X3650Y11120D02*
X3690Y11160D01*
X3730D01*
X3690Y11200D01*
X3730Y11240D01*
X3690D01*
X3650Y11280D01*
X3610Y11240D01*
X3570D01*
X3610Y11200D01*
X3570Y11160D01*
X3610D01*
X3650Y11120D01*
X4500Y10720D02*
X4540Y10760D01*
X4580D01*
X4540Y10800D01*
X4580Y10840D01*
X4540D01*
X4500Y10880D01*
X4460Y10840D01*
X4420D01*
X4460Y10800D01*
X4420Y10760D01*
X4460D01*
X4500Y10720D01*
X6325Y3095D02*
X6365Y3135D01*
X6405D01*
X6365Y3175D01*
X6405Y3215D01*
X6365D01*
X6325Y3255D01*
X6285Y3215D01*
X6245D01*
X6285Y3175D01*
X6245Y3135D01*
X6285D01*
X6325Y3095D01*
D44*
X11080Y2200D02*
G03*
X11080Y2200I-80J0D01*
G01*
X11580D02*
G03*
X11580Y2200I-80J0D01*
G01*
X11130Y9900D02*
G03*
X11130Y9900I-80J0D01*
G01*
X11630D02*
G03*
X11630Y9900I-80J0D01*
G01*
X11080Y5850D02*
G03*
X11080Y5850I-80J0D01*
G01*
X11580D02*
G03*
X11580Y5850I-80J0D01*
G01*
X10880Y14000D02*
G03*
X10880Y14000I-80J0D01*
G01*
X11380D02*
G03*
X11380Y14000I-80J0D01*
G01*
X9030Y4800D02*
G03*
X9030Y4800I-80J0D01*
G01*
X9530D02*
G03*
X9530Y4800I-80J0D01*
G01*
X4880Y4950D02*
G03*
X4880Y4950I-80J0D01*
G01*
X4380D02*
G03*
X4380Y4950I-80J0D01*
G01*
M02*
