G04*
G04 #@! TF.GenerationSoftware,Altium Limited,Altium Designer,23.3.1 (30)*
G04*
G04 Layer_Color=32896*
%FSLAX24Y24*%
%MOIN*%
G70*
G04*
G04 #@! TF.SameCoordinates,2879F4B0-5C84-431D-B3E2-9D7652F484AD*
G04*
G04*
G04 #@! TF.FilePolarity,Positive*
G04*
G01*
G75*
%ADD10C,0.0079*%
%ADD11C,0.0005*%
%ADD13C,0.0050*%
G36*
X17633Y18873D02*
X17833Y18820D01*
X18023Y18741D01*
X18202Y18638D01*
X18366Y18512D01*
X18512Y18366D01*
X18638Y18202D01*
X18741Y18023D01*
X18820Y17833D01*
X18873Y17633D01*
X18900Y17429D01*
Y17325D01*
Y1577D01*
Y1474D01*
X18873Y1269D01*
X18820Y1070D01*
X18741Y879D01*
X18638Y701D01*
X18512Y537D01*
X18366Y391D01*
X18202Y265D01*
X18023Y162D01*
X17833Y83D01*
X17633Y29D01*
X17429Y3D01*
X2613D01*
X2461Y33D01*
X2318Y92D01*
X2189Y178D01*
X2134Y233D01*
X2136Y235D01*
X235Y2136D01*
X235D01*
X183Y2193D01*
X98Y2321D01*
X39Y2463D01*
X9Y2614D01*
X5Y2691D01*
Y16212D01*
X9Y16289D01*
X39Y16440D01*
X98Y16582D01*
X183Y16710D01*
X235Y16767D01*
X2136Y18668D01*
X2134Y18670D01*
X2189Y18724D01*
X2318Y18811D01*
X2461Y18870D01*
X2613Y18900D01*
X2691D01*
Y18900D01*
X17429D01*
X17633Y18873D01*
D02*
G37*
%LPC*%
G36*
X17393Y18500D02*
X17316Y18500D01*
X2684Y18500D01*
X2684Y18500D01*
X2645Y18500D01*
X2569Y18485D01*
X2497Y18455D01*
X2432Y18412D01*
X2404Y18384D01*
X503Y16483D01*
X503Y16483D01*
X475Y16455D01*
X432Y16390D01*
X402Y16318D01*
X387Y16242D01*
Y16203D01*
Y2682D01*
Y2643D01*
X402Y2566D01*
X432Y2494D01*
X475Y2429D01*
X503Y2402D01*
X2404Y501D01*
Y501D01*
X2432Y473D01*
X2497Y430D01*
X2569Y400D01*
X2645Y384D01*
X2684Y384D01*
X17319D01*
X17396Y384D01*
X17550Y405D01*
X17700Y445D01*
X17843Y504D01*
X17978Y582D01*
X18101Y676D01*
X18211Y786D01*
X18305Y909D01*
X18383Y1044D01*
X18442Y1187D01*
X18482Y1337D01*
X18503Y1491D01*
X18503Y1568D01*
X18503Y17316D01*
X18503D01*
X18503Y17316D01*
X18503Y17394D01*
X18482Y17548D01*
X18442Y17698D01*
X18382Y17842D01*
X18305Y17976D01*
X18210Y18099D01*
X18100Y18209D01*
X17976Y18304D01*
X17842Y18381D01*
X17698Y18440D01*
X17548Y18480D01*
X17393Y18500D01*
D02*
G37*
%LPD*%
D10*
X622Y4638D02*
G03*
X622Y4638I-39J0D01*
G01*
D11*
X2134Y233D02*
G03*
X2691Y3I557J557D01*
G01*
X3Y2691D02*
G03*
X233Y2134I787J0D01*
G01*
Y16769D02*
G03*
X3Y16212I557J-557D01*
G01*
X2691Y18900D02*
G03*
X2134Y18670I0J-787D01*
G01*
X18900Y17325D02*
G03*
X17325Y18900I-1575J0D01*
G01*
Y3D02*
G03*
X18900Y1577I0J1575D01*
G01*
X233Y2134D02*
X2134Y233D01*
X3Y2691D02*
Y16212D01*
X233Y16769D02*
X2134Y18670D01*
X2691Y18900D02*
X17325D01*
X18900Y1577D02*
Y17325D01*
X2691Y3D02*
X17325D01*
D13*
X1055Y4304D02*
X2945D01*
X1055Y14496D02*
X2945D01*
X650Y14775D02*
X700D01*
X675D01*
Y14650D01*
X700Y14625D01*
X725D01*
X750Y14650D01*
X600Y14625D02*
X550D01*
X575D01*
Y14775D01*
X600Y14750D01*
M02*
