M48
;Layer_Color=9474304
;FILE_FORMAT=2:4
INCH,LZ
;TYPE=PLATED
T1F00S00C0.0118
T2F00S00C0.0256
T3F00S00C0.0295
T4F00S00C0.0300
%
T01
X0038Y0046
X00375Y00565
X0057Y00675
X006304Y006804
X0066Y0072
X0054
X0074Y00775
Y0096
Y01165
X0078Y012
X008338Y010824
X00625Y01085
X0056Y0109
X0048Y0108
X0045
X00365Y0112
X0036Y0132
X0048
X006
X0072
X0075Y01355
X00925Y01315
X0096Y0132
X0108
X012
X01205Y0137
X0132Y0132
X0144
X01435Y0126
X0132Y0108
X0122Y00975
X0132Y0084
X01435
X0156
X015Y0048
X01435Y00435
X0138Y0048
X0126
X0114
X0102
X0108Y0036
X0132
X01215Y0056
Y0016
X01525Y0013
X009Y0024
X0087Y0023
X0074Y002
X00785Y00135
X006325Y003175
X00535Y00315
X00745Y00555
X0096Y0084
X0108
Y0108
X0088Y01485
X0072Y0156
X00625Y0149
X00555
X0018Y0144
Y012
X00223Y008357
X0018Y0072
X0132Y0156
X018
X0179Y01475
X018Y011
X0168Y0108
X0174Y0096
X016Y0084
X018Y0071
X0174Y0048
X0162
X01605Y0043
X01565Y00545
X01805Y0028
X0168Y0012
X01585Y0127
X0158Y01655
X0174Y0168
X018Y018
X0168
X0156
X0144
X0132
X012
X0108
X0096
X0084
X0072
X006
X0048
X0036
X0033Y0178
X0024Y018
X0018Y0168
X00065Y0161
X0042Y0168
X0054
X0066
X0078
X009
X0102
X0114
X0126
X0138
X0144Y0166
T02
X0043Y00495
X0048
X00895Y0048
X00945
X011Y00585
X0115
Y0022
X011
X01105Y0099
X01155
X0113Y014
X0108
T03
X001Y00465
Y00515
Y00565
Y00615
Y00665
Y00715
Y00765
Y00815
Y00865
Y00915
Y00965
Y01015
Y01065
Y01115
Y01165
Y01215
Y01265
Y01315
Y01365
Y01415
X003
Y01365
Y01315
Y01265
Y01215
Y01165
Y01115
Y01065
Y01015
Y00965
Y00915
Y00865
Y00815
Y00765
Y00715
Y00665
Y00615
Y00565
Y00515
Y00465
T04
X0025Y0037
X0038Y00675
X0039Y0082
X0086Y0029
M30
