G04*
G04 #@! TF.GenerationSoftware,Altium Limited,Altium Designer,23.3.1 (30)*
G04*
G04 Layer_Color=16711935*
%FSLAX24Y24*%
%MOIN*%
G70*
G04*
G04 #@! TF.SameCoordinates,2879F4B0-5C84-431D-B3E2-9D7652F484AD*
G04*
G04*
G04 #@! TF.FilePolarity,Negative*
G04*
G01*
G75*
%ADD30C,0.0469*%
%ADD31R,0.0453X0.0453*%
%ADD32C,0.0453*%
%ADD33R,0.0453X0.0453*%
%ADD42C,0.0316*%
D30*
X3900Y8200D02*
D03*
X3800Y6750D02*
D03*
X2500Y3700D02*
D03*
X8600Y2900D02*
D03*
D31*
X11000Y2200D02*
D03*
X11050Y9900D02*
D03*
X11000Y5850D02*
D03*
X10800Y14000D02*
D03*
X9450Y4800D02*
D03*
X4300Y4950D02*
D03*
D32*
X11500Y2200D02*
D03*
X11550Y9900D02*
D03*
X11500Y5850D02*
D03*
X11300Y14000D02*
D03*
X8950Y4800D02*
D03*
X4800Y4950D02*
D03*
X3000Y4650D02*
D03*
X1000Y5150D02*
D03*
X3000D02*
D03*
X1000Y5650D02*
D03*
X3000D02*
D03*
X1000Y6150D02*
D03*
X3000D02*
D03*
X1000Y6650D02*
D03*
X3000D02*
D03*
X1000Y7150D02*
D03*
X3000D02*
D03*
X1000Y7650D02*
D03*
X3000D02*
D03*
X1000Y8150D02*
D03*
X3000D02*
D03*
X1000Y8650D02*
D03*
X3000D02*
D03*
X1000Y9150D02*
D03*
X3000D02*
D03*
X1000Y9650D02*
D03*
X3000D02*
D03*
X1000Y10150D02*
D03*
X3000D02*
D03*
X1000Y10650D02*
D03*
X3000D02*
D03*
X1000Y11150D02*
D03*
X3000D02*
D03*
X1000Y11650D02*
D03*
X3000D02*
D03*
X1000Y12150D02*
D03*
X3000D02*
D03*
X1000Y12650D02*
D03*
X3000D02*
D03*
X1000Y13150D02*
D03*
X3000D02*
D03*
X1000Y13650D02*
D03*
X3000D02*
D03*
X1000Y14150D02*
D03*
X3000D02*
D03*
D33*
X1000Y4650D02*
D03*
D42*
X18000Y18000D02*
D03*
Y15600D02*
D03*
X16800Y18000D02*
D03*
X17400Y16800D02*
D03*
X16800Y10800D02*
D03*
X17400Y9600D02*
D03*
Y4800D02*
D03*
X16800Y1200D02*
D03*
X15600Y18000D02*
D03*
Y8400D02*
D03*
X16200Y4800D02*
D03*
X14400Y18000D02*
D03*
Y13200D02*
D03*
X15000Y4800D02*
D03*
X13200Y18000D02*
D03*
X13800Y16800D02*
D03*
X13200Y15600D02*
D03*
Y13200D02*
D03*
Y10800D02*
D03*
Y8400D02*
D03*
X13800Y4800D02*
D03*
X13200Y3600D02*
D03*
X12000Y18000D02*
D03*
X12600Y16800D02*
D03*
X12000Y13200D02*
D03*
X12600Y4800D02*
D03*
X10800Y18000D02*
D03*
X11400Y16800D02*
D03*
X10800Y13200D02*
D03*
Y10800D02*
D03*
Y8400D02*
D03*
X11400Y4800D02*
D03*
X10800Y3600D02*
D03*
X9600Y18000D02*
D03*
X10200Y16800D02*
D03*
X9600Y13200D02*
D03*
Y8400D02*
D03*
X10200Y4800D02*
D03*
X8400Y18000D02*
D03*
X9000Y16800D02*
D03*
Y2400D02*
D03*
X7200Y18000D02*
D03*
X7800Y16800D02*
D03*
X7200Y15600D02*
D03*
Y13200D02*
D03*
X7800Y12000D02*
D03*
X6000Y18000D02*
D03*
X6600Y16800D02*
D03*
X6000Y13200D02*
D03*
X6600Y7200D02*
D03*
X4800Y18000D02*
D03*
X5400Y16800D02*
D03*
X4800Y13200D02*
D03*
Y10800D02*
D03*
X5400Y7200D02*
D03*
X3600Y18000D02*
D03*
X4200Y16800D02*
D03*
X3600Y13200D02*
D03*
X2400Y18000D02*
D03*
X1800Y16800D02*
D03*
Y14400D02*
D03*
Y12000D02*
D03*
Y7200D02*
D03*
M02*
