G04*
G04 #@! TF.GenerationSoftware,Altium Limited,Altium Designer,23.3.1 (30)*
G04*
G04 Layer_Physical_Order=2*
G04 Layer_Color=36540*
%FSLAX24Y24*%
%MOIN*%
G70*
G04*
G04 #@! TF.SameCoordinates,FE471356-1482-470A-B847-6992AEFC5CE1*
G04*
G04*
G04 #@! TF.FilePolarity,Positive*
G04*
G01*
G75*
%ADD39C,0.0413*%
%ADD41C,0.0236*%
G36*
X17595Y18682D02*
X17770Y18635D01*
X17937Y18566D01*
X18094Y18476D01*
X18238Y18366D01*
X18366Y18238D01*
X18476Y18094D01*
X18566Y17937D01*
X18635Y17770D01*
X18682Y17595D01*
X18706Y17416D01*
Y17325D01*
Y1577D01*
Y1487D01*
X18682Y1307D01*
X18635Y1133D01*
X18566Y965D01*
X18476Y809D01*
X18366Y665D01*
X18238Y537D01*
X18094Y427D01*
X17937Y336D01*
X17770Y267D01*
X17595Y220D01*
X17416Y197D01*
X2632D01*
X2518Y220D01*
X2410Y264D01*
X2313Y329D01*
X2271Y370D01*
X370Y2271D01*
X329Y2313D01*
X264Y2410D01*
X220Y2518D01*
X197Y2632D01*
Y2691D01*
Y16212D01*
Y16270D01*
X220Y16385D01*
X264Y16493D01*
X329Y16590D01*
X370Y16631D01*
Y16631D01*
X2271Y18532D01*
X2313Y18574D01*
X2410Y18638D01*
X2518Y18683D01*
X2632Y18706D01*
X2691D01*
X2691Y18706D01*
X17416D01*
X17595Y18682D01*
D02*
G37*
%LPC*%
G36*
X14435Y16777D02*
X14365D01*
X14300Y16750D01*
X14250Y16700D01*
X14223Y16635D01*
Y16565D01*
X14250Y16500D01*
X14300Y16450D01*
X14365Y16423D01*
X14435D01*
X14500Y16450D01*
X14550Y16500D01*
X14577Y16565D01*
Y16635D01*
X14550Y16700D01*
X14500Y16750D01*
X14435Y16777D01*
D02*
G37*
G36*
X6285Y15077D02*
X6215D01*
X6150Y15050D01*
X6100Y15000D01*
X6073Y14935D01*
Y14865D01*
X6100Y14800D01*
X6150Y14750D01*
X6215Y14723D01*
X6285D01*
X6350Y14750D01*
X6400Y14800D01*
X6427Y14865D01*
Y14935D01*
X6400Y15000D01*
X6350Y15050D01*
X6285Y15077D01*
D02*
G37*
G36*
X3040Y14457D02*
X3030D01*
Y14180D01*
X3307D01*
Y14190D01*
X3286Y14268D01*
X3245Y14338D01*
X3188Y14395D01*
X3118Y14436D01*
X3040Y14457D01*
D02*
G37*
G36*
X1040D02*
X1030D01*
Y14180D01*
X1307D01*
Y14190D01*
X1286Y14268D01*
X1245Y14338D01*
X1188Y14395D01*
X1118Y14436D01*
X1040Y14457D01*
D02*
G37*
G36*
X970D02*
X960D01*
X882Y14436D01*
X812Y14395D01*
X755Y14338D01*
X714Y14268D01*
X693Y14190D01*
Y14180D01*
X970D01*
Y14457D01*
D02*
G37*
G36*
X2970D02*
X2960D01*
X2882Y14436D01*
X2812Y14395D01*
X2755Y14338D01*
X2714Y14268D01*
X2693Y14190D01*
Y14180D01*
X2970D01*
Y14457D01*
D02*
G37*
G36*
X11335Y14266D02*
X11265D01*
X11197Y14248D01*
X11137Y14213D01*
X11087Y14163D01*
X11079Y14148D01*
X11021D01*
X11013Y14163D01*
X10963Y14213D01*
X10903Y14248D01*
X10835Y14266D01*
X10765D01*
X10697Y14248D01*
X10637Y14213D01*
X10587Y14163D01*
X10552Y14103D01*
X10534Y14035D01*
Y13965D01*
X10552Y13897D01*
X10587Y13837D01*
X10637Y13787D01*
X10697Y13752D01*
X10765Y13734D01*
X10835D01*
X10903Y13752D01*
X10963Y13787D01*
X11013Y13837D01*
X11021Y13852D01*
X11079D01*
X11087Y13837D01*
X11137Y13787D01*
X11197Y13752D01*
X11265Y13734D01*
X11335D01*
X11403Y13752D01*
X11463Y13787D01*
X11513Y13837D01*
X11548Y13897D01*
X11566Y13965D01*
Y14035D01*
X11548Y14103D01*
X11513Y14163D01*
X11463Y14213D01*
X11403Y14248D01*
X11335Y14266D01*
D02*
G37*
G36*
X14385Y12777D02*
X14315D01*
X14250Y12750D01*
X14200Y12700D01*
X14173Y12635D01*
Y12565D01*
X14200Y12500D01*
X14250Y12450D01*
X14315Y12423D01*
X14385D01*
X14450Y12450D01*
X14500Y12500D01*
X14527Y12565D01*
Y12635D01*
X14500Y12700D01*
X14450Y12750D01*
X14385Y12777D01*
D02*
G37*
G36*
X7435Y11827D02*
X7365D01*
X7300Y11800D01*
X7250Y11750D01*
X7223Y11685D01*
Y11615D01*
X7250Y11550D01*
X7300Y11500D01*
X7365Y11473D01*
X7435D01*
X7500Y11500D01*
X7550Y11550D01*
X7577Y11615D01*
Y11685D01*
X7550Y11750D01*
X7500Y11800D01*
X7435Y11827D01*
D02*
G37*
G36*
X3685Y11377D02*
X3615D01*
X3550Y11350D01*
X3500Y11300D01*
X3473Y11235D01*
Y11165D01*
X3500Y11100D01*
X3550Y11050D01*
X3615Y11023D01*
X3685D01*
X3750Y11050D01*
X3800Y11100D01*
X3827Y11165D01*
Y11235D01*
X3800Y11300D01*
X3750Y11350D01*
X3685Y11377D01*
D02*
G37*
G36*
X6285Y11027D02*
X6215D01*
X6150Y11000D01*
X6100Y10950D01*
X6073Y10885D01*
Y10815D01*
X6100Y10750D01*
X6150Y10700D01*
X6215Y10673D01*
X6285D01*
X6350Y10700D01*
X6400Y10750D01*
X6427Y10815D01*
Y10885D01*
X6400Y10950D01*
X6350Y11000D01*
X6285Y11027D01*
D02*
G37*
G36*
X4535Y10977D02*
X4465D01*
X4400Y10950D01*
X4350Y10900D01*
X4323Y10835D01*
Y10765D01*
X4350Y10700D01*
X4400Y10650D01*
X4465Y10623D01*
X4535D01*
X4600Y10650D01*
X4650Y10700D01*
X4677Y10765D01*
Y10835D01*
X4650Y10900D01*
X4600Y10950D01*
X4535Y10977D01*
D02*
G37*
G36*
X11585Y10166D02*
X11515D01*
X11447Y10148D01*
X11387Y10113D01*
X11337Y10063D01*
X11329Y10048D01*
X11271D01*
X11263Y10063D01*
X11213Y10113D01*
X11153Y10148D01*
X11085Y10166D01*
X11015D01*
X10947Y10148D01*
X10887Y10113D01*
X10837Y10063D01*
X10802Y10003D01*
X10784Y9935D01*
Y9865D01*
X10802Y9797D01*
X10837Y9737D01*
X10887Y9687D01*
X10947Y9652D01*
X11015Y9634D01*
X11085D01*
X11153Y9652D01*
X11213Y9687D01*
X11263Y9737D01*
X11271Y9752D01*
X11329D01*
X11337Y9737D01*
X11387Y9687D01*
X11447Y9652D01*
X11515Y9634D01*
X11585D01*
X11653Y9652D01*
X11713Y9687D01*
X11763Y9737D01*
X11798Y9797D01*
X11816Y9865D01*
Y9935D01*
X11798Y10003D01*
X11763Y10063D01*
X11713Y10113D01*
X11653Y10148D01*
X11585Y10166D01*
D02*
G37*
G36*
X14385Y8577D02*
X14315D01*
X14250Y8550D01*
X14200Y8500D01*
X14173Y8435D01*
Y8365D01*
X14200Y8300D01*
X14250Y8250D01*
X14315Y8223D01*
X14385D01*
X14450Y8250D01*
X14500Y8300D01*
X14527Y8365D01*
Y8435D01*
X14500Y8500D01*
X14450Y8550D01*
X14385Y8577D01*
D02*
G37*
G36*
X3936Y8474D02*
X3864D01*
X3794Y8455D01*
X3732Y8419D01*
X3681Y8368D01*
X3645Y8306D01*
X3626Y8236D01*
Y8164D01*
X3645Y8094D01*
X3681Y8032D01*
X3732Y7981D01*
X3794Y7945D01*
X3864Y7926D01*
X3936D01*
X4006Y7945D01*
X4068Y7981D01*
X4119Y8032D01*
X4155Y8094D01*
X4174Y8164D01*
Y8236D01*
X4155Y8306D01*
X4119Y8368D01*
X4068Y8419D01*
X4006Y8455D01*
X3936Y8474D01*
D02*
G37*
G36*
X7435Y7927D02*
X7365D01*
X7300Y7900D01*
X7250Y7850D01*
X7223Y7785D01*
Y7715D01*
X7250Y7650D01*
X7300Y7600D01*
X7365Y7573D01*
X7435D01*
X7500Y7600D01*
X7550Y7650D01*
X7577Y7715D01*
Y7785D01*
X7550Y7850D01*
X7500Y7900D01*
X7435Y7927D01*
D02*
G37*
G36*
X6339Y6981D02*
X6269D01*
X6204Y6954D01*
X6154Y6904D01*
X6127Y6839D01*
Y6769D01*
X6154Y6704D01*
X6204Y6654D01*
X6269Y6627D01*
X6339D01*
X6404Y6654D01*
X6454Y6704D01*
X6481Y6769D01*
Y6839D01*
X6454Y6904D01*
X6404Y6954D01*
X6339Y6981D01*
D02*
G37*
G36*
X3836Y7024D02*
X3764D01*
X3694Y7005D01*
X3632Y6969D01*
X3581Y6918D01*
X3545Y6856D01*
X3526Y6786D01*
Y6714D01*
X3545Y6644D01*
X3581Y6582D01*
X3632Y6531D01*
X3694Y6495D01*
X3764Y6476D01*
X3836D01*
X3906Y6495D01*
X3968Y6531D01*
X4019Y6582D01*
X4055Y6644D01*
X4074Y6714D01*
Y6786D01*
X4055Y6856D01*
X4019Y6918D01*
X3968Y6969D01*
X3906Y7005D01*
X3836Y7024D01*
D02*
G37*
G36*
X11535Y6116D02*
X11465D01*
X11397Y6098D01*
X11337Y6063D01*
X11287Y6013D01*
X11279Y5998D01*
X11221D01*
X11213Y6013D01*
X11163Y6063D01*
X11103Y6098D01*
X11035Y6116D01*
X10965D01*
X10897Y6098D01*
X10837Y6063D01*
X10787Y6013D01*
X10752Y5953D01*
X10734Y5885D01*
Y5815D01*
X10752Y5747D01*
X10787Y5687D01*
X10837Y5637D01*
X10897Y5602D01*
X10965Y5584D01*
X11035D01*
X11103Y5602D01*
X11163Y5637D01*
X11213Y5687D01*
X11221Y5702D01*
X11279D01*
X11287Y5687D01*
X11337Y5637D01*
X11397Y5602D01*
X11465Y5584D01*
X11535D01*
X11603Y5602D01*
X11663Y5637D01*
X11713Y5687D01*
X11748Y5747D01*
X11766Y5815D01*
Y5885D01*
X11748Y5953D01*
X11713Y6013D01*
X11663Y6063D01*
X11603Y6098D01*
X11535Y6116D01*
D02*
G37*
G36*
X3785Y5827D02*
X3715D01*
X3650Y5800D01*
X3600Y5750D01*
X3573Y5685D01*
Y5615D01*
X3600Y5550D01*
X3650Y5500D01*
X3715Y5473D01*
X3785D01*
X3850Y5500D01*
X3900Y5550D01*
X3927Y5615D01*
Y5685D01*
X3900Y5750D01*
X3850Y5800D01*
X3785Y5827D01*
D02*
G37*
G36*
X4835Y5216D02*
X4765D01*
X4697Y5198D01*
X4637Y5163D01*
X4587Y5113D01*
X4579Y5098D01*
X4521D01*
X4513Y5113D01*
X4463Y5163D01*
X4403Y5198D01*
X4335Y5216D01*
X4265D01*
X4197Y5198D01*
X4137Y5163D01*
X4087Y5113D01*
X4052Y5053D01*
X4034Y4985D01*
Y4915D01*
X4052Y4847D01*
X4087Y4787D01*
X4137Y4737D01*
X4197Y4702D01*
X4265Y4684D01*
X4335D01*
X4403Y4702D01*
X4463Y4737D01*
X4513Y4787D01*
X4521Y4802D01*
X4579D01*
X4587Y4787D01*
X4637Y4737D01*
X4697Y4702D01*
X4765Y4684D01*
X4835D01*
X4903Y4702D01*
X4963Y4737D01*
X5013Y4787D01*
X5048Y4847D01*
X5066Y4915D01*
Y4985D01*
X5048Y5053D01*
X5013Y5113D01*
X4963Y5163D01*
X4903Y5198D01*
X4835Y5216D01*
D02*
G37*
G36*
X9485Y5066D02*
X9415D01*
X9347Y5048D01*
X9287Y5013D01*
X9237Y4963D01*
X9229Y4948D01*
X9171D01*
X9163Y4963D01*
X9113Y5013D01*
X9053Y5048D01*
X8985Y5066D01*
X8915D01*
X8847Y5048D01*
X8787Y5013D01*
X8737Y4963D01*
X8702Y4903D01*
X8684Y4835D01*
Y4765D01*
X8702Y4697D01*
X8737Y4637D01*
X8787Y4587D01*
X8847Y4552D01*
X8915Y4534D01*
X8985D01*
X9053Y4552D01*
X9113Y4587D01*
X9163Y4637D01*
X9171Y4652D01*
X9229D01*
X9237Y4637D01*
X9287Y4587D01*
X9347Y4552D01*
X9415Y4534D01*
X9485D01*
X9553Y4552D01*
X9613Y4587D01*
X9663Y4637D01*
X9698Y4697D01*
X9716Y4765D01*
Y4835D01*
X9698Y4903D01*
X9663Y4963D01*
X9613Y5013D01*
X9553Y5048D01*
X9485Y5066D01*
D02*
G37*
G36*
X3835Y4777D02*
X3765D01*
X3700Y4750D01*
X3650Y4700D01*
X3623Y4635D01*
Y4565D01*
X3650Y4500D01*
X3700Y4450D01*
X3765Y4423D01*
X3835D01*
X3900Y4450D01*
X3950Y4500D01*
X3977Y4565D01*
Y4635D01*
X3950Y4700D01*
X3900Y4750D01*
X3835Y4777D01*
D02*
G37*
G36*
X3307Y14120D02*
X3000D01*
X2693D01*
Y14110D01*
X2714Y14032D01*
X2755Y13962D01*
X2812Y13905D01*
X2814Y13903D01*
X2818Y13843D01*
X2787Y13813D01*
X2752Y13753D01*
X2734Y13685D01*
Y13615D01*
X2752Y13547D01*
X2787Y13487D01*
X2837Y13437D01*
X2852Y13429D01*
Y13371D01*
X2837Y13363D01*
X2787Y13313D01*
X2752Y13253D01*
X2734Y13185D01*
Y13115D01*
X2752Y13047D01*
X2787Y12987D01*
X2837Y12937D01*
X2852Y12929D01*
Y12871D01*
X2837Y12863D01*
X2787Y12813D01*
X2752Y12753D01*
X2734Y12685D01*
Y12615D01*
X2752Y12547D01*
X2787Y12487D01*
X2837Y12437D01*
X2852Y12429D01*
Y12371D01*
X2837Y12363D01*
X2787Y12313D01*
X2752Y12253D01*
X2734Y12185D01*
Y12115D01*
X2752Y12047D01*
X2787Y11987D01*
X2837Y11937D01*
X2852Y11929D01*
Y11871D01*
X2837Y11863D01*
X2787Y11813D01*
X2752Y11753D01*
X2734Y11685D01*
Y11615D01*
X2752Y11547D01*
X2787Y11487D01*
X2837Y11437D01*
X2852Y11429D01*
Y11371D01*
X2837Y11363D01*
X2787Y11313D01*
X2752Y11253D01*
X2734Y11185D01*
Y11115D01*
X2752Y11047D01*
X2787Y10987D01*
X2837Y10937D01*
X2852Y10929D01*
Y10871D01*
X2837Y10863D01*
X2787Y10813D01*
X2752Y10753D01*
X2734Y10685D01*
Y10615D01*
X2752Y10547D01*
X2787Y10487D01*
X2837Y10437D01*
X2852Y10429D01*
Y10371D01*
X2837Y10363D01*
X2787Y10313D01*
X2752Y10253D01*
X2734Y10185D01*
Y10115D01*
X2752Y10047D01*
X2787Y9987D01*
X2837Y9937D01*
X2852Y9929D01*
Y9871D01*
X2837Y9863D01*
X2787Y9813D01*
X2752Y9753D01*
X2734Y9685D01*
Y9615D01*
X2752Y9547D01*
X2787Y9487D01*
X2837Y9437D01*
X2852Y9429D01*
Y9371D01*
X2837Y9363D01*
X2787Y9313D01*
X2752Y9253D01*
X2734Y9185D01*
Y9115D01*
X2752Y9047D01*
X2787Y8987D01*
X2837Y8937D01*
X2852Y8929D01*
Y8871D01*
X2837Y8863D01*
X2787Y8813D01*
X2752Y8753D01*
X2734Y8685D01*
Y8615D01*
X2752Y8547D01*
X2787Y8487D01*
X2837Y8437D01*
X2852Y8429D01*
Y8371D01*
X2837Y8363D01*
X2787Y8313D01*
X2752Y8253D01*
X2734Y8185D01*
Y8115D01*
X2752Y8047D01*
X2787Y7987D01*
X2837Y7937D01*
X2852Y7929D01*
Y7871D01*
X2837Y7863D01*
X2787Y7813D01*
X2752Y7753D01*
X2734Y7685D01*
Y7615D01*
X2752Y7547D01*
X2787Y7487D01*
X2837Y7437D01*
X2852Y7429D01*
Y7371D01*
X2837Y7363D01*
X2787Y7313D01*
X2752Y7253D01*
X2734Y7185D01*
Y7115D01*
X2752Y7047D01*
X2787Y6987D01*
X2837Y6937D01*
X2852Y6929D01*
Y6871D01*
X2837Y6863D01*
X2787Y6813D01*
X2752Y6753D01*
X2734Y6685D01*
Y6615D01*
X2752Y6547D01*
X2787Y6487D01*
X2837Y6437D01*
X2852Y6429D01*
Y6371D01*
X2837Y6363D01*
X2787Y6313D01*
X2752Y6253D01*
X2734Y6185D01*
Y6115D01*
X2752Y6047D01*
X2787Y5987D01*
X2837Y5937D01*
X2852Y5929D01*
Y5871D01*
X2837Y5863D01*
X2787Y5813D01*
X2752Y5753D01*
X2734Y5685D01*
Y5615D01*
X2752Y5547D01*
X2787Y5487D01*
X2837Y5437D01*
X2852Y5429D01*
Y5371D01*
X2837Y5363D01*
X2787Y5313D01*
X2752Y5253D01*
X2734Y5185D01*
Y5115D01*
X2752Y5047D01*
X2787Y4987D01*
X2837Y4937D01*
X2852Y4929D01*
Y4871D01*
X2837Y4863D01*
X2787Y4813D01*
X2752Y4753D01*
X2734Y4685D01*
Y4615D01*
X2752Y4547D01*
X2787Y4487D01*
X2837Y4437D01*
X2897Y4402D01*
X2965Y4384D01*
X3035D01*
X3103Y4402D01*
X3163Y4437D01*
X3213Y4487D01*
X3248Y4547D01*
X3266Y4615D01*
Y4685D01*
X3248Y4753D01*
X3213Y4813D01*
X3163Y4863D01*
X3148Y4871D01*
Y4929D01*
X3163Y4937D01*
X3213Y4987D01*
X3248Y5047D01*
X3266Y5115D01*
Y5185D01*
X3248Y5253D01*
X3213Y5313D01*
X3163Y5363D01*
X3148Y5371D01*
Y5429D01*
X3163Y5437D01*
X3213Y5487D01*
X3248Y5547D01*
X3266Y5615D01*
Y5685D01*
X3248Y5753D01*
X3213Y5813D01*
X3163Y5863D01*
X3148Y5871D01*
Y5929D01*
X3163Y5937D01*
X3213Y5987D01*
X3248Y6047D01*
X3266Y6115D01*
Y6185D01*
X3248Y6253D01*
X3213Y6313D01*
X3163Y6363D01*
X3148Y6371D01*
Y6429D01*
X3163Y6437D01*
X3213Y6487D01*
X3248Y6547D01*
X3266Y6615D01*
Y6685D01*
X3248Y6753D01*
X3213Y6813D01*
X3163Y6863D01*
X3148Y6871D01*
Y6929D01*
X3163Y6937D01*
X3213Y6987D01*
X3248Y7047D01*
X3266Y7115D01*
Y7185D01*
X3248Y7253D01*
X3213Y7313D01*
X3163Y7363D01*
X3148Y7371D01*
Y7429D01*
X3163Y7437D01*
X3213Y7487D01*
X3248Y7547D01*
X3266Y7615D01*
Y7685D01*
X3248Y7753D01*
X3213Y7813D01*
X3163Y7863D01*
X3148Y7871D01*
Y7929D01*
X3163Y7937D01*
X3213Y7987D01*
X3248Y8047D01*
X3266Y8115D01*
Y8185D01*
X3248Y8253D01*
X3213Y8313D01*
X3163Y8363D01*
X3148Y8371D01*
Y8429D01*
X3163Y8437D01*
X3213Y8487D01*
X3248Y8547D01*
X3266Y8615D01*
Y8685D01*
X3248Y8753D01*
X3213Y8813D01*
X3163Y8863D01*
X3148Y8871D01*
Y8929D01*
X3163Y8937D01*
X3213Y8987D01*
X3248Y9047D01*
X3266Y9115D01*
Y9185D01*
X3248Y9253D01*
X3213Y9313D01*
X3163Y9363D01*
X3148Y9371D01*
Y9429D01*
X3163Y9437D01*
X3213Y9487D01*
X3248Y9547D01*
X3266Y9615D01*
Y9685D01*
X3248Y9753D01*
X3213Y9813D01*
X3163Y9863D01*
X3148Y9871D01*
Y9929D01*
X3163Y9937D01*
X3213Y9987D01*
X3248Y10047D01*
X3266Y10115D01*
Y10185D01*
X3248Y10253D01*
X3213Y10313D01*
X3163Y10363D01*
X3148Y10371D01*
Y10429D01*
X3163Y10437D01*
X3213Y10487D01*
X3248Y10547D01*
X3266Y10615D01*
Y10685D01*
X3248Y10753D01*
X3213Y10813D01*
X3163Y10863D01*
X3148Y10871D01*
Y10929D01*
X3163Y10937D01*
X3213Y10987D01*
X3248Y11047D01*
X3266Y11115D01*
Y11185D01*
X3248Y11253D01*
X3213Y11313D01*
X3163Y11363D01*
X3148Y11371D01*
Y11429D01*
X3163Y11437D01*
X3213Y11487D01*
X3248Y11547D01*
X3266Y11615D01*
Y11685D01*
X3248Y11753D01*
X3213Y11813D01*
X3163Y11863D01*
X3148Y11871D01*
Y11929D01*
X3163Y11937D01*
X3213Y11987D01*
X3248Y12047D01*
X3266Y12115D01*
Y12185D01*
X3248Y12253D01*
X3213Y12313D01*
X3163Y12363D01*
X3148Y12371D01*
Y12429D01*
X3163Y12437D01*
X3213Y12487D01*
X3248Y12547D01*
X3266Y12615D01*
Y12685D01*
X3248Y12753D01*
X3213Y12813D01*
X3163Y12863D01*
X3148Y12871D01*
Y12929D01*
X3163Y12937D01*
X3213Y12987D01*
X3248Y13047D01*
X3266Y13115D01*
Y13185D01*
X3248Y13253D01*
X3213Y13313D01*
X3163Y13363D01*
X3148Y13371D01*
Y13429D01*
X3163Y13437D01*
X3213Y13487D01*
X3248Y13547D01*
X3266Y13615D01*
Y13685D01*
X3248Y13753D01*
X3213Y13813D01*
X3182Y13843D01*
X3186Y13903D01*
X3188Y13905D01*
X3245Y13962D01*
X3286Y14032D01*
X3307Y14110D01*
Y14120D01*
D02*
G37*
G36*
X1307D02*
X1000D01*
X693D01*
Y14110D01*
X714Y14032D01*
X755Y13962D01*
X812Y13905D01*
X814Y13903D01*
X818Y13843D01*
X787Y13813D01*
X752Y13753D01*
X734Y13685D01*
Y13615D01*
X752Y13547D01*
X787Y13487D01*
X837Y13437D01*
X852Y13429D01*
Y13371D01*
X837Y13363D01*
X787Y13313D01*
X752Y13253D01*
X734Y13185D01*
Y13115D01*
X752Y13047D01*
X787Y12987D01*
X837Y12937D01*
X852Y12929D01*
Y12871D01*
X837Y12863D01*
X787Y12813D01*
X752Y12753D01*
X734Y12685D01*
Y12615D01*
X752Y12547D01*
X787Y12487D01*
X837Y12437D01*
X852Y12429D01*
Y12371D01*
X837Y12363D01*
X787Y12313D01*
X752Y12253D01*
X734Y12185D01*
Y12115D01*
X752Y12047D01*
X787Y11987D01*
X837Y11937D01*
X852Y11929D01*
Y11871D01*
X837Y11863D01*
X787Y11813D01*
X752Y11753D01*
X734Y11685D01*
Y11615D01*
X752Y11547D01*
X787Y11487D01*
X837Y11437D01*
X852Y11429D01*
Y11371D01*
X837Y11363D01*
X787Y11313D01*
X752Y11253D01*
X734Y11185D01*
Y11115D01*
X752Y11047D01*
X787Y10987D01*
X837Y10937D01*
X852Y10929D01*
Y10871D01*
X837Y10863D01*
X787Y10813D01*
X752Y10753D01*
X734Y10685D01*
Y10615D01*
X752Y10547D01*
X787Y10487D01*
X837Y10437D01*
X852Y10429D01*
Y10371D01*
X837Y10363D01*
X787Y10313D01*
X752Y10253D01*
X734Y10185D01*
Y10115D01*
X752Y10047D01*
X787Y9987D01*
X837Y9937D01*
X852Y9929D01*
Y9871D01*
X837Y9863D01*
X787Y9813D01*
X752Y9753D01*
X734Y9685D01*
Y9615D01*
X752Y9547D01*
X787Y9487D01*
X837Y9437D01*
X852Y9429D01*
Y9371D01*
X837Y9363D01*
X787Y9313D01*
X752Y9253D01*
X734Y9185D01*
Y9115D01*
X752Y9047D01*
X787Y8987D01*
X837Y8937D01*
X852Y8929D01*
Y8871D01*
X837Y8863D01*
X787Y8813D01*
X752Y8753D01*
X734Y8685D01*
Y8615D01*
X752Y8547D01*
X787Y8487D01*
X837Y8437D01*
X852Y8429D01*
Y8371D01*
X837Y8363D01*
X787Y8313D01*
X752Y8253D01*
X734Y8185D01*
Y8115D01*
X752Y8047D01*
X787Y7987D01*
X837Y7937D01*
X852Y7929D01*
Y7871D01*
X837Y7863D01*
X787Y7813D01*
X752Y7753D01*
X734Y7685D01*
Y7615D01*
X752Y7547D01*
X787Y7487D01*
X837Y7437D01*
X852Y7429D01*
Y7371D01*
X837Y7363D01*
X787Y7313D01*
X752Y7253D01*
X734Y7185D01*
Y7115D01*
X752Y7047D01*
X787Y6987D01*
X837Y6937D01*
X852Y6929D01*
Y6871D01*
X837Y6863D01*
X787Y6813D01*
X752Y6753D01*
X734Y6685D01*
Y6615D01*
X752Y6547D01*
X787Y6487D01*
X837Y6437D01*
X852Y6429D01*
Y6371D01*
X837Y6363D01*
X787Y6313D01*
X752Y6253D01*
X734Y6185D01*
Y6115D01*
X752Y6047D01*
X787Y5987D01*
X837Y5937D01*
X852Y5929D01*
Y5871D01*
X837Y5863D01*
X787Y5813D01*
X752Y5753D01*
X734Y5685D01*
Y5615D01*
X752Y5547D01*
X787Y5487D01*
X837Y5437D01*
X852Y5429D01*
Y5371D01*
X837Y5363D01*
X787Y5313D01*
X752Y5253D01*
X734Y5185D01*
Y5115D01*
X752Y5047D01*
X787Y4987D01*
X837Y4937D01*
X852Y4929D01*
Y4871D01*
X837Y4863D01*
X787Y4813D01*
X752Y4753D01*
X734Y4685D01*
Y4615D01*
X752Y4547D01*
X787Y4487D01*
X837Y4437D01*
X897Y4402D01*
X965Y4384D01*
X1035D01*
X1103Y4402D01*
X1163Y4437D01*
X1213Y4487D01*
X1248Y4547D01*
X1266Y4615D01*
Y4685D01*
X1248Y4753D01*
X1213Y4813D01*
X1163Y4863D01*
X1148Y4871D01*
Y4929D01*
X1163Y4937D01*
X1213Y4987D01*
X1248Y5047D01*
X1266Y5115D01*
Y5185D01*
X1248Y5253D01*
X1213Y5313D01*
X1163Y5363D01*
X1148Y5371D01*
Y5429D01*
X1163Y5437D01*
X1213Y5487D01*
X1248Y5547D01*
X1266Y5615D01*
Y5685D01*
X1248Y5753D01*
X1213Y5813D01*
X1163Y5863D01*
X1148Y5871D01*
Y5929D01*
X1163Y5937D01*
X1213Y5987D01*
X1248Y6047D01*
X1266Y6115D01*
Y6185D01*
X1248Y6253D01*
X1213Y6313D01*
X1163Y6363D01*
X1148Y6371D01*
Y6429D01*
X1163Y6437D01*
X1213Y6487D01*
X1248Y6547D01*
X1266Y6615D01*
Y6685D01*
X1248Y6753D01*
X1213Y6813D01*
X1163Y6863D01*
X1148Y6871D01*
Y6929D01*
X1163Y6937D01*
X1213Y6987D01*
X1248Y7047D01*
X1266Y7115D01*
Y7185D01*
X1248Y7253D01*
X1213Y7313D01*
X1163Y7363D01*
X1148Y7371D01*
Y7429D01*
X1163Y7437D01*
X1213Y7487D01*
X1248Y7547D01*
X1266Y7615D01*
Y7685D01*
X1248Y7753D01*
X1213Y7813D01*
X1163Y7863D01*
X1148Y7871D01*
Y7929D01*
X1163Y7937D01*
X1213Y7987D01*
X1248Y8047D01*
X1266Y8115D01*
Y8185D01*
X1248Y8253D01*
X1213Y8313D01*
X1163Y8363D01*
X1148Y8371D01*
Y8429D01*
X1163Y8437D01*
X1213Y8487D01*
X1248Y8547D01*
X1266Y8615D01*
Y8685D01*
X1248Y8753D01*
X1213Y8813D01*
X1163Y8863D01*
X1148Y8871D01*
Y8929D01*
X1163Y8937D01*
X1213Y8987D01*
X1248Y9047D01*
X1266Y9115D01*
Y9185D01*
X1248Y9253D01*
X1213Y9313D01*
X1163Y9363D01*
X1148Y9371D01*
Y9429D01*
X1163Y9437D01*
X1213Y9487D01*
X1248Y9547D01*
X1266Y9615D01*
Y9685D01*
X1248Y9753D01*
X1213Y9813D01*
X1163Y9863D01*
X1148Y9871D01*
Y9929D01*
X1163Y9937D01*
X1213Y9987D01*
X1248Y10047D01*
X1266Y10115D01*
Y10185D01*
X1248Y10253D01*
X1213Y10313D01*
X1163Y10363D01*
X1148Y10371D01*
Y10429D01*
X1163Y10437D01*
X1213Y10487D01*
X1248Y10547D01*
X1266Y10615D01*
Y10685D01*
X1248Y10753D01*
X1213Y10813D01*
X1163Y10863D01*
X1148Y10871D01*
Y10929D01*
X1163Y10937D01*
X1213Y10987D01*
X1248Y11047D01*
X1266Y11115D01*
Y11185D01*
X1248Y11253D01*
X1213Y11313D01*
X1163Y11363D01*
X1148Y11371D01*
Y11429D01*
X1163Y11437D01*
X1213Y11487D01*
X1248Y11547D01*
X1266Y11615D01*
Y11685D01*
X1248Y11753D01*
X1213Y11813D01*
X1163Y11863D01*
X1148Y11871D01*
Y11929D01*
X1163Y11937D01*
X1213Y11987D01*
X1248Y12047D01*
X1266Y12115D01*
Y12185D01*
X1248Y12253D01*
X1213Y12313D01*
X1163Y12363D01*
X1148Y12371D01*
Y12429D01*
X1163Y12437D01*
X1213Y12487D01*
X1248Y12547D01*
X1266Y12615D01*
Y12685D01*
X1248Y12753D01*
X1213Y12813D01*
X1163Y12863D01*
X1148Y12871D01*
Y12929D01*
X1163Y12937D01*
X1213Y12987D01*
X1248Y13047D01*
X1266Y13115D01*
Y13185D01*
X1248Y13253D01*
X1213Y13313D01*
X1163Y13363D01*
X1148Y13371D01*
Y13429D01*
X1163Y13437D01*
X1213Y13487D01*
X1248Y13547D01*
X1266Y13615D01*
Y13685D01*
X1248Y13753D01*
X1213Y13813D01*
X1182Y13843D01*
X1186Y13903D01*
X1188Y13905D01*
X1245Y13962D01*
X1286Y14032D01*
X1307Y14110D01*
Y14120D01*
D02*
G37*
G36*
X14385Y4527D02*
X14315D01*
X14250Y4500D01*
X14200Y4450D01*
X14173Y4385D01*
Y4315D01*
X14200Y4250D01*
X14250Y4200D01*
X14315Y4173D01*
X14385D01*
X14450Y4200D01*
X14500Y4250D01*
X14527Y4315D01*
Y4385D01*
X14500Y4450D01*
X14450Y4500D01*
X14385Y4527D01*
D02*
G37*
G36*
X2536Y3974D02*
X2464D01*
X2394Y3955D01*
X2332Y3919D01*
X2281Y3868D01*
X2245Y3806D01*
X2226Y3736D01*
Y3664D01*
X2245Y3594D01*
X2281Y3532D01*
X2332Y3481D01*
X2394Y3445D01*
X2464Y3426D01*
X2536D01*
X2606Y3445D01*
X2668Y3481D01*
X2719Y3532D01*
X2755Y3594D01*
X2774Y3664D01*
Y3736D01*
X2755Y3806D01*
X2719Y3868D01*
X2668Y3919D01*
X2606Y3955D01*
X2536Y3974D01*
D02*
G37*
G36*
X6360Y3352D02*
X6290D01*
X6225Y3325D01*
X6175Y3275D01*
X6148Y3210D01*
Y3140D01*
X6175Y3075D01*
X6225Y3025D01*
X6290Y2998D01*
X6360D01*
X6425Y3025D01*
X6475Y3075D01*
X6502Y3140D01*
Y3210D01*
X6475Y3275D01*
X6425Y3325D01*
X6360Y3352D01*
D02*
G37*
G36*
X8636Y3174D02*
X8564D01*
X8494Y3155D01*
X8432Y3119D01*
X8381Y3068D01*
X8345Y3006D01*
X8326Y2936D01*
Y2864D01*
X8345Y2794D01*
X8381Y2732D01*
X8432Y2681D01*
X8494Y2645D01*
X8564Y2626D01*
X8636D01*
X8706Y2645D01*
X8768Y2681D01*
X8819Y2732D01*
X8855Y2794D01*
X8874Y2864D01*
Y2936D01*
X8855Y3006D01*
X8819Y3068D01*
X8768Y3119D01*
X8706Y3155D01*
X8636Y3174D01*
D02*
G37*
G36*
X11535Y2466D02*
X11465D01*
X11397Y2448D01*
X11337Y2413D01*
X11287Y2363D01*
X11279Y2348D01*
X11221D01*
X11213Y2363D01*
X11163Y2413D01*
X11103Y2448D01*
X11035Y2466D01*
X10965D01*
X10897Y2448D01*
X10837Y2413D01*
X10787Y2363D01*
X10752Y2303D01*
X10734Y2235D01*
Y2165D01*
X10752Y2097D01*
X10787Y2037D01*
X10837Y1987D01*
X10897Y1952D01*
X10965Y1934D01*
X11035D01*
X11103Y1952D01*
X11163Y1987D01*
X11213Y2037D01*
X11221Y2052D01*
X11279D01*
X11287Y2037D01*
X11337Y1987D01*
X11397Y1952D01*
X11465Y1934D01*
X11535D01*
X11603Y1952D01*
X11663Y1987D01*
X11713Y2037D01*
X11748Y2097D01*
X11766Y2165D01*
Y2235D01*
X11748Y2303D01*
X11713Y2363D01*
X11663Y2413D01*
X11603Y2448D01*
X11535Y2466D01*
D02*
G37*
%LPD*%
D39*
X1000Y14150D02*
D03*
X3000D02*
D03*
D41*
X8338Y10824D02*
D03*
X8750Y1950D02*
D03*
X5550Y14900D02*
D03*
X9250Y13150D02*
D03*
X5600Y10900D02*
D03*
X5700Y6750D02*
D03*
X5350Y3150D02*
D03*
M02*
