G04*
G04 #@! TF.GenerationSoftware,Altium Limited,Altium Designer,23.3.1 (30)*
G04*
G04 Layer_Color=2752767*
%FSLAX24Y24*%
%MOIN*%
G70*
G04*
G04 #@! TF.SameCoordinates,FE471356-1482-470A-B847-6992AEFC5CE1*
G04*
G04*
G04 #@! TF.FilePolarity,Positive*
G04*
G01*
G75*
%ADD42C,0.0020*%
%ADD43C,0.0027*%
D42*
X3820Y8120D02*
X3860Y8200D01*
X3820Y8280D01*
X3900Y8240D01*
X3980Y8280D01*
X3940Y8200D01*
X3980Y8120D01*
X3900Y8160D01*
X3820Y8120D01*
X3720Y6670D02*
X3760Y6750D01*
X3720Y6830D01*
X3800Y6790D01*
X3880Y6830D01*
X3840Y6750D01*
X3880Y6670D01*
X3800Y6710D01*
X3720Y6670D01*
X2420Y3620D02*
X2460Y3700D01*
X2420Y3780D01*
X2500Y3740D01*
X2580Y3780D01*
X2540Y3700D01*
X2580Y3620D01*
X2500Y3660D01*
X2420Y3620D01*
X8520Y2820D02*
X8560Y2900D01*
X8520Y2980D01*
X8600Y2940D01*
X8680Y2980D01*
X8640Y2900D01*
X8680Y2820D01*
X8600Y2860D01*
X8520Y2820D01*
X920Y4570D02*
Y4730D01*
X1080D01*
Y4570D01*
X920D01*
X2920D02*
Y4730D01*
X3080D01*
Y4570D01*
X2920D01*
X920Y5070D02*
Y5230D01*
X1080D01*
Y5070D01*
X920D01*
X2920D02*
Y5230D01*
X3080D01*
Y5070D01*
X2920D01*
X920Y5570D02*
Y5730D01*
X1080D01*
Y5570D01*
X920D01*
X2920D02*
Y5730D01*
X3080D01*
Y5570D01*
X2920D01*
X920Y6070D02*
Y6230D01*
X1080D01*
Y6070D01*
X920D01*
X2920D02*
Y6230D01*
X3080D01*
Y6070D01*
X2920D01*
X920Y6570D02*
Y6730D01*
X1080D01*
Y6570D01*
X920D01*
X2920D02*
Y6730D01*
X3080D01*
Y6570D01*
X2920D01*
X920Y7070D02*
Y7230D01*
X1080D01*
Y7070D01*
X920D01*
X2920D02*
Y7230D01*
X3080D01*
Y7070D01*
X2920D01*
X920Y7570D02*
Y7730D01*
X1080D01*
Y7570D01*
X920D01*
X2920D02*
Y7730D01*
X3080D01*
Y7570D01*
X2920D01*
X920Y8070D02*
Y8230D01*
X1080D01*
Y8070D01*
X920D01*
X2920D02*
Y8230D01*
X3080D01*
Y8070D01*
X2920D01*
X920Y8570D02*
Y8730D01*
X1080D01*
Y8570D01*
X920D01*
X2920D02*
Y8730D01*
X3080D01*
Y8570D01*
X2920D01*
X920Y9070D02*
Y9230D01*
X1080D01*
Y9070D01*
X920D01*
X2920D02*
Y9230D01*
X3080D01*
Y9070D01*
X2920D01*
X920Y9570D02*
Y9730D01*
X1080D01*
Y9570D01*
X920D01*
X2920D02*
Y9730D01*
X3080D01*
Y9570D01*
X2920D01*
X920Y10070D02*
Y10230D01*
X1080D01*
Y10070D01*
X920D01*
X2920D02*
Y10230D01*
X3080D01*
Y10070D01*
X2920D01*
X920Y10570D02*
Y10730D01*
X1080D01*
Y10570D01*
X920D01*
X2920D02*
Y10730D01*
X3080D01*
Y10570D01*
X2920D01*
X920Y11070D02*
Y11230D01*
X1080D01*
Y11070D01*
X920D01*
X2920D02*
Y11230D01*
X3080D01*
Y11070D01*
X2920D01*
X920Y11570D02*
Y11730D01*
X1080D01*
Y11570D01*
X920D01*
X2920D02*
Y11730D01*
X3080D01*
Y11570D01*
X2920D01*
X920Y12070D02*
Y12230D01*
X1080D01*
Y12070D01*
X920D01*
X2920D02*
Y12230D01*
X3080D01*
Y12070D01*
X2920D01*
X920Y12570D02*
Y12730D01*
X1080D01*
Y12570D01*
X920D01*
X2920D02*
Y12730D01*
X3080D01*
Y12570D01*
X2920D01*
X920Y13070D02*
Y13230D01*
X1080D01*
Y13070D01*
X920D01*
X2920D02*
Y13230D01*
X3080D01*
Y13070D01*
X2920D01*
X920Y13570D02*
Y13730D01*
X1080D01*
Y13570D01*
X920D01*
X2920D02*
Y13730D01*
X3080D01*
Y13570D01*
X2920D01*
X920Y14070D02*
Y14230D01*
X1080D01*
Y14070D01*
X920D01*
X2920D02*
Y14230D01*
X3080D01*
Y14070D01*
X2920D01*
X8338Y10744D02*
X8378Y10784D01*
X8418D01*
X8378Y10824D01*
X8418Y10864D01*
X8378D01*
X8338Y10904D01*
X8298Y10864D01*
X8258D01*
X8298Y10824D01*
X8258Y10784D01*
X8298D01*
X8338Y10744D01*
X8750Y1870D02*
X8790Y1910D01*
X8830D01*
X8790Y1950D01*
X8830Y1990D01*
X8790D01*
X8750Y2030D01*
X8710Y1990D01*
X8670D01*
X8710Y1950D01*
X8670Y1910D01*
X8710D01*
X8750Y1870D01*
X14350Y4270D02*
X14390Y4310D01*
X14430D01*
X14390Y4350D01*
X14430Y4390D01*
X14390D01*
X14350Y4430D01*
X14310Y4390D01*
X14270D01*
X14310Y4350D01*
X14270Y4310D01*
X14310D01*
X14350Y4270D01*
Y8320D02*
X14390Y8360D01*
X14430D01*
X14390Y8400D01*
X14430Y8440D01*
X14390D01*
X14350Y8480D01*
X14310Y8440D01*
X14270D01*
X14310Y8400D01*
X14270Y8360D01*
X14310D01*
X14350Y8320D01*
Y12520D02*
X14390Y12560D01*
X14430D01*
X14390Y12600D01*
X14430Y12640D01*
X14390D01*
X14350Y12680D01*
X14310Y12640D01*
X14270D01*
X14310Y12600D01*
X14270Y12560D01*
X14310D01*
X14350Y12520D01*
X14400Y16520D02*
X14440Y16560D01*
X14480D01*
X14440Y16600D01*
X14480Y16640D01*
X14440D01*
X14400Y16680D01*
X14360Y16640D01*
X14320D01*
X14360Y16600D01*
X14320Y16560D01*
X14360D01*
X14400Y16520D01*
X7400Y11570D02*
X7440Y11610D01*
X7480D01*
X7440Y11650D01*
X7480Y11690D01*
X7440D01*
X7400Y11730D01*
X7360Y11690D01*
X7320D01*
X7360Y11650D01*
X7320Y11610D01*
X7360D01*
X7400Y11570D01*
X3750Y5570D02*
X3790Y5610D01*
X3830D01*
X3790Y5650D01*
X3830Y5690D01*
X3790D01*
X3750Y5730D01*
X3710Y5690D01*
X3670D01*
X3710Y5650D01*
X3670Y5610D01*
X3710D01*
X3750Y5570D01*
X3800Y4520D02*
X3840Y4560D01*
X3880D01*
X3840Y4600D01*
X3880Y4640D01*
X3840D01*
X3800Y4680D01*
X3760Y4640D01*
X3720D01*
X3760Y4600D01*
X3720Y4560D01*
X3760D01*
X3800Y4520D01*
X6250Y14820D02*
X6290Y14860D01*
X6330D01*
X6290Y14900D01*
X6330Y14940D01*
X6290D01*
X6250Y14980D01*
X6210Y14940D01*
X6170D01*
X6210Y14900D01*
X6170Y14860D01*
X6210D01*
X6250Y14820D01*
X7400Y7670D02*
X7440Y7710D01*
X7480D01*
X7440Y7750D01*
X7480Y7790D01*
X7440D01*
X7400Y7830D01*
X7360Y7790D01*
X7320D01*
X7360Y7750D01*
X7320Y7710D01*
X7360D01*
X7400Y7670D01*
X6250Y10770D02*
X6290Y10810D01*
X6330D01*
X6290Y10850D01*
X6330Y10890D01*
X6290D01*
X6250Y10930D01*
X6210Y10890D01*
X6170D01*
X6210Y10850D01*
X6170Y10810D01*
X6210D01*
X6250Y10770D01*
X6304Y6724D02*
X6344Y6764D01*
X6384D01*
X6344Y6804D01*
X6384Y6844D01*
X6344D01*
X6304Y6884D01*
X6264Y6844D01*
X6224D01*
X6264Y6804D01*
X6224Y6764D01*
X6264D01*
X6304Y6724D01*
X5550Y14820D02*
X5590Y14860D01*
X5630D01*
X5590Y14900D01*
X5630Y14940D01*
X5590D01*
X5550Y14980D01*
X5510Y14940D01*
X5470D01*
X5510Y14900D01*
X5470Y14860D01*
X5510D01*
X5550Y14820D01*
X9250Y13070D02*
X9290Y13110D01*
X9330D01*
X9290Y13150D01*
X9330Y13190D01*
X9290D01*
X9250Y13230D01*
X9210Y13190D01*
X9170D01*
X9210Y13150D01*
X9170Y13110D01*
X9210D01*
X9250Y13070D01*
X5600Y10820D02*
X5640Y10860D01*
X5680D01*
X5640Y10900D01*
X5680Y10940D01*
X5640D01*
X5600Y10980D01*
X5560Y10940D01*
X5520D01*
X5560Y10900D01*
X5520Y10860D01*
X5560D01*
X5600Y10820D01*
X5700Y6670D02*
X5740Y6710D01*
X5780D01*
X5740Y6750D01*
X5780Y6790D01*
X5740D01*
X5700Y6830D01*
X5660Y6790D01*
X5620D01*
X5660Y6750D01*
X5620Y6710D01*
X5660D01*
X5700Y6670D01*
X5350Y3070D02*
X5390Y3110D01*
X5430D01*
X5390Y3150D01*
X5430Y3190D01*
X5390D01*
X5350Y3230D01*
X5310Y3190D01*
X5270D01*
X5310Y3150D01*
X5270Y3110D01*
X5310D01*
X5350Y3070D01*
X3650Y11120D02*
X3690Y11160D01*
X3730D01*
X3690Y11200D01*
X3730Y11240D01*
X3690D01*
X3650Y11280D01*
X3610Y11240D01*
X3570D01*
X3610Y11200D01*
X3570Y11160D01*
X3610D01*
X3650Y11120D01*
X4500Y10720D02*
X4540Y10760D01*
X4580D01*
X4540Y10800D01*
X4580Y10840D01*
X4540D01*
X4500Y10880D01*
X4460Y10840D01*
X4420D01*
X4460Y10800D01*
X4420Y10760D01*
X4460D01*
X4500Y10720D01*
X6325Y3095D02*
X6365Y3135D01*
X6405D01*
X6365Y3175D01*
X6405Y3215D01*
X6365D01*
X6325Y3255D01*
X6285Y3215D01*
X6245D01*
X6285Y3175D01*
X6245Y3135D01*
X6285D01*
X6325Y3095D01*
D43*
X11080Y2200D02*
G03*
X11080Y2200I-80J0D01*
G01*
X11580D02*
G03*
X11580Y2200I-80J0D01*
G01*
X11130Y9900D02*
G03*
X11130Y9900I-80J0D01*
G01*
X11630D02*
G03*
X11630Y9900I-80J0D01*
G01*
X11080Y5850D02*
G03*
X11080Y5850I-80J0D01*
G01*
X11580D02*
G03*
X11580Y5850I-80J0D01*
G01*
X10880Y14000D02*
G03*
X10880Y14000I-80J0D01*
G01*
X11380D02*
G03*
X11380Y14000I-80J0D01*
G01*
X9030Y4800D02*
G03*
X9030Y4800I-80J0D01*
G01*
X9530D02*
G03*
X9530Y4800I-80J0D01*
G01*
X4880Y4950D02*
G03*
X4880Y4950I-80J0D01*
G01*
X4380D02*
G03*
X4380Y4950I-80J0D01*
G01*
M02*
