G04*
G04 #@! TF.GenerationSoftware,Altium Limited,Altium Designer,23.3.1 (30)*
G04*
G04 Layer_Color=32896*
%FSLAX24Y24*%
%MOIN*%
G70*
G04*
G04 #@! TF.SameCoordinates,FE471356-1482-470A-B847-6992AEFC5CE1*
G04*
G04*
G04 #@! TF.FilePolarity,Positive*
G04*
G01*
G75*
%ADD10C,0.0079*%
%ADD11C,0.0005*%
%ADD12C,0.0050*%
G36*
X17633Y18873D02*
X17833Y18820D01*
X18023Y18741D01*
X18202Y18638D01*
X18366Y18512D01*
X18512Y18366D01*
X18638Y18202D01*
X18741Y18023D01*
X18820Y17833D01*
X18873Y17633D01*
X18900Y17429D01*
Y17325D01*
Y1577D01*
Y1474D01*
X18873Y1269D01*
X18820Y1070D01*
X18741Y879D01*
X18638Y701D01*
X18512Y537D01*
X18366Y391D01*
X18202Y265D01*
X18023Y162D01*
X17833Y83D01*
X17633Y29D01*
X17429Y3D01*
X2613D01*
X2461Y33D01*
X2318Y92D01*
X2189Y178D01*
X2134Y233D01*
X2136Y235D01*
X235Y2136D01*
X235D01*
X183Y2193D01*
X98Y2321D01*
X39Y2463D01*
X9Y2614D01*
X5Y2691D01*
Y16212D01*
X9Y16289D01*
X39Y16440D01*
X98Y16582D01*
X183Y16710D01*
X235Y16767D01*
X2136Y18668D01*
X2134Y18670D01*
X2189Y18724D01*
X2318Y18811D01*
X2461Y18870D01*
X2613Y18900D01*
X2691D01*
Y18900D01*
X17429D01*
X17633Y18873D01*
D02*
G37*
%LPC*%
G36*
X17402Y18507D02*
X17324Y18506D01*
X2692Y18506D01*
X2692Y18506D01*
X2653Y18506D01*
X2577Y18491D01*
X2505Y18461D01*
X2440Y18418D01*
X2412Y18390D01*
X511Y16489D01*
X511Y16489D01*
X484Y16462D01*
X440Y16397D01*
X410Y16325D01*
X395Y16248D01*
Y16209D01*
Y2688D01*
Y2649D01*
X410Y2573D01*
X440Y2500D01*
X484Y2436D01*
X511Y2408D01*
X2412Y507D01*
Y507D01*
X2440Y479D01*
X2505Y436D01*
X2577Y406D01*
X2653Y391D01*
X2692Y391D01*
X17327D01*
X17404Y391D01*
X17558Y411D01*
X17708Y451D01*
X17852Y511D01*
X17986Y588D01*
X18109Y683D01*
X18219Y792D01*
X18313Y916D01*
X18391Y1050D01*
X18450Y1193D01*
X18490Y1343D01*
X18511Y1497D01*
X18511Y1575D01*
X18511Y17323D01*
X18511D01*
X18511Y17323D01*
X18511Y17400D01*
X18490Y17555D01*
X18450Y17705D01*
X18390Y17848D01*
X18313Y17983D01*
X18218Y18106D01*
X18108Y18216D01*
X17984Y18310D01*
X17850Y18388D01*
X17706Y18447D01*
X17556Y18487D01*
X17402Y18507D01*
D02*
G37*
%LPD*%
D10*
X622Y4638D02*
G03*
X622Y4638I-39J0D01*
G01*
D11*
X2134Y233D02*
G03*
X2691Y3I557J557D01*
G01*
X3Y2691D02*
G03*
X233Y2134I787J0D01*
G01*
Y16769D02*
G03*
X3Y16212I557J-557D01*
G01*
X2691Y18900D02*
G03*
X2134Y18670I0J-787D01*
G01*
X18900Y17325D02*
G03*
X17325Y18900I-1575J0D01*
G01*
Y3D02*
G03*
X18900Y1577I0J1575D01*
G01*
X233Y2134D02*
X2134Y233D01*
X3Y2691D02*
Y16212D01*
X233Y16769D02*
X2134Y18670D01*
X2691Y18900D02*
X17325D01*
X18900Y1577D02*
Y17325D01*
X2691Y3D02*
X17325D01*
D12*
X1055Y4304D02*
X2945D01*
X1055Y14496D02*
X2945D01*
X650Y14775D02*
X700D01*
X675D01*
Y14650D01*
X700Y14625D01*
X725D01*
X750Y14650D01*
X600Y14625D02*
X550D01*
X575D01*
Y14775D01*
X600Y14750D01*
M02*
