M48
;Layer_Color=9474304
;FILE_FORMAT=2:4
INCH,LZ
;TYPE=PLATED
T1F00S00C0.0118
T2F00S00C0.0256
T3F00S00C0.0295
T4F00S00C0.0300
%
T01
X0038Y0046
X00375Y00565
X0057Y00675
X006304Y006804
X0074Y00775
Y01165
X008338Y010824
X00625Y01085
X0056Y0109
X0045Y0108
X00365Y0112
X00555Y0149
X00625
X00925Y01315
X01435Y0126
Y0084
Y00435
X00875Y00195
X006325Y003175
X00535Y00315
X0144Y0166
T02
X0043Y00495
X0048
X00895Y0048
X00945
X011Y00585
X0115
Y0022
X011
X01105Y0099
X01155
X0113Y014
X0108
T03
X001Y00465
Y00515
Y00565
Y00615
Y00665
Y00715
Y00765
Y00815
Y00865
Y00915
Y00965
Y01015
Y01065
Y01115
Y01165
Y01215
Y01265
Y01315
Y01365
Y01415
X003
Y01365
Y01315
Y01265
Y01215
Y01165
Y01115
Y01065
Y01015
Y00965
Y00915
Y00865
Y00815
Y00765
Y00715
Y00665
Y00615
Y00565
Y00515
Y00465
T04
X0025Y0037
X0038Y00675
X0039Y0082
X0086Y0029
M30
