M48
;Layer_Color=9474304
;FILE_FORMAT=2:4
INCH,LZ
;TYPE=PLATED
T1F00S00C0.0118
T2F00S00C0.0256
T3F00S00C0.0276
T4F00S00C0.0280
T5F00S00C0.0433
%
T01
X003319Y003819
X0032Y0042
X00365Y00365
X00395Y003466
X00425Y0049
X004429Y013722
X00765Y01405
X012257Y01345
X01225Y01315
X0126Y01255
X0133Y01175
X0143Y014
X01285Y00745
X0126Y0066
X0123Y00665
X01155Y0076
X0115Y00825
X013364Y005875
X01365Y0058
X0162
X016495
X0183Y0064
X019581Y008423
X01785Y0096
X017785Y010413
X017434Y010316
X0179Y01085
X018071Y011974
X0182Y01225
X01845Y01245
X017966Y01285
X0176Y0119
X0173Y01195
X01575Y0118
X01613Y013877
X01644Y01385
X016647Y013602
X0169Y01345
X019481Y013095
X02135Y0136
X0221Y01335
X022159Y012396
X02215Y01205
Y0117
X02255Y01255
X023131Y010645
Y010195
X0235Y0087
X024015Y008178
X025515Y010078
X0255Y0114
X02685Y00955
X02835Y0084
X028786Y004064
X0294Y00445
X030894Y005226
X02755Y00295
Y0014
X02255Y00465
X0222Y0051
X02105Y0103
X03255Y0149
X02705Y015748
X02565Y01675
X023117Y016509
Y016059
X0081Y01625
T02
X0289Y01445
X0294
X0299
T03
X0047Y00495
Y00545
Y00595
Y00645
Y00695
Y00745
Y00795
Y00845
Y00895
Y00945
Y00995
Y01045
Y01095
Y01145
Y01195
Y01245
Y01295
Y01345
Y01395
Y01445
X0052
Y01395
Y01345
Y01295
Y01245
Y01195
Y01145
Y01095
Y01045
Y00995
Y00945
Y00895
Y00845
Y00795
Y00745
Y00695
Y00645
Y00595
Y00545
Y00495
T04
X02695Y01175
T05
X00265Y0019
Y0029
Y0039
Y0049
Y0059
Y0069
Y0079
Y0089
Y0102
Y0112
Y0122
Y0132
Y0142
Y0152
X0314Y0132
Y0122
Y0108
Y0098
Y00835
Y00735
Y00635
X00265Y0162
Y0172
M30
