G04*
G04 #@! TF.GenerationSoftware,Altium Limited,Altium Designer,23.3.1 (30)*
G04*
G04 Layer_Color=8388736*
%FSLAX24Y24*%
%MOIN*%
G70*
G04*
G04 #@! TF.SameCoordinates,0EE62ADF-7674-4DCD-90CA-8C9100EC0EC2*
G04*
G04*
G04 #@! TF.FilePolarity,Negative*
G04*
G01*
G75*
%ADD38R,0.0539X0.0488*%
%ADD39R,0.0488X0.0539*%
%ADD40R,0.0620X0.0157*%
%ADD41R,0.0157X0.0620*%
%ADD42R,0.0669X0.1299*%
%ADD43R,0.0394X0.0591*%
%ADD44R,0.0728X0.1083*%
%ADD45R,0.0630X0.0874*%
%ADD46R,0.1047X0.1398*%
%ADD47R,0.0640X0.0315*%
%ADD48R,0.0512X0.0618*%
%ADD49R,0.0571X0.0512*%
%ADD50R,0.1083X0.0331*%
G04:AMPARAMS|DCode=51|XSize=81.5mil|YSize=27.6mil|CornerRadius=4.9mil|HoleSize=0mil|Usage=FLASHONLY|Rotation=0.000|XOffset=0mil|YOffset=0mil|HoleType=Round|Shape=RoundedRectangle|*
%AMROUNDEDRECTD51*
21,1,0.0815,0.0177,0,0,0.0*
21,1,0.0717,0.0276,0,0,0.0*
1,1,0.0098,0.0358,-0.0089*
1,1,0.0098,-0.0358,-0.0089*
1,1,0.0098,-0.0358,0.0089*
1,1,0.0098,0.0358,0.0089*
%
%ADD51ROUNDEDRECTD51*%
%ADD52R,0.0689X0.1299*%
%ADD53R,0.0689X0.0413*%
%ADD54R,0.0335X0.0315*%
%ADD55R,0.1417X0.0965*%
%ADD56C,0.0689*%
%ADD57R,0.0689X0.0689*%
%ADD58C,0.0453*%
%ADD59R,0.0453X0.0453*%
%ADD60R,0.0453X0.0453*%
%ADD61C,0.0472*%
D38*
X13650Y14000D02*
D03*
Y13200D02*
D03*
X19800Y12450D02*
D03*
Y11650D02*
D03*
X19150Y12449D02*
D03*
Y11650D02*
D03*
X22200Y16700D02*
D03*
Y17500D02*
D03*
X17550Y14000D02*
D03*
Y13200D02*
D03*
X12950D02*
D03*
Y14000D02*
D03*
X26300Y16849D02*
D03*
Y16050D02*
D03*
X10950Y7200D02*
D03*
Y6400D02*
D03*
X11650Y5950D02*
D03*
Y6750D02*
D03*
X21400Y16700D02*
D03*
Y17500D02*
D03*
D39*
X20100Y10950D02*
D03*
X19300D02*
D03*
X19999Y8450D02*
D03*
X19200D02*
D03*
X23350Y13000D02*
D03*
X22550D02*
D03*
X19200Y7150D02*
D03*
X20000D02*
D03*
X28550Y11000D02*
D03*
X27750D02*
D03*
X23050Y4700D02*
D03*
X23850D02*
D03*
X19200Y6500D02*
D03*
X20000D02*
D03*
X23050Y4050D02*
D03*
X23850D02*
D03*
X19900Y10200D02*
D03*
X19100D02*
D03*
X28550Y10350D02*
D03*
X27750D02*
D03*
X21650Y13050D02*
D03*
X20850D02*
D03*
X21650Y11750D02*
D03*
X20850D02*
D03*
X18100Y5750D02*
D03*
X18900D02*
D03*
X28150Y1800D02*
D03*
X28950D02*
D03*
X28950Y1150D02*
D03*
X28150D02*
D03*
X24550Y3100D02*
D03*
X25350D02*
D03*
X21400Y9550D02*
D03*
X20600D02*
D03*
X28150Y3550D02*
D03*
X28950D02*
D03*
X22200Y16000D02*
D03*
X21400D02*
D03*
X28950Y2950D02*
D03*
X28150D02*
D03*
X29950Y4450D02*
D03*
X30750D02*
D03*
X21400Y8950D02*
D03*
X20600D02*
D03*
X21600Y4050D02*
D03*
X22400D02*
D03*
X19200Y7800D02*
D03*
X20000D02*
D03*
X25500Y9550D02*
D03*
X26300D02*
D03*
X24550Y2400D02*
D03*
X25350D02*
D03*
X26300Y8200D02*
D03*
X25501D02*
D03*
X21650Y12400D02*
D03*
X20850D02*
D03*
X23850Y10050D02*
D03*
X24650D02*
D03*
X23850Y10750D02*
D03*
X24650D02*
D03*
X26300Y8850D02*
D03*
X25500D02*
D03*
D40*
X18400Y7053D02*
D03*
Y7250D02*
D03*
Y7447D02*
D03*
Y7644D02*
D03*
Y7841D02*
D03*
Y8037D02*
D03*
Y8234D02*
D03*
Y8431D02*
D03*
Y8628D02*
D03*
Y8825D02*
D03*
Y9022D02*
D03*
Y9219D02*
D03*
Y9415D02*
D03*
Y9612D02*
D03*
Y9809D02*
D03*
Y10006D02*
D03*
Y10203D02*
D03*
Y10400D02*
D03*
Y10596D02*
D03*
Y10793D02*
D03*
Y10990D02*
D03*
Y11187D02*
D03*
Y11384D02*
D03*
Y11581D02*
D03*
Y11778D02*
D03*
X12307D02*
D03*
Y11581D02*
D03*
Y11384D02*
D03*
Y11187D02*
D03*
Y10990D02*
D03*
Y10793D02*
D03*
Y10596D02*
D03*
Y10400D02*
D03*
Y10203D02*
D03*
Y10006D02*
D03*
Y9809D02*
D03*
Y9612D02*
D03*
Y9415D02*
D03*
Y9219D02*
D03*
Y9022D02*
D03*
Y8825D02*
D03*
Y8628D02*
D03*
Y8431D02*
D03*
Y8234D02*
D03*
Y8037D02*
D03*
Y7841D02*
D03*
Y7644D02*
D03*
Y7447D02*
D03*
Y7250D02*
D03*
Y7053D02*
D03*
D41*
X17716Y12462D02*
D03*
X17519D02*
D03*
X17322D02*
D03*
X17125D02*
D03*
X16928D02*
D03*
X16731D02*
D03*
X16535D02*
D03*
X16338D02*
D03*
X16141D02*
D03*
X15944D02*
D03*
X15747D02*
D03*
X15550D02*
D03*
X15354D02*
D03*
X15157D02*
D03*
X14960D02*
D03*
X14763D02*
D03*
X14566D02*
D03*
X14369D02*
D03*
X14172D02*
D03*
X13976D02*
D03*
X13779D02*
D03*
X13582D02*
D03*
X13385D02*
D03*
X13188D02*
D03*
X12991D02*
D03*
Y6369D02*
D03*
X13188D02*
D03*
X13385D02*
D03*
X13582D02*
D03*
X13779D02*
D03*
X13976D02*
D03*
X14172D02*
D03*
X14369D02*
D03*
X14566D02*
D03*
X14763D02*
D03*
X14960D02*
D03*
X15157D02*
D03*
X15354D02*
D03*
X15550D02*
D03*
X15747D02*
D03*
X15944D02*
D03*
X16141D02*
D03*
X16338D02*
D03*
X16535D02*
D03*
X16731D02*
D03*
X16928D02*
D03*
X17125D02*
D03*
X17322D02*
D03*
X17519D02*
D03*
X17716D02*
D03*
D42*
X28350Y18134D02*
D03*
Y16166D02*
D03*
D43*
X29620Y1600D02*
D03*
X32180D02*
D03*
X29620Y3250D02*
D03*
X32180D02*
D03*
D44*
X29450Y11554D02*
D03*
Y13246D02*
D03*
X24300Y13804D02*
D03*
Y15496D02*
D03*
D45*
X29450Y8117D02*
D03*
Y9783D02*
D03*
Y7000D02*
D03*
Y5335D02*
D03*
D46*
X21950Y14600D02*
D03*
D47*
X23018Y15350D02*
D03*
Y14850D02*
D03*
Y14350D02*
D03*
Y13850D02*
D03*
X20882D02*
D03*
Y14350D02*
D03*
Y14850D02*
D03*
Y15350D02*
D03*
D48*
X23789Y5400D02*
D03*
X23111D02*
D03*
X25289Y3850D02*
D03*
X24611D02*
D03*
X25327Y1600D02*
D03*
X24650D02*
D03*
X27811Y11750D02*
D03*
X28489D02*
D03*
D49*
X31487Y4450D02*
D03*
X32413D02*
D03*
Y5200D02*
D03*
X31487D02*
D03*
D50*
X30483Y17400D02*
D03*
X32117D02*
D03*
X30483Y16900D02*
D03*
X32117D02*
D03*
X30483Y16400D02*
D03*
X32117D02*
D03*
X30483Y15900D02*
D03*
X32117D02*
D03*
Y15400D02*
D03*
X30483D02*
D03*
D51*
X23722Y3350D02*
D03*
Y2850D02*
D03*
Y2350D02*
D03*
Y1850D02*
D03*
X21778D02*
D03*
Y2350D02*
D03*
Y2850D02*
D03*
Y3350D02*
D03*
D52*
X22140Y8200D02*
D03*
D53*
X24660Y9106D02*
D03*
Y8200D02*
D03*
Y7294D02*
D03*
D54*
X19184Y9547D02*
D03*
X19716D02*
D03*
Y9153D02*
D03*
X19184D02*
D03*
D55*
X26500Y15041D02*
D03*
Y12659D02*
D03*
D56*
X2650Y1900D02*
D03*
Y2900D02*
D03*
Y3900D02*
D03*
Y4900D02*
D03*
Y5900D02*
D03*
Y6900D02*
D03*
Y7900D02*
D03*
Y16200D02*
D03*
Y15200D02*
D03*
Y14200D02*
D03*
Y13200D02*
D03*
Y12200D02*
D03*
Y11200D02*
D03*
Y10200D02*
D03*
X31400Y13200D02*
D03*
Y10800D02*
D03*
Y8350D02*
D03*
Y7350D02*
D03*
D57*
X2650Y8900D02*
D03*
Y17200D02*
D03*
X31400Y12200D02*
D03*
Y9800D02*
D03*
Y6350D02*
D03*
D58*
X4700Y14450D02*
D03*
X5200D02*
D03*
X4700Y13950D02*
D03*
X5200D02*
D03*
X4700Y13450D02*
D03*
X5200D02*
D03*
X4700Y12950D02*
D03*
X5200D02*
D03*
X4700Y12450D02*
D03*
X5200D02*
D03*
X4700Y11950D02*
D03*
X5200D02*
D03*
X4700Y11450D02*
D03*
X5200D02*
D03*
X4700Y10950D02*
D03*
X5200D02*
D03*
X4700Y10450D02*
D03*
X5200D02*
D03*
X4700Y9950D02*
D03*
X5200D02*
D03*
X4700Y9450D02*
D03*
X5200D02*
D03*
X4700Y8950D02*
D03*
X5200D02*
D03*
X4700Y8450D02*
D03*
X5200D02*
D03*
X4700Y7950D02*
D03*
X5200D02*
D03*
X4700Y7450D02*
D03*
X5200D02*
D03*
X4700Y6950D02*
D03*
X5200D02*
D03*
X4700Y6450D02*
D03*
X5200D02*
D03*
X4700Y5950D02*
D03*
X5200D02*
D03*
X4700Y5450D02*
D03*
X5200D02*
D03*
X4700Y4950D02*
D03*
X29900Y14450D02*
D03*
X29400D02*
D03*
D59*
X5200Y4950D02*
D03*
D60*
X28900Y14450D02*
D03*
D61*
X32400Y13200D02*
D03*
Y12200D02*
D03*
Y10800D02*
D03*
Y9800D02*
D03*
Y8350D02*
D03*
Y7350D02*
D03*
Y6350D02*
D03*
M02*
