G04*
G04 #@! TF.GenerationSoftware,Altium Limited,Altium Designer,23.3.1 (30)*
G04*
G04 Layer_Color=2752767*
%FSLAX24Y24*%
%MOIN*%
G70*
G04*
G04 #@! TF.SameCoordinates,0EE62ADF-7674-4DCD-90CA-8C9100EC0EC2*
G04*
G04*
G04 #@! TF.FilePolarity,Positive*
G04*
G01*
G75*
%ADD74C,0.0020*%
%ADD75C,0.0027*%
D74*
X2570Y1820D02*
Y1980D01*
X2730D01*
Y1820D01*
X2570D01*
Y2820D02*
Y2980D01*
X2730D01*
Y2820D01*
X2570D01*
Y3820D02*
Y3980D01*
X2730D01*
Y3820D01*
X2570D01*
Y4820D02*
Y4980D01*
X2730D01*
Y4820D01*
X2570D01*
Y5820D02*
Y5980D01*
X2730D01*
Y5820D01*
X2570D01*
Y6820D02*
Y6980D01*
X2730D01*
Y6820D01*
X2570D01*
Y7820D02*
Y7980D01*
X2730D01*
Y7820D01*
X2570D01*
Y8820D02*
Y8980D01*
X2730D01*
Y8820D01*
X2570D01*
X4700Y14370D02*
X4620Y14530D01*
X4780D01*
X4700Y14370D01*
X5200D02*
X5120Y14530D01*
X5280D01*
X5200Y14370D01*
X4700Y13870D02*
X4620Y14030D01*
X4780D01*
X4700Y13870D01*
X5200D02*
X5120Y14030D01*
X5280D01*
X5200Y13870D01*
X4700Y13370D02*
X4620Y13530D01*
X4780D01*
X4700Y13370D01*
X5200D02*
X5120Y13530D01*
X5280D01*
X5200Y13370D01*
X4700Y12870D02*
X4620Y13030D01*
X4780D01*
X4700Y12870D01*
X5200D02*
X5120Y13030D01*
X5280D01*
X5200Y12870D01*
X4700Y12370D02*
X4620Y12530D01*
X4780D01*
X4700Y12370D01*
X5200D02*
X5120Y12530D01*
X5280D01*
X5200Y12370D01*
X4700Y11870D02*
X4620Y12030D01*
X4780D01*
X4700Y11870D01*
X5200D02*
X5120Y12030D01*
X5280D01*
X5200Y11870D01*
X4700Y11370D02*
X4620Y11530D01*
X4780D01*
X4700Y11370D01*
X5200D02*
X5120Y11530D01*
X5280D01*
X5200Y11370D01*
X4700Y10870D02*
X4620Y11030D01*
X4780D01*
X4700Y10870D01*
X5200D02*
X5120Y11030D01*
X5280D01*
X5200Y10870D01*
X4700Y10370D02*
X4620Y10530D01*
X4780D01*
X4700Y10370D01*
X5200D02*
X5120Y10530D01*
X5280D01*
X5200Y10370D01*
X4700Y9870D02*
X4620Y10030D01*
X4780D01*
X4700Y9870D01*
X5200D02*
X5120Y10030D01*
X5280D01*
X5200Y9870D01*
X4700Y9370D02*
X4620Y9530D01*
X4780D01*
X4700Y9370D01*
X5200D02*
X5120Y9530D01*
X5280D01*
X5200Y9370D01*
X4700Y8870D02*
X4620Y9030D01*
X4780D01*
X4700Y8870D01*
X5200D02*
X5120Y9030D01*
X5280D01*
X5200Y8870D01*
X4700Y8370D02*
X4620Y8530D01*
X4780D01*
X4700Y8370D01*
X5200D02*
X5120Y8530D01*
X5280D01*
X5200Y8370D01*
X4700Y7870D02*
X4620Y8030D01*
X4780D01*
X4700Y7870D01*
X5200D02*
X5120Y8030D01*
X5280D01*
X5200Y7870D01*
X4700Y7370D02*
X4620Y7530D01*
X4780D01*
X4700Y7370D01*
X5200D02*
X5120Y7530D01*
X5280D01*
X5200Y7370D01*
X4700Y6870D02*
X4620Y7030D01*
X4780D01*
X4700Y6870D01*
X5200D02*
X5120Y7030D01*
X5280D01*
X5200Y6870D01*
X4700Y6370D02*
X4620Y6530D01*
X4780D01*
X4700Y6370D01*
X5200D02*
X5120Y6530D01*
X5280D01*
X5200Y6370D01*
X4700Y5870D02*
X4620Y6030D01*
X4780D01*
X4700Y5870D01*
X5200D02*
X5120Y6030D01*
X5280D01*
X5200Y5870D01*
X4700Y5370D02*
X4620Y5530D01*
X4780D01*
X4700Y5370D01*
X5200D02*
X5120Y5530D01*
X5280D01*
X5200Y5370D01*
X4700Y4870D02*
X4620Y5030D01*
X4780D01*
X4700Y4870D01*
X5200D02*
X5120Y5030D01*
X5280D01*
X5200Y4870D01*
X2570Y17120D02*
Y17280D01*
X2730D01*
Y17120D01*
X2570D01*
Y16120D02*
Y16280D01*
X2730D01*
Y16120D01*
X2570D01*
Y15120D02*
Y15280D01*
X2730D01*
Y15120D01*
X2570D01*
Y14120D02*
Y14280D01*
X2730D01*
Y14120D01*
X2570D01*
Y13120D02*
Y13280D01*
X2730D01*
Y13120D01*
X2570D01*
Y12120D02*
Y12280D01*
X2730D01*
Y12120D01*
X2570D01*
Y11120D02*
Y11280D01*
X2730D01*
Y11120D01*
X2570D01*
Y10120D02*
Y10280D01*
X2730D01*
Y10120D01*
X2570D01*
X29860Y14410D02*
Y14370D01*
X29940D01*
Y14410D01*
X29980D01*
Y14490D01*
X29940D01*
Y14530D01*
X29860D01*
Y14490D01*
X29820D01*
Y14410D01*
X29860D01*
X29360D02*
Y14370D01*
X29440D01*
Y14410D01*
X29480D01*
Y14490D01*
X29440D01*
Y14530D01*
X29360D01*
Y14490D01*
X29320D01*
Y14410D01*
X29360D01*
X28860D02*
Y14370D01*
X28940D01*
Y14410D01*
X28980D01*
Y14490D01*
X28940D01*
Y14530D01*
X28860D01*
Y14490D01*
X28820D01*
Y14410D01*
X28860D01*
X31320Y13120D02*
Y13280D01*
X31480D01*
Y13120D01*
X31320D01*
Y12120D02*
Y12280D01*
X31480D01*
Y12120D01*
X31320D01*
Y10720D02*
Y10880D01*
X31480D01*
Y10720D01*
X31320D01*
Y9720D02*
Y9880D01*
X31480D01*
Y9720D01*
X31320D01*
Y8270D02*
Y8430D01*
X31480D01*
Y8270D01*
X31320D01*
Y7270D02*
Y7430D01*
X31480D01*
Y7270D01*
X31320D01*
Y6270D02*
Y6430D01*
X31480D01*
Y6270D01*
X31320D01*
X12177Y13370D02*
X12217Y13450D01*
X12177Y13530D01*
X12257Y13490D01*
X12337Y13530D01*
X12297Y13450D01*
X12337Y13370D01*
X12257Y13410D01*
X12177Y13370D01*
X25420Y11320D02*
X25460Y11400D01*
X25420Y11480D01*
X25500Y11440D01*
X25580Y11480D01*
X25540Y11400D01*
X25580Y11320D01*
X25500Y11360D01*
X25420Y11320D01*
X17520Y11820D02*
X17560Y11900D01*
X17520Y11980D01*
X17600Y11940D01*
X17680Y11980D01*
X17640Y11900D01*
X17680Y11820D01*
X17600Y11860D01*
X17520Y11820D01*
X23051Y10115D02*
X23091Y10195D01*
X23051Y10275D01*
X23131Y10235D01*
X23211Y10275D01*
X23171Y10195D01*
X23211Y10115D01*
X23131Y10155D01*
X23051Y10115D01*
Y10565D02*
X23091Y10645D01*
X23051Y10725D01*
X23131Y10685D01*
X23211Y10725D01*
X23171Y10645D01*
X23211Y10565D01*
X23131Y10605D01*
X23051Y10565D01*
X19401Y13015D02*
X19441Y13095D01*
X19401Y13175D01*
X19481Y13135D01*
X19561Y13175D01*
X19521Y13095D01*
X19561Y13015D01*
X19481Y13055D01*
X19401Y13015D01*
X14220Y13920D02*
X14260Y14000D01*
X14220Y14080D01*
X14300Y14040D01*
X14380Y14080D01*
X14340Y14000D01*
X14380Y13920D01*
X14300Y13960D01*
X14220Y13920D01*
X17820Y10770D02*
X17860Y10850D01*
X17820Y10930D01*
X17900Y10890D01*
X17980Y10930D01*
X17940Y10850D01*
X17980Y10770D01*
X17900Y10810D01*
X17820Y10770D01*
X20970Y10220D02*
X21010Y10300D01*
X20970Y10380D01*
X21050Y10340D01*
X21130Y10380D01*
X21090Y10300D01*
X21130Y10220D01*
X21050Y10260D01*
X20970Y10220D01*
X17991Y11894D02*
X18031Y11974D01*
X17991Y12054D01*
X18071Y12014D01*
X18151Y12054D01*
X18111Y11974D01*
X18151Y11894D01*
X18071Y11934D01*
X17991Y11894D01*
X18120Y12170D02*
X18160Y12250D01*
X18120Y12330D01*
X18200Y12290D01*
X18280Y12330D01*
X18240Y12250D01*
X18280Y12170D01*
X18200Y12210D01*
X18120Y12170D01*
X16360Y13770D02*
X16400Y13850D01*
X16360Y13930D01*
X16440Y13890D01*
X16520Y13930D01*
X16480Y13850D01*
X16520Y13770D01*
X16440Y13810D01*
X16360Y13770D01*
X17886Y12770D02*
X17926Y12850D01*
X17886Y12930D01*
X17966Y12890D01*
X18046Y12930D01*
X18006Y12850D01*
X18046Y12770D01*
X17966Y12810D01*
X17886Y12770D01*
X16050Y13797D02*
X16090Y13877D01*
X16050Y13957D01*
X16130Y13917D01*
X16210Y13957D01*
X16170Y13877D01*
X16210Y13797D01*
X16130Y13837D01*
X16050Y13797D01*
X18370Y12370D02*
X18410Y12450D01*
X18370Y12530D01*
X18450Y12490D01*
X18530Y12530D01*
X18490Y12450D01*
X18530Y12370D01*
X18450Y12410D01*
X18370Y12370D01*
X19501Y8343D02*
X19541Y8423D01*
X19501Y8503D01*
X19581Y8463D01*
X19661Y8503D01*
X19621Y8423D01*
X19661Y8343D01*
X19581Y8383D01*
X19501Y8343D01*
X4349Y13642D02*
X4389Y13722D01*
X4349Y13802D01*
X4429Y13762D01*
X4509Y13802D01*
X4469Y13722D01*
X4509Y13642D01*
X4429Y13682D01*
X4349Y13642D01*
X4170Y4820D02*
X4210Y4900D01*
X4170Y4980D01*
X4250Y4940D01*
X4330Y4980D01*
X4290Y4900D01*
X4330Y4820D01*
X4250Y4860D01*
X4170Y4820D01*
X3239Y3739D02*
X3279Y3819D01*
X3239Y3899D01*
X3319Y3859D01*
X3399Y3899D01*
X3359Y3819D01*
X3399Y3739D01*
X3319Y3779D01*
X3239Y3739D01*
X3870Y3386D02*
X3910Y3466D01*
X3870Y3546D01*
X3950Y3506D01*
X4030Y3546D01*
X3990Y3466D01*
X4030Y3386D01*
X3950Y3426D01*
X3870Y3386D01*
X3120Y4120D02*
X3160Y4200D01*
X3120Y4280D01*
X3200Y4240D01*
X3280Y4280D01*
X3240Y4200D01*
X3280Y4120D01*
X3200Y4160D01*
X3120Y4120D01*
X3570Y3570D02*
X3610Y3650D01*
X3570Y3730D01*
X3650Y3690D01*
X3730Y3730D01*
X3690Y3650D01*
X3730Y3570D01*
X3650Y3610D01*
X3570Y3570D01*
X7570Y13970D02*
X7610Y14050D01*
X7570Y14130D01*
X7650Y14090D01*
X7730Y14130D01*
X7690Y14050D01*
X7730Y13970D01*
X7650Y14010D01*
X7570Y13970D01*
X8020Y16170D02*
X8060Y16250D01*
X8020Y16330D01*
X8100Y16290D01*
X8180Y16330D01*
X8140Y16250D01*
X8180Y16170D01*
X8100Y16210D01*
X8020Y16170D01*
X12170Y13070D02*
X12210Y13150D01*
X12170Y13230D01*
X12250Y13190D01*
X12330Y13230D01*
X12290Y13150D01*
X12330Y13070D01*
X12250Y13110D01*
X12170Y13070D01*
X16820Y13370D02*
X16860Y13450D01*
X16820Y13530D01*
X16900Y13490D01*
X16980Y13530D01*
X16940Y13450D01*
X16980Y13370D01*
X16900Y13410D01*
X16820Y13370D01*
X16567Y13522D02*
X16607Y13602D01*
X16567Y13682D01*
X16647Y13642D01*
X16727Y13682D01*
X16687Y13602D01*
X16727Y13522D01*
X16647Y13562D01*
X16567Y13522D01*
X17354Y10236D02*
X17394Y10316D01*
X17354Y10396D01*
X17434Y10356D01*
X17514Y10396D01*
X17474Y10316D01*
X17514Y10236D01*
X17434Y10276D01*
X17354Y10236D01*
X17705Y10333D02*
X17745Y10413D01*
X17705Y10493D01*
X17785Y10453D01*
X17865Y10493D01*
X17825Y10413D01*
X17865Y10333D01*
X17785Y10373D01*
X17705Y10333D01*
X17770Y9520D02*
X17810Y9600D01*
X17770Y9680D01*
X17850Y9640D01*
X17930Y9680D01*
X17890Y9600D01*
X17930Y9520D01*
X17850Y9560D01*
X17770Y9520D01*
X13284Y5795D02*
X13324Y5875D01*
X13284Y5955D01*
X13364Y5915D01*
X13444Y5955D01*
X13404Y5875D01*
X13444Y5795D01*
X13364Y5835D01*
X13284Y5795D01*
X13570Y5720D02*
X13610Y5800D01*
X13570Y5880D01*
X13650Y5840D01*
X13730Y5880D01*
X13690Y5800D01*
X13730Y5720D01*
X13650Y5760D01*
X13570Y5720D01*
X16120D02*
X16160Y5800D01*
X16120Y5880D01*
X16200Y5840D01*
X16280Y5880D01*
X16240Y5800D01*
X16280Y5720D01*
X16200Y5760D01*
X16120Y5720D01*
X16415D02*
X16455Y5800D01*
X16415Y5880D01*
X16495Y5840D01*
X16575Y5880D01*
X16535Y5800D01*
X16575Y5720D01*
X16495Y5760D01*
X16415Y5720D01*
X23037Y15979D02*
X23077Y16059D01*
X23037Y16139D01*
X23117Y16099D01*
X23197Y16139D01*
X23157Y16059D01*
X23197Y15979D01*
X23117Y16019D01*
X23037Y15979D01*
X26970Y15668D02*
X27010Y15748D01*
X26970Y15828D01*
X27050Y15788D01*
X27130Y15828D01*
X27090Y15748D01*
X27130Y15668D01*
X27050Y15708D01*
X26970Y15668D01*
X32470Y14820D02*
X32510Y14900D01*
X32470Y14980D01*
X32550Y14940D01*
X32630Y14980D01*
X32590Y14900D01*
X32630Y14820D01*
X32550Y14860D01*
X32470Y14820D01*
X27470Y1320D02*
X27510Y1400D01*
X27470Y1480D01*
X27550Y1440D01*
X27630Y1480D01*
X27590Y1400D01*
X27630Y1320D01*
X27550Y1360D01*
X27470Y1320D01*
X12220Y6570D02*
X12260Y6650D01*
X12220Y6730D01*
X12300Y6690D01*
X12380Y6730D01*
X12340Y6650D01*
X12380Y6570D01*
X12300Y6610D01*
X12220Y6570D01*
X23420Y8620D02*
X23460Y8700D01*
X23420Y8780D01*
X23500Y8740D01*
X23580Y8780D01*
X23540Y8700D01*
X23580Y8620D01*
X23500Y8660D01*
X23420Y8620D01*
X12770Y7370D02*
X12810Y7450D01*
X12770Y7530D01*
X12850Y7490D01*
X12930Y7530D01*
X12890Y7450D01*
X12930Y7370D01*
X12850Y7410D01*
X12770Y7370D01*
X12520Y6520D02*
X12560Y6600D01*
X12520Y6680D01*
X12600Y6640D01*
X12680Y6680D01*
X12640Y6600D01*
X12680Y6520D01*
X12600Y6560D01*
X12520Y6520D01*
X30814Y5146D02*
X30854Y5226D01*
X30814Y5306D01*
X30894Y5266D01*
X30974Y5306D01*
X30934Y5226D01*
X30974Y5146D01*
X30894Y5186D01*
X30814Y5146D01*
X28706Y3984D02*
X28746Y4064D01*
X28706Y4144D01*
X28786Y4104D01*
X28866Y4144D01*
X28826Y4064D01*
X28866Y3984D01*
X28786Y4024D01*
X28706Y3984D01*
X29320Y4370D02*
X29360Y4450D01*
X29320Y4530D01*
X29400Y4490D01*
X29480Y4530D01*
X29440Y4450D01*
X29480Y4370D01*
X29400Y4410D01*
X29320Y4370D01*
X26950Y11670D02*
X26990Y11710D01*
X27030D01*
X26990Y11750D01*
X27030Y11790D01*
X26990D01*
X26950Y11830D01*
X26910Y11790D01*
X26870D01*
X26910Y11750D01*
X26870Y11710D01*
X26910D01*
X26950Y11670D01*
X23935Y8098D02*
X23975Y8178D01*
X23935Y8258D01*
X24015Y8218D01*
X24095Y8258D01*
X24055Y8178D01*
X24095Y8098D01*
X24015Y8138D01*
X23935Y8098D01*
X25570Y16670D02*
X25610Y16750D01*
X25570Y16830D01*
X25650Y16790D01*
X25730Y16830D01*
X25690Y16750D01*
X25730Y16670D01*
X25650Y16710D01*
X25570Y16670D01*
X12520Y12470D02*
X12560Y12550D01*
X12520Y12630D01*
X12600Y12590D01*
X12680Y12630D01*
X12640Y12550D01*
X12680Y12470D01*
X12600Y12510D01*
X12520Y12470D01*
X17220Y11870D02*
X17260Y11950D01*
X17220Y12030D01*
X17300Y11990D01*
X17380Y12030D01*
X17340Y11950D01*
X17380Y11870D01*
X17300Y11910D01*
X17220Y11870D01*
X18220Y6320D02*
X18260Y6400D01*
X18220Y6480D01*
X18300Y6440D01*
X18380Y6480D01*
X18340Y6400D01*
X18380Y6320D01*
X18300Y6360D01*
X18220Y6320D01*
X13220Y11670D02*
X13260Y11750D01*
X13220Y11830D01*
X13300Y11790D01*
X13380Y11830D01*
X13340Y11750D01*
X13380Y11670D01*
X13300Y11710D01*
X13220Y11670D01*
X11470Y7520D02*
X11510Y7600D01*
X11470Y7680D01*
X11550Y7640D01*
X11630Y7680D01*
X11590Y7600D01*
X11630Y7520D01*
X11550Y7560D01*
X11470Y7520D01*
X11420Y8170D02*
X11460Y8250D01*
X11420Y8330D01*
X11500Y8290D01*
X11580Y8330D01*
X11540Y8250D01*
X11580Y8170D01*
X11500Y8210D01*
X11420Y8170D01*
X28270Y8320D02*
X28310Y8400D01*
X28270Y8480D01*
X28350Y8440D01*
X28430Y8480D01*
X28390Y8400D01*
X28430Y8320D01*
X28350Y8360D01*
X28270Y8320D01*
X15670Y11720D02*
X15710Y11800D01*
X15670Y11880D01*
X15750Y11840D01*
X15830Y11880D01*
X15790Y11800D01*
X15830Y11720D01*
X15750Y11760D01*
X15670Y11720D01*
X27470Y2870D02*
X27510Y2950D01*
X27470Y3030D01*
X27550Y2990D01*
X27630Y3030D01*
X27590Y2950D01*
X27630Y2870D01*
X27550Y2910D01*
X27470Y2870D01*
X22120Y5020D02*
X22160Y5100D01*
X22120Y5180D01*
X22200Y5140D01*
X22280Y5180D01*
X22240Y5100D01*
X22280Y5020D01*
X22200Y5060D01*
X22120Y5020D01*
X22470Y4570D02*
X22510Y4650D01*
X22470Y4730D01*
X22550Y4690D01*
X22630Y4730D01*
X22590Y4650D01*
X22630Y4570D01*
X22550Y4610D01*
X22470Y4570D01*
X25435Y9998D02*
X25475Y10078D01*
X25435Y10158D01*
X25515Y10118D01*
X25595Y10158D01*
X25555Y10078D01*
X25595Y9998D01*
X25515Y10038D01*
X25435Y9998D01*
X26770Y9470D02*
X26810Y9550D01*
X26770Y9630D01*
X26850Y9590D01*
X26930Y9630D01*
X26890Y9550D01*
X26930Y9470D01*
X26850Y9510D01*
X26770Y9470D01*
X22020Y13270D02*
X22060Y13350D01*
X22020Y13430D01*
X22100Y13390D01*
X22180Y13430D01*
X22140Y13350D01*
X22180Y13270D01*
X22100Y13310D01*
X22020Y13270D01*
X23037Y16429D02*
X23077Y16509D01*
X23037Y16589D01*
X23117Y16549D01*
X23197Y16589D01*
X23157Y16509D01*
X23197Y16429D01*
X23117Y16469D01*
X23037Y16429D01*
X22070Y11970D02*
X22110Y12050D01*
X22070Y12130D01*
X22150Y12090D01*
X22230Y12130D01*
X22190Y12050D01*
X22230Y11970D01*
X22150Y12010D01*
X22070Y11970D01*
X22079Y12316D02*
X22119Y12396D01*
X22079Y12476D01*
X22159Y12436D01*
X22239Y12476D01*
X22199Y12396D01*
X22239Y12316D01*
X22159Y12356D01*
X22079Y12316D01*
X22070Y11620D02*
X22110Y11700D01*
X22070Y11780D01*
X22150Y11740D01*
X22230Y11780D01*
X22190Y11700D01*
X22230Y11620D01*
X22150Y11660D01*
X22070Y11620D01*
X21270Y13520D02*
X21310Y13600D01*
X21270Y13680D01*
X21350Y13640D01*
X21430Y13680D01*
X21390Y13600D01*
X21430Y13520D01*
X21350Y13560D01*
X21270Y13520D01*
X22470Y12470D02*
X22510Y12550D01*
X22470Y12630D01*
X22550Y12590D01*
X22630Y12630D01*
X22590Y12550D01*
X22630Y12470D01*
X22550Y12510D01*
X22470Y12470D01*
D75*
X32480Y13200D02*
G03*
X32480Y13200I-80J0D01*
G01*
Y12200D02*
G03*
X32480Y12200I-80J0D01*
G01*
Y10800D02*
G03*
X32480Y10800I-80J0D01*
G01*
Y9800D02*
G03*
X32480Y9800I-80J0D01*
G01*
Y8350D02*
G03*
X32480Y8350I-80J0D01*
G01*
Y7350D02*
G03*
X32480Y7350I-80J0D01*
G01*
Y6350D02*
G03*
X32480Y6350I-80J0D01*
G01*
M02*
