G04*
G04 #@! TF.GenerationSoftware,Altium Limited,Altium Designer,23.3.1 (30)*
G04*
G04 Layer_Physical_Order=1*
G04 Layer_Color=255*
%FSLAX24Y24*%
%MOIN*%
G70*
G04*
G04 #@! TF.SameCoordinates,0EE62ADF-7674-4DCD-90CA-8C9100EC0EC2*
G04*
G04*
G04 #@! TF.FilePolarity,Positive*
G04*
G01*
G75*
%ADD18C,0.0200*%
%ADD19C,0.0060*%
%ADD20R,0.0500X0.0449*%
%ADD21R,0.0449X0.0500*%
%ADD22R,0.0581X0.0118*%
%ADD23R,0.0118X0.0581*%
%ADD24R,0.0630X0.1260*%
%ADD25R,0.0354X0.0551*%
%ADD26R,0.0689X0.1043*%
%ADD27R,0.0591X0.0835*%
%ADD28R,0.1008X0.1358*%
%ADD29R,0.0600X0.0276*%
%ADD30R,0.0472X0.0579*%
%ADD31R,0.0492X0.0433*%
%ADD32R,0.1043X0.0291*%
G04:AMPARAMS|DCode=33|XSize=77.6mil|YSize=23.6mil|CornerRadius=3mil|HoleSize=0mil|Usage=FLASHONLY|Rotation=0.000|XOffset=0mil|YOffset=0mil|HoleType=Round|Shape=RoundedRectangle|*
%AMROUNDEDRECTD33*
21,1,0.0776,0.0177,0,0,0.0*
21,1,0.0717,0.0236,0,0,0.0*
1,1,0.0059,0.0358,-0.0089*
1,1,0.0059,-0.0358,-0.0089*
1,1,0.0059,-0.0358,0.0089*
1,1,0.0059,0.0358,0.0089*
%
%ADD33ROUNDEDRECTD33*%
%ADD34R,0.0650X0.1260*%
%ADD35R,0.0650X0.0374*%
%ADD36R,0.0295X0.0276*%
%ADD37R,0.1378X0.0925*%
%ADD62C,0.0250*%
%ADD63C,0.0120*%
%ADD64C,0.0650*%
%ADD65R,0.0650X0.0650*%
%ADD66C,0.0413*%
%ADD67R,0.0413X0.0413*%
%ADD68R,0.0413X0.0413*%
%ADD69C,0.0433*%
%ADD70C,0.0236*%
%ADD71C,0.0500*%
G36*
X32594Y19267D02*
X32793Y19213D01*
X32984Y19134D01*
X33163Y19031D01*
X33327Y18906D01*
X33473Y18760D01*
X33598Y18596D01*
X33701Y18417D01*
X33780Y18226D01*
X33834Y18027D01*
X33861Y17822D01*
Y17719D01*
Y1577D01*
Y1474D01*
X33834Y1269D01*
X33780Y1070D01*
X33701Y879D01*
X33598Y701D01*
X33473Y537D01*
X33327Y391D01*
X33163Y265D01*
X32984Y162D01*
X32793Y83D01*
X32594Y29D01*
X32389Y3D01*
X1474D01*
X1269Y29D01*
X1070Y83D01*
X879Y162D01*
X701Y265D01*
X537Y391D01*
X391Y537D01*
X265Y701D01*
X162Y879D01*
X83Y1070D01*
X29Y1269D01*
X3Y1474D01*
Y1577D01*
Y17719D01*
Y17822D01*
X29Y18027D01*
X83Y18226D01*
X162Y18417D01*
X265Y18596D01*
X391Y18760D01*
X537Y18906D01*
X701Y19031D01*
X879Y19134D01*
X1070Y19213D01*
X1269Y19267D01*
X1474Y19294D01*
X32389D01*
X32594Y19267D01*
D02*
G37*
%LPC*%
G36*
X32698Y17105D02*
X31536D01*
Y16695D01*
X32698D01*
Y17105D01*
D02*
G37*
G36*
X3034Y17584D02*
X2266D01*
Y16816D01*
X2862D01*
X3311Y16368D01*
X3292Y16321D01*
X3015D01*
X3008Y16348D01*
X2957Y16436D01*
X2886Y16507D01*
X2798Y16558D01*
X2701Y16584D01*
X2599D01*
X2502Y16558D01*
X2414Y16507D01*
X2343Y16436D01*
X2292Y16348D01*
X2266Y16251D01*
Y16149D01*
X2292Y16052D01*
X2343Y15964D01*
X2414Y15893D01*
X2502Y15842D01*
X2599Y15816D01*
X2701D01*
X2798Y15842D01*
X2886Y15893D01*
X2957Y15964D01*
X3008Y16052D01*
X3015Y16079D01*
X3347D01*
X3540Y15885D01*
X3540Y15885D01*
X3579Y15859D01*
X3626Y15850D01*
X3626Y15850D01*
X3959D01*
X3978Y15803D01*
X3496Y15321D01*
X3015D01*
X3008Y15348D01*
X2957Y15436D01*
X2886Y15507D01*
X2798Y15558D01*
X2701Y15584D01*
X2599D01*
X2502Y15558D01*
X2414Y15507D01*
X2343Y15436D01*
X2292Y15348D01*
X2266Y15251D01*
Y15149D01*
X2292Y15052D01*
X2343Y14964D01*
X2414Y14893D01*
X2502Y14842D01*
X2599Y14816D01*
X2701D01*
X2798Y14842D01*
X2886Y14893D01*
X2957Y14964D01*
X3008Y15052D01*
X3015Y15079D01*
X3442D01*
X3461Y15032D01*
X3314Y14886D01*
X3288Y14846D01*
X3279Y14800D01*
X3279Y14800D01*
Y14550D01*
X3151Y14423D01*
X2965D01*
X2957Y14436D01*
X2886Y14507D01*
X2798Y14558D01*
X2701Y14584D01*
X2599D01*
X2502Y14558D01*
X2414Y14507D01*
X2343Y14436D01*
X2292Y14348D01*
X2266Y14251D01*
Y14149D01*
X2292Y14052D01*
X2343Y13964D01*
X2414Y13893D01*
X2502Y13842D01*
X2599Y13816D01*
X2701D01*
X2798Y13842D01*
X2886Y13893D01*
X2957Y13964D01*
X3008Y14052D01*
X3034Y14149D01*
Y14180D01*
X3201D01*
X3201Y14180D01*
X3248Y14189D01*
X3287Y14216D01*
X3432Y14361D01*
X3479Y14342D01*
Y13500D01*
X3300Y13321D01*
X3015D01*
X3008Y13348D01*
X2957Y13436D01*
X2886Y13507D01*
X2798Y13558D01*
X2701Y13584D01*
X2599D01*
X2502Y13558D01*
X2414Y13507D01*
X2343Y13436D01*
X2292Y13348D01*
X2266Y13251D01*
Y13149D01*
X2292Y13052D01*
X2343Y12964D01*
X2414Y12893D01*
X2502Y12842D01*
X2599Y12816D01*
X2701D01*
X2798Y12842D01*
X2886Y12893D01*
X2957Y12964D01*
X3008Y13052D01*
X3015Y13079D01*
X3350D01*
X3350Y13079D01*
X3396Y13088D01*
X3436Y13114D01*
X3611Y13290D01*
X3658Y13271D01*
Y12629D01*
X3350Y12321D01*
X3015D01*
X3008Y12348D01*
X2957Y12436D01*
X2886Y12507D01*
X2798Y12558D01*
X2701Y12584D01*
X2599D01*
X2502Y12558D01*
X2414Y12507D01*
X2343Y12436D01*
X2292Y12348D01*
X2266Y12251D01*
Y12149D01*
X2292Y12052D01*
X2343Y11964D01*
X2414Y11893D01*
X2502Y11842D01*
X2599Y11816D01*
X2701D01*
X2798Y11842D01*
X2886Y11893D01*
X2957Y11964D01*
X3008Y12052D01*
X3015Y12079D01*
X3400D01*
X3400Y12079D01*
X3446Y12088D01*
X3486Y12114D01*
X3791Y12419D01*
X3837Y12400D01*
Y11808D01*
X3350Y11321D01*
X3015D01*
X3008Y11348D01*
X2957Y11436D01*
X2886Y11507D01*
X2798Y11558D01*
X2701Y11584D01*
X2599D01*
X2502Y11558D01*
X2414Y11507D01*
X2343Y11436D01*
X2292Y11348D01*
X2266Y11251D01*
Y11149D01*
X2292Y11052D01*
X2343Y10964D01*
X2414Y10893D01*
X2502Y10842D01*
X2599Y10816D01*
X2701D01*
X2798Y10842D01*
X2886Y10893D01*
X2957Y10964D01*
X3008Y11052D01*
X3015Y11079D01*
X3400D01*
X3400Y11079D01*
X3446Y11088D01*
X3486Y11114D01*
X3632Y11261D01*
X3679Y11242D01*
Y10850D01*
X3150Y10321D01*
X3015D01*
X3008Y10348D01*
X2957Y10436D01*
X2886Y10507D01*
X2798Y10558D01*
X2701Y10584D01*
X2599D01*
X2502Y10558D01*
X2414Y10507D01*
X2343Y10436D01*
X2292Y10348D01*
X2266Y10251D01*
Y10149D01*
X2292Y10052D01*
X2343Y9964D01*
X2414Y9893D01*
X2502Y9842D01*
X2599Y9816D01*
X2701D01*
X2798Y9842D01*
X2886Y9893D01*
X2957Y9964D01*
X3008Y10052D01*
X3015Y10079D01*
X3200D01*
X3200Y10079D01*
X3246Y10088D01*
X3286Y10114D01*
X3859Y10688D01*
X3909Y10667D01*
Y5486D01*
X3136Y4712D01*
X3116Y4683D01*
X3109Y4648D01*
Y4354D01*
X3100Y4350D01*
X3050Y4300D01*
X3023Y4235D01*
Y4165D01*
X3050Y4100D01*
X3100Y4050D01*
X3165Y4023D01*
X3229D01*
Y3974D01*
X3219Y3969D01*
X3169Y3919D01*
X3142Y3854D01*
Y3784D01*
X3169Y3719D01*
X3219Y3669D01*
X3284Y3642D01*
X3354D01*
X3419Y3669D01*
X3423Y3672D01*
X3473Y3652D01*
Y3615D01*
X3500Y3550D01*
X3550Y3500D01*
X3615Y3473D01*
X3685D01*
X3723Y3488D01*
X3773Y3457D01*
Y3431D01*
X3800Y3366D01*
X3850Y3316D01*
X3902Y3294D01*
X3921Y3243D01*
X2886Y2207D01*
X2798Y2258D01*
X2701Y2284D01*
X2599D01*
X2502Y2258D01*
X2414Y2207D01*
X2343Y2136D01*
X2292Y2048D01*
X2266Y1951D01*
Y1930D01*
X2216Y1904D01*
X2196Y1920D01*
Y2917D01*
X2266D01*
Y2849D01*
X2292Y2752D01*
X2343Y2664D01*
X2414Y2593D01*
X2502Y2542D01*
X2599Y2516D01*
X2701D01*
X2798Y2542D01*
X2886Y2593D01*
X2957Y2664D01*
X3008Y2752D01*
X3034Y2849D01*
Y2951D01*
X3008Y3048D01*
X2957Y3136D01*
X2886Y3207D01*
X2798Y3258D01*
X2701Y3284D01*
X2599D01*
X2502Y3258D01*
X2414Y3207D01*
X2367Y3159D01*
X2145D01*
X2145Y3159D01*
X2098Y3150D01*
X2067Y3129D01*
X2033Y3139D01*
X2017Y3149D01*
Y3445D01*
X2275Y3703D01*
X2324Y3696D01*
X2343Y3664D01*
X2414Y3593D01*
X2502Y3542D01*
X2599Y3516D01*
X2701D01*
X2798Y3542D01*
X2886Y3593D01*
X2957Y3664D01*
X3008Y3752D01*
X3034Y3849D01*
Y3951D01*
X3008Y4048D01*
X2957Y4136D01*
X2886Y4207D01*
X2798Y4258D01*
X2701Y4284D01*
X2599D01*
X2502Y4258D01*
X2414Y4207D01*
X2343Y4136D01*
X2314Y4086D01*
X1884Y3655D01*
X1838Y3675D01*
Y4266D01*
X2275Y4703D01*
X2324Y4696D01*
X2343Y4664D01*
X2414Y4593D01*
X2502Y4542D01*
X2599Y4516D01*
X2701D01*
X2798Y4542D01*
X2886Y4593D01*
X2957Y4664D01*
X3008Y4752D01*
X3034Y4849D01*
Y4951D01*
X3008Y5048D01*
X2957Y5136D01*
X2886Y5207D01*
X2798Y5258D01*
X2701Y5284D01*
X2599D01*
X2502Y5258D01*
X2414Y5207D01*
X2343Y5136D01*
X2314Y5086D01*
X1705Y4476D01*
X1659Y4496D01*
Y5087D01*
X2275Y5703D01*
X2324Y5696D01*
X2343Y5664D01*
X2414Y5593D01*
X2502Y5542D01*
X2599Y5516D01*
X2701D01*
X2798Y5542D01*
X2886Y5593D01*
X2957Y5664D01*
X3008Y5752D01*
X3034Y5849D01*
Y5951D01*
X3008Y6048D01*
X2957Y6136D01*
X2886Y6207D01*
X2798Y6258D01*
X2701Y6284D01*
X2599D01*
X2502Y6258D01*
X2414Y6207D01*
X2343Y6136D01*
X2314Y6086D01*
X1526Y5297D01*
X1479Y5316D01*
Y5908D01*
X2275Y6703D01*
X2324Y6696D01*
X2343Y6664D01*
X2414Y6593D01*
X2502Y6542D01*
X2599Y6516D01*
X2701D01*
X2798Y6542D01*
X2886Y6593D01*
X2957Y6664D01*
X3008Y6752D01*
X3034Y6849D01*
Y6951D01*
X3008Y7048D01*
X2957Y7136D01*
X2886Y7207D01*
X2798Y7258D01*
X2701Y7284D01*
X2599D01*
X2502Y7258D01*
X2414Y7207D01*
X2343Y7136D01*
X2314Y7086D01*
X1347Y6118D01*
X1300Y6137D01*
Y6729D01*
X2275Y7703D01*
X2324Y7696D01*
X2343Y7664D01*
X2414Y7593D01*
X2502Y7542D01*
X2599Y7516D01*
X2701D01*
X2798Y7542D01*
X2886Y7593D01*
X2957Y7664D01*
X3008Y7752D01*
X3034Y7849D01*
Y7951D01*
X3008Y8048D01*
X2957Y8136D01*
X2886Y8207D01*
X2798Y8258D01*
X2701Y8284D01*
X2599D01*
X2502Y8258D01*
X2414Y8207D01*
X2343Y8136D01*
X2314Y8086D01*
X1168Y6939D01*
X1121Y6958D01*
Y7550D01*
X2220Y8648D01*
X2266Y8629D01*
Y8516D01*
X3034D01*
Y9284D01*
X2266D01*
Y9038D01*
X914Y7686D01*
X888Y7646D01*
X879Y7600D01*
X879Y7600D01*
Y1400D01*
X879Y1400D01*
X888Y1354D01*
X914Y1314D01*
X1964Y264D01*
X1964Y264D01*
X2004Y238D01*
X2050Y229D01*
X2050Y229D01*
X3369D01*
X3369Y229D01*
X3416Y238D01*
X3455Y264D01*
X6710Y3519D01*
X6710Y3519D01*
X6736Y3559D01*
X6746Y3605D01*
Y8126D01*
X6746Y8126D01*
X6736Y8172D01*
X6710Y8212D01*
X6710Y8212D01*
X6386Y8536D01*
X6346Y8562D01*
X6300Y8571D01*
X6300Y8571D01*
X5437D01*
X5413Y8613D01*
X5363Y8663D01*
X5348Y8671D01*
Y8729D01*
X5363Y8737D01*
X5413Y8787D01*
X5437Y8829D01*
X6350D01*
X6350Y8829D01*
X6396Y8838D01*
X6436Y8864D01*
X6939Y9368D01*
X6939Y9368D01*
X6966Y9407D01*
X6975Y9453D01*
X6975Y9453D01*
Y15047D01*
X6975Y15047D01*
X6966Y15093D01*
X6939Y15132D01*
X6939Y15132D01*
X5836Y16236D01*
X5796Y16262D01*
X5750Y16271D01*
X5750Y16271D01*
X3750D01*
X3034Y16988D01*
Y17584D01*
D02*
G37*
G36*
X25150Y18141D02*
X21050D01*
X21015Y18134D01*
X20986Y18114D01*
X20136Y17264D01*
X20116Y17235D01*
X20109Y17200D01*
Y14838D01*
X19914Y14642D01*
X12351D01*
X12316Y14635D01*
X12287Y14615D01*
X11436Y13764D01*
X11416Y13735D01*
X11409Y13700D01*
Y8404D01*
X11400Y8400D01*
X11350Y8350D01*
X11323Y8285D01*
Y8215D01*
X11350Y8150D01*
X11399Y8100D01*
X11399Y8097D01*
X11388Y8050D01*
X10710D01*
X10675Y8043D01*
X10645Y8024D01*
X10336Y7714D01*
X10316Y7685D01*
X10309Y7650D01*
Y5850D01*
X10316Y5815D01*
X10336Y5786D01*
X11336Y4786D01*
X11365Y4766D01*
X11400Y4759D01*
X17407D01*
X20681Y1486D01*
X20710Y1466D01*
X20745Y1459D01*
X22265D01*
X22300Y1466D01*
X22329Y1486D01*
X22364Y1521D01*
X22384Y1550D01*
X22391Y1585D01*
Y2200D01*
X22384Y2235D01*
X22364Y2264D01*
X22276Y2352D01*
X22246Y2372D01*
X22226Y2376D01*
Y2439D01*
X22219Y2473D01*
X22200Y2502D01*
X22170Y2522D01*
X22136Y2529D01*
X21419D01*
X21385Y2522D01*
X21355Y2502D01*
X21341Y2481D01*
X21309Y2482D01*
X21291Y2489D01*
Y2711D01*
X21309Y2718D01*
X21341Y2719D01*
X21355Y2698D01*
X21385Y2678D01*
X21419Y2671D01*
X22136D01*
X22170Y2678D01*
X22200Y2698D01*
X22219Y2727D01*
X22226Y2761D01*
Y2939D01*
X22219Y2973D01*
X22200Y3002D01*
X22170Y3022D01*
X22136Y3029D01*
X21419D01*
X21385Y3022D01*
X21355Y3002D01*
X21336Y2973D01*
X21329Y2941D01*
X21235D01*
X21200Y2934D01*
X21171Y2914D01*
X21136Y2879D01*
X21116Y2850D01*
X21109Y2815D01*
Y2385D01*
X21116Y2350D01*
X21136Y2321D01*
X21171Y2286D01*
X21200Y2266D01*
X21235Y2259D01*
X21329D01*
X21336Y2227D01*
X21355Y2198D01*
X21385Y2178D01*
X21419Y2171D01*
X22136D01*
X22165Y2177D01*
X22189Y2161D01*
X22209Y2144D01*
Y2056D01*
X22195Y2044D01*
X22159Y2024D01*
X22136Y2029D01*
X21419D01*
X21385Y2022D01*
X21355Y2002D01*
X21336Y1973D01*
X21329Y1941D01*
X20651D01*
X19379Y3213D01*
X19398Y3259D01*
X21329D01*
X21336Y3227D01*
X21355Y3198D01*
X21385Y3178D01*
X21419Y3171D01*
X22136D01*
X22170Y3178D01*
X22200Y3198D01*
X22219Y3227D01*
X22226Y3261D01*
Y3330D01*
X22272Y3349D01*
X22459Y3162D01*
Y1800D01*
X22466Y1765D01*
X22486Y1736D01*
X23536Y686D01*
X23565Y666D01*
X23600Y659D01*
X28550D01*
X28584Y666D01*
X28614Y686D01*
X28769Y841D01*
X29233D01*
Y1459D01*
X29233D01*
X29233Y1491D01*
X29233D01*
X29233Y1509D01*
Y1709D01*
X29312D01*
X29384Y1637D01*
Y1265D01*
X29857D01*
Y1935D01*
X29384D01*
Y1919D01*
X29350Y1891D01*
X29233D01*
Y2109D01*
X28666D01*
Y1491D01*
X28666D01*
X28666Y1459D01*
X28666D01*
X28666Y1441D01*
Y995D01*
X28665Y994D01*
X28512Y841D01*
X28484D01*
X28434Y841D01*
X28434Y891D01*
Y1459D01*
X27867D01*
Y1325D01*
X27817Y1305D01*
X27727Y1394D01*
Y1435D01*
X27700Y1500D01*
X27650Y1550D01*
X27585Y1577D01*
X27515D01*
X27450Y1550D01*
X27400Y1500D01*
X27373Y1435D01*
Y1365D01*
X27400Y1300D01*
X27450Y1250D01*
X27515Y1223D01*
X27555D01*
X27714Y1064D01*
X27714Y1064D01*
X27754Y1038D01*
X27800Y1029D01*
X27867D01*
X27867Y841D01*
X27817Y841D01*
X23638D01*
X22641Y1838D01*
Y3200D01*
X22634Y3235D01*
X22614Y3264D01*
X22184Y3695D01*
X22203Y3741D01*
X22683D01*
Y4359D01*
X22421D01*
Y4969D01*
X22412Y5015D01*
X22386Y5054D01*
X22386Y5054D01*
X22377Y5064D01*
X22377Y5065D01*
Y5106D01*
X22550Y5279D01*
X22816D01*
Y5052D01*
X23407D01*
Y5748D01*
X22816D01*
Y5521D01*
X22500D01*
X22500Y5521D01*
X22454Y5512D01*
X22414Y5486D01*
X22206Y5277D01*
X22165D01*
X22100Y5250D01*
X22050Y5200D01*
X22023Y5135D01*
Y5065D01*
X22050Y5000D01*
X22100Y4950D01*
X22165Y4923D01*
X22174D01*
X22179Y4918D01*
Y4359D01*
X22116D01*
Y3887D01*
X22066Y3861D01*
X22066Y3861D01*
Y4375D01*
X22059Y4410D01*
X22039Y4439D01*
X21914Y4564D01*
X21885Y4584D01*
X21850Y4591D01*
X18338D01*
X17564Y5364D01*
X17535Y5384D01*
X17500Y5391D01*
X16138D01*
X16041Y5488D01*
Y5638D01*
X16091Y5659D01*
X16100Y5650D01*
X16165Y5623D01*
X16235D01*
X16300Y5650D01*
X16348Y5697D01*
X16395Y5650D01*
X16460Y5623D01*
X16531D01*
X16596Y5650D01*
X16645Y5700D01*
X16672Y5765D01*
Y5835D01*
X16645Y5900D01*
X16596Y5950D01*
X16549Y5969D01*
X16559Y6019D01*
X17440D01*
Y6718D01*
X13162D01*
X13143Y6765D01*
X13414Y7036D01*
X13434Y7065D01*
X13441Y7100D01*
Y11210D01*
X13434Y11245D01*
X13414Y11274D01*
X11791Y12898D01*
Y13677D01*
X11913Y13799D01*
X11959Y13780D01*
Y13350D01*
X11966Y13315D01*
X11986Y13286D01*
X12077Y13195D01*
X12073Y13185D01*
Y13115D01*
X12100Y13050D01*
X12150Y13000D01*
X12215Y12973D01*
X12285D01*
X12350Y13000D01*
X12400Y13050D01*
X12427Y13115D01*
Y13185D01*
X12400Y13250D01*
X12356Y13294D01*
X12358Y13300D01*
X12407Y13350D01*
X12434Y13415D01*
Y13423D01*
X12641D01*
Y12917D01*
X12901D01*
Y12811D01*
X12873D01*
Y12553D01*
X12777D01*
Y12585D01*
X12750Y12650D01*
X12700Y12700D01*
X12635Y12727D01*
X12565D01*
X12500Y12700D01*
X12450Y12650D01*
X12423Y12585D01*
Y12515D01*
X12450Y12450D01*
X12500Y12400D01*
X12565Y12373D01*
X12635D01*
X12681Y12392D01*
X12701Y12378D01*
X12736Y12371D01*
X12873D01*
Y12112D01*
X13097D01*
Y11910D01*
X13104Y11875D01*
X13124Y11845D01*
X13141Y11829D01*
X13123Y11785D01*
Y11715D01*
X13150Y11650D01*
X13200Y11600D01*
X13265Y11573D01*
X13335D01*
X13400Y11600D01*
X13450Y11650D01*
X13477Y11715D01*
Y11785D01*
X13450Y11850D01*
X13400Y11900D01*
X13335Y11927D01*
X13299D01*
X13279Y11947D01*
Y12112D01*
X15658D01*
Y11954D01*
X15650Y11950D01*
X15600Y11900D01*
X15573Y11835D01*
Y11765D01*
X15600Y11700D01*
X15650Y11650D01*
X15715Y11623D01*
X15785D01*
X15850Y11650D01*
X15900Y11700D01*
X15927Y11765D01*
Y11835D01*
X15900Y11900D01*
X15850Y11950D01*
X15839Y11955D01*
Y12112D01*
X17141D01*
X17162Y12062D01*
X17150Y12050D01*
X17123Y11985D01*
Y11915D01*
X17150Y11850D01*
X17200Y11800D01*
X17265Y11773D01*
X17335D01*
X17400Y11800D01*
X17450Y11850D01*
X17477Y11915D01*
Y11985D01*
X17450Y12050D01*
X17438Y12062D01*
X17440Y12112D01*
X17440D01*
Y12811D01*
X17413D01*
Y12917D01*
X17742D01*
X17761Y12867D01*
X17705Y12811D01*
X17598D01*
Y12112D01*
X17773D01*
Y11641D01*
X17780Y11607D01*
X17800Y11577D01*
X18028Y11349D01*
X18051Y11334D01*
Y11278D01*
X18037D01*
X18002Y11271D01*
X17973Y11251D01*
X17836Y11114D01*
X17816Y11085D01*
X17809Y11050D01*
Y11004D01*
X17800Y11000D01*
X17750Y10950D01*
X17723Y10885D01*
Y10815D01*
X17750Y10750D01*
X17800Y10700D01*
X17843Y10682D01*
X17850Y10648D01*
X17865Y10626D01*
X17854Y10604D01*
X17834Y10584D01*
X17820Y10590D01*
X17750D01*
X17684Y10563D01*
X17635Y10513D01*
X17612Y10459D01*
X17576Y10445D01*
X17558Y10443D01*
X17534Y10466D01*
X17469Y10493D01*
X17399D01*
X17334Y10466D01*
X17284Y10416D01*
X17257Y10351D01*
Y10281D01*
X17284Y10216D01*
X17334Y10166D01*
X17399Y10139D01*
X17469D01*
X17513Y10157D01*
X17531Y10139D01*
X17560Y10119D01*
X17595Y10112D01*
X18051D01*
Y9697D01*
X18002D01*
X18000Y9700D01*
X17950Y9750D01*
X17885Y9777D01*
X17815D01*
X17750Y9750D01*
X17700Y9700D01*
X17673Y9635D01*
Y9565D01*
X17700Y9500D01*
X17750Y9450D01*
X17815Y9423D01*
X17885D01*
X17950Y9450D01*
X18000Y9500D01*
X18001Y9501D01*
X18051Y9494D01*
Y9297D01*
Y8904D01*
X18749D01*
Y8931D01*
X18841D01*
X18954Y8817D01*
Y8759D01*
X18917D01*
Y8159D01*
X18917Y8141D01*
X18917Y8091D01*
Y8081D01*
X18883Y8065D01*
X18867Y8064D01*
X18829Y8102D01*
X18799Y8121D01*
X18765Y8128D01*
X18749D01*
Y8313D01*
Y8746D01*
X18051D01*
Y8510D01*
Y8116D01*
Y7722D01*
Y7329D01*
Y6935D01*
X18749D01*
Y7329D01*
Y7695D01*
X18799Y7721D01*
X18807Y7716D01*
X18842Y7709D01*
X18917D01*
Y7491D01*
X18917D01*
Y7459D01*
X18917D01*
Y6841D01*
X18917D01*
Y6809D01*
X18917D01*
Y6545D01*
X18916Y6544D01*
X18863Y6491D01*
X18454D01*
X18450Y6500D01*
X18400Y6550D01*
X18335Y6577D01*
X18265D01*
X18200Y6550D01*
X18150Y6500D01*
X18146Y6491D01*
X17834D01*
Y6718D01*
X17598D01*
Y6019D01*
X17625D01*
Y5910D01*
X17632Y5875D01*
X17652Y5846D01*
X17817Y5681D01*
Y5441D01*
X18384D01*
Y6059D01*
X17834D01*
Y6309D01*
X18146D01*
X18150Y6300D01*
X18200Y6250D01*
X18265Y6223D01*
X18335D01*
X18400Y6250D01*
X18450Y6300D01*
X18454Y6309D01*
X18900D01*
X18917Y6296D01*
Y6191D01*
X19484D01*
Y6809D01*
X19484D01*
Y6841D01*
X19484D01*
Y7459D01*
X19484D01*
Y7491D01*
X19484D01*
Y8091D01*
X19484Y8109D01*
X19483Y8159D01*
Y8227D01*
X19525Y8254D01*
X19546Y8246D01*
X19616D01*
X19681Y8273D01*
X19731Y8323D01*
X19758Y8388D01*
Y8458D01*
X19731Y8523D01*
X19681Y8573D01*
X19616Y8600D01*
X19546D01*
X19525Y8592D01*
X19483Y8620D01*
Y8711D01*
X19497Y8759D01*
X19533Y8759D01*
X20300D01*
X20317Y8746D01*
Y8641D01*
X20884D01*
Y9241D01*
Y9859D01*
X20317D01*
Y9638D01*
X19922D01*
Y9744D01*
X19637D01*
X19524Y9857D01*
X19495Y9877D01*
X19460Y9884D01*
X19431D01*
X19384Y9891D01*
Y10509D01*
X18919D01*
X18794Y10634D01*
X18765Y10654D01*
X18749Y10657D01*
Y10715D01*
X18086D01*
X18076Y10724D01*
X18056Y10765D01*
X18077Y10815D01*
Y10872D01*
X18749D01*
Y10899D01*
X19017D01*
Y10641D01*
X19584D01*
Y11031D01*
X19814Y11261D01*
X19834Y11291D01*
X19841Y11326D01*
Y11367D01*
X20109D01*
Y11934D01*
X19509D01*
X19491Y11934D01*
Y11934D01*
X19459Y11933D01*
Y11933D01*
X18870D01*
Y12093D01*
X18863Y12127D01*
X18844Y12157D01*
X18693Y12307D01*
X18664Y12327D01*
X18646Y12330D01*
X18619Y12367D01*
X18614Y12384D01*
X18627Y12415D01*
Y12485D01*
X18600Y12550D01*
X18550Y12600D01*
X18485Y12627D01*
X18415D01*
X18350Y12600D01*
X18300Y12550D01*
X18299Y12548D01*
X18114D01*
X18079Y12541D01*
X18050Y12521D01*
X17880Y12351D01*
X17834Y12371D01*
Y12663D01*
X17841Y12671D01*
X17879Y12694D01*
X17931Y12673D01*
X18002D01*
X18067Y12700D01*
X18117Y12750D01*
X18144Y12815D01*
Y12885D01*
X18117Y12950D01*
X18067Y13000D01*
X18002Y13027D01*
X17931D01*
X17909Y13018D01*
X17859Y13051D01*
Y13484D01*
X17241D01*
Y13305D01*
X17191Y13289D01*
X17189Y13292D01*
X17074Y13407D01*
X17077Y13415D01*
Y13485D01*
X17050Y13550D01*
X17000Y13600D01*
X16935Y13627D01*
X16865D01*
X16817Y13654D01*
X16797Y13702D01*
X16747Y13752D01*
X16682Y13779D01*
X16656D01*
X16617Y13815D01*
Y13885D01*
X16590Y13950D01*
X16540Y14000D01*
X16475Y14027D01*
X16404D01*
X16339Y14000D01*
X16310Y13971D01*
X16281Y13977D01*
X16231Y14027D01*
X16166Y14054D01*
X16095D01*
X16030Y14027D01*
X15980Y13977D01*
X15977Y13970D01*
X15976Y13969D01*
X15919Y13960D01*
X15583Y14295D01*
X15602Y14341D01*
X19980D01*
X19998Y14308D01*
X20004Y14293D01*
X19986Y14250D01*
Y13250D01*
X20005Y13205D01*
X20336Y12874D01*
Y11450D01*
X20355Y11405D01*
X20455Y11305D01*
X20500Y11286D01*
X20894D01*
X20906Y11291D01*
X20919D01*
X20928Y11300D01*
X20939Y11305D01*
X20973Y11314D01*
X20998Y11312D01*
X21242Y11067D01*
X21303Y11027D01*
X21375Y11012D01*
X22150D01*
X22222Y11027D01*
X22283Y11067D01*
X22778Y11562D01*
X24633D01*
X24649Y11522D01*
X24650Y11512D01*
X24535Y11398D01*
X24500Y11345D01*
X24487Y11283D01*
Y11164D01*
X24400D01*
X24355Y11145D01*
X24155Y10945D01*
X24136Y10900D01*
Y9227D01*
X23906D01*
X23906Y9227D01*
X23859Y9218D01*
X23820Y9191D01*
X23820Y9191D01*
X23505Y8877D01*
X23465D01*
X23400Y8850D01*
X23350Y8800D01*
X23323Y8735D01*
Y8665D01*
X23350Y8600D01*
X23400Y8550D01*
X23465Y8523D01*
X23535D01*
X23600Y8550D01*
X23650Y8600D01*
X23677Y8665D01*
Y8705D01*
X23956Y8984D01*
X24136D01*
Y8850D01*
X24155Y8805D01*
X24255Y8705D01*
X24300Y8686D01*
X25000D01*
X25045Y8705D01*
X25090Y8749D01*
X25136Y8730D01*
Y8626D01*
X25074Y8564D01*
X23850Y8564D01*
X23805Y8545D01*
X23755Y8495D01*
X23736Y8450D01*
Y7900D01*
X23755Y7855D01*
X23805Y7805D01*
X23850Y7786D01*
X25800Y7786D01*
X25845Y7805D01*
X25895Y7855D01*
X25914Y7900D01*
Y10200D01*
X25895Y10245D01*
X25845Y10295D01*
X25800Y10314D01*
X25250D01*
X25214Y10299D01*
X25164Y10320D01*
Y10900D01*
X25145Y10945D01*
X24945Y11145D01*
X24900Y11164D01*
X24812D01*
Y11216D01*
X24834Y11238D01*
X25429D01*
X25465Y11223D01*
X25535D01*
X25600Y11250D01*
X25650Y11300D01*
X25677Y11365D01*
Y11435D01*
X25650Y11500D01*
X25638Y11512D01*
X25659Y11562D01*
X26701D01*
X26703Y11560D01*
X26760Y11503D01*
X26831Y11462D01*
X26909Y11441D01*
X26991D01*
X27069Y11462D01*
X27140Y11503D01*
X27197Y11560D01*
X27199Y11562D01*
X27516D01*
Y11402D01*
X27593D01*
Y11309D01*
X27467D01*
Y10691D01*
X27467D01*
Y10659D01*
X27467D01*
Y10041D01*
X28034D01*
Y10659D01*
X28034D01*
Y10691D01*
X28034D01*
Y11309D01*
X27969D01*
Y11402D01*
X28107D01*
Y12098D01*
X27999D01*
Y13184D01*
X28678Y13862D01*
X29011D01*
X29046Y13827D01*
Y12666D01*
X29854D01*
Y13062D01*
X31039D01*
X31042Y13052D01*
X31093Y12964D01*
X31164Y12893D01*
X31252Y12842D01*
X31349Y12816D01*
X31451D01*
X31548Y12842D01*
X31636Y12893D01*
X31707Y12964D01*
X31758Y13052D01*
X31784Y13149D01*
Y13170D01*
X31834Y13190D01*
X31909Y13115D01*
Y11691D01*
X30950D01*
X30915Y11684D01*
X30886Y11664D01*
X30786Y11564D01*
X30766Y11535D01*
X30759Y11500D01*
Y9588D01*
X30387Y9216D01*
X29374D01*
X29339Y9209D01*
X29310Y9189D01*
X28611Y8491D01*
X28504D01*
X28500Y8500D01*
X28450Y8550D01*
X28385Y8577D01*
X28315D01*
X28250Y8550D01*
X28200Y8500D01*
X28173Y8435D01*
Y8365D01*
X28200Y8300D01*
X28250Y8250D01*
X28315Y8223D01*
X28357D01*
X28368Y8207D01*
X28376Y8173D01*
X26986Y6783D01*
X26966Y6753D01*
X26959Y6718D01*
Y4288D01*
X26612Y3941D01*
X25584D01*
Y4198D01*
X24993D01*
Y3609D01*
X24947Y3590D01*
X24907Y3630D01*
Y4198D01*
X24316D01*
Y3502D01*
X24778D01*
X24821Y3459D01*
X24800Y3409D01*
X24267D01*
Y2941D01*
X24171D01*
X24164Y2973D01*
X24145Y3002D01*
X24115Y3022D01*
X24081Y3029D01*
X23364D01*
X23330Y3022D01*
X23300Y3002D01*
X23281Y2973D01*
X23274Y2939D01*
Y2761D01*
X23281Y2727D01*
X23300Y2698D01*
X23330Y2678D01*
X23364Y2671D01*
X24081D01*
X24115Y2678D01*
X24145Y2698D01*
X24164Y2727D01*
X24171Y2759D01*
X24326D01*
X24361Y2766D01*
X24390Y2786D01*
X24395Y2791D01*
X24834D01*
Y3375D01*
X24884Y3396D01*
X25024Y3256D01*
X25054Y3236D01*
X25066Y3234D01*
Y2791D01*
X25633D01*
Y3409D01*
X25164D01*
X25155Y3411D01*
X25126D01*
X25081Y3455D01*
X25100Y3502D01*
X25584D01*
Y3759D01*
X26650D01*
X26685Y3766D01*
X26714Y3786D01*
X27032Y4104D01*
X27078Y4085D01*
Y2207D01*
X26562Y1691D01*
X25622D01*
Y1948D01*
X25139D01*
X25120Y1995D01*
X25216Y2091D01*
X25633D01*
Y2709D01*
X25066D01*
Y2214D01*
X25064Y2206D01*
Y2196D01*
X24817Y1948D01*
X24355D01*
Y1252D01*
X24945D01*
Y1820D01*
X24986Y1860D01*
X25032Y1841D01*
Y1252D01*
X25622D01*
Y1509D01*
X26600D01*
X26635Y1516D01*
X26664Y1536D01*
X27233Y2105D01*
X27253Y2134D01*
X27260Y2169D01*
Y6631D01*
X27488Y6859D01*
X29096D01*
Y6524D01*
X29804D01*
Y6859D01*
X30362D01*
X30936Y6286D01*
X30965Y6266D01*
X31000Y6259D01*
X31016D01*
Y5966D01*
X31784D01*
Y6734D01*
X31016D01*
Y6528D01*
X30970Y6508D01*
X30464Y7014D01*
X30435Y7034D01*
X30400Y7041D01*
X29804D01*
Y7476D01*
X29096D01*
Y7041D01*
X27566D01*
X27547Y7087D01*
X28487Y8027D01*
X29096D01*
Y7641D01*
X29804D01*
Y7909D01*
X30462D01*
X30986Y7386D01*
X31015Y7366D01*
X31016Y7366D01*
Y7299D01*
X31042Y7202D01*
X31093Y7114D01*
X31164Y7043D01*
X31252Y6992D01*
X31349Y6966D01*
X31451D01*
X31548Y6992D01*
X31636Y7043D01*
X31707Y7114D01*
X31758Y7202D01*
X31784Y7299D01*
Y7401D01*
X31758Y7498D01*
X31707Y7586D01*
X31636Y7657D01*
X31548Y7708D01*
X31451Y7734D01*
X31349D01*
X31252Y7708D01*
X31164Y7657D01*
X31093Y7586D01*
X31049Y7580D01*
X30564Y8064D01*
X30535Y8084D01*
X30500Y8091D01*
X29804D01*
Y8594D01*
X29096D01*
Y8208D01*
X28474D01*
X28468Y8219D01*
X28459Y8258D01*
X28500Y8300D01*
X28504Y8309D01*
X28649D01*
X28684Y8316D01*
X28713Y8336D01*
X29411Y9034D01*
X30425D01*
X30460Y9041D01*
X30489Y9061D01*
X30914Y9486D01*
X30934Y9515D01*
X30941Y9550D01*
Y11462D01*
X30988Y11509D01*
X31965D01*
X32000Y11516D01*
X32029Y11536D01*
X32064Y11571D01*
X32084Y11600D01*
X32091Y11635D01*
Y12096D01*
X32141Y12103D01*
X32143Y12094D01*
X32179Y12031D01*
X32231Y11979D01*
X32294Y11943D01*
X32364Y11924D01*
X32436D01*
X32506Y11943D01*
X32569Y11979D01*
X32621Y12031D01*
X32657Y12094D01*
X32676Y12164D01*
Y12236D01*
X32657Y12306D01*
X32621Y12369D01*
X32569Y12421D01*
X32506Y12457D01*
X32436Y12476D01*
X32364D01*
X32294Y12457D01*
X32231Y12421D01*
X32179Y12369D01*
X32143Y12306D01*
X32141Y12297D01*
X32091Y12304D01*
Y13096D01*
X32141Y13103D01*
X32143Y13094D01*
X32179Y13031D01*
X32231Y12979D01*
X32294Y12943D01*
X32364Y12924D01*
X32436D01*
X32506Y12943D01*
X32569Y12979D01*
X32621Y13031D01*
X32657Y13094D01*
X32676Y13164D01*
Y13236D01*
X32657Y13306D01*
X32621Y13369D01*
X32569Y13421D01*
X32506Y13457D01*
X32436Y13476D01*
X32364D01*
X32294Y13457D01*
X32231Y13421D01*
X32179Y13369D01*
X32143Y13306D01*
X32124Y13236D01*
Y13217D01*
X32074Y13202D01*
X32064Y13217D01*
X31941Y13340D01*
Y15015D01*
X31934Y15050D01*
X31914Y15079D01*
X31879Y15114D01*
X31850Y15134D01*
X31815Y15141D01*
X31583D01*
X31580Y15145D01*
X31608Y15195D01*
X32459D01*
Y15054D01*
X32450Y15050D01*
X32400Y15000D01*
X32373Y14935D01*
Y14865D01*
X32400Y14800D01*
X32450Y14750D01*
X32515Y14723D01*
X32585D01*
X32650Y14750D01*
X32700Y14800D01*
X32727Y14865D01*
Y14935D01*
X32700Y15000D01*
X32650Y15050D01*
X32641Y15054D01*
Y15195D01*
X32698D01*
Y15605D01*
X31541D01*
X31536Y15605D01*
X31491Y15616D01*
Y16115D01*
X31484Y16150D01*
X31464Y16179D01*
X31429Y16214D01*
X31400Y16234D01*
X31365Y16241D01*
X31241D01*
Y17266D01*
X31234Y17301D01*
X31214Y17330D01*
X31179Y17365D01*
X31150Y17385D01*
X31115Y17392D01*
X31064D01*
Y17605D01*
X29902D01*
Y17195D01*
X31059D01*
Y17105D01*
X29902D01*
Y16695D01*
X31059D01*
Y16605D01*
X29902D01*
Y16226D01*
X29611D01*
Y16880D01*
X29604Y16915D01*
X29584Y16944D01*
X29164Y17364D01*
X29135Y17384D01*
X29100Y17391D01*
X25938D01*
X25214Y18114D01*
X25185Y18134D01*
X25150Y18141D01*
D02*
G37*
G36*
X8100Y16438D02*
X8028Y16423D01*
X7967Y16383D01*
X7617Y16033D01*
X7577Y15972D01*
X7562Y15900D01*
Y14228D01*
X7517Y14183D01*
X7477Y14122D01*
X7462Y14050D01*
X7477Y13978D01*
X7517Y13917D01*
X7578Y13877D01*
X7650Y13862D01*
X7722Y13877D01*
X7783Y13917D01*
X7883Y14017D01*
X7923Y14078D01*
X7938Y14150D01*
Y15822D01*
X8233Y16117D01*
X8273Y16178D01*
X8288Y16250D01*
X8273Y16322D01*
X8233Y16383D01*
X8172Y16423D01*
X8100Y16438D01*
D02*
G37*
G36*
X29854Y12134D02*
X29046D01*
Y11938D01*
X28784D01*
Y12098D01*
X28193D01*
Y11402D01*
X28784D01*
Y11562D01*
X29046D01*
Y10973D01*
X29854D01*
Y12134D01*
D02*
G37*
G36*
X32436Y11076D02*
X32364D01*
X32294Y11057D01*
X32231Y11021D01*
X32179Y10969D01*
X32143Y10906D01*
X32124Y10836D01*
Y10764D01*
X32143Y10694D01*
X32179Y10631D01*
X32231Y10579D01*
X32294Y10543D01*
X32364Y10524D01*
X32436D01*
X32506Y10543D01*
X32569Y10579D01*
X32621Y10631D01*
X32657Y10694D01*
X32676Y10764D01*
Y10836D01*
X32657Y10906D01*
X32621Y10969D01*
X32569Y11021D01*
X32506Y11057D01*
X32436Y11076D01*
D02*
G37*
G36*
Y10076D02*
X32364D01*
X32294Y10057D01*
X32231Y10021D01*
X32179Y9969D01*
X32143Y9906D01*
X32124Y9836D01*
Y9764D01*
X32143Y9694D01*
X32179Y9631D01*
X32231Y9579D01*
X32294Y9543D01*
X32364Y9524D01*
X32436D01*
X32506Y9543D01*
X32569Y9579D01*
X32621Y9631D01*
X32657Y9694D01*
X32676Y9764D01*
Y9836D01*
X32657Y9906D01*
X32621Y9969D01*
X32569Y10021D01*
X32506Y10057D01*
X32436Y10076D01*
D02*
G37*
G36*
X31784Y10184D02*
X31016D01*
Y9416D01*
X31784D01*
Y10184D01*
D02*
G37*
G36*
X26583Y9859D02*
X26016D01*
Y9241D01*
X26583D01*
Y9429D01*
X26721D01*
X26750Y9400D01*
X26815Y9373D01*
X26885D01*
X26950Y9400D01*
X27000Y9450D01*
X27027Y9515D01*
Y9585D01*
X27000Y9650D01*
X26950Y9700D01*
X26885Y9727D01*
X26815D01*
X26750Y9700D01*
X26721Y9671D01*
X26583D01*
Y9859D01*
D02*
G37*
G36*
X32436Y8626D02*
X32364D01*
X32294Y8607D01*
X32231Y8571D01*
X32179Y8519D01*
X32143Y8456D01*
X32124Y8386D01*
Y8314D01*
X32143Y8244D01*
X32179Y8181D01*
X32231Y8129D01*
X32294Y8093D01*
X32364Y8074D01*
X32436D01*
X32506Y8093D01*
X32569Y8129D01*
X32621Y8181D01*
X32657Y8244D01*
X32676Y8314D01*
Y8386D01*
X32657Y8456D01*
X32621Y8519D01*
X32569Y8571D01*
X32506Y8607D01*
X32436Y8626D01*
D02*
G37*
G36*
X22524Y8889D02*
X21756D01*
Y7511D01*
X22524D01*
Y8889D01*
D02*
G37*
G36*
X32436Y7626D02*
X32364D01*
X32294Y7607D01*
X32231Y7571D01*
X32179Y7519D01*
X32143Y7456D01*
X32124Y7386D01*
Y7314D01*
X32143Y7244D01*
X32179Y7181D01*
X32231Y7129D01*
X32294Y7093D01*
X32364Y7074D01*
X32436D01*
X32506Y7093D01*
X32569Y7129D01*
X32621Y7181D01*
X32657Y7244D01*
X32676Y7314D01*
Y7386D01*
X32657Y7456D01*
X32621Y7519D01*
X32569Y7571D01*
X32506Y7607D01*
X32436Y7626D01*
D02*
G37*
G36*
Y6626D02*
X32364D01*
X32294Y6607D01*
X32231Y6571D01*
X32179Y6519D01*
X32143Y6456D01*
X32124Y6386D01*
Y6314D01*
X32143Y6244D01*
X32179Y6181D01*
X32231Y6129D01*
X32294Y6093D01*
X32364Y6074D01*
X32436D01*
X32506Y6093D01*
X32569Y6129D01*
X32621Y6181D01*
X32657Y6244D01*
X32676Y6314D01*
Y6386D01*
X32657Y6456D01*
X32621Y6519D01*
X32569Y6571D01*
X32506Y6607D01*
X32436Y6626D01*
D02*
G37*
G36*
X31793Y5476D02*
X31182D01*
Y5348D01*
X31023D01*
X30994Y5377D01*
X30929Y5404D01*
X30858D01*
X30793Y5377D01*
X30743Y5327D01*
X30717Y5262D01*
Y5191D01*
X30743Y5126D01*
X30793Y5076D01*
X30858Y5049D01*
X30929D01*
X30994Y5076D01*
X31023Y5105D01*
X31182D01*
Y4924D01*
X31793D01*
Y5476D01*
D02*
G37*
G36*
X30234Y4759D02*
X29667D01*
Y4541D01*
X29554D01*
X29550Y4550D01*
X29500Y4600D01*
X29435Y4627D01*
X29365D01*
X29300Y4600D01*
X29250Y4550D01*
X29223Y4485D01*
Y4415D01*
X29250Y4350D01*
X29300Y4300D01*
X29365Y4273D01*
X29435D01*
X29500Y4300D01*
X29550Y4350D01*
X29554Y4359D01*
X29667D01*
Y4141D01*
X30234D01*
Y4759D01*
D02*
G37*
G36*
X31033D02*
X30466D01*
Y4141D01*
X31033D01*
Y4359D01*
X31182D01*
Y4174D01*
X31793D01*
Y4726D01*
X31182D01*
Y4541D01*
X31033D01*
Y4759D01*
D02*
G37*
G36*
X24084Y5748D02*
X23493D01*
Y5052D01*
X23548D01*
X23566Y5009D01*
X23566D01*
Y4391D01*
X23566D01*
Y4359D01*
X23566D01*
Y3741D01*
X23632D01*
Y3529D01*
X23364D01*
X23330Y3522D01*
X23300Y3502D01*
X23281Y3473D01*
X23274Y3439D01*
Y3261D01*
X23281Y3227D01*
X23300Y3198D01*
X23330Y3178D01*
X23364Y3171D01*
X24081D01*
X24115Y3178D01*
X24145Y3198D01*
X24164Y3227D01*
X24171Y3261D01*
Y3439D01*
X24164Y3473D01*
X24145Y3502D01*
X24115Y3522D01*
X24081Y3529D01*
X23813D01*
Y3741D01*
X24133D01*
Y4359D01*
X24133D01*
Y4391D01*
X24133D01*
Y5009D01*
X24102D01*
X24084Y5052D01*
X24084D01*
Y5748D01*
D02*
G37*
G36*
X28434Y3259D02*
X27867D01*
Y3071D01*
X27679D01*
X27650Y3100D01*
X27585Y3127D01*
X27515D01*
X27450Y3100D01*
X27400Y3050D01*
X27373Y2985D01*
Y2915D01*
X27400Y2850D01*
X27450Y2800D01*
X27515Y2773D01*
X27585D01*
X27650Y2800D01*
X27679Y2829D01*
X27867D01*
Y2641D01*
X28434D01*
Y3259D01*
D02*
G37*
G36*
X28822Y4241D02*
X28751D01*
X28686Y4214D01*
X28636Y4164D01*
X28609Y4099D01*
Y4028D01*
X28636Y3963D01*
X28686Y3913D01*
X28697Y3909D01*
X28687Y3859D01*
X28666D01*
Y3259D01*
X28666D01*
Y2641D01*
X29233D01*
Y3241D01*
X29233D01*
Y3273D01*
X29279Y3292D01*
X29324Y3247D01*
X29354Y3228D01*
X29384Y3222D01*
Y2915D01*
X29857D01*
Y3227D01*
X29861Y3250D01*
X29857Y3273D01*
Y3585D01*
X29384D01*
Y3509D01*
X29338Y3490D01*
X29293Y3535D01*
X29264Y3555D01*
X29233Y3561D01*
Y3859D01*
X29085D01*
X29079Y3890D01*
X29059Y3919D01*
X28960Y4019D01*
X28963Y4028D01*
Y4099D01*
X28937Y4164D01*
X28887Y4214D01*
X28822Y4241D01*
D02*
G37*
G36*
X24834Y2709D02*
X24267D01*
Y2441D01*
X24171D01*
X24164Y2473D01*
X24145Y2502D01*
X24115Y2522D01*
X24081Y2529D01*
X23364D01*
X23330Y2522D01*
X23300Y2502D01*
X23281Y2473D01*
X23274Y2439D01*
Y2261D01*
X23281Y2227D01*
X23300Y2198D01*
X23330Y2178D01*
X23364Y2171D01*
X24081D01*
X24115Y2178D01*
X24145Y2198D01*
X24164Y2227D01*
X24171Y2259D01*
X24267D01*
Y2091D01*
X24834D01*
Y2709D01*
D02*
G37*
%LPD*%
G36*
X5479Y14477D02*
Y14099D01*
X5429Y14086D01*
X5413Y14113D01*
X5363Y14163D01*
X5303Y14198D01*
X5235Y14216D01*
X5165D01*
X5097Y14198D01*
X5037Y14163D01*
X4987Y14113D01*
X4979Y14098D01*
X4921D01*
X4913Y14113D01*
X4863Y14163D01*
X4803Y14198D01*
X4735Y14216D01*
X4665D01*
X4597Y14198D01*
X4537Y14163D01*
X4487Y14113D01*
X4452Y14053D01*
X4434Y13985D01*
Y13915D01*
X4422Y13899D01*
X4393D01*
X4328Y13872D01*
X4321Y13865D01*
X4271Y13886D01*
Y14487D01*
X4560Y14775D01*
X5181D01*
X5479Y14477D01*
D02*
G37*
G36*
X4328Y13571D02*
X4393Y13544D01*
X4409D01*
X4440Y13505D01*
X4434Y13485D01*
Y13415D01*
X4452Y13347D01*
X4487Y13287D01*
X4537Y13237D01*
X4552Y13229D01*
Y13171D01*
X4537Y13163D01*
X4487Y13113D01*
X4452Y13053D01*
X4434Y12985D01*
Y12915D01*
X4452Y12847D01*
X4487Y12787D01*
X4537Y12737D01*
X4552Y12729D01*
Y12671D01*
X4537Y12663D01*
X4487Y12613D01*
X4452Y12553D01*
X4434Y12485D01*
Y12415D01*
X4452Y12347D01*
X4487Y12287D01*
X4537Y12237D01*
X4552Y12229D01*
Y12171D01*
X4537Y12163D01*
X4487Y12113D01*
X4452Y12053D01*
X4434Y11985D01*
Y11915D01*
X4452Y11847D01*
X4458Y11837D01*
X4321Y11700D01*
X4271Y11721D01*
Y13558D01*
X4321Y13578D01*
X4328Y13571D01*
D02*
G37*
G36*
X6195Y11108D02*
Y10817D01*
X5900Y10521D01*
X5456D01*
X5448Y10553D01*
X5413Y10613D01*
X5363Y10663D01*
X5348Y10671D01*
Y10729D01*
X5363Y10737D01*
X5413Y10787D01*
X5437Y10829D01*
X5800D01*
X5800Y10829D01*
X5846Y10838D01*
X5886Y10864D01*
X6149Y11127D01*
X6195Y11108D01*
D02*
G37*
G36*
X6553Y10119D02*
Y9925D01*
X6200Y9571D01*
X5437D01*
X5413Y9613D01*
X5363Y9663D01*
X5348Y9671D01*
Y9729D01*
X5363Y9737D01*
X5413Y9787D01*
X5437Y9829D01*
X6147D01*
X6147Y9829D01*
X6193Y9838D01*
X6233Y9864D01*
X6507Y10138D01*
X6553Y10119D01*
D02*
G37*
G36*
X6732Y9695D02*
Y9504D01*
X6300Y9071D01*
X5437D01*
X5413Y9113D01*
X5363Y9163D01*
X5348Y9171D01*
Y9229D01*
X5363Y9237D01*
X5413Y9287D01*
X5437Y9329D01*
X6250D01*
X6250Y9329D01*
X6296Y9338D01*
X6336Y9364D01*
X6686Y9714D01*
X6732Y9695D01*
D02*
G37*
G36*
X6503Y8075D02*
Y7784D01*
X6457Y7765D01*
X6186Y8036D01*
X6146Y8062D01*
X6100Y8071D01*
X6100Y8071D01*
X5437D01*
X5413Y8113D01*
X5363Y8163D01*
X5348Y8171D01*
Y8229D01*
X5363Y8237D01*
X5413Y8287D01*
X5437Y8329D01*
X6250D01*
X6503Y8075D01*
D02*
G37*
G36*
X6324Y7554D02*
Y7213D01*
X6278Y7194D01*
X5936Y7536D01*
X5896Y7562D01*
X5850Y7571D01*
X5850Y7571D01*
X5437D01*
X5413Y7613D01*
X5363Y7663D01*
X5348Y7671D01*
Y7729D01*
X5363Y7737D01*
X5413Y7787D01*
X5437Y7829D01*
X6050D01*
X6324Y7554D01*
D02*
G37*
G36*
X4487Y4787D02*
X4537Y4737D01*
X4597Y4702D01*
X4665Y4684D01*
X4735D01*
X4803Y4702D01*
X4863Y4737D01*
X4884Y4758D01*
X4934Y4738D01*
Y4684D01*
X5029D01*
Y4350D01*
X4173Y3495D01*
X4122Y3514D01*
X4100Y3566D01*
X4050Y3616D01*
X4041Y3620D01*
Y4811D01*
X4091Y4821D01*
X4100Y4800D01*
X4150Y4750D01*
X4215Y4723D01*
X4285D01*
X4350Y4750D01*
X4400Y4800D01*
X4412Y4829D01*
X4463D01*
X4487Y4787D01*
D02*
G37*
G36*
X5429Y4100D02*
X3045Y1717D01*
X3005Y1748D01*
X3008Y1752D01*
X3034Y1849D01*
Y1951D01*
X3021Y1999D01*
X5236Y4214D01*
X5236Y4214D01*
X5262Y4254D01*
X5271Y4300D01*
X5271Y4300D01*
Y4684D01*
X5429D01*
Y4100D01*
D02*
G37*
G36*
X25755Y17117D02*
X25784Y17097D01*
X25819Y17090D01*
X27784D01*
X27796Y17064D01*
X27800Y17040D01*
X27705Y16945D01*
X27686Y16900D01*
Y16576D01*
X27574Y16464D01*
X25950D01*
X25905Y16445D01*
X25805Y16345D01*
X25786Y16300D01*
Y16191D01*
X25488D01*
X25341Y16338D01*
Y17350D01*
X25334Y17385D01*
X25314Y17414D01*
X25165Y17564D01*
X25135Y17583D01*
X25100Y17590D01*
X22509D01*
Y17783D01*
X22548Y17809D01*
X25062D01*
X25755Y17117D01*
D02*
G37*
G36*
X29000Y16900D02*
Y15250D01*
X28900Y15150D01*
X27600D01*
X27350Y14900D01*
Y14600D01*
X27200Y14450D01*
X25350D01*
X25200Y14600D01*
Y15550D01*
X25300Y15650D01*
X25700D01*
X25850Y15800D01*
Y16009D01*
X26212D01*
X26236Y15986D01*
X26265Y15966D01*
X26300Y15959D01*
X26335Y15966D01*
X26364Y15986D01*
X26384Y16015D01*
X26391Y16050D01*
X26384Y16085D01*
X26364Y16114D01*
X26314Y16164D01*
X26285Y16184D01*
X26250Y16191D01*
X25850D01*
Y16300D01*
X25950Y16400D01*
X27600D01*
X27750Y16550D01*
Y16900D01*
X27850Y17000D01*
X28900D01*
X29000Y16900D01*
D02*
G37*
G36*
X21091Y17697D02*
Y17216D01*
X21709D01*
Y17409D01*
X21891D01*
Y17216D01*
X22509D01*
Y17409D01*
X25063D01*
X25159Y17312D01*
Y16300D01*
X25166Y16265D01*
X25186Y16236D01*
X25386Y16036D01*
X25415Y16016D01*
X25450Y16009D01*
X25786D01*
Y15826D01*
X25674Y15714D01*
X25300D01*
X25255Y15695D01*
X25155Y15595D01*
X25136Y15550D01*
Y14600D01*
X25155Y14555D01*
X25249Y14460D01*
X25230Y14414D01*
X23700D01*
X23655Y14395D01*
X23639Y14379D01*
X23635Y14380D01*
X23591Y14402D01*
Y14800D01*
X23584Y14835D01*
X23564Y14864D01*
X23514Y14914D01*
X23485Y14934D01*
X23450Y14941D01*
X23377D01*
Y15047D01*
X22658D01*
Y14653D01*
X23377D01*
X23409Y14617D01*
Y14583D01*
X23377Y14547D01*
X22658D01*
Y14153D01*
X22659D01*
X22672Y14104D01*
X22650Y14095D01*
X22650Y14094D01*
X22648Y14093D01*
X22603Y14043D01*
X22595Y14021D01*
X22586Y14000D01*
Y13650D01*
X22605Y13605D01*
X22655Y13555D01*
X22700Y13536D01*
X22874D01*
X22886Y13524D01*
Y12750D01*
X22905Y12705D01*
X23055Y12555D01*
X23100Y12536D01*
X24924D01*
X25472Y11988D01*
X25451Y11938D01*
X22700D01*
X22628Y11923D01*
X22567Y11883D01*
X22072Y11388D01*
X21453D01*
X21188Y11652D01*
X21186Y11677D01*
X21195Y11710D01*
X21200Y11722D01*
X21209Y11731D01*
Y11744D01*
X21214Y11756D01*
Y13420D01*
X21264Y13444D01*
X21315Y13423D01*
X21385D01*
X21450Y13450D01*
X21500Y13500D01*
X21527Y13565D01*
Y13635D01*
X21500Y13700D01*
X21450Y13750D01*
X21385Y13777D01*
X21315D01*
X21305Y13773D01*
X21269Y13809D01*
X21242Y13828D01*
Y14047D01*
X21236D01*
X21226Y14097D01*
X21245Y14105D01*
X21295Y14155D01*
X21314Y14200D01*
Y14550D01*
X21295Y14595D01*
X21274Y14617D01*
X21242Y14653D01*
Y15047D01*
X20523D01*
Y14664D01*
X20431D01*
X20411Y14714D01*
X20414Y14717D01*
X20434Y14747D01*
X20441Y14782D01*
Y17112D01*
X21045Y17716D01*
X21091Y17697D01*
D02*
G37*
G36*
X29309Y16794D02*
Y15935D01*
X29316Y15900D01*
X29336Y15871D01*
X29371Y15836D01*
X29400Y15816D01*
X29435Y15809D01*
X29902D01*
Y15695D01*
X31059D01*
Y15605D01*
X29902D01*
Y15195D01*
X31064D01*
Y15259D01*
X31115D01*
X31150Y15266D01*
X31179Y15286D01*
X31214Y15321D01*
X31234Y15350D01*
X31241Y15385D01*
Y16005D01*
X31284Y16043D01*
X31309Y16037D01*
Y15150D01*
X31316Y15115D01*
X31336Y15086D01*
X31436Y14986D01*
X31465Y14966D01*
X31500Y14959D01*
X31759D01*
Y13446D01*
X31709Y13432D01*
X31707Y13436D01*
X31636Y13507D01*
X31548Y13558D01*
X31451Y13584D01*
X31349D01*
X31252Y13558D01*
X31164Y13507D01*
X31095Y13438D01*
X29854D01*
Y13827D01*
X29764D01*
X29756Y13877D01*
X29817Y13917D01*
X30001Y14102D01*
X30042Y14162D01*
X30056Y14233D01*
X30063Y14237D01*
X30113Y14287D01*
X30148Y14347D01*
X30166Y14415D01*
Y14485D01*
X30148Y14553D01*
X30113Y14613D01*
X30063Y14663D01*
X30003Y14698D01*
X29935Y14716D01*
X29865D01*
X29797Y14698D01*
X29737Y14663D01*
X29687Y14613D01*
X29679Y14598D01*
X29621D01*
X29613Y14613D01*
X29563Y14663D01*
X29503Y14698D01*
X29435Y14716D01*
X29365D01*
X29297Y14698D01*
X29237Y14663D01*
X29216Y14642D01*
X29166Y14662D01*
Y14716D01*
X28634D01*
Y14238D01*
X28600D01*
X28528Y14223D01*
X28467Y14183D01*
X27714Y13429D01*
X27664Y13450D01*
Y14000D01*
X27645Y14045D01*
X27295Y14395D01*
X27295Y14395D01*
X27285Y14444D01*
X27395Y14555D01*
X27414Y14600D01*
Y14874D01*
X27626Y15086D01*
X28900D01*
X28945Y15105D01*
X29045Y15205D01*
X29064Y15250D01*
Y16900D01*
X29045Y16945D01*
X28950Y17040D01*
X28954Y17064D01*
X28966Y17090D01*
X29013D01*
X29309Y16794D01*
D02*
G37*
G36*
X15784Y13837D02*
Y13377D01*
X15780Y13373D01*
X15738Y13353D01*
X15512Y13578D01*
X15483Y13598D01*
X15448Y13605D01*
X12362D01*
X12352Y13603D01*
X12292Y13627D01*
X12222D01*
X12191Y13614D01*
X12141Y13648D01*
Y13859D01*
X12504Y14222D01*
X15399D01*
X15784Y13837D01*
D02*
G37*
G36*
X15976Y12857D02*
X15957Y12811D01*
X13380D01*
X13361Y12857D01*
X13419Y12915D01*
X13456D01*
X13464Y12917D01*
X13959D01*
Y13423D01*
X15410D01*
X15976Y12857D01*
D02*
G37*
G36*
X27600Y14000D02*
Y12300D01*
X27300Y12000D01*
X27135D01*
X27069Y12038D01*
X26991Y12059D01*
X26909D01*
X26831Y12038D01*
X26765Y12000D01*
X25550D01*
X24950Y12600D01*
X23100D01*
X22950Y12750D01*
Y13550D01*
X22900Y13600D01*
X22700D01*
X22650Y13650D01*
Y14000D01*
X22695Y14050D01*
X23565D01*
X23600Y14085D01*
Y14250D01*
X23700Y14350D01*
X27250D01*
X27600Y14000D01*
D02*
G37*
G36*
X21250Y14550D02*
Y14200D01*
X21200Y14150D01*
X20500D01*
X20450Y14100D01*
X20450Y13650D01*
X20550Y13550D01*
X21100Y13550D01*
X21150Y13500D01*
Y11756D01*
X21104Y11736D01*
X21025Y11815D01*
X21024Y11822D01*
X20983Y11883D01*
X20922Y11923D01*
X20850Y11938D01*
X20779Y11923D01*
X20718Y11883D01*
X20677Y11822D01*
X20663Y11750D01*
Y11724D01*
X20677Y11653D01*
X20718Y11592D01*
X20913Y11396D01*
X20894Y11350D01*
X20500D01*
X20400Y11450D01*
Y12900D01*
X20050Y13250D01*
Y14250D01*
X20400Y14600D01*
X21200D01*
X21250Y14550D01*
D02*
G37*
G36*
X25100Y10900D02*
Y8850D01*
X25000Y8750D01*
X24300D01*
X24200Y8850D01*
Y8984D01*
X24660D01*
X24706Y8993D01*
X24746Y9020D01*
X24772Y9059D01*
X24781Y9106D01*
X24772Y9152D01*
X24746Y9191D01*
X24746Y9191D01*
X24735Y9202D01*
X24696Y9228D01*
X24650Y9237D01*
X24603Y9228D01*
X24602Y9227D01*
X24200D01*
Y10900D01*
X24400Y11100D01*
X24487D01*
Y10750D01*
X24500Y10688D01*
X24535Y10635D01*
X24588Y10600D01*
X24650Y10588D01*
X24712Y10600D01*
X24764Y10635D01*
X24799Y10688D01*
X24812Y10750D01*
Y11100D01*
X24900D01*
X25100Y10900D01*
D02*
G37*
G36*
X12490Y11942D02*
X12471Y11896D01*
X11958D01*
Y11659D01*
Y11266D01*
Y10872D01*
Y10478D01*
Y10085D01*
Y9691D01*
Y9297D01*
Y8904D01*
Y8481D01*
X11935Y8466D01*
X11727Y8258D01*
X11677Y8279D01*
Y8285D01*
X11650Y8350D01*
X11600Y8400D01*
X11591Y8404D01*
Y12773D01*
X11620Y12788D01*
X11641Y12791D01*
X12490Y11942D01*
D02*
G37*
G36*
X25850Y10200D02*
Y7900D01*
X25800Y7850D01*
X23850Y7850D01*
X23800Y7900D01*
Y8450D01*
X23850Y8500D01*
X25100Y8500D01*
X25200Y8600D01*
Y10200D01*
X25250Y10250D01*
X25800D01*
X25850Y10200D01*
D02*
G37*
G36*
X13259Y11172D02*
Y7635D01*
X13213Y7615D01*
X12727Y8102D01*
X12697Y8121D01*
X12663Y8128D01*
X12656D01*
Y8510D01*
Y8904D01*
Y9297D01*
Y9691D01*
Y10085D01*
Y10478D01*
Y10872D01*
Y11266D01*
Y11710D01*
X12703Y11729D01*
X13259Y11172D01*
D02*
G37*
G36*
X13109Y7462D02*
Y7188D01*
X12779Y6857D01*
X12759Y6828D01*
X12752Y6793D01*
Y5757D01*
X12759Y5722D01*
X12779Y5693D01*
X13335Y5137D01*
X13315Y5091D01*
X11456D01*
X10610Y5937D01*
Y6879D01*
X10641Y6916D01*
X11259D01*
Y7109D01*
X11500D01*
X11534Y7116D01*
X11564Y7135D01*
X11784Y7356D01*
X11958D01*
Y7329D01*
X12656D01*
Y7329D01*
X12701Y7342D01*
X12706Y7343D01*
X12750Y7300D01*
X12815Y7273D01*
X12885D01*
X12950Y7300D01*
X13000Y7350D01*
X13027Y7415D01*
Y7474D01*
X13061Y7495D01*
X13073Y7498D01*
X13109Y7462D01*
D02*
G37*
G36*
X15859Y5450D02*
X15866Y5415D01*
X15886Y5386D01*
X15985Y5287D01*
X15965Y5241D01*
X13488D01*
X12934Y5794D01*
Y6019D01*
X13193D01*
X13212Y5969D01*
X13187Y5910D01*
Y5839D01*
X13214Y5774D01*
X13264Y5724D01*
X13329Y5698D01*
X13400D01*
X13465Y5724D01*
X13505Y5694D01*
X13550Y5650D01*
X13615Y5623D01*
X13685D01*
X13750Y5650D01*
X13800Y5700D01*
X13827Y5765D01*
Y5835D01*
X13800Y5900D01*
X13762Y5939D01*
X13760Y5980D01*
X13795Y6019D01*
X15859D01*
Y5450D01*
D02*
G37*
G36*
X21764Y4409D02*
X21737Y4359D01*
X21317D01*
Y3741D01*
X21687D01*
Y3529D01*
X21419D01*
X21385Y3522D01*
X21355Y3502D01*
X21336Y3473D01*
X21329Y3441D01*
X19319D01*
X18397Y4363D01*
X18416Y4409D01*
X21764D01*
X21764Y4409D01*
D02*
G37*
%LPC*%
G36*
X21709Y16984D02*
X21091D01*
Y16417D01*
X21310D01*
Y16309D01*
X21117D01*
Y16061D01*
X21086Y16055D01*
X21057Y16035D01*
X20904Y15883D01*
X20885Y15853D01*
X20878Y15819D01*
Y15547D01*
X20523D01*
Y15153D01*
X21242D01*
Y15547D01*
X21059D01*
Y15743D01*
X21067Y15748D01*
X21117Y15721D01*
Y15691D01*
X21684D01*
Y16309D01*
X21491D01*
Y16417D01*
X21709D01*
Y16610D01*
X21891D01*
Y16417D01*
X22509D01*
Y16984D01*
X21891D01*
Y16791D01*
X21709D01*
Y16984D01*
D02*
G37*
G36*
X22834Y13309D02*
X22267D01*
Y12691D01*
X22375D01*
X22396Y12641D01*
X22373Y12585D01*
Y12515D01*
X22400Y12450D01*
X22450Y12400D01*
X22515Y12373D01*
X22585D01*
X22650Y12400D01*
X22700Y12450D01*
X22727Y12515D01*
Y12585D01*
X22704Y12641D01*
X22725Y12691D01*
X22834D01*
Y13309D01*
D02*
G37*
G36*
X25500Y8971D02*
X25454Y8962D01*
X25415Y8936D01*
X25415Y8936D01*
X25388Y8896D01*
X25379Y8850D01*
X25388Y8804D01*
X25415Y8764D01*
X25454Y8738D01*
X25500Y8729D01*
X25547Y8738D01*
X25586Y8764D01*
X25586Y8764D01*
X25613Y8804D01*
X25622Y8850D01*
X25613Y8896D01*
X25586Y8936D01*
X25547Y8962D01*
X25500Y8971D01*
D02*
G37*
G36*
X25500Y8322D02*
X25454Y8313D01*
X25415Y8286D01*
X25388Y8247D01*
X25379Y8200D01*
X25388Y8154D01*
X25415Y8115D01*
X25415Y8114D01*
X25454Y8088D01*
X25501Y8079D01*
X25547Y8088D01*
X25587Y8114D01*
X25613Y8154D01*
X25622Y8200D01*
X25613Y8246D01*
X25587Y8286D01*
X25586Y8286D01*
X25547Y8313D01*
X25500Y8322D01*
D02*
G37*
G36*
X12656Y7171D02*
X11958D01*
Y7144D01*
X11729D01*
X11694Y7137D01*
X11665Y7117D01*
X11581Y7033D01*
X11341D01*
Y6466D01*
X11959D01*
Y6935D01*
X12209D01*
Y6804D01*
X12200Y6800D01*
X12150Y6750D01*
X12123Y6685D01*
Y6615D01*
X12150Y6550D01*
X12200Y6500D01*
X12265Y6473D01*
X12335D01*
X12400Y6500D01*
X12450Y6550D01*
X12477Y6615D01*
Y6685D01*
X12450Y6750D01*
X12400Y6800D01*
X12391Y6804D01*
Y6935D01*
X12656D01*
Y7171D01*
D02*
G37*
%LPD*%
D18*
X24650Y10750D02*
Y11283D01*
X24767Y11400D01*
X25500D01*
D19*
X12050Y13350D02*
Y13896D01*
X12257Y13450D02*
X12298D01*
X12050Y13350D02*
X12250Y13150D01*
X12050Y13896D02*
X12467Y14313D01*
X15437D01*
X16338Y12462D02*
Y12912D01*
X16130Y13356D02*
X16535Y12951D01*
X15875Y13375D02*
X16338Y12912D01*
X16130Y13356D02*
Y13877D01*
X15875Y13375D02*
Y13875D01*
X15437Y14313D02*
X15875Y13875D01*
X11500Y13700D02*
X12351Y14551D01*
X11700Y13715D02*
X12417Y14432D01*
X19951Y14551D02*
X20200Y14800D01*
X12417Y14432D02*
X20001D01*
X20350Y14782D01*
X12351Y14551D02*
X19951D01*
X15448Y13514D02*
X16141Y12821D01*
X12362Y13514D02*
X15448D01*
X16141Y12462D02*
Y12821D01*
X12298Y13450D02*
X12362Y13514D01*
X11700Y12860D02*
X13350Y11210D01*
X11700Y12860D02*
Y13715D01*
X17482Y5150D02*
X19282Y3350D01*
X17463Y5000D02*
X20613Y1850D01*
X18300Y4500D02*
X21850D01*
X20745Y1550D02*
X22265D01*
X19282Y3350D02*
X21778D01*
X13450Y5150D02*
X17482D01*
X20613Y1850D02*
X21778D01*
X16100Y5300D02*
X17500D01*
X17445Y4850D02*
X20745Y1550D01*
X17500Y5300D02*
X18300Y4500D01*
X11400Y4850D02*
X17445D01*
X11418Y5000D02*
X17463D01*
X13182Y12807D02*
X13381Y13006D01*
X13182Y12468D02*
Y12807D01*
X13381Y13006D02*
X13456D01*
X13182Y12468D02*
X13188Y12462D01*
X13456Y13006D02*
X13650Y13200D01*
X17934Y10682D02*
Y10816D01*
X17900Y10850D02*
Y11050D01*
Y10850D02*
X17934Y10816D01*
Y10682D02*
X18020Y10596D01*
X17900Y11050D02*
X18037Y11187D01*
X18400D01*
X19750Y11600D02*
X19800Y11650D01*
X19750Y11326D02*
Y11600D01*
X19350Y10900D02*
Y10926D01*
X19750Y11326D01*
X18400Y10990D02*
X19260D01*
X19350Y10900D01*
X18978Y10322D02*
Y10348D01*
X18400Y10596D02*
X18427Y10570D01*
X18730D01*
X18880Y10420D01*
X18906D02*
X18978Y10348D01*
X18880Y10420D02*
X18906D01*
X18020Y10596D02*
X18400D01*
X19200Y7150D02*
Y7800D01*
Y6674D02*
Y7150D01*
X19006Y6480D02*
X19200Y6674D01*
X11476Y6800D02*
X11729Y7053D01*
X18787Y11187D02*
X19050Y11450D01*
X18071Y11974D02*
X18082Y11963D01*
X17864Y11641D02*
X18092Y11413D01*
X17864Y11641D02*
Y12207D01*
X18092Y11413D02*
X18371D01*
X18400Y11384D01*
X17864Y12207D02*
X18114Y12457D01*
X18443D01*
X18450Y12450D01*
X18200Y12250D02*
X18207Y12243D01*
X18629D01*
X18082Y11864D02*
Y11963D01*
Y11864D02*
X18169Y11778D01*
X16440Y13229D02*
Y13850D01*
X17933Y12816D02*
X17966Y12850D01*
X16440Y13229D02*
X16731Y12937D01*
X17716Y12693D02*
X17839Y12816D01*
X17933D01*
X18629Y12243D02*
X18779Y12093D01*
X18450Y12450D02*
X18484Y12416D01*
X18169Y11778D02*
X18400D01*
X18708Y11610D02*
X18779Y11682D01*
Y12093D01*
X18429Y11610D02*
X18708D01*
X19200Y8450D02*
X19227Y8423D01*
X19581D01*
X18400Y9022D02*
X18878D01*
X19045Y8855D01*
Y8605D02*
Y8855D01*
Y8605D02*
X19200Y8450D01*
X18842Y7800D02*
X19200D01*
X18807Y7835D02*
Y7995D01*
Y7835D02*
X18842Y7800D01*
X18765Y8037D02*
X18807Y7995D01*
X18400Y8037D02*
X18765D01*
X19200Y7800D02*
Y8000D01*
X4000Y5448D02*
Y11250D01*
X4119Y5399D02*
Y10869D01*
X4000Y11250D02*
X4700Y11950D01*
X4119Y10869D02*
X4700Y11450D01*
X3650Y3650D02*
Y4761D01*
X3531Y4811D02*
X4119Y5399D01*
X3950Y3466D02*
Y4893D01*
X3650Y4761D02*
X4238Y5349D01*
X3531Y4238D02*
Y4811D01*
X4357Y5300D02*
Y10357D01*
X3200Y4200D02*
Y4648D01*
X4238Y5349D02*
Y10488D01*
X3200Y4648D02*
X4000Y5448D01*
X3950Y4893D02*
X4357Y5300D01*
X3320Y4027D02*
X3531Y4238D01*
X4357Y10357D02*
X4438Y10438D01*
X4238Y10488D02*
X4700Y10950D01*
X4688Y10438D02*
X4700Y10450D01*
X4438Y10438D02*
X4688D01*
X3320Y3820D02*
Y4027D01*
X3319Y3819D02*
X3320Y3820D01*
X32117Y15400D02*
X32434D01*
X32100D02*
X32117D01*
X20200Y14800D02*
Y17200D01*
X20350Y14782D02*
Y17150D01*
X16647Y13279D02*
X16928Y12997D01*
Y12462D02*
Y12997D01*
X16647Y13279D02*
Y13602D01*
X16900Y13450D02*
X16903D01*
X17125Y13228D01*
Y12462D02*
Y13228D01*
X17482Y10316D02*
X17595Y10203D01*
X17434Y10316D02*
X17482D01*
X17595Y10203D02*
X18400D01*
X17785Y10413D02*
X17791Y10406D01*
X18345D02*
X18351Y10400D01*
X17791Y10406D02*
X18345D01*
X17850Y9600D02*
X17856Y9606D01*
X18394D01*
X13385Y5895D02*
Y6369D01*
X13364Y5875D02*
X13385Y5895D01*
X13650Y5800D02*
Y5980D01*
X16200Y5800D02*
Y5848D01*
X16141Y5907D02*
Y6369D01*
Y5907D02*
X16200Y5848D01*
X15950Y5450D02*
Y6363D01*
X15944Y6369D02*
X15950Y6363D01*
Y5450D02*
X16100Y5300D01*
X16338Y5960D02*
Y6369D01*
Y5960D02*
X16495Y5802D01*
Y5800D02*
Y5802D01*
X10400Y5850D02*
X11400Y4850D01*
X29550Y1600D02*
X29620D01*
X32550Y14900D02*
Y15284D01*
X31400Y15150D02*
Y16115D01*
X31500Y15050D02*
X31815D01*
X31400Y15150D02*
X31500Y15050D01*
X31200Y16150D02*
X31365D01*
X31400Y16115D01*
X31815Y15050D02*
X31850Y15015D01*
Y13303D02*
Y15015D01*
Y13303D02*
X32000Y13153D01*
X30950Y11600D02*
X31965D01*
X32000Y11635D02*
Y13153D01*
X31965Y11600D02*
X32000Y11635D01*
X31150Y16200D02*
X31200Y16150D01*
X28995Y3620D02*
X29007Y3608D01*
X28767Y4083D02*
X28995Y3855D01*
X29620Y3250D02*
X29770D01*
X29600D02*
X29620D01*
X32434Y15400D02*
X32550Y15284D01*
X31000Y6350D02*
X31400D01*
X30400Y6950D02*
X31000Y6350D01*
X28950Y3550D02*
X29028Y3471D01*
X29229D02*
X29388Y3312D01*
X29559D02*
X29620Y3250D01*
X29028Y3471D02*
X29229D01*
X29388Y3312D02*
X29559D01*
X26600Y1600D02*
X27169Y2169D01*
X25327Y1600D02*
X26600D01*
X27169Y2169D02*
Y6669D01*
X30466Y15350D02*
X31115D01*
X31150Y15385D02*
Y16026D01*
X31115Y15350D02*
X31150Y15385D01*
X30524Y17301D02*
X31115D01*
X31150Y17266D01*
Y16200D02*
Y17266D01*
X30475Y17350D02*
X30524Y17301D01*
X29565Y16135D02*
X31042D01*
X29520Y16180D02*
X29565Y16135D01*
X29435Y15900D02*
X30428D01*
X29400Y15935D02*
Y16832D01*
Y15935D02*
X29435Y15900D01*
X31042Y16135D02*
X31150Y16026D01*
X29520Y16180D02*
Y16880D01*
X29051Y17181D02*
X29400Y16832D01*
X29100Y17300D02*
X29520Y16880D01*
X25819Y17181D02*
X29051D01*
X25900Y17300D02*
X29100D01*
X25100Y17900D02*
X25819Y17181D01*
X27169Y6669D02*
X27450Y6950D01*
X29400D01*
X28449Y8117D02*
X29450D01*
X27050Y4250D02*
Y6718D01*
X28449Y8117D01*
X11450Y6800D02*
X11476D01*
X12300Y6650D02*
Y7046D01*
X18400Y11384D02*
X18429Y11413D01*
X18400Y11187D02*
X18787D01*
X12848Y7448D02*
X12850Y7450D01*
X12307Y7447D02*
X12309Y7448D01*
X12848D01*
X12843Y5757D02*
Y6793D01*
X13200Y7150D01*
Y7500D01*
X12991Y6741D02*
X13350Y7100D01*
X12991Y6369D02*
Y6741D01*
X13350Y7100D02*
Y11210D01*
X12843Y5757D02*
X13450Y5150D01*
X12663Y8037D02*
X13200Y7500D01*
X29400Y4450D02*
X29950D01*
X25450Y16100D02*
X26250D01*
X26300Y16050D01*
X12300Y7046D02*
X12307Y7053D01*
X12648Y12550D02*
X12736Y12462D01*
X12600Y12550D02*
X12648D01*
X12736Y12462D02*
X12991D01*
X17300Y11950D02*
X17311Y11961D01*
Y12451D01*
X17322Y12462D02*
Y12971D01*
X17311Y12451D02*
X17322Y12462D01*
X17745Y6400D02*
X18300D01*
X17716Y6369D02*
Y6371D01*
X17745Y6400D01*
X18300D02*
X18900D01*
X18980Y6480D02*
X19006D01*
X18900Y6400D02*
X18980Y6480D01*
X17950Y5650D02*
Y5676D01*
X13300Y11750D02*
Y11798D01*
X13188Y11910D02*
Y12462D01*
Y11910D02*
X13300Y11798D01*
X11557Y7960D02*
X12000Y8402D01*
X10519Y7569D02*
X10791Y7841D01*
X10710Y7960D02*
X11557D01*
X10791Y7841D02*
X12307D01*
X10400Y7650D02*
X10710Y7960D01*
X11550Y7600D02*
X11832D01*
X10400Y5850D02*
Y7650D01*
X10519Y5899D02*
Y7569D01*
Y5899D02*
X11418Y5000D01*
X30850Y11500D02*
X30950Y11600D01*
X30425Y9125D02*
X30850Y9550D01*
Y11500D01*
X29374Y9125D02*
X30425D01*
X11832Y7600D02*
X11875Y7644D01*
X12307D01*
X11500Y8250D02*
Y13700D01*
X25150Y18050D02*
X25900Y17300D01*
X20200Y17200D02*
X21050Y18050D01*
X25150D01*
X21100Y17900D02*
X25100D01*
X20350Y17150D02*
X21100Y17900D01*
X21850Y4500D02*
X21975Y4375D01*
Y3775D02*
Y4375D01*
Y3775D02*
X22550Y3200D01*
Y1800D02*
Y3200D01*
X12307Y8037D02*
X12663D01*
X22265Y1550D02*
X22300Y1585D01*
Y2200D01*
X21778Y2350D02*
X21839Y2288D01*
X22212D02*
X22300Y2200D01*
X21839Y2288D02*
X22212D01*
X21235Y2350D02*
X21778D01*
X21200Y2385D02*
Y2815D01*
X28649Y8400D02*
X29374Y9125D01*
X28350Y8400D02*
X28649D01*
X15749Y11801D02*
Y12460D01*
Y11801D02*
X15750Y11800D01*
X15747Y12462D02*
X15749Y12460D01*
X18394Y9606D02*
X18400Y9612D01*
X18893Y9480D02*
Y9758D01*
X18928Y9793D01*
X19460D01*
X18858Y9444D02*
X18893Y9480D01*
X18429Y9444D02*
X18858D01*
X19706Y9547D02*
X20397D01*
X19460Y9793D02*
X19706Y9547D01*
X28995Y3620D02*
Y3855D01*
X28950Y3550D02*
X29007Y3608D01*
X21235Y2850D02*
X21778D01*
X21200Y2815D02*
X21235Y2850D01*
X21200Y2385D02*
X21235Y2350D01*
X22550Y1800D02*
X23600Y750D01*
X28550D02*
X28730Y930D01*
X23600Y750D02*
X28550D01*
X28950Y1124D02*
Y1150D01*
X28755Y930D02*
X28950Y1124D01*
X28730Y930D02*
X28755D01*
X17322Y12971D02*
X17330Y12979D01*
X28950Y1150D02*
X28950Y1150D01*
Y1800D01*
X29350D01*
X29550Y1600D01*
X12000Y8402D02*
X12278D01*
X12307Y8431D01*
X11500Y7200D02*
X11747Y7447D01*
X12307D01*
X10950Y7200D02*
X11500D01*
X30750Y4450D02*
X31487D01*
X28950Y2950D02*
Y3550D01*
X28950Y3550D01*
X24611Y3797D02*
X25088Y3320D01*
X25155D01*
X25350Y3126D01*
X24611Y3797D02*
Y3850D01*
X25350Y3100D02*
Y3126D01*
X21778Y3350D02*
Y3873D01*
X21600Y4050D02*
X21778Y3873D01*
X23789Y5400D02*
X23850Y5339D01*
Y4700D02*
Y5339D01*
Y4050D02*
Y4700D01*
X23722Y3350D02*
Y3923D01*
X23850Y4050D01*
X24326Y2850D02*
X24550Y3074D01*
Y3100D01*
X23722Y2850D02*
X24326D01*
X24500Y2350D02*
X24550Y2400D01*
X23722Y2350D02*
X24500D01*
X24650Y1600D02*
Y1653D01*
X25155Y2158D01*
Y2206D01*
X25350Y2400D01*
X26650Y3850D02*
X27050Y4250D01*
X25289Y3850D02*
X26650D01*
X29400Y6950D02*
X29450Y7000D01*
X29500Y6950D02*
X30400D01*
X29450Y7000D02*
X29500Y6950D01*
X29450Y8117D02*
X29567Y8000D01*
X30500D01*
X31050Y7450D02*
X31600D01*
X30500Y8000D02*
X31050Y7450D01*
X25250Y16300D02*
Y17350D01*
Y16300D02*
X25450Y16100D01*
X22200Y17500D02*
X25100D01*
X25250Y17350D01*
X21400Y17500D02*
X22200D01*
X21400Y17500D02*
X21400Y17500D01*
X20882Y13850D02*
X20987Y13745D01*
X21205D01*
X21350Y13600D01*
X22550Y12550D02*
Y13000D01*
X22550Y12550D02*
X22550Y12550D01*
X20969Y15436D02*
Y15819D01*
X21371Y15971D02*
X21400Y16000D01*
X21121Y15971D02*
X21371D01*
X20969Y15819D02*
X21121Y15971D01*
X21400Y16000D02*
Y16700D01*
X20882Y15350D02*
X20969Y15436D01*
X23018Y14850D02*
X23450D01*
X23500Y14385D02*
Y14800D01*
X23450Y14850D02*
X23500Y14800D01*
X23018Y14350D02*
X23465D01*
X23500Y14385D01*
X21400Y16700D02*
X21400Y16700D01*
X21400Y16700D02*
X22200D01*
X21400Y16700D02*
X21400Y16700D01*
X11729Y7053D02*
X12307D01*
X13582Y6369D02*
X13600Y6351D01*
Y6030D02*
X13650Y5980D01*
X13600Y6030D02*
Y6351D01*
X18400Y11581D02*
X18429Y11610D01*
X17716Y12462D02*
Y12693D01*
X17330Y13006D02*
X17524Y13200D01*
X17550D01*
X17330Y12979D02*
Y13006D01*
X16731Y12462D02*
Y12937D01*
X16535Y12462D02*
Y12951D01*
X12991Y12462D02*
Y13159D01*
X12950Y13200D02*
X12991Y13159D01*
X17450Y13200D02*
X17472Y13178D01*
X20300Y8850D02*
X20400Y8950D01*
X19184Y9153D02*
X19194D01*
X19497Y8850D01*
X20300D01*
X20397Y9547D02*
X20400Y9550D01*
X18400Y9415D02*
X18429Y9444D01*
X18400Y9219D02*
X19119D01*
X19184Y9153D01*
X17716Y5910D02*
X17950Y5676D01*
X17716Y5910D02*
Y6369D01*
D20*
X13650Y14000D02*
D03*
Y13200D02*
D03*
X19800Y12450D02*
D03*
Y11650D02*
D03*
X19150Y12449D02*
D03*
Y11650D02*
D03*
X22200Y16700D02*
D03*
Y17500D02*
D03*
X17550Y14000D02*
D03*
Y13200D02*
D03*
X12950D02*
D03*
Y14000D02*
D03*
X26300Y16849D02*
D03*
Y16050D02*
D03*
X10950Y7200D02*
D03*
Y6400D02*
D03*
X11650Y5950D02*
D03*
Y6750D02*
D03*
X21400Y16700D02*
D03*
Y17500D02*
D03*
D21*
X20100Y10950D02*
D03*
X19300D02*
D03*
X19999Y8450D02*
D03*
X19200D02*
D03*
X23350Y13000D02*
D03*
X22550D02*
D03*
X19200Y7150D02*
D03*
X20000D02*
D03*
X28550Y11000D02*
D03*
X27750D02*
D03*
X23050Y4700D02*
D03*
X23850D02*
D03*
X19200Y6500D02*
D03*
X20000D02*
D03*
X23050Y4050D02*
D03*
X23850D02*
D03*
X19900Y10200D02*
D03*
X19100D02*
D03*
X28550Y10350D02*
D03*
X27750D02*
D03*
X21650Y13050D02*
D03*
X20850D02*
D03*
X21650Y11750D02*
D03*
X20850D02*
D03*
X18100Y5750D02*
D03*
X18900D02*
D03*
X28150Y1800D02*
D03*
X28950D02*
D03*
X28950Y1150D02*
D03*
X28150D02*
D03*
X24550Y3100D02*
D03*
X25350D02*
D03*
X21400Y9550D02*
D03*
X20600D02*
D03*
X28150Y3550D02*
D03*
X28950D02*
D03*
X22200Y16000D02*
D03*
X21400D02*
D03*
X28950Y2950D02*
D03*
X28150D02*
D03*
X29950Y4450D02*
D03*
X30750D02*
D03*
X21400Y8950D02*
D03*
X20600D02*
D03*
X21600Y4050D02*
D03*
X22400D02*
D03*
X19200Y7800D02*
D03*
X20000D02*
D03*
X25500Y9550D02*
D03*
X26300D02*
D03*
X24550Y2400D02*
D03*
X25350D02*
D03*
X26300Y8200D02*
D03*
X25501D02*
D03*
X21650Y12400D02*
D03*
X20850D02*
D03*
X23850Y10050D02*
D03*
X24650D02*
D03*
X23850Y10750D02*
D03*
X24650D02*
D03*
X26300Y8850D02*
D03*
X25500D02*
D03*
D22*
X18400Y7053D02*
D03*
Y7250D02*
D03*
Y7447D02*
D03*
Y7644D02*
D03*
Y7841D02*
D03*
Y8037D02*
D03*
Y8234D02*
D03*
Y8431D02*
D03*
Y8628D02*
D03*
Y8825D02*
D03*
Y9022D02*
D03*
Y9219D02*
D03*
Y9415D02*
D03*
Y9612D02*
D03*
Y9809D02*
D03*
Y10006D02*
D03*
Y10203D02*
D03*
Y10400D02*
D03*
Y10596D02*
D03*
Y10793D02*
D03*
Y10990D02*
D03*
Y11187D02*
D03*
Y11384D02*
D03*
Y11581D02*
D03*
Y11778D02*
D03*
X12307D02*
D03*
Y11581D02*
D03*
Y11384D02*
D03*
Y11187D02*
D03*
Y10990D02*
D03*
Y10793D02*
D03*
Y10596D02*
D03*
Y10400D02*
D03*
Y10203D02*
D03*
Y10006D02*
D03*
Y9809D02*
D03*
Y9612D02*
D03*
Y9415D02*
D03*
Y9219D02*
D03*
Y9022D02*
D03*
Y8825D02*
D03*
Y8628D02*
D03*
Y8431D02*
D03*
Y8234D02*
D03*
Y8037D02*
D03*
Y7841D02*
D03*
Y7644D02*
D03*
Y7447D02*
D03*
Y7250D02*
D03*
Y7053D02*
D03*
D23*
X17716Y12462D02*
D03*
X17519D02*
D03*
X17322D02*
D03*
X17125D02*
D03*
X16928D02*
D03*
X16731D02*
D03*
X16535D02*
D03*
X16338D02*
D03*
X16141D02*
D03*
X15944D02*
D03*
X15747D02*
D03*
X15550D02*
D03*
X15354D02*
D03*
X15157D02*
D03*
X14960D02*
D03*
X14763D02*
D03*
X14566D02*
D03*
X14369D02*
D03*
X14172D02*
D03*
X13976D02*
D03*
X13779D02*
D03*
X13582D02*
D03*
X13385D02*
D03*
X13188D02*
D03*
X12991D02*
D03*
Y6369D02*
D03*
X13188D02*
D03*
X13385D02*
D03*
X13582D02*
D03*
X13779D02*
D03*
X13976D02*
D03*
X14172D02*
D03*
X14369D02*
D03*
X14566D02*
D03*
X14763D02*
D03*
X14960D02*
D03*
X15157D02*
D03*
X15354D02*
D03*
X15550D02*
D03*
X15747D02*
D03*
X15944D02*
D03*
X16141D02*
D03*
X16338D02*
D03*
X16535D02*
D03*
X16731D02*
D03*
X16928D02*
D03*
X17125D02*
D03*
X17322D02*
D03*
X17519D02*
D03*
X17716D02*
D03*
D24*
X28350Y18134D02*
D03*
Y16166D02*
D03*
D25*
X29620Y1600D02*
D03*
X32180D02*
D03*
X29620Y3250D02*
D03*
X32180D02*
D03*
D26*
X29450Y11554D02*
D03*
Y13246D02*
D03*
X24300Y13804D02*
D03*
Y15496D02*
D03*
D27*
X29450Y8117D02*
D03*
Y9783D02*
D03*
Y7000D02*
D03*
Y5335D02*
D03*
D28*
X21950Y14600D02*
D03*
D29*
X23018Y15350D02*
D03*
Y14850D02*
D03*
Y14350D02*
D03*
Y13850D02*
D03*
X20882D02*
D03*
Y14350D02*
D03*
Y14850D02*
D03*
Y15350D02*
D03*
D30*
X23789Y5400D02*
D03*
X23111D02*
D03*
X25289Y3850D02*
D03*
X24611D02*
D03*
X25327Y1600D02*
D03*
X24650D02*
D03*
X27811Y11750D02*
D03*
X28489D02*
D03*
D31*
X31487Y4450D02*
D03*
X32413D02*
D03*
Y5200D02*
D03*
X31487D02*
D03*
D32*
X30483Y17400D02*
D03*
X32117D02*
D03*
X30483Y16900D02*
D03*
X32117D02*
D03*
X30483Y16400D02*
D03*
X32117D02*
D03*
X30483Y15900D02*
D03*
X32117D02*
D03*
Y15400D02*
D03*
X30483D02*
D03*
D33*
X23722Y3350D02*
D03*
Y2850D02*
D03*
Y2350D02*
D03*
Y1850D02*
D03*
X21778D02*
D03*
Y2350D02*
D03*
Y2850D02*
D03*
Y3350D02*
D03*
D34*
X22140Y8200D02*
D03*
D35*
X24660Y9106D02*
D03*
Y8200D02*
D03*
Y7294D02*
D03*
D36*
X19184Y9547D02*
D03*
X19716D02*
D03*
Y9153D02*
D03*
X19184D02*
D03*
D37*
X26500Y15041D02*
D03*
Y12659D02*
D03*
D62*
X20850Y11724D02*
X21375Y11200D01*
X22150D01*
X20850Y11724D02*
Y11750D01*
X7650Y14050D02*
X7750Y14150D01*
Y15900D01*
X8100Y16250D01*
X27811Y13261D02*
X28600Y14050D01*
X29684D02*
X29869Y14234D01*
Y14419D01*
X28600Y14050D02*
X29684D01*
X29869Y14419D02*
X29900Y14450D01*
X27811Y11750D02*
Y13261D01*
X26950Y11750D02*
X27811D01*
X22700D02*
X26950D01*
X27750Y10350D02*
Y11000D01*
X27781Y11031D02*
Y11719D01*
X27750Y11000D02*
X27781Y11031D01*
Y11719D02*
X27811Y11750D01*
X22150Y11200D02*
X22700Y11750D01*
X28489D02*
X29546D01*
X29550Y11754D01*
Y13446D02*
X29746Y13250D01*
X31600D01*
D63*
X4435Y15076D02*
X5305D01*
X4150Y14537D02*
X4509Y14897D01*
X5453Y15434D02*
X6137Y14750D01*
X3600Y14747D02*
X4287Y15434D01*
X4139Y15792D02*
X5602D01*
X4287Y15434D02*
X5453D01*
X5527Y15613D02*
X6316Y14824D01*
X3626Y15971D02*
X5676D01*
X3700Y16150D02*
X5750D01*
X3779Y14673D02*
X4361Y15255D01*
X2650Y16200D02*
X3397D01*
X3400Y14800D02*
X4213Y15613D01*
X5527D01*
X4361Y15255D02*
X5379D01*
X5305Y15076D02*
X5779Y14602D01*
X5379Y15255D02*
X5958Y14676D01*
X4509Y14897D02*
X5231D01*
X5602Y15792D02*
X6495Y14898D01*
X5676Y15971D02*
X6674Y14972D01*
X3958Y14598D02*
X4435Y15076D01*
X5750Y16150D02*
X6853Y15047D01*
X5231Y14897D02*
X5600Y14527D01*
X2650Y17200D02*
X3700Y16150D01*
X3397Y16200D02*
X3626Y15971D01*
X3547Y15200D02*
X4139Y15792D01*
X5600Y12750D02*
Y14527D01*
X5779Y12199D02*
Y14602D01*
X6316Y10766D02*
Y14824D01*
X6674Y9874D02*
Y14972D01*
X6137Y11287D02*
Y14750D01*
X5958Y11808D02*
Y14676D01*
X6495Y10299D02*
Y14898D01*
X6853Y9453D02*
Y15047D01*
X2650Y15200D02*
X3547D01*
X3958Y11758D02*
Y14598D01*
X3779Y12579D02*
Y14673D01*
X3600Y13450D02*
Y14747D01*
X3400Y14500D02*
Y14800D01*
X4150Y11697D02*
Y14537D01*
X3201Y14301D02*
X3400Y14500D01*
X2751Y14301D02*
X3201D01*
X2650Y14200D02*
X2751Y14301D01*
X3400Y12200D02*
X3779Y12579D01*
X3800Y11347D02*
X4150Y11697D01*
X3400Y11200D02*
X3958Y11758D01*
X3350Y13200D02*
X3600Y13450D01*
X2650Y13200D02*
X3350D01*
X2650Y12200D02*
X3400D01*
X3800Y10800D02*
Y11347D01*
X2650Y11200D02*
X3400D01*
X3200Y10200D02*
X3800Y10800D01*
X4250Y4900D02*
X4281D01*
X4331Y4950D01*
X4700D01*
X2650Y10200D02*
X3200D01*
X2421Y1245D02*
X2998D01*
X1000Y1400D02*
X2050Y350D01*
X1179Y1474D02*
X2124Y529D01*
X1358Y1548D02*
X2198Y708D01*
X1537Y1622D02*
X2272Y887D01*
X1716Y1697D02*
X2347Y1066D01*
X2495Y1424D02*
X2924D01*
X1895Y1771D02*
X2421Y1245D01*
X2074Y1845D02*
X2495Y1424D01*
X2650Y1900D02*
X2750D01*
X2074Y1845D02*
Y2968D01*
X1895Y1771D02*
Y3495D01*
X2074Y2968D02*
X2145Y3038D01*
X2050Y350D02*
X3369D01*
X2124Y529D02*
X3295D01*
X2198Y708D02*
X3221D01*
X2272Y887D02*
X3147D01*
X2347Y1066D02*
X3073D01*
X3147Y887D02*
X6087Y3828D01*
X3073Y1066D02*
X5908Y3902D01*
X2998Y1245D02*
X5729Y3976D01*
X2924Y1424D02*
X5550Y4050D01*
X2750Y1900D02*
X5150Y4300D01*
X3369Y350D02*
X6624Y3605D01*
X3295Y529D02*
X6445Y3679D01*
X3221Y708D02*
X6266Y3753D01*
X5150Y4300D02*
Y4970D01*
X5550Y4050D02*
Y5353D01*
X5729Y3976D02*
Y5601D01*
X5200Y5450D02*
X5227Y5423D01*
X5480D01*
X5908Y3902D02*
Y6172D01*
X6087Y3828D02*
Y6713D01*
X5480Y5423D02*
X5550Y5353D01*
X6266Y3753D02*
Y7034D01*
X5200Y6950D02*
X5850D01*
X5200Y7450D02*
X5850D01*
X5200Y6450D02*
X5630D01*
X5850Y6950D02*
X6087Y6713D01*
X6624Y3605D02*
Y8126D01*
X6445Y3679D02*
Y7605D01*
X6100Y7950D02*
X6445Y7605D01*
X5850Y7450D02*
X6266Y7034D01*
X2145Y3038D02*
X2438D01*
X2500Y3100D01*
X1537Y1622D02*
Y5137D01*
X1358Y1548D02*
Y5958D01*
X1895Y3495D02*
X2500Y4100D01*
X1358Y5958D02*
X2500Y7100D01*
X1179Y1474D02*
Y6779D01*
X1000Y1400D02*
Y7600D01*
X1716Y4316D02*
X2500Y5100D01*
X1179Y6779D02*
X2500Y8100D01*
X1537Y5137D02*
X2500Y6100D01*
X1000Y7600D02*
X2500Y9100D01*
X1716Y1697D02*
Y4316D01*
X5406Y5924D02*
X5729Y5601D01*
X5200Y5924D02*
X5406D01*
X5630Y6450D02*
X5908Y6172D01*
X5200Y7950D02*
X6100D01*
X5069Y10400D02*
X5950D01*
X5200Y9950D02*
X6147D01*
X6300Y8450D02*
X6624Y8126D01*
X6147Y9950D02*
X6495Y10299D01*
X5200Y8450D02*
X6300D01*
X6250Y9450D02*
X6674Y9874D01*
X5200Y9450D02*
X6250D01*
X5200Y8950D02*
X6350D01*
X6853Y9453D01*
X5200Y11950D02*
X5256Y12006D01*
X5950Y10400D02*
X6316Y10766D01*
X5200Y10950D02*
X5800D01*
X6137Y11287D01*
X5200Y11450D02*
X5600D01*
X5958Y11808D01*
X5256Y12006D02*
X5586D01*
X5779Y12199D01*
X5200Y12463D02*
X5313D01*
X5600Y12750D01*
X27800Y1150D02*
X28150D01*
X27550Y1400D02*
X27800Y1150D01*
X23906Y9106D02*
X24660D01*
X23500Y8700D02*
X23906Y9106D01*
X30894Y5226D02*
X31461D01*
X31487Y5200D02*
X31537Y5150D01*
X31461Y5226D02*
X31487Y5200D01*
X22200Y5069D02*
X22300Y4969D01*
Y4150D02*
X22400Y4050D01*
X22300Y4150D02*
Y4969D01*
X22200Y5069D02*
Y5100D01*
X22500Y5400D02*
X23111D01*
X22200Y5100D02*
X22500Y5400D01*
X27550Y2950D02*
X28150D01*
X26300Y9550D02*
X26850D01*
X25500Y8200D02*
X25501Y8200D01*
X25500Y8850D02*
X25500Y8850D01*
X24650Y9116D02*
X24660Y9106D01*
D64*
X2650Y1900D02*
D03*
Y2900D02*
D03*
Y3900D02*
D03*
Y4900D02*
D03*
Y5900D02*
D03*
Y6900D02*
D03*
Y7900D02*
D03*
Y16200D02*
D03*
Y15200D02*
D03*
Y14200D02*
D03*
Y13200D02*
D03*
Y12200D02*
D03*
Y11200D02*
D03*
Y10200D02*
D03*
X31400Y13200D02*
D03*
Y10800D02*
D03*
Y8350D02*
D03*
Y7350D02*
D03*
D65*
X2650Y8900D02*
D03*
Y17200D02*
D03*
X31400Y12200D02*
D03*
Y9800D02*
D03*
Y6350D02*
D03*
D66*
X4700Y14450D02*
D03*
X5200D02*
D03*
X4700Y13950D02*
D03*
X5200D02*
D03*
X4700Y13450D02*
D03*
X5200D02*
D03*
X4700Y12950D02*
D03*
X5200D02*
D03*
X4700Y12450D02*
D03*
X5200D02*
D03*
X4700Y11950D02*
D03*
X5200D02*
D03*
X4700Y11450D02*
D03*
X5200D02*
D03*
X4700Y10950D02*
D03*
X5200D02*
D03*
X4700Y10450D02*
D03*
X5200D02*
D03*
X4700Y9950D02*
D03*
X5200D02*
D03*
X4700Y9450D02*
D03*
X5200D02*
D03*
X4700Y8950D02*
D03*
X5200D02*
D03*
X4700Y8450D02*
D03*
X5200D02*
D03*
X4700Y7950D02*
D03*
X5200D02*
D03*
X4700Y7450D02*
D03*
X5200D02*
D03*
X4700Y6950D02*
D03*
X5200D02*
D03*
X4700Y6450D02*
D03*
X5200D02*
D03*
X4700Y5950D02*
D03*
X5200D02*
D03*
X4700Y5450D02*
D03*
X5200D02*
D03*
X4700Y4950D02*
D03*
X29900Y14450D02*
D03*
X29400D02*
D03*
D67*
X5200Y4950D02*
D03*
D68*
X28900Y14450D02*
D03*
D69*
X32400Y13200D02*
D03*
Y12200D02*
D03*
Y10800D02*
D03*
Y9800D02*
D03*
Y8350D02*
D03*
Y7350D02*
D03*
Y6350D02*
D03*
D70*
X12257Y13450D02*
D03*
X25500Y11400D02*
D03*
X17600Y11900D02*
D03*
X23131Y10195D02*
D03*
Y10645D02*
D03*
X19481Y13095D02*
D03*
X14300Y14000D02*
D03*
X17900Y10850D02*
D03*
X21050Y10300D02*
D03*
X18071Y11974D02*
D03*
X18200Y12250D02*
D03*
X16440Y13850D02*
D03*
X17966Y12850D02*
D03*
X16130Y13877D02*
D03*
X18450Y12450D02*
D03*
X19581Y8423D02*
D03*
X4429Y13722D02*
D03*
X4250Y4900D02*
D03*
X3319Y3819D02*
D03*
X3950Y3466D02*
D03*
X3200Y4200D02*
D03*
X3650Y3650D02*
D03*
X7650Y14050D02*
D03*
X8100Y16250D02*
D03*
X12250Y13150D02*
D03*
X16900Y13450D02*
D03*
X16647Y13602D02*
D03*
X17434Y10316D02*
D03*
X17785Y10413D02*
D03*
X17850Y9600D02*
D03*
X13364Y5875D02*
D03*
X13650Y5800D02*
D03*
X16200D02*
D03*
X16495D02*
D03*
X23117Y16059D02*
D03*
X27050Y15748D02*
D03*
X32550Y14900D02*
D03*
X27550Y1400D02*
D03*
X12300Y6650D02*
D03*
X23500Y8700D02*
D03*
X12850Y7450D02*
D03*
X12600Y6600D02*
D03*
X30894Y5226D02*
D03*
X28786Y4064D02*
D03*
X29400Y4450D02*
D03*
X24015Y8178D02*
D03*
X25650Y16750D02*
D03*
X12600Y12550D02*
D03*
X17300Y11950D02*
D03*
X18300Y6400D02*
D03*
X13300Y11750D02*
D03*
X11550Y7600D02*
D03*
X11500Y8250D02*
D03*
X28350Y8400D02*
D03*
X15750Y11800D02*
D03*
X27550Y2950D02*
D03*
X22200Y5100D02*
D03*
X22550Y4650D02*
D03*
X25515Y10078D02*
D03*
X26850Y9550D02*
D03*
X22100Y13350D02*
D03*
X23117Y16509D02*
D03*
X22150Y12050D02*
D03*
X22159Y12396D02*
D03*
X22150Y11700D02*
D03*
X21350Y13600D02*
D03*
X22550Y12550D02*
D03*
D71*
X26950Y11750D02*
D03*
M02*
