G04*
G04 #@! TF.GenerationSoftware,Altium Limited,Altium Designer,23.3.1 (30)*
G04*
G04 Layer_Color=65535*
%FSLAX24Y24*%
%MOIN*%
G70*
G04*
G04 #@! TF.SameCoordinates,0EE62ADF-7674-4DCD-90CA-8C9100EC0EC2*
G04*
G04*
G04 #@! TF.FilePolarity,Positive*
G04*
G01*
G75*
%ADD10C,0.0098*%
%ADD11C,0.0100*%
%ADD12C,0.0079*%
%ADD13C,0.0050*%
%ADD14C,0.0160*%
%ADD15C,0.0005*%
%ADD16C,0.0080*%
%ADD17C,0.0040*%
%ADD18C,0.0200*%
%ADD19C,0.0060*%
G36*
X1354Y17796D02*
Y16802D01*
X1165D01*
Y17796D01*
X1354D01*
D02*
G37*
G36*
X1356Y15751D02*
X1168D01*
Y16746D01*
X1356D01*
Y15751D01*
D02*
G37*
G36*
X33236Y17800D02*
Y15000D01*
X32764D01*
Y17800D01*
X33236D01*
D02*
G37*
G36*
X1354Y14750D02*
X1165D01*
Y15699D01*
X1354D01*
Y14750D01*
D02*
G37*
G36*
X30459Y14887D02*
Y14887D01*
X30671D01*
Y14012D01*
X30459D01*
Y14012D01*
X30171D01*
Y14887D01*
X30459D01*
D02*
G37*
G36*
X31000Y14012D02*
X30671D01*
Y14887D01*
X31000D01*
Y14012D01*
D02*
G37*
G36*
X1357Y14700D02*
Y13750D01*
X1168D01*
Y14700D01*
X1357D01*
D02*
G37*
G36*
X1107Y13750D02*
X707D01*
Y15700D01*
X1107D01*
Y13750D01*
D02*
G37*
G36*
X1356Y12640D02*
X1168D01*
Y13634D01*
X1356D01*
Y12640D01*
D02*
G37*
G36*
X1359Y12584D02*
Y11588D01*
X1171D01*
Y12584D01*
X1359D01*
D02*
G37*
G36*
X1111Y11585D02*
X695D01*
Y13635D01*
X1111D01*
Y11585D01*
D02*
G37*
G36*
X1357Y10587D02*
X1168D01*
Y11537D01*
X1357D01*
Y10587D01*
D02*
G37*
G36*
X1360Y9587D02*
X1171D01*
Y10537D01*
X1360D01*
Y9587D01*
D02*
G37*
G36*
X628Y9585D02*
X166D01*
Y13635D01*
X628D01*
Y9585D01*
D02*
G37*
G36*
X1116D02*
X702D01*
Y11535D01*
X1116D01*
Y9585D01*
D02*
G37*
G36*
X33439Y9185D02*
X33011D01*
D01*
X32634D01*
Y11415D01*
X33011D01*
X33439D01*
Y9185D01*
D02*
G37*
G36*
X1349Y8463D02*
X1160D01*
Y9457D01*
X1349D01*
Y8463D01*
D02*
G37*
G36*
X1352Y7412D02*
X1164D01*
Y8407D01*
X1352D01*
Y7412D01*
D02*
G37*
G36*
X1100Y7411D02*
X696D01*
Y9461D01*
X1100D01*
Y7411D01*
D02*
G37*
G36*
X33217Y8967D02*
Y5736D01*
X32636D01*
Y8967D01*
X33217D01*
D02*
G37*
G36*
X629Y5411D02*
X166D01*
Y9461D01*
X629D01*
Y5411D01*
D02*
G37*
G36*
X1352Y5411D02*
X1164D01*
Y6361D01*
X1352D01*
Y5411D01*
D02*
G37*
G36*
X1103Y5411D02*
X703D01*
Y7361D01*
X1103D01*
Y5411D01*
D02*
G37*
G36*
X33105Y4850D02*
X32700D01*
Y5550D01*
X33105D01*
Y4850D01*
D02*
G37*
G36*
X1352Y4300D02*
X1163D01*
Y5294D01*
X1352D01*
Y4300D01*
D02*
G37*
G36*
X33103Y4095D02*
X32698D01*
Y4795D01*
X33103D01*
Y4095D01*
D02*
G37*
G36*
X1355Y3249D02*
X1166D01*
Y4244D01*
X1355D01*
Y3249D01*
D02*
G37*
G36*
X33100Y2450D02*
X32550D01*
Y4050D01*
X33100D01*
Y2450D01*
D02*
G37*
G36*
X1353Y2248D02*
X1164D01*
Y3197D01*
X1353D01*
Y2248D01*
D02*
G37*
G36*
X33091Y809D02*
X32541D01*
Y2409D01*
X33091D01*
Y809D01*
D02*
G37*
G36*
X1661Y19211D02*
X1661Y19211D01*
X2613Y19200D01*
X32080D01*
X32080Y19200D01*
X32250D01*
X32350Y19202D01*
X32549Y19179D01*
X32744Y19130D01*
X32930Y19056D01*
X33106Y18959D01*
X33267Y18840D01*
X33411Y18700D01*
X33535Y18543D01*
X33638Y18371D01*
X33718Y18187D01*
X33773Y17994D01*
X33803Y17796D01*
X33804Y17696D01*
X33804D01*
X33804Y17696D01*
X33804Y17385D01*
X33769Y17350D01*
X33750D01*
X33750Y2600D01*
X33790Y2582D01*
Y2568D01*
X33796Y2555D01*
X33800Y2550D01*
X33800Y1600D01*
X33801Y1501D01*
X33778Y1305D01*
X33729Y1113D01*
X33656Y930D01*
X33559Y757D01*
X33441Y599D01*
X33303Y457D01*
X33148Y335D01*
X32978Y234D01*
X32796Y156D01*
X32606Y102D01*
X32410Y74D01*
X32311Y73D01*
X32311Y73D01*
X32311Y73D01*
X31164D01*
X31162Y162D01*
X4326D01*
X4314Y150D01*
X2123Y180D01*
X2027Y146D01*
X1829Y105D01*
X1627Y89D01*
X1424Y101D01*
X1225Y138D01*
X1032Y201D01*
X849Y289D01*
X679Y400D01*
X525Y532D01*
X390Y683D01*
X275Y851D01*
X184Y1032D01*
X150Y1127D01*
X150Y1883D01*
X162Y1885D01*
Y5296D01*
X624D01*
Y1262D01*
X698Y1260D01*
Y3196D01*
X1112D01*
Y1261D01*
X1167D01*
Y2198D01*
X1355D01*
Y1261D01*
X3910D01*
Y550D01*
X32526D01*
X32526Y550D01*
X32668D01*
X32900Y550D01*
X32953Y554D01*
X33052Y590D01*
X33133Y658D01*
X33186Y749D01*
X33200Y800D01*
X33200Y800D01*
X33200Y2550D01*
X33200Y2563D01*
X33209Y2588D01*
X33227Y2607D01*
X33237Y2612D01*
Y5487D01*
X33300Y5550D01*
X33350Y5600D01*
Y8950D01*
X33550Y9150D01*
Y11450D01*
X33250Y11750D01*
Y14850D01*
X33350Y14950D01*
Y17350D01*
X33300D01*
X33300Y17723D01*
X33303Y17808D01*
X33284Y17976D01*
X33231Y18138D01*
X33148Y18286D01*
X33038Y18415D01*
X32904Y18519D01*
X32752Y18595D01*
X32589Y18640D01*
X32504Y18650D01*
X32504Y18650D01*
Y18650D01*
X32500D01*
X29300Y18650D01*
X29186Y18764D01*
X3899D01*
X3921Y17791D01*
Y17770D01*
X3891Y17740D01*
X3850D01*
X3820Y17770D01*
Y17791D01*
X3820Y18510D01*
X3811Y18517D01*
X3800Y18538D01*
Y17832D01*
X1050D01*
Y17800D01*
X1105D01*
Y15750D01*
X700D01*
Y17792D01*
X633Y17791D01*
Y13750D01*
X171D01*
Y17800D01*
X217D01*
X200Y17817D01*
Y17984D01*
X189Y17983D01*
X155Y18020D01*
X164Y18068D01*
X215Y18238D01*
X286Y18400D01*
X375Y18554D01*
X482Y18695D01*
X606Y18822D01*
X743Y18934D01*
X893Y19029D01*
X1054Y19105D01*
X1222Y19162D01*
X1395Y19198D01*
X1572Y19213D01*
X1661Y19211D01*
D02*
G37*
G36*
X1106Y3246D02*
X691D01*
Y5296D01*
X1106D01*
Y3246D01*
D02*
G37*
G36*
X33100Y11589D02*
X32629D01*
Y13818D01*
X33100D01*
Y11589D01*
D02*
G37*
G36*
X1350Y6411D02*
X1161D01*
Y7360D01*
X1350D01*
Y6411D01*
D02*
G37*
%LPC*%
G36*
X1336Y17343D02*
X1182D01*
Y17308D01*
X1187Y17305D01*
X1192Y17302D01*
X1196Y17299D01*
X1200Y17296D01*
X1202Y17293D01*
X1203Y17292D01*
X1204Y17291D01*
X1205Y17290D01*
X1206Y17290D01*
X1206Y17289D01*
X1206Y17289D01*
X1208Y17287D01*
X1210Y17284D01*
X1213Y17279D01*
X1216Y17273D01*
X1218Y17268D01*
X1219Y17266D01*
X1220Y17263D01*
X1221Y17261D01*
X1222Y17259D01*
X1222Y17258D01*
X1223Y17257D01*
X1223Y17256D01*
Y17256D01*
X1257D01*
X1256Y17261D01*
X1254Y17266D01*
X1252Y17270D01*
X1251Y17273D01*
X1250Y17276D01*
X1249Y17277D01*
X1249Y17278D01*
X1249Y17279D01*
X1248Y17280D01*
X1248Y17280D01*
Y17280D01*
X1246Y17284D01*
X1244Y17287D01*
X1242Y17291D01*
X1240Y17294D01*
X1238Y17296D01*
X1237Y17298D01*
X1236Y17299D01*
X1236Y17300D01*
X1235Y17300D01*
Y17300D01*
X1336D01*
Y17256D01*
D01*
Y17343D01*
D02*
G37*
G36*
X1339Y16312D02*
X1305D01*
Y16246D01*
X1303Y16248D01*
X1301Y16250D01*
X1299Y16252D01*
X1298Y16253D01*
X1297Y16254D01*
X1296Y16255D01*
X1296Y16256D01*
X1296Y16256D01*
X1295Y16257D01*
X1294Y16258D01*
X1292Y16260D01*
X1290Y16263D01*
X1288Y16266D01*
X1286Y16269D01*
X1285Y16271D01*
X1284Y16272D01*
X1284Y16272D01*
X1284Y16273D01*
X1283Y16273D01*
X1281Y16277D01*
X1278Y16281D01*
X1275Y16284D01*
X1273Y16287D01*
X1270Y16289D01*
X1268Y16292D01*
X1266Y16294D01*
X1264Y16296D01*
X1262Y16298D01*
X1261Y16299D01*
X1259Y16300D01*
X1258Y16301D01*
X1257Y16302D01*
X1256Y16302D01*
X1256Y16303D01*
X1256D01*
X1253Y16304D01*
X1251Y16305D01*
X1246Y16307D01*
X1242Y16309D01*
X1238Y16310D01*
X1236Y16310D01*
X1234Y16310D01*
X1233Y16311D01*
X1232D01*
X1230Y16311D01*
X1230D01*
X1229D01*
X1229D01*
X1224Y16310D01*
X1220Y16310D01*
X1216Y16309D01*
X1213Y16307D01*
X1210Y16306D01*
X1208Y16305D01*
X1207Y16305D01*
X1207Y16304D01*
X1206Y16304D01*
X1206Y16304D01*
X1206D01*
X1202Y16301D01*
X1199Y16298D01*
X1196Y16294D01*
X1194Y16291D01*
X1192Y16288D01*
X1192Y16287D01*
X1191Y16286D01*
X1191Y16285D01*
X1190Y16285D01*
X1190Y16284D01*
Y16284D01*
X1189Y16282D01*
X1188Y16279D01*
X1187Y16273D01*
X1186Y16268D01*
X1185Y16262D01*
X1185Y16260D01*
X1185Y16257D01*
Y16255D01*
X1185Y16253D01*
Y16312D01*
D01*
Y16185D01*
D01*
Y16246D01*
X1185Y16242D01*
X1185Y16238D01*
X1186Y16235D01*
X1186Y16232D01*
X1187Y16229D01*
X1187Y16227D01*
X1187Y16225D01*
X1188Y16223D01*
X1189Y16221D01*
X1189Y16220D01*
X1189Y16218D01*
X1190Y16217D01*
X1190Y16217D01*
X1190Y16216D01*
Y16216D01*
X1193Y16212D01*
X1195Y16208D01*
X1198Y16205D01*
X1200Y16202D01*
X1202Y16200D01*
X1204Y16199D01*
X1205Y16198D01*
X1205Y16198D01*
X1206Y16197D01*
X1206D01*
X1210Y16195D01*
X1214Y16193D01*
X1219Y16192D01*
X1223Y16190D01*
X1225Y16190D01*
X1227Y16189D01*
X1229Y16189D01*
X1230Y16189D01*
X1232Y16189D01*
X1233D01*
X1233Y16188D01*
X1233D01*
X1237Y16231D01*
X1232Y16231D01*
X1229Y16232D01*
X1226Y16233D01*
X1223Y16235D01*
X1221Y16236D01*
X1220Y16237D01*
X1219Y16237D01*
X1219Y16237D01*
X1217Y16239D01*
X1216Y16242D01*
X1215Y16244D01*
X1214Y16246D01*
X1214Y16248D01*
X1214Y16249D01*
Y16251D01*
X1214Y16253D01*
X1215Y16256D01*
X1216Y16258D01*
X1216Y16260D01*
X1217Y16261D01*
X1218Y16263D01*
X1219Y16263D01*
X1219Y16264D01*
X1221Y16265D01*
X1223Y16266D01*
X1225Y16267D01*
X1227Y16268D01*
X1228Y16269D01*
X1230Y16269D01*
X1230D01*
X1231D01*
X1233Y16269D01*
X1236Y16268D01*
X1238Y16267D01*
X1240Y16266D01*
X1242Y16265D01*
X1243Y16264D01*
X1244Y16264D01*
X1244Y16264D01*
X1246Y16262D01*
X1247Y16261D01*
X1249Y16259D01*
X1250Y16258D01*
X1254Y16254D01*
X1257Y16250D01*
X1260Y16246D01*
X1262Y16244D01*
X1263Y16243D01*
X1264Y16241D01*
X1265Y16241D01*
X1265Y16240D01*
X1265Y16240D01*
X1269Y16234D01*
X1273Y16229D01*
X1277Y16225D01*
X1281Y16220D01*
X1284Y16217D01*
X1287Y16213D01*
X1290Y16210D01*
X1293Y16208D01*
X1296Y16205D01*
X1298Y16203D01*
X1300Y16202D01*
X1301Y16200D01*
X1302Y16200D01*
X1303Y16199D01*
X1304Y16198D01*
X1304Y16198D01*
X1307Y16196D01*
X1310Y16194D01*
X1314Y16193D01*
X1317Y16192D01*
X1322Y16189D01*
X1325Y16188D01*
X1328Y16188D01*
X1330Y16187D01*
X1333Y16186D01*
X1334Y16186D01*
X1336Y16186D01*
X1337Y16185D01*
X1338D01*
X1339Y16185D01*
X1185D01*
X1339D01*
Y16312D01*
D02*
G37*
G36*
X33177Y17000D02*
D01*
Y16837D01*
X33177Y16848D01*
X33176Y16859D01*
X33174Y16870D01*
X33173Y16880D01*
X33172Y16885D01*
X33171Y16889D01*
X33170Y16892D01*
X33169Y16896D01*
X33169Y16898D01*
X33168Y16900D01*
X33168Y16901D01*
Y16902D01*
X33165Y16911D01*
X33160Y16920D01*
X33156Y16929D01*
X33151Y16936D01*
X33147Y16942D01*
X33143Y16947D01*
X33142Y16949D01*
X33141Y16950D01*
X33140Y16951D01*
X33140Y16951D01*
X33132Y16959D01*
X33123Y16966D01*
X33114Y16973D01*
X33106Y16978D01*
X33098Y16982D01*
X33095Y16983D01*
X33093Y16985D01*
X33090Y16986D01*
X33089Y16987D01*
X33088Y16987D01*
X33087D01*
X33081Y16990D01*
X33075Y16992D01*
X33060Y16995D01*
X33045Y16997D01*
X33031Y16999D01*
X33025Y17000D01*
X33019D01*
X33013Y17000D01*
X33008Y17000D01*
X32999D01*
X32986Y17000D01*
X32973Y16999D01*
X32962Y16998D01*
X32951Y16996D01*
X32947Y16995D01*
X32943Y16994D01*
X32939Y16994D01*
X32936Y16993D01*
X32934Y16993D01*
X32932Y16992D01*
X32931Y16992D01*
X32931D01*
X32919Y16988D01*
X32908Y16983D01*
X32898Y16979D01*
X32889Y16974D01*
X32883Y16970D01*
X32880Y16968D01*
X32878Y16966D01*
X32876Y16965D01*
X32875Y16964D01*
X32874Y16964D01*
X32873Y16963D01*
X32865Y16956D01*
X32857Y16948D01*
X32851Y16939D01*
X32845Y16932D01*
X32841Y16925D01*
X32840Y16922D01*
X32838Y16919D01*
X32837Y16917D01*
X32836Y16916D01*
X32836Y16915D01*
Y16914D01*
X32831Y16903D01*
X32828Y16890D01*
X32826Y16877D01*
X32824Y16865D01*
X32823Y16858D01*
Y16853D01*
X32823Y16849D01*
X32823Y16844D01*
Y16674D01*
X33177D01*
Y17000D01*
D02*
G37*
G36*
X32823Y16636D02*
D01*
Y16532D01*
X33020Y16495D01*
X32823Y16440D01*
Y16279D01*
Y16337D01*
X33021Y16282D01*
X32823Y16244D01*
Y16246D01*
Y16140D01*
X33177D01*
Y16558D01*
X32823Y16636D01*
D02*
G37*
G36*
X33184Y16122D02*
Y15974D01*
X33183Y15983D01*
X33182Y15991D01*
X33181Y15999D01*
X33180Y16007D01*
X33179Y16014D01*
X33177Y16020D01*
X33176Y16026D01*
X33175Y16032D01*
X33173Y16036D01*
X33172Y16040D01*
X33171Y16043D01*
X33170Y16046D01*
X33169Y16048D01*
X33169Y16049D01*
Y16050D01*
X33163Y16062D01*
X33156Y16072D01*
X33148Y16081D01*
X33141Y16089D01*
X33135Y16095D01*
X33130Y16099D01*
X33128Y16101D01*
X33126Y16102D01*
X33125Y16102D01*
X33125D01*
X33119Y16106D01*
X33114Y16109D01*
X33103Y16113D01*
X33092Y16117D01*
X33083Y16119D01*
X33078Y16120D01*
X33074Y16121D01*
X33071Y16121D01*
X33068D01*
X33066Y16122D01*
X33062D01*
X33052Y16121D01*
X33042Y16119D01*
X33033Y16117D01*
X33025Y16115D01*
X33019Y16112D01*
X33016Y16111D01*
X33014Y16109D01*
X33012Y16109D01*
X33010Y16108D01*
X33010Y16107D01*
X33010D01*
X33001Y16101D01*
X32993Y16094D01*
X32987Y16087D01*
X32981Y16079D01*
X32976Y16073D01*
X32975Y16070D01*
X32973Y16067D01*
X32972Y16065D01*
X32971Y16063D01*
X32970Y16062D01*
Y16062D01*
X32967Y16056D01*
X32964Y16049D01*
X32962Y16041D01*
X32958Y16032D01*
X32953Y16015D01*
X32948Y15998D01*
X32946Y15991D01*
X32945Y15983D01*
X32943Y15976D01*
X32941Y15970D01*
X32940Y15966D01*
X32940Y15962D01*
X32939Y15960D01*
Y15959D01*
X32938Y15953D01*
X32937Y15949D01*
X32935Y15945D01*
X32934Y15941D01*
X32932Y15934D01*
X32930Y15929D01*
X32928Y15926D01*
X32927Y15924D01*
X32926Y15922D01*
X32926Y15922D01*
X32923Y15919D01*
X32920Y15918D01*
X32918Y15916D01*
X32916Y15915D01*
X32913Y15914D01*
X32912Y15914D01*
X32911D01*
X32910D01*
X32906Y15914D01*
X32903Y15915D01*
X32899Y15917D01*
X32896Y15919D01*
X32894Y15921D01*
X32892Y15922D01*
X32891Y15923D01*
X32891Y15924D01*
X32888Y15928D01*
X32886Y15932D01*
X32885Y15937D01*
X32883Y15942D01*
X32883Y15946D01*
X32882Y15949D01*
Y15953D01*
X32883Y15961D01*
X32884Y15968D01*
X32886Y15974D01*
X32888Y15979D01*
X32890Y15984D01*
X32892Y15987D01*
X32893Y15988D01*
X32893Y15989D01*
X32898Y15993D01*
X32903Y15997D01*
X32909Y16000D01*
X32915Y16002D01*
X32920Y16004D01*
X32924Y16005D01*
X32926Y16006D01*
X32927Y16006D01*
X32928D01*
X32928D01*
X32923Y16110D01*
X32913Y16108D01*
X32903Y16106D01*
X32895Y16103D01*
X32886Y16100D01*
X32879Y16097D01*
X32873Y16093D01*
X32867Y16090D01*
X32861Y16086D01*
X32857Y16082D01*
X32853Y16079D01*
X32849Y16076D01*
X32847Y16073D01*
X32844Y16070D01*
X32843Y16069D01*
X32842Y16067D01*
X32842Y16067D01*
X32837Y16060D01*
X32833Y16053D01*
X32830Y16044D01*
X32827Y16036D01*
X32825Y16027D01*
X32823Y16019D01*
X32820Y16002D01*
X32819Y15994D01*
X32818Y15987D01*
X32817Y15980D01*
X32817Y15975D01*
X32816Y15970D01*
Y15800D01*
X33184D01*
D01*
X32816D01*
Y15953D01*
X32817Y15944D01*
X32818Y15935D01*
X32819Y15926D01*
X32820Y15918D01*
X32821Y15911D01*
X32822Y15905D01*
X32823Y15899D01*
X32825Y15894D01*
X32826Y15889D01*
X32827Y15885D01*
X32828Y15882D01*
X32829Y15880D01*
X32830Y15877D01*
X32830Y15876D01*
Y15876D01*
X32836Y15865D01*
X32842Y15855D01*
X32849Y15847D01*
X32855Y15840D01*
X32861Y15835D01*
X32865Y15831D01*
X32867Y15830D01*
X32868Y15829D01*
X32868Y15828D01*
X32869D01*
X32878Y15823D01*
X32887Y15819D01*
X32896Y15817D01*
X32904Y15815D01*
X32910Y15814D01*
X32913Y15813D01*
X32916D01*
X32918Y15813D01*
X32919D01*
X32920D01*
X32920D01*
X32928Y15813D01*
X32935Y15814D01*
X32942Y15815D01*
X32949Y15817D01*
X32955Y15820D01*
X32960Y15822D01*
X32965Y15825D01*
X32970Y15828D01*
X32975Y15831D01*
X32978Y15834D01*
X32982Y15836D01*
X32984Y15838D01*
X32986Y15841D01*
X32988Y15842D01*
X32989Y15843D01*
X32989Y15843D01*
X32994Y15849D01*
X32999Y15857D01*
X33003Y15864D01*
X33007Y15873D01*
X33014Y15890D01*
X33021Y15907D01*
X33023Y15914D01*
X33025Y15922D01*
X33028Y15929D01*
X33029Y15935D01*
X33030Y15939D01*
X33031Y15943D01*
X33032Y15946D01*
Y15946D01*
X33034Y15954D01*
X33035Y15962D01*
X33037Y15968D01*
X33039Y15974D01*
X33041Y15979D01*
X33043Y15984D01*
X33044Y15987D01*
X33046Y15991D01*
X33047Y15994D01*
X33049Y15997D01*
X33049Y15998D01*
X33051Y16000D01*
X33052Y16002D01*
X33052Y16003D01*
X33057Y16007D01*
X33061Y16010D01*
X33065Y16012D01*
X33069Y16014D01*
X33073Y16015D01*
X33075Y16015D01*
X33077D01*
X33077D01*
X33083Y16015D01*
X33087Y16013D01*
X33092Y16011D01*
X33095Y16008D01*
X33098Y16006D01*
X33101Y16004D01*
X33102Y16002D01*
X33103Y16002D01*
X33106Y15997D01*
X33109Y15991D01*
X33111Y15985D01*
X33112Y15979D01*
X33113Y15974D01*
X33114Y15970D01*
Y15966D01*
X33113Y15960D01*
X33113Y15955D01*
X33110Y15945D01*
X33107Y15937D01*
X33103Y15930D01*
X33099Y15925D01*
X33096Y15921D01*
X33093Y15918D01*
X33093Y15918D01*
X33092D01*
X33087Y15914D01*
X33080Y15911D01*
X33074Y15909D01*
X33068Y15907D01*
X33062Y15906D01*
X33058Y15905D01*
X33056Y15904D01*
X33055Y15904D01*
X33054D01*
X33053D01*
X33060Y15800D01*
X33070Y15801D01*
X33079Y15803D01*
X33088Y15805D01*
X33097Y15807D01*
X33104Y15810D01*
X33112Y15814D01*
X33118Y15817D01*
X33125Y15821D01*
X33130Y15824D01*
X33135Y15828D01*
X33139Y15831D01*
X33143Y15833D01*
X33146Y15836D01*
X33147Y15838D01*
X33149Y15838D01*
X33149Y15839D01*
X33155Y15846D01*
X33160Y15854D01*
X33165Y15863D01*
X33169Y15873D01*
X33172Y15883D01*
X33175Y15894D01*
X33177Y15904D01*
X33179Y15915D01*
X33180Y15925D01*
X33182Y15934D01*
X33183Y15942D01*
X33183Y15949D01*
Y15956D01*
X33184Y15960D01*
Y16122D01*
D02*
G37*
%LPD*%
G36*
X33016Y16890D02*
X33022Y16889D01*
X33028Y16889D01*
X33034Y16889D01*
X33039Y16888D01*
X33044Y16887D01*
X33048Y16886D01*
X33052Y16886D01*
X33055Y16885D01*
X33057Y16884D01*
X33059Y16883D01*
X33061Y16883D01*
X33062Y16882D01*
X33062Y16882D01*
X33063D01*
X33069Y16879D01*
X33075Y16875D01*
X33080Y16871D01*
X33083Y16867D01*
X33086Y16864D01*
X33088Y16861D01*
X33089Y16860D01*
X33089Y16859D01*
X33090Y16856D01*
X33092Y16853D01*
X33094Y16845D01*
X33095Y16837D01*
X33096Y16829D01*
X33096Y16822D01*
Y16818D01*
X33097Y16816D01*
Y16783D01*
X32903D01*
Y16810D01*
X32903Y16818D01*
X32904Y16825D01*
X32905Y16832D01*
X32906Y16838D01*
X32908Y16844D01*
X32910Y16848D01*
X32911Y16853D01*
X32913Y16857D01*
X32915Y16861D01*
X32917Y16864D01*
X32919Y16866D01*
X32920Y16868D01*
X32922Y16870D01*
X32923Y16871D01*
X32924Y16872D01*
X32924D01*
X32928Y16875D01*
X32933Y16878D01*
X32939Y16880D01*
X32945Y16882D01*
X32958Y16886D01*
X32970Y16888D01*
X32976Y16889D01*
X32982Y16889D01*
X32987Y16890D01*
X32992D01*
X32996Y16890D01*
X32998D01*
X33000D01*
X33001D01*
X33009D01*
X33016Y16890D01*
D02*
G37*
G36*
X33177Y16326D02*
X32954Y16388D01*
X33177Y16450D01*
Y16326D01*
D02*
G37*
G36*
Y16140D02*
X32823D01*
X33177Y16219D01*
Y16140D01*
D02*
G37*
%LPC*%
G36*
X1337Y15268D02*
X1182D01*
Y15233D01*
X1188Y15230D01*
X1192Y15227D01*
X1196Y15224D01*
X1200Y15221D01*
X1203Y15219D01*
X1204Y15217D01*
X1205Y15217D01*
X1206Y15216D01*
X1206Y15215D01*
X1207Y15215D01*
X1207Y15214D01*
X1209Y15212D01*
X1210Y15210D01*
X1213Y15204D01*
X1216Y15199D01*
X1219Y15193D01*
X1220Y15191D01*
X1221Y15189D01*
X1222Y15187D01*
X1222Y15185D01*
X1223Y15183D01*
X1223Y15182D01*
X1223Y15181D01*
Y15181D01*
X1182D01*
D01*
X1337D01*
Y15268D01*
D02*
G37*
%LPD*%
G36*
Y15181D02*
X1258D01*
X1256Y15186D01*
X1255Y15191D01*
X1253Y15195D01*
X1252Y15199D01*
X1250Y15202D01*
X1250Y15203D01*
X1249Y15204D01*
X1249Y15204D01*
X1249Y15205D01*
X1249Y15205D01*
Y15205D01*
X1247Y15209D01*
X1245Y15213D01*
X1242Y15216D01*
X1240Y15219D01*
X1239Y15222D01*
X1237Y15224D01*
X1237Y15225D01*
X1236Y15225D01*
X1236Y15225D01*
Y15226D01*
X1337D01*
Y15181D01*
D02*
G37*
%LPC*%
G36*
X30671Y14750D02*
X30620Y14723D01*
X30619Y14722D01*
X30617Y14721D01*
X30613Y14718D01*
X30611Y14717D01*
X30610Y14716D01*
X30609Y14715D01*
X30609Y14715D01*
X30607Y14713D01*
X30604Y14711D01*
X30603Y14710D01*
X30602Y14709D01*
X30601Y14708D01*
X30600Y14707D01*
X30600Y14707D01*
Y14706D01*
X30598Y14705D01*
X30597Y14702D01*
X30595Y14698D01*
X30594Y14696D01*
X30594Y14694D01*
X30593Y14693D01*
X30593Y14693D01*
Y14692D01*
X30592Y14697D01*
X30591Y14701D01*
X30590Y14704D01*
X30588Y14707D01*
X30587Y14709D01*
X30587Y14710D01*
X30586Y14711D01*
X30586Y14712D01*
X30583Y14716D01*
X30580Y14719D01*
X30578Y14722D01*
X30575Y14725D01*
X30572Y14727D01*
X30570Y14728D01*
X30569Y14729D01*
X30569Y14729D01*
X30569D01*
X30565Y14731D01*
X30560Y14733D01*
X30556Y14734D01*
X30552Y14735D01*
X30549Y14735D01*
X30547D01*
X30546Y14735D01*
X30545D01*
X30544D01*
X30544D01*
X30543D01*
X30537Y14735D01*
X30532Y14734D01*
X30527Y14733D01*
X30523Y14731D01*
X30521Y14730D01*
X30519Y14730D01*
X30518Y14729D01*
X30517Y14728D01*
X30516Y14728D01*
X30515Y14728D01*
X30515Y14727D01*
X30515D01*
X30510Y14724D01*
X30507Y14720D01*
X30504Y14717D01*
X30502Y14713D01*
X30500Y14710D01*
X30499Y14708D01*
X30499Y14707D01*
X30499Y14706D01*
X30498Y14706D01*
Y14705D01*
X30498Y14703D01*
X30497Y14700D01*
X30496Y14694D01*
X30495Y14687D01*
X30495Y14681D01*
Y14678D01*
X30494Y14675D01*
Y14673D01*
X30494Y14671D01*
Y14575D01*
X30671D01*
Y14750D01*
D02*
G37*
G36*
Y14557D02*
Y14518D01*
X30494Y14557D01*
Y14309D01*
X30671Y14348D01*
Y14309D01*
Y14402D01*
X30560Y14433D01*
X30671Y14464D01*
Y14557D01*
D02*
G37*
G36*
X30459Y14687D02*
X30282Y14620D01*
Y14560D01*
X30459Y14494D01*
Y14550D01*
X30429Y14558D01*
Y14621D01*
X30459Y14630D01*
Y14687D01*
D02*
G37*
G36*
Y14475D02*
X30282D01*
Y14424D01*
X30380D01*
X30282Y14357D01*
Y14306D01*
X30459D01*
Y14475D01*
D02*
G37*
G36*
Y14267D02*
X30282D01*
Y14212D01*
X30459D01*
Y14267D01*
D02*
G37*
G36*
X30671Y14299D02*
X30494D01*
Y14149D01*
X30671D01*
Y14204D01*
X30605D01*
Y14233D01*
X30605Y14239D01*
X30605Y14245D01*
X30604Y14250D01*
X30603Y14255D01*
X30602Y14260D01*
X30601Y14263D01*
X30599Y14267D01*
X30598Y14270D01*
X30597Y14273D01*
X30595Y14276D01*
X30594Y14278D01*
X30593Y14280D01*
X30592Y14281D01*
X30591Y14282D01*
X30591Y14282D01*
X30590Y14283D01*
X30587Y14286D01*
X30584Y14288D01*
X30581Y14290D01*
X30578Y14292D01*
X30574Y14294D01*
X30571Y14295D01*
X30567Y14296D01*
X30564Y14297D01*
X30561Y14298D01*
X30558Y14298D01*
X30555Y14299D01*
X30553Y14299D01*
X30551Y14299D01*
X30671D01*
D02*
G37*
%LPD*%
G36*
Y14630D02*
X30599D01*
Y14635D01*
X30599Y14638D01*
X30600Y14640D01*
X30600Y14643D01*
X30601Y14645D01*
X30602Y14646D01*
X30603Y14647D01*
X30603Y14648D01*
X30603Y14648D01*
X30605Y14650D01*
X30607Y14652D01*
X30609Y14653D01*
X30611Y14655D01*
X30614Y14657D01*
X30615Y14658D01*
X30617Y14658D01*
X30617Y14658D01*
X30617D01*
X30671Y14688D01*
Y14630D01*
D02*
G37*
G36*
X30550Y14680D02*
X30552Y14680D01*
X30553Y14679D01*
X30555Y14679D01*
X30556Y14678D01*
X30557Y14678D01*
X30558Y14677D01*
X30558Y14677D01*
X30559Y14676D01*
X30561Y14674D01*
X30561Y14673D01*
X30562Y14671D01*
X30563Y14670D01*
X30563Y14669D01*
X30563Y14668D01*
Y14668D01*
X30564Y14664D01*
X30565Y14661D01*
X30565Y14659D01*
X30565Y14657D01*
Y14655D01*
X30566Y14654D01*
Y14630D01*
X30530D01*
Y14657D01*
X30530Y14660D01*
X30531Y14664D01*
X30531Y14667D01*
X30532Y14670D01*
X30533Y14672D01*
X30534Y14674D01*
X30534Y14675D01*
X30534Y14675D01*
X30536Y14677D01*
X30538Y14678D01*
X30541Y14679D01*
X30543Y14680D01*
X30545Y14680D01*
X30546Y14681D01*
X30547D01*
X30548D01*
X30550Y14680D01*
D02*
G37*
G36*
X30593Y14486D02*
X30494Y14459D01*
Y14505D01*
X30593Y14486D01*
D02*
G37*
G36*
X30593Y14380D02*
X30494Y14361D01*
Y14407D01*
X30593Y14380D01*
D02*
G37*
G36*
X30391Y14570D02*
X30328Y14590D01*
X30391Y14609D01*
Y14570D01*
D02*
G37*
G36*
X30459Y14358D02*
X30362D01*
X30459Y14424D01*
Y14358D01*
D02*
G37*
G36*
X30544Y14299D02*
X30539Y14298D01*
X30535Y14298D01*
X30531Y14297D01*
X30528Y14296D01*
X30524Y14294D01*
X30521Y14293D01*
X30519Y14292D01*
X30516Y14290D01*
X30514Y14289D01*
X30512Y14288D01*
X30511Y14287D01*
X30510Y14286D01*
X30509Y14285D01*
X30508Y14284D01*
X30508Y14284D01*
X30506Y14281D01*
X30504Y14278D01*
X30502Y14275D01*
X30500Y14271D01*
X30499Y14267D01*
X30498Y14263D01*
X30496Y14256D01*
X30495Y14253D01*
X30495Y14250D01*
X30495Y14247D01*
X30494Y14245D01*
X30494Y14242D01*
Y14299D01*
X30549D01*
X30544Y14299D01*
D02*
G37*
G36*
X30553Y14246D02*
X30556Y14245D01*
X30558Y14244D01*
X30560Y14243D01*
X30562Y14241D01*
X30563Y14240D01*
X30564Y14239D01*
X30564Y14239D01*
X30565Y14238D01*
X30566Y14236D01*
X30567Y14233D01*
X30568Y14229D01*
X30569Y14226D01*
X30569Y14222D01*
Y14221D01*
X30570Y14219D01*
Y14204D01*
X30530D01*
Y14222D01*
X30530Y14224D01*
X30531Y14229D01*
X30532Y14233D01*
X30533Y14235D01*
X30534Y14238D01*
X30535Y14239D01*
X30536Y14240D01*
X30536Y14240D01*
X30538Y14242D01*
X30541Y14243D01*
X30543Y14245D01*
X30545Y14245D01*
X30547Y14246D01*
X30549Y14246D01*
X30550D01*
X30550D01*
X30553Y14246D01*
D02*
G37*
%LPC*%
G36*
X30887Y14703D02*
X30843D01*
Y14617D01*
X30710D01*
Y14703D01*
Y14562D01*
X30887D01*
Y14703D01*
D02*
G37*
G36*
Y14533D02*
X30846D01*
Y14439D01*
X30812D01*
Y14524D01*
X30775D01*
Y14439D01*
X30747D01*
Y14531D01*
X30710D01*
Y14533D01*
Y14384D01*
X30887D01*
Y14533D01*
D02*
G37*
G36*
X30831Y14357D02*
X30829D01*
X30824Y14356D01*
X30819Y14355D01*
X30814Y14354D01*
X30811Y14353D01*
X30807Y14352D01*
X30806Y14351D01*
X30805Y14350D01*
X30804Y14350D01*
X30803Y14350D01*
X30803Y14349D01*
X30803D01*
X30799Y14346D01*
X30795Y14343D01*
X30792Y14339D01*
X30789Y14335D01*
X30786Y14332D01*
X30785Y14331D01*
X30785Y14329D01*
X30784Y14328D01*
X30784Y14327D01*
X30783Y14327D01*
Y14327D01*
X30782Y14324D01*
X30780Y14320D01*
X30779Y14316D01*
X30777Y14312D01*
X30775Y14304D01*
X30772Y14295D01*
X30771Y14291D01*
X30770Y14287D01*
X30770Y14284D01*
X30769Y14281D01*
X30768Y14279D01*
X30768Y14277D01*
X30768Y14276D01*
Y14275D01*
X30767Y14273D01*
X30766Y14270D01*
X30766Y14268D01*
X30765Y14266D01*
X30764Y14263D01*
X30763Y14261D01*
X30762Y14259D01*
X30762Y14258D01*
X30761Y14257D01*
X30761Y14257D01*
X30760Y14256D01*
X30758Y14255D01*
X30757Y14254D01*
X30756Y14253D01*
X30755Y14253D01*
X30754Y14253D01*
X30754D01*
X30753D01*
X30751Y14253D01*
X30749Y14254D01*
X30748Y14255D01*
X30746Y14255D01*
X30745Y14256D01*
X30744Y14257D01*
X30744Y14258D01*
X30744Y14258D01*
X30742Y14260D01*
X30741Y14262D01*
X30741Y14265D01*
X30740Y14267D01*
X30740Y14269D01*
X30739Y14271D01*
Y14272D01*
X30740Y14276D01*
X30740Y14280D01*
X30741Y14283D01*
X30742Y14286D01*
X30743Y14288D01*
X30744Y14289D01*
X30745Y14290D01*
X30745Y14290D01*
X30747Y14292D01*
X30750Y14294D01*
X30753Y14296D01*
X30756Y14297D01*
X30758Y14298D01*
X30760Y14299D01*
X30761Y14299D01*
X30762Y14299D01*
X30762D01*
X30762D01*
X30759Y14351D01*
X30754Y14350D01*
X30750Y14349D01*
X30746Y14347D01*
X30741Y14346D01*
X30738Y14344D01*
X30735Y14342D01*
X30732Y14341D01*
X30729Y14339D01*
X30727Y14337D01*
X30725Y14335D01*
X30723Y14334D01*
X30722Y14332D01*
X30720Y14331D01*
X30720Y14330D01*
X30719Y14330D01*
X30719Y14329D01*
X30717Y14326D01*
X30715Y14322D01*
X30713Y14318D01*
X30712Y14314D01*
X30711Y14309D01*
X30710Y14305D01*
X30708Y14297D01*
X30708Y14293D01*
X30707Y14289D01*
X30707Y14286D01*
X30707Y14283D01*
X30707Y14281D01*
Y14273D01*
X30707Y14268D01*
X30707Y14263D01*
X30708Y14259D01*
X30708Y14255D01*
X30709Y14252D01*
X30709Y14248D01*
X30710Y14245D01*
X30711Y14243D01*
X30711Y14241D01*
X30712Y14239D01*
X30712Y14237D01*
X30713Y14236D01*
X30713Y14235D01*
X30714Y14234D01*
Y14234D01*
X30716Y14228D01*
X30719Y14224D01*
X30723Y14219D01*
X30726Y14216D01*
X30729Y14214D01*
X30731Y14212D01*
X30732Y14211D01*
X30732Y14211D01*
X30732Y14210D01*
X30733D01*
X30737Y14208D01*
X30742Y14206D01*
X30746Y14204D01*
X30750Y14204D01*
X30753Y14203D01*
X30755Y14203D01*
X30756D01*
X30757Y14202D01*
X30758D01*
X30758D01*
X30758D01*
X30762Y14203D01*
X30766Y14203D01*
X30769Y14204D01*
X30773Y14205D01*
X30775Y14206D01*
X30778Y14207D01*
X30781Y14209D01*
X30783Y14210D01*
X30785Y14212D01*
X30787Y14213D01*
X30789Y14214D01*
X30790Y14215D01*
X30791Y14216D01*
X30792Y14217D01*
X30792Y14217D01*
X30793Y14218D01*
X30795Y14221D01*
X30797Y14224D01*
X30800Y14228D01*
X30802Y14232D01*
X30805Y14241D01*
X30808Y14249D01*
X30810Y14253D01*
X30811Y14257D01*
X30812Y14260D01*
X30812Y14263D01*
X30813Y14266D01*
X30814Y14268D01*
X30814Y14269D01*
Y14269D01*
X30815Y14273D01*
X30816Y14277D01*
X30817Y14280D01*
X30818Y14283D01*
X30819Y14286D01*
X30819Y14288D01*
X30820Y14290D01*
X30821Y14291D01*
X30822Y14293D01*
X30822Y14294D01*
X30823Y14295D01*
X30823Y14296D01*
X30824Y14297D01*
X30824Y14297D01*
X30826Y14299D01*
X30828Y14301D01*
X30831Y14302D01*
X30833Y14303D01*
X30834Y14303D01*
X30836Y14303D01*
X30836D01*
X30837D01*
X30839Y14303D01*
X30842Y14302D01*
X30844Y14301D01*
X30846Y14300D01*
X30847Y14299D01*
X30848Y14298D01*
X30849Y14297D01*
X30849Y14297D01*
X30851Y14294D01*
X30852Y14291D01*
X30853Y14288D01*
X30854Y14286D01*
X30855Y14283D01*
X30855Y14281D01*
Y14279D01*
X30855Y14276D01*
X30854Y14274D01*
X30853Y14268D01*
X30851Y14264D01*
X30849Y14261D01*
X30847Y14258D01*
X30846Y14256D01*
X30845Y14255D01*
X30844Y14255D01*
X30844D01*
X30841Y14253D01*
X30838Y14251D01*
X30835Y14250D01*
X30832Y14250D01*
X30829Y14249D01*
X30827Y14248D01*
X30826Y14248D01*
X30825Y14248D01*
X30825D01*
X30825D01*
X30828Y14196D01*
X30833Y14197D01*
X30838Y14197D01*
X30842Y14199D01*
X30846Y14200D01*
X30850Y14201D01*
X30854Y14203D01*
X30857Y14205D01*
X30860Y14207D01*
X30863Y14208D01*
X30865Y14210D01*
X30868Y14211D01*
X30869Y14213D01*
X30871Y14214D01*
X30872Y14215D01*
X30872Y14215D01*
X30872Y14216D01*
X30875Y14219D01*
X30878Y14223D01*
X30880Y14228D01*
X30882Y14233D01*
X30884Y14238D01*
X30886Y14243D01*
X30887Y14248D01*
X30887Y14253D01*
X30888Y14258D01*
X30889Y14263D01*
X30889Y14267D01*
X30889Y14271D01*
Y14274D01*
X30890Y14276D01*
Y14196D01*
X30828D01*
X30890D01*
Y14283D01*
X30889Y14287D01*
X30889Y14292D01*
X30889Y14296D01*
X30888Y14299D01*
X30887Y14303D01*
X30887Y14306D01*
X30886Y14309D01*
X30885Y14312D01*
X30885Y14314D01*
X30884Y14316D01*
X30883Y14318D01*
X30883Y14319D01*
X30882Y14320D01*
X30882Y14320D01*
Y14321D01*
X30879Y14327D01*
X30876Y14332D01*
X30872Y14337D01*
X30868Y14340D01*
X30865Y14343D01*
X30863Y14345D01*
X30862Y14346D01*
X30861Y14347D01*
X30861Y14347D01*
X30860D01*
X30858Y14349D01*
X30855Y14350D01*
X30850Y14352D01*
X30844Y14354D01*
X30839Y14355D01*
X30837Y14356D01*
X30835Y14356D01*
X30833Y14356D01*
X30832D01*
X30831Y14357D01*
D02*
G37*
G36*
X1340Y14288D02*
X1305D01*
Y14222D01*
X1303Y14224D01*
X1302Y14226D01*
X1300Y14228D01*
X1299Y14229D01*
X1298Y14231D01*
X1297Y14232D01*
X1296Y14232D01*
X1296Y14232D01*
X1295Y14233D01*
X1295Y14234D01*
X1293Y14237D01*
X1291Y14240D01*
X1289Y14243D01*
X1287Y14245D01*
X1285Y14247D01*
X1285Y14248D01*
X1284Y14249D01*
X1284Y14249D01*
X1284Y14250D01*
X1281Y14253D01*
X1278Y14257D01*
X1276Y14260D01*
X1273Y14263D01*
X1271Y14266D01*
X1269Y14268D01*
X1267Y14270D01*
X1264Y14272D01*
X1263Y14274D01*
X1261Y14275D01*
X1260Y14276D01*
X1258Y14277D01*
X1258Y14278D01*
X1257Y14279D01*
X1256Y14279D01*
X1256D01*
X1254Y14281D01*
X1251Y14282D01*
X1247Y14284D01*
X1242Y14285D01*
X1238Y14286D01*
X1236Y14287D01*
X1235Y14287D01*
X1233Y14287D01*
X1232D01*
X1231Y14287D01*
X1230D01*
X1230D01*
X1230D01*
X1225Y14287D01*
X1221Y14286D01*
X1216Y14285D01*
X1213Y14284D01*
X1210Y14282D01*
X1209Y14282D01*
X1208Y14281D01*
X1207Y14281D01*
X1207Y14281D01*
X1206Y14280D01*
X1206D01*
X1202Y14277D01*
X1199Y14274D01*
X1197Y14271D01*
X1194Y14268D01*
X1193Y14265D01*
X1192Y14264D01*
X1192Y14263D01*
X1191Y14262D01*
X1191Y14261D01*
X1191Y14261D01*
Y14261D01*
X1190Y14258D01*
X1189Y14255D01*
X1188Y14250D01*
X1187Y14244D01*
X1186Y14239D01*
X1186Y14236D01*
X1186Y14234D01*
Y14232D01*
X1185Y14230D01*
Y14222D01*
X1186Y14218D01*
X1186Y14215D01*
X1186Y14212D01*
X1187Y14209D01*
X1187Y14206D01*
X1188Y14203D01*
X1188Y14201D01*
X1189Y14199D01*
X1189Y14198D01*
X1189Y14196D01*
X1190Y14195D01*
X1190Y14194D01*
X1191Y14193D01*
X1191Y14193D01*
Y14192D01*
X1193Y14188D01*
X1195Y14184D01*
X1198Y14181D01*
X1201Y14179D01*
X1203Y14177D01*
X1205Y14175D01*
X1205Y14175D01*
X1206Y14174D01*
X1206Y14174D01*
X1206D01*
X1210Y14172D01*
X1215Y14170D01*
X1219Y14168D01*
X1224Y14167D01*
X1226Y14166D01*
X1228Y14166D01*
X1229Y14166D01*
X1231Y14165D01*
X1232Y14165D01*
X1233D01*
X1234Y14165D01*
X1234D01*
X1237Y14207D01*
X1233Y14208D01*
X1229Y14209D01*
X1226Y14210D01*
X1224Y14211D01*
X1222Y14212D01*
X1221Y14213D01*
X1220Y14214D01*
X1220Y14214D01*
X1218Y14216D01*
X1217Y14218D01*
X1216Y14220D01*
X1215Y14222D01*
X1215Y14224D01*
X1214Y14226D01*
Y14227D01*
X1215Y14230D01*
X1215Y14232D01*
X1216Y14235D01*
X1217Y14236D01*
X1218Y14238D01*
X1219Y14239D01*
X1219Y14240D01*
X1219Y14240D01*
X1221Y14242D01*
X1223Y14243D01*
X1225Y14244D01*
X1227Y14245D01*
X1229Y14245D01*
X1230Y14245D01*
X1231D01*
X1231D01*
X1234Y14245D01*
X1236Y14244D01*
X1238Y14244D01*
X1240Y14243D01*
X1242Y14242D01*
X1244Y14241D01*
X1244Y14240D01*
X1245Y14240D01*
X1246Y14239D01*
X1248Y14238D01*
X1249Y14236D01*
X1251Y14234D01*
X1255Y14230D01*
X1258Y14226D01*
X1261Y14222D01*
X1262Y14221D01*
X1263Y14219D01*
X1264Y14218D01*
X1265Y14217D01*
X1265Y14216D01*
X1266Y14216D01*
X1270Y14211D01*
X1274Y14206D01*
X1278Y14201D01*
X1281Y14197D01*
X1285Y14193D01*
X1288Y14190D01*
X1291Y14187D01*
X1294Y14184D01*
X1296Y14182D01*
X1298Y14180D01*
X1300Y14178D01*
X1302Y14177D01*
X1303Y14176D01*
X1304Y14175D01*
X1304Y14175D01*
X1305Y14175D01*
X1308Y14173D01*
X1311Y14171D01*
X1314Y14169D01*
X1317Y14168D01*
X1323Y14166D01*
X1326Y14165D01*
X1328Y14164D01*
X1331Y14163D01*
X1333Y14163D01*
X1335Y14162D01*
X1337Y14162D01*
X1338Y14162D01*
X1339D01*
X1340Y14162D01*
X1185D01*
X1340D01*
Y14288D01*
D02*
G37*
G36*
X953Y14817D02*
X807D01*
Y14633D01*
X1007D01*
Y14741D01*
X1007Y14742D01*
X1007Y14746D01*
X1006Y14751D01*
X1006Y14756D01*
X1005Y14760D01*
Y14762D01*
X1005Y14763D01*
X1005Y14765D01*
X1004Y14766D01*
Y14767D01*
X1004Y14772D01*
X1003Y14777D01*
X1001Y14781D01*
X1000Y14784D01*
X999Y14787D01*
X999Y14789D01*
X998Y14790D01*
X998Y14790D01*
X995Y14795D01*
X992Y14799D01*
X988Y14802D01*
X985Y14805D01*
X982Y14807D01*
X980Y14809D01*
X979Y14810D01*
X979Y14810D01*
X978D01*
X974Y14812D01*
X969Y14814D01*
X964Y14816D01*
X960Y14816D01*
X956Y14817D01*
X954Y14817D01*
X953Y14817D01*
D02*
G37*
%LPD*%
G36*
X943Y14817D02*
X937Y14816D01*
X932Y14814D01*
X927Y14812D01*
X924Y14810D01*
X922Y14809D01*
X921Y14809D01*
X920Y14808D01*
X919Y14808D01*
X919Y14807D01*
X919Y14807D01*
X917Y14805D01*
X914Y14803D01*
X911Y14798D01*
X907Y14793D01*
X905Y14787D01*
X903Y14783D01*
X902Y14781D01*
X902Y14779D01*
X901Y14777D01*
X901Y14776D01*
X901Y14776D01*
Y14775D01*
X899Y14780D01*
X897Y14785D01*
X894Y14788D01*
X892Y14792D01*
X890Y14794D01*
X889Y14795D01*
X888Y14797D01*
X888Y14797D01*
X885Y14799D01*
X883Y14801D01*
X877Y14803D01*
X872Y14805D01*
X868Y14807D01*
X863Y14808D01*
X862Y14808D01*
X860D01*
X859Y14808D01*
X858D01*
X858D01*
X857D01*
X853Y14808D01*
X850Y14807D01*
X846Y14807D01*
X843Y14806D01*
X837Y14803D01*
X834Y14802D01*
X832Y14800D01*
X829Y14799D01*
X828Y14797D01*
X826Y14796D01*
X824Y14795D01*
X823Y14794D01*
X823Y14793D01*
X822Y14793D01*
X822Y14793D01*
X819Y14790D01*
X817Y14786D01*
X815Y14783D01*
X813Y14779D01*
X812Y14775D01*
X811Y14772D01*
X809Y14764D01*
X809Y14761D01*
X808Y14758D01*
X808Y14755D01*
X808Y14753D01*
X807Y14751D01*
Y14817D01*
X950D01*
X943Y14817D01*
D02*
G37*
G36*
X947Y14755D02*
X950Y14754D01*
X952Y14753D01*
X955Y14752D01*
X956Y14751D01*
X958Y14750D01*
X958Y14749D01*
X959Y14749D01*
X960Y14746D01*
X962Y14742D01*
X963Y14739D01*
X963Y14735D01*
X964Y14732D01*
X964Y14729D01*
Y14695D01*
X924D01*
Y14726D01*
X924Y14732D01*
X924Y14736D01*
X925Y14740D01*
X926Y14744D01*
X927Y14746D01*
X928Y14748D01*
X929Y14748D01*
X929Y14749D01*
X931Y14751D01*
X934Y14753D01*
X936Y14754D01*
X938Y14755D01*
X940Y14755D01*
X942Y14755D01*
X943D01*
X943D01*
X947Y14755D01*
D02*
G37*
G36*
X870Y14747D02*
X873Y14747D01*
X875Y14746D01*
X877Y14745D01*
X879Y14744D01*
X880Y14743D01*
X880Y14742D01*
X881Y14742D01*
X882Y14739D01*
X884Y14736D01*
X884Y14733D01*
X885Y14730D01*
X885Y14727D01*
X886Y14724D01*
Y14695D01*
X848D01*
Y14722D01*
X848Y14727D01*
X849Y14731D01*
X849Y14734D01*
X850Y14737D01*
X851Y14739D01*
X852Y14741D01*
X853Y14741D01*
X853Y14742D01*
X855Y14744D01*
X857Y14745D01*
X859Y14746D01*
X861Y14747D01*
X863Y14747D01*
X865Y14748D01*
X866D01*
X866D01*
X870Y14747D01*
D02*
G37*
%LPC*%
G36*
X1339Y13180D02*
X1185D01*
Y13093D01*
X1339D01*
D01*
X1260D01*
X1258Y13098D01*
X1257Y13103D01*
X1255Y13107D01*
X1254Y13111D01*
X1253Y13114D01*
X1252Y13115D01*
X1252Y13116D01*
X1252Y13116D01*
X1251Y13117D01*
X1251Y13117D01*
Y13117D01*
X1249Y13121D01*
X1247Y13125D01*
X1245Y13128D01*
X1243Y13131D01*
X1241Y13134D01*
X1240Y13136D01*
X1239Y13137D01*
X1239Y13137D01*
X1238Y13137D01*
Y13138D01*
X1339D01*
Y13180D01*
D02*
G37*
%LPD*%
G36*
X1190Y13142D02*
X1195Y13139D01*
X1199Y13136D01*
X1202Y13133D01*
X1205Y13131D01*
X1206Y13129D01*
X1207Y13129D01*
X1208Y13128D01*
X1209Y13127D01*
X1209Y13127D01*
X1209Y13126D01*
X1211Y13124D01*
X1213Y13122D01*
X1216Y13116D01*
X1219Y13111D01*
X1221Y13105D01*
X1222Y13103D01*
X1223Y13101D01*
X1224Y13099D01*
X1224Y13097D01*
X1225Y13095D01*
X1225Y13094D01*
X1226Y13093D01*
Y13093D01*
X1185D01*
Y13145D01*
X1190Y13142D01*
D02*
G37*
%LPC*%
G36*
X1342Y12149D02*
X1308D01*
Y12083D01*
X1306Y12085D01*
X1304Y12087D01*
X1302Y12089D01*
X1301Y12090D01*
X1300Y12092D01*
X1299Y12092D01*
X1299Y12093D01*
X1299Y12093D01*
X1298Y12094D01*
X1297Y12095D01*
X1295Y12098D01*
X1293Y12101D01*
X1291Y12104D01*
X1289Y12106D01*
X1288Y12108D01*
X1287Y12109D01*
X1287Y12110D01*
X1286Y12110D01*
X1286Y12110D01*
X1283Y12114D01*
X1281Y12118D01*
X1278Y12121D01*
X1276Y12124D01*
X1273Y12127D01*
X1271Y12129D01*
X1269Y12131D01*
X1267Y12133D01*
X1265Y12135D01*
X1263Y12136D01*
X1262Y12137D01*
X1261Y12138D01*
X1260Y12139D01*
X1259Y12140D01*
X1259Y12140D01*
X1259D01*
X1256Y12141D01*
X1254Y12143D01*
X1249Y12145D01*
X1245Y12146D01*
X1240Y12147D01*
X1239Y12147D01*
X1237Y12148D01*
X1236Y12148D01*
X1234D01*
X1233Y12148D01*
X1233D01*
X1232D01*
X1232D01*
X1227Y12148D01*
X1223Y12147D01*
X1219Y12146D01*
X1215Y12145D01*
X1212Y12143D01*
X1211Y12143D01*
X1210Y12142D01*
X1210Y12142D01*
X1209Y12141D01*
X1209Y12141D01*
X1208D01*
X1205Y12138D01*
X1202Y12135D01*
X1199Y12132D01*
X1197Y12129D01*
X1195Y12126D01*
X1194Y12125D01*
X1194Y12124D01*
X1193Y12123D01*
X1193Y12122D01*
X1193Y12122D01*
Y12121D01*
X1192Y12119D01*
X1191Y12116D01*
X1190Y12111D01*
X1189Y12105D01*
X1188Y12100D01*
X1188Y12097D01*
X1188Y12095D01*
Y12092D01*
X1188Y12091D01*
Y12149D01*
D01*
Y12023D01*
D01*
Y12083D01*
X1188Y12079D01*
X1188Y12076D01*
X1188Y12073D01*
X1189Y12070D01*
X1189Y12067D01*
X1190Y12064D01*
X1190Y12062D01*
X1191Y12060D01*
X1191Y12058D01*
X1192Y12057D01*
X1192Y12056D01*
X1193Y12055D01*
X1193Y12054D01*
X1193Y12054D01*
Y12053D01*
X1195Y12049D01*
X1198Y12045D01*
X1200Y12042D01*
X1203Y12040D01*
X1205Y12038D01*
X1207Y12036D01*
X1208Y12035D01*
X1208Y12035D01*
X1208Y12035D01*
X1209D01*
X1213Y12032D01*
X1217Y12031D01*
X1222Y12029D01*
X1226Y12028D01*
X1228Y12027D01*
X1230Y12027D01*
X1232Y12026D01*
X1233Y12026D01*
X1235Y12026D01*
X1236D01*
X1236Y12026D01*
X1236D01*
X1240Y12068D01*
X1235Y12069D01*
X1231Y12070D01*
X1228Y12071D01*
X1226Y12072D01*
X1224Y12073D01*
X1223Y12074D01*
X1222Y12075D01*
X1222Y12075D01*
X1220Y12077D01*
X1219Y12079D01*
X1218Y12081D01*
X1217Y12083D01*
X1217Y12085D01*
X1217Y12087D01*
Y12088D01*
X1217Y12091D01*
X1217Y12093D01*
X1218Y12095D01*
X1219Y12097D01*
X1220Y12099D01*
X1221Y12100D01*
X1222Y12101D01*
X1222Y12101D01*
X1224Y12103D01*
X1226Y12104D01*
X1228Y12105D01*
X1229Y12106D01*
X1231Y12106D01*
X1232Y12106D01*
X1233D01*
X1234D01*
X1236Y12106D01*
X1238Y12105D01*
X1241Y12104D01*
X1243Y12104D01*
X1245Y12103D01*
X1246Y12102D01*
X1247Y12101D01*
X1247Y12101D01*
X1248Y12100D01*
X1250Y12098D01*
X1252Y12097D01*
X1253Y12095D01*
X1257Y12091D01*
X1260Y12087D01*
X1263Y12083D01*
X1265Y12082D01*
X1266Y12080D01*
X1267Y12079D01*
X1267Y12078D01*
X1268Y12077D01*
X1268Y12077D01*
X1272Y12072D01*
X1276Y12067D01*
X1280Y12062D01*
X1284Y12058D01*
X1287Y12054D01*
X1290Y12051D01*
X1293Y12048D01*
X1296Y12045D01*
X1298Y12043D01*
X1301Y12041D01*
X1303Y12039D01*
X1304Y12038D01*
X1305Y12037D01*
X1306Y12036D01*
X1307Y12036D01*
X1307Y12036D01*
X1310Y12034D01*
X1313Y12032D01*
X1316Y12030D01*
X1319Y12029D01*
X1325Y12027D01*
X1328Y12026D01*
X1331Y12025D01*
X1333Y12024D01*
X1335Y12024D01*
X1337Y12023D01*
X1339Y12023D01*
X1340Y12023D01*
X1341D01*
X1342Y12023D01*
X1188D01*
X1342D01*
Y12149D01*
D02*
G37*
G36*
X1003Y12719D02*
D01*
X803Y12644D01*
Y12576D01*
X1003Y12501D01*
X803D01*
X1003D01*
Y12719D01*
D02*
G37*
%LPD*%
G36*
X927Y12587D02*
X855Y12609D01*
X927Y12631D01*
Y12587D01*
D02*
G37*
G36*
X1003Y12564D02*
X970Y12574D01*
Y12644D01*
X1003Y12654D01*
Y12564D01*
D02*
G37*
%LPC*%
G36*
X1340Y11106D02*
X1185D01*
Y11071D01*
X1190Y11068D01*
X1195Y11065D01*
X1199Y11062D01*
X1203Y11059D01*
X1206Y11056D01*
X1207Y11055D01*
X1208Y11054D01*
X1209Y11053D01*
X1209Y11052D01*
X1209Y11052D01*
X1210Y11052D01*
X1211Y11050D01*
X1213Y11047D01*
X1216Y11042D01*
X1219Y11036D01*
X1222Y11031D01*
X1223Y11028D01*
X1224Y11026D01*
X1224Y11024D01*
X1225Y11022D01*
X1225Y11021D01*
X1226Y11020D01*
X1226Y11019D01*
Y11019D01*
X1185D01*
D01*
X1340D01*
Y11106D01*
D02*
G37*
%LPD*%
G36*
Y11019D02*
X1261D01*
X1259Y11024D01*
X1257Y11029D01*
X1256Y11033D01*
X1254Y11036D01*
X1253Y11039D01*
X1253Y11040D01*
X1252Y11041D01*
X1252Y11042D01*
X1252Y11042D01*
X1251Y11043D01*
Y11043D01*
X1250Y11046D01*
X1247Y11050D01*
X1245Y11053D01*
X1243Y11057D01*
X1242Y11059D01*
X1240Y11061D01*
X1239Y11062D01*
X1239Y11063D01*
X1239Y11063D01*
Y11063D01*
X1340D01*
Y11019D01*
D02*
G37*
%LPC*%
G36*
X1343Y10126D02*
X1308D01*
Y10060D01*
X1306Y10062D01*
X1305Y10064D01*
X1303Y10065D01*
X1302Y10067D01*
X1301Y10068D01*
X1300Y10069D01*
X1299Y10070D01*
X1299Y10070D01*
X1298Y10071D01*
X1298Y10072D01*
X1296Y10074D01*
X1294Y10077D01*
X1292Y10080D01*
X1290Y10083D01*
X1288Y10085D01*
X1287Y10086D01*
X1287Y10086D01*
X1287Y10087D01*
X1287Y10087D01*
X1284Y10091D01*
X1281Y10094D01*
X1279Y10098D01*
X1276Y10101D01*
X1274Y10103D01*
X1271Y10106D01*
X1269Y10108D01*
X1267Y10110D01*
X1265Y10111D01*
X1264Y10113D01*
X1262Y10114D01*
X1261Y10115D01*
X1260Y10116D01*
X1260Y10116D01*
X1259Y10116D01*
X1259D01*
X1257Y10118D01*
X1254Y10119D01*
X1250Y10121D01*
X1245Y10123D01*
X1241Y10124D01*
X1239Y10124D01*
X1238Y10124D01*
X1236Y10124D01*
X1235D01*
X1234Y10125D01*
X1233D01*
X1233D01*
X1233D01*
X1228Y10124D01*
X1223Y10124D01*
X1219Y10122D01*
X1216Y10121D01*
X1213Y10120D01*
X1212Y10119D01*
X1211Y10119D01*
X1210Y10118D01*
X1210Y10118D01*
X1209Y10118D01*
X1209D01*
X1205Y10115D01*
X1202Y10112D01*
X1199Y10108D01*
X1197Y10105D01*
X1195Y10102D01*
X1195Y10101D01*
X1194Y10100D01*
X1194Y10099D01*
X1194Y10099D01*
X1193Y10098D01*
Y10098D01*
X1192Y10096D01*
X1192Y10093D01*
X1190Y10087D01*
X1190Y10081D01*
X1189Y10076D01*
X1189Y10073D01*
X1188Y10071D01*
Y10069D01*
X1188Y10067D01*
Y10059D01*
X1188Y10056D01*
X1189Y10052D01*
X1189Y10049D01*
X1190Y10046D01*
X1190Y10043D01*
X1190Y10041D01*
X1191Y10039D01*
X1191Y10037D01*
X1192Y10035D01*
X1192Y10033D01*
X1193Y10032D01*
X1193Y10031D01*
X1193Y10030D01*
X1194Y10030D01*
Y10030D01*
X1196Y10026D01*
X1198Y10022D01*
X1201Y10019D01*
X1203Y10016D01*
X1206Y10014D01*
X1207Y10012D01*
X1208Y10012D01*
X1209Y10012D01*
X1209Y10011D01*
X1209D01*
X1213Y10009D01*
X1218Y10007D01*
X1222Y10005D01*
X1227Y10004D01*
X1229Y10004D01*
X1231Y10003D01*
X1232Y10003D01*
X1234Y10003D01*
X1235Y10002D01*
X1236D01*
X1237Y10002D01*
X1237D01*
X1240Y10044D01*
X1236Y10045D01*
X1232Y10046D01*
X1229Y10047D01*
X1227Y10048D01*
X1225Y10050D01*
X1223Y10050D01*
X1223Y10051D01*
X1222Y10051D01*
X1221Y10053D01*
X1219Y10056D01*
X1218Y10058D01*
X1218Y10060D01*
X1217Y10062D01*
X1217Y10063D01*
Y10064D01*
X1217Y10067D01*
X1218Y10070D01*
X1219Y10072D01*
X1220Y10074D01*
X1221Y10075D01*
X1221Y10076D01*
X1222Y10077D01*
X1222Y10077D01*
X1224Y10079D01*
X1226Y10080D01*
X1228Y10081D01*
X1230Y10082D01*
X1232Y10082D01*
X1233Y10083D01*
X1234D01*
X1234D01*
X1236Y10082D01*
X1239Y10082D01*
X1241Y10081D01*
X1243Y10080D01*
X1245Y10079D01*
X1246Y10078D01*
X1247Y10078D01*
X1248Y10077D01*
X1249Y10076D01*
X1251Y10075D01*
X1252Y10073D01*
X1254Y10071D01*
X1257Y10068D01*
X1261Y10064D01*
X1264Y10060D01*
X1265Y10058D01*
X1266Y10057D01*
X1267Y10055D01*
X1268Y10054D01*
X1268Y10054D01*
X1268Y10054D01*
X1273Y10048D01*
X1277Y10043D01*
X1280Y10038D01*
X1284Y10034D01*
X1287Y10030D01*
X1291Y10027D01*
X1294Y10024D01*
X1296Y10021D01*
X1299Y10019D01*
X1301Y10017D01*
X1303Y10016D01*
X1305Y10014D01*
X1306Y10013D01*
X1307Y10013D01*
X1307Y10012D01*
X1308Y10012D01*
X1311Y10010D01*
X1314Y10008D01*
X1317Y10007D01*
X1320Y10005D01*
X1326Y10003D01*
X1329Y10002D01*
X1331Y10001D01*
X1334Y10001D01*
X1336Y10000D01*
X1338Y10000D01*
X1339Y10000D01*
X1341Y9999D01*
X1342D01*
X1342Y9999D01*
X1188D01*
X1343D01*
Y10126D01*
D02*
G37*
G36*
X524Y12020D02*
D01*
Y11940D01*
X333D01*
Y12020D01*
X271D01*
Y11782D01*
X524D01*
Y12020D01*
D02*
G37*
G36*
X528Y11748D02*
D01*
Y11633D01*
X528Y11644D01*
X527Y11655D01*
X526Y11660D01*
X525Y11664D01*
X525Y11668D01*
X524Y11672D01*
X523Y11675D01*
X523Y11679D01*
X522Y11681D01*
X521Y11683D01*
X520Y11685D01*
X520Y11686D01*
X520Y11687D01*
Y11687D01*
X517Y11694D01*
X514Y11699D01*
X510Y11704D01*
X507Y11709D01*
X504Y11713D01*
X501Y11716D01*
X500Y11718D01*
X499Y11718D01*
X499Y11719D01*
X493Y11724D01*
X487Y11728D01*
X481Y11732D01*
X476Y11735D01*
X471Y11738D01*
X469Y11738D01*
X467Y11739D01*
X466Y11740D01*
X465Y11740D01*
X464Y11741D01*
X464D01*
X456Y11743D01*
X449Y11745D01*
X442Y11746D01*
X435Y11747D01*
X430Y11747D01*
X427D01*
X425Y11748D01*
X528D01*
X271D01*
Y11670D01*
X425D01*
X432Y11669D01*
X439Y11668D01*
X445Y11666D01*
X449Y11664D01*
X453Y11662D01*
X456Y11660D01*
X457Y11659D01*
X458Y11658D01*
X461Y11654D01*
X464Y11648D01*
X466Y11643D01*
X467Y11638D01*
X468Y11634D01*
X469Y11630D01*
X469Y11628D01*
Y11626D01*
X468Y11619D01*
X467Y11613D01*
X465Y11607D01*
X463Y11603D01*
X461Y11599D01*
X459Y11597D01*
X458Y11595D01*
X457Y11595D01*
X453Y11591D01*
X447Y11588D01*
X442Y11586D01*
X437Y11585D01*
X432Y11584D01*
X430Y11584D01*
X428D01*
X427Y11583D01*
X426D01*
X425D01*
X425D01*
X271D01*
Y11505D01*
X422D01*
X429Y11505D01*
X436Y11506D01*
X443Y11507D01*
X450Y11509D01*
X456Y11510D01*
X458Y11511D01*
X461Y11511D01*
X462Y11512D01*
X463Y11512D01*
X464Y11512D01*
X465D01*
X470Y11514D01*
X476Y11517D01*
X480Y11519D01*
X485Y11522D01*
X489Y11525D01*
X491Y11527D01*
X493Y11528D01*
X494Y11529D01*
X494D01*
X499Y11533D01*
X503Y11538D01*
X507Y11543D01*
X510Y11547D01*
X513Y11550D01*
X514Y11553D01*
X515Y11555D01*
X516Y11555D01*
Y11556D01*
X518Y11562D01*
X520Y11567D01*
X522Y11574D01*
X524Y11579D01*
X524Y11584D01*
X525Y11587D01*
X525Y11588D01*
X525Y11590D01*
X526Y11591D01*
Y11592D01*
X527Y11600D01*
X527Y11608D01*
X528Y11615D01*
X528Y11621D01*
X528Y11625D01*
Y11505D01*
D01*
Y11748D01*
D02*
G37*
G36*
X400Y11463D02*
X266D01*
Y11200D01*
D01*
Y11331D01*
X266Y11320D01*
X268Y11309D01*
X269Y11299D01*
X271Y11290D01*
X274Y11281D01*
X277Y11273D01*
X280Y11266D01*
X283Y11260D01*
X287Y11254D01*
X290Y11249D01*
X293Y11245D01*
X295Y11241D01*
X298Y11238D01*
X299Y11236D01*
X300Y11235D01*
X301Y11235D01*
X308Y11229D01*
X315Y11223D01*
X323Y11219D01*
X330Y11215D01*
X339Y11211D01*
X347Y11209D01*
X354Y11206D01*
X362Y11205D01*
X369Y11203D01*
X376Y11202D01*
X382Y11201D01*
X387Y11201D01*
X392Y11201D01*
X395Y11200D01*
X417D01*
X397D01*
X406Y11201D01*
X413Y11201D01*
X421Y11202D01*
X428Y11203D01*
X434Y11204D01*
X440Y11206D01*
X446Y11207D01*
X451Y11209D01*
X456Y11211D01*
X460Y11212D01*
X463Y11213D01*
X466Y11215D01*
X468Y11216D01*
X470Y11217D01*
X471Y11217D01*
X471Y11217D01*
X477Y11221D01*
X482Y11224D01*
X486Y11228D01*
X491Y11232D01*
X495Y11236D01*
X498Y11240D01*
X501Y11243D01*
X504Y11247D01*
X507Y11250D01*
X509Y11253D01*
X511Y11256D01*
X512Y11258D01*
X513Y11260D01*
X514Y11262D01*
X514Y11263D01*
X515Y11263D01*
X517Y11268D01*
X519Y11274D01*
X523Y11286D01*
X525Y11298D01*
X526Y11304D01*
X527Y11309D01*
X527Y11314D01*
X528Y11319D01*
X528Y11323D01*
Y11327D01*
X528Y11330D01*
Y11334D01*
X528Y11342D01*
X528Y11349D01*
X527Y11356D01*
X526Y11363D01*
X524Y11369D01*
X523Y11375D01*
X522Y11380D01*
X520Y11385D01*
X519Y11389D01*
X518Y11393D01*
X516Y11396D01*
X515Y11399D01*
X514Y11401D01*
X513Y11403D01*
X513Y11404D01*
X513Y11404D01*
X510Y11410D01*
X506Y11414D01*
X503Y11419D01*
X499Y11423D01*
X495Y11427D01*
X492Y11430D01*
X488Y11434D01*
X485Y11437D01*
X481Y11439D01*
X478Y11441D01*
X476Y11443D01*
X473Y11445D01*
X471Y11446D01*
X470Y11447D01*
X469Y11447D01*
X468Y11448D01*
X463Y11450D01*
X457Y11453D01*
X445Y11456D01*
X433Y11459D01*
X427Y11460D01*
X421Y11461D01*
X416Y11461D01*
X411Y11462D01*
X407Y11462D01*
X403D01*
X400Y11463D01*
D02*
G37*
%LPD*%
G36*
X524Y11782D02*
X333D01*
Y11862D01*
X524D01*
Y11782D01*
D02*
G37*
G36*
X384Y11462D02*
X374Y11461D01*
X364Y11460D01*
X355Y11457D01*
X346Y11455D01*
X338Y11452D01*
X331Y11449D01*
X325Y11445D01*
X319Y11442D01*
X314Y11439D01*
X310Y11436D01*
X306Y11434D01*
X304Y11431D01*
X302Y11430D01*
X300Y11429D01*
X300Y11428D01*
X294Y11421D01*
X289Y11414D01*
X284Y11406D01*
X280Y11399D01*
X277Y11391D01*
X275Y11382D01*
X272Y11374D01*
X271Y11367D01*
X269Y11359D01*
X268Y11353D01*
X267Y11347D01*
X267Y11341D01*
X266Y11337D01*
X266Y11334D01*
Y11463D01*
X395D01*
X384Y11462D01*
D02*
G37*
G36*
X409Y11384D02*
X416Y11383D01*
X422Y11382D01*
X427Y11381D01*
X432Y11380D01*
X436Y11379D01*
X440Y11377D01*
X443Y11376D01*
X446Y11375D01*
X448Y11373D01*
X450Y11372D01*
X451Y11372D01*
X452Y11371D01*
X453Y11371D01*
X453Y11370D01*
X456Y11367D01*
X459Y11365D01*
X461Y11362D01*
X463Y11358D01*
X466Y11352D01*
X467Y11346D01*
X469Y11340D01*
X469Y11338D01*
X469Y11335D01*
X470Y11334D01*
Y11331D01*
X469Y11327D01*
X469Y11323D01*
X467Y11315D01*
X464Y11309D01*
X461Y11303D01*
X458Y11299D01*
X456Y11295D01*
X455Y11294D01*
X454Y11293D01*
X453Y11293D01*
X453Y11293D01*
X450Y11290D01*
X446Y11288D01*
X442Y11286D01*
X437Y11284D01*
X428Y11282D01*
X419Y11280D01*
X415Y11280D01*
X411Y11279D01*
X407Y11279D01*
X404D01*
X402Y11279D01*
X399D01*
X398D01*
X398D01*
X391Y11279D01*
X384Y11279D01*
X378Y11280D01*
X373Y11281D01*
X368Y11282D01*
X363Y11283D01*
X359Y11284D01*
X355Y11286D01*
X352Y11287D01*
X350Y11288D01*
X347Y11289D01*
X345Y11290D01*
X344Y11291D01*
X343Y11292D01*
X343Y11293D01*
X342D01*
X339Y11295D01*
X337Y11298D01*
X334Y11301D01*
X333Y11305D01*
X329Y11311D01*
X328Y11317D01*
X326Y11323D01*
X326Y11325D01*
X326Y11327D01*
X325Y11328D01*
Y11331D01*
X326Y11335D01*
X326Y11339D01*
X328Y11347D01*
X331Y11354D01*
X334Y11359D01*
X337Y11364D01*
X338Y11366D01*
X339Y11367D01*
X340Y11368D01*
X341Y11369D01*
X342Y11369D01*
X342Y11370D01*
X345Y11372D01*
X349Y11375D01*
X357Y11378D01*
X366Y11381D01*
X374Y11382D01*
X378Y11383D01*
X382Y11384D01*
X386Y11384D01*
X388D01*
X391Y11384D01*
X393D01*
X394D01*
X394D01*
X402D01*
X409Y11384D01*
D02*
G37*
%LPC*%
G36*
X955Y10652D02*
X952D01*
X945Y10652D01*
X939Y10651D01*
X934Y10649D01*
X929Y10647D01*
X926Y10645D01*
X924Y10645D01*
X923Y10644D01*
X922Y10643D01*
X921Y10643D01*
X921Y10642D01*
X921Y10642D01*
X919Y10640D01*
X916Y10638D01*
X913Y10633D01*
X909Y10628D01*
X907Y10622D01*
X905Y10618D01*
X904Y10616D01*
X904Y10614D01*
X903Y10612D01*
X903Y10611D01*
X903Y10611D01*
Y10610D01*
X901Y10615D01*
X899Y10620D01*
X896Y10623D01*
X894Y10627D01*
X892Y10629D01*
X891Y10631D01*
X890Y10632D01*
X889Y10632D01*
X887Y10634D01*
X885Y10636D01*
X879Y10638D01*
X874Y10640D01*
X870Y10642D01*
X865Y10643D01*
X864Y10643D01*
X862D01*
X861Y10643D01*
X860D01*
X859D01*
X859D01*
X855Y10643D01*
X852Y10642D01*
X848Y10642D01*
X845Y10641D01*
X839Y10638D01*
X836Y10637D01*
X834Y10635D01*
X831Y10634D01*
X829Y10632D01*
X828Y10631D01*
X826Y10630D01*
X825Y10629D01*
X825Y10628D01*
X824Y10628D01*
X824Y10628D01*
X821Y10625D01*
X819Y10621D01*
X817Y10618D01*
X815Y10614D01*
X814Y10610D01*
X813Y10607D01*
X811Y10600D01*
X811Y10596D01*
X810Y10593D01*
X810Y10590D01*
X810Y10588D01*
X809Y10586D01*
Y10652D01*
D01*
D01*
Y10468D01*
X1009D01*
Y10576D01*
X1009Y10577D01*
X1009Y10581D01*
X1008Y10586D01*
X1008Y10591D01*
X1007Y10595D01*
Y10597D01*
X1007Y10598D01*
X1007Y10600D01*
X1006Y10601D01*
Y10602D01*
X1006Y10607D01*
X1005Y10612D01*
X1003Y10616D01*
X1002Y10619D01*
X1001Y10622D01*
X1001Y10624D01*
X1000Y10625D01*
X1000Y10625D01*
X997Y10630D01*
X994Y10634D01*
X990Y10637D01*
X987Y10640D01*
X984Y10642D01*
X982Y10644D01*
X981Y10645D01*
X980Y10645D01*
X980D01*
X976Y10648D01*
X971Y10649D01*
X966Y10651D01*
X962Y10651D01*
X958Y10652D01*
X956Y10652D01*
X955Y10652D01*
D02*
G37*
%LPD*%
G36*
X949Y10590D02*
X952Y10589D01*
X954Y10588D01*
X957Y10587D01*
X958Y10586D01*
X960Y10585D01*
X960Y10584D01*
X961Y10584D01*
X962Y10581D01*
X964Y10577D01*
X965Y10574D01*
X965Y10570D01*
X966Y10567D01*
X966Y10564D01*
Y10530D01*
X926D01*
Y10561D01*
X926Y10567D01*
X926Y10571D01*
X927Y10575D01*
X928Y10579D01*
X929Y10581D01*
X930Y10583D01*
X931Y10584D01*
X931Y10584D01*
X933Y10586D01*
X935Y10588D01*
X938Y10589D01*
X940Y10590D01*
X942Y10590D01*
X944Y10590D01*
X945D01*
X945D01*
X949Y10590D01*
D02*
G37*
G36*
X872Y10582D02*
X874Y10582D01*
X877Y10581D01*
X879Y10580D01*
X881Y10579D01*
X882Y10578D01*
X882Y10577D01*
X883Y10577D01*
X884Y10574D01*
X886Y10571D01*
X886Y10568D01*
X887Y10565D01*
X887Y10562D01*
X888Y10559D01*
Y10530D01*
X850D01*
Y10557D01*
X850Y10562D01*
X851Y10566D01*
X851Y10569D01*
X852Y10572D01*
X853Y10574D01*
X854Y10576D01*
X855Y10576D01*
X855Y10577D01*
X857Y10579D01*
X859Y10580D01*
X861Y10581D01*
X863Y10582D01*
X865Y10582D01*
X867Y10583D01*
X868D01*
X868D01*
X872Y10582D01*
D02*
G37*
%LPC*%
G36*
X33007Y11198D02*
X32934Y11160D01*
X32931Y11159D01*
X32929Y11157D01*
X32924Y11153D01*
X32921Y11151D01*
X32919Y11150D01*
X32918Y11149D01*
X32918Y11149D01*
X32914Y11146D01*
X32911Y11143D01*
X32909Y11141D01*
X32907Y11139D01*
X32906Y11138D01*
X32905Y11137D01*
X32904Y11136D01*
Y11136D01*
X32902Y11133D01*
X32901Y11130D01*
X32898Y11124D01*
X32897Y11121D01*
X32896Y11118D01*
X32895Y11117D01*
X32895Y11116D01*
Y11116D01*
X32893Y11122D01*
X32891Y11128D01*
X32890Y11132D01*
X32888Y11136D01*
X32887Y11140D01*
X32886Y11142D01*
X32885Y11143D01*
X32885Y11144D01*
X32881Y11149D01*
X32877Y11154D01*
X32873Y11159D01*
X32869Y11162D01*
X32865Y11165D01*
X32862Y11167D01*
X32861Y11168D01*
X32860Y11169D01*
X32860D01*
X32854Y11172D01*
X32848Y11174D01*
X32842Y11175D01*
X32836Y11176D01*
X32831Y11177D01*
X32829D01*
X32827Y11178D01*
X32826D01*
X32825D01*
X32824D01*
X32824D01*
X32815Y11177D01*
X32807Y11176D01*
X32800Y11174D01*
X32794Y11172D01*
X32791Y11170D01*
X32789Y11170D01*
X32787Y11169D01*
X32786Y11168D01*
X32784Y11167D01*
X32783Y11166D01*
X32783Y11166D01*
X32783D01*
X32777Y11161D01*
X32772Y11156D01*
X32768Y11151D01*
X32765Y11146D01*
X32762Y11141D01*
X32761Y11138D01*
X32760Y11136D01*
X32760Y11136D01*
X32760Y11135D01*
Y11135D01*
X32758Y11131D01*
X32757Y11127D01*
X32756Y11118D01*
X32755Y11109D01*
X32754Y11100D01*
Y11096D01*
X32754Y11092D01*
Y11088D01*
X32753Y11085D01*
Y10949D01*
X33007D01*
Y11198D01*
D02*
G37*
G36*
Y10906D02*
X32753D01*
X32949D01*
Y10771D01*
X32899D01*
Y10892D01*
X32847D01*
Y10771D01*
X32807D01*
Y10902D01*
X32753D01*
Y10692D01*
X33007D01*
Y10906D01*
D02*
G37*
G36*
X33319Y11005D02*
X33066D01*
Y10756D01*
X33319D01*
Y10854D01*
Y10834D01*
X33216D01*
Y10841D01*
X33217Y10845D01*
X33217Y10848D01*
X33218Y10852D01*
X33219Y10854D01*
X33220Y10857D01*
X33221Y10858D01*
X33222Y10860D01*
X33222Y10860D01*
X33225Y10863D01*
X33227Y10865D01*
X33230Y10867D01*
X33234Y10870D01*
X33237Y10872D01*
X33239Y10873D01*
X33241Y10874D01*
X33242Y10874D01*
X33242D01*
X33319Y10917D01*
Y11005D01*
X33246Y10967D01*
X33244Y10965D01*
X33241Y10964D01*
X33236Y10960D01*
X33234Y10958D01*
X33232Y10957D01*
X33231Y10956D01*
X33230Y10956D01*
X33227Y10953D01*
X33224Y10950D01*
X33222Y10948D01*
X33220Y10946D01*
X33219Y10945D01*
X33218Y10944D01*
X33217Y10943D01*
Y10943D01*
X33215Y10940D01*
X33214Y10937D01*
X33210Y10931D01*
X33210Y10927D01*
X33209Y10925D01*
X33208Y10923D01*
X33208Y10923D01*
Y10923D01*
X33206Y10929D01*
X33204Y10935D01*
X33203Y10939D01*
X33201Y10943D01*
X33200Y10946D01*
X33198Y10949D01*
X33198Y10950D01*
X33197Y10951D01*
X33194Y10956D01*
X33190Y10961D01*
X33186Y10965D01*
X33181Y10969D01*
X33178Y10972D01*
X33175Y10974D01*
X33173Y10975D01*
X33173Y10975D01*
X33173D01*
X33167Y10979D01*
X33161Y10981D01*
X33155Y10982D01*
X33149Y10983D01*
X33144Y10984D01*
X33142D01*
X33140Y10985D01*
X33138D01*
X33137D01*
X33137D01*
X33137D01*
X33128Y10984D01*
X33120Y10983D01*
X33113Y10981D01*
X33107Y10979D01*
X33104Y10977D01*
X33102Y10976D01*
X33100Y10975D01*
X33098Y10975D01*
X33097Y10974D01*
X33096Y10973D01*
X33096Y10973D01*
X33095D01*
X33089Y10968D01*
X33085Y10963D01*
X33081Y10958D01*
X33078Y10953D01*
X33075Y10948D01*
X33073Y10945D01*
X33073Y10943D01*
X33073Y10942D01*
X33072Y10942D01*
Y10941D01*
X33071Y10938D01*
X33070Y10934D01*
X33069Y10925D01*
X33068Y10916D01*
X33067Y10907D01*
Y10902D01*
X33066Y10898D01*
Y10895D01*
X33066Y10892D01*
Y11005D01*
X33319D01*
D02*
G37*
G36*
Y10713D02*
X33066D01*
X33262D01*
Y10578D01*
X33212D01*
Y10699D01*
X33160D01*
Y10578D01*
X33120D01*
Y10709D01*
X33066D01*
Y10499D01*
X33319D01*
Y10713D01*
D02*
G37*
G36*
X32835Y10652D02*
X32753D01*
X32831D01*
X32824Y10651D01*
X32818Y10651D01*
X32812Y10650D01*
X32806Y10648D01*
X32801Y10647D01*
X32797Y10645D01*
X32792Y10643D01*
X32788Y10641D01*
X32785Y10639D01*
X32782Y10637D01*
X32779Y10635D01*
X32777Y10634D01*
X32776Y10632D01*
X32774Y10631D01*
X32774Y10631D01*
X32774Y10630D01*
X32770Y10626D01*
X32767Y10622D01*
X32764Y10617D01*
X32762Y10611D01*
X32760Y10606D01*
X32758Y10601D01*
X32756Y10590D01*
X32755Y10585D01*
X32754Y10581D01*
X32754Y10577D01*
X32754Y10574D01*
X32753Y10571D01*
Y10436D01*
X33007D01*
Y10515D01*
X32913D01*
Y10558D01*
X32912Y10566D01*
X32912Y10574D01*
X32911Y10582D01*
X32909Y10589D01*
X32908Y10595D01*
X32906Y10601D01*
X32904Y10606D01*
X32902Y10611D01*
X32900Y10615D01*
X32898Y10619D01*
X32896Y10621D01*
X32895Y10624D01*
X32893Y10626D01*
X32892Y10627D01*
X32891Y10628D01*
X32891Y10628D01*
X32887Y10632D01*
X32882Y10636D01*
X32878Y10639D01*
X32873Y10642D01*
X32868Y10644D01*
X32863Y10646D01*
X32858Y10648D01*
X32853Y10649D01*
X32849Y10650D01*
X32845Y10650D01*
X32841Y10651D01*
X32838Y10651D01*
X32835Y10652D01*
D02*
G37*
G36*
X33007Y10396D02*
D01*
Y10259D01*
X32913D01*
Y10302D01*
X32912Y10311D01*
X32912Y10319D01*
X32911Y10326D01*
X32909Y10333D01*
X32908Y10340D01*
X32906Y10345D01*
X32904Y10351D01*
X32902Y10355D01*
X32900Y10359D01*
X32898Y10363D01*
X32896Y10366D01*
X32895Y10368D01*
X32893Y10370D01*
X32892Y10372D01*
X32891Y10372D01*
X32891Y10373D01*
X32887Y10377D01*
X32882Y10381D01*
X32878Y10384D01*
X32873Y10386D01*
X32868Y10389D01*
X32863Y10390D01*
X32858Y10392D01*
X32853Y10393D01*
X32849Y10394D01*
X32845Y10395D01*
X32841Y10395D01*
X32838Y10396D01*
X32835Y10396D01*
X32753D01*
X32831D01*
X32824Y10396D01*
X32818Y10395D01*
X32812Y10394D01*
X32806Y10393D01*
X32801Y10391D01*
X32797Y10390D01*
X32792Y10387D01*
X32788Y10385D01*
X32785Y10384D01*
X32782Y10382D01*
X32779Y10380D01*
X32777Y10378D01*
X32776Y10377D01*
X32774Y10376D01*
X32774Y10375D01*
X32774Y10375D01*
X32770Y10371D01*
X32767Y10366D01*
X32764Y10361D01*
X32762Y10356D01*
X32760Y10351D01*
X32758Y10345D01*
X32756Y10335D01*
X32755Y10330D01*
X32754Y10326D01*
X32754Y10322D01*
X32754Y10318D01*
X32753Y10315D01*
Y10181D01*
X33007D01*
Y10396D01*
D02*
G37*
G36*
X33319Y10473D02*
X33066D01*
Y10119D01*
D01*
X33319Y10175D01*
Y10252D01*
X33160Y10296D01*
X33319Y10341D01*
Y10418D01*
X33066Y10473D01*
X33319D01*
D02*
G37*
G36*
X33007Y10139D02*
X32753D01*
X32949D01*
Y10004D01*
X32899D01*
Y10126D01*
X32847D01*
Y10004D01*
X32807D01*
Y10136D01*
X32753D01*
Y9926D01*
X33007D01*
Y10139D01*
D02*
G37*
G36*
X33195Y10103D02*
X33062D01*
Y9840D01*
D01*
Y9971D01*
X33062Y9960D01*
X33063Y9949D01*
X33065Y9939D01*
X33067Y9930D01*
X33070Y9922D01*
X33073Y9913D01*
X33076Y9906D01*
X33079Y9900D01*
X33082Y9894D01*
X33085Y9889D01*
X33088Y9885D01*
X33091Y9881D01*
X33093Y9878D01*
X33095Y9876D01*
X33096Y9875D01*
X33096Y9875D01*
X33103Y9869D01*
X33110Y9864D01*
X33118Y9859D01*
X33126Y9855D01*
X33134Y9852D01*
X33142Y9849D01*
X33150Y9847D01*
X33158Y9845D01*
X33165Y9843D01*
X33171Y9842D01*
X33177Y9841D01*
X33183Y9841D01*
X33187Y9841D01*
X33190Y9840D01*
X33213D01*
X33193D01*
X33201Y9841D01*
X33209Y9841D01*
X33216Y9842D01*
X33223Y9843D01*
X33230Y9844D01*
X33236Y9846D01*
X33241Y9847D01*
X33247Y9849D01*
X33251Y9851D01*
X33255Y9852D01*
X33259Y9854D01*
X33262Y9855D01*
X33264Y9856D01*
X33266Y9857D01*
X33267Y9857D01*
X33267Y9858D01*
X33272Y9861D01*
X33277Y9864D01*
X33282Y9868D01*
X33286Y9872D01*
X33290Y9876D01*
X33294Y9880D01*
X33297Y9883D01*
X33300Y9887D01*
X33302Y9890D01*
X33304Y9893D01*
X33306Y9896D01*
X33308Y9898D01*
X33309Y9900D01*
X33310Y9902D01*
X33310Y9903D01*
X33310Y9903D01*
X33313Y9908D01*
X33315Y9914D01*
X33318Y9926D01*
X33320Y9938D01*
X33321Y9944D01*
X33322Y9949D01*
X33322Y9954D01*
X33323Y9959D01*
X33323Y9963D01*
Y9967D01*
X33324Y9970D01*
Y9974D01*
X33323Y9982D01*
X33323Y9989D01*
X33322Y9996D01*
X33321Y10003D01*
X33320Y10009D01*
X33319Y10015D01*
X33317Y10020D01*
X33316Y10025D01*
X33314Y10029D01*
X33313Y10033D01*
X33312Y10037D01*
X33311Y10039D01*
X33310Y10042D01*
X33309Y10043D01*
X33308Y10044D01*
X33308Y10044D01*
X33305Y10050D01*
X33302Y10054D01*
X33298Y10059D01*
X33294Y10063D01*
X33291Y10067D01*
X33287Y10071D01*
X33283Y10074D01*
X33280Y10077D01*
X33277Y10079D01*
X33273Y10082D01*
X33271Y10083D01*
X33268Y10085D01*
X33267Y10086D01*
X33265Y10087D01*
X33264Y10088D01*
X33264Y10088D01*
X33258Y10090D01*
X33253Y10093D01*
X33240Y10097D01*
X33228Y10099D01*
X33222Y10100D01*
X33217Y10101D01*
X33211Y10102D01*
X33206Y10102D01*
X33202Y10103D01*
X33198D01*
X33195Y10103D01*
D02*
G37*
G36*
X33007Y9890D02*
Y9810D01*
X32816D01*
Y9890D01*
X32753D01*
Y9652D01*
X33007D01*
Y9890D01*
D02*
G37*
G36*
X33148Y9810D02*
X33066D01*
X33144D01*
X33137Y9809D01*
X33131Y9809D01*
X33125Y9808D01*
X33119Y9806D01*
X33114Y9805D01*
X33109Y9803D01*
X33105Y9801D01*
X33101Y9799D01*
X33098Y9797D01*
X33095Y9795D01*
X33092Y9793D01*
X33090Y9792D01*
X33088Y9790D01*
X33087Y9789D01*
X33087Y9789D01*
X33086Y9788D01*
X33083Y9784D01*
X33080Y9780D01*
X33077Y9775D01*
X33074Y9769D01*
X33073Y9764D01*
X33071Y9759D01*
X33069Y9748D01*
X33068Y9743D01*
X33067Y9739D01*
X33067Y9735D01*
X33066Y9732D01*
X33066Y9728D01*
Y9594D01*
X33319D01*
Y9673D01*
X33225D01*
Y9716D01*
X33225Y9724D01*
X33225Y9732D01*
X33224Y9740D01*
X33222Y9747D01*
X33220Y9753D01*
X33219Y9759D01*
X33217Y9764D01*
X33215Y9769D01*
X33213Y9773D01*
X33211Y9776D01*
X33209Y9779D01*
X33207Y9782D01*
X33206Y9784D01*
X33205Y9785D01*
X33204Y9786D01*
X33204Y9786D01*
X33200Y9790D01*
X33195Y9794D01*
X33191Y9797D01*
X33186Y9800D01*
X33181Y9802D01*
X33176Y9804D01*
X33171Y9805D01*
X33166Y9807D01*
X33161Y9808D01*
X33157Y9808D01*
X33154Y9809D01*
X33150Y9809D01*
X33148Y9810D01*
D02*
G37*
G36*
X33011Y9631D02*
X32749D01*
X32924D01*
X32917Y9631D01*
X32910Y9630D01*
X32903Y9628D01*
X32898Y9626D01*
X32893Y9624D01*
X32891Y9623D01*
X32890Y9622D01*
X32888Y9622D01*
X32887Y9621D01*
X32887Y9621D01*
X32887D01*
X32881Y9616D01*
X32875Y9611D01*
X32871Y9606D01*
X32867Y9601D01*
X32863Y9596D01*
X32862Y9594D01*
X32861Y9592D01*
X32860Y9591D01*
X32859Y9589D01*
X32859Y9589D01*
Y9588D01*
X32857Y9584D01*
X32854Y9579D01*
X32852Y9573D01*
X32850Y9567D01*
X32847Y9555D01*
X32843Y9543D01*
X32842Y9537D01*
X32840Y9532D01*
X32839Y9527D01*
X32838Y9523D01*
X32837Y9520D01*
X32837Y9517D01*
X32836Y9515D01*
Y9515D01*
X32835Y9511D01*
X32835Y9508D01*
X32834Y9505D01*
X32833Y9502D01*
X32831Y9497D01*
X32830Y9494D01*
X32829Y9491D01*
X32828Y9490D01*
X32827Y9489D01*
X32827Y9488D01*
X32825Y9487D01*
X32823Y9485D01*
X32821Y9484D01*
X32820Y9484D01*
X32818Y9483D01*
X32817Y9483D01*
X32816D01*
X32816D01*
X32813Y9483D01*
X32810Y9484D01*
X32808Y9485D01*
X32806Y9486D01*
X32804Y9488D01*
X32803Y9489D01*
X32802Y9489D01*
X32802Y9490D01*
X32800Y9493D01*
X32799Y9496D01*
X32798Y9499D01*
X32797Y9503D01*
X32796Y9506D01*
X32796Y9508D01*
Y9510D01*
X32796Y9516D01*
X32797Y9521D01*
X32799Y9526D01*
X32800Y9529D01*
X32801Y9532D01*
X32803Y9535D01*
X32803Y9536D01*
X32804Y9536D01*
X32807Y9539D01*
X32811Y9542D01*
X32815Y9544D01*
X32819Y9546D01*
X32823Y9547D01*
X32826Y9548D01*
X32827Y9548D01*
X32828Y9549D01*
X32828D01*
X32829D01*
X32825Y9623D01*
X32818Y9621D01*
X32811Y9620D01*
X32805Y9618D01*
X32799Y9616D01*
X32794Y9613D01*
X32789Y9611D01*
X32785Y9608D01*
X32781Y9605D01*
X32778Y9603D01*
X32775Y9600D01*
X32772Y9598D01*
X32770Y9596D01*
X32769Y9595D01*
X32768Y9593D01*
X32767Y9592D01*
X32767Y9592D01*
X32764Y9587D01*
X32761Y9582D01*
X32759Y9576D01*
X32756Y9570D01*
X32755Y9564D01*
X32753Y9557D01*
X32751Y9546D01*
X32750Y9540D01*
X32750Y9535D01*
X32750Y9530D01*
X32749Y9526D01*
X32749Y9523D01*
Y9511D01*
X32749Y9504D01*
X32750Y9498D01*
X32750Y9492D01*
X32751Y9486D01*
X32752Y9481D01*
X32753Y9476D01*
X32754Y9472D01*
X32755Y9468D01*
X32756Y9465D01*
X32757Y9462D01*
X32757Y9460D01*
X32758Y9458D01*
X32759Y9457D01*
X32759Y9456D01*
Y9456D01*
X32763Y9448D01*
X32767Y9441D01*
X32772Y9435D01*
X32776Y9430D01*
X32780Y9426D01*
X32784Y9424D01*
X32785Y9423D01*
X32785Y9422D01*
X32786Y9422D01*
X32786D01*
X32793Y9418D01*
X32799Y9415D01*
X32805Y9413D01*
X32811Y9412D01*
X32816Y9411D01*
X32818Y9411D01*
X32820D01*
X32821Y9410D01*
X32822D01*
X32823D01*
X32823D01*
X32828Y9411D01*
X32834Y9411D01*
X32839Y9412D01*
X32843Y9414D01*
X32847Y9415D01*
X32852Y9417D01*
X32855Y9420D01*
X32859Y9421D01*
X32862Y9424D01*
X32864Y9425D01*
X32867Y9427D01*
X32869Y9429D01*
X32870Y9430D01*
X32871Y9431D01*
X32872Y9432D01*
X32872Y9432D01*
X32876Y9437D01*
X32879Y9442D01*
X32882Y9447D01*
X32885Y9453D01*
X32890Y9465D01*
X32895Y9478D01*
X32896Y9483D01*
X32898Y9488D01*
X32900Y9493D01*
X32901Y9498D01*
X32901Y9501D01*
X32902Y9504D01*
X32903Y9505D01*
Y9506D01*
X32904Y9512D01*
X32905Y9517D01*
X32906Y9521D01*
X32908Y9526D01*
X32909Y9529D01*
X32911Y9532D01*
X32911Y9535D01*
X32913Y9538D01*
X32914Y9540D01*
X32915Y9542D01*
X32915Y9543D01*
X32916Y9544D01*
X32917Y9546D01*
X32917Y9546D01*
X32920Y9549D01*
X32923Y9551D01*
X32926Y9553D01*
X32929Y9554D01*
X32932Y9555D01*
X32934Y9555D01*
X32935D01*
X32935D01*
X32939Y9555D01*
X32942Y9553D01*
X32945Y9552D01*
X32948Y9550D01*
X32950Y9549D01*
X32952Y9547D01*
X32953Y9546D01*
X32953Y9546D01*
X32956Y9542D01*
X32958Y9538D01*
X32959Y9533D01*
X32960Y9529D01*
X32961Y9526D01*
X32961Y9523D01*
Y9520D01*
X32961Y9516D01*
X32960Y9512D01*
X32959Y9505D01*
X32956Y9499D01*
X32953Y9494D01*
X32950Y9490D01*
X32948Y9488D01*
X32946Y9486D01*
X32946Y9485D01*
X32946D01*
X32942Y9483D01*
X32937Y9481D01*
X32933Y9479D01*
X32928Y9478D01*
X32924Y9477D01*
X32921Y9476D01*
X32920Y9476D01*
X32919Y9476D01*
X32918D01*
X32918D01*
X32923Y9401D01*
X32930Y9402D01*
X32936Y9403D01*
X32943Y9405D01*
X32949Y9407D01*
X32955Y9409D01*
X32960Y9411D01*
X32964Y9414D01*
X32969Y9416D01*
X32973Y9419D01*
X32976Y9421D01*
X32979Y9423D01*
X32982Y9425D01*
X32984Y9427D01*
X32985Y9428D01*
X32986Y9429D01*
X32986Y9429D01*
X32991Y9434D01*
X32994Y9440D01*
X32998Y9447D01*
X33001Y9454D01*
X33003Y9461D01*
X33005Y9469D01*
X33007Y9476D01*
X33008Y9484D01*
X33009Y9490D01*
X33010Y9497D01*
X33010Y9503D01*
X33011Y9508D01*
Y9513D01*
X33011Y9516D01*
Y9401D01*
Y9631D01*
D02*
G37*
%LPD*%
G36*
X33007Y11027D02*
X32904D01*
Y11034D01*
X32904Y11038D01*
X32905Y11042D01*
X32906Y11045D01*
X32906Y11048D01*
X32908Y11050D01*
X32909Y11052D01*
X32909Y11053D01*
X32910Y11053D01*
X32912Y11056D01*
X32915Y11058D01*
X32918Y11060D01*
X32921Y11063D01*
X32924Y11065D01*
X32927Y11066D01*
X32929Y11067D01*
X32929Y11068D01*
X32929D01*
X33007Y11110D01*
Y11027D01*
D02*
G37*
G36*
X32833Y11099D02*
X32836Y11098D01*
X32838Y11097D01*
X32840Y11097D01*
X32842Y11096D01*
X32843Y11095D01*
X32844Y11094D01*
X32845Y11094D01*
X32847Y11092D01*
X32848Y11090D01*
X32850Y11088D01*
X32851Y11086D01*
X32852Y11084D01*
X32852Y11083D01*
X32852Y11082D01*
Y11081D01*
X32853Y11076D01*
X32854Y11071D01*
X32855Y11068D01*
X32855Y11065D01*
Y11063D01*
X32856Y11061D01*
Y11027D01*
X32804D01*
Y11065D01*
X32805Y11069D01*
X32805Y11075D01*
X32807Y11080D01*
X32808Y11084D01*
X32809Y11087D01*
X32810Y11089D01*
X32811Y11091D01*
X32811Y11091D01*
X32814Y11094D01*
X32817Y11096D01*
X32820Y11097D01*
X32823Y11098D01*
X32826Y11099D01*
X32828Y11099D01*
X32829D01*
X32830D01*
X32833Y11099D01*
D02*
G37*
G36*
X33146Y10906D02*
X33148Y10905D01*
X33151Y10904D01*
X33153Y10903D01*
X33155Y10902D01*
X33156Y10902D01*
X33157Y10901D01*
X33157Y10901D01*
X33160Y10899D01*
X33161Y10897D01*
X33162Y10895D01*
X33163Y10893D01*
X33164Y10891D01*
X33165Y10889D01*
X33165Y10888D01*
Y10888D01*
X33166Y10883D01*
X33167Y10878D01*
X33167Y10875D01*
X33168Y10872D01*
Y10870D01*
X33168Y10868D01*
Y10834D01*
X33117D01*
Y10872D01*
X33117Y10876D01*
X33118Y10882D01*
X33119Y10887D01*
X33120Y10891D01*
X33122Y10894D01*
X33123Y10896D01*
X33123Y10897D01*
X33124Y10898D01*
X33127Y10901D01*
X33129Y10902D01*
X33132Y10904D01*
X33136Y10905D01*
X33138Y10906D01*
X33141Y10906D01*
X33142D01*
X33142D01*
X33146Y10906D01*
D02*
G37*
G36*
X32838Y10575D02*
X32842Y10574D01*
X32845Y10573D01*
X32848Y10571D01*
X32850Y10569D01*
X32852Y10568D01*
X32853Y10566D01*
X32853Y10566D01*
X32855Y10564D01*
X32856Y10562D01*
X32858Y10557D01*
X32859Y10552D01*
X32860Y10546D01*
X32861Y10542D01*
Y10540D01*
X32861Y10538D01*
Y10515D01*
X32805D01*
Y10541D01*
X32805Y10545D01*
X32806Y10551D01*
X32808Y10556D01*
X32809Y10561D01*
X32810Y10564D01*
X32812Y10566D01*
X32813Y10567D01*
X32813Y10567D01*
X32817Y10570D01*
X32820Y10572D01*
X32823Y10574D01*
X32827Y10575D01*
X32829Y10575D01*
X32832Y10575D01*
X32833D01*
X32833D01*
X32838Y10575D01*
D02*
G37*
G36*
Y10320D02*
X32842Y10318D01*
X32845Y10317D01*
X32848Y10315D01*
X32850Y10314D01*
X32852Y10312D01*
X32853Y10311D01*
X32853Y10311D01*
X32855Y10309D01*
X32856Y10307D01*
X32858Y10302D01*
X32859Y10296D01*
X32860Y10291D01*
X32861Y10286D01*
Y10284D01*
X32861Y10282D01*
Y10259D01*
X32805D01*
Y10286D01*
X32805Y10289D01*
X32806Y10296D01*
X32808Y10301D01*
X32809Y10305D01*
X32810Y10308D01*
X32812Y10310D01*
X32813Y10312D01*
X32813Y10312D01*
X32817Y10315D01*
X32820Y10317D01*
X32823Y10318D01*
X32827Y10319D01*
X32829Y10320D01*
X32832Y10320D01*
X32833D01*
X32833D01*
X32838Y10320D01*
D02*
G37*
G36*
X33207Y10372D02*
X33066Y10333D01*
Y10399D01*
X33207Y10372D01*
D02*
G37*
G36*
X33207Y10220D02*
X33066Y10193D01*
Y10259D01*
X33207Y10220D01*
D02*
G37*
G36*
X33180Y10103D02*
X33169Y10101D01*
X33159Y10100D01*
X33150Y10098D01*
X33142Y10095D01*
X33134Y10092D01*
X33127Y10089D01*
X33120Y10086D01*
X33115Y10083D01*
X33110Y10079D01*
X33105Y10077D01*
X33102Y10074D01*
X33099Y10072D01*
X33097Y10070D01*
X33096Y10069D01*
X33096Y10069D01*
X33090Y10062D01*
X33084Y10054D01*
X33080Y10047D01*
X33076Y10039D01*
X33073Y10031D01*
X33070Y10023D01*
X33068Y10015D01*
X33066Y10007D01*
X33064Y10000D01*
X33064Y9993D01*
X33063Y9987D01*
X33062Y9981D01*
X33062Y9977D01*
X33062Y9974D01*
Y10103D01*
X33191D01*
X33180Y10103D01*
D02*
G37*
G36*
X33205Y10024D02*
X33211Y10023D01*
X33217Y10022D01*
X33222Y10021D01*
X33227Y10020D01*
X33231Y10019D01*
X33235Y10018D01*
X33239Y10016D01*
X33241Y10015D01*
X33244Y10014D01*
X33246Y10013D01*
X33247Y10012D01*
X33248Y10011D01*
X33249Y10011D01*
X33249Y10010D01*
X33252Y10008D01*
X33254Y10005D01*
X33256Y10002D01*
X33258Y9999D01*
X33261Y9992D01*
X33263Y9986D01*
X33264Y9980D01*
X33264Y9978D01*
X33265Y9976D01*
X33265Y9974D01*
Y9971D01*
X33265Y9967D01*
X33264Y9963D01*
X33263Y9955D01*
X33260Y9949D01*
X33257Y9943D01*
X33254Y9939D01*
X33251Y9935D01*
X33250Y9934D01*
X33249Y9933D01*
X33249Y9933D01*
X33249Y9933D01*
X33245Y9930D01*
X33241Y9928D01*
X33237Y9926D01*
X33233Y9925D01*
X33224Y9922D01*
X33215Y9921D01*
X33210Y9920D01*
X33206Y9919D01*
X33203Y9919D01*
X33200D01*
X33197Y9919D01*
X33195D01*
X33194D01*
X33193D01*
X33186Y9919D01*
X33180Y9919D01*
X33174Y9920D01*
X33168Y9921D01*
X33163Y9922D01*
X33159Y9923D01*
X33155Y9924D01*
X33151Y9926D01*
X33148Y9927D01*
X33145Y9928D01*
X33143Y9930D01*
X33141Y9931D01*
X33140Y9932D01*
X33139Y9932D01*
X33138Y9933D01*
X33138D01*
X33135Y9936D01*
X33132Y9938D01*
X33130Y9942D01*
X33128Y9945D01*
X33125Y9951D01*
X33123Y9957D01*
X33122Y9963D01*
X33122Y9965D01*
X33121Y9967D01*
X33121Y9969D01*
Y9971D01*
X33121Y9975D01*
X33122Y9980D01*
X33123Y9987D01*
X33126Y9994D01*
X33129Y10000D01*
X33132Y10004D01*
X33134Y10006D01*
X33135Y10007D01*
X33136Y10008D01*
X33137Y10009D01*
X33137Y10010D01*
X33137Y10010D01*
X33141Y10012D01*
X33144Y10015D01*
X33153Y10018D01*
X33161Y10021D01*
X33170Y10023D01*
X33174Y10023D01*
X33178Y10024D01*
X33181Y10024D01*
X33184D01*
X33186Y10025D01*
X33188D01*
X33190D01*
X33190D01*
X33198D01*
X33205Y10024D01*
D02*
G37*
G36*
X33007Y9652D02*
X32816D01*
Y9732D01*
X33007D01*
Y9652D01*
D02*
G37*
G36*
X33151Y9733D02*
X33154Y9732D01*
X33158Y9731D01*
X33161Y9729D01*
X33163Y9727D01*
X33165Y9726D01*
X33166Y9724D01*
X33166Y9724D01*
X33167Y9722D01*
X33169Y9720D01*
X33171Y9715D01*
X33172Y9710D01*
X33173Y9704D01*
X33174Y9700D01*
Y9698D01*
X33174Y9696D01*
Y9673D01*
X33117D01*
Y9699D01*
X33118Y9703D01*
X33119Y9709D01*
X33120Y9714D01*
X33122Y9718D01*
X33123Y9722D01*
X33125Y9724D01*
X33126Y9725D01*
X33126Y9725D01*
X33129Y9728D01*
X33133Y9730D01*
X33136Y9732D01*
X33139Y9732D01*
X33142Y9733D01*
X33144Y9733D01*
X33146D01*
X33146D01*
X33151Y9733D01*
D02*
G37*
G36*
X33011Y9526D02*
X33011Y9532D01*
X33010Y9538D01*
X33009Y9544D01*
X33008Y9549D01*
X33008Y9554D01*
X33007Y9559D01*
X33006Y9563D01*
X33005Y9567D01*
X33004Y9570D01*
X33003Y9573D01*
X33002Y9575D01*
X33001Y9577D01*
X33001Y9578D01*
X33000Y9579D01*
Y9580D01*
X32996Y9588D01*
X32991Y9596D01*
X32986Y9602D01*
X32981Y9608D01*
X32976Y9612D01*
X32973Y9615D01*
X32971Y9616D01*
X32970Y9617D01*
X32969Y9617D01*
X32969D01*
X32965Y9620D01*
X32961Y9622D01*
X32954Y9625D01*
X32946Y9628D01*
X32939Y9630D01*
X32936Y9630D01*
X32933Y9630D01*
X32930Y9631D01*
X32928D01*
X32927Y9631D01*
X33011D01*
Y9526D01*
D02*
G37*
%LPC*%
G36*
X1332Y9003D02*
X1178D01*
Y8917D01*
D01*
Y8968D01*
X1183Y8966D01*
X1188Y8963D01*
X1192Y8960D01*
X1195Y8957D01*
X1198Y8954D01*
X1199Y8953D01*
X1200Y8952D01*
X1201Y8951D01*
X1202Y8950D01*
X1202Y8950D01*
X1202Y8950D01*
X1204Y8948D01*
X1205Y8945D01*
X1209Y8940D01*
X1211Y8934D01*
X1214Y8929D01*
X1215Y8926D01*
X1216Y8924D01*
X1217Y8922D01*
X1217Y8920D01*
X1218Y8919D01*
X1218Y8917D01*
X1219Y8917D01*
Y8917D01*
X1253D01*
X1251Y8922D01*
X1250Y8926D01*
X1248Y8931D01*
X1247Y8934D01*
X1245Y8937D01*
X1245Y8938D01*
X1245Y8939D01*
X1244Y8940D01*
X1244Y8940D01*
X1244Y8940D01*
Y8941D01*
X1242Y8944D01*
X1240Y8948D01*
X1238Y8951D01*
X1236Y8954D01*
X1234Y8957D01*
X1232Y8959D01*
X1232Y8960D01*
X1231Y8960D01*
X1231Y8961D01*
Y8961D01*
X1332D01*
Y9003D01*
D02*
G37*
G36*
X1335Y7973D02*
X1181D01*
Y7846D01*
D01*
Y7906D01*
X1181Y7903D01*
X1181Y7899D01*
X1181Y7896D01*
X1182Y7893D01*
X1182Y7890D01*
X1183Y7888D01*
X1183Y7886D01*
X1184Y7883D01*
X1184Y7882D01*
X1185Y7880D01*
X1185Y7879D01*
X1185Y7878D01*
X1186Y7877D01*
X1186Y7877D01*
Y7877D01*
X1188Y7872D01*
X1191Y7869D01*
X1193Y7865D01*
X1196Y7863D01*
X1198Y7861D01*
X1200Y7859D01*
X1201Y7859D01*
X1201Y7858D01*
X1201Y7858D01*
X1201D01*
X1206Y7856D01*
X1210Y7854D01*
X1215Y7852D01*
X1219Y7851D01*
X1221Y7851D01*
X1223Y7850D01*
X1225Y7850D01*
X1226Y7850D01*
X1227Y7849D01*
X1228D01*
X1229Y7849D01*
X1229D01*
X1233Y7891D01*
X1228Y7892D01*
X1224Y7893D01*
X1221Y7894D01*
X1219Y7895D01*
X1217Y7896D01*
X1216Y7897D01*
X1215Y7898D01*
X1215Y7898D01*
X1213Y7900D01*
X1212Y7902D01*
X1211Y7905D01*
X1210Y7907D01*
X1210Y7909D01*
X1210Y7910D01*
Y7911D01*
X1210Y7914D01*
X1210Y7917D01*
X1211Y7919D01*
X1212Y7921D01*
X1213Y7922D01*
X1214Y7923D01*
X1214Y7924D01*
X1215Y7924D01*
X1216Y7926D01*
X1218Y7927D01*
X1220Y7928D01*
X1222Y7929D01*
X1224Y7929D01*
X1225Y7929D01*
X1226D01*
X1226D01*
X1229Y7929D01*
X1231Y7929D01*
X1233Y7928D01*
X1236Y7927D01*
X1237Y7926D01*
X1239Y7925D01*
X1240Y7924D01*
X1240Y7924D01*
X1241Y7923D01*
X1243Y7922D01*
X1244Y7920D01*
X1246Y7918D01*
X1250Y7915D01*
X1253Y7910D01*
X1256Y7907D01*
X1257Y7905D01*
X1259Y7903D01*
X1259Y7902D01*
X1260Y7901D01*
X1261Y7901D01*
X1261Y7900D01*
X1265Y7895D01*
X1269Y7890D01*
X1273Y7885D01*
X1276Y7881D01*
X1280Y7877D01*
X1283Y7874D01*
X1286Y7871D01*
X1289Y7868D01*
X1291Y7866D01*
X1293Y7864D01*
X1295Y7863D01*
X1297Y7861D01*
X1298Y7860D01*
X1299Y7860D01*
X1300Y7859D01*
X1300Y7859D01*
X1303Y7857D01*
X1306Y7855D01*
X1309Y7854D01*
X1312Y7852D01*
X1318Y7850D01*
X1321Y7849D01*
X1324Y7848D01*
X1326Y7848D01*
X1328Y7847D01*
X1330Y7847D01*
X1332Y7846D01*
X1333Y7846D01*
X1334D01*
X1335Y7846D01*
X1335D01*
Y7973D01*
D02*
G37*
%LPD*%
G36*
X1301Y7906D02*
X1299Y7909D01*
X1297Y7911D01*
X1295Y7912D01*
X1294Y7914D01*
X1293Y7915D01*
X1292Y7916D01*
X1292Y7916D01*
X1291Y7917D01*
X1291Y7917D01*
X1290Y7919D01*
X1288Y7921D01*
X1286Y7924D01*
X1284Y7927D01*
X1282Y7929D01*
X1281Y7932D01*
X1280Y7933D01*
X1279Y7933D01*
X1279Y7934D01*
X1279Y7934D01*
X1276Y7938D01*
X1274Y7941D01*
X1271Y7944D01*
X1268Y7947D01*
X1266Y7950D01*
X1264Y7952D01*
X1262Y7955D01*
X1260Y7957D01*
X1258Y7958D01*
X1256Y7960D01*
X1255Y7961D01*
X1254Y7962D01*
X1253Y7962D01*
X1252Y7963D01*
X1252Y7963D01*
X1251D01*
X1249Y7965D01*
X1247Y7966D01*
X1242Y7968D01*
X1237Y7969D01*
X1233Y7971D01*
X1232Y7971D01*
X1230Y7971D01*
X1228Y7971D01*
X1227D01*
X1226Y7972D01*
X1225D01*
X1225D01*
X1225D01*
X1220Y7971D01*
X1216Y7970D01*
X1212Y7969D01*
X1208Y7968D01*
X1205Y7967D01*
X1204Y7966D01*
X1203Y7966D01*
X1202Y7965D01*
X1202Y7965D01*
X1201Y7964D01*
X1201D01*
X1198Y7962D01*
X1194Y7958D01*
X1192Y7955D01*
X1190Y7952D01*
X1188Y7949D01*
X1187Y7948D01*
X1187Y7947D01*
X1186Y7946D01*
X1186Y7945D01*
X1186Y7945D01*
Y7945D01*
X1185Y7942D01*
X1184Y7940D01*
X1183Y7934D01*
X1182Y7928D01*
X1181Y7923D01*
X1181Y7920D01*
X1181Y7918D01*
Y7916D01*
X1181Y7914D01*
Y7973D01*
X1301D01*
Y7906D01*
D02*
G37*
%LPC*%
G36*
X998Y8545D02*
D01*
X798Y8470D01*
Y8402D01*
X998Y8327D01*
X798D01*
X998D01*
Y8545D01*
D02*
G37*
%LPD*%
G36*
X922Y8413D02*
X850Y8435D01*
X922Y8457D01*
Y8413D01*
D02*
G37*
G36*
X998Y8390D02*
X965Y8400D01*
Y8470D01*
X998Y8480D01*
Y8390D01*
D02*
G37*
%LPC*%
G36*
X33110Y8191D02*
D01*
Y8054D01*
X33109Y8063D01*
X33108Y8071D01*
X33107Y8078D01*
X33106Y8085D01*
X33105Y8092D01*
X33103Y8098D01*
X33101Y8104D01*
X33100Y8109D01*
X33098Y8113D01*
X33097Y8117D01*
X33096Y8120D01*
X33094Y8122D01*
X33094Y8124D01*
X33093Y8125D01*
Y8125D01*
X33086Y8136D01*
X33079Y8146D01*
X33070Y8155D01*
X33063Y8162D01*
X33056Y8167D01*
X33053Y8169D01*
X33050Y8171D01*
X33048Y8172D01*
X33046Y8173D01*
X33046Y8174D01*
X33045D01*
X33033Y8179D01*
X33021Y8184D01*
X33010Y8187D01*
X33000Y8189D01*
X32995Y8190D01*
X32991Y8190D01*
X32988Y8191D01*
X32984D01*
X32982Y8191D01*
X32979D01*
X32970Y8191D01*
X32961Y8190D01*
X32953Y8188D01*
X32945Y8186D01*
X32938Y8183D01*
X32931Y8181D01*
X32925Y8178D01*
X32920Y8175D01*
X32914Y8171D01*
X32910Y8168D01*
X32907Y8165D01*
X32903Y8163D01*
X32901Y8161D01*
X32899Y8159D01*
X32898Y8158D01*
X32897Y8158D01*
X32892Y8151D01*
X32887Y8144D01*
X32883Y8137D01*
X32879Y8130D01*
X32876Y8123D01*
X32873Y8116D01*
X32871Y8109D01*
X32869Y8102D01*
X32868Y8096D01*
X32867Y8090D01*
X32866Y8085D01*
X32866Y8080D01*
X32865Y8076D01*
Y8071D01*
X32866Y8059D01*
X32866Y8054D01*
X32867Y8049D01*
X32868Y8045D01*
X32869Y8042D01*
X32869Y8040D01*
Y8039D01*
X32873Y8027D01*
X32874Y8022D01*
X32876Y8017D01*
X32878Y8013D01*
X32880Y8009D01*
X32880Y8008D01*
X32881Y8007D01*
X32827Y8015D01*
Y8174D01*
X32749D01*
Y7940D01*
X32940Y7908D01*
X32952Y7992D01*
X32947Y7997D01*
X32943Y8001D01*
X32940Y8005D01*
X32938Y8008D01*
X32936Y8010D01*
X32935Y8012D01*
X32934Y8014D01*
X32934Y8014D01*
X32931Y8019D01*
X32929Y8024D01*
X32928Y8029D01*
X32927Y8033D01*
X32927Y8037D01*
X32926Y8040D01*
Y8042D01*
X32927Y8050D01*
X32928Y8057D01*
X32931Y8063D01*
X32934Y8068D01*
X32936Y8072D01*
X32939Y8075D01*
X32941Y8078D01*
X32941Y8078D01*
X32947Y8083D01*
X32955Y8086D01*
X32963Y8089D01*
X32970Y8090D01*
X32977Y8091D01*
X32980Y8092D01*
X32983Y8092D01*
X32985D01*
X32987D01*
X32987D01*
X32988D01*
X32999Y8092D01*
X33008Y8090D01*
X33016Y8088D01*
X33023Y8085D01*
X33028Y8083D01*
X33032Y8081D01*
X33034Y8079D01*
X33035Y8078D01*
X33040Y8073D01*
X33043Y8068D01*
X33046Y8061D01*
X33048Y8056D01*
X33049Y8051D01*
X33049Y8047D01*
X33050Y8045D01*
Y8044D01*
X33049Y8037D01*
X33048Y8031D01*
X33046Y8026D01*
X33044Y8021D01*
X33042Y8017D01*
X33039Y8015D01*
X33038Y8012D01*
X33038Y8012D01*
X33032Y8008D01*
X33027Y8004D01*
X33021Y8001D01*
X33015Y7999D01*
X33009Y7997D01*
X33005Y7996D01*
X33003Y7996D01*
X33002Y7995D01*
X33001D01*
X33001D01*
X33012Y7896D01*
X33021Y7898D01*
X33029Y7901D01*
X33036Y7905D01*
X33042Y7908D01*
X33047Y7910D01*
X33051Y7912D01*
X33053Y7913D01*
X33054Y7914D01*
X33060Y7918D01*
X33066Y7923D01*
X33070Y7928D01*
X33075Y7932D01*
X33078Y7936D01*
X33081Y7939D01*
X33083Y7941D01*
X33084Y7942D01*
X33088Y7949D01*
X33092Y7956D01*
X33095Y7963D01*
X33098Y7970D01*
X33101Y7976D01*
X33102Y7981D01*
X33102Y7982D01*
X33103Y7984D01*
X33103Y7984D01*
Y7985D01*
X33105Y7995D01*
X33107Y8005D01*
X33108Y8015D01*
X33109Y8024D01*
X33109Y8033D01*
X33110Y8036D01*
Y7896D01*
X33012D01*
X32749D01*
D01*
X33110D01*
Y8191D01*
D02*
G37*
G36*
Y7859D02*
D01*
Y7716D01*
X33109Y7727D01*
X33109Y7737D01*
X33108Y7747D01*
X33107Y7755D01*
X33105Y7762D01*
X33105Y7765D01*
X33105Y7768D01*
X33104Y7770D01*
Y7771D01*
X33104Y7772D01*
Y7772D01*
X33101Y7782D01*
X33098Y7790D01*
X33095Y7798D01*
X33093Y7804D01*
X33090Y7810D01*
X33088Y7814D01*
X33086Y7816D01*
X33086Y7817D01*
X33081Y7823D01*
X33075Y7829D01*
X33069Y7834D01*
X33063Y7839D01*
X33058Y7842D01*
X33054Y7845D01*
X33052Y7846D01*
X33051Y7846D01*
X33050Y7847D01*
X33050D01*
X33041Y7851D01*
X33032Y7854D01*
X33024Y7856D01*
X33016Y7858D01*
X33010Y7859D01*
X33007D01*
X33004Y7859D01*
X33000D01*
X32990Y7859D01*
X32980Y7857D01*
X32972Y7855D01*
X32964Y7852D01*
X32958Y7849D01*
X32953Y7847D01*
X32952Y7846D01*
X32950Y7845D01*
X32950Y7845D01*
X32949D01*
X32941Y7839D01*
X32934Y7832D01*
X32928Y7825D01*
X32922Y7818D01*
X32918Y7812D01*
X32915Y7807D01*
X32914Y7804D01*
X32913Y7803D01*
X32913Y7802D01*
Y7802D01*
X32907Y7809D01*
X32902Y7816D01*
X32897Y7822D01*
X32893Y7826D01*
X32889Y7829D01*
X32886Y7832D01*
X32884Y7833D01*
X32883Y7834D01*
X32875Y7838D01*
X32867Y7842D01*
X32859Y7844D01*
X32852Y7846D01*
X32847Y7846D01*
X32842Y7847D01*
X32840D01*
X32839D01*
X32838D01*
X32838D01*
X32831Y7847D01*
X32823Y7846D01*
X32817Y7844D01*
X32810Y7842D01*
X32804Y7839D01*
X32798Y7836D01*
X32793Y7833D01*
X32789Y7830D01*
X32784Y7827D01*
X32781Y7824D01*
X32777Y7821D01*
X32775Y7818D01*
X32772Y7816D01*
X32771Y7815D01*
X32770Y7814D01*
X32770Y7813D01*
X32765Y7806D01*
X32761Y7799D01*
X32757Y7791D01*
X32754Y7783D01*
X32751Y7774D01*
X32749Y7765D01*
X32746Y7748D01*
X32745Y7740D01*
X32744Y7732D01*
X32744Y7726D01*
X32743Y7720D01*
X32743Y7715D01*
Y7708D01*
X32743Y7699D01*
X32744Y7689D01*
X32745Y7680D01*
X32746Y7672D01*
X32748Y7665D01*
X32750Y7657D01*
X32751Y7651D01*
X32754Y7645D01*
X32756Y7640D01*
X32758Y7635D01*
X32759Y7631D01*
X32761Y7628D01*
X32762Y7625D01*
X32764Y7623D01*
X32764Y7622D01*
X32765Y7622D01*
X32770Y7614D01*
X32776Y7608D01*
X32782Y7603D01*
X32788Y7598D01*
X32794Y7594D01*
X32800Y7590D01*
X32806Y7588D01*
X32812Y7586D01*
X32817Y7584D01*
X32822Y7582D01*
X32826Y7582D01*
X32830Y7581D01*
X32833Y7581D01*
X32835Y7580D01*
X32837D01*
X32838D01*
X32847Y7581D01*
X32856Y7582D01*
X32865Y7585D01*
X32872Y7588D01*
X32877Y7590D01*
X32882Y7593D01*
X32883Y7593D01*
X32884Y7594D01*
X32885Y7595D01*
X32885D01*
X32891Y7599D01*
X32896Y7604D01*
X32900Y7610D01*
X32905Y7616D01*
X32908Y7621D01*
X32911Y7624D01*
X32911Y7626D01*
X32912Y7628D01*
X32913Y7628D01*
Y7628D01*
X32918Y7618D01*
X32923Y7609D01*
X32929Y7601D01*
X32934Y7595D01*
X32939Y7590D01*
X32943Y7586D01*
X32946Y7585D01*
X32946Y7584D01*
X32947D01*
X32955Y7579D01*
X32964Y7576D01*
X32973Y7573D01*
X32981Y7571D01*
X32989Y7570D01*
X32992Y7570D01*
X32994D01*
X32997Y7569D01*
X32743D01*
D01*
X33110D01*
Y7859D01*
D02*
G37*
G36*
X33104Y7538D02*
D01*
Y7494D01*
X33037D01*
Y7538D01*
X32961D01*
Y7494D01*
X32743D01*
Y7408D01*
X32956Y7228D01*
X32743D01*
D01*
X33104D01*
Y7538D01*
D02*
G37*
G36*
X33110Y7200D02*
Y7052D01*
X33109Y7061D01*
X33108Y7069D01*
X33108Y7077D01*
X33106Y7085D01*
X33105Y7092D01*
X33104Y7098D01*
X33102Y7104D01*
X33101Y7110D01*
X33100Y7114D01*
X33098Y7118D01*
X33097Y7121D01*
X33096Y7124D01*
X33095Y7126D01*
X33095Y7127D01*
Y7128D01*
X33089Y7140D01*
X33082Y7150D01*
X33074Y7159D01*
X33067Y7167D01*
X33061Y7173D01*
X33056Y7177D01*
X33054Y7179D01*
X33053Y7180D01*
X33052Y7180D01*
X33051D01*
X33046Y7184D01*
X33040Y7187D01*
X33029Y7191D01*
X33018Y7195D01*
X33009Y7197D01*
X33004Y7198D01*
X33001Y7199D01*
X32997Y7199D01*
X32994D01*
X32992Y7200D01*
X32988D01*
X32978Y7199D01*
X32968Y7197D01*
X32959Y7195D01*
X32951Y7193D01*
X32945Y7190D01*
X32942Y7189D01*
X32940Y7187D01*
X32938Y7187D01*
X32937Y7186D01*
X32936Y7185D01*
X32936D01*
X32928Y7179D01*
X32920Y7172D01*
X32913Y7165D01*
X32907Y7157D01*
X32903Y7151D01*
X32901Y7148D01*
X32899Y7145D01*
X32898Y7143D01*
X32897Y7141D01*
X32897Y7140D01*
Y7140D01*
X32893Y7134D01*
X32890Y7127D01*
X32888Y7119D01*
X32885Y7111D01*
X32880Y7093D01*
X32875Y7076D01*
X32873Y7069D01*
X32871Y7061D01*
X32869Y7054D01*
X32868Y7048D01*
X32866Y7044D01*
X32866Y7040D01*
X32865Y7038D01*
Y7037D01*
X32864Y7031D01*
X32863Y7027D01*
X32862Y7023D01*
X32860Y7019D01*
X32858Y7012D01*
X32856Y7007D01*
X32855Y7004D01*
X32853Y7002D01*
X32852Y7000D01*
X32852Y7000D01*
X32849Y6997D01*
X32847Y6996D01*
X32844Y6994D01*
X32842Y6993D01*
X32840Y6993D01*
X32838Y6992D01*
X32837D01*
X32837D01*
X32833Y6993D01*
X32829Y6993D01*
X32825Y6995D01*
X32823Y6997D01*
X32820Y6999D01*
X32818Y7000D01*
X32817Y7001D01*
X32817Y7002D01*
X32814Y7006D01*
X32812Y7010D01*
X32811Y7015D01*
X32810Y7020D01*
X32809Y7024D01*
X32809Y7028D01*
Y7031D01*
X32809Y7039D01*
X32810Y7046D01*
X32812Y7052D01*
X32814Y7057D01*
X32816Y7062D01*
X32818Y7065D01*
X32819Y7066D01*
X32820Y7067D01*
X32824Y7071D01*
X32830Y7075D01*
X32835Y7078D01*
X32841Y7080D01*
X32846Y7082D01*
X32851Y7083D01*
X32852Y7084D01*
X32854Y7084D01*
X32854D01*
X32855D01*
X32849Y7188D01*
X32839Y7186D01*
X32830Y7184D01*
X32821Y7181D01*
X32813Y7178D01*
X32806Y7175D01*
X32799Y7171D01*
X32793Y7168D01*
X32788Y7164D01*
X32783Y7160D01*
X32779Y7157D01*
X32775Y7154D01*
X32773Y7151D01*
X32771Y7149D01*
X32769Y7147D01*
X32768Y7145D01*
X32768Y7145D01*
X32764Y7138D01*
X32760Y7131D01*
X32756Y7122D01*
X32753Y7114D01*
X32751Y7105D01*
X32749Y7097D01*
X32746Y7080D01*
X32745Y7072D01*
X32744Y7065D01*
X32744Y7059D01*
X32743Y7053D01*
X32743Y7048D01*
Y7031D01*
X32743Y7022D01*
X32744Y7013D01*
X32745Y7004D01*
X32746Y6996D01*
X32747Y6989D01*
X32748Y6983D01*
X32750Y6977D01*
X32751Y6972D01*
X32752Y6967D01*
X32754Y6963D01*
X32755Y6960D01*
X32755Y6958D01*
X32756Y6955D01*
X32757Y6955D01*
Y6954D01*
X32762Y6943D01*
X32768Y6933D01*
X32775Y6925D01*
X32781Y6918D01*
X32787Y6913D01*
X32791Y6910D01*
X32793Y6908D01*
X32794Y6907D01*
X32795Y6906D01*
X32795D01*
X32804Y6901D01*
X32814Y6897D01*
X32822Y6895D01*
X32830Y6893D01*
X32837Y6892D01*
X32840Y6891D01*
X32842D01*
X32844Y6891D01*
X32845D01*
X32846D01*
X32847D01*
X32854Y6891D01*
X32862Y6892D01*
X32869Y6893D01*
X32875Y6896D01*
X32881Y6898D01*
X32886Y6900D01*
X32892Y6903D01*
X32897Y6906D01*
X32901Y6909D01*
X32904Y6912D01*
X32908Y6914D01*
X32911Y6916D01*
X32913Y6919D01*
X32914Y6920D01*
X32915Y6921D01*
X32915Y6921D01*
X32920Y6927D01*
X32925Y6935D01*
X32929Y6942D01*
X32933Y6951D01*
X32941Y6968D01*
X32947Y6985D01*
X32949Y6993D01*
X32952Y7000D01*
X32954Y7007D01*
X32955Y7013D01*
X32956Y7017D01*
X32957Y7021D01*
X32958Y7024D01*
Y7024D01*
X32960Y7032D01*
X32962Y7040D01*
X32963Y7046D01*
X32966Y7052D01*
X32967Y7057D01*
X32969Y7062D01*
X32970Y7066D01*
X32972Y7069D01*
X32973Y7072D01*
X32975Y7075D01*
X32976Y7076D01*
X32977Y7078D01*
X32978Y7080D01*
X32979Y7081D01*
X32983Y7085D01*
X32987Y7088D01*
X32991Y7090D01*
X32995Y7092D01*
X32999Y7093D01*
X33001Y7093D01*
X33003D01*
X33004D01*
X33009Y7093D01*
X33014Y7091D01*
X33018Y7089D01*
X33022Y7086D01*
X33025Y7084D01*
X33027Y7082D01*
X33029Y7080D01*
X33029Y7080D01*
X33032Y7075D01*
X33035Y7069D01*
X33037Y7063D01*
X33039Y7057D01*
X33039Y7052D01*
X33040Y7048D01*
Y7044D01*
X33039Y7038D01*
X33039Y7033D01*
X33036Y7023D01*
X33033Y7015D01*
X33029Y7008D01*
X33025Y7003D01*
X33022Y6999D01*
X33019Y6996D01*
X33019Y6996D01*
X33018D01*
X33013Y6992D01*
X33007Y6989D01*
X33001Y6987D01*
X32994Y6985D01*
X32988Y6984D01*
X32984Y6983D01*
X32982Y6982D01*
X32981Y6982D01*
X32980D01*
X32980D01*
X32986Y6878D01*
X32996Y6879D01*
X33005Y6881D01*
X33015Y6883D01*
X33023Y6885D01*
X33031Y6889D01*
X33038Y6892D01*
X33045Y6896D01*
X33051Y6899D01*
X33056Y6903D01*
X33061Y6906D01*
X33066Y6909D01*
X33069Y6911D01*
X33072Y6914D01*
X33074Y6916D01*
X33075Y6916D01*
X33075Y6917D01*
X33081Y6924D01*
X33087Y6932D01*
X33091Y6941D01*
X33095Y6951D01*
X33098Y6962D01*
X33101Y6972D01*
X33104Y6982D01*
X33105Y6993D01*
X33107Y7003D01*
X33108Y7012D01*
X33109Y7021D01*
X33109Y7028D01*
Y7034D01*
X33110Y7038D01*
Y6878D01*
X32743D01*
D01*
X33110D01*
Y7200D01*
D02*
G37*
G36*
X33104Y6861D02*
D01*
X33001Y6808D01*
X32998Y6806D01*
X32994Y6804D01*
X32987Y6799D01*
X32984Y6796D01*
X32981Y6794D01*
X32980Y6792D01*
X32979Y6792D01*
X32974Y6788D01*
X32970Y6785D01*
X32967Y6781D01*
X32964Y6779D01*
X32963Y6777D01*
X32961Y6776D01*
X32960Y6775D01*
Y6774D01*
X32958Y6771D01*
X32956Y6766D01*
X32951Y6757D01*
X32950Y6753D01*
X32949Y6749D01*
X32948Y6747D01*
X32947Y6747D01*
Y6746D01*
X32945Y6755D01*
X32942Y6763D01*
X32940Y6769D01*
X32938Y6775D01*
X32936Y6779D01*
X32934Y6782D01*
X32933Y6785D01*
X32933Y6785D01*
X32928Y6793D01*
X32922Y6800D01*
X32916Y6806D01*
X32911Y6811D01*
X32906Y6815D01*
X32902Y6818D01*
X32899Y6819D01*
X32899Y6820D01*
X32898D01*
X32890Y6824D01*
X32881Y6827D01*
X32873Y6830D01*
X32865Y6831D01*
X32858Y6832D01*
X32855D01*
X32852Y6833D01*
X32850D01*
X32849D01*
X32848D01*
X32848D01*
X32835Y6832D01*
X32824Y6830D01*
X32814Y6827D01*
X32806Y6824D01*
X32802Y6823D01*
X32799Y6821D01*
X32796Y6820D01*
X32794Y6819D01*
X32792Y6818D01*
X32791Y6817D01*
X32790Y6816D01*
X32790D01*
X32782Y6809D01*
X32775Y6802D01*
X32769Y6795D01*
X32765Y6788D01*
X32762Y6782D01*
X32759Y6777D01*
X32758Y6775D01*
X32758Y6774D01*
X32758Y6773D01*
Y6772D01*
X32756Y6767D01*
X32755Y6761D01*
X32752Y6749D01*
X32751Y6736D01*
X32750Y6723D01*
Y6718D01*
X32749Y6712D01*
Y6707D01*
X32749Y6703D01*
Y6512D01*
X33104D01*
Y6861D01*
D02*
G37*
%LPD*%
G36*
X32851Y7753D02*
X32856Y7752D01*
X32861Y7750D01*
X32865Y7748D01*
X32869Y7746D01*
X32871Y7744D01*
X32873Y7743D01*
X32873Y7742D01*
X32876Y7738D01*
X32879Y7733D01*
X32881Y7729D01*
X32883Y7725D01*
X32883Y7721D01*
X32884Y7718D01*
Y7714D01*
X32883Y7708D01*
X32882Y7702D01*
X32880Y7697D01*
X32878Y7692D01*
X32876Y7689D01*
X32875Y7686D01*
X32873Y7685D01*
X32873Y7684D01*
X32869Y7680D01*
X32863Y7678D01*
X32859Y7676D01*
X32854Y7674D01*
X32850Y7673D01*
X32846Y7673D01*
X32844D01*
X32843D01*
X32837Y7673D01*
X32831Y7675D01*
X32826Y7676D01*
X32822Y7679D01*
X32818Y7680D01*
X32816Y7682D01*
X32814Y7683D01*
X32814Y7684D01*
X32810Y7688D01*
X32807Y7693D01*
X32805Y7698D01*
X32804Y7703D01*
X32803Y7707D01*
X32803Y7710D01*
Y7713D01*
X32803Y7719D01*
X32804Y7725D01*
X32807Y7730D01*
X32808Y7734D01*
X32810Y7738D01*
X32813Y7740D01*
X32814Y7742D01*
X32814Y7742D01*
X32819Y7746D01*
X32824Y7749D01*
X32829Y7751D01*
X32834Y7752D01*
X32838Y7753D01*
X32841Y7753D01*
X32843D01*
X32844D01*
X32851Y7753D01*
D02*
G37*
G36*
X33004Y7759D02*
X33011Y7758D01*
X33018Y7756D01*
X33024Y7753D01*
X33028Y7750D01*
X33032Y7748D01*
X33033Y7746D01*
X33034Y7746D01*
X33039Y7741D01*
X33043Y7735D01*
X33046Y7730D01*
X33047Y7725D01*
X33048Y7721D01*
X33049Y7717D01*
X33049Y7715D01*
Y7714D01*
X33049Y7707D01*
X33047Y7701D01*
X33044Y7696D01*
X33042Y7691D01*
X33039Y7687D01*
X33036Y7684D01*
X33035Y7683D01*
X33034Y7682D01*
X33028Y7677D01*
X33022Y7674D01*
X33015Y7671D01*
X33010Y7669D01*
X33004Y7669D01*
X33000Y7668D01*
X32998Y7668D01*
X32997D01*
X32997D01*
X32996D01*
X32987Y7668D01*
X32980Y7670D01*
X32973Y7672D01*
X32967Y7675D01*
X32963Y7677D01*
X32959Y7679D01*
X32957Y7681D01*
X32957Y7681D01*
X32952Y7686D01*
X32948Y7692D01*
X32945Y7697D01*
X32944Y7702D01*
X32943Y7707D01*
X32942Y7710D01*
Y7713D01*
X32942Y7720D01*
X32944Y7726D01*
X32947Y7732D01*
X32949Y7736D01*
X32952Y7740D01*
X32955Y7743D01*
X32956Y7745D01*
X32957Y7745D01*
X32963Y7750D01*
X32970Y7754D01*
X32976Y7756D01*
X32982Y7758D01*
X32987Y7759D01*
X32992Y7760D01*
X32994D01*
X32995D01*
X32995D01*
X32996D01*
X33004Y7759D01*
D02*
G37*
G36*
X33110Y7569D02*
X33000D01*
X33011Y7570D01*
X33022Y7572D01*
X33032Y7574D01*
X33040Y7577D01*
X33047Y7580D01*
X33050Y7581D01*
X33053Y7582D01*
X33055Y7583D01*
X33056Y7584D01*
X33057Y7585D01*
X33057D01*
X33067Y7591D01*
X33074Y7598D01*
X33081Y7606D01*
X33087Y7613D01*
X33091Y7620D01*
X33093Y7622D01*
X33094Y7625D01*
X33095Y7627D01*
X33096Y7628D01*
X33097Y7629D01*
Y7630D01*
X33099Y7635D01*
X33101Y7642D01*
X33104Y7656D01*
X33107Y7670D01*
X33108Y7684D01*
X33108Y7690D01*
X33109Y7697D01*
X33109Y7702D01*
Y7707D01*
X33110Y7711D01*
Y7569D01*
D02*
G37*
G36*
X32961Y7312D02*
X32849Y7408D01*
X32961D01*
Y7312D01*
D02*
G37*
G36*
X33104Y7228D02*
X33037D01*
Y7408D01*
X33104D01*
Y7228D01*
D02*
G37*
G36*
Y6622D02*
X32959D01*
Y6632D01*
X32960Y6637D01*
X32961Y6642D01*
X32962Y6646D01*
X32963Y6650D01*
X32965Y6654D01*
X32966Y6656D01*
X32967Y6658D01*
X32968Y6658D01*
X32971Y6662D01*
X32975Y6665D01*
X32979Y6668D01*
X32984Y6672D01*
X32988Y6674D01*
X32992Y6677D01*
X32994Y6678D01*
X32995Y6678D01*
X32995D01*
X33104Y6737D01*
Y6622D01*
D02*
G37*
G36*
X32860Y6722D02*
X32864Y6722D01*
X32868Y6720D01*
X32871Y6719D01*
X32873Y6718D01*
X32875Y6717D01*
X32876Y6716D01*
X32877Y6715D01*
X32880Y6713D01*
X32882Y6710D01*
X32884Y6707D01*
X32885Y6704D01*
X32886Y6701D01*
X32887Y6699D01*
X32887Y6698D01*
Y6698D01*
X32889Y6690D01*
X32890Y6684D01*
X32891Y6679D01*
X32892Y6675D01*
Y6672D01*
X32892Y6670D01*
Y6622D01*
X32820D01*
Y6675D01*
X32821Y6681D01*
X32822Y6689D01*
X32824Y6696D01*
X32825Y6702D01*
X32827Y6706D01*
X32828Y6709D01*
X32829Y6711D01*
X32830Y6711D01*
X32834Y6715D01*
X32838Y6718D01*
X32842Y6720D01*
X32846Y6721D01*
X32850Y6722D01*
X32853Y6722D01*
X32855D01*
X32856D01*
X32860Y6722D01*
D02*
G37*
%LPC*%
G36*
X524Y7624D02*
X271D01*
Y7382D01*
X524D01*
Y7456D01*
X385D01*
X524Y7551D01*
Y7624D01*
D02*
G37*
G36*
Y7326D02*
X271D01*
Y7247D01*
X524D01*
Y7326D01*
D02*
G37*
%LPD*%
G36*
X271Y7455D02*
Y7551D01*
X411D01*
X271Y7455D01*
D02*
G37*
%LPC*%
G36*
X1335Y5949D02*
X1181D01*
X1301D01*
Y5883D01*
X1299Y5885D01*
X1297Y5887D01*
X1296Y5889D01*
X1294Y5890D01*
X1293Y5891D01*
X1292Y5892D01*
X1292Y5893D01*
X1292Y5893D01*
X1291Y5894D01*
X1290Y5895D01*
X1289Y5897D01*
X1286Y5900D01*
X1284Y5903D01*
X1283Y5906D01*
X1281Y5908D01*
X1280Y5909D01*
X1280Y5910D01*
X1280Y5910D01*
X1280Y5910D01*
X1277Y5914D01*
X1274Y5918D01*
X1272Y5921D01*
X1269Y5924D01*
X1266Y5926D01*
X1264Y5929D01*
X1262Y5931D01*
X1260Y5933D01*
X1258Y5935D01*
X1257Y5936D01*
X1255Y5937D01*
X1254Y5938D01*
X1253Y5939D01*
X1252Y5939D01*
X1252Y5940D01*
X1252D01*
X1249Y5941D01*
X1247Y5943D01*
X1242Y5944D01*
X1238Y5946D01*
X1234Y5947D01*
X1232Y5947D01*
X1230Y5948D01*
X1229Y5948D01*
X1228D01*
X1227Y5948D01*
X1226D01*
X1226D01*
X1225D01*
X1220Y5948D01*
X1216Y5947D01*
X1212Y5946D01*
X1209Y5944D01*
X1206Y5943D01*
X1205Y5943D01*
X1204Y5942D01*
X1203Y5942D01*
X1202Y5941D01*
X1202Y5941D01*
X1202D01*
X1198Y5938D01*
X1195Y5935D01*
X1192Y5932D01*
X1190Y5928D01*
X1188Y5926D01*
X1188Y5924D01*
X1187Y5923D01*
X1187Y5922D01*
X1186Y5922D01*
X1186Y5921D01*
Y5921D01*
X1185Y5919D01*
X1185Y5916D01*
X1183Y5911D01*
X1182Y5905D01*
X1182Y5899D01*
X1181Y5897D01*
X1181Y5894D01*
Y5892D01*
X1181Y5890D01*
Y5883D01*
X1181Y5879D01*
X1182Y5876D01*
X1182Y5872D01*
X1182Y5869D01*
X1183Y5867D01*
X1183Y5864D01*
X1184Y5862D01*
X1184Y5860D01*
X1185Y5858D01*
X1185Y5857D01*
X1186Y5855D01*
X1186Y5854D01*
X1186Y5854D01*
X1186Y5853D01*
Y5853D01*
X1189Y5849D01*
X1191Y5845D01*
X1194Y5842D01*
X1196Y5839D01*
X1198Y5837D01*
X1200Y5836D01*
X1201Y5835D01*
X1202Y5835D01*
X1202Y5834D01*
X1202D01*
X1206Y5832D01*
X1210Y5830D01*
X1215Y5829D01*
X1220Y5828D01*
X1222Y5827D01*
X1223Y5827D01*
X1225Y5826D01*
X1227Y5826D01*
X1228Y5826D01*
X1229D01*
X1229Y5826D01*
X1230D01*
X1233Y5868D01*
X1229Y5869D01*
X1225Y5869D01*
X1222Y5871D01*
X1219Y5872D01*
X1217Y5873D01*
X1216Y5874D01*
X1215Y5874D01*
X1215Y5875D01*
X1214Y5877D01*
X1212Y5879D01*
X1211Y5881D01*
X1211Y5883D01*
X1210Y5885D01*
X1210Y5886D01*
Y5888D01*
X1210Y5891D01*
X1211Y5893D01*
X1212Y5895D01*
X1212Y5897D01*
X1213Y5899D01*
X1214Y5900D01*
X1215Y5900D01*
X1215Y5901D01*
X1217Y5902D01*
X1219Y5904D01*
X1221Y5905D01*
X1223Y5905D01*
X1224Y5906D01*
X1226Y5906D01*
X1226D01*
X1227D01*
X1229Y5906D01*
X1232Y5905D01*
X1234Y5904D01*
X1236Y5903D01*
X1238Y5902D01*
X1239Y5901D01*
X1240Y5901D01*
X1240Y5901D01*
X1242Y5900D01*
X1243Y5898D01*
X1245Y5897D01*
X1247Y5895D01*
X1250Y5891D01*
X1254Y5887D01*
X1257Y5883D01*
X1258Y5881D01*
X1259Y5880D01*
X1260Y5879D01*
X1261Y5878D01*
X1261Y5877D01*
X1261Y5877D01*
X1265Y5872D01*
X1269Y5866D01*
X1273Y5862D01*
X1277Y5858D01*
X1280Y5854D01*
X1284Y5850D01*
X1286Y5847D01*
X1289Y5845D01*
X1292Y5843D01*
X1294Y5840D01*
X1296Y5839D01*
X1297Y5838D01*
X1299Y5837D01*
X1300Y5836D01*
X1300Y5836D01*
X1300Y5835D01*
X1304Y5834D01*
X1307Y5832D01*
X1310Y5830D01*
X1313Y5829D01*
X1319Y5826D01*
X1321Y5826D01*
X1324Y5825D01*
X1327Y5824D01*
X1329Y5824D01*
X1331Y5823D01*
X1332Y5823D01*
X1334Y5823D01*
X1335D01*
X1335Y5822D01*
X1335D01*
Y5949D01*
D02*
G37*
G36*
X949Y6478D02*
X946D01*
X939Y6478D01*
X933Y6476D01*
X928Y6475D01*
X923Y6473D01*
X919Y6471D01*
X918Y6470D01*
X917Y6469D01*
X916Y6469D01*
X915Y6468D01*
X915Y6468D01*
X914Y6468D01*
X912Y6466D01*
X910Y6464D01*
X906Y6459D01*
X903Y6453D01*
X901Y6448D01*
X899Y6443D01*
X898Y6441D01*
X897Y6439D01*
X897Y6438D01*
X897Y6437D01*
X896Y6436D01*
Y6436D01*
X895Y6441D01*
X892Y6445D01*
X890Y6449D01*
X888Y6452D01*
X886Y6454D01*
X885Y6456D01*
X883Y6457D01*
X883Y6458D01*
X881Y6460D01*
X878Y6461D01*
X873Y6464D01*
X868Y6466D01*
X863Y6467D01*
X859Y6468D01*
X857Y6468D01*
X856D01*
X855Y6469D01*
X854D01*
X853D01*
X853D01*
X849Y6468D01*
X845Y6468D01*
X842Y6467D01*
X838Y6466D01*
X833Y6464D01*
X830Y6462D01*
X827Y6461D01*
X825Y6460D01*
X823Y6458D01*
X821Y6457D01*
X820Y6456D01*
X819Y6455D01*
X818Y6454D01*
X818Y6453D01*
X818Y6453D01*
X815Y6450D01*
X813Y6447D01*
X811Y6443D01*
X809Y6440D01*
X808Y6436D01*
X806Y6432D01*
X805Y6425D01*
X804Y6422D01*
X804Y6419D01*
X803Y6416D01*
X803Y6413D01*
X803Y6411D01*
Y6478D01*
D01*
Y6293D01*
X1003D01*
Y6401D01*
X1002Y6403D01*
X1002Y6407D01*
X1002Y6412D01*
X1001Y6416D01*
X1001Y6421D01*
Y6423D01*
X1001Y6424D01*
X1000Y6425D01*
X1000Y6426D01*
Y6427D01*
X999Y6433D01*
X998Y6438D01*
X997Y6442D01*
X996Y6445D01*
X995Y6448D01*
X994Y6450D01*
X994Y6451D01*
X994Y6451D01*
X991Y6455D01*
X988Y6459D01*
X984Y6463D01*
X981Y6466D01*
X978Y6468D01*
X976Y6469D01*
X974Y6470D01*
X974Y6471D01*
X974D01*
X969Y6473D01*
X964Y6475D01*
X960Y6476D01*
X955Y6477D01*
X952Y6478D01*
X950Y6478D01*
X949Y6478D01*
D02*
G37*
%LPD*%
G36*
X942Y6416D02*
X945Y6415D01*
X948Y6414D01*
X950Y6413D01*
X952Y6412D01*
X953Y6410D01*
X954Y6410D01*
X954Y6409D01*
X956Y6406D01*
X957Y6403D01*
X958Y6399D01*
X959Y6396D01*
X959Y6392D01*
X960Y6390D01*
Y6356D01*
X919D01*
Y6387D01*
X920Y6392D01*
X920Y6397D01*
X921Y6401D01*
X922Y6404D01*
X923Y6406D01*
X924Y6408D01*
X925Y6409D01*
X925Y6409D01*
X927Y6412D01*
X929Y6413D01*
X932Y6414D01*
X934Y6415D01*
X936Y6416D01*
X938Y6416D01*
X939D01*
X939D01*
X942Y6416D01*
D02*
G37*
G36*
X865Y6408D02*
X868Y6407D01*
X871Y6406D01*
X873Y6405D01*
X874Y6404D01*
X875Y6403D01*
X876Y6403D01*
X876Y6402D01*
X878Y6400D01*
X879Y6397D01*
X880Y6393D01*
X880Y6390D01*
X881Y6387D01*
X881Y6385D01*
Y6356D01*
X844D01*
Y6383D01*
X844Y6388D01*
X844Y6392D01*
X845Y6395D01*
X846Y6398D01*
X847Y6400D01*
X848Y6401D01*
X848Y6402D01*
X849Y6402D01*
X850Y6404D01*
X853Y6406D01*
X855Y6407D01*
X857Y6407D01*
X859Y6408D01*
X861Y6408D01*
X862D01*
X862D01*
X865Y6408D01*
D02*
G37*
%LPC*%
G36*
X33008Y5526D02*
D01*
Y5439D01*
X33007Y5444D01*
X33007Y5448D01*
X33006Y5452D01*
X33006Y5456D01*
X33005Y5460D01*
X33004Y5463D01*
X33004Y5466D01*
X33003Y5469D01*
X33002Y5472D01*
X33002Y5474D01*
X33001Y5475D01*
X33001Y5477D01*
X33000Y5478D01*
X33000Y5478D01*
Y5479D01*
X32997Y5485D01*
X32993Y5491D01*
X32989Y5496D01*
X32985Y5500D01*
X32982Y5503D01*
X32979Y5506D01*
X32978Y5507D01*
X32977Y5508D01*
X32977Y5508D01*
X32976Y5508D01*
X32970Y5512D01*
X32964Y5516D01*
X32957Y5519D01*
X32951Y5522D01*
X32949Y5523D01*
X32946Y5523D01*
X32944Y5524D01*
X32942Y5525D01*
X32940Y5525D01*
X32939Y5526D01*
X32938Y5526D01*
X32938D01*
X32921Y5471D01*
X32928Y5469D01*
X32934Y5467D01*
X32939Y5465D01*
X32943Y5463D01*
X32946Y5461D01*
X32949Y5459D01*
X32950Y5458D01*
X32951Y5457D01*
X32954Y5454D01*
X32956Y5449D01*
X32958Y5445D01*
X32959Y5440D01*
X32960Y5436D01*
X32960Y5435D01*
Y5433D01*
X32961Y5432D01*
Y5430D01*
X32960Y5427D01*
X32960Y5424D01*
X32959Y5418D01*
X32957Y5413D01*
X32954Y5409D01*
X32952Y5406D01*
X32950Y5403D01*
X32949Y5402D01*
X32948Y5402D01*
X32948Y5401D01*
X32946Y5400D01*
X32943Y5398D01*
X32939Y5397D01*
X32936Y5396D01*
X32928Y5394D01*
X32920Y5393D01*
X32917Y5392D01*
X32913Y5392D01*
X32910Y5392D01*
X32907D01*
X32905Y5391D01*
X32903D01*
X32902D01*
X32902D01*
X32897D01*
X32892Y5392D01*
X32888Y5392D01*
X32884Y5393D01*
X32881Y5393D01*
X32877Y5394D01*
X32874Y5395D01*
X32872Y5396D01*
X32869Y5396D01*
X32867Y5397D01*
X32866Y5398D01*
X32864Y5399D01*
X32863Y5399D01*
X32862Y5400D01*
X32862Y5400D01*
X32862D01*
X32859Y5402D01*
X32856Y5405D01*
X32854Y5407D01*
X32852Y5410D01*
X32850Y5412D01*
X32849Y5415D01*
X32848Y5418D01*
X32847Y5420D01*
X32846Y5425D01*
X32845Y5427D01*
X32845Y5429D01*
X32845Y5430D01*
Y5432D01*
X32845Y5436D01*
X32845Y5439D01*
X32846Y5442D01*
X32847Y5444D01*
X32847Y5447D01*
X32848Y5448D01*
X32848Y5449D01*
X32849Y5449D01*
X32850Y5452D01*
X32852Y5455D01*
X32854Y5457D01*
X32856Y5459D01*
X32857Y5460D01*
X32858Y5461D01*
X32859Y5462D01*
X32860Y5462D01*
X32861Y5463D01*
X32864Y5464D01*
X32868Y5466D01*
X32870Y5467D01*
X32872Y5468D01*
X32873Y5468D01*
X32873Y5468D01*
X32861Y5524D01*
X32855Y5522D01*
X32850Y5519D01*
X32845Y5517D01*
X32840Y5514D01*
X32836Y5512D01*
X32832Y5509D01*
X32828Y5506D01*
X32825Y5503D01*
X32822Y5501D01*
X32820Y5499D01*
X32818Y5497D01*
X32816Y5495D01*
X32815Y5493D01*
X32814Y5492D01*
X32814Y5491D01*
X32813Y5491D01*
X32811Y5487D01*
X32808Y5482D01*
X32806Y5477D01*
X32804Y5472D01*
X32803Y5467D01*
X32801Y5462D01*
X32800Y5457D01*
X32800Y5453D01*
X32799Y5448D01*
X32798Y5444D01*
X32798Y5440D01*
X32798Y5437D01*
X32798Y5435D01*
Y5431D01*
X32798Y5422D01*
X32799Y5414D01*
X32800Y5406D01*
X32802Y5398D01*
X32804Y5392D01*
X32806Y5385D01*
X32809Y5380D01*
X32811Y5375D01*
X32814Y5370D01*
X32816Y5366D01*
X32819Y5363D01*
X32821Y5360D01*
X32822Y5358D01*
X32824Y5356D01*
X32825Y5355D01*
X32825Y5355D01*
X32830Y5350D01*
X32836Y5346D01*
X32842Y5343D01*
X32848Y5340D01*
X32855Y5337D01*
X32861Y5335D01*
X32868Y5333D01*
X32874Y5332D01*
X32880Y5331D01*
X32885Y5330D01*
X32890Y5329D01*
X32894Y5329D01*
X32898Y5329D01*
X32900Y5328D01*
X32798D01*
D01*
X33008D01*
Y5526D01*
D02*
G37*
G36*
Y5305D02*
X32798D01*
X32938D01*
X32921Y5250D01*
X32928Y5248D01*
X32934Y5246D01*
X32939Y5244D01*
X32943Y5242D01*
X32946Y5240D01*
X32949Y5238D01*
X32950Y5237D01*
X32951Y5237D01*
X32954Y5233D01*
X32956Y5228D01*
X32958Y5224D01*
X32959Y5220D01*
X32960Y5216D01*
X32960Y5214D01*
Y5212D01*
X32961Y5211D01*
Y5209D01*
X32960Y5206D01*
X32960Y5203D01*
X32959Y5197D01*
X32957Y5192D01*
X32954Y5188D01*
X32952Y5185D01*
X32950Y5183D01*
X32949Y5181D01*
X32948Y5181D01*
X32948Y5181D01*
X32946Y5179D01*
X32943Y5177D01*
X32939Y5176D01*
X32936Y5175D01*
X32928Y5173D01*
X32920Y5172D01*
X32917Y5171D01*
X32913Y5171D01*
X32910Y5171D01*
X32907D01*
X32905Y5171D01*
X32903D01*
X32902D01*
X32902D01*
X32897D01*
X32892Y5171D01*
X32888Y5171D01*
X32884Y5172D01*
X32881Y5173D01*
X32877Y5173D01*
X32874Y5174D01*
X32872Y5175D01*
X32869Y5176D01*
X32867Y5176D01*
X32866Y5177D01*
X32864Y5178D01*
X32863Y5178D01*
X32862Y5179D01*
X32862Y5179D01*
X32862D01*
X32859Y5181D01*
X32856Y5184D01*
X32854Y5186D01*
X32852Y5189D01*
X32850Y5192D01*
X32849Y5194D01*
X32848Y5197D01*
X32847Y5200D01*
X32846Y5204D01*
X32845Y5206D01*
X32845Y5208D01*
X32845Y5210D01*
Y5212D01*
X32845Y5215D01*
X32845Y5218D01*
X32846Y5221D01*
X32847Y5224D01*
X32847Y5226D01*
X32848Y5227D01*
X32848Y5228D01*
X32849Y5229D01*
X32850Y5231D01*
X32852Y5234D01*
X32854Y5236D01*
X32856Y5238D01*
X32857Y5239D01*
X32858Y5240D01*
X32859Y5241D01*
X32860Y5241D01*
X32861Y5243D01*
X32864Y5244D01*
X32868Y5246D01*
X32870Y5247D01*
X32872Y5247D01*
X32873Y5247D01*
X32873Y5248D01*
X32861Y5303D01*
X32855Y5301D01*
X32850Y5299D01*
X32845Y5296D01*
X32840Y5293D01*
X32836Y5291D01*
X32832Y5288D01*
X32828Y5285D01*
X32825Y5283D01*
X32822Y5280D01*
X32820Y5278D01*
X32818Y5276D01*
X32816Y5274D01*
X32815Y5272D01*
X32814Y5271D01*
X32814Y5271D01*
X32813Y5270D01*
X32811Y5266D01*
X32808Y5261D01*
X32806Y5257D01*
X32804Y5252D01*
X32803Y5247D01*
X32801Y5242D01*
X32800Y5237D01*
X32800Y5232D01*
X32799Y5228D01*
X32798Y5223D01*
X32798Y5220D01*
X32798Y5216D01*
X32798Y5214D01*
Y5210D01*
X32798Y5201D01*
X32799Y5193D01*
X32800Y5185D01*
X32802Y5178D01*
X32804Y5171D01*
X32806Y5165D01*
X32809Y5159D01*
X32811Y5154D01*
X32814Y5149D01*
X32816Y5145D01*
X32819Y5142D01*
X32821Y5139D01*
X32822Y5137D01*
X32824Y5136D01*
X32825Y5135D01*
X32825Y5134D01*
X32830Y5130D01*
X32836Y5126D01*
X32842Y5122D01*
X32848Y5119D01*
X32855Y5116D01*
X32861Y5114D01*
X32868Y5112D01*
X32874Y5111D01*
X32880Y5110D01*
X32885Y5109D01*
X32890Y5108D01*
X32894Y5108D01*
X32898Y5108D01*
X32900Y5108D01*
X32902D01*
X32909Y5108D01*
X32916Y5108D01*
X32922Y5109D01*
X32928Y5110D01*
X32933Y5111D01*
X32939Y5112D01*
X32943Y5114D01*
X32948Y5115D01*
X32951Y5117D01*
X32955Y5118D01*
X32958Y5119D01*
X32960Y5120D01*
X32962Y5121D01*
X32963Y5122D01*
X32964Y5122D01*
X32964Y5123D01*
X32969Y5126D01*
X32973Y5129D01*
X32976Y5132D01*
X32980Y5135D01*
X32983Y5138D01*
X32986Y5141D01*
X32988Y5144D01*
X32990Y5146D01*
X32992Y5149D01*
X32994Y5151D01*
X32995Y5154D01*
X32996Y5155D01*
X32997Y5157D01*
X32998Y5158D01*
X32998Y5159D01*
Y5159D01*
X33000Y5163D01*
X33001Y5167D01*
X33004Y5176D01*
X33005Y5185D01*
X33006Y5194D01*
X33007Y5198D01*
X33007Y5202D01*
X33007Y5205D01*
Y5208D01*
X33008Y5210D01*
Y5218D01*
X33007Y5223D01*
X33007Y5227D01*
X33006Y5232D01*
X33006Y5236D01*
X33005Y5239D01*
X33004Y5243D01*
X33004Y5246D01*
X33003Y5248D01*
X33002Y5251D01*
X33002Y5253D01*
X33001Y5255D01*
X33001Y5256D01*
X33000Y5257D01*
X33000Y5258D01*
Y5258D01*
X32997Y5264D01*
X32993Y5270D01*
X32989Y5275D01*
X32985Y5279D01*
X32982Y5283D01*
X32979Y5285D01*
X32978Y5286D01*
X32977Y5287D01*
X32977Y5287D01*
X32976Y5287D01*
X32970Y5292D01*
X32964Y5295D01*
X32957Y5298D01*
X32951Y5301D01*
X32949Y5302D01*
X32946Y5303D01*
X32944Y5303D01*
X32942Y5304D01*
X32940Y5305D01*
X32939Y5305D01*
X32938Y5305D01*
X33008D01*
D02*
G37*
G36*
X33004Y5094D02*
Y5019D01*
X32801Y5094D01*
Y4985D01*
Y5031D01*
X32947Y4985D01*
X32801Y4940D01*
Y4874D01*
X33004Y4951D01*
Y5094D01*
D02*
G37*
%LPD*%
G36*
X33008Y5328D02*
X32902D01*
X32909Y5329D01*
X32916Y5329D01*
X32922Y5330D01*
X32928Y5331D01*
X32933Y5332D01*
X32939Y5333D01*
X32943Y5334D01*
X32948Y5336D01*
X32951Y5337D01*
X32955Y5339D01*
X32958Y5340D01*
X32960Y5341D01*
X32962Y5342D01*
X32963Y5343D01*
X32964Y5343D01*
X32964Y5343D01*
X32969Y5346D01*
X32973Y5349D01*
X32976Y5352D01*
X32980Y5355D01*
X32983Y5359D01*
X32986Y5362D01*
X32988Y5364D01*
X32990Y5367D01*
X32992Y5370D01*
X32994Y5372D01*
X32995Y5374D01*
X32996Y5376D01*
X32997Y5378D01*
X32998Y5379D01*
X32998Y5379D01*
Y5380D01*
X33000Y5384D01*
X33001Y5388D01*
X33004Y5397D01*
X33005Y5406D01*
X33006Y5415D01*
X33007Y5419D01*
X33007Y5422D01*
X33007Y5426D01*
Y5428D01*
X33008Y5431D01*
Y5328D01*
D02*
G37*
%LPC*%
G36*
X1335Y4841D02*
X1180D01*
Y4754D01*
Y4806D01*
X1186Y4803D01*
X1190Y4800D01*
X1194Y4797D01*
X1198Y4794D01*
X1201Y4791D01*
X1202Y4790D01*
X1203Y4789D01*
X1204Y4788D01*
X1204Y4788D01*
X1205Y4787D01*
X1205Y4787D01*
X1207Y4785D01*
X1208Y4782D01*
X1211Y4777D01*
X1214Y4771D01*
X1217Y4766D01*
X1218Y4764D01*
X1219Y4761D01*
X1220Y4759D01*
X1220Y4757D01*
X1221Y4756D01*
X1221Y4755D01*
X1221Y4754D01*
Y4754D01*
X1256D01*
X1254Y4759D01*
X1253Y4764D01*
X1251Y4768D01*
X1250Y4771D01*
X1248Y4774D01*
X1248Y4775D01*
X1247Y4776D01*
X1247Y4777D01*
X1247Y4778D01*
X1247Y4778D01*
Y4778D01*
X1245Y4782D01*
X1243Y4785D01*
X1240Y4789D01*
X1238Y4792D01*
X1237Y4794D01*
X1235Y4796D01*
X1235Y4797D01*
X1234Y4798D01*
X1234Y4798D01*
Y4798D01*
X1335D01*
Y4776D01*
Y4841D01*
D02*
G37*
G36*
X32905Y4736D02*
X32900D01*
X32892Y4736D01*
X32885Y4735D01*
X32878Y4735D01*
X32872Y4734D01*
X32870Y4733D01*
X32868Y4733D01*
X32866Y4732D01*
X32864Y4732D01*
X32862Y4732D01*
X32861Y4731D01*
X32861Y4731D01*
X32861D01*
X32854Y4729D01*
X32848Y4726D01*
X32842Y4724D01*
X32837Y4721D01*
X32833Y4719D01*
X32832Y4718D01*
X32830Y4717D01*
X32829Y4716D01*
X32829Y4715D01*
X32828Y4715D01*
X32828Y4715D01*
X32823Y4711D01*
X32819Y4706D01*
X32815Y4701D01*
X32812Y4697D01*
X32809Y4693D01*
X32809Y4691D01*
X32808Y4690D01*
X32807Y4689D01*
X32807Y4688D01*
X32806Y4687D01*
Y4687D01*
X32804Y4680D01*
X32802Y4673D01*
X32801Y4665D01*
X32800Y4658D01*
X32799Y4655D01*
Y4652D01*
X32799Y4649D01*
X32799Y4647D01*
Y4736D01*
Y4549D01*
X33002D01*
Y4642D01*
X33002Y4649D01*
X33001Y4655D01*
X33000Y4662D01*
X32999Y4667D01*
X32999Y4670D01*
X32998Y4672D01*
X32998Y4674D01*
X32997Y4676D01*
X32997Y4678D01*
X32997Y4679D01*
X32996Y4679D01*
Y4680D01*
X32995Y4685D01*
X32992Y4690D01*
X32990Y4695D01*
X32987Y4699D01*
X32984Y4703D01*
X32982Y4706D01*
X32982Y4707D01*
X32981Y4707D01*
X32981Y4708D01*
X32980Y4708D01*
X32976Y4713D01*
X32971Y4717D01*
X32965Y4720D01*
X32961Y4723D01*
X32957Y4726D01*
X32955Y4726D01*
X32953Y4727D01*
X32952Y4728D01*
X32951Y4728D01*
X32951Y4729D01*
X32950D01*
X32947Y4730D01*
X32943Y4731D01*
X32935Y4733D01*
X32926Y4734D01*
X32918Y4735D01*
X32915Y4736D01*
X32911D01*
X32908Y4736D01*
X32905Y4736D01*
D02*
G37*
G36*
X33002Y4515D02*
X32956D01*
Y4407D01*
X32916D01*
Y4504D01*
X32874D01*
Y4407D01*
X32842D01*
Y4512D01*
X32799D01*
Y4515D01*
Y4344D01*
X33002D01*
Y4515D01*
D02*
G37*
G36*
Y4315D02*
X32952D01*
Y4217D01*
X32799D01*
Y4315D01*
Y4154D01*
X33002D01*
Y4315D01*
D02*
G37*
%LPD*%
G36*
X32909Y4673D02*
X32913Y4673D01*
X32917Y4672D01*
X32920Y4672D01*
X32923Y4672D01*
X32925Y4671D01*
X32928Y4671D01*
X32930Y4670D01*
X32932Y4670D01*
X32933Y4669D01*
X32934Y4669D01*
X32935Y4669D01*
X32936Y4669D01*
X32936Y4668D01*
X32936D01*
X32940Y4666D01*
X32943Y4664D01*
X32946Y4662D01*
X32948Y4660D01*
X32949Y4658D01*
X32951Y4657D01*
X32951Y4656D01*
X32951Y4655D01*
X32952Y4653D01*
X32953Y4652D01*
X32954Y4647D01*
X32955Y4643D01*
X32955Y4638D01*
X32955Y4634D01*
Y4632D01*
X32956Y4630D01*
Y4612D01*
X32845D01*
Y4627D01*
X32845Y4632D01*
X32845Y4636D01*
X32846Y4640D01*
X32847Y4643D01*
X32848Y4646D01*
X32849Y4649D01*
X32850Y4652D01*
X32851Y4654D01*
X32852Y4656D01*
X32853Y4658D01*
X32854Y4659D01*
X32855Y4660D01*
X32856Y4661D01*
X32856Y4662D01*
X32857Y4662D01*
X32857D01*
X32859Y4664D01*
X32862Y4666D01*
X32865Y4667D01*
X32869Y4669D01*
X32876Y4671D01*
X32883Y4672D01*
X32887Y4672D01*
X32890Y4673D01*
X32893Y4673D01*
X32896D01*
X32898Y4673D01*
X32899D01*
X32901D01*
X32901D01*
X32905D01*
X32909Y4673D01*
D02*
G37*
%LPC*%
G36*
X1338Y3810D02*
X1303D01*
Y3744D01*
X1301Y3746D01*
X1300Y3748D01*
X1298Y3750D01*
X1297Y3751D01*
X1296Y3752D01*
X1295Y3753D01*
X1294Y3754D01*
X1294Y3754D01*
X1294Y3755D01*
X1293Y3756D01*
X1291Y3758D01*
X1289Y3761D01*
X1287Y3764D01*
X1285Y3767D01*
X1283Y3769D01*
X1283Y3770D01*
X1282Y3771D01*
X1282Y3771D01*
X1282Y3771D01*
X1279Y3775D01*
X1276Y3779D01*
X1274Y3782D01*
X1271Y3785D01*
X1269Y3787D01*
X1267Y3790D01*
X1265Y3792D01*
X1262Y3794D01*
X1261Y3796D01*
X1259Y3797D01*
X1258Y3798D01*
X1256Y3799D01*
X1256Y3800D01*
X1255Y3800D01*
X1254Y3801D01*
X1254D01*
X1252Y3802D01*
X1249Y3804D01*
X1245Y3805D01*
X1240Y3807D01*
X1236Y3808D01*
X1234Y3808D01*
X1233Y3809D01*
X1231Y3809D01*
X1230D01*
X1229Y3809D01*
X1228D01*
X1228D01*
X1228D01*
X1223Y3809D01*
X1219Y3808D01*
X1214Y3807D01*
X1211Y3805D01*
X1208Y3804D01*
X1207Y3804D01*
X1206Y3803D01*
X1205Y3803D01*
X1205Y3802D01*
X1204Y3802D01*
X1204D01*
X1200Y3799D01*
X1197Y3796D01*
X1195Y3792D01*
X1192Y3789D01*
X1191Y3787D01*
X1190Y3785D01*
X1190Y3784D01*
X1189Y3783D01*
X1189Y3783D01*
X1189Y3782D01*
Y3782D01*
X1188Y3780D01*
X1187Y3777D01*
X1186Y3772D01*
X1185Y3766D01*
X1184Y3760D01*
X1184Y3758D01*
X1184Y3755D01*
Y3753D01*
X1183Y3751D01*
Y3744D01*
X1184Y3740D01*
X1184Y3737D01*
X1184Y3733D01*
X1185Y3730D01*
X1185Y3728D01*
X1186Y3725D01*
X1186Y3723D01*
X1187Y3721D01*
X1187Y3719D01*
X1187Y3718D01*
X1188Y3716D01*
X1188Y3715D01*
X1189Y3715D01*
X1189Y3714D01*
Y3714D01*
X1191Y3710D01*
X1193Y3706D01*
X1196Y3703D01*
X1199Y3700D01*
X1201Y3698D01*
X1203Y3697D01*
X1203Y3696D01*
X1204Y3696D01*
X1204Y3695D01*
X1204D01*
X1208Y3693D01*
X1213Y3691D01*
X1217Y3690D01*
X1222Y3689D01*
X1224Y3688D01*
X1226Y3688D01*
X1227Y3687D01*
X1229Y3687D01*
X1230Y3687D01*
X1231D01*
X1232Y3686D01*
X1232D01*
X1235Y3729D01*
X1231Y3729D01*
X1227Y3730D01*
X1224Y3732D01*
X1222Y3733D01*
X1220Y3734D01*
X1219Y3735D01*
X1218Y3735D01*
X1218Y3735D01*
X1216Y3738D01*
X1215Y3740D01*
X1214Y3742D01*
X1213Y3744D01*
X1213Y3746D01*
X1212Y3747D01*
Y3749D01*
X1213Y3752D01*
X1213Y3754D01*
X1214Y3756D01*
X1215Y3758D01*
X1216Y3760D01*
X1217Y3761D01*
X1217Y3761D01*
X1217Y3762D01*
X1219Y3763D01*
X1221Y3765D01*
X1223Y3766D01*
X1225Y3766D01*
X1227Y3767D01*
X1228Y3767D01*
X1229D01*
X1229D01*
X1232Y3767D01*
X1234Y3766D01*
X1236Y3765D01*
X1238Y3764D01*
X1240Y3763D01*
X1242Y3762D01*
X1242Y3762D01*
X1243Y3762D01*
X1244Y3761D01*
X1246Y3759D01*
X1247Y3758D01*
X1249Y3756D01*
X1253Y3752D01*
X1256Y3748D01*
X1259Y3744D01*
X1260Y3742D01*
X1261Y3741D01*
X1262Y3740D01*
X1263Y3739D01*
X1263Y3738D01*
X1264Y3738D01*
X1268Y3732D01*
X1272Y3727D01*
X1276Y3723D01*
X1279Y3719D01*
X1283Y3715D01*
X1286Y3711D01*
X1289Y3708D01*
X1292Y3706D01*
X1294Y3703D01*
X1296Y3701D01*
X1298Y3700D01*
X1300Y3699D01*
X1301Y3698D01*
X1302Y3697D01*
X1302Y3697D01*
X1303Y3696D01*
X1306Y3695D01*
X1309Y3693D01*
X1312Y3691D01*
X1315Y3690D01*
X1321Y3687D01*
X1324Y3686D01*
X1326Y3686D01*
X1329Y3685D01*
X1331Y3685D01*
X1333Y3684D01*
X1335Y3684D01*
X1336Y3683D01*
X1337D01*
X1338Y3683D01*
X1338D01*
Y3810D01*
D02*
G37*
G36*
X33002Y3775D02*
Y3664D01*
X32735D01*
Y3775D01*
X32648D01*
Y3442D01*
X33002D01*
Y3775D01*
D02*
G37*
G36*
X32891Y3412D02*
X32887D01*
X32877Y3412D01*
X32867Y3410D01*
X32858Y3408D01*
X32850Y3405D01*
X32844Y3402D01*
X32841Y3401D01*
X32839Y3400D01*
X32837Y3399D01*
X32835Y3398D01*
X32835Y3398D01*
X32835D01*
X32826Y3392D01*
X32818Y3385D01*
X32812Y3377D01*
X32806Y3370D01*
X32801Y3363D01*
X32800Y3360D01*
X32798Y3358D01*
X32797Y3356D01*
X32796Y3354D01*
X32795Y3353D01*
Y3352D01*
X32792Y3346D01*
X32789Y3339D01*
X32787Y3331D01*
X32783Y3323D01*
X32778Y3306D01*
X32773Y3289D01*
X32771Y3281D01*
X32769Y3274D01*
X32768Y3267D01*
X32766Y3261D01*
X32765Y3256D01*
X32765Y3252D01*
X32764Y3250D01*
Y3249D01*
X32763Y3244D01*
X32762Y3239D01*
X32760Y3235D01*
X32759Y3231D01*
X32757Y3225D01*
X32755Y3220D01*
X32753Y3217D01*
X32752Y3214D01*
X32751Y3213D01*
X32751Y3213D01*
X32748Y3210D01*
X32745Y3208D01*
X32743Y3207D01*
X32741Y3206D01*
X32738Y3205D01*
X32737Y3205D01*
X32736D01*
X32735D01*
X32731Y3205D01*
X32728Y3206D01*
X32724Y3208D01*
X32721Y3210D01*
X32719Y3211D01*
X32717Y3213D01*
X32716Y3214D01*
X32716Y3214D01*
X32713Y3218D01*
X32711Y3223D01*
X32710Y3228D01*
X32708Y3232D01*
X32708Y3237D01*
X32707Y3240D01*
Y3243D01*
X32708Y3252D01*
X32709Y3259D01*
X32711Y3265D01*
X32713Y3270D01*
X32715Y3274D01*
X32717Y3277D01*
X32718Y3279D01*
X32718Y3280D01*
X32723Y3284D01*
X32728Y3288D01*
X32734Y3291D01*
X32740Y3293D01*
X32745Y3295D01*
X32749Y3296D01*
X32751Y3297D01*
X32752Y3297D01*
X32753D01*
X32753D01*
X32748Y3401D01*
X32738Y3399D01*
X32728Y3397D01*
X32720Y3394D01*
X32711Y3391D01*
X32704Y3387D01*
X32698Y3384D01*
X32692Y3380D01*
X32686Y3377D01*
X32682Y3373D01*
X32678Y3370D01*
X32674Y3366D01*
X32672Y3363D01*
X32669Y3361D01*
X32668Y3359D01*
X32667Y3358D01*
X32667Y3358D01*
X32662Y3351D01*
X32659Y3343D01*
X32655Y3335D01*
X32652Y3327D01*
X32650Y3318D01*
X32648Y3309D01*
X32645Y3293D01*
X32644Y3285D01*
X32643Y3278D01*
X32642Y3271D01*
X32642Y3266D01*
X32641Y3261D01*
Y3412D01*
D01*
Y3090D01*
X33009D01*
D01*
X32885D01*
X32641D01*
Y3244D01*
X32642Y3234D01*
X32643Y3225D01*
X32644Y3217D01*
X32645Y3209D01*
X32646Y3202D01*
X32647Y3196D01*
X32648Y3189D01*
X32650Y3184D01*
X32651Y3180D01*
X32652Y3176D01*
X32653Y3172D01*
X32654Y3170D01*
X32655Y3168D01*
X32655Y3167D01*
Y3167D01*
X32661Y3155D01*
X32667Y3146D01*
X32674Y3137D01*
X32680Y3131D01*
X32686Y3126D01*
X32690Y3122D01*
X32692Y3121D01*
X32693Y3120D01*
X32693Y3119D01*
X32694D01*
X32703Y3114D01*
X32712Y3110D01*
X32721Y3107D01*
X32729Y3106D01*
X32735Y3104D01*
X32738Y3104D01*
X32741D01*
X32743Y3103D01*
X32744D01*
X32745D01*
X32745D01*
X32753Y3104D01*
X32760Y3105D01*
X32767Y3106D01*
X32774Y3108D01*
X32780Y3110D01*
X32785Y3113D01*
X32790Y3116D01*
X32795Y3119D01*
X32800Y3122D01*
X32803Y3124D01*
X32807Y3127D01*
X32809Y3129D01*
X32811Y3131D01*
X32813Y3133D01*
X32814Y3134D01*
X32814Y3134D01*
X32819Y3140D01*
X32824Y3148D01*
X32828Y3155D01*
X32832Y3163D01*
X32839Y3180D01*
X32846Y3197D01*
X32848Y3205D01*
X32850Y3213D01*
X32853Y3220D01*
X32854Y3225D01*
X32855Y3230D01*
X32856Y3234D01*
X32857Y3236D01*
Y3237D01*
X32859Y3245D01*
X32860Y3252D01*
X32862Y3259D01*
X32864Y3265D01*
X32866Y3270D01*
X32868Y3274D01*
X32869Y3278D01*
X32871Y3282D01*
X32872Y3285D01*
X32874Y3287D01*
X32874Y3289D01*
X32876Y3291D01*
X32877Y3293D01*
X32877Y3293D01*
X32882Y3297D01*
X32886Y3300D01*
X32890Y3303D01*
X32894Y3304D01*
X32898Y3305D01*
X32900Y3306D01*
X32902D01*
X32902D01*
X32908Y3305D01*
X32912Y3304D01*
X32917Y3302D01*
X32920Y3299D01*
X32923Y3297D01*
X32926Y3295D01*
X32927Y3293D01*
X32928Y3293D01*
X32931Y3287D01*
X32934Y3282D01*
X32936Y3276D01*
X32937Y3270D01*
X32938Y3265D01*
X32939Y3261D01*
Y3257D01*
X32938Y3251D01*
X32938Y3246D01*
X32935Y3236D01*
X32932Y3228D01*
X32928Y3221D01*
X32924Y3215D01*
X32921Y3211D01*
X32918Y3209D01*
X32918Y3208D01*
X32917D01*
X32912Y3205D01*
X32905Y3202D01*
X32899Y3200D01*
X32893Y3198D01*
X32887Y3196D01*
X32883Y3196D01*
X32881Y3195D01*
X32880Y3195D01*
X32879D01*
X32878D01*
X32885Y3090D01*
X32895Y3092D01*
X32904Y3093D01*
X32913Y3096D01*
X32922Y3098D01*
X32929Y3101D01*
X32937Y3105D01*
X32943Y3108D01*
X32950Y3112D01*
X32955Y3115D01*
X32960Y3118D01*
X32964Y3121D01*
X32968Y3124D01*
X32971Y3127D01*
X32972Y3128D01*
X32974Y3129D01*
X32974Y3130D01*
X32980Y3137D01*
X32985Y3145D01*
X32990Y3154D01*
X32994Y3164D01*
X32997Y3174D01*
X33000Y3185D01*
X33002Y3195D01*
X33004Y3206D01*
X33005Y3215D01*
X33007Y3224D01*
X33008Y3233D01*
X33008Y3240D01*
Y3246D01*
X33009Y3251D01*
Y3265D01*
X33008Y3273D01*
X33007Y3282D01*
X33006Y3290D01*
X33005Y3298D01*
X33004Y3305D01*
X33002Y3311D01*
X33001Y3317D01*
X33000Y3322D01*
X32998Y3327D01*
X32997Y3331D01*
X32996Y3334D01*
X32995Y3337D01*
X32994Y3338D01*
X32994Y3340D01*
Y3340D01*
X32988Y3352D01*
X32981Y3363D01*
X32973Y3372D01*
X32966Y3380D01*
X32960Y3385D01*
X32955Y3390D01*
X32953Y3391D01*
X32951Y3392D01*
X32950Y3393D01*
X32950D01*
X32944Y3397D01*
X32939Y3400D01*
X32928Y3404D01*
X32917Y3408D01*
X32908Y3410D01*
X32903Y3411D01*
X32899Y3411D01*
X32896Y3412D01*
X32893D01*
X32891Y3412D01*
D02*
G37*
G36*
X33002Y3074D02*
X32648D01*
Y2725D01*
X33002D01*
Y2835D01*
X32858D01*
Y2844D01*
X32859Y2849D01*
X32860Y2855D01*
X32861Y2859D01*
X32862Y2863D01*
X32864Y2867D01*
X32865Y2869D01*
X32866Y2870D01*
X32867Y2871D01*
X32870Y2874D01*
X32874Y2878D01*
X32878Y2881D01*
X32883Y2884D01*
X32887Y2887D01*
X32891Y2889D01*
X32893Y2891D01*
X32894Y2891D01*
X32894D01*
X33002Y2950D01*
Y3074D01*
X32900Y3020D01*
X32897Y3019D01*
X32893Y3016D01*
X32886Y3011D01*
X32883Y3009D01*
X32880Y3006D01*
X32878Y3005D01*
X32878Y3005D01*
X32873Y3001D01*
X32869Y2997D01*
X32866Y2994D01*
X32863Y2992D01*
X32861Y2990D01*
X32860Y2988D01*
X32859Y2988D01*
Y2987D01*
X32856Y2983D01*
X32854Y2979D01*
X32850Y2970D01*
X32849Y2965D01*
X32847Y2962D01*
X32846Y2960D01*
X32846Y2959D01*
Y2959D01*
X32844Y2967D01*
X32841Y2975D01*
X32839Y2982D01*
X32837Y2988D01*
X32835Y2992D01*
X32833Y2995D01*
X32832Y2997D01*
X32832Y2998D01*
X32826Y3006D01*
X32821Y3012D01*
X32815Y3019D01*
X32809Y3023D01*
X32804Y3027D01*
X32801Y3030D01*
X32798Y3032D01*
X32797Y3033D01*
X32797D01*
X32789Y3037D01*
X32780Y3040D01*
X32772Y3042D01*
X32764Y3044D01*
X32757Y3045D01*
X32754D01*
X32751Y3045D01*
X32749D01*
X32748D01*
X32747D01*
X32746D01*
X32734Y3044D01*
X32723Y3043D01*
X32713Y3040D01*
X32705Y3037D01*
X32701Y3035D01*
X32698Y3034D01*
X32695Y3033D01*
X32693Y3031D01*
X32691Y3030D01*
X32690Y3030D01*
X32689Y3029D01*
X32689D01*
X32680Y3022D01*
X32674Y3015D01*
X32668Y3008D01*
X32664Y3001D01*
X32660Y2995D01*
X32658Y2989D01*
X32657Y2988D01*
X32657Y2986D01*
X32656Y2985D01*
Y2985D01*
X32655Y2980D01*
X32653Y2974D01*
X32651Y2961D01*
X32650Y2949D01*
X32648Y2936D01*
Y2930D01*
X32648Y2925D01*
Y2920D01*
X32648Y2915D01*
Y3074D01*
X33002D01*
D02*
G37*
%LPD*%
G36*
Y3442D02*
X32735D01*
Y3554D01*
X33002D01*
Y3442D01*
D02*
G37*
G36*
X32759Y2935D02*
X32763Y2934D01*
X32766Y2933D01*
X32769Y2932D01*
X32772Y2930D01*
X32774Y2929D01*
X32775Y2929D01*
X32776Y2928D01*
X32779Y2926D01*
X32781Y2922D01*
X32783Y2919D01*
X32784Y2917D01*
X32785Y2914D01*
X32786Y2912D01*
X32786Y2911D01*
Y2910D01*
X32788Y2903D01*
X32789Y2896D01*
X32790Y2891D01*
X32790Y2888D01*
Y2884D01*
X32791Y2882D01*
Y2835D01*
X32719D01*
Y2888D01*
X32720Y2893D01*
X32721Y2902D01*
X32722Y2909D01*
X32724Y2915D01*
X32725Y2919D01*
X32727Y2922D01*
X32728Y2923D01*
X32728Y2924D01*
X32732Y2928D01*
X32736Y2930D01*
X32741Y2933D01*
X32745Y2934D01*
X32749Y2935D01*
X32752Y2935D01*
X32754D01*
X32755D01*
X32759Y2935D01*
D02*
G37*
%LPC*%
G36*
X1335Y2766D02*
X1181D01*
Y2679D01*
X1256D01*
X1255Y2685D01*
X1253Y2689D01*
X1251Y2693D01*
X1250Y2697D01*
X1249Y2700D01*
X1248Y2701D01*
X1248Y2702D01*
X1248Y2703D01*
X1247Y2703D01*
X1247Y2703D01*
Y2703D01*
X1245Y2707D01*
X1243Y2711D01*
X1241Y2714D01*
X1239Y2717D01*
X1237Y2720D01*
X1236Y2722D01*
X1235Y2723D01*
X1235Y2723D01*
X1234Y2723D01*
Y2724D01*
X1335D01*
Y2702D01*
Y2766D01*
D02*
G37*
%LPD*%
G36*
X1186Y2729D02*
X1191Y2726D01*
X1195Y2723D01*
X1199Y2720D01*
X1201Y2717D01*
X1202Y2716D01*
X1203Y2715D01*
X1204Y2714D01*
X1205Y2713D01*
X1205Y2713D01*
X1205Y2713D01*
X1207Y2710D01*
X1209Y2708D01*
X1212Y2703D01*
X1215Y2697D01*
X1217Y2691D01*
X1218Y2689D01*
X1219Y2687D01*
X1220Y2685D01*
X1221Y2683D01*
X1221Y2681D01*
X1222Y2680D01*
X1222Y2680D01*
Y2679D01*
X1181D01*
Y2731D01*
X1186Y2729D01*
D02*
G37*
%LPC*%
G36*
X32994Y2151D02*
X32639D01*
Y1812D01*
X32994D01*
Y1915D01*
X32799D01*
X32994Y2048D01*
Y2151D01*
D02*
G37*
G36*
Y1762D02*
X32639D01*
Y1428D01*
X32727D01*
Y1540D01*
X32994D01*
Y1762D01*
D02*
G37*
G36*
Y1396D02*
X32639D01*
D01*
X32893D01*
X32880Y1395D01*
X32870Y1393D01*
X32860Y1390D01*
X32852Y1387D01*
X32846Y1383D01*
X32843Y1382D01*
X32841Y1381D01*
X32839Y1379D01*
X32838Y1379D01*
X32837Y1378D01*
X32837Y1378D01*
X32833Y1374D01*
X32829Y1370D01*
X32822Y1361D01*
X32817Y1352D01*
X32812Y1343D01*
X32809Y1334D01*
X32808Y1331D01*
X32807Y1327D01*
X32806Y1325D01*
X32805Y1323D01*
X32805Y1322D01*
Y1321D01*
X32801Y1330D01*
X32797Y1338D01*
X32794Y1344D01*
X32790Y1350D01*
X32787Y1354D01*
X32784Y1357D01*
X32782Y1359D01*
X32781Y1360D01*
X32777Y1363D01*
X32773Y1366D01*
X32763Y1371D01*
X32754Y1375D01*
X32746Y1377D01*
X32738Y1379D01*
X32735Y1379D01*
X32733D01*
X32731Y1379D01*
X32729D01*
X32728D01*
X32728D01*
X32721Y1379D01*
X32714Y1378D01*
X32708Y1377D01*
X32702Y1375D01*
X32691Y1371D01*
X32686Y1368D01*
X32682Y1366D01*
X32678Y1363D01*
X32675Y1361D01*
X32672Y1358D01*
X32669Y1356D01*
X32667Y1355D01*
X32666Y1353D01*
X32665Y1352D01*
X32665Y1352D01*
X32660Y1347D01*
X32656Y1341D01*
X32653Y1334D01*
X32650Y1328D01*
X32647Y1321D01*
X32645Y1315D01*
X32642Y1302D01*
X32641Y1296D01*
X32640Y1291D01*
X32640Y1285D01*
X32639Y1281D01*
X32639Y1278D01*
Y1068D01*
X32994D01*
Y1396D01*
D02*
G37*
%LPD*%
G36*
X32639Y1914D02*
Y2048D01*
X32835D01*
X32639Y1914D01*
D02*
G37*
G36*
X32994Y1650D02*
X32727D01*
Y1762D01*
X32994D01*
Y1650D01*
D02*
G37*
G36*
Y1260D02*
X32993Y1263D01*
X32993Y1270D01*
X32992Y1278D01*
X32991Y1286D01*
X32990Y1294D01*
Y1297D01*
X32990Y1300D01*
X32989Y1303D01*
X32989Y1304D01*
Y1306D01*
X32988Y1316D01*
X32986Y1324D01*
X32984Y1332D01*
X32982Y1337D01*
X32980Y1342D01*
X32979Y1345D01*
X32978Y1348D01*
X32977Y1348D01*
X32972Y1356D01*
X32967Y1363D01*
X32960Y1369D01*
X32955Y1374D01*
X32950Y1378D01*
X32946Y1381D01*
X32943Y1382D01*
X32943Y1383D01*
X32943D01*
X32934Y1387D01*
X32925Y1390D01*
X32917Y1393D01*
X32909Y1394D01*
X32903Y1395D01*
X32900Y1396D01*
X32898Y1396D01*
X32994D01*
Y1260D01*
D02*
G37*
G36*
X32887Y1285D02*
X32892Y1284D01*
X32897Y1282D01*
X32901Y1280D01*
X32904Y1278D01*
X32906Y1276D01*
X32907Y1275D01*
X32908Y1274D01*
X32911Y1269D01*
X32913Y1263D01*
X32915Y1256D01*
X32916Y1250D01*
X32917Y1243D01*
X32917Y1239D01*
Y1178D01*
X32846D01*
Y1234D01*
X32846Y1244D01*
X32847Y1252D01*
X32849Y1259D01*
X32850Y1265D01*
X32852Y1269D01*
X32854Y1272D01*
X32855Y1274D01*
X32855Y1274D01*
X32859Y1278D01*
X32863Y1281D01*
X32867Y1283D01*
X32871Y1285D01*
X32875Y1285D01*
X32878Y1286D01*
X32880D01*
X32880D01*
X32887Y1285D01*
D02*
G37*
G36*
X32749Y1271D02*
X32755Y1270D01*
X32759Y1268D01*
X32762Y1267D01*
X32766Y1265D01*
X32767Y1263D01*
X32769Y1262D01*
X32769Y1261D01*
X32772Y1257D01*
X32774Y1252D01*
X32776Y1246D01*
X32776Y1240D01*
X32777Y1235D01*
X32778Y1230D01*
Y1178D01*
X32711D01*
Y1226D01*
X32711Y1235D01*
X32712Y1243D01*
X32714Y1248D01*
X32715Y1253D01*
X32717Y1257D01*
X32718Y1260D01*
X32719Y1261D01*
X32720Y1261D01*
X32723Y1265D01*
X32727Y1268D01*
X32731Y1269D01*
X32735Y1271D01*
X32738Y1271D01*
X32741Y1272D01*
X32743D01*
X32744D01*
X32749Y1271D01*
D02*
G37*
%LPC*%
G36*
X1800Y18997D02*
X1392D01*
X1382Y18946D01*
X1352Y18868D01*
X3800D01*
Y18562D01*
X3811Y18583D01*
X3820Y18590D01*
X3820Y18590D01*
Y18953D01*
X1800Y18950D01*
Y18997D01*
D02*
G37*
G36*
X2522Y18733D02*
X2288D01*
X2151Y18208D01*
X2012Y18733D01*
X1780D01*
Y17964D01*
X1924D01*
Y18569D01*
X2075Y17964D01*
X2225D01*
X2377Y18569D01*
X2378Y17964D01*
X2522D01*
Y18733D01*
D02*
G37*
G36*
X3020Y18736D02*
X2900D01*
X2895Y18723D01*
X2889Y18710D01*
X2876Y18687D01*
X2860Y18666D01*
X2852Y18656D01*
X2845Y18648D01*
X2837Y18640D01*
X2831Y18633D01*
X2824Y18627D01*
X2819Y18622D01*
X2814Y18618D01*
X2810Y18615D01*
X2808Y18614D01*
X2807Y18613D01*
X2794Y18603D01*
X2783Y18595D01*
X2759Y18580D01*
X2738Y18567D01*
X2729Y18562D01*
X2720Y18557D01*
X2711Y18554D01*
X2704Y18551D01*
X2698Y18548D01*
X2693Y18545D01*
X2689Y18544D01*
X2685Y18542D01*
X2684Y18542D01*
X2683D01*
Y18408D01*
X2703Y18416D01*
X2722Y18423D01*
X2741Y18432D01*
X2758Y18440D01*
X2776Y18450D01*
X2792Y18459D01*
X2806Y18468D01*
X2819Y18477D01*
X2831Y18485D01*
X2842Y18494D01*
X2851Y18500D01*
X2859Y18507D01*
X2865Y18512D01*
X2869Y18516D01*
X2873Y18518D01*
X2873Y18519D01*
Y17964D01*
X3020D01*
Y18736D01*
D02*
G37*
G36*
X1002Y16884D02*
X802Y16809D01*
Y16884D01*
D01*
Y16666D01*
D01*
Y16741D01*
X1002Y16666D01*
Y16729D01*
X969Y16739D01*
Y16809D01*
X1002Y16819D01*
Y16884D01*
D02*
G37*
G36*
X529Y15964D02*
X275D01*
Y15722D01*
X529D01*
Y15795D01*
X390D01*
X529Y15890D01*
Y15964D01*
D02*
G37*
G36*
Y15665D02*
X275D01*
Y15586D01*
X529D01*
Y15665D01*
D02*
G37*
G36*
X520Y3681D02*
X266D01*
Y3443D01*
X329D01*
Y3522D01*
X520D01*
Y3601D01*
X329D01*
Y3681D01*
X520D01*
D02*
G37*
G36*
X524Y3409D02*
D01*
Y3293D01*
X524Y3305D01*
X523Y3315D01*
X522Y3320D01*
X521Y3325D01*
X520Y3329D01*
X520Y3333D01*
X519Y3336D01*
X518Y3339D01*
X517Y3342D01*
X517Y3344D01*
X516Y3346D01*
X516Y3347D01*
X515Y3348D01*
Y3348D01*
X513Y3354D01*
X510Y3360D01*
X506Y3365D01*
X503Y3370D01*
X500Y3374D01*
X497Y3377D01*
X495Y3379D01*
X495Y3379D01*
X495Y3379D01*
X489Y3385D01*
X483Y3389D01*
X477Y3393D01*
X471Y3396D01*
X467Y3399D01*
X465Y3399D01*
X463Y3400D01*
X461Y3401D01*
X461Y3401D01*
X460Y3401D01*
X460D01*
X452Y3404D01*
X445Y3405D01*
X437Y3407D01*
X431Y3408D01*
X425Y3408D01*
X423D01*
X421Y3409D01*
X524D01*
X266D01*
Y3331D01*
X421D01*
X428Y3330D01*
X435Y3329D01*
X440Y3327D01*
X445Y3325D01*
X449Y3323D01*
X451Y3321D01*
X453Y3320D01*
X453Y3319D01*
X457Y3314D01*
X460Y3309D01*
X462Y3304D01*
X463Y3299D01*
X464Y3294D01*
X464Y3291D01*
X465Y3289D01*
Y3287D01*
X464Y3280D01*
X463Y3274D01*
X461Y3268D01*
X459Y3264D01*
X457Y3260D01*
X455Y3258D01*
X454Y3256D01*
X453Y3255D01*
X448Y3252D01*
X443Y3249D01*
X438Y3247D01*
X432Y3246D01*
X428Y3245D01*
X426Y3244D01*
X424D01*
X422Y3244D01*
X422D01*
X421D01*
X421D01*
X266D01*
Y3166D01*
X524D01*
Y3409D01*
D02*
G37*
G36*
Y3123D02*
D01*
Y2995D01*
X524Y3003D01*
X523Y3010D01*
X522Y3017D01*
X521Y3024D01*
X520Y3030D01*
X519Y3036D01*
X518Y3041D01*
X516Y3046D01*
X515Y3050D01*
X513Y3054D01*
X512Y3057D01*
X511Y3060D01*
X510Y3062D01*
X509Y3064D01*
X509Y3065D01*
X508Y3065D01*
X505Y3070D01*
X502Y3075D01*
X498Y3080D01*
X495Y3084D01*
X491Y3088D01*
X487Y3091D01*
X484Y3094D01*
X480Y3097D01*
X477Y3100D01*
X474Y3102D01*
X471Y3104D01*
X469Y3106D01*
X467Y3107D01*
X465Y3108D01*
X464Y3108D01*
X464Y3108D01*
X458Y3111D01*
X453Y3113D01*
X441Y3117D01*
X428Y3120D01*
X422Y3121D01*
X417Y3121D01*
X412Y3122D01*
X407Y3123D01*
X402Y3123D01*
X398D01*
X395Y3123D01*
X524D01*
X395D01*
D01*
X391D01*
X380Y3123D01*
X369Y3122D01*
X359Y3120D01*
X350Y3118D01*
X342Y3116D01*
X334Y3112D01*
X327Y3109D01*
X320Y3106D01*
X315Y3103D01*
X310Y3100D01*
X305Y3097D01*
X302Y3094D01*
X299Y3092D01*
X297Y3091D01*
X296Y3089D01*
X296Y3089D01*
X290Y3082D01*
X285Y3075D01*
X280Y3067D01*
X276Y3059D01*
X273Y3051D01*
X270Y3043D01*
X268Y3035D01*
X266Y3028D01*
X265Y3020D01*
X264Y3014D01*
X263Y3007D01*
X262Y3002D01*
X262Y2998D01*
X262Y2995D01*
Y2992D01*
X262Y2980D01*
X263Y2970D01*
X265Y2960D01*
X267Y2950D01*
X270Y2942D01*
X273Y2934D01*
X276Y2927D01*
X279Y2920D01*
X282Y2915D01*
X286Y2910D01*
X288Y2905D01*
X291Y2902D01*
X293Y2899D01*
X295Y2897D01*
X296Y2896D01*
X296Y2895D01*
X303Y2889D01*
X310Y2884D01*
X318Y2879D01*
X326Y2875D01*
X334Y2872D01*
X342Y2869D01*
X350Y2867D01*
X358Y2865D01*
X365Y2864D01*
X372Y2863D01*
X378Y2862D01*
X383Y2862D01*
X387Y2861D01*
X390Y2861D01*
X262D01*
X393D01*
X401Y2861D01*
X409Y2862D01*
X417Y2863D01*
X423Y2864D01*
X430Y2865D01*
X436Y2866D01*
X442Y2868D01*
X447Y2870D01*
X451Y2871D01*
X455Y2873D01*
X459Y2874D01*
X462Y2875D01*
X464Y2877D01*
X466Y2878D01*
X467Y2878D01*
X467Y2878D01*
X472Y2882D01*
X477Y2885D01*
X482Y2889D01*
X486Y2892D01*
X490Y2897D01*
X494Y2900D01*
X497Y2904D01*
X500Y2907D01*
X502Y2911D01*
X505Y2914D01*
X506Y2916D01*
X508Y2919D01*
X509Y2921D01*
X510Y2922D01*
X510Y2923D01*
X510Y2924D01*
X513Y2929D01*
X515Y2935D01*
X518Y2947D01*
X520Y2959D01*
X521Y2964D01*
X522Y2970D01*
X523Y2975D01*
X523Y2980D01*
X524Y2984D01*
Y2988D01*
X524Y2991D01*
Y2861D01*
D01*
Y3123D01*
D02*
G37*
G36*
X1005Y2313D02*
X805D01*
D01*
X948D01*
X941Y2313D01*
X935Y2311D01*
X930Y2310D01*
X925Y2308D01*
X921Y2306D01*
X920Y2305D01*
X919Y2305D01*
X918Y2304D01*
X917Y2303D01*
X917Y2303D01*
X916Y2303D01*
X914Y2301D01*
X912Y2299D01*
X908Y2294D01*
X905Y2288D01*
X903Y2283D01*
X901Y2278D01*
X900Y2276D01*
X899Y2275D01*
X899Y2273D01*
X899Y2272D01*
X898Y2271D01*
Y2271D01*
X896Y2276D01*
X894Y2280D01*
X892Y2284D01*
X890Y2287D01*
X888Y2290D01*
X887Y2291D01*
X885Y2292D01*
X885Y2293D01*
X883Y2295D01*
X880Y2296D01*
X875Y2299D01*
X870Y2301D01*
X865Y2302D01*
X861Y2303D01*
X859Y2304D01*
X858D01*
X857Y2304D01*
X856D01*
X855D01*
X855D01*
X851Y2304D01*
X847Y2303D01*
X844Y2302D01*
X840Y2301D01*
X834Y2299D01*
X832Y2297D01*
X829Y2296D01*
X827Y2295D01*
X825Y2293D01*
X823Y2292D01*
X822Y2291D01*
X821Y2290D01*
X820Y2289D01*
X820Y2289D01*
X819Y2288D01*
X817Y2285D01*
X815Y2282D01*
X813Y2278D01*
X811Y2275D01*
X810Y2271D01*
X808Y2267D01*
X807Y2260D01*
X806Y2257D01*
X806Y2254D01*
X805Y2251D01*
X805Y2248D01*
X805Y2246D01*
Y2128D01*
X1005D01*
Y2313D01*
D02*
G37*
G36*
X1338Y1787D02*
X1184D01*
D01*
X1304D01*
Y1720D01*
X1302Y1722D01*
X1300Y1724D01*
X1298Y1726D01*
X1297Y1728D01*
X1296Y1729D01*
X1295Y1730D01*
X1295Y1730D01*
X1295Y1730D01*
X1294Y1731D01*
X1293Y1732D01*
X1291Y1735D01*
X1289Y1738D01*
X1287Y1741D01*
X1285Y1743D01*
X1284Y1746D01*
X1283Y1747D01*
X1283Y1747D01*
X1283Y1747D01*
X1282Y1748D01*
X1280Y1752D01*
X1277Y1755D01*
X1274Y1758D01*
X1272Y1761D01*
X1269Y1764D01*
X1267Y1766D01*
X1265Y1769D01*
X1263Y1770D01*
X1261Y1772D01*
X1260Y1773D01*
X1258Y1775D01*
X1257Y1776D01*
X1256Y1776D01*
X1255Y1777D01*
X1255Y1777D01*
X1255D01*
X1252Y1779D01*
X1250Y1780D01*
X1245Y1782D01*
X1241Y1783D01*
X1237Y1784D01*
X1235Y1785D01*
X1233Y1785D01*
X1232Y1785D01*
X1231D01*
X1229Y1785D01*
X1229D01*
X1228D01*
X1228D01*
X1223Y1785D01*
X1219Y1784D01*
X1215Y1783D01*
X1212Y1782D01*
X1209Y1781D01*
X1207Y1780D01*
X1206Y1779D01*
X1206Y1779D01*
X1205Y1779D01*
X1205Y1778D01*
X1205D01*
X1201Y1776D01*
X1198Y1772D01*
X1195Y1769D01*
X1193Y1766D01*
X1191Y1763D01*
X1191Y1762D01*
X1190Y1761D01*
X1190Y1760D01*
X1189Y1759D01*
X1189Y1759D01*
Y1759D01*
X1188Y1756D01*
X1187Y1754D01*
X1186Y1748D01*
X1185Y1742D01*
X1184Y1737D01*
X1184Y1734D01*
X1184Y1732D01*
Y1730D01*
X1184Y1728D01*
Y1720D01*
X1184Y1717D01*
X1184Y1713D01*
X1185Y1710D01*
X1185Y1707D01*
X1186Y1704D01*
X1186Y1702D01*
X1186Y1699D01*
X1187Y1697D01*
X1188Y1696D01*
X1188Y1694D01*
X1188Y1693D01*
X1189Y1692D01*
X1189Y1691D01*
X1189Y1691D01*
Y1691D01*
X1192Y1686D01*
X1194Y1683D01*
X1197Y1679D01*
X1199Y1677D01*
X1201Y1675D01*
X1203Y1673D01*
X1204Y1673D01*
X1204Y1672D01*
X1205Y1672D01*
X1205D01*
X1209Y1670D01*
X1213Y1668D01*
X1218Y1666D01*
X1222Y1665D01*
X1224Y1664D01*
X1226Y1664D01*
X1228Y1664D01*
X1229Y1663D01*
X1231Y1663D01*
X1232D01*
X1232Y1663D01*
X1232D01*
X1236Y1705D01*
X1231Y1706D01*
X1228Y1707D01*
X1225Y1708D01*
X1222Y1709D01*
X1220Y1710D01*
X1219Y1711D01*
X1218Y1712D01*
X1218Y1712D01*
X1216Y1714D01*
X1215Y1716D01*
X1214Y1718D01*
X1213Y1721D01*
X1213Y1722D01*
X1213Y1724D01*
Y1725D01*
X1213Y1728D01*
X1214Y1731D01*
X1215Y1733D01*
X1215Y1735D01*
X1216Y1736D01*
X1217Y1737D01*
X1218Y1738D01*
X1218Y1738D01*
X1220Y1740D01*
X1222Y1741D01*
X1224Y1742D01*
X1226Y1743D01*
X1227Y1743D01*
X1229Y1743D01*
X1229D01*
X1230D01*
X1232Y1743D01*
X1235Y1743D01*
X1237Y1742D01*
X1239Y1741D01*
X1241Y1740D01*
X1242Y1739D01*
X1243Y1738D01*
X1243Y1738D01*
X1245Y1737D01*
X1246Y1736D01*
X1248Y1734D01*
X1249Y1732D01*
X1253Y1728D01*
X1256Y1724D01*
X1259Y1721D01*
X1261Y1719D01*
X1262Y1717D01*
X1263Y1716D01*
X1264Y1715D01*
X1264Y1715D01*
X1264Y1714D01*
X1268Y1709D01*
X1272Y1704D01*
X1276Y1699D01*
X1280Y1695D01*
X1283Y1691D01*
X1286Y1688D01*
X1289Y1685D01*
X1292Y1682D01*
X1295Y1680D01*
X1297Y1678D01*
X1299Y1676D01*
X1300Y1675D01*
X1301Y1674D01*
X1302Y1673D01*
X1303Y1673D01*
X1303Y1673D01*
X1306Y1671D01*
X1309Y1669D01*
X1313Y1668D01*
X1316Y1666D01*
X1321Y1664D01*
X1324Y1663D01*
X1327Y1662D01*
X1329Y1661D01*
X1332Y1661D01*
X1333Y1660D01*
X1335Y1660D01*
X1336Y1660D01*
X1337D01*
X1338Y1660D01*
X1314D01*
X1338D01*
Y1787D01*
D02*
G37*
G36*
X2572Y1126D02*
X2338D01*
X2200Y601D01*
X2062Y1126D01*
X1829D01*
Y357D01*
X1973D01*
Y962D01*
X2125Y357D01*
X2274D01*
X2427Y962D01*
X2428Y357D01*
X2572D01*
Y1126D01*
D02*
G37*
G36*
X2952Y1129D02*
X2947D01*
X2928Y1128D01*
X2909Y1127D01*
X2892Y1124D01*
X2875Y1121D01*
X2860Y1117D01*
X2846Y1113D01*
X2833Y1107D01*
X2821Y1103D01*
X2810Y1098D01*
X2800Y1092D01*
X2793Y1088D01*
X2786Y1084D01*
X2780Y1081D01*
X2776Y1078D01*
X2774Y1077D01*
X2773Y1076D01*
X2761Y1065D01*
X2750Y1053D01*
X2740Y1040D01*
X2731Y1026D01*
X2724Y1012D01*
X2717Y997D01*
X2711Y983D01*
X2707Y969D01*
X2703Y955D01*
X2699Y942D01*
X2697Y931D01*
X2695Y921D01*
X2693Y912D01*
X2692Y906D01*
X2692Y903D01*
Y901D01*
X2839Y887D01*
X2839Y898D01*
X2841Y909D01*
X2843Y919D01*
X2845Y928D01*
X2848Y936D01*
X2850Y944D01*
X2853Y951D01*
X2855Y957D01*
X2860Y966D01*
X2865Y973D01*
X2868Y977D01*
X2869Y978D01*
X2881Y988D01*
X2893Y995D01*
X2905Y1000D01*
X2917Y1003D01*
X2927Y1005D01*
X2935Y1006D01*
X2938Y1007D01*
X2943D01*
X2959Y1005D01*
X2974Y1002D01*
X2986Y999D01*
X2997Y993D01*
X3005Y988D01*
X3011Y984D01*
X3014Y981D01*
X3016Y980D01*
X3025Y969D01*
X3031Y957D01*
X3036Y945D01*
X3040Y932D01*
X3041Y921D01*
X3042Y912D01*
X3043Y909D01*
Y906D01*
Y905D01*
Y904D01*
X3041Y888D01*
X3038Y871D01*
X3033Y856D01*
X3028Y843D01*
X3022Y831D01*
X3019Y826D01*
X3016Y822D01*
X3015Y819D01*
X3013Y816D01*
X3012Y815D01*
Y814D01*
X3007Y807D01*
X3000Y799D01*
X2992Y790D01*
X2983Y780D01*
X2974Y771D01*
X2963Y760D01*
X2942Y739D01*
X2932Y729D01*
X2923Y720D01*
X2914Y711D01*
X2905Y703D01*
X2899Y697D01*
X2894Y692D01*
X2891Y689D01*
X2890Y688D01*
X2867Y667D01*
X2847Y648D01*
X2828Y629D01*
X2812Y611D01*
X2797Y594D01*
X2783Y579D01*
X2771Y565D01*
X2761Y553D01*
X2752Y542D01*
X2743Y532D01*
X2737Y523D01*
X2732Y516D01*
X2728Y511D01*
X2726Y507D01*
X2725Y504D01*
X2724Y504D01*
X2716Y491D01*
X2710Y477D01*
X2699Y452D01*
X2690Y427D01*
X2686Y416D01*
X2683Y405D01*
X2681Y395D01*
X2679Y385D01*
X2677Y378D01*
X2677Y371D01*
X2675Y365D01*
Y361D01*
X2674Y358D01*
Y357D01*
X3190D01*
Y495D01*
X2898D01*
X2907Y509D01*
X2912Y516D01*
X2917Y522D01*
X2921Y528D01*
X2924Y531D01*
X2926Y534D01*
X2927Y535D01*
X2931Y540D01*
X2936Y545D01*
X2942Y551D01*
X2949Y558D01*
X2963Y571D01*
X2978Y585D01*
X2992Y599D01*
X2999Y604D01*
X3004Y609D01*
X3009Y614D01*
X3013Y617D01*
X3015Y619D01*
X3016Y620D01*
X3028Y632D01*
X3040Y642D01*
X3051Y653D01*
X3061Y662D01*
X3070Y671D01*
X3077Y679D01*
X3085Y687D01*
X3091Y693D01*
X3096Y699D01*
X3100Y704D01*
X3104Y708D01*
X3107Y712D01*
X3109Y714D01*
X3111Y717D01*
X3112Y717D01*
Y718D01*
X3127Y737D01*
X3139Y755D01*
X3149Y771D01*
X3157Y786D01*
X3163Y798D01*
X3166Y804D01*
X3168Y807D01*
X3169Y811D01*
X3171Y813D01*
X3172Y815D01*
Y816D01*
X3178Y834D01*
X3182Y851D01*
X3186Y867D01*
X3188Y883D01*
X3190Y896D01*
Y901D01*
X3190Y906D01*
Y915D01*
X3190Y931D01*
X3187Y948D01*
X3184Y963D01*
X3180Y977D01*
X3175Y990D01*
X3170Y1003D01*
X3164Y1015D01*
X3158Y1026D01*
X3151Y1035D01*
X3146Y1044D01*
X3140Y1050D01*
X3136Y1056D01*
X3131Y1062D01*
X3128Y1065D01*
X3126Y1067D01*
X3125Y1068D01*
X3112Y1078D01*
X3099Y1088D01*
X3085Y1096D01*
X3070Y1103D01*
X3055Y1109D01*
X3040Y1114D01*
X3025Y1118D01*
X3011Y1122D01*
X2998Y1124D01*
X2986Y1126D01*
X2975Y1128D01*
X2965Y1128D01*
X2958D01*
X2952Y1129D01*
D02*
G37*
%LPD*%
G36*
X926Y16752D02*
X854Y16774D01*
X926Y16796D01*
Y16752D01*
D02*
G37*
G36*
X275Y15795D02*
Y15890D01*
X415D01*
X275Y15795D01*
D02*
G37*
G36*
X524Y3166D02*
X417D01*
X424Y3166D01*
X432Y3167D01*
X439Y3168D01*
X446Y3170D01*
X452Y3171D01*
X454Y3171D01*
X456Y3172D01*
X458Y3172D01*
X459Y3173D01*
X460Y3173D01*
X460D01*
X466Y3175D01*
X471Y3177D01*
X476Y3180D01*
X481Y3183D01*
X484Y3185D01*
X487Y3188D01*
X489Y3189D01*
X489Y3189D01*
X490D01*
X495Y3194D01*
X499Y3199D01*
X503Y3203D01*
X506Y3208D01*
X508Y3211D01*
X510Y3214D01*
X511Y3216D01*
X511Y3216D01*
Y3216D01*
X514Y3222D01*
X516Y3228D01*
X518Y3234D01*
X519Y3240D01*
X520Y3245D01*
X520Y3247D01*
X521Y3249D01*
X521Y3251D01*
X521Y3252D01*
Y3253D01*
X522Y3261D01*
X523Y3268D01*
X523Y3275D01*
X524Y3281D01*
X524Y3286D01*
Y3166D01*
D02*
G37*
G36*
X405Y3044D02*
X411Y3044D01*
X417Y3043D01*
X422Y3042D01*
X427Y3041D01*
X432Y3039D01*
X435Y3038D01*
X439Y3037D01*
X442Y3035D01*
X444Y3034D01*
X446Y3033D01*
X447Y3032D01*
X448Y3032D01*
X449Y3031D01*
X449Y3031D01*
X452Y3028D01*
X454Y3025D01*
X457Y3022D01*
X458Y3019D01*
X461Y3013D01*
X463Y3006D01*
X464Y3001D01*
X465Y2998D01*
X465Y2996D01*
X465Y2995D01*
Y2992D01*
X465Y2988D01*
X465Y2983D01*
X463Y2976D01*
X460Y2969D01*
X457Y2964D01*
X454Y2959D01*
X451Y2956D01*
X450Y2955D01*
X449Y2954D01*
X449Y2954D01*
X449Y2953D01*
X445Y2951D01*
X442Y2949D01*
X437Y2947D01*
X433Y2945D01*
X424Y2943D01*
X415Y2941D01*
X411Y2941D01*
X407Y2940D01*
X403Y2940D01*
X400D01*
X397Y2939D01*
X395D01*
X394D01*
X393D01*
X387Y2940D01*
X380Y2940D01*
X374Y2941D01*
X369Y2941D01*
X364Y2942D01*
X359Y2944D01*
X355Y2945D01*
X351Y2946D01*
X348Y2948D01*
X345Y2949D01*
X343Y2950D01*
X341Y2951D01*
X340Y2952D01*
X339Y2953D01*
X338Y2953D01*
X338D01*
X335Y2956D01*
X332Y2959D01*
X330Y2962D01*
X328Y2965D01*
X325Y2972D01*
X323Y2978D01*
X322Y2983D01*
X322Y2985D01*
X321Y2987D01*
X321Y2989D01*
Y2991D01*
X321Y2996D01*
X322Y3000D01*
X324Y3008D01*
X326Y3014D01*
X329Y3020D01*
X332Y3024D01*
X334Y3026D01*
X335Y3028D01*
X336Y3029D01*
X337Y3030D01*
X337Y3030D01*
X338Y3030D01*
X341Y3033D01*
X344Y3035D01*
X353Y3039D01*
X361Y3042D01*
X370Y3043D01*
X374Y3044D01*
X378Y3044D01*
X381Y3045D01*
X384D01*
X387Y3045D01*
X388D01*
X390D01*
X390D01*
X398D01*
X405Y3044D01*
D02*
G37*
G36*
X1005Y2236D02*
X1004Y2238D01*
X1004Y2242D01*
X1004Y2247D01*
X1003Y2251D01*
X1003Y2256D01*
Y2258D01*
X1002Y2259D01*
X1002Y2261D01*
X1002Y2261D01*
Y2262D01*
X1001Y2268D01*
X1000Y2273D01*
X999Y2277D01*
X998Y2280D01*
X997Y2283D01*
X996Y2285D01*
X996Y2286D01*
X996Y2286D01*
X993Y2291D01*
X989Y2294D01*
X986Y2298D01*
X983Y2301D01*
X980Y2303D01*
X978Y2305D01*
X976Y2306D01*
X976Y2306D01*
X976D01*
X971Y2308D01*
X966Y2310D01*
X962Y2311D01*
X957Y2312D01*
X954Y2313D01*
X952Y2313D01*
X951Y2313D01*
X1005D01*
Y2236D01*
D02*
G37*
G36*
X944Y2251D02*
X947Y2250D01*
X950Y2249D01*
X952Y2248D01*
X954Y2247D01*
X955Y2245D01*
X956Y2245D01*
X956Y2245D01*
X958Y2242D01*
X959Y2238D01*
X960Y2234D01*
X961Y2231D01*
X961Y2227D01*
X962Y2225D01*
Y2191D01*
X921D01*
Y2222D01*
X922Y2228D01*
X922Y2232D01*
X923Y2236D01*
X924Y2239D01*
X925Y2242D01*
X926Y2243D01*
X926Y2244D01*
X927Y2245D01*
X929Y2247D01*
X931Y2248D01*
X934Y2249D01*
X936Y2250D01*
X938Y2251D01*
X940Y2251D01*
X940D01*
X941D01*
X944Y2251D01*
D02*
G37*
G36*
X867Y2243D02*
X870Y2242D01*
X873Y2241D01*
X875Y2240D01*
X876Y2239D01*
X877Y2238D01*
X878Y2238D01*
X878Y2237D01*
X880Y2235D01*
X881Y2232D01*
X882Y2229D01*
X882Y2225D01*
X883Y2222D01*
X883Y2220D01*
Y2191D01*
X846D01*
Y2218D01*
X846Y2223D01*
X846Y2227D01*
X847Y2230D01*
X848Y2233D01*
X849Y2235D01*
X850Y2236D01*
X850Y2237D01*
X850Y2237D01*
X852Y2239D01*
X855Y2241D01*
X857Y2242D01*
X859Y2243D01*
X861Y2243D01*
X863Y2243D01*
X864D01*
X864D01*
X867Y2243D01*
D02*
G37*
%LPC*%
G36*
X999Y4380D02*
D01*
X799Y4305D01*
Y4237D01*
X999Y4162D01*
D01*
Y4380D01*
D02*
G37*
%LPD*%
G36*
X922Y4248D02*
X851Y4270D01*
X922Y4292D01*
Y4248D01*
D02*
G37*
G36*
X999Y4225D02*
X966Y4235D01*
Y4305D01*
X999Y4315D01*
Y4225D01*
D02*
G37*
%LPC*%
G36*
X32687Y13465D02*
D01*
Y13333D01*
D01*
Y13354D01*
X32943Y13275D01*
X32687Y13195D01*
Y13214D01*
Y13080D01*
X33042D01*
D01*
X32687D01*
X33042Y13214D01*
Y13333D01*
X32687Y13465D01*
D02*
G37*
G36*
X32929Y13062D02*
X32925D01*
X32915Y13061D01*
X32906Y13060D01*
X32898Y13058D01*
X32890Y13056D01*
X32882Y13054D01*
X32875Y13051D01*
X32869Y13048D01*
X32863Y13045D01*
X32857Y13042D01*
X32853Y13039D01*
X32849Y13036D01*
X32846Y13034D01*
X32843Y13032D01*
X32841Y13030D01*
X32840Y13029D01*
X32839Y13029D01*
X32833Y13023D01*
X32828Y13016D01*
X32824Y13009D01*
X32820Y13003D01*
X32816Y12996D01*
X32814Y12989D01*
X32811Y12982D01*
X32810Y12976D01*
X32808Y12971D01*
X32807Y12965D01*
X32806Y12961D01*
X32806Y12956D01*
X32805Y12953D01*
Y12948D01*
X32806Y12940D01*
X32807Y12931D01*
X32808Y12924D01*
X32810Y12918D01*
X32811Y12912D01*
X32813Y12909D01*
X32814Y12906D01*
X32814Y12906D01*
Y12905D01*
X32818Y12898D01*
X32822Y12892D01*
X32826Y12886D01*
X32831Y12880D01*
X32835Y12876D01*
X32838Y12872D01*
X32840Y12870D01*
X32841Y12869D01*
X32830Y12870D01*
X32821Y12871D01*
X32813Y12872D01*
X32805Y12873D01*
X32798Y12874D01*
X32792Y12876D01*
X32787Y12877D01*
X32782Y12878D01*
X32778Y12879D01*
X32775Y12880D01*
X32772Y12881D01*
X32770Y12881D01*
X32768Y12882D01*
X32767Y12883D01*
X32766Y12883D01*
X32762Y12886D01*
X32758Y12889D01*
X32755Y12892D01*
X32752Y12895D01*
X32748Y12901D01*
X32745Y12907D01*
X32743Y12912D01*
X32742Y12917D01*
X32742Y12919D01*
Y12921D01*
X32742Y12926D01*
X32743Y12930D01*
X32744Y12933D01*
X32746Y12937D01*
X32748Y12940D01*
X32749Y12941D01*
X32750Y12943D01*
X32750Y12943D01*
X32754Y12946D01*
X32758Y12949D01*
X32763Y12951D01*
X32768Y12953D01*
X32772Y12954D01*
X32776Y12955D01*
X32778Y12956D01*
X32779D01*
X32779D01*
X32767Y13054D01*
X32757Y13051D01*
X32748Y13047D01*
X32739Y13042D01*
X32733Y13038D01*
X32727Y13035D01*
X32723Y13032D01*
X32721Y13030D01*
X32720Y13029D01*
X32713Y13023D01*
X32707Y13016D01*
X32702Y13009D01*
X32698Y13003D01*
X32695Y12997D01*
X32693Y12992D01*
X32692Y12991D01*
X32691Y12989D01*
X32691Y12989D01*
Y12988D01*
X32687Y12978D01*
X32685Y12968D01*
X32683Y12956D01*
X32682Y12946D01*
X32682Y12940D01*
X32681Y12936D01*
Y12932D01*
X32681Y12928D01*
Y12921D01*
X32681Y12908D01*
X32683Y12896D01*
X32685Y12885D01*
X32688Y12874D01*
X32691Y12864D01*
X32695Y12854D01*
X32699Y12846D01*
X32703Y12839D01*
X32707Y12832D01*
X32711Y12826D01*
X32715Y12821D01*
X32719Y12817D01*
X32721Y12814D01*
X32724Y12811D01*
X32725Y12810D01*
X32726Y12809D01*
X32735Y12802D01*
X32745Y12796D01*
X32756Y12791D01*
X32766Y12786D01*
X32778Y12782D01*
X32790Y12779D01*
X32801Y12776D01*
X32813Y12774D01*
X32824Y12773D01*
X32834Y12771D01*
X32843Y12770D01*
X32851Y12770D01*
X32857D01*
X32860Y12769D01*
X32681D01*
D01*
X33048D01*
Y12925D01*
X33047Y12941D01*
X33046Y12955D01*
X33044Y12962D01*
X33043Y12968D01*
X33042Y12973D01*
X33040Y12978D01*
X33039Y12983D01*
X33038Y12987D01*
X33037Y12990D01*
X33035Y12993D01*
X33034Y12996D01*
X33033Y12997D01*
X33033Y12998D01*
Y12999D01*
X33027Y13009D01*
X33020Y13018D01*
X33012Y13026D01*
X33005Y13033D01*
X32999Y13038D01*
X32994Y13042D01*
X32992Y13043D01*
X32991Y13044D01*
X32990Y13045D01*
X32989D01*
X32978Y13051D01*
X32967Y13055D01*
X32956Y13058D01*
X32947Y13059D01*
X32942Y13060D01*
X32938Y13061D01*
X32934Y13061D01*
X32931D01*
X32929Y13062D01*
D02*
G37*
G36*
X32869Y12727D02*
X32851D01*
X32839Y12726D01*
X32829Y12725D01*
X32818Y12724D01*
X32809Y12723D01*
X32801Y12721D01*
X32793Y12719D01*
X32785Y12718D01*
X32779Y12715D01*
X32773Y12714D01*
X32769Y12712D01*
X32765Y12711D01*
X32761Y12709D01*
X32759Y12708D01*
X32758Y12708D01*
X32757Y12708D01*
X32750Y12704D01*
X32743Y12700D01*
X32737Y12696D01*
X32731Y12691D01*
X32726Y12687D01*
X32721Y12683D01*
X32717Y12679D01*
X32713Y12675D01*
X32710Y12671D01*
X32707Y12667D01*
X32704Y12664D01*
X32703Y12661D01*
X32701Y12659D01*
X32700Y12657D01*
X32699Y12656D01*
Y12656D01*
X32696Y12650D01*
X32693Y12643D01*
X32689Y12629D01*
X32685Y12615D01*
X32683Y12601D01*
X32682Y12595D01*
X32682Y12589D01*
X32681Y12584D01*
Y12580D01*
X32681Y12576D01*
Y12727D01*
D01*
Y12434D01*
X33048D01*
D01*
X32804D01*
X32814Y12435D01*
X32823Y12436D01*
X32831Y12437D01*
X32839Y12440D01*
X32847Y12442D01*
X32854Y12445D01*
X32860Y12448D01*
X32867Y12451D01*
X32872Y12454D01*
X32876Y12457D01*
X32880Y12460D01*
X32884Y12462D01*
X32886Y12464D01*
X32888Y12466D01*
X32889Y12467D01*
X32890Y12467D01*
X32896Y12473D01*
X32901Y12480D01*
X32905Y12487D01*
X32909Y12493D01*
X32912Y12500D01*
X32915Y12507D01*
X32917Y12514D01*
X32919Y12520D01*
X32921Y12525D01*
X32922Y12531D01*
X32922Y12535D01*
X32923Y12540D01*
Y12543D01*
X32923Y12545D01*
Y12548D01*
X32923Y12556D01*
X32922Y12565D01*
X32921Y12572D01*
X32919Y12579D01*
X32918Y12583D01*
X32916Y12587D01*
X32915Y12590D01*
X32915Y12591D01*
X32912Y12598D01*
X32907Y12604D01*
X32903Y12611D01*
X32898Y12616D01*
X32894Y12621D01*
X32891Y12625D01*
X32889Y12627D01*
X32888Y12628D01*
X32898Y12627D01*
X32908Y12625D01*
X32916Y12624D01*
X32924Y12623D01*
X32931Y12622D01*
X32937Y12621D01*
X32943Y12619D01*
X32947Y12618D01*
X32951Y12617D01*
X32955Y12616D01*
X32957Y12615D01*
X32960Y12614D01*
X32961Y12614D01*
X32963Y12613D01*
X32963Y12613D01*
X32964D01*
X32967Y12610D01*
X32971Y12607D01*
X32974Y12604D01*
X32977Y12601D01*
X32981Y12595D01*
X32984Y12589D01*
X32986Y12584D01*
X32987Y12580D01*
X32987Y12578D01*
Y12576D01*
X32987Y12571D01*
X32986Y12566D01*
X32985Y12562D01*
X32983Y12559D01*
X32981Y12556D01*
X32980Y12554D01*
X32979Y12553D01*
X32979Y12552D01*
X32975Y12549D01*
X32971Y12547D01*
X32966Y12545D01*
X32961Y12543D01*
X32957Y12541D01*
X32953Y12541D01*
X32950Y12540D01*
X32950D01*
X32950D01*
X32962Y12442D01*
X32972Y12445D01*
X32981Y12449D01*
X32990Y12453D01*
X32996Y12457D01*
X33002Y12461D01*
X33006Y12464D01*
X33009Y12465D01*
X33009Y12466D01*
X33009D01*
X33016Y12473D01*
X33022Y12480D01*
X33027Y12486D01*
X33031Y12493D01*
X33034Y12499D01*
X33037Y12503D01*
X33037Y12505D01*
X33038Y12507D01*
X33038Y12507D01*
Y12507D01*
X33041Y12517D01*
X33044Y12528D01*
X33046Y12539D01*
X33047Y12550D01*
X33047Y12555D01*
X33047Y12559D01*
Y12564D01*
X33048Y12567D01*
Y12574D01*
X33047Y12587D01*
X33046Y12600D01*
X33044Y12611D01*
X33041Y12622D01*
X33037Y12632D01*
X33034Y12641D01*
X33030Y12650D01*
X33026Y12657D01*
X33021Y12664D01*
X33017Y12670D01*
X33014Y12675D01*
X33010Y12679D01*
X33007Y12682D01*
X33005Y12685D01*
X33004Y12686D01*
X33003Y12687D01*
X32995Y12694D01*
X32985Y12700D01*
X32974Y12705D01*
X32963Y12710D01*
X32951Y12714D01*
X32939Y12717D01*
X32928Y12720D01*
X32916Y12722D01*
X32905Y12724D01*
X32895Y12725D01*
X32886Y12726D01*
X32878Y12727D01*
X32872D01*
X32869Y12727D01*
D02*
G37*
G36*
X32950Y12406D02*
X32874D01*
Y12263D01*
X32950D01*
Y12406D01*
D02*
G37*
G36*
X33048Y12232D02*
X32681D01*
Y11942D01*
D01*
Y12081D01*
X32681Y12071D01*
X32682Y12062D01*
X32683Y12053D01*
X32684Y12045D01*
X32686Y12037D01*
X32688Y12030D01*
X32690Y12023D01*
X32692Y12018D01*
X32694Y12012D01*
X32696Y12007D01*
X32697Y12004D01*
X32699Y12000D01*
X32700Y11998D01*
X32702Y11996D01*
X32702Y11995D01*
X32703Y11994D01*
X32708Y11987D01*
X32714Y11981D01*
X32720Y11975D01*
X32726Y11970D01*
X32732Y11966D01*
X32738Y11963D01*
X32744Y11960D01*
X32750Y11958D01*
X32755Y11956D01*
X32760Y11955D01*
X32764Y11954D01*
X32768Y11954D01*
X32771Y11953D01*
X32773Y11953D01*
X32775D01*
X32776D01*
X32785Y11953D01*
X32794Y11955D01*
X32803Y11957D01*
X32810Y11960D01*
X32815Y11963D01*
X32820Y11965D01*
X32821Y11966D01*
X32822Y11967D01*
X32823Y11967D01*
X32823D01*
X32829Y11972D01*
X32834Y11977D01*
X32839Y11983D01*
X32843Y11988D01*
X32846Y11993D01*
X32849Y11997D01*
X32849Y11999D01*
X32850Y12000D01*
X32851Y12000D01*
Y12001D01*
X32856Y11990D01*
X32861Y11981D01*
X32867Y11973D01*
X32872Y11967D01*
X32877Y11962D01*
X32881Y11959D01*
X32884Y11957D01*
X32884Y11956D01*
X32885D01*
X32893Y11952D01*
X32902Y11948D01*
X32911Y11945D01*
X32919Y11944D01*
X32927Y11943D01*
X32930Y11942D01*
X32933D01*
X32935Y11942D01*
X32938D01*
X32950Y11943D01*
X32960Y11945D01*
X32970Y11947D01*
X32978Y11950D01*
X32985Y11952D01*
X32988Y11954D01*
X32991Y11955D01*
X32993Y11956D01*
X32994Y11957D01*
X32995Y11957D01*
X32995D01*
X33005Y11964D01*
X33012Y11971D01*
X33019Y11978D01*
X33025Y11986D01*
X33029Y11992D01*
X33031Y11995D01*
X33032Y11997D01*
X33033Y12000D01*
X33034Y12001D01*
X33035Y12002D01*
Y12002D01*
X33037Y12008D01*
X33039Y12014D01*
X33042Y12028D01*
X33045Y12042D01*
X33046Y12056D01*
X33047Y12063D01*
X33047Y12069D01*
X33047Y12074D01*
Y12079D01*
X33048Y12083D01*
Y12088D01*
X33047Y12099D01*
X33047Y12110D01*
X33046Y12119D01*
X33045Y12128D01*
X33044Y12135D01*
X33043Y12138D01*
X33043Y12140D01*
X33042Y12142D01*
Y12143D01*
X33042Y12144D01*
Y12145D01*
X33039Y12154D01*
X33037Y12163D01*
X33033Y12170D01*
X33031Y12177D01*
X33028Y12182D01*
X33026Y12186D01*
X33024Y12188D01*
X33024Y12189D01*
X33019Y12196D01*
X33013Y12201D01*
X33007Y12207D01*
X33001Y12211D01*
X32996Y12215D01*
X32992Y12217D01*
X32990Y12218D01*
X32989Y12219D01*
X32988Y12219D01*
X32988D01*
X32979Y12223D01*
X32971Y12226D01*
X32962Y12229D01*
X32954Y12230D01*
X32948Y12231D01*
X32945D01*
X32943Y12232D01*
X33048D01*
D01*
D02*
G37*
%LPD*%
G36*
X32938Y12968D02*
X32947Y12966D01*
X32955Y12964D01*
X32961Y12961D01*
X32966Y12959D01*
X32969Y12957D01*
X32971Y12955D01*
X32972Y12955D01*
X32977Y12950D01*
X32980Y12944D01*
X32983Y12939D01*
X32985Y12934D01*
X32985Y12930D01*
X32986Y12926D01*
X32986Y12923D01*
Y12923D01*
X32985Y12915D01*
X32984Y12908D01*
X32981Y12902D01*
X32978Y12897D01*
X32975Y12892D01*
X32973Y12889D01*
X32971Y12888D01*
X32970Y12887D01*
X32964Y12882D01*
X32956Y12878D01*
X32949Y12876D01*
X32942Y12874D01*
X32935Y12873D01*
X32930Y12873D01*
X32928Y12872D01*
X32926D01*
X32926D01*
X32925D01*
X32915Y12873D01*
X32906Y12874D01*
X32899Y12877D01*
X32893Y12879D01*
X32888Y12882D01*
X32884Y12884D01*
X32883Y12886D01*
X32882Y12886D01*
X32877Y12892D01*
X32873Y12898D01*
X32870Y12903D01*
X32868Y12909D01*
X32867Y12913D01*
X32867Y12917D01*
X32867Y12920D01*
Y12921D01*
X32867Y12928D01*
X32869Y12934D01*
X32871Y12940D01*
X32874Y12945D01*
X32877Y12949D01*
X32880Y12952D01*
X32881Y12954D01*
X32882Y12954D01*
X32889Y12959D01*
X32896Y12962D01*
X32904Y12965D01*
X32911Y12966D01*
X32918Y12967D01*
X32921Y12968D01*
X32923Y12968D01*
X32925D01*
X32927D01*
X32928D01*
X32928D01*
X32938Y12968D01*
D02*
G37*
G36*
X33048Y12769D02*
X32867D01*
X32878Y12770D01*
X32890Y12770D01*
X32901Y12771D01*
X32911Y12772D01*
X32920Y12774D01*
X32929Y12775D01*
X32936Y12777D01*
X32944Y12779D01*
X32950Y12781D01*
X32956Y12782D01*
X32960Y12784D01*
X32964Y12785D01*
X32968Y12787D01*
X32970Y12788D01*
X32971Y12788D01*
X32972D01*
X32979Y12792D01*
X32986Y12796D01*
X32992Y12800D01*
X32998Y12805D01*
X33003Y12809D01*
X33008Y12813D01*
X33012Y12817D01*
X33016Y12821D01*
X33019Y12825D01*
X33022Y12829D01*
X33024Y12832D01*
X33026Y12834D01*
X33028Y12836D01*
X33029Y12838D01*
X33030Y12839D01*
X33030Y12840D01*
X33033Y12846D01*
X33036Y12853D01*
X33040Y12867D01*
X33044Y12881D01*
X33046Y12895D01*
X33047Y12901D01*
X33047Y12907D01*
X33047Y12912D01*
Y12916D01*
X33048Y12920D01*
Y12769D01*
D02*
G37*
G36*
X32814Y12623D02*
X32822Y12621D01*
X32830Y12619D01*
X32836Y12617D01*
X32841Y12614D01*
X32844Y12612D01*
X32846Y12610D01*
X32847Y12610D01*
X32852Y12604D01*
X32856Y12599D01*
X32859Y12593D01*
X32860Y12587D01*
X32861Y12583D01*
X32862Y12579D01*
X32862Y12576D01*
Y12575D01*
X32861Y12568D01*
X32860Y12561D01*
X32857Y12555D01*
X32854Y12550D01*
X32852Y12546D01*
X32849Y12544D01*
X32847Y12541D01*
X32847Y12541D01*
X32840Y12537D01*
X32833Y12534D01*
X32825Y12531D01*
X32818Y12530D01*
X32811Y12529D01*
X32809Y12528D01*
X32806D01*
X32804Y12528D01*
X32803D01*
X32802D01*
X32801D01*
X32791Y12528D01*
X32782Y12530D01*
X32775Y12532D01*
X32768Y12534D01*
X32763Y12537D01*
X32760Y12539D01*
X32758Y12540D01*
X32757Y12541D01*
X32752Y12546D01*
X32749Y12551D01*
X32746Y12557D01*
X32744Y12562D01*
X32743Y12566D01*
X32742Y12570D01*
Y12573D01*
X32743Y12581D01*
X32745Y12588D01*
X32748Y12594D01*
X32751Y12599D01*
X32754Y12603D01*
X32756Y12606D01*
X32758Y12608D01*
X32759Y12609D01*
X32766Y12614D01*
X32773Y12618D01*
X32780Y12620D01*
X32787Y12622D01*
X32794Y12623D01*
X32799Y12624D01*
X32801D01*
X32803D01*
X32804D01*
X32804D01*
X32814Y12623D01*
D02*
G37*
G36*
X32681Y12555D02*
X32682Y12548D01*
X32683Y12541D01*
X32684Y12534D01*
X32686Y12528D01*
X32687Y12522D01*
X32688Y12517D01*
X32690Y12513D01*
X32691Y12509D01*
X32693Y12505D01*
X32693Y12502D01*
X32695Y12500D01*
X32695Y12498D01*
X32696Y12497D01*
Y12497D01*
X32702Y12486D01*
X32709Y12477D01*
X32717Y12469D01*
X32724Y12463D01*
X32730Y12458D01*
X32735Y12454D01*
X32737Y12453D01*
X32738Y12452D01*
X32739Y12451D01*
X32740D01*
X32751Y12445D01*
X32762Y12441D01*
X32773Y12438D01*
X32783Y12437D01*
X32787Y12436D01*
X32791Y12435D01*
X32795Y12435D01*
X32798D01*
X32801Y12434D01*
X32681D01*
Y12571D01*
X32681Y12555D01*
D02*
G37*
G36*
X32928Y12231D02*
X32919Y12229D01*
X32910Y12227D01*
X32902Y12225D01*
X32896Y12222D01*
X32891Y12219D01*
X32890Y12219D01*
X32888Y12218D01*
X32888Y12217D01*
X32887D01*
X32879Y12212D01*
X32872Y12205D01*
X32866Y12198D01*
X32860Y12191D01*
X32856Y12184D01*
X32853Y12179D01*
X32852Y12177D01*
X32851Y12176D01*
X32851Y12175D01*
Y12174D01*
X32846Y12182D01*
X32840Y12188D01*
X32835Y12194D01*
X32831Y12198D01*
X32827Y12202D01*
X32824Y12205D01*
X32822Y12206D01*
X32821Y12206D01*
X32813Y12211D01*
X32805Y12214D01*
X32797Y12216D01*
X32790Y12218D01*
X32785Y12219D01*
X32780Y12220D01*
X32778D01*
X32777D01*
X32777D01*
X32776D01*
X32769Y12219D01*
X32761Y12219D01*
X32755Y12217D01*
X32748Y12215D01*
X32742Y12212D01*
X32736Y12209D01*
X32731Y12206D01*
X32727Y12203D01*
X32722Y12200D01*
X32719Y12197D01*
X32715Y12194D01*
X32713Y12191D01*
X32711Y12189D01*
X32709Y12187D01*
X32708Y12186D01*
X32708Y12186D01*
X32703Y12179D01*
X32699Y12171D01*
X32695Y12163D01*
X32692Y12155D01*
X32690Y12146D01*
X32687Y12138D01*
X32684Y12121D01*
X32683Y12112D01*
X32682Y12105D01*
X32682Y12098D01*
X32681Y12093D01*
X32681Y12087D01*
Y12232D01*
X32938D01*
X32928Y12231D01*
D02*
G37*
G36*
X32789Y12125D02*
X32794Y12124D01*
X32799Y12122D01*
X32803Y12121D01*
X32807Y12118D01*
X32809Y12117D01*
X32811Y12115D01*
X32811Y12115D01*
X32815Y12111D01*
X32817Y12106D01*
X32819Y12101D01*
X32821Y12097D01*
X32822Y12093D01*
X32822Y12090D01*
Y12087D01*
X32822Y12080D01*
X32820Y12074D01*
X32818Y12069D01*
X32816Y12065D01*
X32815Y12062D01*
X32813Y12059D01*
X32811Y12057D01*
X32811Y12057D01*
X32807Y12053D01*
X32801Y12050D01*
X32797Y12048D01*
X32792Y12047D01*
X32788Y12046D01*
X32784Y12045D01*
X32782D01*
X32781D01*
X32775Y12046D01*
X32769Y12047D01*
X32764Y12049D01*
X32760Y12051D01*
X32756Y12053D01*
X32754Y12055D01*
X32752Y12056D01*
X32752Y12056D01*
X32748Y12061D01*
X32745Y12066D01*
X32743Y12071D01*
X32742Y12075D01*
X32741Y12080D01*
X32741Y12083D01*
Y12086D01*
X32741Y12092D01*
X32742Y12097D01*
X32745Y12102D01*
X32746Y12107D01*
X32749Y12110D01*
X32751Y12112D01*
X32752Y12114D01*
X32752Y12115D01*
X32757Y12118D01*
X32762Y12121D01*
X32767Y12123D01*
X32772Y12125D01*
X32776Y12125D01*
X32779Y12126D01*
X32781D01*
X32782D01*
X32789Y12125D01*
D02*
G37*
G36*
X32942Y12132D02*
X32950Y12130D01*
X32956Y12128D01*
X32962Y12125D01*
X32966Y12123D01*
X32970Y12121D01*
X32971Y12119D01*
X32972Y12118D01*
X32977Y12113D01*
X32981Y12108D01*
X32984Y12102D01*
X32985Y12097D01*
X32986Y12093D01*
X32987Y12090D01*
X32987Y12087D01*
Y12087D01*
X32987Y12080D01*
X32985Y12074D01*
X32982Y12069D01*
X32980Y12064D01*
X32977Y12060D01*
X32974Y12057D01*
X32973Y12055D01*
X32972Y12054D01*
X32966Y12049D01*
X32960Y12046D01*
X32953Y12044D01*
X32948Y12042D01*
X32943Y12041D01*
X32938Y12041D01*
X32936Y12040D01*
X32935D01*
X32935D01*
X32934D01*
X32926Y12041D01*
X32918Y12042D01*
X32911Y12045D01*
X32905Y12047D01*
X32901Y12049D01*
X32898Y12052D01*
X32895Y12053D01*
X32895Y12054D01*
X32890Y12059D01*
X32886Y12065D01*
X32884Y12070D01*
X32882Y12075D01*
X32881Y12079D01*
X32880Y12083D01*
Y12086D01*
X32881Y12092D01*
X32882Y12098D01*
X32885Y12104D01*
X32887Y12109D01*
X32891Y12113D01*
X32893Y12115D01*
X32894Y12118D01*
X32895Y12118D01*
X32901Y12123D01*
X32908Y12126D01*
X32914Y12129D01*
X32920Y12131D01*
X32926Y12132D01*
X32930Y12132D01*
X32932D01*
X32933D01*
X32933D01*
X32934D01*
X32942Y12132D01*
D02*
G37*
%LPC*%
G36*
X1333Y6929D02*
X1178D01*
Y6842D01*
Y6894D01*
X1183Y6891D01*
X1188Y6888D01*
X1192Y6885D01*
X1196Y6882D01*
X1198Y6879D01*
X1200Y6878D01*
X1201Y6877D01*
X1201Y6876D01*
X1202Y6876D01*
X1202Y6875D01*
X1202Y6875D01*
X1204Y6873D01*
X1206Y6870D01*
X1209Y6865D01*
X1212Y6859D01*
X1214Y6854D01*
X1216Y6852D01*
X1216Y6849D01*
X1217Y6847D01*
X1218Y6845D01*
X1218Y6844D01*
X1219Y6843D01*
X1219Y6842D01*
Y6842D01*
X1178D01*
X1333D01*
Y6929D01*
D02*
G37*
%LPD*%
G36*
Y6842D02*
X1253D01*
X1252Y6847D01*
X1250Y6852D01*
X1249Y6856D01*
X1247Y6859D01*
X1246Y6862D01*
X1246Y6863D01*
X1245Y6864D01*
X1245Y6865D01*
X1244Y6866D01*
X1244Y6866D01*
Y6866D01*
X1242Y6870D01*
X1240Y6873D01*
X1238Y6877D01*
X1236Y6880D01*
X1234Y6882D01*
X1233Y6884D01*
X1232Y6885D01*
X1232Y6886D01*
X1232Y6886D01*
Y6886D01*
X1333D01*
Y6842D01*
D02*
G37*
D10*
X18641Y6758D02*
G03*
X18641Y6758I-49J0D01*
G01*
D11*
X1683Y19150D02*
G03*
X155Y17623I0J-1527D01*
G01*
X148Y2681D02*
G03*
X155Y2688I0J7D01*
G01*
X148Y1555D02*
G03*
X1572Y131I1423J0D01*
G01*
X31150Y4900D02*
Y5500D01*
X32700D01*
X1683Y19150D02*
X3350D01*
X155Y2688D02*
Y17623D01*
X148Y1555D02*
Y2681D01*
X1572Y131D02*
X2548D01*
X200Y18000D02*
X1050Y18850D01*
X200Y17791D02*
Y18000D01*
X1550Y250D02*
X1678Y122D01*
X2671Y171D02*
X2760D01*
X2027Y146D02*
X2646D01*
X1678Y122D02*
X31396Y122D01*
X33237Y5487D02*
X33300Y5550D01*
X33237Y1500D02*
X33750D01*
X33237D02*
Y5487D01*
X33300Y5550D02*
X33350Y5600D01*
Y8950D01*
X33550Y9150D01*
Y11450D01*
X33250Y11750D02*
X33550Y11450D01*
X33250Y11750D02*
Y14850D01*
X33350Y14950D01*
Y17750D01*
X33750D01*
X33750Y1500D01*
X3838Y262D02*
X32538D01*
X3831Y269D02*
X3838Y262D01*
X3856Y18556D02*
Y18985D01*
X3850Y18550D02*
X3856Y18556D01*
X27800Y18850D02*
X28900D01*
X3870Y19000D02*
X32450D01*
X1125Y18925D02*
X3856D01*
X3870Y18820D02*
Y19000D01*
X1200D02*
X3870D01*
X1050Y18850D02*
X1200Y19000D01*
X3838Y262D02*
Y722D01*
X196Y1155D02*
Y1261D01*
Y1155D02*
X1082Y269D01*
X3831D01*
X3800Y17850D02*
Y18800D01*
X3870Y17791D02*
Y18820D01*
X3841Y18850D02*
X3870Y18820D01*
X1050Y18850D02*
X3841D01*
X205Y9451D02*
X3866D01*
X196Y9442D02*
X205Y9451D01*
X196Y1261D02*
Y9442D01*
Y1261D02*
X205Y1270D01*
X3866D01*
Y550D02*
Y9451D01*
X3870Y9609D02*
Y17791D01*
X209Y9609D02*
X3870D01*
X200Y9600D02*
X209Y9609D01*
X200Y9600D02*
Y17781D01*
X209Y17791D01*
X200D02*
X3870D01*
X10500Y4600D02*
X10600D01*
X29850Y15050D02*
X33150D01*
X29850D02*
Y17750D01*
X32750D01*
X4400Y4600D02*
X10500D01*
X4400D02*
Y14762D01*
X10600D01*
X29337Y2353D02*
X32737D01*
X29337Y853D02*
Y2353D01*
Y853D02*
X32687D01*
X29350Y2500D02*
X32700D01*
X29350D02*
Y4000D01*
X32750D01*
X31145Y4746D02*
X32695D01*
X31145Y4146D02*
Y4746D01*
Y4146D02*
X32695D01*
X31150Y4900D02*
X32700D01*
D12*
X2689Y9687D02*
G03*
X2689Y9687I-39J0D01*
G01*
X5265Y4493D02*
G03*
X5265Y4493I-39J0D01*
G01*
X2689Y17987D02*
G03*
X2689Y17987I-39J0D01*
G01*
X28441Y14450D02*
G03*
X28441Y14450I-39J0D01*
G01*
X27858Y15516D02*
G03*
X27858Y15516I-39J0D01*
G01*
X29266Y1600D02*
G03*
X29266Y1600I-39J0D01*
G01*
X31439Y11413D02*
G03*
X31439Y11413I-39J0D01*
G01*
X33013Y15400D02*
G03*
X33013Y15400I-39J0D01*
G01*
X21199Y3507D02*
G03*
X21199Y3507I-39J0D01*
G01*
X31439Y9013D02*
G03*
X31439Y9013I-39J0D01*
G01*
X19096Y8819D02*
G03*
X19096Y8819I-39J0D01*
G01*
X31439Y5563D02*
G03*
X31439Y5563I-39J0D01*
G01*
X29266Y3250D02*
G03*
X29266Y3250I-39J0D01*
G01*
X13900Y13521D02*
Y13679D01*
X13400Y13521D02*
Y13679D01*
X19621Y10700D02*
X19779D01*
X19621Y11200D02*
X19779D01*
X12735Y6797D02*
X17972D01*
X12735D02*
Y12033D01*
X17972D01*
Y6797D02*
Y12033D01*
X20050Y11971D02*
Y12129D01*
X19550Y11971D02*
Y12129D01*
X19521Y8200D02*
X19678D01*
X19521Y8700D02*
X19678D01*
X19400Y11971D02*
Y12128D01*
X18900Y11971D02*
Y12128D01*
X22871Y12750D02*
X23029D01*
X22871Y13250D02*
X23029D01*
X19521Y7400D02*
X19679D01*
X19521Y6900D02*
X19679D01*
X28071Y10750D02*
X28229D01*
X28071Y11250D02*
X28229D01*
X23371Y4950D02*
X23529D01*
X23371Y4450D02*
X23529D01*
X21950Y17021D02*
Y17179D01*
X22450Y17021D02*
Y17179D01*
X19521Y6750D02*
X19679D01*
X19521Y6250D02*
X19679D01*
X17800Y13521D02*
Y13679D01*
X17300Y13521D02*
Y13679D01*
X23371Y4300D02*
X23529D01*
X23371Y3800D02*
X23529D01*
X12700Y13521D02*
Y13679D01*
X13200Y13521D02*
Y13679D01*
X19421Y9950D02*
X19579D01*
X19421Y10450D02*
X19579D01*
X28071Y10100D02*
X28229D01*
X28071Y10600D02*
X28229D01*
X21171Y12800D02*
X21329D01*
X21171Y13300D02*
X21329D01*
X26550Y16371D02*
Y16528D01*
X26050Y16371D02*
Y16528D01*
X21171Y11500D02*
X21329D01*
X21171Y12000D02*
X21329D01*
X11200Y6721D02*
Y6879D01*
X10700Y6721D02*
Y6879D01*
X18421Y6000D02*
X18579D01*
X18421Y5500D02*
X18579D01*
X28471Y2050D02*
X28629D01*
X28471Y1550D02*
X28629D01*
X28471Y900D02*
X28629D01*
X28471Y1400D02*
X28629D01*
X29056Y12252D02*
X29844Y12252D01*
X30001Y11534D02*
Y13266D01*
X29883D02*
X30001D01*
X28899Y11534D02*
X29017D01*
X28899D02*
Y13266D01*
X29017D01*
X29883Y11534D02*
X30001D01*
X11400Y6271D02*
Y6429D01*
X11900Y6271D02*
Y6429D01*
X21150Y17021D02*
Y17179D01*
X21650Y17021D02*
Y17179D01*
X24871Y3350D02*
X25029D01*
X24871Y2850D02*
X25029D01*
X31812Y4204D02*
X32088D01*
X31812Y4696D02*
X32088D01*
X20921Y9300D02*
X21079D01*
X20921Y9800D02*
X21079D01*
X28471Y3800D02*
X28629D01*
X28471Y3300D02*
X28629D01*
X21721Y15750D02*
X21879D01*
X21721Y16250D02*
X21879D01*
X28471Y2700D02*
X28629D01*
X28471Y3200D02*
X28629D01*
X30271Y4700D02*
X30429D01*
X30271Y4200D02*
X30429D01*
X20921Y8700D02*
X21079D01*
X20921Y9200D02*
X21079D01*
X21921Y4300D02*
X22079D01*
X21921Y3800D02*
X22079D01*
X23906Y14502D02*
X24694Y14502D01*
X24851Y13784D02*
Y15516D01*
X24733D02*
X24851D01*
X23749Y13784D02*
X23867D01*
X23749D02*
Y15516D01*
X23867D01*
X24733Y13784D02*
X24851D01*
X19521Y8050D02*
X19679D01*
X19521Y7550D02*
X19679D01*
X25821Y9800D02*
X25979D01*
X25821Y9300D02*
X25979D01*
X24871Y2650D02*
X25029D01*
X24871Y2150D02*
X25029D01*
X31812Y5446D02*
X32088D01*
X31812Y4954D02*
X32088D01*
X25822Y7950D02*
X25979D01*
X25822Y8450D02*
X25979D01*
X21171Y12150D02*
X21329D01*
X21171Y12650D02*
X21329D01*
X24171Y10300D02*
X24329D01*
X24171Y9800D02*
X24329D01*
X24171Y11000D02*
X24329D01*
X24171Y10500D02*
X24329D01*
X25821Y8600D02*
X25979D01*
X25821Y9100D02*
X25979D01*
D13*
X23912Y7255D02*
G03*
X23912Y7255I-39J0D01*
G01*
X1430Y9491D02*
X3870D01*
Y1309D02*
Y9491D01*
X1430Y1309D02*
X3870D01*
X1430D02*
Y9491D01*
X6184Y4700D02*
Y14700D01*
X6578D01*
Y4700D02*
Y14700D01*
X6184Y4700D02*
X6578D01*
X1430Y9609D02*
Y17791D01*
Y9609D02*
X3870D01*
Y17791D01*
X1430D02*
X3870D01*
X28650Y14863D02*
X30150D01*
X28650Y14037D02*
X30150D01*
Y14117D01*
Y14783D02*
Y14863D01*
X28650Y14037D02*
Y14117D01*
Y14783D02*
Y14863D01*
X28791Y18449D02*
X29649D01*
X27051D02*
X27909D01*
X28791Y15851D02*
X29256D01*
X27444D02*
X27909D01*
X27051Y16244D02*
X27444Y15851D01*
X27051Y16244D02*
Y18449D01*
X29649Y16244D02*
Y18449D01*
X29256Y15851D02*
X29649Y16244D01*
X29719Y2289D02*
X32081D01*
Y1999D02*
Y2289D01*
Y911D02*
Y1201D01*
X29719Y911D02*
X32081D01*
X29719D02*
Y1201D01*
Y1999D02*
Y2289D01*
X32620Y13543D02*
Y13791D01*
Y12543D02*
Y12857D01*
Y11609D02*
Y11857D01*
X30180Y11609D02*
X32620D01*
X30180D02*
Y13791D01*
X32620D01*
X29954Y8098D02*
Y9802D01*
X28946Y8098D02*
Y9802D01*
Y8098D02*
X29029D01*
X29871D02*
X29954D01*
X28946Y9802D02*
X29029D01*
X29871D02*
X29954D01*
X28946Y5315D02*
Y7020D01*
X29954Y5315D02*
Y7020D01*
X29871D02*
X29954D01*
X28946D02*
X29029D01*
X29871Y5315D02*
X29954D01*
X28946D02*
X29029D01*
X31131Y17650D02*
X31469D01*
X31131Y15150D02*
X31469D01*
X21983Y1606D02*
X23517D01*
X21983Y3594D02*
X23517D01*
X22593Y6920D02*
Y9480D01*
X24207D01*
Y6920D02*
Y9480D01*
X22593Y6920D02*
X24207D01*
X32620Y11143D02*
Y11391D01*
Y10143D02*
Y10457D01*
Y9209D02*
Y9457D01*
X30180Y9209D02*
X32620D01*
X30180D02*
Y11391D01*
X32620D01*
Y8693D02*
Y8941D01*
Y7693D02*
Y8007D01*
Y6693D02*
Y7007D01*
Y5759D02*
Y6007D01*
X30180Y5759D02*
X32620D01*
X30180D02*
Y8941D01*
X32620D01*
X29719Y3939D02*
X32081D01*
Y3649D02*
Y3939D01*
Y2561D02*
Y2851D01*
X29719Y2561D02*
X32081D01*
X29719D02*
Y2851D01*
Y3649D02*
Y3939D01*
X27327Y15248D02*
X27799D01*
X27327Y12472D02*
X27799D01*
Y15248D01*
X25201Y12472D02*
X25673D01*
X25201Y15228D02*
X25673D01*
X25201Y12472D02*
Y15228D01*
D14*
X23971Y7255D02*
G03*
X23971Y7255I-98J0D01*
G01*
X24896Y6861D02*
G03*
X24896Y6861I-39J0D01*
G01*
D15*
X1577Y19294D02*
G03*
X3Y17719I0J-1575D01*
G01*
X33861D02*
G03*
X32286Y19294I-1575J0D01*
G01*
X3Y1577D02*
G03*
X1577Y3I1575J0D01*
G01*
Y19294D02*
G03*
X3Y17719I0J-1575D01*
G01*
X33861D02*
G03*
X32286Y19294I-1575J0D01*
G01*
X3Y1577D02*
G03*
X1577Y3I1575J0D01*
G01*
Y19294D02*
G03*
X3Y17719I0J-1575D01*
G01*
X33861D02*
G03*
X32286Y19294I-1575J0D01*
G01*
X3Y1577D02*
G03*
X1577Y3I1575J0D01*
G01*
Y19294D02*
G03*
X3Y17719I0J-1575D01*
G01*
X33861D02*
G03*
X32286Y19294I-1575J0D01*
G01*
X3Y1577D02*
G03*
X1577Y3I1575J0D01*
G01*
X3Y1577D02*
G03*
X1577Y3I1575J0D01*
G01*
Y19294D02*
G03*
X3Y17719I0J-1575D01*
G01*
X1577Y19294D02*
X32286D01*
X3Y1577D02*
Y17719D01*
X1577Y19294D02*
X32286D01*
X3Y1577D02*
Y17719D01*
X1577Y19294D02*
X32286D01*
X3Y1577D02*
Y17719D01*
X1577Y19294D02*
X32286D01*
X3Y1577D02*
Y17719D01*
Y1577D02*
Y17719D01*
X1577Y19294D02*
X32286D01*
D16*
X8100Y7600D02*
X10600D01*
X8100Y7400D02*
X10600D01*
X8100Y8000D02*
X10600D01*
X8100Y7800D02*
X10600D01*
X8100Y7000D02*
X10600D01*
X8100Y6800D02*
X10600D01*
X8100Y7200D02*
X10600D01*
X8100Y9000D02*
X10600D01*
X8100Y8800D02*
X10600D01*
X8100Y14750D02*
X10600D01*
X8100Y9200D02*
X10600D01*
X8100Y8400D02*
X10600D01*
X8100Y8200D02*
X10600D01*
X8100Y8600D02*
X10600D01*
X8100Y5200D02*
X10600D01*
Y4650D02*
Y14750D01*
X8100Y5600D02*
X10600D01*
X8100Y5400D02*
X10600D01*
X8100Y4800D02*
X10600D01*
X8100Y4650D02*
X10600D01*
X8100Y5000D02*
X10600D01*
X8100Y6600D02*
X10600D01*
X8100Y6400D02*
X10600D01*
X8100Y4650D02*
Y14750D01*
Y6000D02*
X10600D01*
X8100Y5800D02*
X10600D01*
X8100Y6200D02*
X10600D01*
X8100Y12800D02*
X10600D01*
X8100Y12600D02*
X10600D01*
X8100Y13200D02*
X10600D01*
X8100Y13000D02*
X10600D01*
X8100Y12200D02*
X10600D01*
X8100Y12000D02*
X10600D01*
X8100Y12400D02*
X10600D01*
X8100Y14200D02*
X10600D01*
X8100Y14000D02*
X10600D01*
X8100Y14600D02*
X10600D01*
X8100Y14400D02*
X10600D01*
X8100Y13600D02*
X10600D01*
X8100Y13400D02*
X10600D01*
X8100Y13800D02*
X10600D01*
X8100Y10200D02*
X10600D01*
X8100Y10000D02*
X10600D01*
X8100Y10600D02*
X10600D01*
X8100Y10400D02*
X10600D01*
X8100Y9600D02*
X10600D01*
X8100Y9400D02*
X10600D01*
X8100Y9800D02*
X10600D01*
X8100Y11600D02*
X10600D01*
X8100Y11400D02*
X10600D01*
X8100Y11800D02*
X10600D01*
X8100Y11000D02*
X10600D01*
X8100Y10800D02*
X10600D01*
X8100Y11200D02*
X10600D01*
D17*
X22575Y4400D02*
X22725D01*
Y4550D01*
X22475Y4650D02*
X22725Y4400D01*
D18*
X20582Y15626D02*
X21182D01*
D19*
X30083Y5125D02*
Y4875D01*
X30250D01*
X30500Y5125D02*
X30333D01*
Y4875D01*
X30500D01*
X30333Y5000D02*
X30417D01*
X30583Y5125D02*
Y4875D01*
X30708D01*
X30750Y4917D01*
Y5083D01*
X30708Y5125D01*
X30583D01*
X30833Y4875D02*
X30917D01*
X30875D01*
Y5125D01*
X30833Y5083D01*
X28208Y15025D02*
X28125D01*
X28167D01*
Y14817D01*
X28125Y14775D01*
X28083D01*
X28042Y14817D01*
X28292Y14983D02*
X28333Y15025D01*
X28417D01*
X28458Y14983D01*
Y14942D01*
X28417Y14900D01*
X28458Y14858D01*
Y14817D01*
X28417Y14775D01*
X28333D01*
X28292Y14817D01*
Y14858D01*
X28333Y14900D01*
X28292Y14942D01*
Y14983D01*
X28333Y14900D02*
X28417D01*
X19283Y8725D02*
Y8683D01*
X19367Y8600D01*
X19450Y8683D01*
Y8725D01*
X19367Y8600D02*
Y8475D01*
X19533D02*
X19617D01*
X19575D01*
Y8725D01*
X19533Y8683D01*
X28192Y7025D02*
Y6775D01*
X28317D01*
X28358Y6817D01*
Y6983D01*
X28317Y7025D01*
X28192D01*
X28608Y6775D02*
X28442D01*
X28608Y6942D01*
Y6983D01*
X28567Y7025D01*
X28483D01*
X28442Y6983D01*
X28333Y9025D02*
Y8775D01*
X28458D01*
X28500Y8817D01*
Y8983D01*
X28458Y9025D01*
X28333D01*
X28583Y8775D02*
X28667D01*
X28625D01*
Y9025D01*
X28583Y8983D01*
X22692Y10025D02*
Y9817D01*
X22733Y9775D01*
X22817D01*
X22858Y9817D01*
Y10025D01*
X23108Y9775D02*
X22942D01*
X23108Y9942D01*
Y9983D01*
X23067Y10025D01*
X22983D01*
X22942Y9983D01*
X20733Y2075D02*
Y1867D01*
X20775Y1825D01*
X20858D01*
X20900Y1867D01*
Y2075D01*
X20983Y1825D02*
X21067D01*
X21025D01*
Y2075D01*
X20983Y2033D01*
X28858Y4233D02*
X28817Y4275D01*
X28733D01*
X28692Y4233D01*
Y4192D01*
X28733Y4150D01*
X28817D01*
X28858Y4108D01*
Y4067D01*
X28817Y4025D01*
X28733D01*
X28692Y4067D01*
X29108Y4025D02*
X28942D01*
X29108Y4192D01*
Y4233D01*
X29067Y4275D01*
X28983D01*
X28942Y4233D01*
X28950Y2433D02*
X28908Y2475D01*
X28825D01*
X28783Y2433D01*
Y2392D01*
X28825Y2350D01*
X28908D01*
X28950Y2308D01*
Y2267D01*
X28908Y2225D01*
X28825D01*
X28783Y2267D01*
X29033Y2225D02*
X29117D01*
X29075D01*
Y2475D01*
X29033Y2433D01*
X25652Y10315D02*
Y10565D01*
X25777D01*
X25818Y10523D01*
Y10440D01*
X25777Y10398D01*
X25652D01*
X25735D02*
X25818Y10315D01*
X25901Y10357D02*
X25943Y10315D01*
X26026D01*
X26068Y10357D01*
Y10523D01*
X26026Y10565D01*
X25943D01*
X25901Y10523D01*
Y10482D01*
X25943Y10440D01*
X26068D01*
X29092Y4475D02*
Y4725D01*
X29217D01*
X29258Y4683D01*
Y4600D01*
X29217Y4558D01*
X29092D01*
X29175D02*
X29258Y4475D01*
X29342Y4683D02*
X29383Y4725D01*
X29467D01*
X29508Y4683D01*
Y4642D01*
X29467Y4600D01*
X29508Y4558D01*
Y4517D01*
X29467Y4475D01*
X29383D01*
X29342Y4517D01*
Y4558D01*
X29383Y4600D01*
X29342Y4642D01*
Y4683D01*
X29383Y4600D02*
X29467D01*
X27292Y2825D02*
Y3075D01*
X27417D01*
X27458Y3033D01*
Y2950D01*
X27417Y2908D01*
X27292D01*
X27375D02*
X27458Y2825D01*
X27542Y3075D02*
X27708D01*
Y3033D01*
X27542Y2867D01*
Y2825D01*
X27342Y1025D02*
Y1275D01*
X27467D01*
X27508Y1233D01*
Y1150D01*
X27467Y1108D01*
X27342D01*
X27425D02*
X27508Y1025D01*
X27758Y1275D02*
X27675Y1233D01*
X27592Y1150D01*
Y1067D01*
X27633Y1025D01*
X27717D01*
X27758Y1067D01*
Y1108D01*
X27717Y1150D01*
X27592D01*
X25742Y3025D02*
Y3275D01*
X25867D01*
X25908Y3233D01*
Y3150D01*
X25867Y3108D01*
X25742D01*
X25825D02*
X25908Y3025D01*
X26158Y3275D02*
X25992D01*
Y3150D01*
X26075Y3192D01*
X26117D01*
X26158Y3150D01*
Y3067D01*
X26117Y3025D01*
X26033D01*
X25992Y3067D01*
X25742Y2325D02*
Y2575D01*
X25867D01*
X25908Y2533D01*
Y2450D01*
X25867Y2408D01*
X25742D01*
X25825D02*
X25908Y2325D01*
X26117D02*
Y2575D01*
X25992Y2450D01*
X26158D01*
X20792Y4025D02*
Y4275D01*
X20917D01*
X20958Y4233D01*
Y4150D01*
X20917Y4108D01*
X20792D01*
X20875D02*
X20958Y4025D01*
X21042Y4233D02*
X21083Y4275D01*
X21167D01*
X21208Y4233D01*
Y4192D01*
X21167Y4150D01*
X21125D01*
X21167D01*
X21208Y4108D01*
Y4067D01*
X21167Y4025D01*
X21083D01*
X21042Y4067D01*
X22692Y15825D02*
Y16075D01*
X22817D01*
X22858Y16033D01*
Y15950D01*
X22817Y15908D01*
X22692D01*
X22775D02*
X22858Y15825D01*
X23108D02*
X22942D01*
X23108Y15992D01*
Y16033D01*
X23067Y16075D01*
X22983D01*
X22942Y16033D01*
X20633Y17425D02*
Y17675D01*
X20758D01*
X20800Y17633D01*
Y17550D01*
X20758Y17508D01*
X20633D01*
X20717D02*
X20800Y17425D01*
X20883D02*
X20967D01*
X20925D01*
Y17675D01*
X20883Y17633D01*
X30092Y5575D02*
Y5325D01*
X30258D01*
X30508Y5575D02*
X30342D01*
Y5325D01*
X30508D01*
X30342Y5450D02*
X30425D01*
X30592Y5575D02*
Y5325D01*
X30717D01*
X30758Y5367D01*
Y5533D01*
X30717Y5575D01*
X30592D01*
X31008Y5325D02*
X30842D01*
X31008Y5492D01*
Y5533D01*
X30967Y5575D01*
X30883D01*
X30842Y5533D01*
X25423Y16335D02*
Y16085D01*
X25590D01*
X25673D02*
X25756D01*
X25715D01*
Y16335D01*
X25673Y16293D01*
X29858Y10875D02*
X29775D01*
X29817D01*
Y10667D01*
X29775Y10625D01*
X29733D01*
X29692Y10667D01*
X29942Y10875D02*
X30108D01*
Y10833D01*
X29942Y10667D01*
Y10625D01*
X32258Y14175D02*
X32175D01*
X32217D01*
Y13967D01*
X32175Y13925D01*
X32133D01*
X32092Y13967D01*
X32508Y14175D02*
X32342D01*
Y14050D01*
X32425Y14092D01*
X32467D01*
X32508Y14050D01*
Y13967D01*
X32467Y13925D01*
X32383D01*
X32342Y13967D01*
X31258Y18175D02*
X31175D01*
X31217D01*
Y17967D01*
X31175Y17925D01*
X31133D01*
X31092Y17967D01*
X31342Y18133D02*
X31383Y18175D01*
X31467D01*
X31508Y18133D01*
Y18092D01*
X31467Y18050D01*
X31425D01*
X31467D01*
X31508Y18008D01*
Y17967D01*
X31467Y17925D01*
X31383D01*
X31342Y17967D01*
X29900Y7675D02*
X29817D01*
X29858D01*
Y7467D01*
X29817Y7425D01*
X29775D01*
X29733Y7467D01*
X29983Y7425D02*
X30067D01*
X30025D01*
Y7675D01*
X29983Y7633D01*
X19729Y15425D02*
X19813D01*
X19771D01*
Y15175D01*
X19729D01*
X19813D01*
X20104Y15383D02*
X20062Y15425D01*
X19979D01*
X19938Y15383D01*
Y15217D01*
X19979Y15175D01*
X20062D01*
X20104Y15217D01*
X20187Y15175D02*
X20271D01*
X20229D01*
Y15425D01*
X20187Y15383D01*
X23283Y6125D02*
X23117D01*
Y6000D01*
X23200D01*
X23117D01*
Y5875D01*
X23367Y6125D02*
Y5875D01*
X23492D01*
X23533Y5917D01*
Y5958D01*
X23492Y6000D01*
X23367D01*
X23492D01*
X23533Y6042D01*
Y6083D01*
X23492Y6125D01*
X23367D01*
X23742Y5875D02*
Y6125D01*
X23617Y6000D01*
X23783D01*
X25933Y3975D02*
X25767D01*
Y3850D01*
X25850D01*
X25767D01*
Y3725D01*
X26017Y3975D02*
Y3725D01*
X26142D01*
X26183Y3767D01*
Y3808D01*
X26142Y3850D01*
X26017D01*
X26142D01*
X26183Y3892D01*
Y3933D01*
X26142Y3975D01*
X26017D01*
X26267Y3933D02*
X26308Y3975D01*
X26392D01*
X26433Y3933D01*
Y3892D01*
X26392Y3850D01*
X26350D01*
X26392D01*
X26433Y3808D01*
Y3767D01*
X26392Y3725D01*
X26308D01*
X26267Y3767D01*
X26033Y1775D02*
X25867D01*
Y1650D01*
X25950D01*
X25867D01*
Y1525D01*
X26117Y1775D02*
Y1525D01*
X26242D01*
X26283Y1567D01*
Y1608D01*
X26242Y1650D01*
X26117D01*
X26242D01*
X26283Y1692D01*
Y1733D01*
X26242Y1775D01*
X26117D01*
X26533Y1525D02*
X26367D01*
X26533Y1692D01*
Y1733D01*
X26492Y1775D01*
X26408D01*
X26367Y1733D01*
X28225Y12475D02*
X28058D01*
Y12350D01*
X28142D01*
X28058D01*
Y12225D01*
X28308Y12475D02*
Y12225D01*
X28433D01*
X28475Y12267D01*
Y12308D01*
X28433Y12350D01*
X28308D01*
X28433D01*
X28475Y12392D01*
Y12433D01*
X28433Y12475D01*
X28308D01*
X28558Y12225D02*
X28642D01*
X28600D01*
Y12475D01*
X28558Y12433D01*
X24102Y16765D02*
Y16515D01*
X24227D01*
X24268Y16557D01*
Y16723D01*
X24227Y16765D01*
X24102D01*
X24476Y16515D02*
Y16765D01*
X24351Y16640D01*
X24518D01*
X28492Y13725D02*
Y13475D01*
X28617D01*
X28658Y13517D01*
Y13683D01*
X28617Y13725D01*
X28492D01*
X28742Y13683D02*
X28783Y13725D01*
X28867D01*
X28908Y13683D01*
Y13642D01*
X28867Y13600D01*
X28825D01*
X28867D01*
X28908Y13558D01*
Y13517D01*
X28867Y13475D01*
X28783D01*
X28742Y13517D01*
X21383Y10183D02*
X21342Y10225D01*
X21258D01*
X21217Y10183D01*
Y10017D01*
X21258Y9975D01*
X21342D01*
X21383Y10017D01*
X21467Y10183D02*
X21508Y10225D01*
X21592D01*
X21633Y10183D01*
Y10142D01*
X21592Y10100D01*
X21550D01*
X21592D01*
X21633Y10058D01*
Y10017D01*
X21592Y9975D01*
X21508D01*
X21467Y10017D01*
X21717Y10183D02*
X21758Y10225D01*
X21842D01*
X21883Y10183D01*
Y10142D01*
X21842Y10100D01*
X21800D01*
X21842D01*
X21883Y10058D01*
Y10017D01*
X21842Y9975D01*
X21758D01*
X21717Y10017D01*
X21333Y8433D02*
X21292Y8475D01*
X21208D01*
X21167Y8433D01*
Y8267D01*
X21208Y8225D01*
X21292D01*
X21333Y8267D01*
X21417Y8433D02*
X21458Y8475D01*
X21542D01*
X21583Y8433D01*
Y8392D01*
X21542Y8350D01*
X21500D01*
X21542D01*
X21583Y8308D01*
Y8267D01*
X21542Y8225D01*
X21458D01*
X21417Y8267D01*
X21833Y8225D02*
X21667D01*
X21833Y8392D01*
Y8433D01*
X21792Y8475D01*
X21708D01*
X21667Y8433D01*
X27825Y4183D02*
X27783Y4225D01*
X27700D01*
X27658Y4183D01*
Y4017D01*
X27700Y3975D01*
X27783D01*
X27825Y4017D01*
X27908Y4183D02*
X27950Y4225D01*
X28033D01*
X28075Y4183D01*
Y4142D01*
X28033Y4100D01*
X27992D01*
X28033D01*
X28075Y4058D01*
Y4017D01*
X28033Y3975D01*
X27950D01*
X27908Y4017D01*
X28158Y3975D02*
X28242D01*
X28200D01*
Y4225D01*
X28158Y4183D01*
X27833Y2383D02*
X27792Y2425D01*
X27708D01*
X27667Y2383D01*
Y2217D01*
X27708Y2175D01*
X27792D01*
X27833Y2217D01*
X27917Y2383D02*
X27958Y2425D01*
X28042D01*
X28083Y2383D01*
Y2342D01*
X28042Y2300D01*
X28000D01*
X28042D01*
X28083Y2258D01*
Y2217D01*
X28042Y2175D01*
X27958D01*
X27917Y2217D01*
X28167Y2383D02*
X28208Y2425D01*
X28292D01*
X28333Y2383D01*
Y2217D01*
X28292Y2175D01*
X28208D01*
X28167Y2217D01*
Y2383D01*
X20033Y11883D02*
X19992Y11925D01*
X19908D01*
X19867Y11883D01*
Y11717D01*
X19908Y11675D01*
X19992D01*
X20033Y11717D01*
X20283Y11675D02*
X20117D01*
X20283Y11842D01*
Y11883D01*
X20242Y11925D01*
X20158D01*
X20117Y11883D01*
X20367Y11717D02*
X20408Y11675D01*
X20492D01*
X20533Y11717D01*
Y11883D01*
X20492Y11925D01*
X20408D01*
X20367Y11883D01*
Y11842D01*
X20408Y11800D01*
X20533D01*
X20267Y11933D02*
X20225Y11892D01*
Y11808D01*
X20267Y11767D01*
X20433D01*
X20475Y11808D01*
Y11892D01*
X20433Y11933D01*
X20475Y12183D02*
Y12017D01*
X20308Y12183D01*
X20267D01*
X20225Y12142D01*
Y12058D01*
X20267Y12017D01*
Y12267D02*
X20225Y12308D01*
Y12392D01*
X20267Y12433D01*
X20308D01*
X20350Y12392D01*
X20392Y12433D01*
X20433D01*
X20475Y12392D01*
Y12308D01*
X20433Y12267D01*
X20392D01*
X20350Y12308D01*
X20308Y12267D01*
X20267D01*
X20350Y12308D02*
Y12392D01*
X19534Y11583D02*
X19492Y11625D01*
X19409D01*
X19367Y11583D01*
Y11417D01*
X19409Y11375D01*
X19492D01*
X19534Y11417D01*
X19784Y11375D02*
X19617D01*
X19784Y11542D01*
Y11583D01*
X19742Y11625D01*
X19659D01*
X19617Y11583D01*
X19867Y11625D02*
X20034D01*
Y11583D01*
X19867Y11417D01*
Y11375D01*
X13017Y13483D02*
X12975Y13442D01*
Y13358D01*
X13017Y13317D01*
X13183D01*
X13225Y13358D01*
Y13442D01*
X13183Y13483D01*
X13225Y13733D02*
Y13567D01*
X13058Y13733D01*
X13017D01*
X12975Y13692D01*
Y13608D01*
X13017Y13567D01*
X12975Y13983D02*
X13017Y13900D01*
X13100Y13817D01*
X13183D01*
X13225Y13858D01*
Y13942D01*
X13183Y13983D01*
X13142D01*
X13100Y13942D01*
Y13817D01*
X10983Y7833D02*
X10942Y7875D01*
X10858D01*
X10817Y7833D01*
Y7667D01*
X10858Y7625D01*
X10942D01*
X10983Y7667D01*
X11233Y7625D02*
X11067D01*
X11233Y7792D01*
Y7833D01*
X11192Y7875D01*
X11108D01*
X11067Y7833D01*
X11483Y7875D02*
X11317D01*
Y7750D01*
X11400Y7792D01*
X11442D01*
X11483Y7750D01*
Y7667D01*
X11442Y7625D01*
X11358D01*
X11317Y7667D01*
X20683Y7883D02*
X20642Y7925D01*
X20558D01*
X20517Y7883D01*
Y7717D01*
X20558Y7675D01*
X20642D01*
X20683Y7717D01*
X20933Y7675D02*
X20767D01*
X20933Y7842D01*
Y7883D01*
X20892Y7925D01*
X20808D01*
X20767Y7883D01*
X21142Y7675D02*
Y7925D01*
X21017Y7800D01*
X21183D01*
X18583Y4933D02*
X18542Y4975D01*
X18458D01*
X18417Y4933D01*
Y4767D01*
X18458Y4725D01*
X18542D01*
X18583Y4767D01*
X18833Y4725D02*
X18667D01*
X18833Y4892D01*
Y4933D01*
X18792Y4975D01*
X18708D01*
X18667Y4933D01*
X18917D02*
X18958Y4975D01*
X19042D01*
X19083Y4933D01*
Y4892D01*
X19042Y4850D01*
X19000D01*
X19042D01*
X19083Y4808D01*
Y4767D01*
X19042Y4725D01*
X18958D01*
X18917Y4767D01*
X19433Y7983D02*
X19391Y8025D01*
X19308D01*
X19266Y7983D01*
Y7817D01*
X19308Y7775D01*
X19391D01*
X19433Y7817D01*
X19683Y7775D02*
X19516D01*
X19683Y7942D01*
Y7983D01*
X19641Y8025D01*
X19558D01*
X19516Y7983D01*
X19933Y7775D02*
X19766D01*
X19933Y7942D01*
Y7983D01*
X19891Y8025D01*
X19808D01*
X19766Y7983D01*
X12175Y5533D02*
X12133Y5575D01*
X12050D01*
X12008Y5533D01*
Y5367D01*
X12050Y5325D01*
X12133D01*
X12175Y5367D01*
X12425Y5325D02*
X12258D01*
X12425Y5492D01*
Y5533D01*
X12383Y5575D01*
X12300D01*
X12258Y5533D01*
X12508Y5325D02*
X12592D01*
X12550D01*
Y5575D01*
X12508Y5533D01*
X20633Y7233D02*
X20592Y7275D01*
X20508D01*
X20467Y7233D01*
Y7067D01*
X20508Y7025D01*
X20592D01*
X20633Y7067D01*
X20883Y7025D02*
X20717D01*
X20883Y7192D01*
Y7233D01*
X20842Y7275D01*
X20758D01*
X20717Y7233D01*
X20967D02*
X21008Y7275D01*
X21092D01*
X21133Y7233D01*
Y7067D01*
X21092Y7025D01*
X21008D01*
X20967Y7067D01*
Y7233D01*
X20654Y6583D02*
X20613Y6625D01*
X20529D01*
X20488Y6583D01*
Y6417D01*
X20529Y6375D01*
X20613D01*
X20654Y6417D01*
X20738Y6375D02*
X20821D01*
X20779D01*
Y6625D01*
X20738Y6583D01*
X20946Y6417D02*
X20987Y6375D01*
X21071D01*
X21112Y6417D01*
Y6583D01*
X21071Y6625D01*
X20987D01*
X20946Y6583D01*
Y6542D01*
X20987Y6500D01*
X21112D01*
X18204Y14083D02*
X18163Y14125D01*
X18079D01*
X18038Y14083D01*
Y13917D01*
X18079Y13875D01*
X18163D01*
X18204Y13917D01*
X18288Y13875D02*
X18371D01*
X18329D01*
Y14125D01*
X18288Y14083D01*
X18496D02*
X18537Y14125D01*
X18621D01*
X18662Y14083D01*
Y14042D01*
X18621Y14000D01*
X18662Y13958D01*
Y13917D01*
X18621Y13875D01*
X18537D01*
X18496Y13917D01*
Y13958D01*
X18537Y14000D01*
X18496Y14042D01*
Y14083D01*
X18537Y14000D02*
X18621D01*
X18517Y11854D02*
X18475Y11813D01*
Y11729D01*
X18517Y11688D01*
X18683D01*
X18725Y11729D01*
Y11813D01*
X18683Y11854D01*
X18725Y11938D02*
Y12021D01*
Y11979D01*
X18475D01*
X18517Y11938D01*
X18475Y12146D02*
Y12312D01*
X18517D01*
X18683Y12146D01*
X18725D01*
X13504Y13683D02*
X13463Y13725D01*
X13379D01*
X13338Y13683D01*
Y13517D01*
X13379Y13475D01*
X13463D01*
X13504Y13517D01*
X13588Y13475D02*
X13671D01*
X13629D01*
Y13725D01*
X13588Y13683D01*
X13962Y13725D02*
X13879Y13683D01*
X13796Y13600D01*
Y13517D01*
X13837Y13475D01*
X13921D01*
X13962Y13517D01*
Y13558D01*
X13921Y13600D01*
X13796D01*
X20504Y10633D02*
X20463Y10675D01*
X20379D01*
X20338Y10633D01*
Y10467D01*
X20379Y10425D01*
X20463D01*
X20504Y10467D01*
X20588Y10425D02*
X20671D01*
X20629D01*
Y10675D01*
X20588Y10633D01*
X20962Y10675D02*
X20796D01*
Y10550D01*
X20879Y10592D01*
X20921D01*
X20962Y10550D01*
Y10467D01*
X20921Y10425D01*
X20837D01*
X20796Y10467D01*
X27854Y9933D02*
X27813Y9975D01*
X27729D01*
X27688Y9933D01*
Y9767D01*
X27729Y9725D01*
X27813D01*
X27854Y9767D01*
X27938Y9725D02*
X28021D01*
X27979D01*
Y9975D01*
X27938Y9933D01*
X28271Y9725D02*
Y9975D01*
X28146Y9850D01*
X28312D01*
X26954Y11083D02*
X26913Y11125D01*
X26829D01*
X26788Y11083D01*
Y10917D01*
X26829Y10875D01*
X26913D01*
X26954Y10917D01*
X27038Y10875D02*
X27121D01*
X27079D01*
Y11125D01*
X27038Y11083D01*
X27246D02*
X27287Y11125D01*
X27371D01*
X27412Y11083D01*
Y11042D01*
X27371Y11000D01*
X27329D01*
X27371D01*
X27412Y10958D01*
Y10917D01*
X27371Y10875D01*
X27287D01*
X27246Y10917D01*
X24454Y4933D02*
X24413Y4975D01*
X24329D01*
X24288Y4933D01*
Y4767D01*
X24329Y4725D01*
X24413D01*
X24454Y4767D01*
X24538Y4725D02*
X24621D01*
X24579D01*
Y4975D01*
X24538Y4933D01*
X24912Y4725D02*
X24746D01*
X24912Y4892D01*
Y4933D01*
X24871Y4975D01*
X24787D01*
X24746Y4933D01*
X21996Y4983D02*
X21954Y5025D01*
X21871D01*
X21829Y4983D01*
Y4817D01*
X21871Y4775D01*
X21954D01*
X21996Y4817D01*
X22079Y4775D02*
X22162D01*
X22121D01*
Y5025D01*
X22079Y4983D01*
X22287Y4775D02*
X22371D01*
X22329D01*
Y5025D01*
X22287Y4983D01*
X26104Y17483D02*
X26063Y17525D01*
X25979D01*
X25938Y17483D01*
Y17317D01*
X25979Y17275D01*
X26063D01*
X26104Y17317D01*
X26188Y17275D02*
X26271D01*
X26229D01*
Y17525D01*
X26188Y17483D01*
X26396D02*
X26437Y17525D01*
X26521D01*
X26562Y17483D01*
Y17317D01*
X26521Y17275D01*
X26437D01*
X26396Y17317D01*
Y17483D01*
X22808Y17433D02*
X22767Y17475D01*
X22683D01*
X22642Y17433D01*
Y17267D01*
X22683Y17225D01*
X22767D01*
X22808Y17267D01*
X22892D02*
X22933Y17225D01*
X23017D01*
X23058Y17267D01*
Y17433D01*
X23017Y17475D01*
X22933D01*
X22892Y17433D01*
Y17392D01*
X22933Y17350D01*
X23058D01*
X23358Y12483D02*
X23317Y12525D01*
X23233D01*
X23192Y12483D01*
Y12317D01*
X23233Y12275D01*
X23317D01*
X23358Y12317D01*
X23442Y12483D02*
X23483Y12525D01*
X23567D01*
X23608Y12483D01*
Y12442D01*
X23567Y12400D01*
X23608Y12358D01*
Y12317D01*
X23567Y12275D01*
X23483D01*
X23442Y12317D01*
Y12358D01*
X23483Y12400D01*
X23442Y12442D01*
Y12483D01*
X23483Y12400D02*
X23567D01*
X20158Y12483D02*
X20117Y12525D01*
X20033D01*
X19992Y12483D01*
Y12317D01*
X20033Y12275D01*
X20117D01*
X20158Y12317D01*
X20242Y12525D02*
X20408D01*
Y12483D01*
X20242Y12317D01*
Y12275D01*
X25818Y9823D02*
X25777Y9865D01*
X25693D01*
X25652Y9823D01*
Y9657D01*
X25693Y9615D01*
X25777D01*
X25818Y9657D01*
X26068Y9865D02*
X25985Y9823D01*
X25901Y9740D01*
Y9657D01*
X25943Y9615D01*
X26026D01*
X26068Y9657D01*
Y9698D01*
X26026Y9740D01*
X25901D01*
X25818Y9173D02*
X25777Y9215D01*
X25693D01*
X25652Y9173D01*
Y9007D01*
X25693Y8965D01*
X25777D01*
X25818Y9007D01*
X26068Y9215D02*
X25901D01*
Y9090D01*
X25985Y9132D01*
X26026D01*
X26068Y9090D01*
Y9007D01*
X26026Y8965D01*
X25943D01*
X25901Y9007D01*
X24168Y11023D02*
X24127Y11065D01*
X24043D01*
X24002Y11023D01*
Y10857D01*
X24043Y10815D01*
X24127D01*
X24168Y10857D01*
X24376Y10815D02*
Y11065D01*
X24251Y10940D01*
X24418D01*
X24168Y11723D02*
X24127Y11765D01*
X24043D01*
X24002Y11723D01*
Y11557D01*
X24043Y11515D01*
X24127D01*
X24168Y11557D01*
X24251Y11723D02*
X24293Y11765D01*
X24376D01*
X24418Y11723D01*
Y11682D01*
X24376Y11640D01*
X24335D01*
X24376D01*
X24418Y11598D01*
Y11557D01*
X24376Y11515D01*
X24293D01*
X24251Y11557D01*
X20158Y13083D02*
X20117Y13125D01*
X20033D01*
X19992Y13083D01*
Y12917D01*
X20033Y12875D01*
X20117D01*
X20158Y12917D01*
X20408Y12875D02*
X20242D01*
X20408Y13042D01*
Y13083D01*
X20367Y13125D01*
X20283D01*
X20242Y13083D01*
X26650Y18183D02*
X26608Y18225D01*
X26525D01*
X26483Y18183D01*
Y18017D01*
X26525Y17975D01*
X26608D01*
X26650Y18017D01*
X26733Y17975D02*
X26817D01*
X26775D01*
Y18225D01*
X26733Y18183D01*
X4408Y17575D02*
X4325D01*
X4367D01*
Y17367D01*
X4325Y17325D01*
X4283D01*
X4242Y17367D01*
X4658Y17575D02*
X4575Y17533D01*
X4492Y17450D01*
Y17367D01*
X4533Y17325D01*
X4617D01*
X4658Y17367D01*
Y17408D01*
X4617Y17450D01*
X4492D01*
X4408Y2075D02*
X4325D01*
X4367D01*
Y1867D01*
X4325Y1825D01*
X4283D01*
X4242Y1867D01*
X4617Y1825D02*
Y2075D01*
X4492Y1950D01*
X4658D01*
X6158Y15225D02*
X6075D01*
X6117D01*
Y15017D01*
X6075Y14975D01*
X6033D01*
X5992Y15017D01*
X6408Y14975D02*
X6242D01*
X6408Y15142D01*
Y15183D01*
X6367Y15225D01*
X6283D01*
X6242Y15183D01*
X11588Y12625D02*
X11671D01*
X11629D01*
Y12375D01*
X11588D01*
X11671D01*
X11962Y12583D02*
X11921Y12625D01*
X11838D01*
X11796Y12583D01*
Y12417D01*
X11838Y12375D01*
X11921D01*
X11962Y12417D01*
X12212Y12375D02*
X12046D01*
X12212Y12542D01*
Y12583D01*
X12171Y12625D01*
X12087D01*
X12046Y12583D01*
M02*
