G04*
G04 #@! TF.GenerationSoftware,Altium Limited,Altium Designer,23.3.1 (30)*
G04*
G04 Layer_Color=8421504*
%FSLAX24Y24*%
%MOIN*%
G70*
G04*
G04 #@! TF.SameCoordinates,0EE62ADF-7674-4DCD-90CA-8C9100EC0EC2*
G04*
G04*
G04 #@! TF.FilePolarity,Positive*
G04*
G01*
G75*
%ADD20R,0.0500X0.0449*%
%ADD21R,0.0449X0.0500*%
%ADD22R,0.0581X0.0118*%
%ADD23R,0.0118X0.0581*%
%ADD24R,0.0630X0.1260*%
%ADD25R,0.0354X0.0551*%
%ADD26R,0.0689X0.1043*%
%ADD27R,0.0591X0.0835*%
%ADD28R,0.1008X0.1358*%
%ADD29R,0.0600X0.0276*%
%ADD30R,0.0472X0.0579*%
%ADD31R,0.0492X0.0433*%
%ADD32R,0.1043X0.0291*%
G04:AMPARAMS|DCode=33|XSize=77.6mil|YSize=23.6mil|CornerRadius=3mil|HoleSize=0mil|Usage=FLASHONLY|Rotation=0.000|XOffset=0mil|YOffset=0mil|HoleType=Round|Shape=RoundedRectangle|*
%AMROUNDEDRECTD33*
21,1,0.0776,0.0177,0,0,0.0*
21,1,0.0717,0.0236,0,0,0.0*
1,1,0.0059,0.0358,-0.0089*
1,1,0.0059,-0.0358,-0.0089*
1,1,0.0059,-0.0358,0.0089*
1,1,0.0059,0.0358,0.0089*
%
%ADD33ROUNDEDRECTD33*%
%ADD34R,0.0650X0.1260*%
%ADD35R,0.0650X0.0374*%
%ADD36R,0.0295X0.0276*%
%ADD37R,0.1378X0.0925*%
D20*
X13650Y14000D02*
D03*
Y13200D02*
D03*
X19800Y12450D02*
D03*
Y11650D02*
D03*
X19150Y12449D02*
D03*
Y11650D02*
D03*
X22200Y16700D02*
D03*
Y17500D02*
D03*
X17550Y14000D02*
D03*
Y13200D02*
D03*
X12950D02*
D03*
Y14000D02*
D03*
X26300Y16849D02*
D03*
Y16050D02*
D03*
X10950Y7200D02*
D03*
Y6400D02*
D03*
X11650Y5950D02*
D03*
Y6750D02*
D03*
X21400Y16700D02*
D03*
Y17500D02*
D03*
D21*
X20100Y10950D02*
D03*
X19300D02*
D03*
X19999Y8450D02*
D03*
X19200D02*
D03*
X23350Y13000D02*
D03*
X22550D02*
D03*
X19200Y7150D02*
D03*
X20000D02*
D03*
X28550Y11000D02*
D03*
X27750D02*
D03*
X23050Y4700D02*
D03*
X23850D02*
D03*
X19200Y6500D02*
D03*
X20000D02*
D03*
X23050Y4050D02*
D03*
X23850D02*
D03*
X19900Y10200D02*
D03*
X19100D02*
D03*
X28550Y10350D02*
D03*
X27750D02*
D03*
X21650Y13050D02*
D03*
X20850D02*
D03*
X21650Y11750D02*
D03*
X20850D02*
D03*
X18100Y5750D02*
D03*
X18900D02*
D03*
X28150Y1800D02*
D03*
X28950D02*
D03*
X28950Y1150D02*
D03*
X28150D02*
D03*
X24550Y3100D02*
D03*
X25350D02*
D03*
X21400Y9550D02*
D03*
X20600D02*
D03*
X28150Y3550D02*
D03*
X28950D02*
D03*
X22200Y16000D02*
D03*
X21400D02*
D03*
X28950Y2950D02*
D03*
X28150D02*
D03*
X29950Y4450D02*
D03*
X30750D02*
D03*
X21400Y8950D02*
D03*
X20600D02*
D03*
X21600Y4050D02*
D03*
X22400D02*
D03*
X19200Y7800D02*
D03*
X20000D02*
D03*
X25500Y9550D02*
D03*
X26300D02*
D03*
X24550Y2400D02*
D03*
X25350D02*
D03*
X26300Y8200D02*
D03*
X25501D02*
D03*
X21650Y12400D02*
D03*
X20850D02*
D03*
X23850Y10050D02*
D03*
X24650D02*
D03*
X23850Y10750D02*
D03*
X24650D02*
D03*
X26300Y8850D02*
D03*
X25500D02*
D03*
D22*
X18400Y7053D02*
D03*
Y7250D02*
D03*
Y7447D02*
D03*
Y7644D02*
D03*
Y7841D02*
D03*
Y8037D02*
D03*
Y8234D02*
D03*
Y8431D02*
D03*
Y8628D02*
D03*
Y8825D02*
D03*
Y9022D02*
D03*
Y9219D02*
D03*
Y9415D02*
D03*
Y9612D02*
D03*
Y9809D02*
D03*
Y10006D02*
D03*
Y10203D02*
D03*
Y10400D02*
D03*
Y10596D02*
D03*
Y10793D02*
D03*
Y10990D02*
D03*
Y11187D02*
D03*
Y11384D02*
D03*
Y11581D02*
D03*
Y11778D02*
D03*
X12307D02*
D03*
Y11581D02*
D03*
Y11384D02*
D03*
Y11187D02*
D03*
Y10990D02*
D03*
Y10793D02*
D03*
Y10596D02*
D03*
Y10400D02*
D03*
Y10203D02*
D03*
Y10006D02*
D03*
Y9809D02*
D03*
Y9612D02*
D03*
Y9415D02*
D03*
Y9219D02*
D03*
Y9022D02*
D03*
Y8825D02*
D03*
Y8628D02*
D03*
Y8431D02*
D03*
Y8234D02*
D03*
Y8037D02*
D03*
Y7841D02*
D03*
Y7644D02*
D03*
Y7447D02*
D03*
Y7250D02*
D03*
Y7053D02*
D03*
D23*
X17716Y12462D02*
D03*
X17519D02*
D03*
X17322D02*
D03*
X17125D02*
D03*
X16928D02*
D03*
X16731D02*
D03*
X16535D02*
D03*
X16338D02*
D03*
X16141D02*
D03*
X15944D02*
D03*
X15747D02*
D03*
X15550D02*
D03*
X15354D02*
D03*
X15157D02*
D03*
X14960D02*
D03*
X14763D02*
D03*
X14566D02*
D03*
X14369D02*
D03*
X14172D02*
D03*
X13976D02*
D03*
X13779D02*
D03*
X13582D02*
D03*
X13385D02*
D03*
X13188D02*
D03*
X12991D02*
D03*
Y6369D02*
D03*
X13188D02*
D03*
X13385D02*
D03*
X13582D02*
D03*
X13779D02*
D03*
X13976D02*
D03*
X14172D02*
D03*
X14369D02*
D03*
X14566D02*
D03*
X14763D02*
D03*
X14960D02*
D03*
X15157D02*
D03*
X15354D02*
D03*
X15550D02*
D03*
X15747D02*
D03*
X15944D02*
D03*
X16141D02*
D03*
X16338D02*
D03*
X16535D02*
D03*
X16731D02*
D03*
X16928D02*
D03*
X17125D02*
D03*
X17322D02*
D03*
X17519D02*
D03*
X17716D02*
D03*
D24*
X28350Y18134D02*
D03*
Y16166D02*
D03*
D25*
X29620Y1600D02*
D03*
X32180D02*
D03*
X29620Y3250D02*
D03*
X32180D02*
D03*
D26*
X29450Y11554D02*
D03*
Y13246D02*
D03*
X24300Y13804D02*
D03*
Y15496D02*
D03*
D27*
X29450Y8117D02*
D03*
Y9783D02*
D03*
Y7000D02*
D03*
Y5335D02*
D03*
D28*
X21950Y14600D02*
D03*
D29*
X23018Y15350D02*
D03*
Y14850D02*
D03*
Y14350D02*
D03*
Y13850D02*
D03*
X20882D02*
D03*
Y14350D02*
D03*
Y14850D02*
D03*
Y15350D02*
D03*
D30*
X23789Y5400D02*
D03*
X23111D02*
D03*
X25289Y3850D02*
D03*
X24611D02*
D03*
X25327Y1600D02*
D03*
X24650D02*
D03*
X27811Y11750D02*
D03*
X28489D02*
D03*
D31*
X31487Y4450D02*
D03*
X32413D02*
D03*
Y5200D02*
D03*
X31487D02*
D03*
D32*
X30483Y17400D02*
D03*
X32117D02*
D03*
X30483Y16900D02*
D03*
X32117D02*
D03*
X30483Y16400D02*
D03*
X32117D02*
D03*
X30483Y15900D02*
D03*
X32117D02*
D03*
Y15400D02*
D03*
X30483D02*
D03*
D33*
X23722Y3350D02*
D03*
Y2850D02*
D03*
Y2350D02*
D03*
Y1850D02*
D03*
X21778D02*
D03*
Y2350D02*
D03*
Y2850D02*
D03*
Y3350D02*
D03*
D34*
X22140Y8200D02*
D03*
D35*
X24660Y9106D02*
D03*
Y8200D02*
D03*
Y7294D02*
D03*
D36*
X19184Y9547D02*
D03*
X19716D02*
D03*
Y9153D02*
D03*
X19184D02*
D03*
D37*
X26500Y15041D02*
D03*
Y12659D02*
D03*
M02*
