G04*
G04 #@! TF.GenerationSoftware,Altium Limited,Altium Designer,23.3.1 (30)*
G04*
G04 Layer_Physical_Order=2*
G04 Layer_Color=36540*
%FSLAX24Y24*%
%MOIN*%
G70*
G04*
G04 #@! TF.SameCoordinates,0EE62ADF-7674-4DCD-90CA-8C9100EC0EC2*
G04*
G04*
G04 #@! TF.FilePolarity,Positive*
G04*
G01*
G75*
%ADD64C,0.0650*%
%ADD66C,0.0413*%
%ADD70C,0.0236*%
G36*
X32594Y19267D02*
X32793Y19213D01*
X32984Y19134D01*
X33163Y19031D01*
X33327Y18906D01*
X33473Y18760D01*
X33598Y18596D01*
X33701Y18417D01*
X33780Y18226D01*
X33834Y18027D01*
X33861Y17822D01*
Y17719D01*
Y1577D01*
Y1474D01*
X33834Y1269D01*
X33780Y1070D01*
X33701Y879D01*
X33598Y701D01*
X33473Y537D01*
X33327Y391D01*
X33163Y265D01*
X32984Y162D01*
X32793Y83D01*
X32594Y29D01*
X32389Y3D01*
X1474D01*
X1269Y29D01*
X1070Y83D01*
X879Y162D01*
X701Y265D01*
X537Y391D01*
X391Y537D01*
X265Y701D01*
X162Y879D01*
X83Y1070D01*
X29Y1269D01*
X3Y1474D01*
Y1577D01*
Y17719D01*
Y17822D01*
X29Y18027D01*
X83Y18226D01*
X162Y18417D01*
X265Y18596D01*
X391Y18760D01*
X537Y18906D01*
X701Y19031D01*
X879Y19134D01*
X1070Y19213D01*
X1269Y19267D01*
X1474Y19294D01*
X32389D01*
X32594Y19267D01*
D02*
G37*
%LPC*%
G36*
X2701Y17584D02*
X2599D01*
X2502Y17558D01*
X2414Y17507D01*
X2343Y17436D01*
X2292Y17348D01*
X2266Y17251D01*
Y17149D01*
X2292Y17052D01*
X2343Y16964D01*
X2414Y16893D01*
X2502Y16842D01*
X2599Y16816D01*
X2701D01*
X2798Y16842D01*
X2886Y16893D01*
X2957Y16964D01*
X3008Y17052D01*
X3034Y17149D01*
Y17251D01*
X3008Y17348D01*
X2957Y17436D01*
X2886Y17507D01*
X2798Y17558D01*
X2701Y17584D01*
D02*
G37*
G36*
X8135Y16427D02*
X8065D01*
X8000Y16400D01*
X7950Y16350D01*
X7923Y16285D01*
Y16215D01*
X7950Y16150D01*
X8000Y16100D01*
X8065Y16073D01*
X8135D01*
X8200Y16100D01*
X8250Y16150D01*
X8277Y16215D01*
Y16285D01*
X8250Y16350D01*
X8200Y16400D01*
X8135Y16427D01*
D02*
G37*
G36*
X2701Y16584D02*
X2599D01*
X2502Y16558D01*
X2414Y16507D01*
X2343Y16436D01*
X2292Y16348D01*
X2266Y16251D01*
Y16149D01*
X2292Y16052D01*
X2343Y15964D01*
X2414Y15893D01*
X2502Y15842D01*
X2599Y15816D01*
X2701D01*
X2798Y15842D01*
X2886Y15893D01*
X2957Y15964D01*
X3008Y16052D01*
X3034Y16149D01*
Y16251D01*
X3008Y16348D01*
X2957Y16436D01*
X2886Y16507D01*
X2798Y16558D01*
X2701Y16584D01*
D02*
G37*
G36*
X27085Y15925D02*
X27015D01*
X26950Y15898D01*
X26900Y15848D01*
X26873Y15783D01*
Y15713D01*
X26900Y15647D01*
X26950Y15598D01*
X27015Y15571D01*
X27085D01*
X27150Y15598D01*
X27200Y15647D01*
X27227Y15713D01*
Y15783D01*
X27200Y15848D01*
X27150Y15898D01*
X27085Y15925D01*
D02*
G37*
G36*
X2701Y15584D02*
X2599D01*
X2502Y15558D01*
X2414Y15507D01*
X2343Y15436D01*
X2292Y15348D01*
X2266Y15251D01*
Y15149D01*
X2292Y15052D01*
X2343Y14964D01*
X2414Y14893D01*
X2502Y14842D01*
X2599Y14816D01*
X2701D01*
X2798Y14842D01*
X2886Y14893D01*
X2957Y14964D01*
X3008Y15052D01*
X3034Y15149D01*
Y15251D01*
X3008Y15348D01*
X2957Y15436D01*
X2886Y15507D01*
X2798Y15558D01*
X2701Y15584D01*
D02*
G37*
G36*
X32585Y15077D02*
X32515D01*
X32450Y15050D01*
X32400Y15000D01*
X32373Y14935D01*
Y14865D01*
X32400Y14800D01*
X32450Y14750D01*
X32515Y14723D01*
X32585D01*
X32650Y14750D01*
X32700Y14800D01*
X32727Y14865D01*
Y14935D01*
X32700Y15000D01*
X32650Y15050D01*
X32585Y15077D01*
D02*
G37*
G36*
X29935Y14716D02*
X29865D01*
X29797Y14698D01*
X29737Y14663D01*
X29687Y14613D01*
X29679Y14598D01*
X29621D01*
X29613Y14613D01*
X29563Y14663D01*
X29503Y14698D01*
X29435Y14716D01*
X29365D01*
X29297Y14698D01*
X29237Y14663D01*
X29187Y14613D01*
X29179Y14598D01*
X29121D01*
X29113Y14613D01*
X29063Y14663D01*
X29003Y14698D01*
X28935Y14716D01*
X28865D01*
X28797Y14698D01*
X28737Y14663D01*
X28687Y14613D01*
X28652Y14553D01*
X28634Y14485D01*
Y14415D01*
X28652Y14347D01*
X28687Y14287D01*
X28737Y14237D01*
X28797Y14202D01*
X28865Y14184D01*
X28935D01*
X29003Y14202D01*
X29063Y14237D01*
X29113Y14287D01*
X29121Y14302D01*
X29179D01*
X29187Y14287D01*
X29237Y14237D01*
X29297Y14202D01*
X29365Y14184D01*
X29435D01*
X29503Y14202D01*
X29563Y14237D01*
X29613Y14287D01*
X29621Y14302D01*
X29679D01*
X29687Y14287D01*
X29737Y14237D01*
X29797Y14202D01*
X29865Y14184D01*
X29935D01*
X30003Y14202D01*
X30063Y14237D01*
X30113Y14287D01*
X30148Y14347D01*
X30166Y14415D01*
Y14485D01*
X30148Y14553D01*
X30113Y14613D01*
X30063Y14663D01*
X30003Y14698D01*
X29935Y14716D01*
D02*
G37*
G36*
X5235Y14216D02*
X5165D01*
X5097Y14198D01*
X5037Y14163D01*
X4987Y14113D01*
X4979Y14098D01*
X4921D01*
X4913Y14113D01*
X4863Y14163D01*
X4803Y14198D01*
X4735Y14216D01*
X4665D01*
X4597Y14198D01*
X4537Y14163D01*
X4487Y14113D01*
X4452Y14053D01*
X4434Y13985D01*
Y13915D01*
X4422Y13899D01*
X4393D01*
X4328Y13872D01*
X4278Y13822D01*
X4251Y13757D01*
Y13686D01*
X4278Y13621D01*
X4328Y13571D01*
X4393Y13544D01*
X4409D01*
X4440Y13505D01*
X4434Y13485D01*
Y13415D01*
X4452Y13347D01*
X4487Y13287D01*
X4537Y13237D01*
X4552Y13229D01*
Y13171D01*
X4537Y13163D01*
X4487Y13113D01*
X4452Y13053D01*
X4434Y12985D01*
Y12915D01*
X4452Y12847D01*
X4487Y12787D01*
X4537Y12737D01*
X4552Y12729D01*
Y12671D01*
X4537Y12663D01*
X4487Y12613D01*
X4452Y12553D01*
X4434Y12485D01*
Y12415D01*
X4452Y12347D01*
X4487Y12287D01*
X4537Y12237D01*
X4552Y12229D01*
Y12171D01*
X4537Y12163D01*
X4487Y12113D01*
X4452Y12053D01*
X4434Y11985D01*
Y11915D01*
X4452Y11847D01*
X4487Y11787D01*
X4537Y11737D01*
X4552Y11729D01*
Y11671D01*
X4537Y11663D01*
X4487Y11613D01*
X4452Y11553D01*
X4434Y11485D01*
Y11415D01*
X4452Y11347D01*
X4487Y11287D01*
X4537Y11237D01*
X4552Y11229D01*
Y11171D01*
X4537Y11163D01*
X4487Y11113D01*
X4452Y11053D01*
X4434Y10985D01*
Y10915D01*
X4452Y10847D01*
X4487Y10787D01*
X4537Y10737D01*
X4552Y10729D01*
Y10671D01*
X4537Y10663D01*
X4487Y10613D01*
X4452Y10553D01*
X4434Y10485D01*
Y10415D01*
X4452Y10347D01*
X4487Y10287D01*
X4537Y10237D01*
X4552Y10229D01*
Y10171D01*
X4537Y10163D01*
X4487Y10113D01*
X4452Y10053D01*
X4434Y9985D01*
Y9915D01*
X4452Y9847D01*
X4487Y9787D01*
X4537Y9737D01*
X4552Y9729D01*
Y9671D01*
X4537Y9663D01*
X4487Y9613D01*
X4452Y9553D01*
X4434Y9485D01*
Y9415D01*
X4452Y9347D01*
X4487Y9287D01*
X4537Y9237D01*
X4552Y9229D01*
Y9171D01*
X4537Y9163D01*
X4487Y9113D01*
X4452Y9053D01*
X4434Y8985D01*
Y8915D01*
X4452Y8847D01*
X4487Y8787D01*
X4537Y8737D01*
X4552Y8729D01*
Y8671D01*
X4537Y8663D01*
X4487Y8613D01*
X4452Y8553D01*
X4434Y8485D01*
Y8415D01*
X4452Y8347D01*
X4487Y8287D01*
X4537Y8237D01*
X4552Y8229D01*
Y8171D01*
X4537Y8163D01*
X4487Y8113D01*
X4452Y8053D01*
X4434Y7985D01*
Y7915D01*
X4452Y7847D01*
X4487Y7787D01*
X4537Y7737D01*
X4552Y7729D01*
Y7671D01*
X4537Y7663D01*
X4487Y7613D01*
X4452Y7553D01*
X4434Y7485D01*
Y7415D01*
X4452Y7347D01*
X4487Y7287D01*
X4537Y7237D01*
X4552Y7229D01*
Y7171D01*
X4537Y7163D01*
X4487Y7113D01*
X4452Y7053D01*
X4434Y6985D01*
Y6915D01*
X4452Y6847D01*
X4487Y6787D01*
X4537Y6737D01*
X4552Y6729D01*
Y6671D01*
X4537Y6663D01*
X4487Y6613D01*
X4452Y6553D01*
X4434Y6485D01*
Y6415D01*
X4452Y6347D01*
X4487Y6287D01*
X4537Y6237D01*
X4552Y6229D01*
Y6171D01*
X4537Y6163D01*
X4487Y6113D01*
X4452Y6053D01*
X4434Y5985D01*
Y5915D01*
X4452Y5847D01*
X4487Y5787D01*
X4537Y5737D01*
X4552Y5729D01*
Y5671D01*
X4537Y5663D01*
X4487Y5613D01*
X4452Y5553D01*
X4434Y5485D01*
Y5415D01*
X4452Y5347D01*
X4487Y5287D01*
X4537Y5237D01*
X4552Y5229D01*
Y5171D01*
X4537Y5163D01*
X4487Y5113D01*
X4452Y5053D01*
X4444Y5022D01*
X4433Y5016D01*
X4389Y5011D01*
X4350Y5050D01*
X4285Y5077D01*
X4215D01*
X4150Y5050D01*
X4100Y5000D01*
X4073Y4935D01*
Y4865D01*
X4100Y4800D01*
X4150Y4750D01*
X4215Y4723D01*
X4285D01*
X4350Y4750D01*
X4400Y4800D01*
X4409Y4822D01*
X4465Y4825D01*
X4487Y4787D01*
X4537Y4737D01*
X4597Y4702D01*
X4665Y4684D01*
X4735D01*
X4803Y4702D01*
X4863Y4737D01*
X4913Y4787D01*
X4921Y4802D01*
X4979D01*
X4987Y4787D01*
X5037Y4737D01*
X5097Y4702D01*
X5165Y4684D01*
X5235D01*
X5303Y4702D01*
X5363Y4737D01*
X5413Y4787D01*
X5448Y4847D01*
X5466Y4915D01*
Y4985D01*
X5448Y5053D01*
X5413Y5113D01*
X5363Y5163D01*
X5348Y5171D01*
Y5229D01*
X5363Y5237D01*
X5413Y5287D01*
X5448Y5347D01*
X5466Y5415D01*
Y5485D01*
X5448Y5553D01*
X5413Y5613D01*
X5363Y5663D01*
X5348Y5671D01*
Y5729D01*
X5363Y5737D01*
X5413Y5787D01*
X5448Y5847D01*
X5466Y5915D01*
Y5985D01*
X5448Y6053D01*
X5413Y6113D01*
X5363Y6163D01*
X5348Y6171D01*
Y6229D01*
X5363Y6237D01*
X5413Y6287D01*
X5448Y6347D01*
X5466Y6415D01*
Y6485D01*
X5448Y6553D01*
X5413Y6613D01*
X5363Y6663D01*
X5348Y6671D01*
Y6729D01*
X5363Y6737D01*
X5413Y6787D01*
X5448Y6847D01*
X5466Y6915D01*
Y6985D01*
X5448Y7053D01*
X5413Y7113D01*
X5363Y7163D01*
X5348Y7171D01*
Y7229D01*
X5363Y7237D01*
X5413Y7287D01*
X5448Y7347D01*
X5466Y7415D01*
Y7485D01*
X5448Y7553D01*
X5413Y7613D01*
X5363Y7663D01*
X5348Y7671D01*
Y7729D01*
X5363Y7737D01*
X5413Y7787D01*
X5448Y7847D01*
X5466Y7915D01*
Y7985D01*
X5448Y8053D01*
X5413Y8113D01*
X5363Y8163D01*
X5348Y8171D01*
Y8229D01*
X5363Y8237D01*
X5413Y8287D01*
X5448Y8347D01*
X5466Y8415D01*
Y8485D01*
X5448Y8553D01*
X5413Y8613D01*
X5363Y8663D01*
X5348Y8671D01*
Y8729D01*
X5363Y8737D01*
X5413Y8787D01*
X5448Y8847D01*
X5466Y8915D01*
Y8985D01*
X5448Y9053D01*
X5413Y9113D01*
X5363Y9163D01*
X5348Y9171D01*
Y9229D01*
X5363Y9237D01*
X5413Y9287D01*
X5448Y9347D01*
X5466Y9415D01*
Y9485D01*
X5448Y9553D01*
X5413Y9613D01*
X5363Y9663D01*
X5348Y9671D01*
Y9729D01*
X5363Y9737D01*
X5413Y9787D01*
X5448Y9847D01*
X5466Y9915D01*
Y9985D01*
X5448Y10053D01*
X5413Y10113D01*
X5363Y10163D01*
X5348Y10171D01*
Y10229D01*
X5363Y10237D01*
X5413Y10287D01*
X5448Y10347D01*
X5466Y10415D01*
Y10485D01*
X5448Y10553D01*
X5413Y10613D01*
X5363Y10663D01*
X5348Y10671D01*
Y10729D01*
X5363Y10737D01*
X5413Y10787D01*
X5448Y10847D01*
X5466Y10915D01*
Y10985D01*
X5448Y11053D01*
X5413Y11113D01*
X5363Y11163D01*
X5348Y11171D01*
Y11229D01*
X5363Y11237D01*
X5413Y11287D01*
X5448Y11347D01*
X5466Y11415D01*
Y11485D01*
X5448Y11553D01*
X5413Y11613D01*
X5363Y11663D01*
X5348Y11671D01*
Y11729D01*
X5363Y11737D01*
X5413Y11787D01*
X5448Y11847D01*
X5466Y11915D01*
Y11985D01*
X5448Y12053D01*
X5413Y12113D01*
X5363Y12163D01*
X5348Y12171D01*
Y12229D01*
X5363Y12237D01*
X5413Y12287D01*
X5448Y12347D01*
X5466Y12415D01*
Y12485D01*
X5448Y12553D01*
X5413Y12613D01*
X5363Y12663D01*
X5348Y12671D01*
Y12729D01*
X5363Y12737D01*
X5413Y12787D01*
X5448Y12847D01*
X5466Y12915D01*
Y12985D01*
X5448Y13053D01*
X5413Y13113D01*
X5363Y13163D01*
X5348Y13171D01*
Y13229D01*
X5363Y13237D01*
X5413Y13287D01*
X5448Y13347D01*
X5466Y13415D01*
Y13485D01*
X5448Y13553D01*
X5413Y13613D01*
X5363Y13663D01*
X5348Y13671D01*
Y13729D01*
X5363Y13737D01*
X5413Y13787D01*
X5448Y13847D01*
X5466Y13915D01*
Y13985D01*
X5448Y14053D01*
X5413Y14113D01*
X5363Y14163D01*
X5303Y14198D01*
X5235Y14216D01*
D02*
G37*
G36*
X7685Y14227D02*
X7615D01*
X7550Y14200D01*
X7500Y14150D01*
X7473Y14085D01*
Y14015D01*
X7500Y13950D01*
X7550Y13900D01*
X7615Y13873D01*
X7685D01*
X7750Y13900D01*
X7800Y13950D01*
X7827Y14015D01*
Y14085D01*
X7800Y14150D01*
X7750Y14200D01*
X7685Y14227D01*
D02*
G37*
G36*
X2701Y14584D02*
X2599D01*
X2502Y14558D01*
X2414Y14507D01*
X2343Y14436D01*
X2292Y14348D01*
X2266Y14251D01*
Y14149D01*
X2292Y14052D01*
X2343Y13964D01*
X2414Y13893D01*
X2502Y13842D01*
X2599Y13816D01*
X2701D01*
X2798Y13842D01*
X2886Y13893D01*
X2957Y13964D01*
X3008Y14052D01*
X3034Y14149D01*
Y14251D01*
X3008Y14348D01*
X2957Y14436D01*
X2886Y14507D01*
X2798Y14558D01*
X2701Y14584D01*
D02*
G37*
G36*
X21385Y13777D02*
X21315D01*
X21250Y13750D01*
X21200Y13700D01*
X21173Y13635D01*
Y13565D01*
X21200Y13500D01*
X21250Y13450D01*
X21315Y13423D01*
X21385D01*
X21450Y13450D01*
X21500Y13500D01*
X21527Y13565D01*
Y13635D01*
X21500Y13700D01*
X21450Y13750D01*
X21385Y13777D01*
D02*
G37*
G36*
X16166Y14054D02*
X16095D01*
X16030Y14027D01*
X15980Y13977D01*
X15953Y13912D01*
Y13841D01*
X15980Y13776D01*
X16030Y13727D01*
X16095Y13700D01*
X16166D01*
X16231Y13727D01*
X16260Y13756D01*
X16289Y13750D01*
X16339Y13700D01*
X16404Y13673D01*
X16430D01*
X16470Y13637D01*
Y13567D01*
X16497Y13502D01*
X16546Y13452D01*
X16612Y13425D01*
X16682D01*
X16698Y13431D01*
X16723Y13415D01*
X16750Y13350D01*
X16800Y13300D01*
X16865Y13273D01*
X16935D01*
X17000Y13300D01*
X17050Y13350D01*
X17077Y13415D01*
Y13485D01*
X17050Y13550D01*
X17000Y13600D01*
X16935Y13627D01*
X16865D01*
X16817Y13654D01*
X16797Y13702D01*
X16747Y13752D01*
X16682Y13779D01*
X16656D01*
X16617Y13815D01*
Y13885D01*
X16590Y13950D01*
X16540Y14000D01*
X16475Y14027D01*
X16404D01*
X16339Y14000D01*
X16310Y13971D01*
X16281Y13977D01*
X16231Y14027D01*
X16166Y14054D01*
D02*
G37*
G36*
X12292Y13627D02*
X12222D01*
X12157Y13600D01*
X12107Y13550D01*
X12080Y13485D01*
Y13415D01*
X12107Y13350D01*
X12151Y13306D01*
X12150Y13300D01*
X12100Y13250D01*
X12073Y13185D01*
Y13115D01*
X12100Y13050D01*
X12150Y13000D01*
X12215Y12973D01*
X12285D01*
X12350Y13000D01*
X12400Y13050D01*
X12427Y13115D01*
Y13185D01*
X12400Y13250D01*
X12356Y13294D01*
X12358Y13300D01*
X12407Y13350D01*
X12434Y13415D01*
Y13485D01*
X12407Y13550D01*
X12358Y13600D01*
X12292Y13627D01*
D02*
G37*
G36*
X32436Y13476D02*
X32364D01*
X32294Y13457D01*
X32231Y13421D01*
X32179Y13369D01*
X32143Y13306D01*
X32124Y13236D01*
Y13164D01*
X32143Y13094D01*
X32179Y13031D01*
X32231Y12979D01*
X32294Y12943D01*
X32364Y12924D01*
X32436D01*
X32506Y12943D01*
X32569Y12979D01*
X32621Y13031D01*
X32657Y13094D01*
X32676Y13164D01*
Y13236D01*
X32657Y13306D01*
X32621Y13369D01*
X32569Y13421D01*
X32506Y13457D01*
X32436Y13476D01*
D02*
G37*
G36*
X31451Y13584D02*
X31349D01*
X31252Y13558D01*
X31164Y13507D01*
X31093Y13436D01*
X31042Y13348D01*
X31016Y13251D01*
Y13149D01*
X31042Y13052D01*
X31093Y12964D01*
X31164Y12893D01*
X31252Y12842D01*
X31349Y12816D01*
X31451D01*
X31548Y12842D01*
X31636Y12893D01*
X31707Y12964D01*
X31758Y13052D01*
X31784Y13149D01*
Y13251D01*
X31758Y13348D01*
X31707Y13436D01*
X31636Y13507D01*
X31548Y13558D01*
X31451Y13584D01*
D02*
G37*
G36*
X2701D02*
X2599D01*
X2502Y13558D01*
X2414Y13507D01*
X2343Y13436D01*
X2292Y13348D01*
X2266Y13251D01*
Y13149D01*
X2292Y13052D01*
X2343Y12964D01*
X2414Y12893D01*
X2502Y12842D01*
X2599Y12816D01*
X2701D01*
X2798Y12842D01*
X2886Y12893D01*
X2957Y12964D01*
X3008Y13052D01*
X3034Y13149D01*
Y13251D01*
X3008Y13348D01*
X2957Y13436D01*
X2886Y13507D01*
X2798Y13558D01*
X2701Y13584D01*
D02*
G37*
G36*
X18002Y13027D02*
X17931D01*
X17866Y13000D01*
X17816Y12950D01*
X17789Y12885D01*
Y12815D01*
X17816Y12750D01*
X17866Y12700D01*
X17931Y12673D01*
X18002D01*
X18067Y12700D01*
X18117Y12750D01*
X18144Y12815D01*
Y12885D01*
X18117Y12950D01*
X18067Y13000D01*
X18002Y13027D01*
D02*
G37*
G36*
X22585Y12727D02*
X22515D01*
X22450Y12700D01*
X22400Y12650D01*
X22373Y12585D01*
Y12515D01*
X22400Y12450D01*
X22450Y12400D01*
X22515Y12373D01*
X22585D01*
X22650Y12400D01*
X22700Y12450D01*
X22727Y12515D01*
Y12585D01*
X22700Y12650D01*
X22650Y12700D01*
X22585Y12727D01*
D02*
G37*
G36*
X12635D02*
X12565D01*
X12500Y12700D01*
X12450Y12650D01*
X12423Y12585D01*
Y12515D01*
X12450Y12450D01*
X12500Y12400D01*
X12565Y12373D01*
X12635D01*
X12700Y12400D01*
X12750Y12450D01*
X12777Y12515D01*
Y12585D01*
X12750Y12650D01*
X12700Y12700D01*
X12635Y12727D01*
D02*
G37*
G36*
X32436Y12476D02*
X32364D01*
X32294Y12457D01*
X32231Y12421D01*
X32179Y12369D01*
X32143Y12306D01*
X32124Y12236D01*
Y12164D01*
X32143Y12094D01*
X32179Y12031D01*
X32231Y11979D01*
X32294Y11943D01*
X32364Y11924D01*
X32436D01*
X32506Y11943D01*
X32569Y11979D01*
X32621Y12031D01*
X32657Y12094D01*
X32676Y12164D01*
Y12236D01*
X32657Y12306D01*
X32621Y12369D01*
X32569Y12421D01*
X32506Y12457D01*
X32436Y12476D01*
D02*
G37*
G36*
X2701Y12584D02*
X2599D01*
X2502Y12558D01*
X2414Y12507D01*
X2343Y12436D01*
X2292Y12348D01*
X2266Y12251D01*
Y12149D01*
X2292Y12052D01*
X2343Y11964D01*
X2414Y11893D01*
X2502Y11842D01*
X2599Y11816D01*
X2701D01*
X2798Y11842D01*
X2886Y11893D01*
X2957Y11964D01*
X3008Y12052D01*
X3034Y12149D01*
Y12251D01*
X3008Y12348D01*
X2957Y12436D01*
X2886Y12507D01*
X2798Y12558D01*
X2701Y12584D01*
D02*
G37*
G36*
X18485Y12627D02*
X18415D01*
X18350Y12600D01*
X18300Y12550D01*
X18273Y12485D01*
Y12466D01*
X18235Y12427D01*
X18165D01*
X18100Y12400D01*
X18050Y12350D01*
X18023Y12285D01*
Y12215D01*
X18030Y12197D01*
X18004Y12138D01*
X17971Y12124D01*
X17921Y12074D01*
X17894Y12009D01*
Y11939D01*
X17921Y11874D01*
X17971Y11824D01*
X18036Y11797D01*
X18106D01*
X18171Y11824D01*
X18221Y11874D01*
X18248Y11939D01*
Y12009D01*
X18241Y12027D01*
X18267Y12086D01*
X18300Y12100D01*
X18350Y12150D01*
X18377Y12215D01*
Y12234D01*
X18415Y12273D01*
X18485D01*
X18550Y12300D01*
X18600Y12350D01*
X18627Y12415D01*
Y12485D01*
X18600Y12550D01*
X18550Y12600D01*
X18485Y12627D01*
D02*
G37*
G36*
X17335Y12127D02*
X17265D01*
X17200Y12100D01*
X17150Y12050D01*
X17123Y11985D01*
Y11915D01*
X17150Y11850D01*
X17200Y11800D01*
X17265Y11773D01*
X17335D01*
X17400Y11800D01*
X17450Y11850D01*
X17477Y11915D01*
Y11985D01*
X17450Y12050D01*
X17400Y12100D01*
X17335Y12127D01*
D02*
G37*
G36*
X15785Y11977D02*
X15715D01*
X15650Y11950D01*
X15600Y11900D01*
X15573Y11835D01*
Y11765D01*
X15600Y11700D01*
X15650Y11650D01*
X15715Y11623D01*
X15785D01*
X15850Y11650D01*
X15900Y11700D01*
X15927Y11765D01*
Y11835D01*
X15900Y11900D01*
X15850Y11950D01*
X15785Y11977D01*
D02*
G37*
G36*
X13335Y11927D02*
X13265D01*
X13200Y11900D01*
X13150Y11850D01*
X13123Y11785D01*
Y11715D01*
X13150Y11650D01*
X13200Y11600D01*
X13265Y11573D01*
X13335D01*
X13400Y11600D01*
X13450Y11650D01*
X13477Y11715D01*
Y11785D01*
X13450Y11850D01*
X13400Y11900D01*
X13335Y11927D01*
D02*
G37*
G36*
X26991Y12059D02*
X26909D01*
X26831Y12038D01*
X26760Y11997D01*
X26703Y11940D01*
X26662Y11869D01*
X26641Y11791D01*
Y11709D01*
X26662Y11631D01*
X26703Y11560D01*
X26760Y11503D01*
X26831Y11462D01*
X26909Y11441D01*
X26991D01*
X27069Y11462D01*
X27140Y11503D01*
X27197Y11560D01*
X27238Y11631D01*
X27259Y11709D01*
Y11791D01*
X27238Y11869D01*
X27197Y11940D01*
X27140Y11997D01*
X27069Y12038D01*
X26991Y12059D01*
D02*
G37*
G36*
X25535Y11577D02*
X25465D01*
X25400Y11550D01*
X25350Y11500D01*
X25323Y11435D01*
Y11365D01*
X25350Y11300D01*
X25400Y11250D01*
X25465Y11223D01*
X25535D01*
X25600Y11250D01*
X25650Y11300D01*
X25677Y11365D01*
Y11435D01*
X25650Y11500D01*
X25600Y11550D01*
X25535Y11577D01*
D02*
G37*
G36*
X2701Y11584D02*
X2599D01*
X2502Y11558D01*
X2414Y11507D01*
X2343Y11436D01*
X2292Y11348D01*
X2266Y11251D01*
Y11149D01*
X2292Y11052D01*
X2343Y10964D01*
X2414Y10893D01*
X2502Y10842D01*
X2599Y10816D01*
X2701D01*
X2798Y10842D01*
X2886Y10893D01*
X2957Y10964D01*
X3008Y11052D01*
X3034Y11149D01*
Y11251D01*
X3008Y11348D01*
X2957Y11436D01*
X2886Y11507D01*
X2798Y11558D01*
X2701Y11584D01*
D02*
G37*
G36*
X17935Y11027D02*
X17865D01*
X17800Y11000D01*
X17750Y10950D01*
X17723Y10885D01*
Y10815D01*
X17750Y10750D01*
X17800Y10700D01*
X17865Y10673D01*
X17935D01*
X18000Y10700D01*
X18050Y10750D01*
X18077Y10815D01*
Y10885D01*
X18050Y10950D01*
X18000Y11000D01*
X17935Y11027D01*
D02*
G37*
G36*
X32436Y11076D02*
X32364D01*
X32294Y11057D01*
X32231Y11021D01*
X32179Y10969D01*
X32143Y10906D01*
X32124Y10836D01*
Y10764D01*
X32143Y10694D01*
X32179Y10631D01*
X32231Y10579D01*
X32294Y10543D01*
X32364Y10524D01*
X32436D01*
X32506Y10543D01*
X32569Y10579D01*
X32621Y10631D01*
X32657Y10694D01*
X32676Y10764D01*
Y10836D01*
X32657Y10906D01*
X32621Y10969D01*
X32569Y11021D01*
X32506Y11057D01*
X32436Y11076D01*
D02*
G37*
G36*
X17820Y10590D02*
X17750D01*
X17684Y10563D01*
X17635Y10513D01*
X17612Y10459D01*
X17576Y10445D01*
X17558Y10443D01*
X17534Y10466D01*
X17469Y10493D01*
X17399D01*
X17334Y10466D01*
X17284Y10416D01*
X17257Y10351D01*
Y10281D01*
X17284Y10216D01*
X17334Y10166D01*
X17399Y10139D01*
X17469D01*
X17534Y10166D01*
X17584Y10216D01*
X17607Y10270D01*
X17643Y10284D01*
X17661Y10286D01*
X17684Y10263D01*
X17750Y10236D01*
X17820D01*
X17885Y10263D01*
X17935Y10312D01*
X17962Y10377D01*
Y10448D01*
X17935Y10513D01*
X17885Y10563D01*
X17820Y10590D01*
D02*
G37*
G36*
X25550Y10255D02*
X25480D01*
X25414Y10228D01*
X25365Y10178D01*
X25338Y10113D01*
Y10042D01*
X25365Y9977D01*
X25414Y9928D01*
X25480Y9901D01*
X25550D01*
X25615Y9928D01*
X25665Y9977D01*
X25692Y10042D01*
Y10113D01*
X25665Y10178D01*
X25615Y10228D01*
X25550Y10255D01*
D02*
G37*
G36*
X2701Y10584D02*
X2599D01*
X2502Y10558D01*
X2414Y10507D01*
X2343Y10436D01*
X2292Y10348D01*
X2266Y10251D01*
Y10149D01*
X2292Y10052D01*
X2343Y9964D01*
X2414Y9893D01*
X2502Y9842D01*
X2599Y9816D01*
X2701D01*
X2798Y9842D01*
X2886Y9893D01*
X2957Y9964D01*
X3008Y10052D01*
X3034Y10149D01*
Y10251D01*
X3008Y10348D01*
X2957Y10436D01*
X2886Y10507D01*
X2798Y10558D01*
X2701Y10584D01*
D02*
G37*
G36*
X32436Y10076D02*
X32364D01*
X32294Y10057D01*
X32231Y10021D01*
X32179Y9969D01*
X32143Y9906D01*
X32124Y9836D01*
Y9764D01*
X32143Y9694D01*
X32179Y9631D01*
X32231Y9579D01*
X32294Y9543D01*
X32364Y9524D01*
X32436D01*
X32506Y9543D01*
X32569Y9579D01*
X32621Y9631D01*
X32657Y9694D01*
X32676Y9764D01*
Y9836D01*
X32657Y9906D01*
X32621Y9969D01*
X32569Y10021D01*
X32506Y10057D01*
X32436Y10076D01*
D02*
G37*
G36*
X17885Y9777D02*
X17815D01*
X17750Y9750D01*
X17700Y9700D01*
X17673Y9635D01*
Y9565D01*
X17700Y9500D01*
X17750Y9450D01*
X17815Y9423D01*
X17885D01*
X17950Y9450D01*
X18000Y9500D01*
X18027Y9565D01*
Y9635D01*
X18000Y9700D01*
X17950Y9750D01*
X17885Y9777D01*
D02*
G37*
G36*
X31451Y10184D02*
X31349D01*
X31252Y10158D01*
X31164Y10107D01*
X31093Y10036D01*
X31042Y9948D01*
X31016Y9851D01*
Y9749D01*
X31042Y9652D01*
X31093Y9564D01*
X31164Y9493D01*
X31252Y9442D01*
X31349Y9416D01*
X31451D01*
X31548Y9442D01*
X31636Y9493D01*
X31707Y9564D01*
X31758Y9652D01*
X31784Y9749D01*
Y9851D01*
X31758Y9948D01*
X31707Y10036D01*
X31636Y10107D01*
X31548Y10158D01*
X31451Y10184D01*
D02*
G37*
G36*
X26885Y9727D02*
X26815D01*
X26750Y9700D01*
X26700Y9650D01*
X26673Y9585D01*
Y9515D01*
X26700Y9450D01*
X26750Y9400D01*
X26815Y9373D01*
X26885D01*
X26950Y9400D01*
X27000Y9450D01*
X27027Y9515D01*
Y9585D01*
X27000Y9650D01*
X26950Y9700D01*
X26885Y9727D01*
D02*
G37*
G36*
X23535Y8877D02*
X23465D01*
X23400Y8850D01*
X23350Y8800D01*
X23323Y8735D01*
Y8665D01*
X23350Y8600D01*
X23400Y8550D01*
X23465Y8523D01*
X23535D01*
X23600Y8550D01*
X23650Y8600D01*
X23677Y8665D01*
Y8735D01*
X23650Y8800D01*
X23600Y8850D01*
X23535Y8877D01*
D02*
G37*
G36*
X2701Y9284D02*
X2599D01*
X2502Y9258D01*
X2414Y9207D01*
X2343Y9136D01*
X2292Y9048D01*
X2266Y8951D01*
Y8849D01*
X2292Y8752D01*
X2343Y8664D01*
X2414Y8593D01*
X2502Y8542D01*
X2599Y8516D01*
X2701D01*
X2798Y8542D01*
X2886Y8593D01*
X2957Y8664D01*
X3008Y8752D01*
X3034Y8849D01*
Y8951D01*
X3008Y9048D01*
X2957Y9136D01*
X2886Y9207D01*
X2798Y9258D01*
X2701Y9284D01*
D02*
G37*
G36*
X19616Y8600D02*
X19546D01*
X19480Y8573D01*
X19431Y8523D01*
X19404Y8458D01*
Y8388D01*
X19431Y8323D01*
X19480Y8273D01*
X19546Y8246D01*
X19616D01*
X19681Y8273D01*
X19731Y8323D01*
X19758Y8388D01*
Y8458D01*
X19731Y8523D01*
X19681Y8573D01*
X19616Y8600D01*
D02*
G37*
G36*
X28385Y8577D02*
X28315D01*
X28250Y8550D01*
X28200Y8500D01*
X28173Y8435D01*
Y8365D01*
X28200Y8300D01*
X28250Y8250D01*
X28315Y8223D01*
X28385D01*
X28450Y8250D01*
X28500Y8300D01*
X28527Y8365D01*
Y8435D01*
X28500Y8500D01*
X28450Y8550D01*
X28385Y8577D01*
D02*
G37*
G36*
X32436Y8626D02*
X32364D01*
X32294Y8607D01*
X32231Y8571D01*
X32179Y8519D01*
X32143Y8456D01*
X32124Y8386D01*
Y8314D01*
X32143Y8244D01*
X32179Y8181D01*
X32231Y8129D01*
X32294Y8093D01*
X32364Y8074D01*
X32436D01*
X32506Y8093D01*
X32569Y8129D01*
X32621Y8181D01*
X32657Y8244D01*
X32676Y8314D01*
Y8386D01*
X32657Y8456D01*
X32621Y8519D01*
X32569Y8571D01*
X32506Y8607D01*
X32436Y8626D01*
D02*
G37*
G36*
X11535Y8427D02*
X11465D01*
X11400Y8400D01*
X11350Y8350D01*
X11323Y8285D01*
Y8215D01*
X11350Y8150D01*
X11400Y8100D01*
X11465Y8073D01*
X11535D01*
X11600Y8100D01*
X11650Y8150D01*
X11677Y8215D01*
Y8285D01*
X11650Y8350D01*
X11600Y8400D01*
X11535Y8427D01*
D02*
G37*
G36*
X24050Y8355D02*
X23980D01*
X23914Y8328D01*
X23865Y8278D01*
X23838Y8213D01*
Y8142D01*
X23865Y8077D01*
X23914Y8028D01*
X23980Y8001D01*
X24050D01*
X24115Y8028D01*
X24165Y8077D01*
X24192Y8142D01*
Y8213D01*
X24165Y8278D01*
X24115Y8328D01*
X24050Y8355D01*
D02*
G37*
G36*
X2701Y8284D02*
X2599D01*
X2502Y8258D01*
X2414Y8207D01*
X2343Y8136D01*
X2292Y8048D01*
X2266Y7951D01*
Y7849D01*
X2292Y7752D01*
X2343Y7664D01*
X2414Y7593D01*
X2502Y7542D01*
X2599Y7516D01*
X2701D01*
X2798Y7542D01*
X2886Y7593D01*
X2957Y7664D01*
X3008Y7752D01*
X3034Y7849D01*
Y7951D01*
X3008Y8048D01*
X2957Y8136D01*
X2886Y8207D01*
X2798Y8258D01*
X2701Y8284D01*
D02*
G37*
G36*
X11585Y7777D02*
X11515D01*
X11450Y7750D01*
X11400Y7700D01*
X11373Y7635D01*
Y7565D01*
X11400Y7500D01*
X11450Y7450D01*
X11515Y7423D01*
X11585D01*
X11650Y7450D01*
X11700Y7500D01*
X11727Y7565D01*
Y7635D01*
X11700Y7700D01*
X11650Y7750D01*
X11585Y7777D01*
D02*
G37*
G36*
X12885Y7627D02*
X12815D01*
X12750Y7600D01*
X12700Y7550D01*
X12673Y7485D01*
Y7415D01*
X12700Y7350D01*
X12750Y7300D01*
X12815Y7273D01*
X12885D01*
X12950Y7300D01*
X13000Y7350D01*
X13027Y7415D01*
Y7485D01*
X13000Y7550D01*
X12950Y7600D01*
X12885Y7627D01*
D02*
G37*
G36*
X32436Y7626D02*
X32364D01*
X32294Y7607D01*
X32231Y7571D01*
X32179Y7519D01*
X32143Y7456D01*
X32124Y7386D01*
Y7314D01*
X32143Y7244D01*
X32179Y7181D01*
X32231Y7129D01*
X32294Y7093D01*
X32364Y7074D01*
X32436D01*
X32506Y7093D01*
X32569Y7129D01*
X32621Y7181D01*
X32657Y7244D01*
X32676Y7314D01*
Y7386D01*
X32657Y7456D01*
X32621Y7519D01*
X32569Y7571D01*
X32506Y7607D01*
X32436Y7626D01*
D02*
G37*
G36*
X31451Y7734D02*
X31349D01*
X31252Y7708D01*
X31164Y7657D01*
X31093Y7586D01*
X31042Y7498D01*
X31016Y7401D01*
Y7299D01*
X31042Y7202D01*
X31093Y7114D01*
X31164Y7043D01*
X31252Y6992D01*
X31349Y6966D01*
X31451D01*
X31548Y6992D01*
X31636Y7043D01*
X31707Y7114D01*
X31758Y7202D01*
X31784Y7299D01*
Y7401D01*
X31758Y7498D01*
X31707Y7586D01*
X31636Y7657D01*
X31548Y7708D01*
X31451Y7734D01*
D02*
G37*
G36*
X2701Y7284D02*
X2599D01*
X2502Y7258D01*
X2414Y7207D01*
X2343Y7136D01*
X2292Y7048D01*
X2266Y6951D01*
Y6849D01*
X2292Y6752D01*
X2343Y6664D01*
X2414Y6593D01*
X2502Y6542D01*
X2599Y6516D01*
X2701D01*
X2798Y6542D01*
X2886Y6593D01*
X2957Y6664D01*
X3008Y6752D01*
X3034Y6849D01*
Y6951D01*
X3008Y7048D01*
X2957Y7136D01*
X2886Y7207D01*
X2798Y7258D01*
X2701Y7284D01*
D02*
G37*
G36*
X12335Y6827D02*
X12265D01*
X12200Y6800D01*
X12150Y6750D01*
X12123Y6685D01*
Y6615D01*
X12150Y6550D01*
X12200Y6500D01*
X12265Y6473D01*
X12335D01*
X12400Y6500D01*
X12450Y6550D01*
X12477Y6615D01*
Y6685D01*
X12450Y6750D01*
X12400Y6800D01*
X12335Y6827D01*
D02*
G37*
G36*
X18335Y6577D02*
X18265D01*
X18200Y6550D01*
X18150Y6500D01*
X18123Y6435D01*
Y6365D01*
X18150Y6300D01*
X18200Y6250D01*
X18265Y6223D01*
X18335D01*
X18400Y6250D01*
X18450Y6300D01*
X18477Y6365D01*
Y6435D01*
X18450Y6500D01*
X18400Y6550D01*
X18335Y6577D01*
D02*
G37*
G36*
X32436Y6626D02*
X32364D01*
X32294Y6607D01*
X32231Y6571D01*
X32179Y6519D01*
X32143Y6456D01*
X32124Y6386D01*
Y6314D01*
X32143Y6244D01*
X32179Y6181D01*
X32231Y6129D01*
X32294Y6093D01*
X32364Y6074D01*
X32436D01*
X32506Y6093D01*
X32569Y6129D01*
X32621Y6181D01*
X32657Y6244D01*
X32676Y6314D01*
Y6386D01*
X32657Y6456D01*
X32621Y6519D01*
X32569Y6571D01*
X32506Y6607D01*
X32436Y6626D01*
D02*
G37*
G36*
X31451Y6734D02*
X31349D01*
X31252Y6708D01*
X31164Y6657D01*
X31093Y6586D01*
X31042Y6498D01*
X31016Y6401D01*
Y6299D01*
X31042Y6202D01*
X31093Y6114D01*
X31164Y6043D01*
X31252Y5992D01*
X31349Y5966D01*
X31451D01*
X31548Y5992D01*
X31636Y6043D01*
X31707Y6114D01*
X31758Y6202D01*
X31784Y6299D01*
Y6401D01*
X31758Y6498D01*
X31707Y6586D01*
X31636Y6657D01*
X31548Y6708D01*
X31451Y6734D01*
D02*
G37*
G36*
X16531Y5977D02*
X16460D01*
X16395Y5950D01*
X16348Y5903D01*
X16300Y5950D01*
X16235Y5977D01*
X16165D01*
X16100Y5950D01*
X16050Y5900D01*
X16023Y5835D01*
Y5765D01*
X16050Y5700D01*
X16100Y5650D01*
X16165Y5623D01*
X16235D01*
X16300Y5650D01*
X16348Y5697D01*
X16395Y5650D01*
X16460Y5623D01*
X16531D01*
X16596Y5650D01*
X16645Y5700D01*
X16672Y5765D01*
Y5835D01*
X16645Y5900D01*
X16596Y5950D01*
X16531Y5977D01*
D02*
G37*
G36*
X13400Y6052D02*
X13329D01*
X13264Y6025D01*
X13214Y5975D01*
X13187Y5910D01*
Y5839D01*
X13214Y5774D01*
X13264Y5724D01*
X13329Y5698D01*
X13400D01*
X13465Y5724D01*
X13505Y5694D01*
X13550Y5650D01*
X13615Y5623D01*
X13685D01*
X13750Y5650D01*
X13800Y5700D01*
X13827Y5765D01*
Y5835D01*
X13800Y5900D01*
X13750Y5950D01*
X13685Y5977D01*
X13615D01*
X13550Y5950D01*
X13509Y5980D01*
X13465Y6025D01*
X13400Y6052D01*
D02*
G37*
G36*
X2701Y6284D02*
X2599D01*
X2502Y6258D01*
X2414Y6207D01*
X2343Y6136D01*
X2292Y6048D01*
X2266Y5951D01*
Y5849D01*
X2292Y5752D01*
X2343Y5664D01*
X2414Y5593D01*
X2502Y5542D01*
X2599Y5516D01*
X2701D01*
X2798Y5542D01*
X2886Y5593D01*
X2957Y5664D01*
X3008Y5752D01*
X3034Y5849D01*
Y5951D01*
X3008Y6048D01*
X2957Y6136D01*
X2886Y6207D01*
X2798Y6258D01*
X2701Y6284D01*
D02*
G37*
G36*
X30929Y5404D02*
X30858D01*
X30793Y5377D01*
X30743Y5327D01*
X30717Y5262D01*
Y5191D01*
X30743Y5126D01*
X30793Y5076D01*
X30858Y5049D01*
X30929D01*
X30994Y5076D01*
X31044Y5126D01*
X31071Y5191D01*
Y5262D01*
X31044Y5327D01*
X30994Y5377D01*
X30929Y5404D01*
D02*
G37*
G36*
X22235Y5277D02*
X22165D01*
X22100Y5250D01*
X22050Y5200D01*
X22023Y5135D01*
Y5065D01*
X22050Y5000D01*
X22100Y4950D01*
X22165Y4923D01*
X22235D01*
X22300Y4950D01*
X22350Y5000D01*
X22377Y5065D01*
Y5135D01*
X22350Y5200D01*
X22300Y5250D01*
X22235Y5277D01*
D02*
G37*
G36*
X2701Y5284D02*
X2599D01*
X2502Y5258D01*
X2414Y5207D01*
X2343Y5136D01*
X2292Y5048D01*
X2266Y4951D01*
Y4849D01*
X2292Y4752D01*
X2343Y4664D01*
X2414Y4593D01*
X2502Y4542D01*
X2599Y4516D01*
X2701D01*
X2798Y4542D01*
X2886Y4593D01*
X2957Y4664D01*
X3008Y4752D01*
X3034Y4849D01*
Y4951D01*
X3008Y5048D01*
X2957Y5136D01*
X2886Y5207D01*
X2798Y5258D01*
X2701Y5284D01*
D02*
G37*
G36*
X29435Y4627D02*
X29365D01*
X29300Y4600D01*
X29250Y4550D01*
X29223Y4485D01*
Y4415D01*
X29250Y4350D01*
X29300Y4300D01*
X29365Y4273D01*
X29435D01*
X29500Y4300D01*
X29550Y4350D01*
X29577Y4415D01*
Y4485D01*
X29550Y4550D01*
X29500Y4600D01*
X29435Y4627D01*
D02*
G37*
G36*
X28822Y4241D02*
X28751D01*
X28686Y4214D01*
X28636Y4164D01*
X28609Y4099D01*
Y4028D01*
X28636Y3963D01*
X28686Y3913D01*
X28751Y3887D01*
X28822D01*
X28887Y3913D01*
X28937Y3963D01*
X28963Y4028D01*
Y4099D01*
X28937Y4164D01*
X28887Y4214D01*
X28822Y4241D01*
D02*
G37*
G36*
X2701Y4284D02*
X2599D01*
X2502Y4258D01*
X2414Y4207D01*
X2343Y4136D01*
X2292Y4048D01*
X2266Y3951D01*
Y3849D01*
X2292Y3752D01*
X2343Y3664D01*
X2414Y3593D01*
X2502Y3542D01*
X2599Y3516D01*
X2701D01*
X2798Y3542D01*
X2886Y3593D01*
X2957Y3664D01*
X3008Y3752D01*
X3034Y3849D01*
Y3951D01*
X3008Y4048D01*
X2957Y4136D01*
X2886Y4207D01*
X2798Y4258D01*
X2701Y4284D01*
D02*
G37*
G36*
X3235Y4377D02*
X3165D01*
X3100Y4350D01*
X3050Y4300D01*
X3023Y4235D01*
Y4165D01*
X3050Y4100D01*
X3100Y4050D01*
X3165Y4023D01*
X3217D01*
X3227Y3973D01*
X3219Y3969D01*
X3169Y3919D01*
X3142Y3854D01*
Y3784D01*
X3169Y3719D01*
X3219Y3669D01*
X3284Y3642D01*
X3354D01*
X3419Y3669D01*
X3423Y3672D01*
X3473Y3652D01*
Y3615D01*
X3500Y3550D01*
X3550Y3500D01*
X3615Y3473D01*
X3685D01*
X3723Y3488D01*
X3773Y3457D01*
Y3431D01*
X3800Y3366D01*
X3850Y3316D01*
X3915Y3289D01*
X3985D01*
X4050Y3316D01*
X4100Y3366D01*
X4127Y3431D01*
Y3501D01*
X4100Y3566D01*
X4050Y3616D01*
X3985Y3643D01*
X3915D01*
X3877Y3627D01*
X3827Y3659D01*
Y3685D01*
X3800Y3750D01*
X3750Y3800D01*
X3685Y3827D01*
X3615D01*
X3550Y3800D01*
X3546Y3797D01*
X3496Y3817D01*
Y3854D01*
X3469Y3919D01*
X3419Y3969D01*
X3354Y3996D01*
X3302D01*
X3292Y4046D01*
X3300Y4050D01*
X3350Y4100D01*
X3377Y4165D01*
Y4235D01*
X3350Y4300D01*
X3300Y4350D01*
X3235Y4377D01*
D02*
G37*
G36*
X27585Y3127D02*
X27515D01*
X27450Y3100D01*
X27400Y3050D01*
X27373Y2985D01*
Y2915D01*
X27400Y2850D01*
X27450Y2800D01*
X27515Y2773D01*
X27585D01*
X27650Y2800D01*
X27700Y2850D01*
X27727Y2915D01*
Y2985D01*
X27700Y3050D01*
X27650Y3100D01*
X27585Y3127D01*
D02*
G37*
G36*
X2701Y3284D02*
X2599D01*
X2502Y3258D01*
X2414Y3207D01*
X2343Y3136D01*
X2292Y3048D01*
X2266Y2951D01*
Y2849D01*
X2292Y2752D01*
X2343Y2664D01*
X2414Y2593D01*
X2502Y2542D01*
X2599Y2516D01*
X2701D01*
X2798Y2542D01*
X2886Y2593D01*
X2957Y2664D01*
X3008Y2752D01*
X3034Y2849D01*
Y2951D01*
X3008Y3048D01*
X2957Y3136D01*
X2886Y3207D01*
X2798Y3258D01*
X2701Y3284D01*
D02*
G37*
G36*
Y2284D02*
X2599D01*
X2502Y2258D01*
X2414Y2207D01*
X2343Y2136D01*
X2292Y2048D01*
X2266Y1951D01*
Y1849D01*
X2292Y1752D01*
X2343Y1664D01*
X2414Y1593D01*
X2502Y1542D01*
X2599Y1516D01*
X2701D01*
X2798Y1542D01*
X2886Y1593D01*
X2957Y1664D01*
X3008Y1752D01*
X3034Y1849D01*
Y1951D01*
X3008Y2048D01*
X2957Y2136D01*
X2886Y2207D01*
X2798Y2258D01*
X2701Y2284D01*
D02*
G37*
G36*
X27585Y1577D02*
X27515D01*
X27450Y1550D01*
X27400Y1500D01*
X27373Y1435D01*
Y1365D01*
X27400Y1300D01*
X27450Y1250D01*
X27515Y1223D01*
X27585D01*
X27650Y1250D01*
X27700Y1300D01*
X27727Y1365D01*
Y1435D01*
X27700Y1500D01*
X27650Y1550D01*
X27585Y1577D01*
D02*
G37*
%LPD*%
D64*
X31400Y12200D02*
D03*
Y10800D02*
D03*
Y8350D02*
D03*
D66*
X4700Y14450D02*
D03*
X5200D02*
D03*
D70*
X17600Y11900D02*
D03*
X23131Y10195D02*
D03*
Y10645D02*
D03*
X19481Y13095D02*
D03*
X14300Y14000D02*
D03*
X21050Y10300D02*
D03*
X23117Y16059D02*
D03*
X12600Y6600D02*
D03*
X25650Y16750D02*
D03*
X22550Y4650D02*
D03*
X22100Y13350D02*
D03*
X23117Y16509D02*
D03*
X22150Y12050D02*
D03*
X22159Y12396D02*
D03*
X22150Y11700D02*
D03*
M02*
