G04*
G04 #@! TF.GenerationSoftware,Altium Limited,Altium Designer,23.3.1 (30)*
G04*
G04 Layer_Color=16711935*
%FSLAX24Y24*%
%MOIN*%
G70*
G04*
G04 #@! TF.SameCoordinates,0EE62ADF-7674-4DCD-90CA-8C9100EC0EC2*
G04*
G04*
G04 #@! TF.FilePolarity,Positive*
G04*
G01*
G75*
%ADD12C,0.0079*%
%ADD13C,0.0050*%
%ADD72C,0.0039*%
%ADD73C,0.0020*%
D12*
X2689Y9687D02*
G03*
X2689Y9687I-39J0D01*
G01*
X5265Y4493D02*
G03*
X5265Y4493I-39J0D01*
G01*
X2689Y17987D02*
G03*
X2689Y17987I-39J0D01*
G01*
X28441Y14450D02*
G03*
X28441Y14450I-39J0D01*
G01*
X27858Y15516D02*
G03*
X27858Y15516I-39J0D01*
G01*
X29266Y1600D02*
G03*
X29266Y1600I-39J0D01*
G01*
X31439Y11413D02*
G03*
X31439Y11413I-39J0D01*
G01*
X33013Y15400D02*
G03*
X33013Y15400I-39J0D01*
G01*
X21199Y3507D02*
G03*
X21199Y3507I-39J0D01*
G01*
X31439Y9013D02*
G03*
X31439Y9013I-39J0D01*
G01*
X19096Y8819D02*
G03*
X19096Y8819I-39J0D01*
G01*
X31439Y5563D02*
G03*
X31439Y5563I-39J0D01*
G01*
X29266Y3250D02*
G03*
X29266Y3250I-39J0D01*
G01*
D13*
X1430Y9491D02*
X3870D01*
Y1309D02*
Y9491D01*
X1430Y1309D02*
X3870D01*
X1430D02*
Y9491D01*
X6578Y14700D02*
X8074D01*
Y4700D02*
Y14700D01*
X6578Y4700D02*
X8074D01*
X6184D02*
Y14700D01*
X6578D01*
Y4700D02*
Y14700D01*
X6184Y4700D02*
X6578D01*
X1430Y9609D02*
Y17791D01*
Y9609D02*
X3870D01*
Y17791D01*
X1430D02*
X3870D01*
X28650Y14863D02*
X30150D01*
Y14037D02*
Y14863D01*
X28650Y14037D02*
X30150D01*
X28650D02*
Y14863D01*
X27051Y16244D02*
X27444Y15851D01*
X27051Y16244D02*
Y18449D01*
X29649D01*
Y16244D02*
Y18449D01*
X29256Y15851D02*
X29649Y16244D01*
X27444Y15851D02*
X29256D01*
X29719Y2289D02*
X32081D01*
Y911D02*
Y2289D01*
X29719Y911D02*
X32081D01*
X29719D02*
Y2289D01*
X30180Y13791D02*
X32620D01*
X30180Y11609D02*
X32620D01*
X30180D02*
Y13791D01*
X32620Y11609D02*
Y13791D01*
X29954Y8098D02*
Y9802D01*
X28946Y8098D02*
X29954D01*
X28946D02*
Y9802D01*
X29954D01*
X28946Y5315D02*
Y7020D01*
X29954D01*
Y5315D02*
Y7020D01*
X28946Y5315D02*
X29954D01*
X23017Y5117D02*
Y5683D01*
X23883Y5117D02*
Y5683D01*
X23017D02*
X23883D01*
X23017Y5117D02*
X23883D01*
X32300Y15150D02*
Y17650D01*
X30300D02*
X32300D01*
X30300Y15150D02*
Y17650D01*
Y15150D02*
X32300D01*
X23517Y1634D02*
Y3566D01*
X21983Y1634D02*
Y3566D01*
Y1634D02*
X23517D01*
X21983Y3566D02*
X23517D01*
X30180Y11391D02*
X32620D01*
X30180Y9209D02*
X32620D01*
X30180D02*
Y11391D01*
X32620Y9209D02*
Y11391D01*
X19056Y9035D02*
X19844D01*
Y9665D01*
X19056D02*
X19844D01*
X19056Y9035D02*
Y9665D01*
X24517Y3567D02*
Y4133D01*
X25383Y3567D02*
Y4133D01*
X24517D02*
X25383D01*
X24517Y3567D02*
X25383D01*
X24556Y1317D02*
Y1883D01*
X25422Y1317D02*
Y1883D01*
X24556D02*
X25422D01*
X24556Y1317D02*
X25422D01*
X30180Y8941D02*
X32620D01*
X30180Y5759D02*
X32620D01*
X30180D02*
Y8941D01*
X32620Y5759D02*
Y8941D01*
X28583Y11467D02*
Y12033D01*
X27717Y11467D02*
Y12033D01*
Y11467D02*
X28583D01*
X27717Y12033D02*
X28583D01*
X29719Y3939D02*
X32081D01*
Y2561D02*
Y3939D01*
X29719Y2561D02*
X32081D01*
X29719D02*
Y3939D01*
X25201Y12472D02*
X27799D01*
Y15228D01*
X25201D02*
X27799D01*
X25201Y12472D02*
Y15228D01*
D72*
X12598Y6659D02*
X18109D01*
X12598D02*
Y12171D01*
X18109D01*
Y6659D02*
Y12171D01*
X17913Y6659D02*
X18109Y6856D01*
X21182Y15065D02*
X21682Y15565D01*
X21182Y13635D02*
Y15565D01*
Y13635D02*
X22718D01*
Y15565D01*
X21182D02*
X22718D01*
D73*
X20483Y13517D02*
Y15683D01*
Y13517D02*
X23417D01*
Y15683D01*
X20483D02*
X23417D01*
M02*
