G04*
G04 #@! TF.GenerationSoftware,Altium Limited,Altium Designer,23.3.1 (30)*
G04*
G04 Layer_Color=8421504*
%FSLAX24Y24*%
%MOIN*%
G70*
G04*
G04 #@! TF.SameCoordinates,D40D81B0-760B-49B0-83D9-93248203E87C*
G04*
G04*
G04 #@! TF.FilePolarity,Positive*
G04*
G01*
G75*
%ADD17R,0.0449X0.0500*%
%ADD18R,0.0472X0.0579*%
%ADD19R,0.0276X0.0295*%
%ADD20R,0.0492X0.0433*%
%ADD21R,0.0500X0.0449*%
%ADD22R,0.0472X0.0236*%
%ADD23R,0.1106X0.0539*%
%ADD24R,0.1378X0.0925*%
%ADD25R,0.0579X0.0472*%
%ADD26R,0.0961X0.0445*%
%ADD27R,0.0835X0.0591*%
%ADD28R,0.1043X0.0291*%
%ADD29R,0.0650X0.0374*%
%ADD30R,0.0650X0.1260*%
%ADD31R,0.1060X0.0440*%
%ADD32R,0.0354X0.0551*%
%ADD33R,0.0689X0.1043*%
G04:AMPARAMS|DCode=34|XSize=77.6mil|YSize=23.6mil|CornerRadius=3mil|HoleSize=0mil|Usage=FLASHONLY|Rotation=0.000|XOffset=0mil|YOffset=0mil|HoleType=Round|Shape=RoundedRectangle|*
%AMROUNDEDRECTD34*
21,1,0.0776,0.0177,0,0,0.0*
21,1,0.0717,0.0236,0,0,0.0*
1,1,0.0059,0.0358,-0.0089*
1,1,0.0059,-0.0358,-0.0089*
1,1,0.0059,-0.0358,0.0089*
1,1,0.0059,0.0358,0.0089*
%
%ADD34ROUNDEDRECTD34*%
G04:AMPARAMS|DCode=35|XSize=61.4mil|YSize=11mil|CornerRadius=2.8mil|HoleSize=0mil|Usage=FLASHONLY|Rotation=0.000|XOffset=0mil|YOffset=0mil|HoleType=Round|Shape=RoundedRectangle|*
%AMROUNDEDRECTD35*
21,1,0.0614,0.0055,0,0,0.0*
21,1,0.0559,0.0110,0,0,0.0*
1,1,0.0055,0.0280,-0.0028*
1,1,0.0055,-0.0280,-0.0028*
1,1,0.0055,-0.0280,0.0028*
1,1,0.0055,0.0280,0.0028*
%
%ADD35ROUNDEDRECTD35*%
G04:AMPARAMS|DCode=36|XSize=61.4mil|YSize=11mil|CornerRadius=2.8mil|HoleSize=0mil|Usage=FLASHONLY|Rotation=270.000|XOffset=0mil|YOffset=0mil|HoleType=Round|Shape=RoundedRectangle|*
%AMROUNDEDRECTD36*
21,1,0.0614,0.0055,0,0,270.0*
21,1,0.0559,0.0110,0,0,270.0*
1,1,0.0055,-0.0028,-0.0280*
1,1,0.0055,-0.0028,0.0280*
1,1,0.0055,0.0028,0.0280*
1,1,0.0055,0.0028,-0.0280*
%
%ADD36ROUNDEDRECTD36*%
D17*
X12100Y9900D02*
D03*
X12900D02*
D03*
X12950Y11350D02*
D03*
X13750D02*
D03*
X24600Y9550D02*
D03*
X25400D02*
D03*
X21801Y10550D02*
D03*
X22600D02*
D03*
X24600Y8750D02*
D03*
X25400D02*
D03*
X23350Y10700D02*
D03*
X24150D02*
D03*
X25650D02*
D03*
X24850D02*
D03*
X24050Y3500D02*
D03*
X23250D02*
D03*
X30350Y4450D02*
D03*
X31150D02*
D03*
X23250Y4100D02*
D03*
X24050D02*
D03*
X30350Y5200D02*
D03*
X31150D02*
D03*
X24050Y1750D02*
D03*
X23250D02*
D03*
X23000Y13050D02*
D03*
X23800D02*
D03*
X20849Y11250D02*
D03*
X20050D02*
D03*
X23250Y2400D02*
D03*
X24050D02*
D03*
X12100Y10550D02*
D03*
X12900D02*
D03*
D18*
X26461Y15350D02*
D03*
X27139D02*
D03*
X26889Y9550D02*
D03*
X26211D02*
D03*
X26889Y8750D02*
D03*
X26211D02*
D03*
X24139Y11450D02*
D03*
X23461D02*
D03*
D19*
X13897Y10566D02*
D03*
Y10034D02*
D03*
X13503D02*
D03*
Y10566D02*
D03*
D20*
X31937Y5200D02*
D03*
X32863D02*
D03*
X31937Y4450D02*
D03*
X32863D02*
D03*
D21*
X14250Y5850D02*
D03*
Y6650D02*
D03*
X16200Y12750D02*
D03*
Y13550D02*
D03*
X17450Y14550D02*
D03*
Y15350D02*
D03*
Y17200D02*
D03*
Y16400D02*
D03*
X13600Y5850D02*
D03*
Y6650D02*
D03*
X15550Y5850D02*
D03*
Y6650D02*
D03*
X13700Y8150D02*
D03*
Y8950D02*
D03*
X22850Y15850D02*
D03*
Y15050D02*
D03*
X18150Y14544D02*
D03*
Y15343D02*
D03*
X18700Y5900D02*
D03*
Y6700D02*
D03*
X14900Y5850D02*
D03*
Y6650D02*
D03*
X13100Y8150D02*
D03*
Y8950D02*
D03*
X17950Y5900D02*
D03*
Y6700D02*
D03*
X18150Y17200D02*
D03*
Y16400D02*
D03*
X15300Y13550D02*
D03*
Y12750D02*
D03*
X22100Y13950D02*
D03*
Y13150D02*
D03*
X21450Y13150D02*
D03*
Y13950D02*
D03*
X22850Y16600D02*
D03*
Y17400D02*
D03*
D22*
X23834Y14424D02*
D03*
Y14050D02*
D03*
Y13676D02*
D03*
X22850D02*
D03*
Y14050D02*
D03*
Y14424D02*
D03*
D23*
X25100Y13809D02*
D03*
Y12691D02*
D03*
X26450D02*
D03*
Y13809D02*
D03*
D24*
X24700Y17732D02*
D03*
Y15350D02*
D03*
D25*
X12300Y8889D02*
D03*
Y8211D02*
D03*
D26*
X29243Y7000D02*
D03*
Y6000D02*
D03*
Y5000D02*
D03*
Y4000D02*
D03*
Y3000D02*
D03*
Y2000D02*
D03*
X25857Y7000D02*
D03*
Y6000D02*
D03*
Y5000D02*
D03*
Y4000D02*
D03*
Y3000D02*
D03*
Y2000D02*
D03*
D27*
X29483Y10100D02*
D03*
X27817D02*
D03*
X29483Y8800D02*
D03*
X27817D02*
D03*
D28*
X30483Y17400D02*
D03*
X32117D02*
D03*
X30483Y16900D02*
D03*
X32117D02*
D03*
X30483Y16400D02*
D03*
X32117D02*
D03*
X30483Y15900D02*
D03*
X32117D02*
D03*
Y15400D02*
D03*
X30483D02*
D03*
D29*
X19140Y17156D02*
D03*
Y16250D02*
D03*
Y15344D02*
D03*
D30*
X21660Y16250D02*
D03*
D31*
X29300Y12460D02*
D03*
Y13640D02*
D03*
D32*
X33030Y3250D02*
D03*
X30470D02*
D03*
X33030Y1550D02*
D03*
X30470D02*
D03*
D33*
X27950Y14796D02*
D03*
Y13104D02*
D03*
D34*
X23572Y9850D02*
D03*
Y9350D02*
D03*
Y8850D02*
D03*
Y8350D02*
D03*
X21628D02*
D03*
Y8850D02*
D03*
Y9350D02*
D03*
Y9850D02*
D03*
D35*
X19136Y11226D02*
D03*
Y11030D02*
D03*
Y10833D02*
D03*
Y10636D02*
D03*
Y10439D02*
D03*
Y10242D02*
D03*
Y10045D02*
D03*
Y9848D02*
D03*
Y9652D02*
D03*
Y9455D02*
D03*
Y9258D02*
D03*
Y9061D02*
D03*
Y8864D02*
D03*
Y8667D02*
D03*
Y8470D02*
D03*
Y8274D02*
D03*
X14664D02*
D03*
Y8470D02*
D03*
Y8667D02*
D03*
Y8864D02*
D03*
Y9061D02*
D03*
Y9258D02*
D03*
Y9455D02*
D03*
Y9652D02*
D03*
Y9848D02*
D03*
Y10045D02*
D03*
Y10242D02*
D03*
Y10439D02*
D03*
Y10636D02*
D03*
Y10833D02*
D03*
Y11030D02*
D03*
Y11226D02*
D03*
D36*
X18376Y7514D02*
D03*
X18180D02*
D03*
X17983D02*
D03*
X17786D02*
D03*
X17589D02*
D03*
X17392D02*
D03*
X17195D02*
D03*
X16998D02*
D03*
X16802D02*
D03*
X16605D02*
D03*
X16408D02*
D03*
X16211D02*
D03*
X16014D02*
D03*
X15817D02*
D03*
X15620D02*
D03*
X15424D02*
D03*
Y11986D02*
D03*
X15620D02*
D03*
X15817D02*
D03*
X16014D02*
D03*
X16211D02*
D03*
X16408D02*
D03*
X16605D02*
D03*
X16802D02*
D03*
X16998D02*
D03*
X17195D02*
D03*
X17392D02*
D03*
X17589D02*
D03*
X17786D02*
D03*
X17983D02*
D03*
X18180D02*
D03*
X18376D02*
D03*
M02*
