M48
;Layer_Color=9474304
;FILE_FORMAT=2:4
INCH,LZ
;TYPE=PLATED
T1F00S00C0.0118
T2F00S00C0.0256
T3F00S00C0.0276
T4F00S00C0.0433
%
T01
X0028Y0033
X003007Y0036
X00325Y0039
X00355Y00405
X003757Y0049
X007539Y004599
X009039
X010539
X012039
X013539
X014289Y003099
X015039Y001599
X013539
X012039
X010539
X009039
X007539
X006039
X004539
X006789Y006099
X008289
X009789
X011289
X012789
X013093Y006661
X014993Y007061
X015356Y009414
X015304Y009705
X0146Y01155
X01485Y01275
X013539Y013599
X014289Y015099
X012789
X010539Y013599
X01085Y01205
X01115Y01235
X010539Y010599
X011289Y009099
X011743Y008261
X009789Y009099
X008289
X006789
X007539Y010599
X006789Y012099
X007539Y013599
X00725Y0141
X001539Y013599
Y010599
X007539Y007599
X009039
X0161Y00805
X0164Y00815
X0167Y0081
X015789Y009099
X016539Y010599
X0164Y01145
X016738Y011505
X017307Y011499
X0176Y0113
X01845Y01085
X018641Y00985
X018789Y012099
X0187Y0124
X018039Y013621
X019539
X021039
X021789Y015099
X020289
X016924Y015368
X020043Y011661
X02255Y0111
X024314Y013319
X027039Y010599
X028539
Y007599
X030039
X030789Y006099
X03035Y00565
X027789Y006099
X027039Y004599
X027789Y003099
X028539Y001599
X030039
X027039
X02325Y0013
X022539Y001599
X021039
X019539
X018039
X016539
X017289Y003099
X018789
X020289
X021789
X0228Y0035
X022539Y004599
X021039
X019539
X018039
X016539
X017289Y006099
X019143Y006711
X020289Y006099
X021789
X023289
X015789Y003099
X030789Y012099
X0297Y0154
X032843Y015411
X032289Y009099
Y018099
X030789
X029289
X027789
X026289
X027039Y016599
X025539
X024039
X021039
X021789Y018099
X020289
X018789
X017289
X015789
X016539Y016599
X01685Y0166
Y0162
X0297Y0159
X015039Y016599
X013465Y016408
X012039
X010539
X0088
X008595Y016195
X008277Y016129
X008068Y015918
X0086Y0177
X008289Y018099
X009789
X011289
X012789
X014289
X006789
X005289
X003789
X002289
X001539Y016599
X004539
X006039Y016408
T02
X0289Y01445
X0294
X0299
T03
X00415Y005
X00465
Y0055
X00415
Y006
X00465
Y0065
X00415
Y007
X00465
Y0075
X00415
Y008
X00465
Y0085
X00415
Y009
X00465
Y0095
X00415
Y01
X00465
Y0105
X00415
Y011
X00465
Y0115
X00415
Y012
X00465
Y0125
X00415
Y013
X00465
Y0135
X00415
Y014
X00465
Y0145
X00415
T04
X00225Y00195
Y00295
Y00395
Y00495
Y00595
Y00695
Y00795
Y00895
Y01025
Y01125
Y01225
Y01325
Y01425
Y01525
X03145Y0132
Y0122
Y0108
Y0098
X0314Y0084
Y0074
Y0064
X00225Y01625
Y01725
M30
