G04*
G04 #@! TF.GenerationSoftware,Altium Limited,Altium Designer,23.3.1 (30)*
G04*
G04 Layer_Physical_Order=1*
G04 Layer_Color=255*
%FSLAX24Y24*%
%MOIN*%
G70*
G04*
G04 #@! TF.SameCoordinates,D40D81B0-760B-49B0-83D9-93248203E87C*
G04*
G04*
G04 #@! TF.FilePolarity,Positive*
G04*
G01*
G75*
%ADD16C,0.0060*%
%ADD17R,0.0449X0.0500*%
%ADD18R,0.0472X0.0579*%
%ADD19R,0.0276X0.0295*%
%ADD20R,0.0492X0.0433*%
%ADD21R,0.0500X0.0449*%
%ADD22R,0.0472X0.0236*%
%ADD23R,0.1106X0.0539*%
%ADD24R,0.1378X0.0925*%
%ADD25R,0.0579X0.0472*%
%ADD26R,0.0961X0.0445*%
%ADD27R,0.0835X0.0591*%
%ADD28R,0.1043X0.0291*%
%ADD29R,0.0650X0.0374*%
%ADD30R,0.0650X0.1260*%
%ADD31R,0.1060X0.0440*%
%ADD32R,0.0354X0.0551*%
%ADD33R,0.0689X0.1043*%
G04:AMPARAMS|DCode=34|XSize=77.6mil|YSize=23.6mil|CornerRadius=3mil|HoleSize=0mil|Usage=FLASHONLY|Rotation=0.000|XOffset=0mil|YOffset=0mil|HoleType=Round|Shape=RoundedRectangle|*
%AMROUNDEDRECTD34*
21,1,0.0776,0.0177,0,0,0.0*
21,1,0.0717,0.0236,0,0,0.0*
1,1,0.0059,0.0358,-0.0089*
1,1,0.0059,-0.0358,-0.0089*
1,1,0.0059,-0.0358,0.0089*
1,1,0.0059,0.0358,0.0089*
%
%ADD34ROUNDEDRECTD34*%
G04:AMPARAMS|DCode=35|XSize=61.4mil|YSize=11mil|CornerRadius=2.8mil|HoleSize=0mil|Usage=FLASHONLY|Rotation=0.000|XOffset=0mil|YOffset=0mil|HoleType=Round|Shape=RoundedRectangle|*
%AMROUNDEDRECTD35*
21,1,0.0614,0.0055,0,0,0.0*
21,1,0.0559,0.0110,0,0,0.0*
1,1,0.0055,0.0280,-0.0028*
1,1,0.0055,-0.0280,-0.0028*
1,1,0.0055,-0.0280,0.0028*
1,1,0.0055,0.0280,0.0028*
%
%ADD35ROUNDEDRECTD35*%
G04:AMPARAMS|DCode=36|XSize=61.4mil|YSize=11mil|CornerRadius=2.8mil|HoleSize=0mil|Usage=FLASHONLY|Rotation=270.000|XOffset=0mil|YOffset=0mil|HoleType=Round|Shape=RoundedRectangle|*
%AMROUNDEDRECTD36*
21,1,0.0614,0.0055,0,0,270.0*
21,1,0.0559,0.0110,0,0,270.0*
1,1,0.0055,-0.0028,-0.0280*
1,1,0.0055,-0.0028,0.0280*
1,1,0.0055,0.0028,0.0280*
1,1,0.0055,0.0028,-0.0280*
%
%ADD36ROUNDEDRECTD36*%
%ADD63C,0.0250*%
%ADD64C,0.0200*%
%ADD65C,0.0120*%
%ADD66R,0.0650X0.0650*%
%ADD67C,0.0650*%
%ADD68C,0.0433*%
%ADD69R,0.0413X0.0413*%
%ADD70C,0.0413*%
%ADD71R,0.0413X0.0413*%
%ADD72C,0.0236*%
G36*
X5079Y14527D02*
Y12700D01*
X5000Y12621D01*
X4887D01*
X4863Y12663D01*
X4813Y12713D01*
X4798Y12721D01*
Y12779D01*
X4813Y12787D01*
X4863Y12837D01*
X4898Y12897D01*
X4916Y12965D01*
Y13035D01*
X4898Y13103D01*
X4863Y13163D01*
X4813Y13213D01*
X4798Y13221D01*
Y13279D01*
X4813Y13287D01*
X4863Y13337D01*
X4898Y13397D01*
X4916Y13465D01*
Y13535D01*
X4898Y13603D01*
X4863Y13663D01*
X4813Y13713D01*
X4798Y13721D01*
Y13779D01*
X4813Y13787D01*
X4863Y13837D01*
X4898Y13897D01*
X4916Y13965D01*
Y14035D01*
X4898Y14103D01*
X4863Y14163D01*
X4832Y14193D01*
X4836Y14253D01*
X4838Y14255D01*
X4895Y14312D01*
X4936Y14382D01*
X4957Y14460D01*
Y14470D01*
X4650D01*
Y14530D01*
X4957D01*
Y14540D01*
X4943Y14592D01*
X4988Y14618D01*
X5079Y14527D01*
D02*
G37*
G36*
X32188Y18999D02*
X32278D01*
X32457Y18975D01*
X32631Y18928D01*
X32798Y18859D01*
X32955Y18769D01*
X33098Y18659D01*
X33226Y18531D01*
X33336Y18388D01*
X33426Y18231D01*
X33495Y18064D01*
X33542Y17890D01*
X33565Y17711D01*
Y17621D01*
X33565D01*
X33565Y1676D01*
Y1585D01*
X33542Y1406D01*
X33495Y1232D01*
X33426Y1065D01*
X33336Y909D01*
X33226Y765D01*
X33098Y638D01*
X32955Y528D01*
X32798Y437D01*
X32631Y368D01*
X32457Y321D01*
X32278Y298D01*
X32188Y298D01*
X3109D01*
X3089Y348D01*
X6310Y3569D01*
X6310Y3569D01*
X6336Y3609D01*
X6346Y3655D01*
Y8176D01*
X6346Y8176D01*
X6336Y8222D01*
X6310Y8262D01*
X6310Y8262D01*
X5986Y8586D01*
X5946Y8612D01*
X5900Y8621D01*
X5900Y8621D01*
X4887D01*
X4863Y8663D01*
X4813Y8713D01*
X4798Y8721D01*
Y8779D01*
X4813Y8787D01*
X4863Y8837D01*
X4887Y8879D01*
X5950D01*
X5950Y8879D01*
X5996Y8888D01*
X6036Y8914D01*
X6539Y9418D01*
X6539Y9418D01*
X6566Y9457D01*
X6575Y9503D01*
X6575Y9503D01*
Y15097D01*
X6575Y15097D01*
X6566Y15143D01*
X6539Y15182D01*
X6539Y15182D01*
X5436Y16286D01*
X5396Y16312D01*
X5350Y16321D01*
X5350Y16321D01*
X3350D01*
X2634Y17038D01*
Y17634D01*
X1866D01*
Y16866D01*
X2462D01*
X2911Y16418D01*
X2892Y16371D01*
X2615D01*
X2608Y16398D01*
X2557Y16486D01*
X2486Y16557D01*
X2398Y16608D01*
X2301Y16634D01*
X2199D01*
X2102Y16608D01*
X2014Y16557D01*
X1943Y16486D01*
X1892Y16398D01*
X1866Y16301D01*
Y16199D01*
X1892Y16102D01*
X1943Y16014D01*
X2014Y15943D01*
X2102Y15892D01*
X2199Y15866D01*
X2301D01*
X2398Y15892D01*
X2486Y15943D01*
X2557Y16014D01*
X2608Y16102D01*
X2615Y16129D01*
X2946D01*
X3066Y16009D01*
X3047Y15963D01*
X2842D01*
X2842Y15963D01*
X2795Y15954D01*
X2756Y15928D01*
X2756Y15928D01*
X2422Y15594D01*
X2398Y15608D01*
X2301Y15634D01*
X2199D01*
X2102Y15608D01*
X2014Y15557D01*
X1943Y15486D01*
X1892Y15398D01*
X1866Y15301D01*
Y15199D01*
X1892Y15102D01*
X1943Y15014D01*
X2014Y14943D01*
X2102Y14892D01*
X2199Y14866D01*
X2301D01*
X2398Y14892D01*
X2486Y14943D01*
X2557Y15014D01*
X2608Y15102D01*
X2634Y15199D01*
Y15301D01*
X2608Y15398D01*
X2594Y15422D01*
X2892Y15720D01*
X3484D01*
X3503Y15674D01*
X2422Y14594D01*
X2398Y14608D01*
X2301Y14634D01*
X2199D01*
X2102Y14608D01*
X2014Y14557D01*
X1943Y14486D01*
X1892Y14398D01*
X1866Y14301D01*
Y14199D01*
X1892Y14102D01*
X1943Y14014D01*
X2014Y13943D01*
X2102Y13892D01*
X2199Y13866D01*
X2301D01*
X2398Y13892D01*
X2486Y13943D01*
X2557Y14014D01*
X2608Y14102D01*
X2629Y14180D01*
X2679Y14173D01*
Y13850D01*
X2422Y13594D01*
X2398Y13608D01*
X2301Y13634D01*
X2199D01*
X2102Y13608D01*
X2014Y13557D01*
X1943Y13486D01*
X1892Y13398D01*
X1866Y13301D01*
Y13199D01*
X1892Y13102D01*
X1943Y13014D01*
X2014Y12943D01*
X2102Y12892D01*
X2199Y12866D01*
X2301D01*
X2398Y12892D01*
X2486Y12943D01*
X2557Y13014D01*
X2608Y13102D01*
X2634Y13199D01*
Y13301D01*
X2608Y13398D01*
X2594Y13422D01*
X2811Y13640D01*
X2858Y13621D01*
Y13029D01*
X2422Y12594D01*
X2398Y12608D01*
X2301Y12634D01*
X2199D01*
X2102Y12608D01*
X2014Y12557D01*
X1943Y12486D01*
X1892Y12398D01*
X1866Y12301D01*
Y12199D01*
X1892Y12102D01*
X1943Y12014D01*
X2014Y11943D01*
X2102Y11892D01*
X2199Y11866D01*
X2301D01*
X2398Y11892D01*
X2486Y11943D01*
X2557Y12014D01*
X2608Y12102D01*
X2634Y12199D01*
Y12301D01*
X2608Y12398D01*
X2594Y12422D01*
X2991Y12819D01*
X3037Y12800D01*
Y12208D01*
X2422Y11594D01*
X2398Y11608D01*
X2301Y11634D01*
X2199D01*
X2102Y11608D01*
X2014Y11557D01*
X1943Y11486D01*
X1892Y11398D01*
X1866Y11301D01*
Y11199D01*
X1892Y11102D01*
X1943Y11014D01*
X2014Y10943D01*
X2102Y10892D01*
X2199Y10866D01*
X2301D01*
X2398Y10892D01*
X2402Y10895D01*
X2433Y10855D01*
X2394Y10815D01*
X2361Y10809D01*
X2321Y10782D01*
X2265Y10727D01*
X2239Y10687D01*
X2230Y10641D01*
X2199Y10634D01*
X2102Y10608D01*
X2014Y10557D01*
X1943Y10486D01*
X1892Y10398D01*
X1866Y10301D01*
Y10199D01*
X1892Y10102D01*
X1943Y10014D01*
X2014Y9943D01*
X2102Y9892D01*
X2199Y9866D01*
X2301D01*
X2398Y9892D01*
X2486Y9943D01*
X2557Y10014D01*
X2608Y10102D01*
X2634Y10199D01*
Y10301D01*
X2608Y10398D01*
X2557Y10486D01*
X2506Y10537D01*
X2504Y10543D01*
X2511Y10595D01*
X2513Y10598D01*
X2532Y10611D01*
X3423Y11501D01*
X3423Y11501D01*
X3449Y11541D01*
X3459Y11587D01*
X3459Y11587D01*
Y14124D01*
X3797Y14463D01*
X3848Y14443D01*
X3864Y14382D01*
X3905Y14312D01*
X3962Y14255D01*
X3964Y14253D01*
X3968Y14193D01*
X3937Y14163D01*
X3902Y14103D01*
X3884Y14035D01*
Y13965D01*
X3902Y13897D01*
X3937Y13837D01*
X3987Y13787D01*
X4002Y13779D01*
Y13721D01*
X3987Y13713D01*
X3937Y13663D01*
X3902Y13603D01*
X3884Y13535D01*
Y13465D01*
X3902Y13397D01*
X3937Y13337D01*
X3987Y13287D01*
X4002Y13279D01*
Y13221D01*
X3987Y13213D01*
X3937Y13163D01*
X3902Y13103D01*
X3884Y13035D01*
Y12965D01*
X3902Y12897D01*
X3937Y12837D01*
X3987Y12787D01*
X4002Y12779D01*
Y12721D01*
X3987Y12713D01*
X3937Y12663D01*
X3902Y12603D01*
X3884Y12535D01*
Y12465D01*
X3902Y12397D01*
X3937Y12337D01*
X3987Y12287D01*
X4002Y12279D01*
Y12221D01*
X3987Y12213D01*
X3937Y12163D01*
X3902Y12103D01*
X3896Y12079D01*
X3888D01*
X3854Y12072D01*
X3824Y12053D01*
X3536Y11764D01*
X3516Y11735D01*
X3509Y11700D01*
Y11456D01*
X3129Y11075D01*
X3109Y11046D01*
X3102Y11011D01*
Y5129D01*
X2736Y4762D01*
X2716Y4733D01*
X2709Y4698D01*
Y3454D01*
X2700Y3450D01*
X2650Y3400D01*
X2623Y3335D01*
Y3265D01*
X2650Y3200D01*
X2700Y3150D01*
X2765Y3123D01*
X2835D01*
X2900Y3150D01*
X2950Y3200D01*
X2977Y3265D01*
Y3335D01*
X2960Y3377D01*
X2961Y3380D01*
X2993Y3423D01*
X3042D01*
X3108Y3450D01*
X3157Y3500D01*
X3184Y3565D01*
Y3635D01*
X3161Y3691D01*
X3181Y3720D01*
X3195Y3731D01*
X3215Y3723D01*
X3285D01*
X3350Y3750D01*
X3400Y3800D01*
X3425Y3860D01*
X3429Y3865D01*
X3477Y3888D01*
X3515Y3873D01*
X3585D01*
X3650Y3900D01*
X3700Y3950D01*
X3727Y4015D01*
Y4085D01*
X3700Y4150D01*
X3650Y4200D01*
X3641Y4204D01*
Y4702D01*
X3691Y4736D01*
X3722Y4723D01*
X3792D01*
X3858Y4750D01*
X3907Y4800D01*
X3965Y4809D01*
X3987Y4787D01*
X4047Y4752D01*
X4115Y4734D01*
X4185D01*
X4253Y4752D01*
X4313Y4787D01*
X4334Y4808D01*
X4384Y4788D01*
Y4734D01*
X4629D01*
Y4400D01*
X2486Y2257D01*
X2398Y2308D01*
X2301Y2334D01*
X2199D01*
X2102Y2308D01*
X2014Y2257D01*
X1943Y2186D01*
X1892Y2098D01*
X1866Y2001D01*
Y1980D01*
X1816Y1954D01*
X1796Y1970D01*
Y2967D01*
X1866D01*
Y2899D01*
X1892Y2802D01*
X1943Y2714D01*
X2014Y2643D01*
X2102Y2592D01*
X2199Y2566D01*
X2301D01*
X2398Y2592D01*
X2486Y2643D01*
X2557Y2714D01*
X2608Y2802D01*
X2634Y2899D01*
Y3001D01*
X2608Y3098D01*
X2557Y3186D01*
X2486Y3257D01*
X2398Y3308D01*
X2301Y3334D01*
X2199D01*
X2102Y3308D01*
X2014Y3257D01*
X1967Y3209D01*
X1745D01*
X1745Y3209D01*
X1698Y3200D01*
X1667Y3179D01*
X1633Y3189D01*
X1617Y3199D01*
Y3495D01*
X1875Y3753D01*
X1924Y3746D01*
X1943Y3714D01*
X2014Y3643D01*
X2102Y3592D01*
X2199Y3566D01*
X2301D01*
X2398Y3592D01*
X2486Y3643D01*
X2557Y3714D01*
X2608Y3802D01*
X2634Y3899D01*
Y4001D01*
X2608Y4098D01*
X2557Y4186D01*
X2486Y4257D01*
X2398Y4308D01*
X2301Y4334D01*
X2199D01*
X2102Y4308D01*
X2014Y4257D01*
X1943Y4186D01*
X1914Y4136D01*
X1484Y3705D01*
X1438Y3725D01*
Y4316D01*
X1875Y4753D01*
X1924Y4746D01*
X1943Y4714D01*
X2014Y4643D01*
X2102Y4592D01*
X2199Y4566D01*
X2301D01*
X2398Y4592D01*
X2486Y4643D01*
X2557Y4714D01*
X2608Y4802D01*
X2634Y4899D01*
Y5001D01*
X2608Y5098D01*
X2557Y5186D01*
X2486Y5257D01*
X2398Y5308D01*
X2301Y5334D01*
X2199D01*
X2102Y5308D01*
X2014Y5257D01*
X1943Y5186D01*
X1914Y5136D01*
X1305Y4526D01*
X1259Y4546D01*
Y5137D01*
X1875Y5753D01*
X1924Y5746D01*
X1943Y5714D01*
X2014Y5643D01*
X2102Y5592D01*
X2199Y5566D01*
X2301D01*
X2398Y5592D01*
X2486Y5643D01*
X2557Y5714D01*
X2608Y5802D01*
X2634Y5899D01*
Y6001D01*
X2608Y6098D01*
X2557Y6186D01*
X2486Y6257D01*
X2398Y6308D01*
X2301Y6334D01*
X2199D01*
X2102Y6308D01*
X2014Y6257D01*
X1943Y6186D01*
X1914Y6136D01*
X1126Y5347D01*
X1080Y5366D01*
Y5958D01*
X1875Y6753D01*
X1924Y6746D01*
X1943Y6714D01*
X2014Y6643D01*
X2102Y6592D01*
X2199Y6566D01*
X2301D01*
X2398Y6592D01*
X2486Y6643D01*
X2557Y6714D01*
X2608Y6802D01*
X2634Y6899D01*
Y7001D01*
X2608Y7098D01*
X2557Y7186D01*
X2486Y7257D01*
X2398Y7308D01*
X2301Y7334D01*
X2199D01*
X2102Y7308D01*
X2014Y7257D01*
X1943Y7186D01*
X1914Y7136D01*
X947Y6168D01*
X900Y6187D01*
Y6779D01*
X1875Y7753D01*
X1924Y7746D01*
X1943Y7714D01*
X2014Y7643D01*
X2102Y7592D01*
X2199Y7566D01*
X2301D01*
X2398Y7592D01*
X2486Y7643D01*
X2557Y7714D01*
X2608Y7802D01*
X2634Y7899D01*
Y8001D01*
X2608Y8098D01*
X2557Y8186D01*
X2486Y8257D01*
X2398Y8308D01*
X2301Y8334D01*
X2199D01*
X2102Y8308D01*
X2014Y8257D01*
X1943Y8186D01*
X1914Y8136D01*
X768Y6989D01*
X721Y7008D01*
Y7600D01*
X1820Y8698D01*
X1866Y8679D01*
Y8566D01*
X2634D01*
Y9334D01*
X1866D01*
Y9088D01*
X514Y7736D01*
X488Y7696D01*
X479Y7650D01*
X479Y7650D01*
Y1450D01*
X479Y1450D01*
X488Y1404D01*
X514Y1364D01*
X1522Y357D01*
X1498Y309D01*
X1406Y321D01*
X1232Y368D01*
X1065Y437D01*
X909Y528D01*
X765Y638D01*
X638Y765D01*
X528Y909D01*
X437Y1065D01*
X368Y1232D01*
X321Y1406D01*
X298Y1585D01*
Y1676D01*
Y17621D01*
X298Y17711D01*
X321Y17890D01*
X368Y18064D01*
X437Y18231D01*
X528Y18388D01*
X637Y18531D01*
X765Y18659D01*
X909Y18769D01*
X1065Y18859D01*
X1232Y18928D01*
X1406Y18975D01*
X1585Y18999D01*
X1676D01*
X1676Y18999D01*
X32188Y18999D01*
D02*
G37*
%LPC*%
G36*
X32739Y17646D02*
X32146D01*
Y17430D01*
X32739D01*
Y17646D01*
D02*
G37*
G36*
X32087D02*
X31495D01*
Y17430D01*
X32087D01*
Y17646D01*
D02*
G37*
G36*
X25448Y18254D02*
X23952D01*
Y17894D01*
X23208D01*
X23146Y17882D01*
X23093Y17847D01*
X22930Y17683D01*
X22541D01*
Y17562D01*
X21200D01*
X21138Y17549D01*
X21085Y17514D01*
X20135Y16565D01*
X20100Y16512D01*
X20088Y16450D01*
Y15617D01*
X19977Y15507D01*
X19524D01*
Y15591D01*
X18756D01*
Y15506D01*
X18459D01*
Y15627D01*
X17841D01*
Y15509D01*
X17759D01*
Y15633D01*
X17141D01*
Y15512D01*
X17031D01*
X17025Y15518D01*
X16960Y15545D01*
X16889D01*
X16824Y15518D01*
X16774Y15469D01*
X16747Y15403D01*
Y15333D01*
X16774Y15268D01*
X16824Y15218D01*
X16889Y15191D01*
X16934D01*
X16953Y15187D01*
X17141D01*
Y15066D01*
X17759D01*
Y15184D01*
X17841D01*
Y15060D01*
X18459D01*
Y15182D01*
X18756D01*
Y15098D01*
X19524D01*
Y15182D01*
X20044D01*
X20107Y15195D01*
X20159Y15230D01*
X20250Y15321D01*
X20435Y15135D01*
X20488Y15100D01*
X20550Y15088D01*
X21183D01*
X21288Y14983D01*
Y14233D01*
X21141D01*
Y13666D01*
X21759D01*
Y14233D01*
X21612D01*
Y15050D01*
X21600Y15112D01*
X21565Y15165D01*
X21365Y15365D01*
X21312Y15400D01*
X21250Y15412D01*
X20617D01*
X20412Y15617D01*
Y16383D01*
X21267Y17237D01*
X22541D01*
Y17116D01*
X23159D01*
Y17454D01*
X23275Y17570D01*
X23952D01*
Y17210D01*
X25448D01*
Y18254D01*
D02*
G37*
G36*
X31064Y17105D02*
X29902D01*
Y16695D01*
X31064D01*
Y17105D01*
D02*
G37*
G36*
X23200Y16925D02*
X22880D01*
Y16630D01*
X23200D01*
Y16925D01*
D02*
G37*
G36*
X22820D02*
X22500D01*
Y16630D01*
X22820D01*
Y16925D01*
D02*
G37*
G36*
X32739Y17370D02*
X32117D01*
X31495D01*
Y17154D01*
X31535D01*
X31536Y17105D01*
X31536Y17104D01*
Y16696D01*
X31536Y16695D01*
X31535Y16646D01*
X31495D01*
Y16430D01*
X32117D01*
X32739D01*
Y16646D01*
X32699D01*
X32698Y16695D01*
X32698Y16696D01*
Y17104D01*
X32698Y17105D01*
X32699Y17154D01*
X32739D01*
Y17370D01*
D02*
G37*
G36*
X23200Y16571D02*
X22850D01*
X22500D01*
Y16314D01*
X22455Y16264D01*
X22450D01*
X22405Y16245D01*
X22305Y16145D01*
X22286Y16100D01*
Y15550D01*
X22305Y15505D01*
X22405Y15405D01*
X22450Y15386D01*
X23134D01*
X23135Y15384D01*
X23115Y15346D01*
X23103Y15334D01*
X22541D01*
Y14767D01*
X22759D01*
Y14601D01*
X22555D01*
Y14247D01*
X23145D01*
Y14601D01*
X22941D01*
Y14767D01*
X23159D01*
Y15284D01*
X23159Y15330D01*
X23197Y15362D01*
X23286Y15274D01*
Y14400D01*
X23305Y14355D01*
X23397Y14263D01*
X23398Y14250D01*
X23390Y14210D01*
X23355Y14195D01*
X23336Y14150D01*
Y14050D01*
Y12650D01*
X23355Y12605D01*
X23555Y12405D01*
X23600Y12386D01*
X24050D01*
X24095Y12405D01*
X24245Y12555D01*
X24264Y12600D01*
Y12866D01*
X24519Y13036D01*
X27150D01*
X27195Y13055D01*
X27395Y13255D01*
X27414Y13300D01*
Y14150D01*
X27395Y14195D01*
X27350Y14214D01*
X26649D01*
Y15002D01*
X26757D01*
Y15698D01*
X26166D01*
Y15002D01*
X26274D01*
Y14214D01*
X24319D01*
X24306Y14247D01*
X24304Y14264D01*
X24395Y14355D01*
X24414Y14400D01*
Y14724D01*
X24426Y14736D01*
X25450D01*
X25495Y14755D01*
X25645Y14905D01*
X25664Y14950D01*
X25664Y16050D01*
X25645Y16095D01*
X25495Y16245D01*
X25450Y16264D01*
X23245Y16264D01*
X23200Y16276D01*
X23200Y16314D01*
Y16571D01*
D02*
G37*
G36*
X31064Y16605D02*
X29902D01*
Y16195D01*
X31064D01*
Y16605D01*
D02*
G37*
G36*
Y16105D02*
X29902D01*
Y15991D01*
X29854D01*
X29850Y16000D01*
X29800Y16050D01*
X29735Y16077D01*
X29665D01*
X29600Y16050D01*
X29550Y16000D01*
X29523Y15935D01*
Y15865D01*
X29550Y15800D01*
X29600Y15750D01*
X29665Y15723D01*
X29735D01*
X29800Y15750D01*
X29850Y15800D01*
X29854Y15809D01*
X29902D01*
Y15695D01*
X31064D01*
Y16105D01*
D02*
G37*
G36*
X16750Y16864D02*
X16705Y16845D01*
X16655Y16795D01*
X16636Y16750D01*
Y16675D01*
X16641Y16663D01*
Y16650D01*
X16653Y16622D01*
Y16577D01*
X16641Y16549D01*
Y16536D01*
X16636Y16524D01*
Y16050D01*
X16655Y16005D01*
X16705Y15955D01*
X16750Y15936D01*
X19450D01*
X19495Y15955D01*
X19545Y16005D01*
X19564Y16050D01*
Y16750D01*
X19545Y16795D01*
X19495Y16845D01*
X19450Y16864D01*
X16750Y16864D01*
D02*
G37*
G36*
X32739Y16370D02*
X32117D01*
X31495D01*
Y16196D01*
X31495Y16154D01*
X31495Y16104D01*
Y15930D01*
X32117D01*
X32739D01*
Y16104D01*
X32739Y16146D01*
X32739Y16196D01*
Y16370D01*
D02*
G37*
G36*
X22044Y16939D02*
X21276D01*
Y15561D01*
X22044D01*
Y16939D01*
D02*
G37*
G36*
X31064Y15605D02*
X29902D01*
Y15491D01*
X29854D01*
X29850Y15500D01*
X29800Y15550D01*
X29735Y15577D01*
X29665D01*
X29600Y15550D01*
X29550Y15500D01*
X29523Y15435D01*
Y15365D01*
X29550Y15300D01*
X29600Y15250D01*
X29665Y15223D01*
X29735D01*
X29800Y15250D01*
X29850Y15300D01*
X29854Y15309D01*
X29902D01*
Y15195D01*
X31064D01*
Y15605D01*
D02*
G37*
G36*
X32739Y15870D02*
X32117D01*
X31495D01*
Y15654D01*
X31535D01*
X31536Y15605D01*
X31536Y15604D01*
Y15195D01*
X32698D01*
Y15243D01*
X32785D01*
X32808Y15234D01*
X32879D01*
X32944Y15261D01*
X32994Y15310D01*
X33021Y15376D01*
Y15446D01*
X32994Y15511D01*
X32944Y15561D01*
X32879Y15588D01*
X32808D01*
X32759Y15568D01*
X32730D01*
X32729Y15569D01*
X32706Y15604D01*
X32726Y15654D01*
X32739D01*
Y15870D01*
D02*
G37*
G36*
X29935Y14716D02*
X29865D01*
X29797Y14698D01*
X29737Y14663D01*
X29687Y14613D01*
X29679Y14598D01*
X29621D01*
X29613Y14613D01*
X29563Y14663D01*
X29503Y14698D01*
X29435Y14716D01*
X29365D01*
X29297Y14698D01*
X29237Y14663D01*
X29216Y14642D01*
X29166Y14662D01*
Y14716D01*
X28634D01*
Y14184D01*
X28738D01*
Y14152D01*
X28750Y14090D01*
X28785Y14038D01*
X28858Y13965D01*
X28839Y13919D01*
X28711D01*
Y13802D01*
X28309D01*
X28247Y13790D01*
X28195Y13755D01*
X28124Y13684D01*
X27546D01*
Y12523D01*
X28354D01*
Y13455D01*
X28376Y13478D01*
X28711D01*
Y13361D01*
X29660D01*
X29935Y13085D01*
X29988Y13050D01*
X30050Y13038D01*
X31100D01*
X31143Y12964D01*
X31214Y12893D01*
X31302Y12842D01*
X31399Y12816D01*
X31501D01*
X31598Y12842D01*
X31686Y12893D01*
X31757Y12964D01*
X31788Y13017D01*
X31838Y13004D01*
Y12625D01*
X31480D01*
Y12200D01*
Y11775D01*
X31838D01*
Y11074D01*
X31801Y11064D01*
X31788Y11063D01*
X31711Y11140D01*
X31614Y11196D01*
X31506Y11225D01*
X31480D01*
Y10800D01*
Y10375D01*
X31506D01*
X31614Y10404D01*
X31711Y10460D01*
X31788Y10537D01*
X31801Y10536D01*
X31838Y10526D01*
Y10417D01*
X31605Y10184D01*
X31066D01*
Y9416D01*
X31834D01*
Y9955D01*
X32115Y10235D01*
X32150Y10288D01*
X32162Y10350D01*
Y10647D01*
X32212Y10661D01*
X32229Y10631D01*
X32281Y10579D01*
X32344Y10543D01*
X32414Y10524D01*
X32486D01*
X32556Y10543D01*
X32619Y10579D01*
X32671Y10631D01*
X32707Y10694D01*
X32726Y10764D01*
Y10836D01*
X32707Y10906D01*
X32671Y10969D01*
X32619Y11021D01*
X32556Y11057D01*
X32486Y11076D01*
X32414D01*
X32344Y11057D01*
X32281Y11021D01*
X32229Y10969D01*
X32212Y10939D01*
X32162Y10953D01*
Y12047D01*
X32212Y12061D01*
X32229Y12031D01*
X32281Y11979D01*
X32344Y11943D01*
X32414Y11924D01*
X32486D01*
X32556Y11943D01*
X32619Y11979D01*
X32671Y12031D01*
X32707Y12094D01*
X32726Y12164D01*
Y12236D01*
X32707Y12306D01*
X32671Y12369D01*
X32619Y12421D01*
X32556Y12457D01*
X32486Y12476D01*
X32414D01*
X32344Y12457D01*
X32281Y12421D01*
X32229Y12369D01*
X32212Y12339D01*
X32162Y12353D01*
Y13047D01*
X32212Y13061D01*
X32229Y13031D01*
X32281Y12979D01*
X32344Y12943D01*
X32414Y12924D01*
X32486D01*
X32556Y12943D01*
X32619Y12979D01*
X32671Y13031D01*
X32707Y13094D01*
X32726Y13164D01*
Y13236D01*
X32707Y13306D01*
X32671Y13369D01*
X32619Y13421D01*
X32556Y13457D01*
X32486Y13476D01*
X32414D01*
X32344Y13457D01*
X32281Y13421D01*
X32229Y13369D01*
X32211Y13337D01*
X32201Y13337D01*
X32159Y13348D01*
X32150Y13396D01*
X32115Y13449D01*
X31430Y14134D01*
X31377Y14169D01*
X31315Y14181D01*
X30066D01*
X30053Y14231D01*
X30063Y14237D01*
X30113Y14287D01*
X30148Y14347D01*
X30166Y14415D01*
Y14485D01*
X30148Y14553D01*
X30113Y14613D01*
X30063Y14663D01*
X30003Y14698D01*
X29935Y14716D01*
D02*
G37*
G36*
X27434Y15698D02*
X26843D01*
Y15002D01*
X27434D01*
Y15056D01*
X27546D01*
Y14216D01*
X28354D01*
Y15377D01*
X27721D01*
X27706Y15380D01*
X27434D01*
Y15698D01*
D02*
G37*
G36*
X16550Y13874D02*
X16230D01*
Y13579D01*
X16550D01*
Y13874D01*
D02*
G37*
G36*
X16170D02*
X15850D01*
Y13579D01*
X16170D01*
Y13874D01*
D02*
G37*
G36*
X15650Y13874D02*
X15330D01*
Y13579D01*
X15650D01*
Y13874D01*
D02*
G37*
G36*
X15270D02*
X14950D01*
Y13579D01*
X15270D01*
Y13874D01*
D02*
G37*
G36*
X23145Y13853D02*
X22555D01*
Y13691D01*
X22300D01*
X22265Y13684D01*
X22236Y13664D01*
X22136Y13564D01*
X22116Y13535D01*
X22109Y13500D01*
Y13434D01*
X21791D01*
Y13434D01*
X21759Y13434D01*
Y13434D01*
X21741Y13434D01*
X21141D01*
Y12867D01*
X21759D01*
Y12867D01*
X21791Y12867D01*
Y12867D01*
X21809Y12867D01*
X22409D01*
Y13434D01*
X22355D01*
X22332Y13484D01*
X22352Y13509D01*
X22555D01*
Y13499D01*
X23145D01*
Y13853D01*
D02*
G37*
G36*
X16550Y13520D02*
X16230D01*
Y13225D01*
X16550D01*
Y13520D01*
D02*
G37*
G36*
X16170D02*
X15850D01*
Y13225D01*
X16170D01*
Y13520D01*
D02*
G37*
G36*
X15650Y13520D02*
X15330D01*
Y13225D01*
X15650D01*
Y13520D01*
D02*
G37*
G36*
X15270D02*
X14950D01*
Y13225D01*
X15270D01*
Y13520D01*
D02*
G37*
G36*
X29930Y12780D02*
X29330D01*
Y12490D01*
X29930D01*
Y12780D01*
D02*
G37*
G36*
X29270D02*
X28670D01*
Y12490D01*
X29270D01*
Y12780D01*
D02*
G37*
G36*
X16509Y13034D02*
X15891D01*
Y12467D01*
X16120D01*
Y12378D01*
X16080Y12351D01*
X16070Y12348D01*
X16042Y12354D01*
X15987D01*
X15953Y12347D01*
X15924Y12328D01*
X15907D01*
X15879Y12347D01*
X15845Y12354D01*
X15790D01*
X15756Y12347D01*
X15746Y12349D01*
X15740Y12358D01*
X15698Y12386D01*
X15650Y12395D01*
Y11986D01*
Y11577D01*
X15698Y11587D01*
X15740Y11615D01*
X15746Y11623D01*
X15756Y11625D01*
X15790Y11618D01*
X15845D01*
X15879Y11625D01*
X15907Y11644D01*
X15924D01*
X15953Y11625D01*
X15987Y11618D01*
X16042D01*
X16076Y11625D01*
X16104Y11644D01*
X16121D01*
X16150Y11625D01*
X16183Y11618D01*
X16239D01*
X16249Y11621D01*
X16274Y11574D01*
X16250Y11550D01*
X16223Y11485D01*
Y11415D01*
X16250Y11350D01*
X16300Y11300D01*
X16365Y11273D01*
X16435D01*
X16500Y11300D01*
X16550Y11350D01*
X16557Y11365D01*
X16616Y11377D01*
X16637Y11355D01*
X16703Y11328D01*
X16773D01*
X16838Y11355D01*
X16888Y11405D01*
X16915Y11470D01*
Y11540D01*
X16892Y11595D01*
X16927Y11632D01*
X16927Y11632D01*
X16937Y11625D01*
X16971Y11618D01*
X17026D01*
X17060Y11625D01*
X17088Y11644D01*
X17105D01*
X17121Y11634D01*
X17135Y11620D01*
X17145Y11572D01*
X17129Y11534D01*
Y11464D01*
X17156Y11399D01*
X17206Y11349D01*
X17271Y11322D01*
X17342D01*
X17373Y11335D01*
X17423Y11301D01*
Y11265D01*
X17450Y11200D01*
X17500Y11150D01*
X17565Y11123D01*
X17635D01*
X17700Y11150D01*
X17750Y11200D01*
X17777Y11265D01*
Y11335D01*
X17750Y11400D01*
X17700Y11450D01*
X17685Y11456D01*
Y11591D01*
X17700Y11603D01*
X17735Y11623D01*
X17758Y11618D01*
X17813D01*
X17847Y11625D01*
X17876Y11644D01*
X17893D01*
X17921Y11625D01*
X17955Y11618D01*
X18010D01*
X18044Y11625D01*
X18073Y11644D01*
X18090D01*
X18118Y11625D01*
X18152Y11618D01*
X18207D01*
X18241Y11625D01*
X18270Y11644D01*
X18286D01*
X18315Y11625D01*
X18349Y11618D01*
X18404D01*
X18438Y11625D01*
X18466Y11644D01*
X18486Y11673D01*
X18492Y11707D01*
Y12238D01*
X18536Y12280D01*
X18572Y12278D01*
X18600Y12250D01*
X18665Y12223D01*
X18735D01*
X18800Y12250D01*
X18850Y12300D01*
X18877Y12365D01*
Y12435D01*
X18850Y12500D01*
X18800Y12550D01*
X18735Y12577D01*
X18665D01*
X18600Y12550D01*
X18550Y12500D01*
X18546Y12491D01*
X18444D01*
X18409Y12484D01*
X18380Y12464D01*
X18318Y12402D01*
X18298Y12373D01*
X18297Y12370D01*
X18242Y12346D01*
X18241Y12347D01*
X18207Y12354D01*
X18152D01*
X18118Y12347D01*
X18090Y12328D01*
X18073D01*
X18044Y12347D01*
X18010Y12354D01*
X17955D01*
X17921Y12347D01*
X17893Y12328D01*
X17876D01*
X17847Y12347D01*
X17813Y12354D01*
X17758D01*
X17724Y12347D01*
X17696Y12328D01*
X17679D01*
X17650Y12347D01*
X17617Y12354D01*
X17561D01*
X17528Y12347D01*
X17499Y12328D01*
X17482D01*
X17453Y12347D01*
X17420Y12354D01*
X17365D01*
X17331Y12347D01*
X17302Y12328D01*
X17285D01*
X17257Y12347D01*
X17223Y12354D01*
X17168D01*
X17134Y12347D01*
X17105Y12328D01*
X17088D01*
X17060Y12347D01*
X17026Y12354D01*
X16971D01*
X16937Y12347D01*
X16908Y12328D01*
X16892D01*
X16863Y12347D01*
X16829Y12354D01*
X16774D01*
X16740Y12347D01*
X16712Y12328D01*
X16695D01*
X16666Y12347D01*
X16632Y12354D01*
X16577D01*
X16543Y12347D01*
X16515Y12328D01*
X16498D01*
X16469Y12347D01*
X16435Y12354D01*
X16380D01*
X16352Y12348D01*
X16342Y12351D01*
X16302Y12378D01*
Y12467D01*
X16509D01*
Y13034D01*
D02*
G37*
G36*
X31420Y12625D02*
X31025D01*
Y12230D01*
X31420D01*
Y12625D01*
D02*
G37*
G36*
X29930Y12430D02*
X29330D01*
Y12140D01*
X29930D01*
Y12430D01*
D02*
G37*
G36*
X29270D02*
X28670D01*
Y12140D01*
X29270D01*
Y12430D01*
D02*
G37*
G36*
X31420Y12170D02*
X31025D01*
Y11775D01*
X31420D01*
Y12170D01*
D02*
G37*
G36*
X13275Y11700D02*
X12980D01*
Y11380D01*
X13275D01*
Y11700D01*
D02*
G37*
G36*
X12921D02*
X12626D01*
Y11380D01*
X12921D01*
Y11700D01*
D02*
G37*
G36*
X20079Y11838D02*
X20008D01*
X19943Y11811D01*
X19893Y11761D01*
X19866Y11696D01*
Y11626D01*
X19873Y11609D01*
X19841Y11559D01*
X19767D01*
Y11317D01*
X19477D01*
X19450Y11336D01*
X19416Y11342D01*
X18857D01*
X18823Y11336D01*
X18794Y11316D01*
X18775Y11288D01*
X18768Y11254D01*
Y11199D01*
X18775Y11165D01*
X18773Y11155D01*
X18765Y11149D01*
X18737Y11107D01*
X18727Y11059D01*
X19545D01*
X19540Y11086D01*
X19572Y11136D01*
X19767D01*
Y10941D01*
X20333D01*
Y11559D01*
X20236D01*
X20214Y11609D01*
X20221Y11626D01*
Y11696D01*
X20194Y11761D01*
X20144Y11811D01*
X20079Y11838D01*
D02*
G37*
G36*
X21174Y11600D02*
X20879D01*
Y11280D01*
X21174D01*
Y11600D01*
D02*
G37*
G36*
X20820D02*
X20525D01*
Y11280D01*
X20820D01*
Y11600D01*
D02*
G37*
G36*
X31064Y17605D02*
X29902D01*
Y17195D01*
X31064D01*
Y17242D01*
X31110Y17262D01*
X31209Y17162D01*
Y15150D01*
X31216Y15115D01*
X31236Y15086D01*
X32859Y13462D01*
Y6188D01*
X32336Y5664D01*
X32316Y5635D01*
X32309Y5600D01*
Y2588D01*
X31312Y1591D01*
X30707D01*
Y1885D01*
X30541D01*
Y2000D01*
X30534Y2035D01*
X30514Y2064D01*
X30184Y2394D01*
X30204Y2440D01*
X30231D01*
X30266Y2447D01*
X30295Y2467D01*
X30464Y2636D01*
X30484Y2665D01*
X30491Y2700D01*
Y2915D01*
X30707D01*
Y3585D01*
X30234D01*
Y2915D01*
X30309D01*
Y2738D01*
X30193Y2622D01*
X30015D01*
X29996Y2668D01*
X30064Y2736D01*
X30084Y2765D01*
X30091Y2800D01*
Y3762D01*
X30402Y4074D01*
X30422Y4103D01*
X30429Y4138D01*
Y4141D01*
X30634D01*
Y4759D01*
X30067D01*
Y4141D01*
X30147D01*
X30166Y4095D01*
X29936Y3864D01*
X29916Y3835D01*
X29909Y3800D01*
Y2838D01*
X29832Y2761D01*
X29782Y2781D01*
Y3282D01*
X28704D01*
Y3146D01*
X28654Y3125D01*
X28291Y3488D01*
Y4015D01*
X28337Y4035D01*
X28436Y3936D01*
X28465Y3916D01*
X28500Y3909D01*
X28704D01*
Y3719D01*
X29782D01*
Y4281D01*
X28704D01*
Y4091D01*
X28538D01*
X28410Y4219D01*
Y5096D01*
X28456Y5116D01*
X28636Y4936D01*
X28665Y4916D01*
X28700Y4909D01*
X28704D01*
Y4719D01*
X29782D01*
Y5282D01*
X28704D01*
Y5190D01*
X28657Y5171D01*
X28529Y5300D01*
Y5977D01*
X28575Y5996D01*
X28636Y5936D01*
X28665Y5916D01*
X28700Y5909D01*
X28704D01*
Y5719D01*
X29782D01*
Y6281D01*
X28704D01*
Y6244D01*
X28654Y6218D01*
X28648Y6221D01*
Y6724D01*
X28641Y6759D01*
X28621Y6789D01*
X28547Y6863D01*
X28566Y6909D01*
X28704D01*
Y6719D01*
X29782D01*
Y7282D01*
X28704D01*
Y7091D01*
X28488D01*
X27469Y8109D01*
X27472Y8130D01*
X27487Y8159D01*
X28850D01*
X28885Y8166D01*
X28914Y8186D01*
X29160Y8431D01*
X29169Y8446D01*
X29959D01*
Y8697D01*
X30124D01*
X30309Y8512D01*
Y7400D01*
X30316Y7365D01*
X30336Y7336D01*
X31016Y6655D01*
Y6016D01*
X31784D01*
Y6784D01*
X31145D01*
X30491Y7438D01*
Y8550D01*
X30484Y8585D01*
X30464Y8614D01*
X30226Y8852D01*
X30197Y8872D01*
X30162Y8879D01*
X29959D01*
Y9154D01*
X29006D01*
Y8543D01*
X29005Y8535D01*
Y8533D01*
X28812Y8341D01*
X27121D01*
X27114Y8352D01*
X27141Y8402D01*
X27184D01*
Y9098D01*
X26593D01*
Y8402D01*
X26810D01*
Y8399D01*
X26817Y8364D01*
X26837Y8335D01*
X26981Y8191D01*
X26978Y8170D01*
X26963Y8141D01*
X24066D01*
X24039Y8191D01*
X24053Y8211D01*
X24063Y8261D01*
Y8320D01*
X23082D01*
Y8261D01*
X23092Y8211D01*
X23106Y8191D01*
X23079Y8141D01*
X22055D01*
X22040Y8191D01*
X22050Y8198D01*
X22069Y8227D01*
X22076Y8261D01*
Y8439D01*
X22069Y8473D01*
X22050Y8502D01*
X22020Y8522D01*
X21986Y8529D01*
X21269D01*
X21235Y8522D01*
X21205Y8502D01*
X21186Y8473D01*
X21179Y8441D01*
X20961D01*
X20741Y8661D01*
Y9600D01*
X20734Y9635D01*
X20714Y9664D01*
X20277Y10101D01*
X20284Y10133D01*
X20296Y10151D01*
X20455D01*
X20821Y9786D01*
X20850Y9766D01*
X20885Y9759D01*
X21179D01*
X21186Y9727D01*
X21205Y9698D01*
X21235Y9678D01*
X21269Y9671D01*
X21986D01*
X22020Y9678D01*
X22042Y9692D01*
X22075Y9685D01*
X22095Y9675D01*
X22099Y9649D01*
X21978Y9529D01*
X21716D01*
X21716Y9529D01*
X21269D01*
X21235Y9522D01*
X21205Y9502D01*
X21186Y9473D01*
X21179Y9439D01*
Y9261D01*
X21186Y9227D01*
X21205Y9198D01*
X21235Y9178D01*
X21269Y9171D01*
X21537D01*
Y9029D01*
X21269D01*
X21235Y9022D01*
X21205Y9002D01*
X21186Y8973D01*
X21179Y8939D01*
Y8761D01*
X21186Y8727D01*
X21205Y8698D01*
X21235Y8678D01*
X21269Y8671D01*
X21986D01*
X22020Y8678D01*
X22050Y8698D01*
X22069Y8727D01*
X22076Y8761D01*
Y8939D01*
X22069Y8973D01*
X22050Y9002D01*
X22020Y9022D01*
X21986Y9029D01*
X21718D01*
Y9171D01*
X21986D01*
X22020Y9178D01*
X22050Y9198D01*
X22069Y9227D01*
X22076Y9261D01*
Y9371D01*
X22080Y9374D01*
X22264Y9558D01*
X22284Y9587D01*
X22291Y9622D01*
Y10202D01*
X22317Y10241D01*
X22341Y10241D01*
X22883D01*
Y10859D01*
X22719D01*
Y11040D01*
X22967Y11288D01*
X23166D01*
Y11102D01*
X23757D01*
Y11798D01*
X23166D01*
Y11612D01*
X22900D01*
X22838Y11600D01*
X22785Y11565D01*
X22486Y11265D01*
X22450Y11250D01*
X22400Y11200D01*
X22373Y11135D01*
Y11065D01*
X22395Y11012D01*
Y10859D01*
X22340D01*
X22322Y10859D01*
X22297Y10876D01*
X22280Y10891D01*
X22264Y10914D01*
X22164Y11014D01*
X22135Y11034D01*
X22100Y11041D01*
X21400D01*
X21365Y11034D01*
X21336Y11014D01*
X21224Y10902D01*
X21174Y10923D01*
X21174Y10941D01*
Y11220D01*
X20879D01*
Y10900D01*
X21131D01*
X21151Y10900D01*
X21172Y10850D01*
X21048Y10727D01*
X19528D01*
X19501Y10766D01*
X19498Y10777D01*
X19504Y10805D01*
Y10860D01*
X19497Y10894D01*
X19499Y10904D01*
X19508Y10910D01*
X19536Y10952D01*
X19545Y11000D01*
X18727D01*
X18732Y10973D01*
X18700Y10923D01*
X18611D01*
X18600Y10950D01*
X18550Y11000D01*
X18485Y11027D01*
X18415D01*
X18350Y11000D01*
X18300Y10950D01*
X18273Y10885D01*
Y10815D01*
X18300Y10750D01*
X18350Y10700D01*
X18415Y10673D01*
X18485D01*
X18550Y10700D01*
X18592Y10742D01*
X18745D01*
X18772Y10702D01*
X18774Y10692D01*
X18768Y10663D01*
Y10608D01*
X18775Y10574D01*
X18791Y10537D01*
X18775Y10500D01*
X18768Y10467D01*
Y10411D01*
X18775Y10378D01*
X18794Y10349D01*
Y10332D01*
X18775Y10303D01*
X18768Y10270D01*
Y10215D01*
X18775Y10181D01*
X18794Y10152D01*
Y10135D01*
X18775Y10107D01*
X18768Y10073D01*
Y10039D01*
X18768Y10038D01*
X18726Y10010D01*
X18720Y10009D01*
X18676Y10027D01*
X18606D01*
X18541Y10000D01*
X18491Y9950D01*
X18464Y9885D01*
Y9815D01*
X18491Y9750D01*
X18541Y9700D01*
X18606Y9673D01*
X18676D01*
X18720Y9691D01*
X18730Y9688D01*
X18768Y9662D01*
X18768Y9661D01*
Y9624D01*
X18775Y9590D01*
X18791Y9553D01*
X18775Y9516D01*
X18768Y9482D01*
Y9427D01*
X18775Y9393D01*
X18794Y9365D01*
Y9348D01*
X18775Y9319D01*
X18768Y9285D01*
Y9230D01*
X18775Y9197D01*
X18794Y9168D01*
Y9151D01*
X18775Y9122D01*
X18768Y9089D01*
Y9033D01*
X18775Y9000D01*
X18791Y8963D01*
X18775Y8926D01*
X18768Y8892D01*
Y8837D01*
X18775Y8803D01*
X18794Y8774D01*
Y8757D01*
X18775Y8729D01*
X18768Y8695D01*
Y8640D01*
X18774Y8611D01*
X18772Y8601D01*
X18745Y8561D01*
X18689D01*
X18654Y8554D01*
X18624Y8535D01*
X18586Y8497D01*
X18567Y8467D01*
X18560Y8432D01*
Y8284D01*
X18513Y8265D01*
X16669Y10109D01*
X16639Y10129D01*
X16605Y10136D01*
X15055D01*
X15028Y10176D01*
X15026Y10186D01*
X15032Y10215D01*
Y10270D01*
X15025Y10303D01*
X15006Y10332D01*
Y10349D01*
X15025Y10378D01*
X15032Y10411D01*
Y10467D01*
X15026Y10495D01*
X15028Y10505D01*
X15055Y10545D01*
X15071D01*
X15106Y10552D01*
X15135Y10572D01*
X15264Y10701D01*
X15284Y10730D01*
X15291Y10765D01*
Y11618D01*
X15323Y11638D01*
X15337Y11642D01*
X15362Y11625D01*
X15396Y11618D01*
X15451D01*
X15485Y11625D01*
X15495Y11623D01*
X15501Y11615D01*
X15543Y11587D01*
X15591Y11577D01*
Y11986D01*
Y12395D01*
X15564Y12390D01*
X15523Y12417D01*
X15527Y12467D01*
X15609D01*
Y13034D01*
X14991D01*
Y12912D01*
X14921D01*
X14885Y12927D01*
X14815D01*
X14750Y12900D01*
X14700Y12850D01*
X14673Y12785D01*
Y12715D01*
X14700Y12650D01*
X14750Y12600D01*
X14815Y12573D01*
X14885D01*
X14922Y12588D01*
X14991D01*
Y12467D01*
X15333D01*
Y12327D01*
X15314Y12300D01*
X15308Y12266D01*
Y11707D01*
X15272Y11687D01*
X15261Y11686D01*
X14533Y12414D01*
X14503Y12434D01*
X14468Y12441D01*
X11304D01*
X11300Y12450D01*
X11250Y12500D01*
X11185Y12527D01*
X11115D01*
X11050Y12500D01*
X11000Y12450D01*
X10973Y12385D01*
Y12315D01*
X11000Y12250D01*
X11050Y12200D01*
X11089Y12184D01*
X11079Y12134D01*
X11007D01*
X11000Y12150D01*
X10950Y12200D01*
X10885Y12227D01*
X10815D01*
X10750Y12200D01*
X10700Y12150D01*
X10673Y12085D01*
Y12015D01*
X10700Y11950D01*
X10750Y11900D01*
X10815Y11873D01*
X10885D01*
X10950Y11900D01*
X11000Y11950D01*
X11001Y11952D01*
X14570D01*
X14990Y11531D01*
Y11382D01*
X14943Y11342D01*
X14691D01*
Y11396D01*
X14700Y11400D01*
X14750Y11450D01*
X14777Y11515D01*
Y11585D01*
X14750Y11650D01*
X14700Y11700D01*
X14635Y11727D01*
X14565D01*
X14500Y11700D01*
X14450Y11650D01*
X14423Y11585D01*
Y11515D01*
X14450Y11450D01*
X14500Y11400D01*
X14509Y11396D01*
Y11342D01*
X14424D01*
X14352Y11414D01*
X14323Y11434D01*
X14288Y11441D01*
X14033D01*
Y11659D01*
X13466D01*
Y11041D01*
X14033D01*
Y11259D01*
X14251D01*
X14296Y11214D01*
Y11199D01*
X14303Y11165D01*
X14322Y11136D01*
Y11120D01*
X14303Y11091D01*
X14296Y11057D01*
Y11002D01*
X14303Y10968D01*
X14322Y10940D01*
Y10923D01*
X14303Y10894D01*
X14296Y10860D01*
Y10853D01*
X14246Y10832D01*
X14164Y10914D01*
X14135Y10934D01*
X14100Y10941D01*
X13550D01*
X13515Y10934D01*
X13486Y10914D01*
X13439Y10867D01*
X13419Y10838D01*
X13412Y10803D01*
Y10772D01*
X13306D01*
Y10641D01*
X13183D01*
Y10859D01*
X12616D01*
Y10241D01*
X12616D01*
Y10209D01*
X12616D01*
Y9591D01*
X13183D01*
Y9659D01*
X13850D01*
X13885Y9666D01*
X13914Y9686D01*
X13961Y9733D01*
X13981Y9762D01*
X13988Y9797D01*
Y9828D01*
X14094D01*
Y9943D01*
X14145D01*
X14180Y9950D01*
X14210Y9970D01*
X14248Y10008D01*
X14300Y9997D01*
X14303Y9984D01*
X14322Y9955D01*
Y9938D01*
X14303Y9910D01*
X14296Y9876D01*
Y9821D01*
X14303Y9787D01*
X14322Y9758D01*
Y9742D01*
X14303Y9713D01*
X14296Y9679D01*
Y9624D01*
X14303Y9590D01*
X14322Y9562D01*
Y9545D01*
X14303Y9516D01*
X14296Y9482D01*
Y9427D01*
X14303Y9393D01*
X14322Y9365D01*
Y9348D01*
X14303Y9319D01*
X14296Y9285D01*
Y9230D01*
X14303Y9197D01*
X14301Y9186D01*
X14292Y9181D01*
X14264Y9138D01*
X14255Y9091D01*
X14664D01*
X15073D01*
X15063Y9138D01*
X15035Y9181D01*
X15027Y9186D01*
X15025Y9197D01*
X15032Y9230D01*
Y9285D01*
X15028Y9306D01*
X15064Y9337D01*
X15068Y9339D01*
X15081Y9330D01*
X15116Y9323D01*
X15202D01*
X15206Y9314D01*
X15256Y9264D01*
X15321Y9237D01*
X15391D01*
X15457Y9264D01*
X15506Y9314D01*
X15533Y9379D01*
Y9449D01*
X15506Y9514D01*
X15457Y9564D01*
X15450Y9600D01*
X15454Y9604D01*
X15481Y9669D01*
Y9740D01*
X15454Y9805D01*
X15405Y9855D01*
X15339Y9882D01*
X15269D01*
X15204Y9855D01*
X15154Y9805D01*
X15138Y9767D01*
X15067D01*
X15031Y9817D01*
X15032Y9821D01*
Y9876D01*
X15026Y9904D01*
X15028Y9915D01*
X15055Y9954D01*
X16567D01*
X19386Y7136D01*
X19415Y7116D01*
X19450Y7109D01*
X23262D01*
X23559Y6812D01*
Y4450D01*
X23280D01*
Y4100D01*
X23250D01*
Y4070D01*
X22926D01*
Y3750D01*
X22967D01*
Y3662D01*
X22871D01*
X22835Y3677D01*
X22765D01*
X22700Y3650D01*
X22650Y3600D01*
X22623Y3535D01*
Y3465D01*
X22650Y3400D01*
X22700Y3350D01*
X22765Y3323D01*
X22835D01*
X22871Y3338D01*
X22967D01*
Y3191D01*
X23534D01*
X23559Y3151D01*
Y3025D01*
X23566Y2990D01*
X23586Y2961D01*
X23792Y2755D01*
X23772Y2709D01*
X23766D01*
Y2091D01*
X23766D01*
X23766Y2059D01*
X23766D01*
X23766Y2041D01*
Y1441D01*
X24333D01*
Y2059D01*
X24333D01*
X24333Y2091D01*
X24333D01*
X24333Y2109D01*
Y2309D01*
X25279D01*
X25318Y2281D01*
X25318Y2259D01*
Y1718D01*
X26396D01*
Y2259D01*
X26396Y2281D01*
X26435Y2309D01*
X28665D01*
X28704Y2281D01*
X28704Y2259D01*
Y1718D01*
X29782D01*
Y2259D01*
X29782Y2281D01*
X29821Y2309D01*
X30012D01*
X30359Y1962D01*
Y1885D01*
X30234D01*
Y1215D01*
X30707D01*
Y1409D01*
X31350D01*
X31385Y1416D01*
X31414Y1436D01*
X32464Y2486D01*
X32484Y2515D01*
X32491Y2550D01*
Y4094D01*
X32517Y4133D01*
X32541Y4133D01*
X32833D01*
Y4450D01*
Y4767D01*
X32541D01*
X32517Y4767D01*
X32491Y4806D01*
Y4844D01*
X32517Y4883D01*
X32541Y4883D01*
X32833D01*
Y5200D01*
Y5517D01*
X32541D01*
X32517Y5517D01*
X32491Y5556D01*
Y5562D01*
X33014Y6086D01*
X33034Y6115D01*
X33041Y6150D01*
Y13500D01*
X33034Y13535D01*
X33014Y13564D01*
X31391Y15188D01*
Y17200D01*
X31384Y17235D01*
X31364Y17264D01*
X31164Y17464D01*
X31135Y17484D01*
X31100Y17491D01*
X31064D01*
Y17605D01*
D02*
G37*
G36*
X13275Y11320D02*
X12980D01*
Y11000D01*
X13275D01*
Y11320D01*
D02*
G37*
G36*
X12921D02*
X12626D01*
Y11000D01*
X12921D01*
Y11320D01*
D02*
G37*
G36*
X20820Y11220D02*
X20525D01*
Y10900D01*
X20820D01*
Y11220D01*
D02*
G37*
G36*
X31420Y11225D02*
X31394D01*
X31286Y11196D01*
X31189Y11140D01*
X31110Y11061D01*
X31054Y10964D01*
X31025Y10856D01*
Y10830D01*
X31420D01*
Y11225D01*
D02*
G37*
G36*
X25974Y11050D02*
X25679D01*
Y10730D01*
X25974D01*
Y11050D01*
D02*
G37*
G36*
X23675D02*
X23380D01*
Y10730D01*
X23675D01*
Y11050D01*
D02*
G37*
G36*
X23321D02*
X23026D01*
Y10730D01*
X23321D01*
Y11050D01*
D02*
G37*
G36*
X25620D02*
X25325D01*
Y10730D01*
X25620D01*
Y11050D01*
D02*
G37*
G36*
X12425Y10900D02*
X12130D01*
Y10580D01*
X12425D01*
Y10900D01*
D02*
G37*
G36*
X12071D02*
X11776D01*
Y10580D01*
X12071D01*
Y10900D01*
D02*
G37*
G36*
X24434Y11798D02*
X23843D01*
Y11102D01*
X24048D01*
Y11009D01*
X23866D01*
Y10391D01*
X24059D01*
Y10038D01*
X24040Y10022D01*
X23995Y10002D01*
X23965Y10022D01*
X23931Y10029D01*
X23214D01*
X23180Y10022D01*
X23150Y10002D01*
X23131Y9973D01*
X23124Y9939D01*
Y9761D01*
X23131Y9727D01*
X23150Y9698D01*
X23180Y9678D01*
X23214Y9671D01*
X23931D01*
X23965Y9678D01*
X23995Y9698D01*
X24014Y9727D01*
X24021Y9759D01*
X24050D01*
X24085Y9766D01*
X24114Y9786D01*
X24214Y9885D01*
X24233Y9915D01*
X24240Y9950D01*
Y10391D01*
X24433D01*
Y10609D01*
X24567D01*
Y10391D01*
X25134D01*
Y11009D01*
X24567D01*
Y10791D01*
X24433D01*
Y11009D01*
X24229D01*
Y11102D01*
X24434D01*
Y11798D01*
D02*
G37*
G36*
X31420Y10770D02*
X31025D01*
Y10744D01*
X31054Y10636D01*
X31110Y10539D01*
X31189Y10460D01*
X31286Y10404D01*
X31394Y10375D01*
X31420D01*
Y10770D01*
D02*
G37*
G36*
X25974Y10670D02*
X25679D01*
Y10350D01*
X25974D01*
Y10670D01*
D02*
G37*
G36*
X25620D02*
X25325D01*
Y10350D01*
X25620D01*
Y10670D01*
D02*
G37*
G36*
X23675D02*
X23380D01*
Y10350D01*
X23675D01*
Y10670D01*
D02*
G37*
G36*
X23321D02*
X23026D01*
Y10350D01*
X23321D01*
Y10670D01*
D02*
G37*
G36*
X28335Y10495D02*
X27847D01*
Y10130D01*
X28335D01*
Y10495D01*
D02*
G37*
G36*
X27788D02*
X27300D01*
Y10130D01*
X27788D01*
Y10495D01*
D02*
G37*
G36*
X12425Y10520D02*
X11776D01*
Y10200D01*
Y9930D01*
X12425D01*
Y10200D01*
Y10520D01*
D02*
G37*
G36*
X28335Y10070D02*
X27847D01*
Y9705D01*
X28335D01*
Y10070D01*
D02*
G37*
G36*
X27788D02*
X27300D01*
Y9705D01*
X27788D01*
Y10070D01*
D02*
G37*
G36*
X26507Y9898D02*
X25916D01*
Y9641D01*
X25683D01*
Y9859D01*
X25116D01*
Y9241D01*
X25683D01*
Y9459D01*
X25916D01*
Y9202D01*
X26507D01*
Y9898D01*
D02*
G37*
G36*
X12425Y9870D02*
X12130D01*
Y9550D01*
X12425D01*
Y9870D01*
D02*
G37*
G36*
X12071D02*
X11776D01*
Y9550D01*
X12071D01*
Y9870D01*
D02*
G37*
G36*
X32486Y10076D02*
X32414D01*
X32344Y10057D01*
X32281Y10021D01*
X32229Y9969D01*
X32193Y9906D01*
X32174Y9836D01*
Y9764D01*
X32193Y9694D01*
X32229Y9631D01*
X32281Y9579D01*
X32344Y9543D01*
X32414Y9524D01*
X32486D01*
X32556Y9543D01*
X32619Y9579D01*
X32671Y9631D01*
X32707Y9694D01*
X32726Y9764D01*
Y9836D01*
X32707Y9906D01*
X32671Y9969D01*
X32619Y10021D01*
X32556Y10057D01*
X32486Y10076D01*
D02*
G37*
G36*
X24884Y9859D02*
X24317D01*
Y9641D01*
X24042D01*
X24007Y9634D01*
X23978Y9614D01*
X23893Y9529D01*
X23214D01*
X23180Y9522D01*
X23150Y9502D01*
X23131Y9473D01*
X23124Y9439D01*
Y9261D01*
X23131Y9227D01*
X23150Y9198D01*
X23180Y9178D01*
X23214Y9171D01*
X23931D01*
X23965Y9178D01*
X23995Y9198D01*
X24014Y9227D01*
X24021Y9261D01*
Y9400D01*
X24080Y9459D01*
X24317D01*
Y9241D01*
X24884D01*
Y9859D01*
D02*
G37*
G36*
X26507Y9098D02*
X25916D01*
Y8841D01*
X25683D01*
Y9059D01*
X25116D01*
Y8441D01*
X25683D01*
Y8659D01*
X25916D01*
Y8402D01*
X26507D01*
Y9098D01*
D02*
G37*
G36*
X28335Y9195D02*
X27847D01*
Y8830D01*
X28335D01*
Y9195D01*
D02*
G37*
G36*
X27788D02*
X27300D01*
Y8830D01*
X27788D01*
Y9195D01*
D02*
G37*
G36*
X24884Y9059D02*
X24317D01*
Y8741D01*
X24080D01*
X24021Y8800D01*
Y8939D01*
X24014Y8973D01*
X23995Y9002D01*
X23965Y9022D01*
X23931Y9029D01*
X23214D01*
X23180Y9022D01*
X23150Y9002D01*
X23131Y8973D01*
X23124Y8939D01*
Y8761D01*
X23131Y8727D01*
X23150Y8698D01*
X23180Y8678D01*
X23214Y8671D01*
X23893D01*
X23945Y8619D01*
X23937Y8591D01*
X23922Y8571D01*
X23602D01*
Y8380D01*
X24063D01*
Y8439D01*
X24053Y8489D01*
X24038Y8511D01*
X24066Y8559D01*
X24317D01*
Y8441D01*
X24884D01*
Y9059D01*
D02*
G37*
G36*
X31456Y8825D02*
X31430D01*
Y8430D01*
X31825D01*
Y8456D01*
X31796Y8564D01*
X31740Y8661D01*
X31661Y8740D01*
X31564Y8796D01*
X31456Y8825D01*
D02*
G37*
G36*
X28335Y8770D02*
X27847D01*
Y8405D01*
X28335D01*
Y8770D01*
D02*
G37*
G36*
X27788D02*
X27300D01*
Y8405D01*
X27788D01*
Y8770D01*
D02*
G37*
G36*
X23543Y8571D02*
X23214D01*
X23164Y8561D01*
X23121Y8532D01*
X23092Y8489D01*
X23082Y8439D01*
Y8380D01*
X23543D01*
Y8571D01*
D02*
G37*
G36*
X14050Y8475D02*
X13730D01*
Y8180D01*
X14050D01*
Y8475D01*
D02*
G37*
G36*
X13070D02*
X12750D01*
Y8180D01*
X13070D01*
Y8475D01*
D02*
G37*
G36*
X32436Y8676D02*
X32364D01*
X32294Y8657D01*
X32231Y8621D01*
X32179Y8569D01*
X32143Y8506D01*
X32124Y8436D01*
Y8364D01*
X32143Y8294D01*
X32179Y8231D01*
X32231Y8179D01*
X32294Y8143D01*
X32364Y8124D01*
X32436D01*
X32506Y8143D01*
X32569Y8179D01*
X32621Y8231D01*
X32657Y8294D01*
X32676Y8364D01*
Y8436D01*
X32657Y8506D01*
X32621Y8569D01*
X32569Y8621D01*
X32506Y8657D01*
X32436Y8676D01*
D02*
G37*
G36*
X31825Y8370D02*
X31430D01*
Y7975D01*
X31456D01*
X31564Y8004D01*
X31661Y8060D01*
X31740Y8139D01*
X31796Y8236D01*
X31825Y8344D01*
Y8370D01*
D02*
G37*
G36*
X29959Y10454D02*
X29006D01*
Y9874D01*
X28773Y9641D01*
X27184D01*
Y9898D01*
X26593D01*
Y9202D01*
X27184D01*
Y9459D01*
X28811D01*
X28845Y9466D01*
X28875Y9486D01*
X29135Y9746D01*
X29959D01*
Y10009D01*
X30112D01*
X30803Y9319D01*
Y7906D01*
X30810Y7872D01*
X30829Y7842D01*
X31072Y7600D01*
X31042Y7548D01*
X31016Y7451D01*
Y7349D01*
X31042Y7252D01*
X31093Y7164D01*
X31164Y7093D01*
X31252Y7042D01*
X31349Y7016D01*
X31451D01*
X31548Y7042D01*
X31636Y7093D01*
X31707Y7164D01*
X31758Y7252D01*
X31784Y7349D01*
Y7451D01*
X31758Y7548D01*
X31707Y7636D01*
X31636Y7707D01*
X31548Y7758D01*
X31451Y7784D01*
X31349D01*
X31252Y7758D01*
X31200Y7728D01*
X30984Y7944D01*
Y8170D01*
X31034Y8184D01*
X31060Y8139D01*
X31139Y8060D01*
X31236Y8004D01*
X31344Y7975D01*
X31370D01*
Y8400D01*
Y8825D01*
X31344D01*
X31236Y8796D01*
X31139Y8740D01*
X31060Y8661D01*
X31034Y8616D01*
X30984Y8630D01*
Y9356D01*
X30977Y9391D01*
X30958Y9421D01*
X30214Y10164D01*
X30185Y10184D01*
X30150Y10191D01*
X29959D01*
Y10454D01*
D02*
G37*
G36*
X32436Y7676D02*
X32364D01*
X32294Y7657D01*
X32231Y7621D01*
X32179Y7569D01*
X32143Y7506D01*
X32124Y7436D01*
Y7364D01*
X32143Y7294D01*
X32179Y7231D01*
X32231Y7179D01*
X32294Y7143D01*
X32364Y7124D01*
X32436D01*
X32506Y7143D01*
X32569Y7179D01*
X32621Y7231D01*
X32657Y7294D01*
X32676Y7364D01*
Y7436D01*
X32657Y7506D01*
X32621Y7569D01*
X32569Y7621D01*
X32506Y7657D01*
X32436Y7676D01*
D02*
G37*
G36*
X8600Y17888D02*
X8500D01*
X8428Y17873D01*
X8367Y17833D01*
X7567Y17033D01*
X7527Y16972D01*
X7512Y16900D01*
Y14628D01*
X7117Y14233D01*
X7077Y14172D01*
X7062Y14100D01*
X7077Y14028D01*
X7117Y13967D01*
X7178Y13927D01*
X7250Y13912D01*
X7322Y13927D01*
X7383Y13967D01*
X7833Y14417D01*
X7873Y14478D01*
X7888Y14550D01*
Y15778D01*
X7938Y15798D01*
X7968Y15768D01*
X7978Y15764D01*
Y9626D01*
X7985Y9592D01*
X8004Y9562D01*
X12381Y5186D01*
X12410Y5166D01*
X12445Y5159D01*
X15800D01*
X15835Y5166D01*
X15864Y5186D01*
X16078Y5400D01*
X16098Y5429D01*
X16105Y5464D01*
Y7122D01*
X16145Y7149D01*
X16155Y7152D01*
X16183Y7146D01*
X16239D01*
X16272Y7153D01*
X16301Y7172D01*
X16318D01*
X16347Y7153D01*
X16380Y7146D01*
X16435D01*
X16469Y7153D01*
X16498Y7172D01*
X16515D01*
X16543Y7153D01*
X16577Y7146D01*
X16632D01*
X16666Y7153D01*
X16695Y7172D01*
X16712D01*
X16740Y7153D01*
X16774Y7146D01*
X16829D01*
X16863Y7153D01*
X16892Y7172D01*
X16908D01*
X16937Y7153D01*
X16971Y7146D01*
X17026D01*
X17060Y7153D01*
X17088Y7172D01*
X17105D01*
X17134Y7153D01*
X17168Y7146D01*
X17223D01*
X17257Y7153D01*
X17285Y7172D01*
X17302D01*
X17331Y7153D01*
X17365Y7146D01*
X17420D01*
X17453Y7153D01*
X17482Y7172D01*
X17499D01*
X17528Y7153D01*
X17561Y7146D01*
X17617D01*
X17650Y7153D01*
X17679Y7172D01*
X17696D01*
X17724Y7153D01*
X17758Y7146D01*
X17813D01*
X17842Y7152D01*
X17852Y7149D01*
X17892Y7122D01*
Y6983D01*
X17641D01*
Y6416D01*
X18259D01*
Y6923D01*
X18309Y6938D01*
X18312Y6933D01*
X18391Y6855D01*
Y6416D01*
X19009D01*
Y6543D01*
X19085D01*
X19108Y6534D01*
X19179D01*
X19244Y6561D01*
X19294Y6610D01*
X19321Y6676D01*
Y6746D01*
X19294Y6811D01*
X19244Y6861D01*
X19179Y6888D01*
X19108D01*
X19058Y6867D01*
X19009D01*
Y6983D01*
X18519D01*
X18467Y7035D01*
Y7173D01*
X18486Y7200D01*
X18492Y7234D01*
Y7793D01*
X18486Y7827D01*
X18466Y7856D01*
X18438Y7875D01*
X18404Y7882D01*
X18349D01*
X18315Y7875D01*
X18305Y7877D01*
X18299Y7885D01*
X18257Y7913D01*
X18209Y7923D01*
Y7514D01*
X18150D01*
Y7923D01*
X18102Y7913D01*
X18060Y7885D01*
X18054Y7877D01*
X18044Y7875D01*
X18010Y7882D01*
X17955D01*
X17921Y7875D01*
X17893Y7856D01*
X17876D01*
X17847Y7875D01*
X17813Y7882D01*
X17758D01*
X17724Y7875D01*
X17696Y7856D01*
X17679D01*
X17650Y7875D01*
X17617Y7882D01*
X17561D01*
X17528Y7875D01*
X17499Y7856D01*
X17482D01*
X17453Y7875D01*
X17420Y7882D01*
X17365D01*
X17331Y7875D01*
X17302Y7856D01*
X17285D01*
X17257Y7875D01*
X17223Y7882D01*
X17168D01*
X17134Y7875D01*
X17105Y7856D01*
X17088D01*
X17060Y7875D01*
X17026Y7882D01*
X16971D01*
X16937Y7875D01*
X16908Y7856D01*
X16892D01*
X16863Y7875D01*
X16829Y7882D01*
X16774D01*
X16759Y7879D01*
X16745Y7927D01*
X16800Y7950D01*
X16850Y8000D01*
X16877Y8065D01*
Y8135D01*
X16850Y8200D01*
X16800Y8250D01*
X16735Y8277D01*
X16665D01*
X16604Y8252D01*
X16597Y8251D01*
X16540Y8261D01*
X16500Y8300D01*
X16435Y8327D01*
X16365D01*
X16300Y8300D01*
X16250Y8250D01*
X16241Y8230D01*
X16200Y8200D01*
X16135Y8227D01*
X16065D01*
X16000Y8200D01*
X15950Y8150D01*
X15923Y8085D01*
Y8015D01*
X15950Y7950D01*
X15970Y7929D01*
X15954Y7875D01*
X15953Y7875D01*
X15924Y7856D01*
X15907D01*
X15879Y7875D01*
X15845Y7882D01*
X15790D01*
X15756Y7875D01*
X15746Y7877D01*
X15740Y7885D01*
X15698Y7913D01*
X15650Y7923D01*
Y7514D01*
Y7105D01*
X15678Y7110D01*
X15728Y7079D01*
Y6933D01*
X15241D01*
Y6933D01*
X15209D01*
X15167Y6951D01*
X15153Y6983D01*
X15171Y7026D01*
Y7096D01*
X15144Y7161D01*
X15094Y7211D01*
X15029Y7238D01*
X14958D01*
X14893Y7211D01*
X14843Y7161D01*
X14816Y7096D01*
Y7026D01*
X14824Y7006D01*
Y6933D01*
X14591D01*
Y6933D01*
X14559D01*
Y6933D01*
X13941D01*
Y6933D01*
X13909D01*
Y6933D01*
X13291D01*
Y6817D01*
X13178D01*
X13129Y6838D01*
X13058D01*
X12993Y6811D01*
X12943Y6761D01*
X12916Y6696D01*
Y6626D01*
X12943Y6560D01*
X12993Y6511D01*
X13058Y6484D01*
X13129D01*
X13151Y6493D01*
X13291D01*
Y6366D01*
X13909D01*
Y6366D01*
X13941D01*
Y6366D01*
X14559D01*
Y6366D01*
X14591D01*
Y6366D01*
X15209D01*
Y6366D01*
X15241D01*
Y6366D01*
X15859D01*
Y6772D01*
X15873Y6783D01*
X15923Y6759D01*
Y6215D01*
X15900Y6175D01*
X15873Y6175D01*
X15580D01*
Y5850D01*
Y5526D01*
X15877D01*
X15898Y5476D01*
X15762Y5341D01*
X12483D01*
X10447Y7377D01*
X10466Y7423D01*
X15308D01*
Y7234D01*
X15314Y7200D01*
X15334Y7172D01*
X15362Y7153D01*
X15396Y7146D01*
X15451D01*
X15485Y7153D01*
X15495Y7151D01*
X15501Y7142D01*
X15543Y7114D01*
X15591Y7105D01*
Y7514D01*
Y7923D01*
X15543Y7913D01*
X15501Y7885D01*
X15495Y7877D01*
X15485Y7875D01*
X15451Y7882D01*
X15396D01*
X15362Y7875D01*
X15334Y7856D01*
X15314Y7827D01*
X15308Y7793D01*
Y7605D01*
X14654D01*
X14633Y7655D01*
X14728Y7750D01*
X14748Y7779D01*
X14755Y7814D01*
Y8158D01*
X14943D01*
X14977Y8164D01*
X15006Y8184D01*
X15025Y8212D01*
X15032Y8246D01*
Y8301D01*
X15025Y8335D01*
X15006Y8364D01*
Y8380D01*
X15025Y8409D01*
X15032Y8443D01*
Y8498D01*
X15025Y8532D01*
X15006Y8560D01*
Y8577D01*
X15025Y8606D01*
X15032Y8640D01*
Y8695D01*
X15025Y8729D01*
X15006Y8757D01*
Y8774D01*
X15025Y8803D01*
X15032Y8837D01*
Y8892D01*
X15025Y8926D01*
X15027Y8936D01*
X15035Y8942D01*
X15063Y8984D01*
X15073Y9032D01*
X14664D01*
X14255D01*
X14260Y9005D01*
X14228Y8955D01*
X14009D01*
Y9233D01*
X13489D01*
X13480Y9235D01*
X13471Y9233D01*
X12791D01*
Y8979D01*
X12648D01*
Y9184D01*
X11952D01*
Y8593D01*
X12648D01*
Y8798D01*
X12791D01*
Y8666D01*
X14009D01*
Y8773D01*
X14272D01*
X14299Y8734D01*
X14302Y8723D01*
X14296Y8695D01*
Y8640D01*
X14303Y8606D01*
X14308Y8597D01*
X14283Y8547D01*
X14257D01*
X14222Y8541D01*
X14192Y8521D01*
X14136Y8464D01*
X14116Y8435D01*
X14109Y8400D01*
Y7975D01*
X14100Y7966D01*
X14050Y7987D01*
Y8121D01*
X13700D01*
Y8150D01*
X13670D01*
Y8475D01*
X13130D01*
Y8150D01*
X13100D01*
Y8121D01*
X12750D01*
Y7928D01*
X12648D01*
Y8507D01*
X11952D01*
Y8416D01*
X11832D01*
X11779Y8438D01*
X11708D01*
X11643Y8411D01*
X11593Y8361D01*
X11566Y8296D01*
Y8226D01*
X11593Y8160D01*
X11643Y8111D01*
X11708Y8084D01*
X11779D01*
X11798Y8092D01*
X11952D01*
Y7928D01*
X10401D01*
X8898Y9430D01*
Y16256D01*
X8900Y16257D01*
X8950Y16307D01*
X8977Y16372D01*
Y16443D01*
X8950Y16508D01*
X8900Y16558D01*
X8835Y16585D01*
X8765D01*
X8700Y16558D01*
X8650Y16508D01*
X8623Y16443D01*
Y16372D01*
X8623Y16372D01*
X8560D01*
X8495Y16345D01*
X8445Y16295D01*
X8438Y16278D01*
X8389Y16268D01*
X8377Y16279D01*
X8312Y16306D01*
X8242D01*
X8177Y16279D01*
X8127Y16230D01*
X8100Y16164D01*
Y16095D01*
X8033D01*
X7968Y16068D01*
X7938Y16038D01*
X7888Y16059D01*
Y16822D01*
X8578Y17512D01*
X8600D01*
X8672Y17527D01*
X8733Y17567D01*
X8773Y17628D01*
X8788Y17700D01*
X8773Y17772D01*
X8733Y17833D01*
X8672Y17873D01*
X8600Y17888D01*
D02*
G37*
G36*
X32436Y6676D02*
X32364D01*
X32294Y6657D01*
X32231Y6621D01*
X32179Y6569D01*
X32143Y6506D01*
X32124Y6436D01*
Y6364D01*
X32143Y6294D01*
X32179Y6231D01*
X32231Y6179D01*
X32294Y6143D01*
X32364Y6124D01*
X32436D01*
X32506Y6143D01*
X32569Y6179D01*
X32621Y6231D01*
X32657Y6294D01*
X32676Y6364D01*
Y6436D01*
X32657Y6506D01*
X32621Y6569D01*
X32569Y6621D01*
X32506Y6657D01*
X32436Y6676D01*
D02*
G37*
G36*
X19050Y6225D02*
X18730D01*
Y5930D01*
X19050D01*
Y6225D01*
D02*
G37*
G36*
X18300D02*
X17980D01*
Y5930D01*
X18300D01*
Y6225D01*
D02*
G37*
G36*
X18670D02*
X18350D01*
Y5930D01*
X18670D01*
Y6225D01*
D02*
G37*
G36*
X17920D02*
X17600D01*
Y5930D01*
X17920D01*
Y6225D01*
D02*
G37*
G36*
X13570Y6175D02*
X13250D01*
Y5880D01*
X13570D01*
Y6175D01*
D02*
G37*
G36*
X19050Y5871D02*
X18730D01*
Y5576D01*
X19050D01*
Y5871D01*
D02*
G37*
G36*
X18670D02*
X18350D01*
Y5576D01*
X18670D01*
Y5871D01*
D02*
G37*
G36*
X18300D02*
X17980D01*
Y5576D01*
X18300D01*
Y5871D01*
D02*
G37*
G36*
X17920D02*
X17600D01*
Y5576D01*
X17920D01*
Y5871D01*
D02*
G37*
G36*
X13570Y5821D02*
X13250D01*
Y5526D01*
X13570D01*
Y5821D01*
D02*
G37*
G36*
X14220Y6175D02*
X13630D01*
Y5850D01*
Y5526D01*
X14220D01*
Y5850D01*
Y6175D01*
D02*
G37*
G36*
X14870D02*
X14280D01*
Y5850D01*
Y5526D01*
X14870D01*
Y5850D01*
Y6175D01*
D02*
G37*
G36*
X15520D02*
X14930D01*
Y5850D01*
Y5526D01*
X15520D01*
Y5850D01*
Y6175D01*
D02*
G37*
G36*
X32892Y5517D02*
Y5230D01*
X33209D01*
Y5517D01*
X32892D01*
D02*
G37*
G36*
X31433Y5509D02*
X30866D01*
Y4891D01*
X31433D01*
Y5109D01*
X31632D01*
Y4924D01*
X32243D01*
Y5476D01*
X31632D01*
Y5291D01*
X31433D01*
Y5509D01*
D02*
G37*
G36*
X30385Y5827D02*
X30315D01*
X30250Y5800D01*
X30200Y5750D01*
X30173Y5685D01*
Y5615D01*
X30188Y5578D01*
Y5509D01*
X30067D01*
Y4891D01*
X30634D01*
Y5509D01*
X30512D01*
Y5579D01*
X30527Y5615D01*
Y5685D01*
X30500Y5750D01*
X30450Y5800D01*
X30385Y5827D01*
D02*
G37*
G36*
X33209Y5170D02*
X32892D01*
Y4883D01*
X33209D01*
Y5170D01*
D02*
G37*
G36*
X32892Y4767D02*
Y4480D01*
X33209D01*
Y4767D01*
X32892D01*
D02*
G37*
G36*
X31433Y4759D02*
X30866D01*
Y4141D01*
X31433D01*
Y4359D01*
X31632D01*
Y4174D01*
X32243D01*
Y4726D01*
X31632D01*
Y4541D01*
X31433D01*
Y4759D01*
D02*
G37*
G36*
X33209Y4420D02*
X32892D01*
Y4133D01*
X33209D01*
Y4420D01*
D02*
G37*
G36*
X23221Y4450D02*
X22926D01*
Y4130D01*
X23221D01*
Y4450D01*
D02*
G37*
G36*
X33307Y3626D02*
X33059D01*
Y3280D01*
X33307D01*
Y3626D01*
D02*
G37*
G36*
X33000D02*
X32752D01*
Y3280D01*
X33000D01*
Y3626D01*
D02*
G37*
G36*
X33307Y3220D02*
X33059D01*
Y2874D01*
X33307D01*
Y3220D01*
D02*
G37*
G36*
X33000D02*
X32752D01*
Y2874D01*
X33000D01*
Y3220D01*
D02*
G37*
G36*
X23575Y2750D02*
X23280D01*
Y2430D01*
X23575D01*
Y2750D01*
D02*
G37*
G36*
X23221D02*
X22926D01*
Y2430D01*
X23221D01*
Y2750D01*
D02*
G37*
G36*
X33307Y1926D02*
X33059D01*
Y1580D01*
X33307D01*
Y1926D01*
D02*
G37*
G36*
X33000D02*
X32752D01*
Y1580D01*
X33000D01*
Y1926D01*
D02*
G37*
G36*
X33307Y1520D02*
X33059D01*
Y1174D01*
X33307D01*
Y1520D01*
D02*
G37*
G36*
X33000D02*
X32752D01*
Y1174D01*
X33000D01*
Y1520D01*
D02*
G37*
G36*
X23575Y2370D02*
X22926D01*
Y2050D01*
X22967D01*
Y1441D01*
X23088D01*
Y1372D01*
X23073Y1335D01*
Y1265D01*
X23100Y1200D01*
X23150Y1150D01*
X23215Y1123D01*
X23285D01*
X23350Y1150D01*
X23400Y1200D01*
X23427Y1265D01*
Y1335D01*
X23412Y1371D01*
Y1441D01*
X23534D01*
Y2050D01*
X23575D01*
Y2370D01*
D02*
G37*
%LPD*%
G36*
X25450Y16200D02*
X25600Y16050D01*
X25600Y14950D01*
X25450Y14800D01*
X24400D01*
X24350Y14750D01*
Y14400D01*
X24255Y14305D01*
X23445D01*
X23350Y14400D01*
Y15300D01*
X23200Y15450D01*
X22450D01*
X22350Y15550D01*
Y16100D01*
X22450Y16200D01*
X25450Y16200D01*
D02*
G37*
G36*
X27350Y13300D02*
X27150Y13100D01*
X24500D01*
X24200Y12900D01*
Y12600D01*
X24150Y12550D01*
X24050Y12450D01*
X23600D01*
X23400Y12650D01*
Y14050D01*
Y14150D01*
X26274D01*
Y13866D01*
X26262Y13809D01*
X26277Y13737D01*
X26317Y13676D01*
X26378Y13636D01*
X26450Y13621D01*
X26522Y13636D01*
X26583Y13676D01*
X26594Y13688D01*
X26635Y13749D01*
X26649Y13820D01*
Y14150D01*
X27350D01*
Y13300D01*
D02*
G37*
G36*
X19450Y16800D02*
X19500Y16750D01*
Y16050D01*
X19450Y16000D01*
X16750D01*
X16700Y16050D01*
Y16524D01*
X16717Y16564D01*
Y16635D01*
X16700Y16675D01*
Y16750D01*
X16750Y16800D01*
X19450Y16800D01*
D02*
G37*
%LPC*%
G36*
X19140Y16412D02*
X19002D01*
X18940Y16400D01*
X18888Y16365D01*
X18853Y16312D01*
X18840Y16250D01*
X18853Y16188D01*
X18888Y16135D01*
X18940Y16100D01*
X19002Y16088D01*
X19140D01*
X19202Y16100D01*
X19255Y16135D01*
X19290Y16188D01*
X19302Y16250D01*
X19290Y16312D01*
X19255Y16365D01*
X19202Y16400D01*
X19140Y16412D01*
D02*
G37*
%LPD*%
G36*
X28109Y6512D02*
Y3450D01*
X28116Y3415D01*
X28136Y3386D01*
X28586Y2936D01*
X28615Y2916D01*
X28650Y2909D01*
X28704D01*
Y2741D01*
X26437D01*
Y2970D01*
X25277D01*
Y2741D01*
X25088D01*
X24841Y2988D01*
Y7100D01*
X24834Y7135D01*
X24814Y7164D01*
X24546Y7432D01*
X24565Y7478D01*
X27143D01*
X28109Y6512D01*
D02*
G37*
%LPC*%
G36*
X26437Y7322D02*
X25887D01*
Y7030D01*
X26437D01*
Y7322D01*
D02*
G37*
G36*
X25828D02*
X25277D01*
Y7030D01*
X25828D01*
Y7322D01*
D02*
G37*
G36*
X26437Y6970D02*
X25887D01*
Y6678D01*
X26437D01*
Y6970D01*
D02*
G37*
G36*
X25828D02*
X25277D01*
Y6678D01*
X25828D01*
Y6970D01*
D02*
G37*
G36*
X26437Y6322D02*
X25887D01*
Y6030D01*
X26437D01*
Y6322D01*
D02*
G37*
G36*
X25828D02*
X25277D01*
Y6030D01*
X25828D01*
Y6322D01*
D02*
G37*
G36*
X26437Y5970D02*
X25887D01*
Y5678D01*
X26437D01*
Y5970D01*
D02*
G37*
G36*
X25828D02*
X25277D01*
Y5678D01*
X25828D01*
Y5970D01*
D02*
G37*
G36*
X26437Y5322D02*
X25887D01*
Y5030D01*
X26437D01*
Y5322D01*
D02*
G37*
G36*
X25828D02*
X25277D01*
Y5030D01*
X25828D01*
Y5322D01*
D02*
G37*
G36*
X26437Y4970D02*
X25887D01*
Y4678D01*
X26437D01*
Y4970D01*
D02*
G37*
G36*
X25828D02*
X25277D01*
Y4678D01*
X25828D01*
Y4970D01*
D02*
G37*
G36*
X26437Y4322D02*
X25887D01*
Y4030D01*
X26437D01*
Y4322D01*
D02*
G37*
G36*
X25828D02*
X25277D01*
Y4030D01*
X25828D01*
Y4322D01*
D02*
G37*
G36*
X26437Y3970D02*
X25887D01*
Y3678D01*
X26437D01*
Y3970D01*
D02*
G37*
G36*
X25828D02*
X25277D01*
Y3678D01*
X25828D01*
Y3970D01*
D02*
G37*
G36*
X26437Y3322D02*
X25887D01*
Y3030D01*
X26437D01*
Y3322D01*
D02*
G37*
G36*
X25828D02*
X25277D01*
Y3030D01*
X25828D01*
Y3322D01*
D02*
G37*
%LPD*%
D16*
X8595Y16195D02*
X8600Y16190D01*
X8800Y16408D02*
X8807Y16400D01*
X8600Y9432D02*
Y16190D01*
X8807Y9393D02*
Y16400D01*
X14412Y11226D02*
X14625D01*
X14664D01*
X14600Y11251D02*
X14625Y11226D01*
X14600Y11251D02*
Y11550D01*
X18376Y6998D02*
X18674Y6700D01*
X18700D01*
X18376Y6998D02*
Y7514D01*
X15576Y6650D02*
X15819Y6893D01*
Y7512D01*
X15817Y7514D02*
X15819Y7512D01*
X15550Y6650D02*
X15576D01*
X16014Y5464D02*
Y7514D01*
X15800Y5250D02*
X16014Y5464D01*
X17950Y6700D02*
X17983Y6732D01*
Y7514D01*
X10857Y12043D02*
X14607D01*
X10850Y12050D02*
X10857Y12043D01*
X14468Y12350D02*
X15200Y11618D01*
X11150Y12350D02*
X14468D01*
X14607Y12043D02*
X15081Y11569D01*
Y10879D02*
Y11569D01*
X15071Y10636D02*
X15200Y10765D01*
X14664Y10636D02*
X15071D01*
X15200Y10765D02*
Y11618D01*
X15035Y10833D02*
X15081Y10879D01*
X14664Y10833D02*
X15035D01*
X14200Y10500D02*
X14261Y10439D01*
X14664D01*
X13503Y10566D02*
Y10803D01*
X14200Y10500D02*
Y10750D01*
X13503Y10803D02*
X13550Y10850D01*
X14100D01*
X14200Y10750D01*
X13750Y11350D02*
X14288D01*
X14412Y11226D01*
X18467Y10833D02*
X19136D01*
X18450Y10850D02*
X18467Y10833D01*
X18444Y12400D02*
X18700D01*
X18376Y11986D02*
X18382Y11992D01*
Y12338D02*
X18444Y12400D01*
X18382Y11992D02*
Y12338D01*
X29700Y15900D02*
X30483D01*
X29700Y15400D02*
X30483D01*
X21450Y13150D02*
X22100D01*
X22100Y13150D01*
X22200Y13500D02*
X22300Y13600D01*
X22200Y13250D02*
Y13500D01*
X22100Y13150D02*
X22200Y13250D01*
X22300Y13600D02*
X22774D01*
X22850Y13676D01*
Y14424D02*
Y15050D01*
X13100Y8950D02*
X13700D01*
X12300Y8889D02*
X13039D01*
X13100Y8950D01*
X13480Y9144D02*
X13674Y8950D01*
X13785Y8864D02*
X14664D01*
X13700Y8950D02*
X13785Y8864D01*
X21628Y9850D02*
X21713D01*
X21801Y9938D01*
Y10550D01*
X21628Y8850D02*
Y9350D01*
X29483Y10100D02*
X30150D01*
X30894Y9356D01*
Y7906D02*
X31400Y7400D01*
X30894Y7906D02*
Y9356D01*
X30400Y7400D02*
Y8550D01*
X30162Y8788D02*
X30400Y8550D01*
X29495Y8788D02*
X30162D01*
X29483Y8800D02*
X29495Y8788D01*
X30400Y7400D02*
X31400Y6400D01*
X24050Y4100D02*
X24050Y4100D01*
X24050Y3500D02*
Y4100D01*
X23650Y3025D02*
X24050Y2626D01*
X23300Y7200D02*
X23650Y6850D01*
Y3025D02*
Y6850D01*
X24050Y3150D02*
X24669Y2531D01*
X30231D01*
X24050Y3150D02*
Y3500D01*
X25050Y2650D02*
X29850D01*
X24750Y2950D02*
X25050Y2650D01*
X24750Y2950D02*
Y7100D01*
X24050Y2400D02*
X30050D01*
X24050Y2600D02*
X24200Y2450D01*
X29850Y2650D02*
X30000Y2800D01*
X30050Y2400D02*
X30450Y2000D01*
X30231Y2531D02*
X30400Y2700D01*
X24050Y2400D02*
Y2600D01*
Y1950D02*
Y2400D01*
X30400Y3180D02*
X30470Y3250D01*
X30400Y2700D02*
Y3180D01*
X30000Y2800D02*
Y3800D01*
X30450Y1570D02*
Y2000D01*
Y1570D02*
X30470Y1550D01*
X30520Y1500D02*
X31350D01*
X30470Y1550D02*
X30520Y1500D01*
X31350D02*
X32400Y2550D01*
X24050Y2600D02*
X24050Y2600D01*
X19450Y7200D02*
X23300D01*
X19519Y7331D02*
X23619D01*
X24050Y6900D01*
X18650Y8200D02*
Y8432D01*
X18689Y8470D01*
X18650Y8200D02*
X19519Y7331D01*
X18689Y8470D02*
X19136D01*
X16605Y10045D02*
X19450Y7200D01*
X24050Y4100D02*
Y6900D01*
Y2600D02*
Y2626D01*
X14664Y10045D02*
X16605D01*
X27181Y7569D02*
X28200Y6550D01*
X27355Y7926D02*
X28557Y6724D01*
X19976Y8274D02*
X20800Y7450D01*
X20031Y8569D02*
X20912Y7688D01*
X20269Y8668D02*
X21011Y7926D01*
X27257Y7688D02*
X28319Y6626D01*
X19912Y8520D02*
X20863Y7569D01*
X21011Y7926D02*
X27355D01*
X20800Y7450D02*
X24400D01*
X24750Y7100D01*
X27306Y7807D02*
X28438Y6675D01*
X20863Y7569D02*
X27181D01*
X20912Y7688D02*
X27257D01*
X20961Y7807D02*
X27306D01*
X20150Y8618D02*
X20961Y7807D01*
X19136Y8274D02*
X19976D01*
X20650Y8623D02*
X20923Y8350D01*
X20650Y8623D02*
Y9600D01*
X20269Y8668D02*
Y9181D01*
X20388Y8717D02*
Y9412D01*
X20031Y8569D02*
Y8919D01*
X20388Y8717D02*
X21055Y8050D01*
X19912Y8520D02*
Y8738D01*
X21055Y8050D02*
X27400D01*
X20150Y8618D02*
Y9050D01*
X20923Y8350D02*
X21628D01*
X30000Y3800D02*
X30338Y4138D01*
Y4438D02*
X30350Y4450D01*
X30338Y4138D02*
Y4438D01*
X26901Y8399D02*
Y8737D01*
X26889Y8750D02*
X26901Y8737D01*
X27050Y8250D02*
X28850D01*
X26901Y8399D02*
X27050Y8250D01*
X29095Y8535D02*
X29361Y8800D01*
X29095Y8495D02*
Y8535D01*
X28850Y8250D02*
X29095Y8495D01*
X29361Y8800D02*
X29483D01*
X24150Y9950D02*
Y10700D01*
X23572Y9850D02*
X24050D01*
X24150Y9950D01*
Y10700D02*
X24850D01*
X24139Y10711D02*
X24150Y10700D01*
X24139Y10711D02*
Y11450D01*
X20026Y11226D02*
X20050Y11250D01*
X19136Y11226D02*
X20026D01*
X31300Y15150D02*
Y17200D01*
X31100Y17400D02*
X31300Y17200D01*
X30483Y17400D02*
X31100D01*
X31300Y15150D02*
X32950Y13500D01*
Y6150D02*
Y13500D01*
X32400Y5600D02*
X32950Y6150D01*
X32400Y2550D02*
Y5600D01*
X31150Y5200D02*
X31937D01*
X31150Y4450D02*
X31937D01*
X18641Y9850D02*
X18642Y9849D01*
X19135D02*
X19136Y9848D01*
X18642Y9849D02*
X19135D01*
X17307Y11499D02*
Y11540D01*
X17392Y11625D02*
Y11986D01*
X17307Y11540D02*
X17392Y11625D01*
X17594Y11306D02*
X17600Y11300D01*
X17589Y11986D02*
X17594Y11981D01*
Y11306D02*
Y11981D01*
X16738Y11505D02*
Y11553D01*
X16605Y11986D02*
X16630Y11961D01*
Y11661D02*
Y11961D01*
Y11661D02*
X16738Y11553D01*
X16404Y11454D02*
Y11982D01*
X16400Y11450D02*
X16404Y11454D01*
Y11982D02*
X16408Y11986D01*
X16200Y12750D02*
X16211Y12739D01*
Y11986D02*
Y12739D01*
X15424Y11986D02*
Y12627D01*
X15300Y12750D02*
X15424Y12627D01*
X12900Y10550D02*
X13487D01*
X13503Y10566D01*
X12900Y9900D02*
X13050Y9750D01*
X13850D01*
X13897Y9797D01*
Y10034D01*
X14184Y10184D02*
X14242Y10242D01*
X13897Y10034D02*
X14145D01*
X14184Y10072D02*
Y10184D01*
X14145Y10034D02*
X14184Y10072D01*
X14242Y10242D02*
X14664D01*
X28557Y6143D02*
X28700Y6000D01*
X28200Y3450D02*
X28650Y3000D01*
X28319Y4181D02*
X28500Y4000D01*
X28319Y4181D02*
Y6626D01*
X28557Y6143D02*
Y6724D01*
X28438Y5262D02*
X28700Y5000D01*
X28438Y5262D02*
Y6675D01*
X28200Y3450D02*
Y6550D01*
X28700Y6000D02*
X29243D01*
X28500Y4000D02*
X29243D01*
X28650Y3000D02*
X29243D01*
X28450Y7000D02*
X29243D01*
X27400Y8050D02*
X28450Y7000D01*
X19136Y8864D02*
X19786D01*
X19912Y8738D01*
X19136Y9061D02*
X19889D01*
X20031Y8919D01*
X19995Y9455D02*
X20269Y9181D01*
X20148Y9652D02*
X20388Y9412D01*
X19942Y9258D02*
X20150Y9050D01*
X19136Y9652D02*
X20148D01*
X19136Y9258D02*
X19942D01*
X28700Y5000D02*
X29243D01*
X19136Y9455D02*
X19995D01*
X28811Y9550D02*
X29361Y10100D01*
X29483D01*
X26889Y9550D02*
X28811D01*
X25400Y8750D02*
X26211D01*
X25400Y9550D02*
X26211D01*
X24042Y8650D02*
X24500D01*
X23842Y8850D02*
X24042Y8650D01*
X24500D02*
X24600Y8750D01*
X23572Y8850D02*
X23842D01*
Y9350D02*
X24042Y9550D01*
X24600D01*
X23572Y9350D02*
X23842D01*
X22100Y10950D02*
X22200Y10850D01*
Y9622D02*
Y10850D01*
X21400Y10950D02*
X22100D01*
X19136Y10636D02*
X21086D01*
X21400Y10950D01*
X22016Y9438D02*
X22200Y9622D01*
X21716Y9438D02*
X22016D01*
X21628Y9350D02*
X21716Y9438D01*
X19136Y10045D02*
X20205D01*
X20650Y9600D01*
X20493Y10242D02*
X20885Y9850D01*
X21628D01*
X19136Y10242D02*
X20493D01*
X16100Y8002D02*
X16186Y7916D01*
X16100Y8002D02*
Y8050D01*
X16404Y7518D02*
Y8146D01*
X16400Y8150D02*
X16404Y8146D01*
Y7518D02*
X16408Y7514D01*
X3007Y3600D02*
Y4164D01*
X3131Y4288D01*
X2800Y3300D02*
Y4698D01*
X3193Y5091D01*
X3250Y3900D02*
Y4811D01*
X3131Y4861D02*
X3312Y5042D01*
X3131Y4288D02*
Y4861D01*
X3250Y4811D02*
X3431Y4992D01*
X3550Y4050D02*
Y9900D01*
X3312Y5042D02*
Y10962D01*
X3193Y11011D02*
X3600Y11418D01*
X4038Y10388D02*
Y10488D01*
X3431Y4992D02*
Y10381D01*
X3312Y10962D02*
X3850Y11500D01*
X3550Y9900D02*
X4038Y10388D01*
X3193Y5091D02*
Y11011D01*
X3431Y10381D02*
X4038Y10988D01*
X14689Y9677D02*
X15276D01*
X14664Y9652D02*
X14689Y9677D01*
X15276D02*
X15304Y9705D01*
X14664Y9455D02*
X15075D01*
X15116Y9414D01*
X15356D01*
X16700Y8052D02*
Y8100D01*
X16605Y7514D02*
Y7957D01*
X16700Y8052D01*
X16186Y7539D02*
Y7916D01*
Y7539D02*
X16211Y7514D01*
X8277Y9586D02*
X10349Y7514D01*
X8807Y9393D02*
X10363Y7837D01*
X12445Y5250D02*
X15800D01*
X8068Y9626D02*
X12445Y5250D01*
X8068Y9626D02*
Y15918D01*
X8600Y9432D02*
X10356Y7676D01*
X14526D01*
X10363Y7837D02*
X14137D01*
X8277Y9586D02*
Y16129D01*
X10349Y7514D02*
X15424D01*
X14664Y7814D02*
Y8274D01*
X14526Y7676D02*
X14664Y7814D01*
X14200Y7900D02*
Y8400D01*
X14137Y7837D02*
X14200Y7900D01*
Y8400D02*
X14257Y8457D01*
X14650D02*
X14664Y8470D01*
X14257Y8457D02*
X14650D01*
X3757Y4900D02*
X3791Y4934D01*
X4084D01*
X4150Y5000D01*
X3600Y11418D02*
Y11700D01*
X3850Y11500D02*
X4150D01*
X3600Y11700D02*
X3888Y11988D01*
X4138D01*
X4150Y12000D01*
X4288Y10488D02*
X4300Y10500D01*
X4038Y10488D02*
X4288D01*
D17*
X12100Y9900D02*
D03*
X12900D02*
D03*
X12950Y11350D02*
D03*
X13750D02*
D03*
X24600Y9550D02*
D03*
X25400D02*
D03*
X21801Y10550D02*
D03*
X22600D02*
D03*
X24600Y8750D02*
D03*
X25400D02*
D03*
X23350Y10700D02*
D03*
X24150D02*
D03*
X25650D02*
D03*
X24850D02*
D03*
X24050Y3500D02*
D03*
X23250D02*
D03*
X30350Y4450D02*
D03*
X31150D02*
D03*
X23250Y4100D02*
D03*
X24050D02*
D03*
X30350Y5200D02*
D03*
X31150D02*
D03*
X24050Y1750D02*
D03*
X23250D02*
D03*
X23000Y13050D02*
D03*
X23800D02*
D03*
X20849Y11250D02*
D03*
X20050D02*
D03*
X23250Y2400D02*
D03*
X24050D02*
D03*
X12100Y10550D02*
D03*
X12900D02*
D03*
D18*
X26461Y15350D02*
D03*
X27139D02*
D03*
X26889Y9550D02*
D03*
X26211D02*
D03*
X26889Y8750D02*
D03*
X26211D02*
D03*
X24139Y11450D02*
D03*
X23461D02*
D03*
D19*
X13897Y10566D02*
D03*
Y10034D02*
D03*
X13503D02*
D03*
Y10566D02*
D03*
D20*
X31937Y5200D02*
D03*
X32863D02*
D03*
X31937Y4450D02*
D03*
X32863D02*
D03*
D21*
X14250Y5850D02*
D03*
Y6650D02*
D03*
X16200Y12750D02*
D03*
Y13550D02*
D03*
X17450Y14550D02*
D03*
Y15350D02*
D03*
Y17200D02*
D03*
Y16400D02*
D03*
X13600Y5850D02*
D03*
Y6650D02*
D03*
X15550Y5850D02*
D03*
Y6650D02*
D03*
X13700Y8150D02*
D03*
Y8950D02*
D03*
X22850Y15850D02*
D03*
Y15050D02*
D03*
X18150Y14544D02*
D03*
Y15343D02*
D03*
X18700Y5900D02*
D03*
Y6700D02*
D03*
X14900Y5850D02*
D03*
Y6650D02*
D03*
X13100Y8150D02*
D03*
Y8950D02*
D03*
X17950Y5900D02*
D03*
Y6700D02*
D03*
X18150Y17200D02*
D03*
Y16400D02*
D03*
X15300Y13550D02*
D03*
Y12750D02*
D03*
X22100Y13950D02*
D03*
Y13150D02*
D03*
X21450Y13150D02*
D03*
Y13950D02*
D03*
X22850Y16600D02*
D03*
Y17400D02*
D03*
D22*
X23834Y14424D02*
D03*
Y14050D02*
D03*
Y13676D02*
D03*
X22850D02*
D03*
Y14050D02*
D03*
Y14424D02*
D03*
D23*
X25100Y13809D02*
D03*
Y12691D02*
D03*
X26450D02*
D03*
Y13809D02*
D03*
D24*
X24700Y17732D02*
D03*
Y15350D02*
D03*
D25*
X12300Y8889D02*
D03*
Y8211D02*
D03*
D26*
X29243Y7000D02*
D03*
Y6000D02*
D03*
Y5000D02*
D03*
Y4000D02*
D03*
Y3000D02*
D03*
Y2000D02*
D03*
X25857Y7000D02*
D03*
Y6000D02*
D03*
Y5000D02*
D03*
Y4000D02*
D03*
Y3000D02*
D03*
Y2000D02*
D03*
D27*
X29483Y10100D02*
D03*
X27817D02*
D03*
X29483Y8800D02*
D03*
X27817D02*
D03*
D28*
X30483Y17400D02*
D03*
X32117D02*
D03*
X30483Y16900D02*
D03*
X32117D02*
D03*
X30483Y16400D02*
D03*
X32117D02*
D03*
X30483Y15900D02*
D03*
X32117D02*
D03*
Y15400D02*
D03*
X30483D02*
D03*
D29*
X19140Y17156D02*
D03*
Y16250D02*
D03*
Y15344D02*
D03*
D30*
X21660Y16250D02*
D03*
D31*
X29300Y12460D02*
D03*
Y13640D02*
D03*
D32*
X33030Y3250D02*
D03*
X30470D02*
D03*
X33030Y1550D02*
D03*
X30470D02*
D03*
D33*
X27950Y14796D02*
D03*
Y13104D02*
D03*
D34*
X23572Y9850D02*
D03*
Y9350D02*
D03*
Y8850D02*
D03*
Y8350D02*
D03*
X21628D02*
D03*
Y8850D02*
D03*
Y9350D02*
D03*
Y9850D02*
D03*
D35*
X19136Y11226D02*
D03*
Y11030D02*
D03*
Y10833D02*
D03*
Y10636D02*
D03*
Y10439D02*
D03*
Y10242D02*
D03*
Y10045D02*
D03*
Y9848D02*
D03*
Y9652D02*
D03*
Y9455D02*
D03*
Y9258D02*
D03*
Y9061D02*
D03*
Y8864D02*
D03*
Y8667D02*
D03*
Y8470D02*
D03*
Y8274D02*
D03*
X14664D02*
D03*
Y8470D02*
D03*
Y8667D02*
D03*
Y8864D02*
D03*
Y9061D02*
D03*
Y9258D02*
D03*
Y9455D02*
D03*
Y9652D02*
D03*
Y9848D02*
D03*
Y10045D02*
D03*
Y10242D02*
D03*
Y10439D02*
D03*
Y10636D02*
D03*
Y10833D02*
D03*
Y11030D02*
D03*
Y11226D02*
D03*
D36*
X18376Y7514D02*
D03*
X18180D02*
D03*
X17983D02*
D03*
X17786D02*
D03*
X17589D02*
D03*
X17392D02*
D03*
X17195D02*
D03*
X16998D02*
D03*
X16802D02*
D03*
X16605D02*
D03*
X16408D02*
D03*
X16211D02*
D03*
X16014D02*
D03*
X15817D02*
D03*
X15620D02*
D03*
X15424D02*
D03*
Y11986D02*
D03*
X15620D02*
D03*
X15817D02*
D03*
X16014D02*
D03*
X16211D02*
D03*
X16408D02*
D03*
X16605D02*
D03*
X16802D02*
D03*
X16998D02*
D03*
X17195D02*
D03*
X17392D02*
D03*
X17589D02*
D03*
X17786D02*
D03*
X17983D02*
D03*
X18180D02*
D03*
X18376D02*
D03*
D63*
X8500Y17700D02*
X8600D01*
X7700Y16900D02*
X8500Y17700D01*
X7700Y14550D02*
Y16900D01*
X26461Y13820D02*
Y15350D01*
X26450Y13809D02*
X26461Y13820D01*
X7250Y14100D02*
X7700Y14550D01*
D64*
X16924Y15368D02*
X16934D01*
X16953Y15350D02*
X17450D01*
X16934Y15368D02*
X16953Y15350D01*
X22900Y11450D02*
X23461D01*
X22550Y11100D02*
X22900Y11450D01*
X32838Y15405D02*
X32843Y15411D01*
X32117Y15400D02*
X32122Y15405D01*
X32838D01*
X14900Y6650D02*
X15550D01*
X14250D02*
X14900D01*
X13600D02*
X14250D01*
X14850Y12750D02*
X14850Y12750D01*
X22557Y10593D02*
Y11093D01*
Y10593D02*
X22600Y10550D01*
X22550Y11100D02*
X22557Y11093D01*
X19138Y6705D02*
X19143Y6711D01*
X18700Y6700D02*
X18706Y6705D01*
X19138D01*
X11750Y8254D02*
X12258D01*
X11743Y8261D02*
X11750Y8254D01*
X12258D02*
X12300Y8211D01*
X13099Y6655D02*
X13594D01*
X13093Y6661D02*
X13099Y6655D01*
X13594D02*
X13600Y6650D01*
X14986Y6736D02*
Y7054D01*
X14900Y6650D02*
X14986Y6736D01*
Y7054D02*
X14993Y7061D01*
X15300Y12750D02*
X15300Y12750D01*
X14850Y12750D02*
X15300D01*
X20047Y11253D02*
Y11657D01*
X20043Y11661D02*
X20047Y11657D01*
Y11253D02*
X20050Y11250D01*
X30350Y5200D02*
Y5650D01*
X30350Y5650D02*
X30350Y5650D01*
Y5200D02*
X30350Y5200D01*
X23250Y1300D02*
X23250Y1300D01*
Y1750D02*
X23250Y1750D01*
X23250Y1300D02*
Y1750D01*
X22800Y3500D02*
X23250D01*
X19002Y16250D02*
X19140D01*
X17450Y15350D02*
X17453Y15346D01*
X18147D02*
X18150Y15343D01*
X17453Y15346D02*
X18147D01*
X19140Y15344D02*
X19140Y15344D01*
X18151Y15344D02*
X19140D01*
X18150Y15343D02*
X18151Y15344D01*
X19140Y15344D02*
X20044D01*
X20250Y15550D01*
X21450Y13950D02*
Y15050D01*
X21250Y15250D02*
X21450Y15050D01*
X20550Y15250D02*
X21250D01*
X20250Y15550D02*
X20550Y15250D01*
X20250Y15550D02*
Y16450D01*
X21200Y17400D01*
X22850D01*
X22876D02*
X23208Y17732D01*
X22850Y17400D02*
X22876D01*
X23208Y17732D02*
X24700D01*
X27706Y15218D02*
X27950Y14974D01*
Y14796D02*
Y14974D01*
X27270Y15218D02*
X27706D01*
X27139Y15350D02*
X27270Y15218D01*
X27950Y13281D02*
X28309Y13640D01*
X27950Y13104D02*
Y13281D01*
X28309Y13640D02*
X29300D01*
X29610D02*
X30050Y13200D01*
X29300Y13640D02*
X29610D01*
X30050Y13200D02*
X31450D01*
X32000Y10350D02*
Y13334D01*
X31315Y14019D02*
X32000Y13334D01*
X29033Y14019D02*
X31315D01*
X28900Y14152D02*
X29033Y14019D01*
X28900Y14152D02*
Y14450D01*
X31450Y9800D02*
X32000Y10350D01*
D65*
X2250Y15250D02*
X2842Y15842D01*
X2250Y14250D02*
X3663Y15663D01*
X5128D01*
X2842Y15842D02*
X5202D01*
X4706Y12056D02*
X5186D01*
X4650Y12000D02*
X4706Y12056D01*
X4650Y12500D02*
X5050D01*
X5200Y12650D01*
X2979Y14323D02*
X3961Y15305D01*
X3158Y14248D02*
X4035Y15126D01*
X3158Y12158D02*
Y14248D01*
X2447Y10697D02*
X3337Y11587D01*
X2800Y14397D02*
X3887Y15484D01*
X2250Y11250D02*
X3158Y12158D01*
X3337Y11587D02*
Y14174D01*
X2800Y13800D02*
Y14397D01*
X2250Y13250D02*
X2800Y13800D01*
X2250Y12250D02*
X2979Y12979D01*
Y14323D01*
X3337Y14174D02*
X4110Y14947D01*
X2407Y10697D02*
X2447D01*
X2351Y10351D02*
Y10641D01*
X2407Y10697D01*
X2250Y10250D02*
X2351Y10351D01*
X4979Y15305D02*
X5558Y14726D01*
X3887Y15484D02*
X5053D01*
X4905Y15126D02*
X5379Y14652D01*
X3961Y15305D02*
X4979D01*
X4035Y15126D02*
X4905D01*
X5053Y15484D02*
X5737Y14800D01*
X5128Y15663D02*
X5916Y14874D01*
X3226Y16021D02*
X5276D01*
X3300Y16200D02*
X5350D01*
X2250Y16250D02*
X2997D01*
X4110Y14947D02*
X4831D01*
X5202Y15842D02*
X6095Y14948D01*
X5276Y16021D02*
X6274Y15022D01*
X5350Y16200D02*
X6453Y15097D01*
X4831Y14947D02*
X5200Y14577D01*
X2250Y17250D02*
X3300Y16200D01*
X2997Y16250D02*
X3226Y16021D01*
X5200Y12650D02*
Y14577D01*
X5379Y12249D02*
Y14652D01*
X5916Y10816D02*
Y14874D01*
X6274Y9924D02*
Y15022D01*
X5737Y11337D02*
Y14800D01*
X5558Y11858D02*
Y14726D01*
X6095Y10349D02*
Y14948D01*
X6453Y9503D02*
Y15097D01*
X2021Y1295D02*
X2598D01*
X600Y1450D02*
X1650Y400D01*
X779Y1524D02*
X1724Y579D01*
X958Y1598D02*
X1798Y758D01*
X1137Y1673D02*
X1873Y937D01*
X1316Y1747D02*
X1947Y1116D01*
X2095Y1474D02*
X2524D01*
X1495Y1821D02*
X2021Y1295D01*
X1674Y1895D02*
X2095Y1474D01*
X2250Y1950D02*
X2350D01*
X1674Y1895D02*
Y3018D01*
X1495Y1821D02*
Y3545D01*
X1674Y3018D02*
X1745Y3088D01*
X1650Y400D02*
X2969D01*
X1724Y579D02*
X2895D01*
X1798Y758D02*
X2821D01*
X1873Y937D02*
X2747D01*
X1947Y1116D02*
X2673D01*
X2747Y937D02*
X5687Y3877D01*
X2673Y1116D02*
X5508Y3952D01*
X2598Y1295D02*
X5329Y4026D01*
X2524Y1474D02*
X5150Y4100D01*
X2350Y1950D02*
X4750Y4350D01*
X2969Y400D02*
X6224Y3655D01*
X2895Y579D02*
X6045Y3729D01*
X2821Y758D02*
X5866Y3803D01*
X4750Y4350D02*
Y5020D01*
X5150Y4100D02*
Y5403D01*
X5329Y4026D02*
Y5651D01*
X4800Y5500D02*
X4827Y5473D01*
X5080D01*
X5508Y3952D02*
Y6222D01*
X5687Y3877D02*
Y6763D01*
X5080Y5473D02*
X5150Y5403D01*
X5866Y3803D02*
Y7084D01*
X4800Y7000D02*
X5450D01*
X4800Y7500D02*
X5450D01*
X4800Y6500D02*
X5230D01*
X5450Y7000D02*
X5687Y6763D01*
X6224Y3655D02*
Y8176D01*
X6045Y3729D02*
Y7655D01*
X5700Y8000D02*
X6045Y7655D01*
X5450Y7500D02*
X5866Y7084D01*
X1745Y3088D02*
X2038D01*
X2100Y3150D01*
X1137Y1673D02*
Y5187D01*
X958Y1598D02*
Y6008D01*
X1495Y3545D02*
X2100Y4150D01*
X958Y6008D02*
X2100Y7150D01*
X779Y1524D02*
Y6829D01*
X600Y1450D02*
Y7650D01*
X1316Y4366D02*
X2100Y5150D01*
X779Y6829D02*
X2100Y8150D01*
X1137Y5187D02*
X2100Y6150D01*
X600Y7650D02*
X2100Y9150D01*
X1316Y1747D02*
Y4366D01*
X5006Y5974D02*
X5329Y5651D01*
X4800Y5974D02*
X5006D01*
X5230Y6500D02*
X5508Y6222D01*
X4800Y8000D02*
X5700D01*
X4669Y10450D02*
X5550D01*
X4800Y10000D02*
X5747D01*
X5900Y8500D02*
X6224Y8176D01*
X5747Y10000D02*
X6095Y10349D01*
X4800Y8500D02*
X5900D01*
X5850Y9500D02*
X6274Y9924D01*
X4800Y9500D02*
X5850D01*
X4800Y9000D02*
X5950D01*
X6453Y9503D01*
X5550Y10450D02*
X5916Y10816D01*
X4800Y11000D02*
X5400D01*
X5737Y11337D01*
X4800Y11500D02*
X5200D01*
X5558Y11858D01*
X5186Y12056D02*
X5379Y12249D01*
D66*
X2250Y8950D02*
D03*
X31450Y12200D02*
D03*
X31400Y6400D02*
D03*
X2250Y17250D02*
D03*
X31450Y9800D02*
D03*
D67*
X2250Y7950D02*
D03*
Y6950D02*
D03*
Y5950D02*
D03*
Y4950D02*
D03*
Y3950D02*
D03*
Y2950D02*
D03*
Y1950D02*
D03*
X31450Y13200D02*
D03*
X31400Y8400D02*
D03*
Y7400D02*
D03*
X2250Y16250D02*
D03*
Y15250D02*
D03*
Y14250D02*
D03*
Y13250D02*
D03*
Y12250D02*
D03*
Y11250D02*
D03*
Y10250D02*
D03*
X31450Y10800D02*
D03*
D68*
X32450Y13200D02*
D03*
Y12200D02*
D03*
X32400Y8400D02*
D03*
Y7400D02*
D03*
Y6400D02*
D03*
X32450Y10800D02*
D03*
Y9800D02*
D03*
D69*
X28900Y14450D02*
D03*
D70*
X29400D02*
D03*
X29900D02*
D03*
X4150Y5000D02*
D03*
X4650Y5500D02*
D03*
X4150D02*
D03*
X4650Y6000D02*
D03*
X4150D02*
D03*
X4650Y6500D02*
D03*
X4150D02*
D03*
X4650Y7000D02*
D03*
X4150D02*
D03*
X4650Y7500D02*
D03*
X4150D02*
D03*
X4650Y8000D02*
D03*
X4150D02*
D03*
X4650Y8500D02*
D03*
X4150D02*
D03*
X4650Y9000D02*
D03*
X4150D02*
D03*
X4650Y9500D02*
D03*
X4150D02*
D03*
X4650Y10000D02*
D03*
X4150D02*
D03*
X4650Y10500D02*
D03*
X4150D02*
D03*
X4650Y11000D02*
D03*
X4150D02*
D03*
X4650Y11500D02*
D03*
X4150D02*
D03*
X4650Y12000D02*
D03*
X4150D02*
D03*
X4650Y12500D02*
D03*
X4150D02*
D03*
X4650Y13000D02*
D03*
X4150D02*
D03*
X4650Y13500D02*
D03*
X4150D02*
D03*
X4650Y14000D02*
D03*
X4150D02*
D03*
X4650Y14500D02*
D03*
X4150D02*
D03*
D71*
X4650Y5000D02*
D03*
D72*
X8600Y17700D02*
D03*
X1539Y13599D02*
D03*
X3789Y18099D02*
D03*
X16924Y15368D02*
D03*
X1539Y10599D02*
D03*
X12039Y16408D02*
D03*
X10539D02*
D03*
X6039D02*
D03*
X1539Y16599D02*
D03*
X13465Y16408D02*
D03*
X15039Y16599D02*
D03*
X18039Y13621D02*
D03*
X19539D02*
D03*
X21039D02*
D03*
X32289Y18099D02*
D03*
Y9099D02*
D03*
X30789Y18099D02*
D03*
Y12099D02*
D03*
X30039Y7599D02*
D03*
X30789Y6099D02*
D03*
X30039Y1599D02*
D03*
X29289Y18099D02*
D03*
X28539Y10599D02*
D03*
Y7599D02*
D03*
Y1599D02*
D03*
X27789Y18099D02*
D03*
X27039Y16599D02*
D03*
Y10599D02*
D03*
X27789Y6099D02*
D03*
X27039Y4599D02*
D03*
X27789Y3099D02*
D03*
X27039Y1599D02*
D03*
X26289Y18099D02*
D03*
X25539Y16599D02*
D03*
X24039D02*
D03*
X23289Y6099D02*
D03*
X22539Y4599D02*
D03*
Y1599D02*
D03*
X21789Y18099D02*
D03*
X21039Y16599D02*
D03*
X21789Y15099D02*
D03*
Y6099D02*
D03*
X21039Y4599D02*
D03*
X21789Y3099D02*
D03*
X21039Y1599D02*
D03*
X20289Y18099D02*
D03*
Y15099D02*
D03*
Y6099D02*
D03*
X19539Y4599D02*
D03*
X20289Y3099D02*
D03*
X19539Y1599D02*
D03*
X18789Y18099D02*
D03*
Y12099D02*
D03*
X18039Y4599D02*
D03*
X18789Y3099D02*
D03*
X18039Y1599D02*
D03*
X17289Y18099D02*
D03*
X16539Y16599D02*
D03*
Y10599D02*
D03*
X17289Y6099D02*
D03*
X16539Y4599D02*
D03*
X17289Y3099D02*
D03*
X16539Y1599D02*
D03*
X15789Y18099D02*
D03*
Y9099D02*
D03*
Y3099D02*
D03*
X15039Y1599D02*
D03*
X14289Y18099D02*
D03*
Y15099D02*
D03*
X13539Y13599D02*
D03*
Y4599D02*
D03*
X14289Y3099D02*
D03*
X13539Y1599D02*
D03*
X12789Y18099D02*
D03*
Y15099D02*
D03*
Y6099D02*
D03*
X12039Y4599D02*
D03*
Y1599D02*
D03*
X11289Y18099D02*
D03*
X10539Y13599D02*
D03*
Y10599D02*
D03*
X11289Y9099D02*
D03*
Y6099D02*
D03*
X10539Y4599D02*
D03*
Y1599D02*
D03*
X9789Y18099D02*
D03*
Y9099D02*
D03*
X9039Y7599D02*
D03*
X9789Y6099D02*
D03*
X9039Y4599D02*
D03*
Y1599D02*
D03*
X8289Y18099D02*
D03*
X7539Y13599D02*
D03*
Y10599D02*
D03*
X8289Y9099D02*
D03*
X7539Y7599D02*
D03*
X8289Y6099D02*
D03*
X7539Y4599D02*
D03*
Y1599D02*
D03*
X6789Y18099D02*
D03*
Y12099D02*
D03*
Y9099D02*
D03*
Y6099D02*
D03*
X6039Y1599D02*
D03*
X5289Y18099D02*
D03*
X4539Y16599D02*
D03*
Y1599D02*
D03*
X2289Y18099D02*
D03*
X8800Y16408D02*
D03*
X8595Y16195D02*
D03*
X16850Y16200D02*
D03*
X14600Y11550D02*
D03*
X14850Y12750D02*
D03*
X22550Y11100D02*
D03*
X19143Y6711D02*
D03*
X14993Y7061D02*
D03*
X13093Y6661D02*
D03*
X11743Y8261D02*
D03*
X32843Y15411D02*
D03*
X30350Y5650D02*
D03*
X22800Y3500D02*
D03*
X23250Y1300D02*
D03*
X20043Y11661D02*
D03*
X16850Y16600D02*
D03*
X10850Y12050D02*
D03*
X11150Y12350D02*
D03*
X18450Y10850D02*
D03*
X18700Y12400D02*
D03*
X29700Y15900D02*
D03*
Y15400D02*
D03*
X24314Y13319D02*
D03*
X16738Y11505D02*
D03*
X17600Y11300D02*
D03*
X17307Y11499D02*
D03*
X16100Y8050D02*
D03*
X16400Y8150D02*
D03*
X3007Y3600D02*
D03*
X2800Y3300D02*
D03*
X3250Y3900D02*
D03*
X3550Y4050D02*
D03*
X8068Y15918D02*
D03*
X8277Y16129D02*
D03*
X15356Y9414D02*
D03*
X15304Y9705D02*
D03*
X16700Y8100D02*
D03*
X18641Y9850D02*
D03*
X16400Y11450D02*
D03*
X3757Y4900D02*
D03*
X7250Y14100D02*
D03*
M02*
