G04*
G04 #@! TF.GenerationSoftware,Altium Limited,Altium Designer,23.3.1 (30)*
G04*
G04 Layer_Physical_Order=2*
G04 Layer_Color=36540*
%FSLAX24Y24*%
%MOIN*%
G70*
G04*
G04 #@! TF.SameCoordinates,D40D81B0-760B-49B0-83D9-93248203E87C*
G04*
G04*
G04 #@! TF.FilePolarity,Positive*
G04*
G01*
G75*
%ADD67C,0.0650*%
%ADD70C,0.0413*%
%ADD72C,0.0236*%
G36*
X32188Y19001D02*
X32278D01*
X32457Y18978D01*
X32632Y18931D01*
X32799Y18861D01*
X32956Y18771D01*
X33100Y18661D01*
X33228Y18533D01*
X33338Y18389D01*
X33428Y18233D01*
X33498Y18065D01*
X33545Y17891D01*
X33568Y17711D01*
Y17621D01*
X33568Y1676D01*
Y1585D01*
X33545Y1406D01*
X33498Y1231D01*
X33428Y1064D01*
X33338Y907D01*
X33228Y763D01*
X33100Y636D01*
X32956Y525D01*
X32799Y435D01*
X32632Y366D01*
X32457Y319D01*
X32278Y295D01*
X32188Y295D01*
X1585D01*
X1406Y319D01*
X1231Y366D01*
X1064Y435D01*
X907Y525D01*
X763Y636D01*
X636Y763D01*
X525Y907D01*
X435Y1064D01*
X366Y1231D01*
X319Y1406D01*
X295Y1585D01*
Y1676D01*
Y17621D01*
X295Y17711D01*
X319Y17891D01*
X366Y18065D01*
X435Y18233D01*
X525Y18389D01*
X636Y18533D01*
X763Y18661D01*
X907Y18771D01*
X1064Y18861D01*
X1231Y18931D01*
X1406Y18978D01*
X1585Y19001D01*
X1676D01*
X1676Y19001D01*
X32188Y19001D01*
D02*
G37*
%LPC*%
G36*
X8635Y17877D02*
X8565D01*
X8500Y17850D01*
X8450Y17800D01*
X8423Y17735D01*
Y17665D01*
X8450Y17600D01*
X8500Y17550D01*
X8565Y17523D01*
X8635D01*
X8700Y17550D01*
X8750Y17600D01*
X8777Y17665D01*
Y17735D01*
X8750Y17800D01*
X8700Y17850D01*
X8635Y17877D01*
D02*
G37*
G36*
X2301Y17634D02*
X2199D01*
X2102Y17608D01*
X2014Y17557D01*
X1943Y17486D01*
X1892Y17398D01*
X1866Y17301D01*
Y17199D01*
X1892Y17102D01*
X1943Y17014D01*
X2014Y16943D01*
X2102Y16892D01*
X2199Y16866D01*
X2301D01*
X2398Y16892D01*
X2486Y16943D01*
X2557Y17014D01*
X2608Y17102D01*
X2634Y17199D01*
Y17301D01*
X2608Y17398D01*
X2557Y17486D01*
X2486Y17557D01*
X2398Y17608D01*
X2301Y17634D01*
D02*
G37*
G36*
X8835Y16585D02*
X8765D01*
X8700Y16558D01*
X8650Y16508D01*
X8623Y16443D01*
Y16372D01*
X8623Y16372D01*
X8560D01*
X8495Y16345D01*
X8445Y16295D01*
X8438Y16278D01*
X8389Y16268D01*
X8377Y16279D01*
X8312Y16306D01*
X8242D01*
X8177Y16279D01*
X8127Y16230D01*
X8100Y16164D01*
Y16095D01*
X8033D01*
X7968Y16068D01*
X7918Y16018D01*
X7891Y15953D01*
Y15883D01*
X7918Y15818D01*
X7968Y15768D01*
X8033Y15741D01*
X8104D01*
X8169Y15768D01*
X8219Y15818D01*
X8246Y15883D01*
Y15952D01*
X8312D01*
X8377Y15979D01*
X8427Y16029D01*
X8434Y16046D01*
X8483Y16056D01*
X8495Y16045D01*
X8560Y16018D01*
X8630D01*
X8696Y16045D01*
X8745Y16095D01*
X8772Y16160D01*
Y16230D01*
X8773Y16230D01*
X8835D01*
X8900Y16257D01*
X8950Y16307D01*
X8977Y16372D01*
Y16443D01*
X8950Y16508D01*
X8900Y16558D01*
X8835Y16585D01*
D02*
G37*
G36*
X16885Y16777D02*
X16815D01*
X16750Y16750D01*
X16700Y16700D01*
X16673Y16635D01*
Y16565D01*
X16700Y16500D01*
X16750Y16450D01*
X16810Y16425D01*
X16812Y16400D01*
X16810Y16375D01*
X16750Y16350D01*
X16700Y16300D01*
X16673Y16235D01*
Y16165D01*
X16700Y16100D01*
X16750Y16050D01*
X16815Y16023D01*
X16885D01*
X16950Y16050D01*
X17000Y16100D01*
X17027Y16165D01*
Y16235D01*
X17000Y16300D01*
X16950Y16350D01*
X16890Y16375D01*
X16888Y16400D01*
X16890Y16425D01*
X16950Y16450D01*
X17000Y16500D01*
X17027Y16565D01*
Y16635D01*
X17000Y16700D01*
X16950Y16750D01*
X16885Y16777D01*
D02*
G37*
G36*
X2301Y16634D02*
X2199D01*
X2102Y16608D01*
X2014Y16557D01*
X1943Y16486D01*
X1892Y16398D01*
X1866Y16301D01*
Y16199D01*
X1892Y16102D01*
X1943Y16014D01*
X2014Y15943D01*
X2102Y15892D01*
X2199Y15866D01*
X2301D01*
X2398Y15892D01*
X2486Y15943D01*
X2557Y16014D01*
X2608Y16102D01*
X2634Y16199D01*
Y16301D01*
X2608Y16398D01*
X2557Y16486D01*
X2486Y16557D01*
X2398Y16608D01*
X2301Y16634D01*
D02*
G37*
G36*
X29735Y16077D02*
X29665D01*
X29600Y16050D01*
X29550Y16000D01*
X29523Y15935D01*
Y15865D01*
X29550Y15800D01*
X29600Y15750D01*
X29665Y15723D01*
X29735D01*
X29800Y15750D01*
X29850Y15800D01*
X29877Y15865D01*
Y15935D01*
X29850Y16000D01*
X29800Y16050D01*
X29735Y16077D01*
D02*
G37*
G36*
X32879Y15588D02*
X32808D01*
X32743Y15561D01*
X32693Y15511D01*
X32666Y15446D01*
Y15376D01*
X32693Y15310D01*
X32743Y15261D01*
X32808Y15234D01*
X32879D01*
X32944Y15261D01*
X32994Y15310D01*
X33021Y15376D01*
Y15446D01*
X32994Y15511D01*
X32944Y15561D01*
X32879Y15588D01*
D02*
G37*
G36*
X29735Y15577D02*
X29665D01*
X29600Y15550D01*
X29550Y15500D01*
X29523Y15435D01*
Y15365D01*
X29550Y15300D01*
X29600Y15250D01*
X29665Y15223D01*
X29735D01*
X29800Y15250D01*
X29850Y15300D01*
X29877Y15365D01*
Y15435D01*
X29850Y15500D01*
X29800Y15550D01*
X29735Y15577D01*
D02*
G37*
G36*
X16960Y15545D02*
X16889D01*
X16824Y15518D01*
X16774Y15469D01*
X16747Y15403D01*
Y15333D01*
X16774Y15268D01*
X16824Y15218D01*
X16889Y15191D01*
X16960D01*
X17025Y15218D01*
X17074Y15268D01*
X17101Y15333D01*
Y15403D01*
X17074Y15469D01*
X17025Y15518D01*
X16960Y15545D01*
D02*
G37*
G36*
X2301Y15634D02*
X2199D01*
X2102Y15608D01*
X2014Y15557D01*
X1943Y15486D01*
X1892Y15398D01*
X1866Y15301D01*
Y15199D01*
X1892Y15102D01*
X1943Y15014D01*
X2014Y14943D01*
X2102Y14892D01*
X2199Y14866D01*
X2301D01*
X2398Y14892D01*
X2486Y14943D01*
X2557Y15014D01*
X2608Y15102D01*
X2634Y15199D01*
Y15301D01*
X2608Y15398D01*
X2557Y15486D01*
X2486Y15557D01*
X2398Y15608D01*
X2301Y15634D01*
D02*
G37*
G36*
X4620Y14807D02*
X4610D01*
X4532Y14786D01*
X4462Y14745D01*
X4434Y14717D01*
X4400Y14692D01*
X4366Y14717D01*
X4338Y14745D01*
X4268Y14786D01*
X4190Y14807D01*
X4180D01*
Y14500D01*
X4150D01*
Y14470D01*
X3843D01*
Y14460D01*
X3864Y14382D01*
X3905Y14312D01*
X3962Y14255D01*
X3964Y14253D01*
X3968Y14193D01*
X3937Y14163D01*
X3902Y14103D01*
X3884Y14035D01*
Y13965D01*
X3902Y13897D01*
X3937Y13837D01*
X3987Y13787D01*
X4002Y13779D01*
Y13721D01*
X3987Y13713D01*
X3937Y13663D01*
X3902Y13603D01*
X3884Y13535D01*
Y13465D01*
X3902Y13397D01*
X3937Y13337D01*
X3987Y13287D01*
X4002Y13279D01*
Y13221D01*
X3987Y13213D01*
X3937Y13163D01*
X3902Y13103D01*
X3884Y13035D01*
Y12965D01*
X3902Y12897D01*
X3937Y12837D01*
X3987Y12787D01*
X4002Y12779D01*
Y12721D01*
X3987Y12713D01*
X3937Y12663D01*
X3902Y12603D01*
X3884Y12535D01*
Y12465D01*
X3902Y12397D01*
X3937Y12337D01*
X3987Y12287D01*
X4002Y12279D01*
Y12221D01*
X3987Y12213D01*
X3937Y12163D01*
X3902Y12103D01*
X3884Y12035D01*
Y11965D01*
X3902Y11897D01*
X3937Y11837D01*
X3987Y11787D01*
X4002Y11779D01*
Y11721D01*
X3987Y11713D01*
X3937Y11663D01*
X3902Y11603D01*
X3884Y11535D01*
Y11465D01*
X3902Y11397D01*
X3937Y11337D01*
X3987Y11287D01*
X4002Y11279D01*
Y11221D01*
X3987Y11213D01*
X3937Y11163D01*
X3902Y11103D01*
X3884Y11035D01*
Y10965D01*
X3902Y10897D01*
X3937Y10837D01*
X3987Y10787D01*
X4002Y10779D01*
Y10721D01*
X3987Y10713D01*
X3937Y10663D01*
X3902Y10603D01*
X3884Y10535D01*
Y10465D01*
X3902Y10397D01*
X3937Y10337D01*
X3987Y10287D01*
X4002Y10279D01*
Y10221D01*
X3987Y10213D01*
X3937Y10163D01*
X3902Y10103D01*
X3884Y10035D01*
Y9965D01*
X3902Y9897D01*
X3937Y9837D01*
X3987Y9787D01*
X4002Y9779D01*
Y9721D01*
X3987Y9713D01*
X3937Y9663D01*
X3902Y9603D01*
X3884Y9535D01*
Y9465D01*
X3902Y9397D01*
X3937Y9337D01*
X3987Y9287D01*
X4002Y9279D01*
Y9221D01*
X3987Y9213D01*
X3937Y9163D01*
X3902Y9103D01*
X3884Y9035D01*
Y8965D01*
X3902Y8897D01*
X3937Y8837D01*
X3987Y8787D01*
X4002Y8779D01*
Y8721D01*
X3987Y8713D01*
X3937Y8663D01*
X3902Y8603D01*
X3884Y8535D01*
Y8465D01*
X3902Y8397D01*
X3937Y8337D01*
X3987Y8287D01*
X4002Y8279D01*
Y8221D01*
X3987Y8213D01*
X3937Y8163D01*
X3902Y8103D01*
X3884Y8035D01*
Y7965D01*
X3902Y7897D01*
X3937Y7837D01*
X3987Y7787D01*
X4002Y7779D01*
Y7721D01*
X3987Y7713D01*
X3937Y7663D01*
X3902Y7603D01*
X3884Y7535D01*
Y7465D01*
X3902Y7397D01*
X3937Y7337D01*
X3987Y7287D01*
X4002Y7279D01*
Y7221D01*
X3987Y7213D01*
X3937Y7163D01*
X3902Y7103D01*
X3884Y7035D01*
Y6965D01*
X3902Y6897D01*
X3937Y6837D01*
X3987Y6787D01*
X4002Y6779D01*
Y6721D01*
X3987Y6713D01*
X3937Y6663D01*
X3902Y6603D01*
X3884Y6535D01*
Y6465D01*
X3902Y6397D01*
X3937Y6337D01*
X3987Y6287D01*
X4002Y6279D01*
Y6221D01*
X3987Y6213D01*
X3937Y6163D01*
X3902Y6103D01*
X3884Y6035D01*
Y5965D01*
X3902Y5897D01*
X3937Y5837D01*
X3987Y5787D01*
X4002Y5779D01*
Y5721D01*
X3987Y5713D01*
X3937Y5663D01*
X3902Y5603D01*
X3884Y5535D01*
Y5465D01*
X3902Y5397D01*
X3937Y5337D01*
X3987Y5287D01*
X4002Y5279D01*
Y5221D01*
X3987Y5213D01*
X3937Y5163D01*
X3902Y5103D01*
X3897Y5082D01*
X3888Y5075D01*
X3839Y5058D01*
X3792Y5077D01*
X3722D01*
X3657Y5050D01*
X3607Y5000D01*
X3580Y4935D01*
Y4865D01*
X3607Y4800D01*
X3657Y4750D01*
X3722Y4723D01*
X3792D01*
X3858Y4750D01*
X3907Y4800D01*
X3965Y4809D01*
X3987Y4787D01*
X4047Y4752D01*
X4115Y4734D01*
X4185D01*
X4253Y4752D01*
X4313Y4787D01*
X4363Y4837D01*
X4371Y4852D01*
X4429D01*
X4437Y4837D01*
X4487Y4787D01*
X4547Y4752D01*
X4615Y4734D01*
X4685D01*
X4753Y4752D01*
X4813Y4787D01*
X4863Y4837D01*
X4898Y4897D01*
X4916Y4965D01*
Y5035D01*
X4898Y5103D01*
X4863Y5163D01*
X4813Y5213D01*
X4798Y5221D01*
Y5279D01*
X4813Y5287D01*
X4863Y5337D01*
X4898Y5397D01*
X4916Y5465D01*
Y5535D01*
X4898Y5603D01*
X4863Y5663D01*
X4813Y5713D01*
X4798Y5721D01*
Y5779D01*
X4813Y5787D01*
X4863Y5837D01*
X4898Y5897D01*
X4916Y5965D01*
Y6035D01*
X4898Y6103D01*
X4863Y6163D01*
X4813Y6213D01*
X4798Y6221D01*
Y6279D01*
X4813Y6287D01*
X4863Y6337D01*
X4898Y6397D01*
X4916Y6465D01*
Y6535D01*
X4898Y6603D01*
X4863Y6663D01*
X4813Y6713D01*
X4798Y6721D01*
Y6779D01*
X4813Y6787D01*
X4863Y6837D01*
X4898Y6897D01*
X4916Y6965D01*
Y7035D01*
X4898Y7103D01*
X4863Y7163D01*
X4813Y7213D01*
X4798Y7221D01*
Y7279D01*
X4813Y7287D01*
X4863Y7337D01*
X4898Y7397D01*
X4916Y7465D01*
Y7535D01*
X4898Y7603D01*
X4863Y7663D01*
X4813Y7713D01*
X4798Y7721D01*
Y7779D01*
X4813Y7787D01*
X4863Y7837D01*
X4898Y7897D01*
X4916Y7965D01*
Y8035D01*
X4898Y8103D01*
X4863Y8163D01*
X4813Y8213D01*
X4798Y8221D01*
Y8279D01*
X4813Y8287D01*
X4863Y8337D01*
X4898Y8397D01*
X4916Y8465D01*
Y8535D01*
X4898Y8603D01*
X4863Y8663D01*
X4813Y8713D01*
X4798Y8721D01*
Y8779D01*
X4813Y8787D01*
X4863Y8837D01*
X4898Y8897D01*
X4916Y8965D01*
Y9035D01*
X4898Y9103D01*
X4863Y9163D01*
X4813Y9213D01*
X4798Y9221D01*
Y9279D01*
X4813Y9287D01*
X4863Y9337D01*
X4898Y9397D01*
X4916Y9465D01*
Y9535D01*
X4898Y9603D01*
X4863Y9663D01*
X4813Y9713D01*
X4798Y9721D01*
Y9779D01*
X4813Y9787D01*
X4863Y9837D01*
X4898Y9897D01*
X4916Y9965D01*
Y10035D01*
X4898Y10103D01*
X4863Y10163D01*
X4813Y10213D01*
X4798Y10221D01*
Y10279D01*
X4813Y10287D01*
X4863Y10337D01*
X4898Y10397D01*
X4916Y10465D01*
Y10535D01*
X4898Y10603D01*
X4863Y10663D01*
X4813Y10713D01*
X4798Y10721D01*
Y10779D01*
X4813Y10787D01*
X4863Y10837D01*
X4898Y10897D01*
X4916Y10965D01*
Y11035D01*
X4898Y11103D01*
X4863Y11163D01*
X4813Y11213D01*
X4798Y11221D01*
Y11279D01*
X4813Y11287D01*
X4863Y11337D01*
X4898Y11397D01*
X4916Y11465D01*
Y11535D01*
X4898Y11603D01*
X4863Y11663D01*
X4813Y11713D01*
X4798Y11721D01*
Y11779D01*
X4813Y11787D01*
X4863Y11837D01*
X4898Y11897D01*
X4916Y11965D01*
Y12035D01*
X4898Y12103D01*
X4863Y12163D01*
X4813Y12213D01*
X4798Y12221D01*
Y12279D01*
X4813Y12287D01*
X4863Y12337D01*
X4898Y12397D01*
X4916Y12465D01*
Y12535D01*
X4898Y12603D01*
X4863Y12663D01*
X4813Y12713D01*
X4798Y12721D01*
Y12779D01*
X4813Y12787D01*
X4863Y12837D01*
X4898Y12897D01*
X4916Y12965D01*
Y13035D01*
X4898Y13103D01*
X4863Y13163D01*
X4813Y13213D01*
X4798Y13221D01*
Y13279D01*
X4813Y13287D01*
X4863Y13337D01*
X4898Y13397D01*
X4916Y13465D01*
Y13535D01*
X4898Y13603D01*
X4863Y13663D01*
X4813Y13713D01*
X4798Y13721D01*
Y13779D01*
X4813Y13787D01*
X4863Y13837D01*
X4898Y13897D01*
X4916Y13965D01*
Y14035D01*
X4898Y14103D01*
X4863Y14163D01*
X4832Y14193D01*
X4836Y14253D01*
X4838Y14255D01*
X4895Y14312D01*
X4936Y14382D01*
X4957Y14460D01*
Y14470D01*
X4650D01*
Y14500D01*
X4620D01*
Y14807D01*
D02*
G37*
G36*
X29935Y14716D02*
X29865D01*
X29797Y14698D01*
X29737Y14663D01*
X29687Y14613D01*
X29679Y14598D01*
X29621D01*
X29613Y14613D01*
X29563Y14663D01*
X29503Y14698D01*
X29435Y14716D01*
X29365D01*
X29297Y14698D01*
X29237Y14663D01*
X29187Y14613D01*
X29179Y14598D01*
X29121D01*
X29113Y14613D01*
X29063Y14663D01*
X29003Y14698D01*
X28935Y14716D01*
X28865D01*
X28797Y14698D01*
X28737Y14663D01*
X28687Y14613D01*
X28652Y14553D01*
X28634Y14485D01*
Y14415D01*
X28652Y14347D01*
X28687Y14287D01*
X28737Y14237D01*
X28797Y14202D01*
X28865Y14184D01*
X28935D01*
X29003Y14202D01*
X29063Y14237D01*
X29113Y14287D01*
X29121Y14302D01*
X29179D01*
X29187Y14287D01*
X29237Y14237D01*
X29297Y14202D01*
X29365Y14184D01*
X29435D01*
X29503Y14202D01*
X29563Y14237D01*
X29613Y14287D01*
X29621Y14302D01*
X29679D01*
X29687Y14287D01*
X29737Y14237D01*
X29797Y14202D01*
X29865Y14184D01*
X29935D01*
X30003Y14202D01*
X30063Y14237D01*
X30113Y14287D01*
X30148Y14347D01*
X30166Y14415D01*
Y14485D01*
X30148Y14553D01*
X30113Y14613D01*
X30063Y14663D01*
X30003Y14698D01*
X29935Y14716D01*
D02*
G37*
G36*
X4690Y14807D02*
X4680D01*
Y14530D01*
X4957D01*
Y14540D01*
X4936Y14618D01*
X4895Y14688D01*
X4838Y14745D01*
X4768Y14786D01*
X4690Y14807D01*
D02*
G37*
G36*
X4120D02*
X4110D01*
X4032Y14786D01*
X3962Y14745D01*
X3905Y14688D01*
X3864Y14618D01*
X3843Y14540D01*
Y14530D01*
X4120D01*
Y14807D01*
D02*
G37*
G36*
X7285Y14277D02*
X7215D01*
X7150Y14250D01*
X7100Y14200D01*
X7073Y14135D01*
Y14065D01*
X7100Y14000D01*
X7150Y13950D01*
X7215Y13923D01*
X7285D01*
X7350Y13950D01*
X7400Y14000D01*
X7427Y14065D01*
Y14135D01*
X7400Y14200D01*
X7350Y14250D01*
X7285Y14277D01*
D02*
G37*
G36*
X2301Y14634D02*
X2199D01*
X2102Y14608D01*
X2014Y14557D01*
X1943Y14486D01*
X1892Y14398D01*
X1866Y14301D01*
Y14199D01*
X1892Y14102D01*
X1943Y14014D01*
X2014Y13943D01*
X2102Y13892D01*
X2199Y13866D01*
X2301D01*
X2398Y13892D01*
X2486Y13943D01*
X2557Y14014D01*
X2608Y14102D01*
X2634Y14199D01*
Y14301D01*
X2608Y14398D01*
X2557Y14486D01*
X2486Y14557D01*
X2398Y14608D01*
X2301Y14634D01*
D02*
G37*
G36*
X24349Y13496D02*
X24279D01*
X24214Y13469D01*
X24164Y13419D01*
X24137Y13354D01*
Y13284D01*
X24164Y13219D01*
X24214Y13169D01*
X24279Y13142D01*
X24349D01*
X24414Y13169D01*
X24464Y13219D01*
X24491Y13284D01*
Y13354D01*
X24464Y13419D01*
X24414Y13469D01*
X24349Y13496D01*
D02*
G37*
G36*
X32486Y13476D02*
X32414D01*
X32344Y13457D01*
X32281Y13421D01*
X32229Y13369D01*
X32193Y13306D01*
X32174Y13236D01*
Y13164D01*
X32193Y13094D01*
X32229Y13031D01*
X32281Y12979D01*
X32344Y12943D01*
X32414Y12924D01*
X32486D01*
X32556Y12943D01*
X32619Y12979D01*
X32671Y13031D01*
X32707Y13094D01*
X32726Y13164D01*
Y13236D01*
X32707Y13306D01*
X32671Y13369D01*
X32619Y13421D01*
X32556Y13457D01*
X32486Y13476D01*
D02*
G37*
G36*
X2301Y13634D02*
X2199D01*
X2102Y13608D01*
X2014Y13557D01*
X1943Y13486D01*
X1892Y13398D01*
X1866Y13301D01*
Y13199D01*
X1892Y13102D01*
X1943Y13014D01*
X2014Y12943D01*
X2102Y12892D01*
X2199Y12866D01*
X2301D01*
X2398Y12892D01*
X2486Y12943D01*
X2557Y13014D01*
X2608Y13102D01*
X2634Y13199D01*
Y13301D01*
X2608Y13398D01*
X2557Y13486D01*
X2486Y13557D01*
X2398Y13608D01*
X2301Y13634D01*
D02*
G37*
G36*
X31501Y13584D02*
X31399D01*
X31302Y13558D01*
X31214Y13507D01*
X31143Y13436D01*
X31092Y13348D01*
X31066Y13251D01*
Y13149D01*
X31092Y13052D01*
X31143Y12964D01*
X31214Y12893D01*
X31302Y12842D01*
X31399Y12816D01*
X31501D01*
X31598Y12842D01*
X31686Y12893D01*
X31757Y12964D01*
X31808Y13052D01*
X31834Y13149D01*
Y13251D01*
X31808Y13348D01*
X31757Y13436D01*
X31686Y13507D01*
X31598Y13558D01*
X31501Y13584D01*
D02*
G37*
G36*
X14885Y12927D02*
X14815D01*
X14750Y12900D01*
X14700Y12850D01*
X14673Y12785D01*
Y12715D01*
X14700Y12650D01*
X14750Y12600D01*
X14815Y12573D01*
X14885D01*
X14950Y12600D01*
X15000Y12650D01*
X15027Y12715D01*
Y12785D01*
X15000Y12850D01*
X14950Y12900D01*
X14885Y12927D01*
D02*
G37*
G36*
X31506Y12625D02*
X31480D01*
Y12230D01*
X31875D01*
Y12256D01*
X31846Y12364D01*
X31790Y12461D01*
X31711Y12540D01*
X31614Y12596D01*
X31506Y12625D01*
D02*
G37*
G36*
X31420D02*
X31394D01*
X31286Y12596D01*
X31189Y12540D01*
X31110Y12461D01*
X31054Y12364D01*
X31025Y12256D01*
Y12230D01*
X31420D01*
Y12625D01*
D02*
G37*
G36*
X18735Y12577D02*
X18665D01*
X18600Y12550D01*
X18550Y12500D01*
X18523Y12435D01*
Y12365D01*
X18550Y12300D01*
X18600Y12250D01*
X18665Y12223D01*
X18735D01*
X18800Y12250D01*
X18850Y12300D01*
X18877Y12365D01*
Y12435D01*
X18850Y12500D01*
X18800Y12550D01*
X18735Y12577D01*
D02*
G37*
G36*
X11185Y12527D02*
X11115D01*
X11050Y12500D01*
X11000Y12450D01*
X10973Y12385D01*
Y12315D01*
X11000Y12250D01*
X11050Y12200D01*
X11115Y12173D01*
X11185D01*
X11250Y12200D01*
X11300Y12250D01*
X11327Y12315D01*
Y12385D01*
X11300Y12450D01*
X11250Y12500D01*
X11185Y12527D01*
D02*
G37*
G36*
X32486Y12476D02*
X32414D01*
X32344Y12457D01*
X32281Y12421D01*
X32229Y12369D01*
X32193Y12306D01*
X32174Y12236D01*
Y12164D01*
X32193Y12094D01*
X32229Y12031D01*
X32281Y11979D01*
X32344Y11943D01*
X32414Y11924D01*
X32486D01*
X32556Y11943D01*
X32619Y11979D01*
X32671Y12031D01*
X32707Y12094D01*
X32726Y12164D01*
Y12236D01*
X32707Y12306D01*
X32671Y12369D01*
X32619Y12421D01*
X32556Y12457D01*
X32486Y12476D01*
D02*
G37*
G36*
X10885Y12227D02*
X10815D01*
X10750Y12200D01*
X10700Y12150D01*
X10673Y12085D01*
Y12015D01*
X10700Y11950D01*
X10750Y11900D01*
X10815Y11873D01*
X10885D01*
X10950Y11900D01*
X11000Y11950D01*
X11027Y12015D01*
Y12085D01*
X11000Y12150D01*
X10950Y12200D01*
X10885Y12227D01*
D02*
G37*
G36*
X2301Y12634D02*
X2199D01*
X2102Y12608D01*
X2014Y12557D01*
X1943Y12486D01*
X1892Y12398D01*
X1866Y12301D01*
Y12199D01*
X1892Y12102D01*
X1943Y12014D01*
X2014Y11943D01*
X2102Y11892D01*
X2199Y11866D01*
X2301D01*
X2398Y11892D01*
X2486Y11943D01*
X2557Y12014D01*
X2608Y12102D01*
X2634Y12199D01*
Y12301D01*
X2608Y12398D01*
X2557Y12486D01*
X2486Y12557D01*
X2398Y12608D01*
X2301Y12634D01*
D02*
G37*
G36*
X31875Y12170D02*
X31480D01*
Y11775D01*
X31506D01*
X31614Y11804D01*
X31711Y11860D01*
X31790Y11939D01*
X31846Y12036D01*
X31875Y12144D01*
Y12170D01*
D02*
G37*
G36*
X31420D02*
X31025D01*
Y12144D01*
X31054Y12036D01*
X31110Y11939D01*
X31189Y11860D01*
X31286Y11804D01*
X31394Y11775D01*
X31420D01*
Y12170D01*
D02*
G37*
G36*
X16773Y11682D02*
X16703D01*
X16637Y11655D01*
X16588Y11606D01*
X16581Y11590D01*
X16522Y11578D01*
X16500Y11600D01*
X16435Y11627D01*
X16365D01*
X16300Y11600D01*
X16250Y11550D01*
X16223Y11485D01*
Y11415D01*
X16250Y11350D01*
X16300Y11300D01*
X16365Y11273D01*
X16435D01*
X16500Y11300D01*
X16550Y11350D01*
X16557Y11365D01*
X16616Y11377D01*
X16637Y11355D01*
X16703Y11328D01*
X16773D01*
X16838Y11355D01*
X16888Y11405D01*
X16915Y11470D01*
Y11540D01*
X16888Y11606D01*
X16838Y11655D01*
X16773Y11682D01*
D02*
G37*
G36*
X20079Y11838D02*
X20008D01*
X19943Y11811D01*
X19893Y11761D01*
X19866Y11696D01*
Y11626D01*
X19893Y11560D01*
X19943Y11511D01*
X20008Y11484D01*
X20079D01*
X20144Y11511D01*
X20194Y11560D01*
X20221Y11626D01*
Y11696D01*
X20194Y11761D01*
X20144Y11811D01*
X20079Y11838D01*
D02*
G37*
G36*
X14635Y11727D02*
X14565D01*
X14500Y11700D01*
X14450Y11650D01*
X14423Y11585D01*
Y11515D01*
X14450Y11450D01*
X14500Y11400D01*
X14565Y11373D01*
X14635D01*
X14700Y11400D01*
X14750Y11450D01*
X14777Y11515D01*
Y11585D01*
X14750Y11650D01*
X14700Y11700D01*
X14635Y11727D01*
D02*
G37*
G36*
X17342Y11676D02*
X17271D01*
X17206Y11649D01*
X17156Y11599D01*
X17129Y11534D01*
Y11464D01*
X17156Y11399D01*
X17206Y11349D01*
X17271Y11322D01*
X17342D01*
X17373Y11335D01*
X17423Y11301D01*
Y11265D01*
X17450Y11200D01*
X17500Y11150D01*
X17565Y11123D01*
X17635D01*
X17700Y11150D01*
X17750Y11200D01*
X17777Y11265D01*
Y11335D01*
X17750Y11400D01*
X17700Y11450D01*
X17635Y11477D01*
X17565D01*
X17534Y11464D01*
X17484Y11498D01*
Y11534D01*
X17457Y11599D01*
X17407Y11649D01*
X17342Y11676D01*
D02*
G37*
G36*
X22585Y11277D02*
X22515D01*
X22450Y11250D01*
X22400Y11200D01*
X22373Y11135D01*
Y11065D01*
X22400Y11000D01*
X22450Y10950D01*
X22515Y10923D01*
X22585D01*
X22650Y10950D01*
X22700Y11000D01*
X22727Y11065D01*
Y11135D01*
X22700Y11200D01*
X22650Y11250D01*
X22585Y11277D01*
D02*
G37*
G36*
X2301Y11634D02*
X2199D01*
X2102Y11608D01*
X2014Y11557D01*
X1943Y11486D01*
X1892Y11398D01*
X1866Y11301D01*
Y11199D01*
X1892Y11102D01*
X1943Y11014D01*
X2014Y10943D01*
X2102Y10892D01*
X2199Y10866D01*
X2301D01*
X2398Y10892D01*
X2486Y10943D01*
X2557Y11014D01*
X2608Y11102D01*
X2634Y11199D01*
Y11301D01*
X2608Y11398D01*
X2557Y11486D01*
X2486Y11557D01*
X2398Y11608D01*
X2301Y11634D01*
D02*
G37*
G36*
X31506Y11225D02*
X31480D01*
Y10830D01*
X31875D01*
Y10856D01*
X31846Y10964D01*
X31790Y11061D01*
X31711Y11140D01*
X31614Y11196D01*
X31506Y11225D01*
D02*
G37*
G36*
X31420D02*
X31394D01*
X31286Y11196D01*
X31189Y11140D01*
X31110Y11061D01*
X31054Y10964D01*
X31025Y10856D01*
Y10830D01*
X31420D01*
Y11225D01*
D02*
G37*
G36*
X18485Y11027D02*
X18415D01*
X18350Y11000D01*
X18300Y10950D01*
X18273Y10885D01*
Y10815D01*
X18300Y10750D01*
X18350Y10700D01*
X18415Y10673D01*
X18485D01*
X18550Y10700D01*
X18600Y10750D01*
X18627Y10815D01*
Y10885D01*
X18600Y10950D01*
X18550Y11000D01*
X18485Y11027D01*
D02*
G37*
G36*
X32486Y11076D02*
X32414D01*
X32344Y11057D01*
X32281Y11021D01*
X32229Y10969D01*
X32193Y10906D01*
X32174Y10836D01*
Y10764D01*
X32193Y10694D01*
X32229Y10631D01*
X32281Y10579D01*
X32344Y10543D01*
X32414Y10524D01*
X32486D01*
X32556Y10543D01*
X32619Y10579D01*
X32671Y10631D01*
X32707Y10694D01*
X32726Y10764D01*
Y10836D01*
X32707Y10906D01*
X32671Y10969D01*
X32619Y11021D01*
X32556Y11057D01*
X32486Y11076D01*
D02*
G37*
G36*
X31875Y10770D02*
X31480D01*
Y10375D01*
X31506D01*
X31614Y10404D01*
X31711Y10460D01*
X31790Y10539D01*
X31846Y10636D01*
X31875Y10744D01*
Y10770D01*
D02*
G37*
G36*
X31420D02*
X31025D01*
Y10744D01*
X31054Y10636D01*
X31110Y10539D01*
X31189Y10460D01*
X31286Y10404D01*
X31394Y10375D01*
X31420D01*
Y10770D01*
D02*
G37*
G36*
X2301Y10634D02*
X2199D01*
X2102Y10608D01*
X2014Y10557D01*
X1943Y10486D01*
X1892Y10398D01*
X1866Y10301D01*
Y10199D01*
X1892Y10102D01*
X1943Y10014D01*
X2014Y9943D01*
X2102Y9892D01*
X2199Y9866D01*
X2301D01*
X2398Y9892D01*
X2486Y9943D01*
X2557Y10014D01*
X2608Y10102D01*
X2634Y10199D01*
Y10301D01*
X2608Y10398D01*
X2557Y10486D01*
X2486Y10557D01*
X2398Y10608D01*
X2301Y10634D01*
D02*
G37*
G36*
X18676Y10027D02*
X18606D01*
X18541Y10000D01*
X18491Y9950D01*
X18464Y9885D01*
Y9815D01*
X18491Y9750D01*
X18541Y9700D01*
X18606Y9673D01*
X18676D01*
X18741Y9700D01*
X18791Y9750D01*
X18818Y9815D01*
Y9885D01*
X18791Y9950D01*
X18741Y10000D01*
X18676Y10027D01*
D02*
G37*
G36*
X32486Y10076D02*
X32414D01*
X32344Y10057D01*
X32281Y10021D01*
X32229Y9969D01*
X32193Y9906D01*
X32174Y9836D01*
Y9764D01*
X32193Y9694D01*
X32229Y9631D01*
X32281Y9579D01*
X32344Y9543D01*
X32414Y9524D01*
X32486D01*
X32556Y9543D01*
X32619Y9579D01*
X32671Y9631D01*
X32707Y9694D01*
X32726Y9764D01*
Y9836D01*
X32707Y9906D01*
X32671Y9969D01*
X32619Y10021D01*
X32556Y10057D01*
X32486Y10076D01*
D02*
G37*
G36*
X31501Y10184D02*
X31399D01*
X31302Y10158D01*
X31214Y10107D01*
X31143Y10036D01*
X31092Y9948D01*
X31066Y9851D01*
Y9749D01*
X31092Y9652D01*
X31143Y9564D01*
X31214Y9493D01*
X31302Y9442D01*
X31399Y9416D01*
X31501D01*
X31598Y9442D01*
X31686Y9493D01*
X31757Y9564D01*
X31808Y9652D01*
X31834Y9749D01*
Y9851D01*
X31808Y9948D01*
X31757Y10036D01*
X31686Y10107D01*
X31598Y10158D01*
X31501Y10184D01*
D02*
G37*
G36*
X15339Y9882D02*
X15269D01*
X15204Y9855D01*
X15154Y9805D01*
X15127Y9740D01*
Y9669D01*
X15154Y9604D01*
X15204Y9555D01*
X15211Y9519D01*
X15206Y9514D01*
X15179Y9449D01*
Y9379D01*
X15206Y9314D01*
X15256Y9264D01*
X15321Y9237D01*
X15391D01*
X15457Y9264D01*
X15506Y9314D01*
X15533Y9379D01*
Y9449D01*
X15506Y9514D01*
X15457Y9564D01*
X15450Y9600D01*
X15454Y9604D01*
X15481Y9669D01*
Y9740D01*
X15454Y9805D01*
X15405Y9855D01*
X15339Y9882D01*
D02*
G37*
G36*
X2301Y9334D02*
X2199D01*
X2102Y9308D01*
X2014Y9257D01*
X1943Y9186D01*
X1892Y9098D01*
X1866Y9001D01*
Y8899D01*
X1892Y8802D01*
X1943Y8714D01*
X2014Y8643D01*
X2102Y8592D01*
X2199Y8566D01*
X2301D01*
X2398Y8592D01*
X2486Y8643D01*
X2557Y8714D01*
X2608Y8802D01*
X2634Y8899D01*
Y9001D01*
X2608Y9098D01*
X2557Y9186D01*
X2486Y9257D01*
X2398Y9308D01*
X2301Y9334D01*
D02*
G37*
G36*
X31456Y8825D02*
X31430D01*
Y8430D01*
X31825D01*
Y8456D01*
X31796Y8564D01*
X31740Y8661D01*
X31661Y8740D01*
X31564Y8796D01*
X31456Y8825D01*
D02*
G37*
G36*
X31370D02*
X31344D01*
X31236Y8796D01*
X31139Y8740D01*
X31060Y8661D01*
X31004Y8564D01*
X30975Y8456D01*
Y8430D01*
X31370D01*
Y8825D01*
D02*
G37*
G36*
X16435Y8327D02*
X16365D01*
X16300Y8300D01*
X16250Y8250D01*
X16241Y8230D01*
X16200Y8200D01*
X16135Y8227D01*
X16065D01*
X16000Y8200D01*
X15950Y8150D01*
X15923Y8085D01*
Y8015D01*
X15950Y7950D01*
X16000Y7900D01*
X16065Y7873D01*
X16135D01*
X16200Y7900D01*
X16250Y7950D01*
X16259Y7970D01*
X16300Y8000D01*
X16365Y7973D01*
X16435D01*
X16500Y8000D01*
X16508Y8008D01*
X16550Y8000D01*
X16600Y7950D01*
X16665Y7923D01*
X16735D01*
X16800Y7950D01*
X16850Y8000D01*
X16877Y8065D01*
Y8135D01*
X16850Y8200D01*
X16800Y8250D01*
X16735Y8277D01*
X16665D01*
X16600Y8250D01*
X16592Y8242D01*
X16550Y8250D01*
X16500Y8300D01*
X16435Y8327D01*
D02*
G37*
G36*
X32436Y8676D02*
X32364D01*
X32294Y8657D01*
X32231Y8621D01*
X32179Y8569D01*
X32143Y8506D01*
X32124Y8436D01*
Y8364D01*
X32143Y8294D01*
X32179Y8231D01*
X32231Y8179D01*
X32294Y8143D01*
X32364Y8124D01*
X32436D01*
X32506Y8143D01*
X32569Y8179D01*
X32621Y8231D01*
X32657Y8294D01*
X32676Y8364D01*
Y8436D01*
X32657Y8506D01*
X32621Y8569D01*
X32569Y8621D01*
X32506Y8657D01*
X32436Y8676D01*
D02*
G37*
G36*
X11779Y8438D02*
X11708D01*
X11643Y8411D01*
X11593Y8361D01*
X11566Y8296D01*
Y8226D01*
X11593Y8160D01*
X11643Y8111D01*
X11708Y8084D01*
X11779D01*
X11844Y8111D01*
X11894Y8160D01*
X11921Y8226D01*
Y8296D01*
X11894Y8361D01*
X11844Y8411D01*
X11779Y8438D01*
D02*
G37*
G36*
X31825Y8370D02*
X31430D01*
Y7975D01*
X31456D01*
X31564Y8004D01*
X31661Y8060D01*
X31740Y8139D01*
X31796Y8236D01*
X31825Y8344D01*
Y8370D01*
D02*
G37*
G36*
X31370D02*
X30975D01*
Y8344D01*
X31004Y8236D01*
X31060Y8139D01*
X31139Y8060D01*
X31236Y8004D01*
X31344Y7975D01*
X31370D01*
Y8370D01*
D02*
G37*
G36*
X2301Y8334D02*
X2199D01*
X2102Y8308D01*
X2014Y8257D01*
X1943Y8186D01*
X1892Y8098D01*
X1866Y8001D01*
Y7899D01*
X1892Y7802D01*
X1943Y7714D01*
X2014Y7643D01*
X2102Y7592D01*
X2199Y7566D01*
X2301D01*
X2398Y7592D01*
X2486Y7643D01*
X2557Y7714D01*
X2608Y7802D01*
X2634Y7899D01*
Y8001D01*
X2608Y8098D01*
X2557Y8186D01*
X2486Y8257D01*
X2398Y8308D01*
X2301Y8334D01*
D02*
G37*
G36*
X32436Y7676D02*
X32364D01*
X32294Y7657D01*
X32231Y7621D01*
X32179Y7569D01*
X32143Y7506D01*
X32124Y7436D01*
Y7364D01*
X32143Y7294D01*
X32179Y7231D01*
X32231Y7179D01*
X32294Y7143D01*
X32364Y7124D01*
X32436D01*
X32506Y7143D01*
X32569Y7179D01*
X32621Y7231D01*
X32657Y7294D01*
X32676Y7364D01*
Y7436D01*
X32657Y7506D01*
X32621Y7569D01*
X32569Y7621D01*
X32506Y7657D01*
X32436Y7676D01*
D02*
G37*
G36*
X31451Y7784D02*
X31349D01*
X31252Y7758D01*
X31164Y7707D01*
X31093Y7636D01*
X31042Y7548D01*
X31016Y7451D01*
Y7349D01*
X31042Y7252D01*
X31093Y7164D01*
X31164Y7093D01*
X31252Y7042D01*
X31349Y7016D01*
X31451D01*
X31548Y7042D01*
X31636Y7093D01*
X31707Y7164D01*
X31758Y7252D01*
X31784Y7349D01*
Y7451D01*
X31758Y7548D01*
X31707Y7636D01*
X31636Y7707D01*
X31548Y7758D01*
X31451Y7784D01*
D02*
G37*
G36*
X15029Y7238D02*
X14958D01*
X14893Y7211D01*
X14843Y7161D01*
X14816Y7096D01*
Y7026D01*
X14843Y6960D01*
X14893Y6911D01*
X14958Y6884D01*
X15029D01*
X15094Y6911D01*
X15144Y6960D01*
X15171Y7026D01*
Y7096D01*
X15144Y7161D01*
X15094Y7211D01*
X15029Y7238D01*
D02*
G37*
G36*
X2301Y7334D02*
X2199D01*
X2102Y7308D01*
X2014Y7257D01*
X1943Y7186D01*
X1892Y7098D01*
X1866Y7001D01*
Y6899D01*
X1892Y6802D01*
X1943Y6714D01*
X2014Y6643D01*
X2102Y6592D01*
X2199Y6566D01*
X2301D01*
X2398Y6592D01*
X2486Y6643D01*
X2557Y6714D01*
X2608Y6802D01*
X2634Y6899D01*
Y7001D01*
X2608Y7098D01*
X2557Y7186D01*
X2486Y7257D01*
X2398Y7308D01*
X2301Y7334D01*
D02*
G37*
G36*
X19179Y6888D02*
X19108D01*
X19043Y6861D01*
X18993Y6811D01*
X18966Y6746D01*
Y6676D01*
X18993Y6610D01*
X19043Y6561D01*
X19108Y6534D01*
X19179D01*
X19244Y6561D01*
X19294Y6610D01*
X19321Y6676D01*
Y6746D01*
X19294Y6811D01*
X19244Y6861D01*
X19179Y6888D01*
D02*
G37*
G36*
X13129Y6838D02*
X13058D01*
X12993Y6811D01*
X12943Y6761D01*
X12916Y6696D01*
Y6626D01*
X12943Y6560D01*
X12993Y6511D01*
X13058Y6484D01*
X13129D01*
X13194Y6511D01*
X13244Y6560D01*
X13271Y6626D01*
Y6696D01*
X13244Y6761D01*
X13194Y6811D01*
X13129Y6838D01*
D02*
G37*
G36*
X32436Y6676D02*
X32364D01*
X32294Y6657D01*
X32231Y6621D01*
X32179Y6569D01*
X32143Y6506D01*
X32124Y6436D01*
Y6364D01*
X32143Y6294D01*
X32179Y6231D01*
X32231Y6179D01*
X32294Y6143D01*
X32364Y6124D01*
X32436D01*
X32506Y6143D01*
X32569Y6179D01*
X32621Y6231D01*
X32657Y6294D01*
X32676Y6364D01*
Y6436D01*
X32657Y6506D01*
X32621Y6569D01*
X32569Y6621D01*
X32506Y6657D01*
X32436Y6676D01*
D02*
G37*
G36*
X31451Y6784D02*
X31349D01*
X31252Y6758D01*
X31164Y6707D01*
X31093Y6636D01*
X31042Y6548D01*
X31016Y6451D01*
Y6349D01*
X31042Y6252D01*
X31093Y6164D01*
X31164Y6093D01*
X31252Y6042D01*
X31349Y6016D01*
X31451D01*
X31548Y6042D01*
X31636Y6093D01*
X31707Y6164D01*
X31758Y6252D01*
X31784Y6349D01*
Y6451D01*
X31758Y6548D01*
X31707Y6636D01*
X31636Y6707D01*
X31548Y6758D01*
X31451Y6784D01*
D02*
G37*
G36*
X2301Y6334D02*
X2199D01*
X2102Y6308D01*
X2014Y6257D01*
X1943Y6186D01*
X1892Y6098D01*
X1866Y6001D01*
Y5899D01*
X1892Y5802D01*
X1943Y5714D01*
X2014Y5643D01*
X2102Y5592D01*
X2199Y5566D01*
X2301D01*
X2398Y5592D01*
X2486Y5643D01*
X2557Y5714D01*
X2608Y5802D01*
X2634Y5899D01*
Y6001D01*
X2608Y6098D01*
X2557Y6186D01*
X2486Y6257D01*
X2398Y6308D01*
X2301Y6334D01*
D02*
G37*
G36*
X30385Y5827D02*
X30315D01*
X30250Y5800D01*
X30200Y5750D01*
X30173Y5685D01*
Y5615D01*
X30200Y5550D01*
X30250Y5500D01*
X30315Y5473D01*
X30385D01*
X30450Y5500D01*
X30500Y5550D01*
X30527Y5615D01*
Y5685D01*
X30500Y5750D01*
X30450Y5800D01*
X30385Y5827D01*
D02*
G37*
G36*
X2301Y5334D02*
X2199D01*
X2102Y5308D01*
X2014Y5257D01*
X1943Y5186D01*
X1892Y5098D01*
X1866Y5001D01*
Y4899D01*
X1892Y4802D01*
X1943Y4714D01*
X2014Y4643D01*
X2102Y4592D01*
X2199Y4566D01*
X2301D01*
X2398Y4592D01*
X2486Y4643D01*
X2557Y4714D01*
X2608Y4802D01*
X2634Y4899D01*
Y5001D01*
X2608Y5098D01*
X2557Y5186D01*
X2486Y5257D01*
X2398Y5308D01*
X2301Y5334D01*
D02*
G37*
G36*
X3585Y4227D02*
X3515D01*
X3450Y4200D01*
X3400Y4150D01*
X3375Y4090D01*
X3371Y4085D01*
X3323Y4062D01*
X3285Y4077D01*
X3215D01*
X3150Y4050D01*
X3100Y4000D01*
X3073Y3935D01*
Y3865D01*
X3096Y3809D01*
X3076Y3780D01*
X3063Y3769D01*
X3042Y3777D01*
X2972D01*
X2907Y3750D01*
X2857Y3700D01*
X2830Y3635D01*
Y3565D01*
X2847Y3523D01*
X2846Y3520D01*
X2814Y3477D01*
X2765D01*
X2700Y3450D01*
X2650Y3400D01*
X2623Y3335D01*
Y3265D01*
X2650Y3200D01*
X2700Y3150D01*
X2765Y3123D01*
X2835D01*
X2900Y3150D01*
X2950Y3200D01*
X2977Y3265D01*
Y3335D01*
X2960Y3377D01*
X2961Y3380D01*
X2993Y3423D01*
X3042D01*
X3108Y3450D01*
X3157Y3500D01*
X3184Y3565D01*
Y3635D01*
X3161Y3691D01*
X3181Y3720D01*
X3195Y3731D01*
X3215Y3723D01*
X3285D01*
X3350Y3750D01*
X3400Y3800D01*
X3425Y3860D01*
X3429Y3865D01*
X3477Y3888D01*
X3515Y3873D01*
X3585D01*
X3650Y3900D01*
X3700Y3950D01*
X3727Y4015D01*
Y4085D01*
X3700Y4150D01*
X3650Y4200D01*
X3585Y4227D01*
D02*
G37*
G36*
X2301Y4334D02*
X2199D01*
X2102Y4308D01*
X2014Y4257D01*
X1943Y4186D01*
X1892Y4098D01*
X1866Y4001D01*
Y3899D01*
X1892Y3802D01*
X1943Y3714D01*
X2014Y3643D01*
X2102Y3592D01*
X2199Y3566D01*
X2301D01*
X2398Y3592D01*
X2486Y3643D01*
X2557Y3714D01*
X2608Y3802D01*
X2634Y3899D01*
Y4001D01*
X2608Y4098D01*
X2557Y4186D01*
X2486Y4257D01*
X2398Y4308D01*
X2301Y4334D01*
D02*
G37*
G36*
X22835Y3677D02*
X22765D01*
X22700Y3650D01*
X22650Y3600D01*
X22623Y3535D01*
Y3465D01*
X22650Y3400D01*
X22700Y3350D01*
X22765Y3323D01*
X22835D01*
X22900Y3350D01*
X22950Y3400D01*
X22977Y3465D01*
Y3535D01*
X22950Y3600D01*
X22900Y3650D01*
X22835Y3677D01*
D02*
G37*
G36*
X2301Y3334D02*
X2199D01*
X2102Y3308D01*
X2014Y3257D01*
X1943Y3186D01*
X1892Y3098D01*
X1866Y3001D01*
Y2899D01*
X1892Y2802D01*
X1943Y2714D01*
X2014Y2643D01*
X2102Y2592D01*
X2199Y2566D01*
X2301D01*
X2398Y2592D01*
X2486Y2643D01*
X2557Y2714D01*
X2608Y2802D01*
X2634Y2899D01*
Y3001D01*
X2608Y3098D01*
X2557Y3186D01*
X2486Y3257D01*
X2398Y3308D01*
X2301Y3334D01*
D02*
G37*
G36*
Y2334D02*
X2199D01*
X2102Y2308D01*
X2014Y2257D01*
X1943Y2186D01*
X1892Y2098D01*
X1866Y2001D01*
Y1899D01*
X1892Y1802D01*
X1943Y1714D01*
X2014Y1643D01*
X2102Y1592D01*
X2199Y1566D01*
X2301D01*
X2398Y1592D01*
X2486Y1643D01*
X2557Y1714D01*
X2608Y1802D01*
X2634Y1899D01*
Y2001D01*
X2608Y2098D01*
X2557Y2186D01*
X2486Y2257D01*
X2398Y2308D01*
X2301Y2334D01*
D02*
G37*
G36*
X23285Y1477D02*
X23215D01*
X23150Y1450D01*
X23100Y1400D01*
X23073Y1335D01*
Y1265D01*
X23100Y1200D01*
X23150Y1150D01*
X23215Y1123D01*
X23285D01*
X23350Y1150D01*
X23400Y1200D01*
X23427Y1265D01*
Y1335D01*
X23400Y1400D01*
X23350Y1450D01*
X23285Y1477D01*
D02*
G37*
%LPD*%
D67*
X31450Y12200D02*
D03*
X31400Y8400D02*
D03*
X31450Y10800D02*
D03*
D70*
X4650Y14500D02*
D03*
X4150D02*
D03*
D72*
X1539Y13599D02*
D03*
X3789Y18099D02*
D03*
X1539Y10599D02*
D03*
X12039Y16408D02*
D03*
X10539D02*
D03*
X6039D02*
D03*
X1539Y16599D02*
D03*
X13465Y16408D02*
D03*
X15039Y16599D02*
D03*
X18039Y13621D02*
D03*
X19539D02*
D03*
X21039D02*
D03*
X32289Y18099D02*
D03*
Y9099D02*
D03*
X30789Y18099D02*
D03*
Y12099D02*
D03*
X30039Y7599D02*
D03*
X30789Y6099D02*
D03*
X30039Y1599D02*
D03*
X29289Y18099D02*
D03*
X28539Y10599D02*
D03*
Y7599D02*
D03*
Y1599D02*
D03*
X27789Y18099D02*
D03*
X27039Y16599D02*
D03*
Y10599D02*
D03*
X27789Y6099D02*
D03*
X27039Y4599D02*
D03*
X27789Y3099D02*
D03*
X27039Y1599D02*
D03*
X26289Y18099D02*
D03*
X25539Y16599D02*
D03*
X24039D02*
D03*
X23289Y6099D02*
D03*
X22539Y4599D02*
D03*
Y1599D02*
D03*
X21789Y18099D02*
D03*
X21039Y16599D02*
D03*
X21789Y15099D02*
D03*
Y6099D02*
D03*
X21039Y4599D02*
D03*
X21789Y3099D02*
D03*
X21039Y1599D02*
D03*
X20289Y18099D02*
D03*
Y15099D02*
D03*
Y6099D02*
D03*
X19539Y4599D02*
D03*
X20289Y3099D02*
D03*
X19539Y1599D02*
D03*
X18789Y18099D02*
D03*
Y12099D02*
D03*
X18039Y4599D02*
D03*
X18789Y3099D02*
D03*
X18039Y1599D02*
D03*
X17289Y18099D02*
D03*
X16539Y16599D02*
D03*
Y10599D02*
D03*
X17289Y6099D02*
D03*
X16539Y4599D02*
D03*
X17289Y3099D02*
D03*
X16539Y1599D02*
D03*
X15789Y18099D02*
D03*
Y9099D02*
D03*
Y3099D02*
D03*
X15039Y1599D02*
D03*
X14289Y18099D02*
D03*
Y15099D02*
D03*
X13539Y13599D02*
D03*
Y4599D02*
D03*
X14289Y3099D02*
D03*
X13539Y1599D02*
D03*
X12789Y18099D02*
D03*
Y15099D02*
D03*
Y6099D02*
D03*
X12039Y4599D02*
D03*
Y1599D02*
D03*
X11289Y18099D02*
D03*
X10539Y13599D02*
D03*
Y10599D02*
D03*
X11289Y9099D02*
D03*
Y6099D02*
D03*
X10539Y4599D02*
D03*
Y1599D02*
D03*
X9789Y18099D02*
D03*
Y9099D02*
D03*
X9039Y7599D02*
D03*
X9789Y6099D02*
D03*
X9039Y4599D02*
D03*
Y1599D02*
D03*
X8289Y18099D02*
D03*
X7539Y13599D02*
D03*
Y10599D02*
D03*
X8289Y9099D02*
D03*
X7539Y7599D02*
D03*
X8289Y6099D02*
D03*
X7539Y4599D02*
D03*
Y1599D02*
D03*
X6789Y18099D02*
D03*
Y12099D02*
D03*
Y9099D02*
D03*
Y6099D02*
D03*
X6039Y1599D02*
D03*
X5289Y18099D02*
D03*
X4539Y16599D02*
D03*
Y1599D02*
D03*
X2289Y18099D02*
D03*
M02*
