G04*
G04 #@! TF.GenerationSoftware,Altium Limited,Altium Designer,23.3.1 (30)*
G04*
G04 Layer_Color=8388736*
%FSLAX24Y24*%
%MOIN*%
G70*
G04*
G04 #@! TF.SameCoordinates,D40D81B0-760B-49B0-83D9-93248203E87C*
G04*
G04*
G04 #@! TF.FilePolarity,Negative*
G04*
G01*
G75*
%ADD37R,0.0488X0.0539*%
%ADD38R,0.0512X0.0618*%
%ADD39R,0.0315X0.0335*%
%ADD40R,0.0571X0.0512*%
%ADD41R,0.0539X0.0488*%
%ADD42R,0.0512X0.0276*%
%ADD43R,0.1146X0.0579*%
%ADD44R,0.1417X0.0965*%
%ADD45R,0.0618X0.0512*%
%ADD46R,0.1000X0.0484*%
%ADD47R,0.0874X0.0630*%
%ADD48R,0.1083X0.0331*%
%ADD49R,0.0689X0.0413*%
%ADD50R,0.0689X0.1299*%
%ADD51R,0.1099X0.0479*%
%ADD52R,0.0394X0.0591*%
%ADD53R,0.0728X0.1083*%
G04:AMPARAMS|DCode=54|XSize=81.5mil|YSize=27.6mil|CornerRadius=4.9mil|HoleSize=0mil|Usage=FLASHONLY|Rotation=0.000|XOffset=0mil|YOffset=0mil|HoleType=Round|Shape=RoundedRectangle|*
%AMROUNDEDRECTD54*
21,1,0.0815,0.0177,0,0,0.0*
21,1,0.0717,0.0276,0,0,0.0*
1,1,0.0098,0.0358,-0.0089*
1,1,0.0098,-0.0358,-0.0089*
1,1,0.0098,-0.0358,0.0089*
1,1,0.0098,0.0358,0.0089*
%
%ADD54ROUNDEDRECTD54*%
G04:AMPARAMS|DCode=55|XSize=65.4mil|YSize=15mil|CornerRadius=4.7mil|HoleSize=0mil|Usage=FLASHONLY|Rotation=0.000|XOffset=0mil|YOffset=0mil|HoleType=Round|Shape=RoundedRectangle|*
%AMROUNDEDRECTD55*
21,1,0.0654,0.0055,0,0,0.0*
21,1,0.0559,0.0150,0,0,0.0*
1,1,0.0094,0.0280,-0.0028*
1,1,0.0094,-0.0280,-0.0028*
1,1,0.0094,-0.0280,0.0028*
1,1,0.0094,0.0280,0.0028*
%
%ADD55ROUNDEDRECTD55*%
G04:AMPARAMS|DCode=56|XSize=65.4mil|YSize=15mil|CornerRadius=4.7mil|HoleSize=0mil|Usage=FLASHONLY|Rotation=270.000|XOffset=0mil|YOffset=0mil|HoleType=Round|Shape=RoundedRectangle|*
%AMROUNDEDRECTD56*
21,1,0.0654,0.0055,0,0,270.0*
21,1,0.0559,0.0150,0,0,270.0*
1,1,0.0094,-0.0028,-0.0280*
1,1,0.0094,-0.0028,0.0280*
1,1,0.0094,0.0028,0.0280*
1,1,0.0094,0.0028,-0.0280*
%
%ADD56ROUNDEDRECTD56*%
%ADD57R,0.0689X0.0689*%
%ADD58C,0.0689*%
%ADD59C,0.0472*%
%ADD60R,0.0453X0.0453*%
%ADD61C,0.0453*%
%ADD62R,0.0453X0.0453*%
D37*
X12100Y9900D02*
D03*
X12900D02*
D03*
X12950Y11350D02*
D03*
X13750D02*
D03*
X24600Y9550D02*
D03*
X25400D02*
D03*
X21801Y10550D02*
D03*
X22600D02*
D03*
X24600Y8750D02*
D03*
X25400D02*
D03*
X23350Y10700D02*
D03*
X24150D02*
D03*
X25650D02*
D03*
X24850D02*
D03*
X24050Y3500D02*
D03*
X23250D02*
D03*
X30350Y4450D02*
D03*
X31150D02*
D03*
X23250Y4100D02*
D03*
X24050D02*
D03*
X30350Y5200D02*
D03*
X31150D02*
D03*
X24050Y1750D02*
D03*
X23250D02*
D03*
X23000Y13050D02*
D03*
X23800D02*
D03*
X20849Y11250D02*
D03*
X20050D02*
D03*
X23250Y2400D02*
D03*
X24050D02*
D03*
X12100Y10550D02*
D03*
X12900D02*
D03*
D38*
X26461Y15350D02*
D03*
X27139D02*
D03*
X26889Y9550D02*
D03*
X26211D02*
D03*
X26889Y8750D02*
D03*
X26211D02*
D03*
X24139Y11450D02*
D03*
X23461D02*
D03*
D39*
X13897Y10566D02*
D03*
Y10034D02*
D03*
X13503D02*
D03*
Y10566D02*
D03*
D40*
X31937Y5200D02*
D03*
X32863D02*
D03*
X31937Y4450D02*
D03*
X32863D02*
D03*
D41*
X14250Y5850D02*
D03*
Y6650D02*
D03*
X16200Y12750D02*
D03*
Y13550D02*
D03*
X17450Y14550D02*
D03*
Y15350D02*
D03*
Y17200D02*
D03*
Y16400D02*
D03*
X13600Y5850D02*
D03*
Y6650D02*
D03*
X15550Y5850D02*
D03*
Y6650D02*
D03*
X13700Y8150D02*
D03*
Y8950D02*
D03*
X22850Y15850D02*
D03*
Y15050D02*
D03*
X18150Y14544D02*
D03*
Y15343D02*
D03*
X18700Y5900D02*
D03*
Y6700D02*
D03*
X14900Y5850D02*
D03*
Y6650D02*
D03*
X13100Y8150D02*
D03*
Y8950D02*
D03*
X17950Y5900D02*
D03*
Y6700D02*
D03*
X18150Y17200D02*
D03*
Y16400D02*
D03*
X15300Y13550D02*
D03*
Y12750D02*
D03*
X22100Y13950D02*
D03*
Y13150D02*
D03*
X21450Y13150D02*
D03*
Y13950D02*
D03*
X22850Y16600D02*
D03*
Y17400D02*
D03*
D42*
X23834Y14424D02*
D03*
Y14050D02*
D03*
Y13676D02*
D03*
X22850D02*
D03*
Y14050D02*
D03*
Y14424D02*
D03*
D43*
X25100Y13809D02*
D03*
Y12691D02*
D03*
X26450D02*
D03*
Y13809D02*
D03*
D44*
X24700Y17732D02*
D03*
Y15350D02*
D03*
D45*
X12300Y8889D02*
D03*
Y8211D02*
D03*
D46*
X29243Y7000D02*
D03*
Y6000D02*
D03*
Y5000D02*
D03*
Y4000D02*
D03*
Y3000D02*
D03*
Y2000D02*
D03*
X25857Y7000D02*
D03*
Y6000D02*
D03*
Y5000D02*
D03*
Y4000D02*
D03*
Y3000D02*
D03*
Y2000D02*
D03*
D47*
X29483Y10100D02*
D03*
X27817D02*
D03*
X29483Y8800D02*
D03*
X27817D02*
D03*
D48*
X30483Y17400D02*
D03*
X32117D02*
D03*
X30483Y16900D02*
D03*
X32117D02*
D03*
X30483Y16400D02*
D03*
X32117D02*
D03*
X30483Y15900D02*
D03*
X32117D02*
D03*
Y15400D02*
D03*
X30483D02*
D03*
D49*
X19140Y17156D02*
D03*
Y16250D02*
D03*
Y15344D02*
D03*
D50*
X21660Y16250D02*
D03*
D51*
X29300Y12460D02*
D03*
Y13640D02*
D03*
D52*
X33030Y3250D02*
D03*
X30470D02*
D03*
X33030Y1550D02*
D03*
X30470D02*
D03*
D53*
X27950Y14796D02*
D03*
Y13104D02*
D03*
D54*
X23572Y9850D02*
D03*
Y9350D02*
D03*
Y8850D02*
D03*
Y8350D02*
D03*
X21628D02*
D03*
Y8850D02*
D03*
Y9350D02*
D03*
Y9850D02*
D03*
D55*
X19136Y11226D02*
D03*
Y11030D02*
D03*
Y10833D02*
D03*
Y10636D02*
D03*
Y10439D02*
D03*
Y10242D02*
D03*
Y10045D02*
D03*
Y9848D02*
D03*
Y9652D02*
D03*
Y9455D02*
D03*
Y9258D02*
D03*
Y9061D02*
D03*
Y8864D02*
D03*
Y8667D02*
D03*
Y8470D02*
D03*
Y8274D02*
D03*
X14664D02*
D03*
Y8470D02*
D03*
Y8667D02*
D03*
Y8864D02*
D03*
Y9061D02*
D03*
Y9258D02*
D03*
Y9455D02*
D03*
Y9652D02*
D03*
Y9848D02*
D03*
Y10045D02*
D03*
Y10242D02*
D03*
Y10439D02*
D03*
Y10636D02*
D03*
Y10833D02*
D03*
Y11030D02*
D03*
Y11226D02*
D03*
D56*
X18376Y7514D02*
D03*
X18180D02*
D03*
X17983D02*
D03*
X17786D02*
D03*
X17589D02*
D03*
X17392D02*
D03*
X17195D02*
D03*
X16998D02*
D03*
X16802D02*
D03*
X16605D02*
D03*
X16408D02*
D03*
X16211D02*
D03*
X16014D02*
D03*
X15817D02*
D03*
X15620D02*
D03*
X15424D02*
D03*
Y11986D02*
D03*
X15620D02*
D03*
X15817D02*
D03*
X16014D02*
D03*
X16211D02*
D03*
X16408D02*
D03*
X16605D02*
D03*
X16802D02*
D03*
X16998D02*
D03*
X17195D02*
D03*
X17392D02*
D03*
X17589D02*
D03*
X17786D02*
D03*
X17983D02*
D03*
X18180D02*
D03*
X18376D02*
D03*
D57*
X2250Y8950D02*
D03*
X31450Y12200D02*
D03*
X31400Y6400D02*
D03*
X2250Y17250D02*
D03*
X31450Y9800D02*
D03*
D58*
X2250Y7950D02*
D03*
Y6950D02*
D03*
Y5950D02*
D03*
Y4950D02*
D03*
Y3950D02*
D03*
Y2950D02*
D03*
Y1950D02*
D03*
X31450Y13200D02*
D03*
X31400Y8400D02*
D03*
Y7400D02*
D03*
X2250Y16250D02*
D03*
Y15250D02*
D03*
Y14250D02*
D03*
Y13250D02*
D03*
Y12250D02*
D03*
Y11250D02*
D03*
Y10250D02*
D03*
X31450Y10800D02*
D03*
D59*
X32450Y13200D02*
D03*
Y12200D02*
D03*
X32400Y8400D02*
D03*
Y7400D02*
D03*
Y6400D02*
D03*
X32450Y10800D02*
D03*
Y9800D02*
D03*
D60*
X28900Y14450D02*
D03*
D61*
X29400D02*
D03*
X29900D02*
D03*
X4150Y5000D02*
D03*
X4650Y5500D02*
D03*
X4150D02*
D03*
X4650Y6000D02*
D03*
X4150D02*
D03*
X4650Y6500D02*
D03*
X4150D02*
D03*
X4650Y7000D02*
D03*
X4150D02*
D03*
X4650Y7500D02*
D03*
X4150D02*
D03*
X4650Y8000D02*
D03*
X4150D02*
D03*
X4650Y8500D02*
D03*
X4150D02*
D03*
X4650Y9000D02*
D03*
X4150D02*
D03*
X4650Y9500D02*
D03*
X4150D02*
D03*
X4650Y10000D02*
D03*
X4150D02*
D03*
X4650Y10500D02*
D03*
X4150D02*
D03*
X4650Y11000D02*
D03*
X4150D02*
D03*
X4650Y11500D02*
D03*
X4150D02*
D03*
X4650Y12000D02*
D03*
X4150D02*
D03*
X4650Y12500D02*
D03*
X4150D02*
D03*
X4650Y13000D02*
D03*
X4150D02*
D03*
X4650Y13500D02*
D03*
X4150D02*
D03*
X4650Y14000D02*
D03*
X4150D02*
D03*
X4650Y14500D02*
D03*
X4150D02*
D03*
D62*
X4650Y5000D02*
D03*
M02*
