G04*
G04 #@! TF.GenerationSoftware,Altium Limited,Altium Designer,23.3.1 (30)*
G04*
G04 Layer_Color=16711935*
%FSLAX24Y24*%
%MOIN*%
G70*
G04*
G04 #@! TF.SameCoordinates,D40D81B0-760B-49B0-83D9-93248203E87C*
G04*
G04*
G04 #@! TF.FilePolarity,Positive*
G04*
G01*
G75*
%ADD10C,0.0079*%
%ADD12C,0.0039*%
%ADD14C,0.0050*%
%ADD16C,0.0060*%
D10*
X2289Y9737D02*
G03*
X2289Y9737I-39J0D01*
G01*
X13208Y10694D02*
G03*
X13208Y10694I-39J0D01*
G01*
X31489Y11413D02*
G03*
X31489Y11413I-39J0D01*
G01*
X28441Y14450D02*
G03*
X28441Y14450I-39J0D01*
G01*
X33013Y15400D02*
G03*
X33013Y15400I-39J0D01*
G01*
X31439Y5613D02*
G03*
X31439Y5613I-39J0D01*
G01*
X4715Y4543D02*
G03*
X4715Y4543I-39J0D01*
G01*
X30116Y3250D02*
G03*
X30116Y3250I-39J0D01*
G01*
X2289Y18037D02*
G03*
X2289Y18037I-39J0D01*
G01*
X31489Y9013D02*
G03*
X31489Y9013I-39J0D01*
G01*
X30116Y1550D02*
G03*
X30116Y1550I-39J0D01*
G01*
X21049Y10007D02*
G03*
X21049Y10007I-39J0D01*
G01*
X15365Y11226D02*
G03*
X15365Y11226I-39J0D01*
G01*
D12*
X23027Y14247D02*
X23401Y14621D01*
X23027Y13479D02*
Y14621D01*
Y13479D02*
X23657D01*
Y14621D01*
X23027D02*
X23657D01*
X29475Y1071D02*
Y7929D01*
X25625Y1071D02*
X29475D01*
X25625D02*
Y7929D01*
X29475D01*
D14*
X1030Y1359D02*
Y9541D01*
Y1359D02*
X3470D01*
Y9541D01*
X1030D02*
X3470D01*
X27233Y15067D02*
Y15633D01*
X26367Y15067D02*
Y15633D01*
Y15067D02*
X27233D01*
X26367Y15633D02*
X27233D01*
X13385Y9906D02*
Y10694D01*
Y9906D02*
X14015D01*
Y10694D01*
X13385D02*
X14015D01*
X30230Y13791D02*
X32670D01*
X30230Y11609D02*
X32670D01*
X30230D02*
Y13791D01*
X32670Y11609D02*
Y13791D01*
X24549Y12561D02*
X25651D01*
X24549Y13939D02*
X25651D01*
X24549Y12561D02*
Y13939D01*
X25651Y12561D02*
Y13939D01*
X23401Y15163D02*
X25999D01*
Y17919D01*
X23401D02*
X25999D01*
X23401Y15163D02*
Y17919D01*
X12017Y8117D02*
X12583D01*
X12017Y8983D02*
X12583D01*
X12017Y8117D02*
Y8983D01*
X12583Y8117D02*
Y8983D01*
X27798Y10604D02*
X29502D01*
Y9596D02*
Y10604D01*
X27798Y9596D02*
X29502D01*
X27798D02*
Y10604D01*
X28650Y14037D02*
Y14863D01*
Y14037D02*
X30150D01*
Y14863D01*
X28650D02*
X30150D01*
X32300Y15150D02*
Y17650D01*
X30300D02*
X32300D01*
X30300Y15150D02*
Y17650D01*
Y15150D02*
X32300D01*
X27798Y9304D02*
X29502D01*
Y8296D02*
Y9304D01*
X27798Y8296D02*
X29502D01*
X27798D02*
Y9304D01*
X30180Y8991D02*
X32620D01*
X30180Y5809D02*
X32620D01*
X30180D02*
Y8991D01*
X32620Y5809D02*
Y8991D01*
X5634Y4750D02*
X6028D01*
Y14750D01*
X5634D02*
X6028D01*
X5634Y4750D02*
Y14750D01*
X6028Y4750D02*
X7524D01*
Y14750D01*
X6028D02*
X7524D01*
X30569Y2561D02*
Y3939D01*
Y2561D02*
X32931D01*
Y3939D01*
X30569D02*
X32931D01*
X26117Y9267D02*
Y9833D01*
X26983Y9267D02*
Y9833D01*
X26117D02*
X26983D01*
X26117Y9267D02*
X26983D01*
X1030Y9659D02*
Y17841D01*
Y9659D02*
X3470D01*
Y17841D01*
X1030D02*
X3470D01*
X26117Y8467D02*
Y9033D01*
X26983Y8467D02*
Y9033D01*
X26117D02*
X26983D01*
X26117Y8467D02*
X26983D01*
X30230Y11391D02*
X32670D01*
X30230Y9209D02*
X32670D01*
X30230D02*
Y11391D01*
X32670Y9209D02*
Y11391D01*
X27001Y12561D02*
Y13939D01*
X25899Y12561D02*
Y13939D01*
X27001D01*
X25899Y12561D02*
X27001D01*
X30569Y861D02*
Y2239D01*
Y861D02*
X32931D01*
Y2239D01*
X30569D02*
X32931D01*
X23367Y8134D02*
Y10066D01*
X21833Y8134D02*
Y10066D01*
Y8134D02*
X23367D01*
X21833Y10066D02*
X23367D01*
X23367Y11167D02*
Y11733D01*
X24233Y11167D02*
Y11733D01*
X23367D02*
X24233D01*
X23367Y11167D02*
X24233D01*
X18908Y7742D02*
Y11758D01*
X14892Y7742D02*
Y11758D01*
X18908D01*
X14892Y7742D02*
X18908D01*
D16*
X28770Y13720D02*
X29830D01*
Y12680D02*
Y13420D01*
X28770Y12380D02*
X29830D01*
X28770Y12680D02*
Y13420D01*
X29830Y12380D02*
Y12680D01*
X28770Y12380D02*
Y12680D01*
X29830D01*
X28770Y13420D02*
Y13720D01*
X29830Y13420D02*
Y13720D01*
X28770Y13420D02*
X29830D01*
M02*
